G04 #@! TF.GenerationSoftware,KiCad,Pcbnew,(5.1.8)-1*
G04 #@! TF.CreationDate,2021-06-27T17:42:14+01:00*
G04 #@! TF.ProjectId,schem_1,73636865-6d5f-4312-9e6b-696361645f70,rev?*
G04 #@! TF.SameCoordinates,Original*
G04 #@! TF.FileFunction,Paste,Top*
G04 #@! TF.FilePolarity,Positive*
%FSLAX46Y46*%
G04 Gerber Fmt 4.6, Leading zero omitted, Abs format (unit mm)*
G04 Created by KiCad (PCBNEW (5.1.8)-1) date 2021-06-27 17:42:14*
%MOMM*%
%LPD*%
G01*
G04 APERTURE LIST*
%ADD10R,0.900000X0.900000*%
%ADD11R,1.500000X0.900000*%
%ADD12R,2.000000X0.320000*%
%ADD13R,1.100000X0.300000*%
%ADD14R,3.100000X2.300000*%
%ADD15R,0.900000X1.000000*%
G04 APERTURE END LIST*
D10*
G04 #@! TO.C,U1*
X111476880Y-13725260D03*
X114276880Y-13725260D03*
X112876880Y-13725260D03*
X112876880Y-15125260D03*
X111476880Y-15125260D03*
X114276880Y-15125260D03*
X111476880Y-16525260D03*
X112876880Y-16525260D03*
X114276880Y-16525260D03*
D11*
X102347480Y-6432460D03*
X102347480Y-7702460D03*
X102347480Y-8972460D03*
X102347480Y-10242460D03*
X102347480Y-11512460D03*
X102347480Y-12782460D03*
X102347480Y-14052460D03*
X102347480Y-15322460D03*
X102347480Y-16592460D03*
X102347480Y-17862460D03*
X102347480Y-19132460D03*
X102347480Y-20402460D03*
X102347480Y-21672460D03*
X102347480Y-22942460D03*
X102347480Y-5162460D03*
X102347480Y-3892460D03*
X102347480Y-2622460D03*
X102347480Y-1352460D03*
X102347480Y-82460D03*
X120357480Y-82460D03*
X120357480Y-1352460D03*
X120357480Y-2622460D03*
X120357480Y-3892460D03*
X120357480Y-5162460D03*
X120357480Y-6432460D03*
X120357480Y-7702460D03*
X120357480Y-8972460D03*
X120357480Y-10242460D03*
X120357480Y-11512460D03*
X120357480Y-12782460D03*
X120357480Y-14052460D03*
X120357480Y-15322460D03*
X120357480Y-16592460D03*
X120357480Y-17862460D03*
X120357480Y-19132460D03*
X120357480Y-20402460D03*
X120357480Y-21672460D03*
X120357480Y-22942460D03*
G04 #@! TD*
D12*
G04 #@! TO.C,U7*
X80691800Y-7143000D03*
X80691800Y-9003000D03*
X80691800Y-9623000D03*
X80691800Y-8383000D03*
X80691800Y-7763000D03*
X80691800Y-10243000D03*
X80691800Y-10863000D03*
X80691800Y-11483000D03*
X80691800Y-12103000D03*
X80691800Y-12723000D03*
X80691800Y-13343000D03*
X80691800Y-13963000D03*
X80691800Y-14583000D03*
X80691800Y-15203000D03*
G04 #@! TD*
D13*
G04 #@! TO.C,J1*
X94925480Y-20548460D03*
X94925480Y-20048460D03*
X94925480Y-19548460D03*
X94925480Y-19048460D03*
X94925480Y-18548460D03*
X94925480Y-18048460D03*
X94925480Y-17548460D03*
X94925480Y-17048460D03*
X94925480Y-16548460D03*
X94925480Y-16048460D03*
X94925480Y-15548460D03*
X94925480Y-15048460D03*
X94925480Y-14548460D03*
X94925480Y-14048460D03*
X94925480Y-13548460D03*
X94925480Y-13048460D03*
X94925480Y-12548460D03*
X94925480Y-12048460D03*
X94925480Y-11548460D03*
X94925480Y-11048460D03*
X94925480Y-10548460D03*
X94925480Y-10048460D03*
X94925480Y-9548460D03*
X94925480Y-9048460D03*
D14*
X96625480Y-22218460D03*
X96625480Y-7378460D03*
G04 #@! TD*
G04 #@! TO.C,R27*
G36*
G01*
X124566980Y-12532860D02*
X124566980Y-13082860D01*
G75*
G02*
X124366980Y-13282860I-200000J0D01*
G01*
X123966980Y-13282860D01*
G75*
G02*
X123766980Y-13082860I0J200000D01*
G01*
X123766980Y-12532860D01*
G75*
G02*
X123966980Y-12332860I200000J0D01*
G01*
X124366980Y-12332860D01*
G75*
G02*
X124566980Y-12532860I0J-200000D01*
G01*
G37*
G36*
G01*
X122916980Y-12532860D02*
X122916980Y-13082860D01*
G75*
G02*
X122716980Y-13282860I-200000J0D01*
G01*
X122316980Y-13282860D01*
G75*
G02*
X122116980Y-13082860I0J200000D01*
G01*
X122116980Y-12532860D01*
G75*
G02*
X122316980Y-12332860I200000J0D01*
G01*
X122716980Y-12332860D01*
G75*
G02*
X122916980Y-12532860I0J-200000D01*
G01*
G37*
G04 #@! TD*
G04 #@! TO.C,R7*
G36*
G01*
X97847780Y-4446860D02*
X97847780Y-3896860D01*
G75*
G02*
X98047780Y-3696860I200000J0D01*
G01*
X98447780Y-3696860D01*
G75*
G02*
X98647780Y-3896860I0J-200000D01*
G01*
X98647780Y-4446860D01*
G75*
G02*
X98447780Y-4646860I-200000J0D01*
G01*
X98047780Y-4646860D01*
G75*
G02*
X97847780Y-4446860I0J200000D01*
G01*
G37*
G36*
G01*
X99497780Y-4446860D02*
X99497780Y-3896860D01*
G75*
G02*
X99697780Y-3696860I200000J0D01*
G01*
X100097780Y-3696860D01*
G75*
G02*
X100297780Y-3896860I0J-200000D01*
G01*
X100297780Y-4446860D01*
G75*
G02*
X100097780Y-4646860I-200000J0D01*
G01*
X99697780Y-4646860D01*
G75*
G02*
X99497780Y-4446860I0J200000D01*
G01*
G37*
G04 #@! TD*
G04 #@! TO.C,R6*
G36*
G01*
X97211480Y-2233160D02*
X97211480Y-2783160D01*
G75*
G02*
X97011480Y-2983160I-200000J0D01*
G01*
X96611480Y-2983160D01*
G75*
G02*
X96411480Y-2783160I0J200000D01*
G01*
X96411480Y-2233160D01*
G75*
G02*
X96611480Y-2033160I200000J0D01*
G01*
X97011480Y-2033160D01*
G75*
G02*
X97211480Y-2233160I0J-200000D01*
G01*
G37*
G36*
G01*
X95561480Y-2233160D02*
X95561480Y-2783160D01*
G75*
G02*
X95361480Y-2983160I-200000J0D01*
G01*
X94961480Y-2983160D01*
G75*
G02*
X94761480Y-2783160I0J200000D01*
G01*
X94761480Y-2233160D01*
G75*
G02*
X94961480Y-2033160I200000J0D01*
G01*
X95361480Y-2033160D01*
G75*
G02*
X95561480Y-2233160I0J-200000D01*
G01*
G37*
G04 #@! TD*
G04 #@! TO.C,R3*
G36*
G01*
X122116980Y-10517460D02*
X122116980Y-9967460D01*
G75*
G02*
X122316980Y-9767460I200000J0D01*
G01*
X122716980Y-9767460D01*
G75*
G02*
X122916980Y-9967460I0J-200000D01*
G01*
X122916980Y-10517460D01*
G75*
G02*
X122716980Y-10717460I-200000J0D01*
G01*
X122316980Y-10717460D01*
G75*
G02*
X122116980Y-10517460I0J200000D01*
G01*
G37*
G36*
G01*
X123766980Y-10517460D02*
X123766980Y-9967460D01*
G75*
G02*
X123966980Y-9767460I200000J0D01*
G01*
X124366980Y-9767460D01*
G75*
G02*
X124566980Y-9967460I0J-200000D01*
G01*
X124566980Y-10517460D01*
G75*
G02*
X124366980Y-10717460I-200000J0D01*
G01*
X123966980Y-10717460D01*
G75*
G02*
X123766980Y-10517460I0J200000D01*
G01*
G37*
G04 #@! TD*
G04 #@! TO.C,R1*
G36*
G01*
X122116480Y-8993460D02*
X122116480Y-8443460D01*
G75*
G02*
X122316480Y-8243460I200000J0D01*
G01*
X122716480Y-8243460D01*
G75*
G02*
X122916480Y-8443460I0J-200000D01*
G01*
X122916480Y-8993460D01*
G75*
G02*
X122716480Y-9193460I-200000J0D01*
G01*
X122316480Y-9193460D01*
G75*
G02*
X122116480Y-8993460I0J200000D01*
G01*
G37*
G36*
G01*
X123766480Y-8993460D02*
X123766480Y-8443460D01*
G75*
G02*
X123966480Y-8243460I200000J0D01*
G01*
X124366480Y-8243460D01*
G75*
G02*
X124566480Y-8443460I0J-200000D01*
G01*
X124566480Y-8993460D01*
G75*
G02*
X124366480Y-9193460I-200000J0D01*
G01*
X123966480Y-9193460D01*
G75*
G02*
X123766480Y-8993460I0J200000D01*
G01*
G37*
G04 #@! TD*
G04 #@! TO.C,D4*
G36*
G01*
X80319800Y-38350D02*
X80319800Y874150D01*
G75*
G02*
X80563550Y1117900I243750J0D01*
G01*
X81051050Y1117900D01*
G75*
G02*
X81294800Y874150I0J-243750D01*
G01*
X81294800Y-38350D01*
G75*
G02*
X81051050Y-282100I-243750J0D01*
G01*
X80563550Y-282100D01*
G75*
G02*
X80319800Y-38350I0J243750D01*
G01*
G37*
G36*
G01*
X82194800Y-38350D02*
X82194800Y874150D01*
G75*
G02*
X82438550Y1117900I243750J0D01*
G01*
X82926050Y1117900D01*
G75*
G02*
X83169800Y874150I0J-243750D01*
G01*
X83169800Y-38350D01*
G75*
G02*
X82926050Y-282100I-243750J0D01*
G01*
X82438550Y-282100D01*
G75*
G02*
X82194800Y-38350I0J243750D01*
G01*
G37*
G04 #@! TD*
G04 #@! TO.C,D3*
G36*
G01*
X66600700Y-38350D02*
X66600700Y874150D01*
G75*
G02*
X66844450Y1117900I243750J0D01*
G01*
X67331950Y1117900D01*
G75*
G02*
X67575700Y874150I0J-243750D01*
G01*
X67575700Y-38350D01*
G75*
G02*
X67331950Y-282100I-243750J0D01*
G01*
X66844450Y-282100D01*
G75*
G02*
X66600700Y-38350I0J243750D01*
G01*
G37*
G36*
G01*
X68475700Y-38350D02*
X68475700Y874150D01*
G75*
G02*
X68719450Y1117900I243750J0D01*
G01*
X69206950Y1117900D01*
G75*
G02*
X69450700Y874150I0J-243750D01*
G01*
X69450700Y-38350D01*
G75*
G02*
X69206950Y-282100I-243750J0D01*
G01*
X68719450Y-282100D01*
G75*
G02*
X68475700Y-38350I0J243750D01*
G01*
G37*
G04 #@! TD*
G04 #@! TO.C,C26*
G36*
G01*
X124388730Y-21016460D02*
X124888730Y-21016460D01*
G75*
G02*
X125113730Y-21241460I0J-225000D01*
G01*
X125113730Y-21691460D01*
G75*
G02*
X124888730Y-21916460I-225000J0D01*
G01*
X124388730Y-21916460D01*
G75*
G02*
X124163730Y-21691460I0J225000D01*
G01*
X124163730Y-21241460D01*
G75*
G02*
X124388730Y-21016460I225000J0D01*
G01*
G37*
G36*
G01*
X124388730Y-22566460D02*
X124888730Y-22566460D01*
G75*
G02*
X125113730Y-22791460I0J-225000D01*
G01*
X125113730Y-23241460D01*
G75*
G02*
X124888730Y-23466460I-225000J0D01*
G01*
X124388730Y-23466460D01*
G75*
G02*
X124163730Y-23241460I0J225000D01*
G01*
X124163730Y-22791460D01*
G75*
G02*
X124388730Y-22566460I225000J0D01*
G01*
G37*
G04 #@! TD*
G04 #@! TO.C,C25*
G36*
G01*
X122696980Y-21016460D02*
X123196980Y-21016460D01*
G75*
G02*
X123421980Y-21241460I0J-225000D01*
G01*
X123421980Y-21691460D01*
G75*
G02*
X123196980Y-21916460I-225000J0D01*
G01*
X122696980Y-21916460D01*
G75*
G02*
X122471980Y-21691460I0J225000D01*
G01*
X122471980Y-21241460D01*
G75*
G02*
X122696980Y-21016460I225000J0D01*
G01*
G37*
G36*
G01*
X122696980Y-22566460D02*
X123196980Y-22566460D01*
G75*
G02*
X123421980Y-22791460I0J-225000D01*
G01*
X123421980Y-23241460D01*
G75*
G02*
X123196980Y-23466460I-225000J0D01*
G01*
X122696980Y-23466460D01*
G75*
G02*
X122471980Y-23241460I0J225000D01*
G01*
X122471980Y-22791460D01*
G75*
G02*
X122696980Y-22566460I225000J0D01*
G01*
G37*
G04 #@! TD*
G04 #@! TO.C,C5*
G36*
G01*
X97210880Y-3934560D02*
X97210880Y-4434560D01*
G75*
G02*
X96985880Y-4659560I-225000J0D01*
G01*
X96535880Y-4659560D01*
G75*
G02*
X96310880Y-4434560I0J225000D01*
G01*
X96310880Y-3934560D01*
G75*
G02*
X96535880Y-3709560I225000J0D01*
G01*
X96985880Y-3709560D01*
G75*
G02*
X97210880Y-3934560I0J-225000D01*
G01*
G37*
G36*
G01*
X95660880Y-3934560D02*
X95660880Y-4434560D01*
G75*
G02*
X95435880Y-4659560I-225000J0D01*
G01*
X94985880Y-4659560D01*
G75*
G02*
X94760880Y-4434560I0J225000D01*
G01*
X94760880Y-3934560D01*
G75*
G02*
X94985880Y-3709560I225000J0D01*
G01*
X95435880Y-3709560D01*
G75*
G02*
X95660880Y-3934560I0J-225000D01*
G01*
G37*
G04 #@! TD*
G04 #@! TO.C,C1*
G36*
G01*
X122402480Y-20115460D02*
X122402480Y-19165460D01*
G75*
G02*
X122652480Y-18915460I250000J0D01*
G01*
X123152480Y-18915460D01*
G75*
G02*
X123402480Y-19165460I0J-250000D01*
G01*
X123402480Y-20115460D01*
G75*
G02*
X123152480Y-20365460I-250000J0D01*
G01*
X122652480Y-20365460D01*
G75*
G02*
X122402480Y-20115460I0J250000D01*
G01*
G37*
G36*
G01*
X124302480Y-20115460D02*
X124302480Y-19165460D01*
G75*
G02*
X124552480Y-18915460I250000J0D01*
G01*
X125052480Y-18915460D01*
G75*
G02*
X125302480Y-19165460I0J-250000D01*
G01*
X125302480Y-20115460D01*
G75*
G02*
X125052480Y-20365460I-250000J0D01*
G01*
X124552480Y-20365460D01*
G75*
G02*
X124302480Y-20115460I0J250000D01*
G01*
G37*
G04 #@! TD*
D15*
G04 #@! TO.C,SW4*
X67703520Y-20526620D03*
X63603520Y-20526620D03*
X63603520Y-22157620D03*
X67703520Y-22157620D03*
G04 #@! TD*
G04 #@! TO.C,SW5*
X86280420Y-20526620D03*
X82180420Y-20526620D03*
X82180420Y-22157620D03*
X86280420Y-22157620D03*
G04 #@! TD*
G04 #@! TO.C,SW6*
X76755170Y-22157620D03*
X72655170Y-22157620D03*
X72655170Y-20526620D03*
X76755170Y-20526620D03*
G04 #@! TD*
M02*
