G04 #@! TF.GenerationSoftware,KiCad,Pcbnew,(5.1.8)-1*
G04 #@! TF.CreationDate,2021-06-27T17:42:14+01:00*
G04 #@! TF.ProjectId,schem_1,73636865-6d5f-4312-9e6b-696361645f70,rev?*
G04 #@! TF.SameCoordinates,Original*
G04 #@! TF.FileFunction,Paste,Bot*
G04 #@! TF.FilePolarity,Positive*
%FSLAX46Y46*%
G04 Gerber Fmt 4.6, Leading zero omitted, Abs format (unit mm)*
G04 Created by KiCad (PCBNEW (5.1.8)-1) date 2021-06-27 17:42:15*
%MOMM*%
%LPD*%
G01*
G04 APERTURE LIST*
%ADD10R,2.000000X1.000000*%
%ADD11R,1.100000X0.300000*%
%ADD12R,3.100000X2.300000*%
%ADD13R,0.700000X1.750000*%
%ADD14R,1.300000X1.500000*%
%ADD15R,0.800000X1.500000*%
%ADD16R,1.450000X1.000000*%
%ADD17R,0.800000X1.400000*%
%ADD18R,1.500000X1.500000*%
%ADD19R,1.000000X1.550000*%
%ADD20R,0.900000X1.000000*%
%ADD21R,0.800000X0.900000*%
%ADD22R,0.900000X0.800000*%
%ADD23R,0.650000X1.060000*%
%ADD24R,1.400000X1.000000*%
%ADD25R,1.200000X0.900000*%
%ADD26R,2.500000X0.500000*%
%ADD27R,2.500000X2.000000*%
G04 APERTURE END LIST*
D10*
G04 #@! TO.C,J4*
X116072280Y-14474460D03*
X116072280Y-17014460D03*
X116072280Y-19554460D03*
X116072280Y-22094460D03*
G04 #@! TD*
D11*
G04 #@! TO.C,J3*
X99705480Y-20548460D03*
X99705480Y-20048460D03*
X99705480Y-19548460D03*
X99705480Y-19048460D03*
X99705480Y-18548460D03*
X99705480Y-18048460D03*
X99705480Y-17548460D03*
X99705480Y-17048460D03*
X99705480Y-16548460D03*
X99705480Y-16048460D03*
X99705480Y-15548460D03*
X99705480Y-15048460D03*
X99705480Y-14548460D03*
X99705480Y-14048460D03*
X99705480Y-13548460D03*
X99705480Y-13048460D03*
X99705480Y-12548460D03*
X99705480Y-12048460D03*
X99705480Y-11548460D03*
X99705480Y-11048460D03*
X99705480Y-10548460D03*
X99705480Y-10048460D03*
X99705480Y-9548460D03*
X99705480Y-9048460D03*
D12*
X98005480Y-22218460D03*
X98005480Y-7378460D03*
G04 #@! TD*
D13*
G04 #@! TO.C,J2*
X116276700Y-8484460D03*
D14*
X117476700Y-8359460D03*
D15*
X117726700Y-759460D03*
D16*
X117401700Y740540D03*
D17*
X105776700Y-109460D03*
D13*
X115176700Y-8484460D03*
X114076700Y-8484460D03*
X112976700Y-8484460D03*
X111876700Y-8484460D03*
X110776700Y-8484460D03*
X109676700Y-8484460D03*
X108576700Y-8484460D03*
D18*
X106126700Y-8359460D03*
D19*
X106176700Y2315540D03*
G04 #@! TD*
D20*
G04 #@! TO.C,SW1*
X99270400Y-3915640D03*
X95170400Y-3915640D03*
X95170400Y-2284640D03*
X99270400Y-2284640D03*
G04 #@! TD*
D11*
G04 #@! TO.C,J6*
X86167800Y-9058640D03*
X86167800Y-9558640D03*
X86167800Y-10058640D03*
X86167800Y-10558640D03*
X86167800Y-11058640D03*
X86167800Y-11558640D03*
X86167800Y-12058640D03*
X86167800Y-12558640D03*
X86167800Y-13058640D03*
X86167800Y-13558640D03*
X86167800Y-14058640D03*
X86167800Y-14558640D03*
X86167800Y-15058640D03*
X86167800Y-15558640D03*
X86167800Y-16058640D03*
X86167800Y-16558640D03*
X86167800Y-17058640D03*
X86167800Y-17558640D03*
X86167800Y-18058640D03*
X86167800Y-18558640D03*
X86167800Y-19058640D03*
X86167800Y-19558640D03*
X86167800Y-20058640D03*
X86167800Y-20558640D03*
D12*
X87867800Y-7388640D03*
X87867800Y-22228640D03*
G04 #@! TD*
G04 #@! TO.C,R29*
G36*
G01*
X60841760Y-7037680D02*
X60841760Y-6487680D01*
G75*
G02*
X61041760Y-6287680I200000J0D01*
G01*
X61441760Y-6287680D01*
G75*
G02*
X61641760Y-6487680I0J-200000D01*
G01*
X61641760Y-7037680D01*
G75*
G02*
X61441760Y-7237680I-200000J0D01*
G01*
X61041760Y-7237680D01*
G75*
G02*
X60841760Y-7037680I0J200000D01*
G01*
G37*
G36*
G01*
X62491760Y-7037680D02*
X62491760Y-6487680D01*
G75*
G02*
X62691760Y-6287680I200000J0D01*
G01*
X63091760Y-6287680D01*
G75*
G02*
X63291760Y-6487680I0J-200000D01*
G01*
X63291760Y-7037680D01*
G75*
G02*
X63091760Y-7237680I-200000J0D01*
G01*
X62691760Y-7237680D01*
G75*
G02*
X62491760Y-7037680I0J200000D01*
G01*
G37*
G04 #@! TD*
G04 #@! TO.C,R28*
G36*
G01*
X60841760Y-8663280D02*
X60841760Y-8113280D01*
G75*
G02*
X61041760Y-7913280I200000J0D01*
G01*
X61441760Y-7913280D01*
G75*
G02*
X61641760Y-8113280I0J-200000D01*
G01*
X61641760Y-8663280D01*
G75*
G02*
X61441760Y-8863280I-200000J0D01*
G01*
X61041760Y-8863280D01*
G75*
G02*
X60841760Y-8663280I0J200000D01*
G01*
G37*
G36*
G01*
X62491760Y-8663280D02*
X62491760Y-8113280D01*
G75*
G02*
X62691760Y-7913280I200000J0D01*
G01*
X63091760Y-7913280D01*
G75*
G02*
X63291760Y-8113280I0J-200000D01*
G01*
X63291760Y-8663280D01*
G75*
G02*
X63091760Y-8863280I-200000J0D01*
G01*
X62691760Y-8863280D01*
G75*
G02*
X62491760Y-8663280I0J200000D01*
G01*
G37*
G04 #@! TD*
G04 #@! TO.C,R10*
G36*
G01*
X72680700Y-14098033D02*
X72680700Y-13548033D01*
G75*
G02*
X72880700Y-13348033I200000J0D01*
G01*
X73280700Y-13348033D01*
G75*
G02*
X73480700Y-13548033I0J-200000D01*
G01*
X73480700Y-14098033D01*
G75*
G02*
X73280700Y-14298033I-200000J0D01*
G01*
X72880700Y-14298033D01*
G75*
G02*
X72680700Y-14098033I0J200000D01*
G01*
G37*
G36*
G01*
X71030700Y-14098033D02*
X71030700Y-13548033D01*
G75*
G02*
X71230700Y-13348033I200000J0D01*
G01*
X71630700Y-13348033D01*
G75*
G02*
X71830700Y-13548033I0J-200000D01*
G01*
X71830700Y-14098033D01*
G75*
G02*
X71630700Y-14298033I-200000J0D01*
G01*
X71230700Y-14298033D01*
G75*
G02*
X71030700Y-14098033I0J200000D01*
G01*
G37*
G04 #@! TD*
G04 #@! TO.C,R9*
G36*
G01*
X72680700Y-15664366D02*
X72680700Y-15114366D01*
G75*
G02*
X72880700Y-14914366I200000J0D01*
G01*
X73280700Y-14914366D01*
G75*
G02*
X73480700Y-15114366I0J-200000D01*
G01*
X73480700Y-15664366D01*
G75*
G02*
X73280700Y-15864366I-200000J0D01*
G01*
X72880700Y-15864366D01*
G75*
G02*
X72680700Y-15664366I0J200000D01*
G01*
G37*
G36*
G01*
X71030700Y-15664366D02*
X71030700Y-15114366D01*
G75*
G02*
X71230700Y-14914366I200000J0D01*
G01*
X71630700Y-14914366D01*
G75*
G02*
X71830700Y-15114366I0J-200000D01*
G01*
X71830700Y-15664366D01*
G75*
G02*
X71630700Y-15864366I-200000J0D01*
G01*
X71230700Y-15864366D01*
G75*
G02*
X71030700Y-15664366I0J200000D01*
G01*
G37*
G04 #@! TD*
G04 #@! TO.C,U8*
G36*
G01*
X83351100Y-8370400D02*
X83051100Y-8370400D01*
G75*
G02*
X82901100Y-8220400I0J150000D01*
G01*
X82901100Y-6470400D01*
G75*
G02*
X83051100Y-6320400I150000J0D01*
G01*
X83351100Y-6320400D01*
G75*
G02*
X83501100Y-6470400I0J-150000D01*
G01*
X83501100Y-8220400D01*
G75*
G02*
X83351100Y-8370400I-150000J0D01*
G01*
G37*
G36*
G01*
X82081100Y-8370400D02*
X81781100Y-8370400D01*
G75*
G02*
X81631100Y-8220400I0J150000D01*
G01*
X81631100Y-6470400D01*
G75*
G02*
X81781100Y-6320400I150000J0D01*
G01*
X82081100Y-6320400D01*
G75*
G02*
X82231100Y-6470400I0J-150000D01*
G01*
X82231100Y-8220400D01*
G75*
G02*
X82081100Y-8370400I-150000J0D01*
G01*
G37*
G36*
G01*
X80811100Y-8370400D02*
X80511100Y-8370400D01*
G75*
G02*
X80361100Y-8220400I0J150000D01*
G01*
X80361100Y-6470400D01*
G75*
G02*
X80511100Y-6320400I150000J0D01*
G01*
X80811100Y-6320400D01*
G75*
G02*
X80961100Y-6470400I0J-150000D01*
G01*
X80961100Y-8220400D01*
G75*
G02*
X80811100Y-8370400I-150000J0D01*
G01*
G37*
G36*
G01*
X79541100Y-8370400D02*
X79241100Y-8370400D01*
G75*
G02*
X79091100Y-8220400I0J150000D01*
G01*
X79091100Y-6470400D01*
G75*
G02*
X79241100Y-6320400I150000J0D01*
G01*
X79541100Y-6320400D01*
G75*
G02*
X79691100Y-6470400I0J-150000D01*
G01*
X79691100Y-8220400D01*
G75*
G02*
X79541100Y-8370400I-150000J0D01*
G01*
G37*
G36*
G01*
X78271100Y-8370400D02*
X77971100Y-8370400D01*
G75*
G02*
X77821100Y-8220400I0J150000D01*
G01*
X77821100Y-6470400D01*
G75*
G02*
X77971100Y-6320400I150000J0D01*
G01*
X78271100Y-6320400D01*
G75*
G02*
X78421100Y-6470400I0J-150000D01*
G01*
X78421100Y-8220400D01*
G75*
G02*
X78271100Y-8370400I-150000J0D01*
G01*
G37*
G36*
G01*
X77001100Y-8370400D02*
X76701100Y-8370400D01*
G75*
G02*
X76551100Y-8220400I0J150000D01*
G01*
X76551100Y-6470400D01*
G75*
G02*
X76701100Y-6320400I150000J0D01*
G01*
X77001100Y-6320400D01*
G75*
G02*
X77151100Y-6470400I0J-150000D01*
G01*
X77151100Y-8220400D01*
G75*
G02*
X77001100Y-8370400I-150000J0D01*
G01*
G37*
G36*
G01*
X75731100Y-8370400D02*
X75431100Y-8370400D01*
G75*
G02*
X75281100Y-8220400I0J150000D01*
G01*
X75281100Y-6470400D01*
G75*
G02*
X75431100Y-6320400I150000J0D01*
G01*
X75731100Y-6320400D01*
G75*
G02*
X75881100Y-6470400I0J-150000D01*
G01*
X75881100Y-8220400D01*
G75*
G02*
X75731100Y-8370400I-150000J0D01*
G01*
G37*
G36*
G01*
X74461100Y-8370400D02*
X74161100Y-8370400D01*
G75*
G02*
X74011100Y-8220400I0J150000D01*
G01*
X74011100Y-6470400D01*
G75*
G02*
X74161100Y-6320400I150000J0D01*
G01*
X74461100Y-6320400D01*
G75*
G02*
X74611100Y-6470400I0J-150000D01*
G01*
X74611100Y-8220400D01*
G75*
G02*
X74461100Y-8370400I-150000J0D01*
G01*
G37*
G36*
G01*
X73191100Y-8370400D02*
X72891100Y-8370400D01*
G75*
G02*
X72741100Y-8220400I0J150000D01*
G01*
X72741100Y-6470400D01*
G75*
G02*
X72891100Y-6320400I150000J0D01*
G01*
X73191100Y-6320400D01*
G75*
G02*
X73341100Y-6470400I0J-150000D01*
G01*
X73341100Y-8220400D01*
G75*
G02*
X73191100Y-8370400I-150000J0D01*
G01*
G37*
G36*
G01*
X71921100Y-8370400D02*
X71621100Y-8370400D01*
G75*
G02*
X71471100Y-8220400I0J150000D01*
G01*
X71471100Y-6470400D01*
G75*
G02*
X71621100Y-6320400I150000J0D01*
G01*
X71921100Y-6320400D01*
G75*
G02*
X72071100Y-6470400I0J-150000D01*
G01*
X72071100Y-8220400D01*
G75*
G02*
X71921100Y-8370400I-150000J0D01*
G01*
G37*
G36*
G01*
X70651100Y-8370400D02*
X70351100Y-8370400D01*
G75*
G02*
X70201100Y-8220400I0J150000D01*
G01*
X70201100Y-6470400D01*
G75*
G02*
X70351100Y-6320400I150000J0D01*
G01*
X70651100Y-6320400D01*
G75*
G02*
X70801100Y-6470400I0J-150000D01*
G01*
X70801100Y-8220400D01*
G75*
G02*
X70651100Y-8370400I-150000J0D01*
G01*
G37*
G36*
G01*
X69381100Y-8370400D02*
X69081100Y-8370400D01*
G75*
G02*
X68931100Y-8220400I0J150000D01*
G01*
X68931100Y-6470400D01*
G75*
G02*
X69081100Y-6320400I150000J0D01*
G01*
X69381100Y-6320400D01*
G75*
G02*
X69531100Y-6470400I0J-150000D01*
G01*
X69531100Y-8220400D01*
G75*
G02*
X69381100Y-8370400I-150000J0D01*
G01*
G37*
G36*
G01*
X68111100Y-8370400D02*
X67811100Y-8370400D01*
G75*
G02*
X67661100Y-8220400I0J150000D01*
G01*
X67661100Y-6470400D01*
G75*
G02*
X67811100Y-6320400I150000J0D01*
G01*
X68111100Y-6320400D01*
G75*
G02*
X68261100Y-6470400I0J-150000D01*
G01*
X68261100Y-8220400D01*
G75*
G02*
X68111100Y-8370400I-150000J0D01*
G01*
G37*
G36*
G01*
X66841100Y-8370400D02*
X66541100Y-8370400D01*
G75*
G02*
X66391100Y-8220400I0J150000D01*
G01*
X66391100Y-6470400D01*
G75*
G02*
X66541100Y-6320400I150000J0D01*
G01*
X66841100Y-6320400D01*
G75*
G02*
X66991100Y-6470400I0J-150000D01*
G01*
X66991100Y-8220400D01*
G75*
G02*
X66841100Y-8370400I-150000J0D01*
G01*
G37*
G36*
G01*
X66841100Y929600D02*
X66541100Y929600D01*
G75*
G02*
X66391100Y1079600I0J150000D01*
G01*
X66391100Y2829600D01*
G75*
G02*
X66541100Y2979600I150000J0D01*
G01*
X66841100Y2979600D01*
G75*
G02*
X66991100Y2829600I0J-150000D01*
G01*
X66991100Y1079600D01*
G75*
G02*
X66841100Y929600I-150000J0D01*
G01*
G37*
G36*
G01*
X68111100Y929600D02*
X67811100Y929600D01*
G75*
G02*
X67661100Y1079600I0J150000D01*
G01*
X67661100Y2829600D01*
G75*
G02*
X67811100Y2979600I150000J0D01*
G01*
X68111100Y2979600D01*
G75*
G02*
X68261100Y2829600I0J-150000D01*
G01*
X68261100Y1079600D01*
G75*
G02*
X68111100Y929600I-150000J0D01*
G01*
G37*
G36*
G01*
X69381100Y929600D02*
X69081100Y929600D01*
G75*
G02*
X68931100Y1079600I0J150000D01*
G01*
X68931100Y2829600D01*
G75*
G02*
X69081100Y2979600I150000J0D01*
G01*
X69381100Y2979600D01*
G75*
G02*
X69531100Y2829600I0J-150000D01*
G01*
X69531100Y1079600D01*
G75*
G02*
X69381100Y929600I-150000J0D01*
G01*
G37*
G36*
G01*
X70651100Y929600D02*
X70351100Y929600D01*
G75*
G02*
X70201100Y1079600I0J150000D01*
G01*
X70201100Y2829600D01*
G75*
G02*
X70351100Y2979600I150000J0D01*
G01*
X70651100Y2979600D01*
G75*
G02*
X70801100Y2829600I0J-150000D01*
G01*
X70801100Y1079600D01*
G75*
G02*
X70651100Y929600I-150000J0D01*
G01*
G37*
G36*
G01*
X71921100Y929600D02*
X71621100Y929600D01*
G75*
G02*
X71471100Y1079600I0J150000D01*
G01*
X71471100Y2829600D01*
G75*
G02*
X71621100Y2979600I150000J0D01*
G01*
X71921100Y2979600D01*
G75*
G02*
X72071100Y2829600I0J-150000D01*
G01*
X72071100Y1079600D01*
G75*
G02*
X71921100Y929600I-150000J0D01*
G01*
G37*
G36*
G01*
X73191100Y929600D02*
X72891100Y929600D01*
G75*
G02*
X72741100Y1079600I0J150000D01*
G01*
X72741100Y2829600D01*
G75*
G02*
X72891100Y2979600I150000J0D01*
G01*
X73191100Y2979600D01*
G75*
G02*
X73341100Y2829600I0J-150000D01*
G01*
X73341100Y1079600D01*
G75*
G02*
X73191100Y929600I-150000J0D01*
G01*
G37*
G36*
G01*
X74461100Y929600D02*
X74161100Y929600D01*
G75*
G02*
X74011100Y1079600I0J150000D01*
G01*
X74011100Y2829600D01*
G75*
G02*
X74161100Y2979600I150000J0D01*
G01*
X74461100Y2979600D01*
G75*
G02*
X74611100Y2829600I0J-150000D01*
G01*
X74611100Y1079600D01*
G75*
G02*
X74461100Y929600I-150000J0D01*
G01*
G37*
G36*
G01*
X75731100Y929600D02*
X75431100Y929600D01*
G75*
G02*
X75281100Y1079600I0J150000D01*
G01*
X75281100Y2829600D01*
G75*
G02*
X75431100Y2979600I150000J0D01*
G01*
X75731100Y2979600D01*
G75*
G02*
X75881100Y2829600I0J-150000D01*
G01*
X75881100Y1079600D01*
G75*
G02*
X75731100Y929600I-150000J0D01*
G01*
G37*
G36*
G01*
X77001100Y929600D02*
X76701100Y929600D01*
G75*
G02*
X76551100Y1079600I0J150000D01*
G01*
X76551100Y2829600D01*
G75*
G02*
X76701100Y2979600I150000J0D01*
G01*
X77001100Y2979600D01*
G75*
G02*
X77151100Y2829600I0J-150000D01*
G01*
X77151100Y1079600D01*
G75*
G02*
X77001100Y929600I-150000J0D01*
G01*
G37*
G36*
G01*
X78271100Y929600D02*
X77971100Y929600D01*
G75*
G02*
X77821100Y1079600I0J150000D01*
G01*
X77821100Y2829600D01*
G75*
G02*
X77971100Y2979600I150000J0D01*
G01*
X78271100Y2979600D01*
G75*
G02*
X78421100Y2829600I0J-150000D01*
G01*
X78421100Y1079600D01*
G75*
G02*
X78271100Y929600I-150000J0D01*
G01*
G37*
G36*
G01*
X79541100Y929600D02*
X79241100Y929600D01*
G75*
G02*
X79091100Y1079600I0J150000D01*
G01*
X79091100Y2829600D01*
G75*
G02*
X79241100Y2979600I150000J0D01*
G01*
X79541100Y2979600D01*
G75*
G02*
X79691100Y2829600I0J-150000D01*
G01*
X79691100Y1079600D01*
G75*
G02*
X79541100Y929600I-150000J0D01*
G01*
G37*
G36*
G01*
X80811100Y929600D02*
X80511100Y929600D01*
G75*
G02*
X80361100Y1079600I0J150000D01*
G01*
X80361100Y2829600D01*
G75*
G02*
X80511100Y2979600I150000J0D01*
G01*
X80811100Y2979600D01*
G75*
G02*
X80961100Y2829600I0J-150000D01*
G01*
X80961100Y1079600D01*
G75*
G02*
X80811100Y929600I-150000J0D01*
G01*
G37*
G36*
G01*
X82081100Y929600D02*
X81781100Y929600D01*
G75*
G02*
X81631100Y1079600I0J150000D01*
G01*
X81631100Y2829600D01*
G75*
G02*
X81781100Y2979600I150000J0D01*
G01*
X82081100Y2979600D01*
G75*
G02*
X82231100Y2829600I0J-150000D01*
G01*
X82231100Y1079600D01*
G75*
G02*
X82081100Y929600I-150000J0D01*
G01*
G37*
G36*
G01*
X83351100Y929600D02*
X83051100Y929600D01*
G75*
G02*
X82901100Y1079600I0J150000D01*
G01*
X82901100Y2829600D01*
G75*
G02*
X83051100Y2979600I150000J0D01*
G01*
X83351100Y2979600D01*
G75*
G02*
X83501100Y2829600I0J-150000D01*
G01*
X83501100Y1079600D01*
G75*
G02*
X83351100Y929600I-150000J0D01*
G01*
G37*
G04 #@! TD*
D21*
G04 #@! TO.C,U6*
X113687480Y-19433960D03*
X111787480Y-19433960D03*
X112737480Y-17433960D03*
G04 #@! TD*
D22*
G04 #@! TO.C,U5*
X108308480Y-15764460D03*
X108308480Y-13864460D03*
X110308480Y-14814460D03*
G04 #@! TD*
D23*
G04 #@! TO.C,U2*
X103722980Y-17524460D03*
X104672980Y-17524460D03*
X105622980Y-17524460D03*
X105622980Y-19724460D03*
X103722980Y-19724460D03*
G04 #@! TD*
G04 #@! TO.C,R26*
G36*
G01*
X106103320Y-15785420D02*
X106103320Y-15235420D01*
G75*
G02*
X106303320Y-15035420I200000J0D01*
G01*
X106703320Y-15035420D01*
G75*
G02*
X106903320Y-15235420I0J-200000D01*
G01*
X106903320Y-15785420D01*
G75*
G02*
X106703320Y-15985420I-200000J0D01*
G01*
X106303320Y-15985420D01*
G75*
G02*
X106103320Y-15785420I0J200000D01*
G01*
G37*
G36*
G01*
X104453320Y-15785420D02*
X104453320Y-15235420D01*
G75*
G02*
X104653320Y-15035420I200000J0D01*
G01*
X105053320Y-15035420D01*
G75*
G02*
X105253320Y-15235420I0J-200000D01*
G01*
X105253320Y-15785420D01*
G75*
G02*
X105053320Y-15985420I-200000J0D01*
G01*
X104653320Y-15985420D01*
G75*
G02*
X104453320Y-15785420I0J200000D01*
G01*
G37*
G04 #@! TD*
G04 #@! TO.C,R25*
G36*
G01*
X64210340Y-3378180D02*
X64760340Y-3378180D01*
G75*
G02*
X64960340Y-3578180I0J-200000D01*
G01*
X64960340Y-3978180D01*
G75*
G02*
X64760340Y-4178180I-200000J0D01*
G01*
X64210340Y-4178180D01*
G75*
G02*
X64010340Y-3978180I0J200000D01*
G01*
X64010340Y-3578180D01*
G75*
G02*
X64210340Y-3378180I200000J0D01*
G01*
G37*
G36*
G01*
X64210340Y-1728180D02*
X64760340Y-1728180D01*
G75*
G02*
X64960340Y-1928180I0J-200000D01*
G01*
X64960340Y-2328180D01*
G75*
G02*
X64760340Y-2528180I-200000J0D01*
G01*
X64210340Y-2528180D01*
G75*
G02*
X64010340Y-2328180I0J200000D01*
G01*
X64010340Y-1928180D01*
G75*
G02*
X64210340Y-1728180I200000J0D01*
G01*
G37*
G04 #@! TD*
G04 #@! TO.C,R24*
G36*
G01*
X60860080Y-3378180D02*
X61410080Y-3378180D01*
G75*
G02*
X61610080Y-3578180I0J-200000D01*
G01*
X61610080Y-3978180D01*
G75*
G02*
X61410080Y-4178180I-200000J0D01*
G01*
X60860080Y-4178180D01*
G75*
G02*
X60660080Y-3978180I0J200000D01*
G01*
X60660080Y-3578180D01*
G75*
G02*
X60860080Y-3378180I200000J0D01*
G01*
G37*
G36*
G01*
X60860080Y-1728180D02*
X61410080Y-1728180D01*
G75*
G02*
X61610080Y-1928180I0J-200000D01*
G01*
X61610080Y-2328180D01*
G75*
G02*
X61410080Y-2528180I-200000J0D01*
G01*
X60860080Y-2528180D01*
G75*
G02*
X60660080Y-2328180I0J200000D01*
G01*
X60660080Y-1928180D01*
G75*
G02*
X60860080Y-1728180I200000J0D01*
G01*
G37*
G04 #@! TD*
G04 #@! TO.C,R23*
G36*
G01*
X68299600Y-11969000D02*
X68299600Y-12519000D01*
G75*
G02*
X68099600Y-12719000I-200000J0D01*
G01*
X67699600Y-12719000D01*
G75*
G02*
X67499600Y-12519000I0J200000D01*
G01*
X67499600Y-11969000D01*
G75*
G02*
X67699600Y-11769000I200000J0D01*
G01*
X68099600Y-11769000D01*
G75*
G02*
X68299600Y-11969000I0J-200000D01*
G01*
G37*
G36*
G01*
X69949600Y-11969000D02*
X69949600Y-12519000D01*
G75*
G02*
X69749600Y-12719000I-200000J0D01*
G01*
X69349600Y-12719000D01*
G75*
G02*
X69149600Y-12519000I0J200000D01*
G01*
X69149600Y-11969000D01*
G75*
G02*
X69349600Y-11769000I200000J0D01*
G01*
X69749600Y-11769000D01*
G75*
G02*
X69949600Y-11969000I0J-200000D01*
G01*
G37*
G04 #@! TD*
G04 #@! TO.C,R22*
G36*
G01*
X69134860Y-14492580D02*
X69134860Y-13942580D01*
G75*
G02*
X69334860Y-13742580I200000J0D01*
G01*
X69734860Y-13742580D01*
G75*
G02*
X69934860Y-13942580I0J-200000D01*
G01*
X69934860Y-14492580D01*
G75*
G02*
X69734860Y-14692580I-200000J0D01*
G01*
X69334860Y-14692580D01*
G75*
G02*
X69134860Y-14492580I0J200000D01*
G01*
G37*
G36*
G01*
X67484860Y-14492580D02*
X67484860Y-13942580D01*
G75*
G02*
X67684860Y-13742580I200000J0D01*
G01*
X68084860Y-13742580D01*
G75*
G02*
X68284860Y-13942580I0J-200000D01*
G01*
X68284860Y-14492580D01*
G75*
G02*
X68084860Y-14692580I-200000J0D01*
G01*
X67684860Y-14692580D01*
G75*
G02*
X67484860Y-14492580I0J200000D01*
G01*
G37*
G04 #@! TD*
G04 #@! TO.C,R21*
G36*
G01*
X71830700Y-11981700D02*
X71830700Y-12531700D01*
G75*
G02*
X71630700Y-12731700I-200000J0D01*
G01*
X71230700Y-12731700D01*
G75*
G02*
X71030700Y-12531700I0J200000D01*
G01*
X71030700Y-11981700D01*
G75*
G02*
X71230700Y-11781700I200000J0D01*
G01*
X71630700Y-11781700D01*
G75*
G02*
X71830700Y-11981700I0J-200000D01*
G01*
G37*
G36*
G01*
X73480700Y-11981700D02*
X73480700Y-12531700D01*
G75*
G02*
X73280700Y-12731700I-200000J0D01*
G01*
X72880700Y-12731700D01*
G75*
G02*
X72680700Y-12531700I0J200000D01*
G01*
X72680700Y-11981700D01*
G75*
G02*
X72880700Y-11781700I200000J0D01*
G01*
X73280700Y-11781700D01*
G75*
G02*
X73480700Y-11981700I0J-200000D01*
G01*
G37*
G04 #@! TD*
G04 #@! TO.C,R20*
G36*
G01*
X72680700Y-17230700D02*
X72680700Y-16680700D01*
G75*
G02*
X72880700Y-16480700I200000J0D01*
G01*
X73280700Y-16480700D01*
G75*
G02*
X73480700Y-16680700I0J-200000D01*
G01*
X73480700Y-17230700D01*
G75*
G02*
X73280700Y-17430700I-200000J0D01*
G01*
X72880700Y-17430700D01*
G75*
G02*
X72680700Y-17230700I0J200000D01*
G01*
G37*
G36*
G01*
X71030700Y-17230700D02*
X71030700Y-16680700D01*
G75*
G02*
X71230700Y-16480700I200000J0D01*
G01*
X71630700Y-16480700D01*
G75*
G02*
X71830700Y-16680700I0J-200000D01*
G01*
X71830700Y-17230700D01*
G75*
G02*
X71630700Y-17430700I-200000J0D01*
G01*
X71230700Y-17430700D01*
G75*
G02*
X71030700Y-17230700I0J200000D01*
G01*
G37*
G04 #@! TD*
G04 #@! TO.C,R19*
G36*
G01*
X109710480Y-23468960D02*
X109160480Y-23468960D01*
G75*
G02*
X108960480Y-23268960I0J200000D01*
G01*
X108960480Y-22868960D01*
G75*
G02*
X109160480Y-22668960I200000J0D01*
G01*
X109710480Y-22668960D01*
G75*
G02*
X109910480Y-22868960I0J-200000D01*
G01*
X109910480Y-23268960D01*
G75*
G02*
X109710480Y-23468960I-200000J0D01*
G01*
G37*
G36*
G01*
X109710480Y-21818960D02*
X109160480Y-21818960D01*
G75*
G02*
X108960480Y-21618960I0J200000D01*
G01*
X108960480Y-21218960D01*
G75*
G02*
X109160480Y-21018960I200000J0D01*
G01*
X109710480Y-21018960D01*
G75*
G02*
X109910480Y-21218960I0J-200000D01*
G01*
X109910480Y-21618960D01*
G75*
G02*
X109710480Y-21818960I-200000J0D01*
G01*
G37*
G04 #@! TD*
G04 #@! TO.C,R18*
G36*
G01*
X78493800Y-26122499D02*
X78493800Y-28972501D01*
G75*
G02*
X78243801Y-29222500I-249999J0D01*
G01*
X77518799Y-29222500D01*
G75*
G02*
X77268800Y-28972501I0J249999D01*
G01*
X77268800Y-26122499D01*
G75*
G02*
X77518799Y-25872500I249999J0D01*
G01*
X78243801Y-25872500D01*
G75*
G02*
X78493800Y-26122499I0J-249999D01*
G01*
G37*
G36*
G01*
X72568800Y-26122499D02*
X72568800Y-28972501D01*
G75*
G02*
X72318801Y-29222500I-249999J0D01*
G01*
X71593799Y-29222500D01*
G75*
G02*
X71343800Y-28972501I0J249999D01*
G01*
X71343800Y-26122499D01*
G75*
G02*
X71593799Y-25872500I249999J0D01*
G01*
X72318801Y-25872500D01*
G75*
G02*
X72568800Y-26122499I0J-249999D01*
G01*
G37*
G04 #@! TD*
G04 #@! TO.C,R17*
G36*
G01*
X107445980Y-21018960D02*
X107995980Y-21018960D01*
G75*
G02*
X108195980Y-21218960I0J-200000D01*
G01*
X108195980Y-21618960D01*
G75*
G02*
X107995980Y-21818960I-200000J0D01*
G01*
X107445980Y-21818960D01*
G75*
G02*
X107245980Y-21618960I0J200000D01*
G01*
X107245980Y-21218960D01*
G75*
G02*
X107445980Y-21018960I200000J0D01*
G01*
G37*
G36*
G01*
X107445980Y-22668960D02*
X107995980Y-22668960D01*
G75*
G02*
X108195980Y-22868960I0J-200000D01*
G01*
X108195980Y-23268960D01*
G75*
G02*
X107995980Y-23468960I-200000J0D01*
G01*
X107445980Y-23468960D01*
G75*
G02*
X107245980Y-23268960I0J200000D01*
G01*
X107245980Y-22868960D01*
G75*
G02*
X107445980Y-22668960I200000J0D01*
G01*
G37*
G04 #@! TD*
G04 #@! TO.C,R16*
G36*
G01*
X62535210Y-3378180D02*
X63085210Y-3378180D01*
G75*
G02*
X63285210Y-3578180I0J-200000D01*
G01*
X63285210Y-3978180D01*
G75*
G02*
X63085210Y-4178180I-200000J0D01*
G01*
X62535210Y-4178180D01*
G75*
G02*
X62335210Y-3978180I0J200000D01*
G01*
X62335210Y-3578180D01*
G75*
G02*
X62535210Y-3378180I200000J0D01*
G01*
G37*
G36*
G01*
X62535210Y-1728180D02*
X63085210Y-1728180D01*
G75*
G02*
X63285210Y-1928180I0J-200000D01*
G01*
X63285210Y-2328180D01*
G75*
G02*
X63085210Y-2528180I-200000J0D01*
G01*
X62535210Y-2528180D01*
G75*
G02*
X62335210Y-2328180I0J200000D01*
G01*
X62335210Y-1928180D01*
G75*
G02*
X62535210Y-1728180I200000J0D01*
G01*
G37*
G04 #@! TD*
G04 #@! TO.C,R15*
G36*
G01*
X116946680Y-12217660D02*
X116396680Y-12217660D01*
G75*
G02*
X116196680Y-12017660I0J200000D01*
G01*
X116196680Y-11617660D01*
G75*
G02*
X116396680Y-11417660I200000J0D01*
G01*
X116946680Y-11417660D01*
G75*
G02*
X117146680Y-11617660I0J-200000D01*
G01*
X117146680Y-12017660D01*
G75*
G02*
X116946680Y-12217660I-200000J0D01*
G01*
G37*
G36*
G01*
X116946680Y-10567660D02*
X116396680Y-10567660D01*
G75*
G02*
X116196680Y-10367660I0J200000D01*
G01*
X116196680Y-9967660D01*
G75*
G02*
X116396680Y-9767660I200000J0D01*
G01*
X116946680Y-9767660D01*
G75*
G02*
X117146680Y-9967660I0J-200000D01*
G01*
X117146680Y-10367660D01*
G75*
G02*
X116946680Y-10567660I-200000J0D01*
G01*
G37*
G04 #@! TD*
G04 #@! TO.C,R14*
G36*
G01*
X115397280Y-12217660D02*
X114847280Y-12217660D01*
G75*
G02*
X114647280Y-12017660I0J200000D01*
G01*
X114647280Y-11617660D01*
G75*
G02*
X114847280Y-11417660I200000J0D01*
G01*
X115397280Y-11417660D01*
G75*
G02*
X115597280Y-11617660I0J-200000D01*
G01*
X115597280Y-12017660D01*
G75*
G02*
X115397280Y-12217660I-200000J0D01*
G01*
G37*
G36*
G01*
X115397280Y-10567660D02*
X114847280Y-10567660D01*
G75*
G02*
X114647280Y-10367660I0J200000D01*
G01*
X114647280Y-9967660D01*
G75*
G02*
X114847280Y-9767660I200000J0D01*
G01*
X115397280Y-9767660D01*
G75*
G02*
X115597280Y-9967660I0J-200000D01*
G01*
X115597280Y-10367660D01*
G75*
G02*
X115397280Y-10567660I-200000J0D01*
G01*
G37*
G04 #@! TD*
G04 #@! TO.C,R13*
G36*
G01*
X111793280Y-10921860D02*
X111243280Y-10921860D01*
G75*
G02*
X111043280Y-10721860I0J200000D01*
G01*
X111043280Y-10321860D01*
G75*
G02*
X111243280Y-10121860I200000J0D01*
G01*
X111793280Y-10121860D01*
G75*
G02*
X111993280Y-10321860I0J-200000D01*
G01*
X111993280Y-10721860D01*
G75*
G02*
X111793280Y-10921860I-200000J0D01*
G01*
G37*
G36*
G01*
X111793280Y-12571860D02*
X111243280Y-12571860D01*
G75*
G02*
X111043280Y-12371860I0J200000D01*
G01*
X111043280Y-11971860D01*
G75*
G02*
X111243280Y-11771860I200000J0D01*
G01*
X111793280Y-11771860D01*
G75*
G02*
X111993280Y-11971860I0J-200000D01*
G01*
X111993280Y-12371860D01*
G75*
G02*
X111793280Y-12571860I-200000J0D01*
G01*
G37*
G04 #@! TD*
G04 #@! TO.C,R12*
G36*
G01*
X110205780Y-10922360D02*
X109655780Y-10922360D01*
G75*
G02*
X109455780Y-10722360I0J200000D01*
G01*
X109455780Y-10322360D01*
G75*
G02*
X109655780Y-10122360I200000J0D01*
G01*
X110205780Y-10122360D01*
G75*
G02*
X110405780Y-10322360I0J-200000D01*
G01*
X110405780Y-10722360D01*
G75*
G02*
X110205780Y-10922360I-200000J0D01*
G01*
G37*
G36*
G01*
X110205780Y-12572360D02*
X109655780Y-12572360D01*
G75*
G02*
X109455780Y-12372360I0J200000D01*
G01*
X109455780Y-11972360D01*
G75*
G02*
X109655780Y-11772360I200000J0D01*
G01*
X110205780Y-11772360D01*
G75*
G02*
X110405780Y-11972360I0J-200000D01*
G01*
X110405780Y-12372360D01*
G75*
G02*
X110205780Y-12572360I-200000J0D01*
G01*
G37*
G04 #@! TD*
G04 #@! TO.C,R11*
G36*
G01*
X108618280Y-10922360D02*
X108068280Y-10922360D01*
G75*
G02*
X107868280Y-10722360I0J200000D01*
G01*
X107868280Y-10322360D01*
G75*
G02*
X108068280Y-10122360I200000J0D01*
G01*
X108618280Y-10122360D01*
G75*
G02*
X108818280Y-10322360I0J-200000D01*
G01*
X108818280Y-10722360D01*
G75*
G02*
X108618280Y-10922360I-200000J0D01*
G01*
G37*
G36*
G01*
X108618280Y-12572360D02*
X108068280Y-12572360D01*
G75*
G02*
X107868280Y-12372360I0J200000D01*
G01*
X107868280Y-11972360D01*
G75*
G02*
X108068280Y-11772360I200000J0D01*
G01*
X108618280Y-11772360D01*
G75*
G02*
X108818280Y-11972360I0J-200000D01*
G01*
X108818280Y-12372360D01*
G75*
G02*
X108618280Y-12572360I-200000J0D01*
G01*
G37*
G04 #@! TD*
G04 #@! TO.C,R8*
G36*
G01*
X124163080Y-9092060D02*
X123613080Y-9092060D01*
G75*
G02*
X123413080Y-8892060I0J200000D01*
G01*
X123413080Y-8492060D01*
G75*
G02*
X123613080Y-8292060I200000J0D01*
G01*
X124163080Y-8292060D01*
G75*
G02*
X124363080Y-8492060I0J-200000D01*
G01*
X124363080Y-8892060D01*
G75*
G02*
X124163080Y-9092060I-200000J0D01*
G01*
G37*
G36*
G01*
X124163080Y-7442060D02*
X123613080Y-7442060D01*
G75*
G02*
X123413080Y-7242060I0J200000D01*
G01*
X123413080Y-6842060D01*
G75*
G02*
X123613080Y-6642060I200000J0D01*
G01*
X124163080Y-6642060D01*
G75*
G02*
X124363080Y-6842060I0J-200000D01*
G01*
X124363080Y-7242060D01*
G75*
G02*
X124163080Y-7442060I-200000J0D01*
G01*
G37*
G04 #@! TD*
G04 #@! TO.C,R5*
G36*
G01*
X68248800Y-16414000D02*
X68248800Y-16964000D01*
G75*
G02*
X68048800Y-17164000I-200000J0D01*
G01*
X67648800Y-17164000D01*
G75*
G02*
X67448800Y-16964000I0J200000D01*
G01*
X67448800Y-16414000D01*
G75*
G02*
X67648800Y-16214000I200000J0D01*
G01*
X68048800Y-16214000D01*
G75*
G02*
X68248800Y-16414000I0J-200000D01*
G01*
G37*
G36*
G01*
X69898800Y-16414000D02*
X69898800Y-16964000D01*
G75*
G02*
X69698800Y-17164000I-200000J0D01*
G01*
X69298800Y-17164000D01*
G75*
G02*
X69098800Y-16964000I0J200000D01*
G01*
X69098800Y-16414000D01*
G75*
G02*
X69298800Y-16214000I200000J0D01*
G01*
X69698800Y-16214000D01*
G75*
G02*
X69898800Y-16414000I0J-200000D01*
G01*
G37*
G04 #@! TD*
G04 #@! TO.C,R4*
G36*
G01*
X106380080Y-9878560D02*
X106380080Y-10428560D01*
G75*
G02*
X106180080Y-10628560I-200000J0D01*
G01*
X105780080Y-10628560D01*
G75*
G02*
X105580080Y-10428560I0J200000D01*
G01*
X105580080Y-9878560D01*
G75*
G02*
X105780080Y-9678560I200000J0D01*
G01*
X106180080Y-9678560D01*
G75*
G02*
X106380080Y-9878560I0J-200000D01*
G01*
G37*
G36*
G01*
X104730080Y-9878560D02*
X104730080Y-10428560D01*
G75*
G02*
X104530080Y-10628560I-200000J0D01*
G01*
X104130080Y-10628560D01*
G75*
G02*
X103930080Y-10428560I0J200000D01*
G01*
X103930080Y-9878560D01*
G75*
G02*
X104130080Y-9678560I200000J0D01*
G01*
X104530080Y-9678560D01*
G75*
G02*
X104730080Y-9878560I0J-200000D01*
G01*
G37*
G04 #@! TD*
G04 #@! TO.C,R2*
G36*
G01*
X100854680Y-3478760D02*
X101404680Y-3478760D01*
G75*
G02*
X101604680Y-3678760I0J-200000D01*
G01*
X101604680Y-4078760D01*
G75*
G02*
X101404680Y-4278760I-200000J0D01*
G01*
X100854680Y-4278760D01*
G75*
G02*
X100654680Y-4078760I0J200000D01*
G01*
X100654680Y-3678760D01*
G75*
G02*
X100854680Y-3478760I200000J0D01*
G01*
G37*
G36*
G01*
X100854680Y-1828760D02*
X101404680Y-1828760D01*
G75*
G02*
X101604680Y-2028760I0J-200000D01*
G01*
X101604680Y-2428760D01*
G75*
G02*
X101404680Y-2628760I-200000J0D01*
G01*
X100854680Y-2628760D01*
G75*
G02*
X100654680Y-2428760I0J200000D01*
G01*
X100654680Y-2028760D01*
G75*
G02*
X100854680Y-1828760I200000J0D01*
G01*
G37*
G04 #@! TD*
D24*
G04 #@! TO.C,Q1*
X109773480Y-17483960D03*
X109773480Y-19383960D03*
X107573480Y-18433960D03*
G04 #@! TD*
D25*
G04 #@! TO.C,D2*
X63489660Y-25875640D03*
X63489660Y-29175640D03*
G04 #@! TD*
G04 #@! TO.C,D1*
X65991560Y-29175640D03*
X65991560Y-25875640D03*
G04 #@! TD*
G04 #@! TO.C,C24*
G36*
G01*
X105565980Y-20955460D02*
X106065980Y-20955460D01*
G75*
G02*
X106290980Y-21180460I0J-225000D01*
G01*
X106290980Y-21630460D01*
G75*
G02*
X106065980Y-21855460I-225000J0D01*
G01*
X105565980Y-21855460D01*
G75*
G02*
X105340980Y-21630460I0J225000D01*
G01*
X105340980Y-21180460D01*
G75*
G02*
X105565980Y-20955460I225000J0D01*
G01*
G37*
G36*
G01*
X105565980Y-22505460D02*
X106065980Y-22505460D01*
G75*
G02*
X106290980Y-22730460I0J-225000D01*
G01*
X106290980Y-23180460D01*
G75*
G02*
X106065980Y-23405460I-225000J0D01*
G01*
X105565980Y-23405460D01*
G75*
G02*
X105340980Y-23180460I0J225000D01*
G01*
X105340980Y-22730460D01*
G75*
G02*
X105565980Y-22505460I225000J0D01*
G01*
G37*
G04 #@! TD*
G04 #@! TO.C,C23*
G36*
G01*
X64332480Y-23270120D02*
X64332480Y-24220120D01*
G75*
G02*
X64082480Y-24470120I-250000J0D01*
G01*
X63582480Y-24470120D01*
G75*
G02*
X63332480Y-24220120I0J250000D01*
G01*
X63332480Y-23270120D01*
G75*
G02*
X63582480Y-23020120I250000J0D01*
G01*
X64082480Y-23020120D01*
G75*
G02*
X64332480Y-23270120I0J-250000D01*
G01*
G37*
G36*
G01*
X66232480Y-23270120D02*
X66232480Y-24220120D01*
G75*
G02*
X65982480Y-24470120I-250000J0D01*
G01*
X65482480Y-24470120D01*
G75*
G02*
X65232480Y-24220120I0J250000D01*
G01*
X65232480Y-23270120D01*
G75*
G02*
X65482480Y-23020120I250000J0D01*
G01*
X65982480Y-23020120D01*
G75*
G02*
X66232480Y-23270120I0J-250000D01*
G01*
G37*
G04 #@! TD*
G04 #@! TO.C,C22*
G36*
G01*
X86593520Y-2210620D02*
X85643520Y-2210620D01*
G75*
G02*
X85393520Y-1960620I0J250000D01*
G01*
X85393520Y-1460620D01*
G75*
G02*
X85643520Y-1210620I250000J0D01*
G01*
X86593520Y-1210620D01*
G75*
G02*
X86843520Y-1460620I0J-250000D01*
G01*
X86843520Y-1960620D01*
G75*
G02*
X86593520Y-2210620I-250000J0D01*
G01*
G37*
G36*
G01*
X86593520Y-4110620D02*
X85643520Y-4110620D01*
G75*
G02*
X85393520Y-3860620I0J250000D01*
G01*
X85393520Y-3360620D01*
G75*
G02*
X85643520Y-3110620I250000J0D01*
G01*
X86593520Y-3110620D01*
G75*
G02*
X86843520Y-3360620I0J-250000D01*
G01*
X86843520Y-3860620D01*
G75*
G02*
X86593520Y-4110620I-250000J0D01*
G01*
G37*
G04 #@! TD*
G04 #@! TO.C,C21*
G36*
G01*
X88701720Y-2210620D02*
X87751720Y-2210620D01*
G75*
G02*
X87501720Y-1960620I0J250000D01*
G01*
X87501720Y-1460620D01*
G75*
G02*
X87751720Y-1210620I250000J0D01*
G01*
X88701720Y-1210620D01*
G75*
G02*
X88951720Y-1460620I0J-250000D01*
G01*
X88951720Y-1960620D01*
G75*
G02*
X88701720Y-2210620I-250000J0D01*
G01*
G37*
G36*
G01*
X88701720Y-4110620D02*
X87751720Y-4110620D01*
G75*
G02*
X87501720Y-3860620I0J250000D01*
G01*
X87501720Y-3360620D01*
G75*
G02*
X87751720Y-3110620I250000J0D01*
G01*
X88701720Y-3110620D01*
G75*
G02*
X88951720Y-3360620I0J-250000D01*
G01*
X88951720Y-3860620D01*
G75*
G02*
X88701720Y-4110620I-250000J0D01*
G01*
G37*
G04 #@! TD*
G04 #@! TO.C,C20*
G36*
G01*
X76616200Y-11943200D02*
X76616200Y-12443200D01*
G75*
G02*
X76391200Y-12668200I-225000J0D01*
G01*
X75941200Y-12668200D01*
G75*
G02*
X75716200Y-12443200I0J225000D01*
G01*
X75716200Y-11943200D01*
G75*
G02*
X75941200Y-11718200I225000J0D01*
G01*
X76391200Y-11718200D01*
G75*
G02*
X76616200Y-11943200I0J-225000D01*
G01*
G37*
G36*
G01*
X78166200Y-11943200D02*
X78166200Y-12443200D01*
G75*
G02*
X77941200Y-12668200I-225000J0D01*
G01*
X77491200Y-12668200D01*
G75*
G02*
X77266200Y-12443200I0J225000D01*
G01*
X77266200Y-11943200D01*
G75*
G02*
X77491200Y-11718200I225000J0D01*
G01*
X77941200Y-11718200D01*
G75*
G02*
X78166200Y-11943200I0J-225000D01*
G01*
G37*
G04 #@! TD*
G04 #@! TO.C,C19*
G36*
G01*
X76616200Y-13513766D02*
X76616200Y-14013766D01*
G75*
G02*
X76391200Y-14238766I-225000J0D01*
G01*
X75941200Y-14238766D01*
G75*
G02*
X75716200Y-14013766I0J225000D01*
G01*
X75716200Y-13513766D01*
G75*
G02*
X75941200Y-13288766I225000J0D01*
G01*
X76391200Y-13288766D01*
G75*
G02*
X76616200Y-13513766I0J-225000D01*
G01*
G37*
G36*
G01*
X78166200Y-13513766D02*
X78166200Y-14013766D01*
G75*
G02*
X77941200Y-14238766I-225000J0D01*
G01*
X77491200Y-14238766D01*
G75*
G02*
X77266200Y-14013766I0J225000D01*
G01*
X77266200Y-13513766D01*
G75*
G02*
X77491200Y-13288766I225000J0D01*
G01*
X77941200Y-13288766D01*
G75*
G02*
X78166200Y-13513766I0J-225000D01*
G01*
G37*
G04 #@! TD*
G04 #@! TO.C,C18*
G36*
G01*
X81190500Y-18437600D02*
X81190500Y-17937600D01*
G75*
G02*
X81415500Y-17712600I225000J0D01*
G01*
X81865500Y-17712600D01*
G75*
G02*
X82090500Y-17937600I0J-225000D01*
G01*
X82090500Y-18437600D01*
G75*
G02*
X81865500Y-18662600I-225000J0D01*
G01*
X81415500Y-18662600D01*
G75*
G02*
X81190500Y-18437600I0J225000D01*
G01*
G37*
G36*
G01*
X79640500Y-18437600D02*
X79640500Y-17937600D01*
G75*
G02*
X79865500Y-17712600I225000J0D01*
G01*
X80315500Y-17712600D01*
G75*
G02*
X80540500Y-17937600I0J-225000D01*
G01*
X80540500Y-18437600D01*
G75*
G02*
X80315500Y-18662600I-225000J0D01*
G01*
X79865500Y-18662600D01*
G75*
G02*
X79640500Y-18437600I0J225000D01*
G01*
G37*
G04 #@! TD*
G04 #@! TO.C,C17*
G36*
G01*
X77249000Y-16100040D02*
X77249000Y-16600040D01*
G75*
G02*
X77024000Y-16825040I-225000J0D01*
G01*
X76574000Y-16825040D01*
G75*
G02*
X76349000Y-16600040I0J225000D01*
G01*
X76349000Y-16100040D01*
G75*
G02*
X76574000Y-15875040I225000J0D01*
G01*
X77024000Y-15875040D01*
G75*
G02*
X77249000Y-16100040I0J-225000D01*
G01*
G37*
G36*
G01*
X78799000Y-16100040D02*
X78799000Y-16600040D01*
G75*
G02*
X78574000Y-16825040I-225000J0D01*
G01*
X78124000Y-16825040D01*
G75*
G02*
X77899000Y-16600040I0J225000D01*
G01*
X77899000Y-16100040D01*
G75*
G02*
X78124000Y-15875040I225000J0D01*
G01*
X78574000Y-15875040D01*
G75*
G02*
X78799000Y-16100040I0J-225000D01*
G01*
G37*
G04 #@! TD*
G04 #@! TO.C,C16*
G36*
G01*
X112640980Y-16200960D02*
X111690980Y-16200960D01*
G75*
G02*
X111440980Y-15950960I0J250000D01*
G01*
X111440980Y-15450960D01*
G75*
G02*
X111690980Y-15200960I250000J0D01*
G01*
X112640980Y-15200960D01*
G75*
G02*
X112890980Y-15450960I0J-250000D01*
G01*
X112890980Y-15950960D01*
G75*
G02*
X112640980Y-16200960I-250000J0D01*
G01*
G37*
G36*
G01*
X112640980Y-14300960D02*
X111690980Y-14300960D01*
G75*
G02*
X111440980Y-14050960I0J250000D01*
G01*
X111440980Y-13550960D01*
G75*
G02*
X111690980Y-13300960I250000J0D01*
G01*
X112640980Y-13300960D01*
G75*
G02*
X112890980Y-13550960I0J-250000D01*
G01*
X112890980Y-14050960D01*
G75*
G02*
X112640980Y-14300960I-250000J0D01*
G01*
G37*
G04 #@! TD*
G04 #@! TO.C,C15*
G36*
G01*
X111407980Y-20523960D02*
X111907980Y-20523960D01*
G75*
G02*
X112132980Y-20748960I0J-225000D01*
G01*
X112132980Y-21198960D01*
G75*
G02*
X111907980Y-21423960I-225000J0D01*
G01*
X111407980Y-21423960D01*
G75*
G02*
X111182980Y-21198960I0J225000D01*
G01*
X111182980Y-20748960D01*
G75*
G02*
X111407980Y-20523960I225000J0D01*
G01*
G37*
G36*
G01*
X111407980Y-22073960D02*
X111907980Y-22073960D01*
G75*
G02*
X112132980Y-22298960I0J-225000D01*
G01*
X112132980Y-22748960D01*
G75*
G02*
X111907980Y-22973960I-225000J0D01*
G01*
X111407980Y-22973960D01*
G75*
G02*
X111182980Y-22748960I0J225000D01*
G01*
X111182980Y-22298960D01*
G75*
G02*
X111407980Y-22073960I225000J0D01*
G01*
G37*
G04 #@! TD*
G04 #@! TO.C,C14*
G36*
G01*
X113024480Y-20539960D02*
X113974480Y-20539960D01*
G75*
G02*
X114224480Y-20789960I0J-250000D01*
G01*
X114224480Y-21289960D01*
G75*
G02*
X113974480Y-21539960I-250000J0D01*
G01*
X113024480Y-21539960D01*
G75*
G02*
X112774480Y-21289960I0J250000D01*
G01*
X112774480Y-20789960D01*
G75*
G02*
X113024480Y-20539960I250000J0D01*
G01*
G37*
G36*
G01*
X113024480Y-22439960D02*
X113974480Y-22439960D01*
G75*
G02*
X114224480Y-22689960I0J-250000D01*
G01*
X114224480Y-23189960D01*
G75*
G02*
X113974480Y-23439960I-250000J0D01*
G01*
X113024480Y-23439960D01*
G75*
G02*
X112774480Y-23189960I0J250000D01*
G01*
X112774480Y-22689960D01*
G75*
G02*
X113024480Y-22439960I250000J0D01*
G01*
G37*
G04 #@! TD*
G04 #@! TO.C,C12*
G36*
G01*
X101832180Y-20041360D02*
X102332180Y-20041360D01*
G75*
G02*
X102557180Y-20266360I0J-225000D01*
G01*
X102557180Y-20716360D01*
G75*
G02*
X102332180Y-20941360I-225000J0D01*
G01*
X101832180Y-20941360D01*
G75*
G02*
X101607180Y-20716360I0J225000D01*
G01*
X101607180Y-20266360D01*
G75*
G02*
X101832180Y-20041360I225000J0D01*
G01*
G37*
G36*
G01*
X101832180Y-18491360D02*
X102332180Y-18491360D01*
G75*
G02*
X102557180Y-18716360I0J-225000D01*
G01*
X102557180Y-19166360D01*
G75*
G02*
X102332180Y-19391360I-225000J0D01*
G01*
X101832180Y-19391360D01*
G75*
G02*
X101607180Y-19166360I0J225000D01*
G01*
X101607180Y-18716360D01*
G75*
G02*
X101832180Y-18491360I225000J0D01*
G01*
G37*
G04 #@! TD*
G04 #@! TO.C,C11*
G36*
G01*
X104808680Y-14299560D02*
X104308680Y-14299560D01*
G75*
G02*
X104083680Y-14074560I0J225000D01*
G01*
X104083680Y-13624560D01*
G75*
G02*
X104308680Y-13399560I225000J0D01*
G01*
X104808680Y-13399560D01*
G75*
G02*
X105033680Y-13624560I0J-225000D01*
G01*
X105033680Y-14074560D01*
G75*
G02*
X104808680Y-14299560I-225000J0D01*
G01*
G37*
G36*
G01*
X104808680Y-12749560D02*
X104308680Y-12749560D01*
G75*
G02*
X104083680Y-12524560I0J225000D01*
G01*
X104083680Y-12074560D01*
G75*
G02*
X104308680Y-11849560I225000J0D01*
G01*
X104808680Y-11849560D01*
G75*
G02*
X105033680Y-12074560I0J-225000D01*
G01*
X105033680Y-12524560D01*
G75*
G02*
X104808680Y-12749560I-225000J0D01*
G01*
G37*
G04 #@! TD*
G04 #@! TO.C,C10*
G36*
G01*
X106887880Y-14273060D02*
X105937880Y-14273060D01*
G75*
G02*
X105687880Y-14023060I0J250000D01*
G01*
X105687880Y-13523060D01*
G75*
G02*
X105937880Y-13273060I250000J0D01*
G01*
X106887880Y-13273060D01*
G75*
G02*
X107137880Y-13523060I0J-250000D01*
G01*
X107137880Y-14023060D01*
G75*
G02*
X106887880Y-14273060I-250000J0D01*
G01*
G37*
G36*
G01*
X106887880Y-12373060D02*
X105937880Y-12373060D01*
G75*
G02*
X105687880Y-12123060I0J250000D01*
G01*
X105687880Y-11623060D01*
G75*
G02*
X105937880Y-11373060I250000J0D01*
G01*
X106887880Y-11373060D01*
G75*
G02*
X107137880Y-11623060I0J-250000D01*
G01*
X107137880Y-12123060D01*
G75*
G02*
X106887880Y-12373060I-250000J0D01*
G01*
G37*
G04 #@! TD*
G04 #@! TO.C,C9*
G36*
G01*
X68493040Y-24076400D02*
X68493040Y-23576400D01*
G75*
G02*
X68718040Y-23351400I225000J0D01*
G01*
X69168040Y-23351400D01*
G75*
G02*
X69393040Y-23576400I0J-225000D01*
G01*
X69393040Y-24076400D01*
G75*
G02*
X69168040Y-24301400I-225000J0D01*
G01*
X68718040Y-24301400D01*
G75*
G02*
X68493040Y-24076400I0J225000D01*
G01*
G37*
G36*
G01*
X66943040Y-24076400D02*
X66943040Y-23576400D01*
G75*
G02*
X67168040Y-23351400I225000J0D01*
G01*
X67618040Y-23351400D01*
G75*
G02*
X67843040Y-23576400I0J-225000D01*
G01*
X67843040Y-24076400D01*
G75*
G02*
X67618040Y-24301400I-225000J0D01*
G01*
X67168040Y-24301400D01*
G75*
G02*
X66943040Y-24076400I0J225000D01*
G01*
G37*
G04 #@! TD*
G04 #@! TO.C,C8*
G36*
G01*
X103372480Y-20920960D02*
X104322480Y-20920960D01*
G75*
G02*
X104572480Y-21170960I0J-250000D01*
G01*
X104572480Y-21670960D01*
G75*
G02*
X104322480Y-21920960I-250000J0D01*
G01*
X103372480Y-21920960D01*
G75*
G02*
X103122480Y-21670960I0J250000D01*
G01*
X103122480Y-21170960D01*
G75*
G02*
X103372480Y-20920960I250000J0D01*
G01*
G37*
G36*
G01*
X103372480Y-22820960D02*
X104322480Y-22820960D01*
G75*
G02*
X104572480Y-23070960I0J-250000D01*
G01*
X104572480Y-23570960D01*
G75*
G02*
X104322480Y-23820960I-250000J0D01*
G01*
X103372480Y-23820960D01*
G75*
G02*
X103122480Y-23570960I0J250000D01*
G01*
X103122480Y-23070960D01*
G75*
G02*
X103372480Y-22820960I250000J0D01*
G01*
G37*
G04 #@! TD*
G04 #@! TO.C,C6*
G36*
G01*
X125441480Y-6655560D02*
X125941480Y-6655560D01*
G75*
G02*
X126166480Y-6880560I0J-225000D01*
G01*
X126166480Y-7330560D01*
G75*
G02*
X125941480Y-7555560I-225000J0D01*
G01*
X125441480Y-7555560D01*
G75*
G02*
X125216480Y-7330560I0J225000D01*
G01*
X125216480Y-6880560D01*
G75*
G02*
X125441480Y-6655560I225000J0D01*
G01*
G37*
G36*
G01*
X125441480Y-8205560D02*
X125941480Y-8205560D01*
G75*
G02*
X126166480Y-8430560I0J-225000D01*
G01*
X126166480Y-8880560D01*
G75*
G02*
X125941480Y-9105560I-225000J0D01*
G01*
X125441480Y-9105560D01*
G75*
G02*
X125216480Y-8880560I0J225000D01*
G01*
X125216480Y-8430560D01*
G75*
G02*
X125441480Y-8205560I225000J0D01*
G01*
G37*
G04 #@! TD*
G04 #@! TO.C,C4*
G36*
G01*
X101819480Y-16929860D02*
X102319480Y-16929860D01*
G75*
G02*
X102544480Y-17154860I0J-225000D01*
G01*
X102544480Y-17604860D01*
G75*
G02*
X102319480Y-17829860I-225000J0D01*
G01*
X101819480Y-17829860D01*
G75*
G02*
X101594480Y-17604860I0J225000D01*
G01*
X101594480Y-17154860D01*
G75*
G02*
X101819480Y-16929860I225000J0D01*
G01*
G37*
G36*
G01*
X101819480Y-15379860D02*
X102319480Y-15379860D01*
G75*
G02*
X102544480Y-15604860I0J-225000D01*
G01*
X102544480Y-16054860D01*
G75*
G02*
X102319480Y-16279860I-225000J0D01*
G01*
X101819480Y-16279860D01*
G75*
G02*
X101594480Y-16054860I0J225000D01*
G01*
X101594480Y-15604860D01*
G75*
G02*
X101819480Y-15379860I225000J0D01*
G01*
G37*
G04 #@! TD*
G04 #@! TO.C,C3*
G36*
G01*
X102306780Y-22427260D02*
X101806780Y-22427260D01*
G75*
G02*
X101581780Y-22202260I0J225000D01*
G01*
X101581780Y-21752260D01*
G75*
G02*
X101806780Y-21527260I225000J0D01*
G01*
X102306780Y-21527260D01*
G75*
G02*
X102531780Y-21752260I0J-225000D01*
G01*
X102531780Y-22202260D01*
G75*
G02*
X102306780Y-22427260I-225000J0D01*
G01*
G37*
G36*
G01*
X102306780Y-23977260D02*
X101806780Y-23977260D01*
G75*
G02*
X101581780Y-23752260I0J225000D01*
G01*
X101581780Y-23302260D01*
G75*
G02*
X101806780Y-23077260I225000J0D01*
G01*
X102306780Y-23077260D01*
G75*
G02*
X102531780Y-23302260I0J-225000D01*
G01*
X102531780Y-23752260D01*
G75*
G02*
X102306780Y-23977260I-225000J0D01*
G01*
G37*
G04 #@! TD*
D26*
G04 #@! TO.C,J5*
X64667200Y-18198300D03*
X64667200Y-17398300D03*
X64667200Y-16598300D03*
X64667200Y-15798300D03*
X64667200Y-14998300D03*
D27*
X64667200Y-21058300D03*
X64667200Y-12138300D03*
X59187200Y-21058300D03*
X59187200Y-12138300D03*
G04 #@! TD*
D20*
G04 #@! TO.C,SW2*
X126829400Y-3915640D03*
X122729400Y-3915640D03*
X122729400Y-2284640D03*
X126829400Y-2284640D03*
G04 #@! TD*
M02*
