M48
; DRILL file {KiCad (5.1.8)-1} date 06/20/21 20:47:29
; FORMAT={-:-/ absolute / metric / decimal}
; #@! TF.CreationDate,2021-06-20T20:47:29+01:00
; #@! TF.GenerationSoftware,Kicad,Pcbnew,(5.1.8)-1
; #@! TF.FileFunction,Plated,1,4,PTH
FMAT,2
METRIC
T1C0.200
T2C0.400
T3C1.500
%
G90
G05
T1
X95.923Y-19.523
X96.144Y-15.048
X96.647Y-18.332
X97.124Y-18.79
X97.165Y-13.523
X97.307Y-5.628
X97.396Y-19.336
X97.533Y-13.813
X97.536Y-10.536
X97.874Y-13.018
X98.088Y-11.595
X98.096Y-19.639
X98.24Y-17.549
X98.511Y-14.359
X98.612Y-15.527
X98.635Y-16.511
X98.666Y-18.475
X98.666Y-19.45
X99.898Y-5.467
X100.484Y-13.493
X100.723Y-6.483
X100.799Y-11.36
X100.888Y-9.379
X100.914Y-17.621
X100.926Y-14.802
X100.977Y-20.847
X101.024Y-12.513
X101.041Y-13.717
X101.155Y-13.113
X103.535Y-14.372
X103.768Y-14.79
X103.873Y-15.767
X104.19Y-11.144
X104.2Y-18.603
X104.657Y-18.6
X105.116Y-18.61
X106.464Y-17.012
X106.87Y-10.176
X110.451Y-21.558
X110.566Y-20.275
X110.566Y-20.783
X112.671Y-10.004
X116.24Y-18.27
X118.364Y-15.373
X118.643Y-11.627
X118.656Y-16.478
X118.694Y-9.214
X118.783Y-12.833
X118.783Y-19.221
T2
X59.578Y1.928
X59.578Y-1.247
X59.578Y-3.787
X59.578Y-6.962
X59.578Y-9.502
X59.578Y-14.582
X59.578Y-17.122
X59.578Y-19.027
X59.578Y-23.472
X59.578Y-26.012
X61.562Y-9.831
X62.118Y1.928
X63.34Y-19.327
X63.479Y-1.043
X64.658Y1.928
X64.711Y-26.951
X64.724Y-28.36
X66.654Y-14.212
X66.82Y-3.76
X66.858Y-2.274
X67.658Y-25.795
X68.928Y-1.601
X69.233Y-21.617
X69.931Y-10.682
X70.655Y-13.133
X71.442Y-2.338
X71.734Y-4.168
X72.268Y-5.424
X73.081Y-10.047
X73.144Y-5.449
X73.906Y-28.068
X74.008Y-5.437
X74.287Y-10.428
X74.656Y-17.159
X75.036Y-26.544
X75.57Y-10.199
X77.03Y-10.39
X77.869Y-2.859
X78.3Y-21.477
X79.025Y-12.219
X79.037Y-14.67
X79.812Y-4.865
X80.028Y-19.826
X80.142Y-16.041
X80.193Y-1.322
X80.282Y-2.948
X81.285Y-1.614
X82.312Y-14.619
X82.471Y-9.004
X82.834Y-11.19
X83.037Y-13.59
X83.073Y-28.552
X83.152Y-19.079
X83.977Y-19.079
X84.269Y-3.519
X84.269Y-22.302
X84.343Y2.563
X84.363Y-16.233
X84.404Y-17.779
X84.429Y-16.94
X84.79Y-19.079
X84.93Y-4.967
X85.613Y-28.552
X86.883Y2.563
X89.423Y2.563
X90.693Y-1.247
X90.693Y-3.787
X90.693Y-6.327
X90.693Y-8.867
X90.693Y-11.407
X90.693Y-13.947
X90.693Y-16.487
X90.693Y-19.027
X90.693Y-21.567
X90.693Y-24.107
X90.693Y-26.647
X90.693Y-29.187
X94.83Y-6.94
X94.83Y-22.18
X94.919Y-25.66
X94.932Y-29.089
X95.465Y2.585
X96.126Y-24.403
X97.609Y-14.743
X97.98Y-1.619
X98.005Y2.585
X98.666Y-24.403
X100.545Y2.585
X100.897Y-19.285
X100.942Y-10.324
X101.206Y-24.403
X103.085Y2.585
X103.746Y-24.403
X104.447Y-2.247
X104.698Y-20.138
X106.286Y-24.403
X107.002Y-20.621
X107.274Y-17.19
X107.454Y-2.838
X107.81Y-5.162
X108.165Y2.585
X108.165Y-0.87
X108.826Y-24.403
X109.502Y-13.703
X110.07Y2.585
X110.07Y0.68
X110.667Y-6.725
X110.731Y-0.87
X110.959Y-5.607
X111.366Y-24.403
X111.833Y-6.769
X112.565Y-6.087
X112.852Y-11.131
X113.296Y-0.87
X113.588Y-6.674
X113.83Y-5.162
X113.906Y-24.403
X114.515Y0.68
X115.15Y2.585
X115.862Y-0.87
X115.902Y-6.839
X116.446Y-24.403
X117.538Y-2.661
X117.69Y2.585
X117.883Y-14.055
X117.957Y-17.187
X118.986Y-24.403
X120.865Y2.585
X121.526Y-24.403
X122.097Y-17.139
X123.212Y-11.553
X123.273Y-18.172
X123.405Y2.585
X123.898Y-15.089
X124.066Y-24.403
X124.167Y-14.246
X126.733Y2.445
X126.733Y-0.095
X126.733Y-7.715
X126.733Y-12.795
X126.733Y-15.335
X126.733Y-17.875
X126.733Y-20.415
X126.733Y-22.955
X126.733Y-25.495
X126.733Y-28.035
X126.885Y-10.354
T3
X68.713Y-27.917
X80.713Y-27.917
T0
M30
