G04 #@! TF.GenerationSoftware,KiCad,Pcbnew,(5.1.8)-1*
G04 #@! TF.CreationDate,2021-06-27T17:42:15+01:00*
G04 #@! TF.ProjectId,schem_1,73636865-6d5f-4312-9e6b-696361645f70,rev?*
G04 #@! TF.SameCoordinates,Original*
G04 #@! TF.FileFunction,Legend,Bot*
G04 #@! TF.FilePolarity,Positive*
%FSLAX46Y46*%
G04 Gerber Fmt 4.6, Leading zero omitted, Abs format (unit mm)*
G04 Created by KiCad (PCBNEW (5.1.8)-1) date 2021-06-27 17:42:15*
%MOMM*%
%LPD*%
G01*
G04 APERTURE LIST*
%ADD10C,0.120000*%
%ADD11C,0.100000*%
%ADD12C,0.200000*%
%ADD13C,0.254000*%
%ADD14C,0.127000*%
%ADD15C,0.160000*%
%ADD16C,0.150000*%
G04 APERTURE END LIST*
D10*
X84853861Y-7760200D02*
G75*
G03*
X84853861Y-7760200I-283981J0D01*
G01*
D11*
X99353165Y-979402D02*
X99267451Y-1007974D01*
X99238880Y-1036545D01*
X99210308Y-1093688D01*
X99210308Y-1179402D01*
X99238880Y-1236545D01*
X99267451Y-1265117D01*
X99324594Y-1293688D01*
X99553165Y-1293688D01*
X99553165Y-693688D01*
X99353165Y-693688D01*
X99296022Y-722260D01*
X99267451Y-750831D01*
X99238880Y-807974D01*
X99238880Y-865117D01*
X99267451Y-922260D01*
X99296022Y-950831D01*
X99353165Y-979402D01*
X99553165Y-979402D01*
X98838880Y-693688D02*
X98724594Y-693688D01*
X98667451Y-722260D01*
X98610308Y-779402D01*
X98581737Y-893688D01*
X98581737Y-1093688D01*
X98610308Y-1207974D01*
X98667451Y-1265117D01*
X98724594Y-1293688D01*
X98838880Y-1293688D01*
X98896022Y-1265117D01*
X98953165Y-1207974D01*
X98981737Y-1093688D01*
X98981737Y-893688D01*
X98953165Y-779402D01*
X98896022Y-722260D01*
X98838880Y-693688D01*
X98210308Y-693688D02*
X98096022Y-693688D01*
X98038880Y-722260D01*
X97981737Y-779402D01*
X97953165Y-893688D01*
X97953165Y-1093688D01*
X97981737Y-1207974D01*
X98038880Y-1265117D01*
X98096022Y-1293688D01*
X98210308Y-1293688D01*
X98267451Y-1265117D01*
X98324594Y-1207974D01*
X98353165Y-1093688D01*
X98353165Y-893688D01*
X98324594Y-779402D01*
X98267451Y-722260D01*
X98210308Y-693688D01*
X97781737Y-693688D02*
X97438880Y-693688D01*
X97610308Y-1293688D02*
X97610308Y-693688D01*
X126786428Y-1308928D02*
X126986428Y-1023214D01*
X127129285Y-1308928D02*
X127129285Y-708928D01*
X126900714Y-708928D01*
X126843571Y-737500D01*
X126815000Y-766071D01*
X126786428Y-823214D01*
X126786428Y-908928D01*
X126815000Y-966071D01*
X126843571Y-994642D01*
X126900714Y-1023214D01*
X127129285Y-1023214D01*
X126529285Y-994642D02*
X126329285Y-994642D01*
X126243571Y-1308928D02*
X126529285Y-1308928D01*
X126529285Y-708928D01*
X126243571Y-708928D01*
X126015000Y-1280357D02*
X125929285Y-1308928D01*
X125786428Y-1308928D01*
X125729285Y-1280357D01*
X125700714Y-1251785D01*
X125672142Y-1194642D01*
X125672142Y-1137500D01*
X125700714Y-1080357D01*
X125729285Y-1051785D01*
X125786428Y-1023214D01*
X125900714Y-994642D01*
X125957857Y-966071D01*
X125986428Y-937500D01*
X126015000Y-880357D01*
X126015000Y-823214D01*
X125986428Y-766071D01*
X125957857Y-737500D01*
X125900714Y-708928D01*
X125757857Y-708928D01*
X125672142Y-737500D01*
X125415000Y-994642D02*
X125215000Y-994642D01*
X125129285Y-1308928D02*
X125415000Y-1308928D01*
X125415000Y-708928D01*
X125129285Y-708928D01*
X124957857Y-708928D02*
X124615000Y-708928D01*
X124786428Y-1308928D02*
X124786428Y-708928D01*
D12*
G04 #@! TO.C,J4*
X127522280Y-23639460D02*
X127522280Y-12929460D01*
X119022280Y-12929460D02*
X127522280Y-12929460D01*
X119022280Y-23639460D02*
X127522280Y-23639460D01*
X119022280Y-23639460D02*
X119022280Y-12929460D01*
D13*
X116396889Y-23364460D02*
G75*
G03*
X116396889Y-23364460I-179609J0D01*
G01*
D10*
G04 #@! TO.C,J3*
X96315480Y-23513460D02*
X96315480Y-23623460D01*
X96315480Y-23623460D02*
X95715480Y-23623460D01*
X96315480Y-6083460D02*
X96315480Y-5973460D01*
X96315480Y-5973460D02*
X95715480Y-5973460D01*
X98905480Y-20748460D02*
X98505480Y-20548460D01*
X98505480Y-20548460D02*
X98905480Y-20348460D01*
X98905480Y-20348460D02*
X98905480Y-20748460D01*
G04 #@! TO.C,J2*
X105426700Y2650540D02*
X105316700Y2650540D01*
X118186700Y1490540D02*
X118186700Y2650540D01*
X118186700Y2650540D02*
X106926700Y2650540D01*
X105316700Y2650540D02*
X105316700Y840540D01*
X118186700Y-1759460D02*
X118186700Y-7359460D01*
X105316700Y-1059460D02*
X105316700Y-7359460D01*
G04 #@! TO.C,C2*
X81347800Y-32743200D02*
X69409800Y-32743200D01*
X83633800Y-23581200D02*
X66633800Y-23581200D01*
X83633800Y-6581200D02*
X83633800Y-23581200D01*
X66633800Y-6581200D02*
X66633800Y-23581200D01*
X83633800Y-6581200D02*
X66633800Y-6581200D01*
G04 #@! TO.C,J6*
X89557800Y-6093640D02*
X89557800Y-5983640D01*
X89557800Y-5983640D02*
X90157800Y-5983640D01*
X89557800Y-23523640D02*
X89557800Y-23633640D01*
X89557800Y-23633640D02*
X90157800Y-23633640D01*
X86967800Y-8858640D02*
X87367800Y-9058640D01*
X87367800Y-9058640D02*
X86967800Y-9258640D01*
X86967800Y-9258640D02*
X86967800Y-8858640D01*
G04 #@! TO.C,R29*
X61829502Y-7285180D02*
X62304018Y-7285180D01*
X61829502Y-6240180D02*
X62304018Y-6240180D01*
G04 #@! TO.C,R28*
X61829502Y-8910780D02*
X62304018Y-8910780D01*
X61829502Y-7865780D02*
X62304018Y-7865780D01*
G04 #@! TO.C,R10*
X72018442Y-13300533D02*
X72492958Y-13300533D01*
X72018442Y-14345533D02*
X72492958Y-14345533D01*
G04 #@! TO.C,R9*
X72018442Y-14866866D02*
X72492958Y-14866866D01*
X72018442Y-15911866D02*
X72492958Y-15911866D01*
G04 #@! TO.C,U8*
X83761100Y-6555400D02*
X83761100Y-8370400D01*
X84006100Y-6555400D02*
X83761100Y-6555400D01*
X84006100Y-2695400D02*
X84006100Y-6555400D01*
X84006100Y1164600D02*
X83761100Y1164600D01*
X84006100Y-2695400D02*
X84006100Y1164600D01*
X65886100Y-6555400D02*
X66131100Y-6555400D01*
X65886100Y-2695400D02*
X65886100Y-6555400D01*
X65886100Y1164600D02*
X66131100Y1164600D01*
X65886100Y-2695400D02*
X65886100Y1164600D01*
G04 #@! TO.C,U6*
X111157480Y-17673960D02*
X111157480Y-19133960D01*
X114317480Y-17673960D02*
X114317480Y-19833960D01*
X114317480Y-17673960D02*
X113387480Y-17673960D01*
X111157480Y-17673960D02*
X112087480Y-17673960D01*
G04 #@! TO.C,U5*
X110068480Y-13234460D02*
X108608480Y-13234460D01*
X110068480Y-16394460D02*
X107908480Y-16394460D01*
X110068480Y-16394460D02*
X110068480Y-15464460D01*
X110068480Y-13234460D02*
X110068480Y-14164460D01*
G04 #@! TO.C,U2*
X103062980Y-19524460D02*
X103062980Y-17074460D01*
X106282980Y-17724460D02*
X106282980Y-19524460D01*
G04 #@! TO.C,R26*
X105441062Y-16032920D02*
X105915578Y-16032920D01*
X105441062Y-14987920D02*
X105915578Y-14987920D01*
G04 #@! TO.C,R25*
X63962840Y-2715922D02*
X63962840Y-3190438D01*
X65007840Y-2715922D02*
X65007840Y-3190438D01*
G04 #@! TO.C,R24*
X60612580Y-2715922D02*
X60612580Y-3190438D01*
X61657580Y-2715922D02*
X61657580Y-3190438D01*
G04 #@! TO.C,R23*
X68961858Y-11721500D02*
X68487342Y-11721500D01*
X68961858Y-12766500D02*
X68487342Y-12766500D01*
G04 #@! TO.C,R22*
X68472602Y-14740080D02*
X68947118Y-14740080D01*
X68472602Y-13695080D02*
X68947118Y-13695080D01*
G04 #@! TO.C,R21*
X72492958Y-11734200D02*
X72018442Y-11734200D01*
X72492958Y-12779200D02*
X72018442Y-12779200D01*
G04 #@! TO.C,R20*
X72018442Y-17478200D02*
X72492958Y-17478200D01*
X72018442Y-16433200D02*
X72492958Y-16433200D01*
G04 #@! TO.C,R19*
X108912980Y-22481218D02*
X108912980Y-22006702D01*
X109957980Y-22481218D02*
X109957980Y-22006702D01*
G04 #@! TO.C,R18*
X77095864Y-29257500D02*
X72741736Y-29257500D01*
X77095864Y-25837500D02*
X72741736Y-25837500D01*
G04 #@! TO.C,R17*
X108243480Y-22006702D02*
X108243480Y-22481218D01*
X107198480Y-22006702D02*
X107198480Y-22481218D01*
G04 #@! TO.C,R16*
X62287710Y-2715922D02*
X62287710Y-3190438D01*
X63332710Y-2715922D02*
X63332710Y-3190438D01*
G04 #@! TO.C,R15*
X116149180Y-11229918D02*
X116149180Y-10755402D01*
X117194180Y-11229918D02*
X117194180Y-10755402D01*
G04 #@! TO.C,R14*
X114599780Y-11229918D02*
X114599780Y-10755402D01*
X115644780Y-11229918D02*
X115644780Y-10755402D01*
G04 #@! TO.C,R13*
X112040780Y-11584118D02*
X112040780Y-11109602D01*
X110995780Y-11584118D02*
X110995780Y-11109602D01*
G04 #@! TO.C,R12*
X110453280Y-11584618D02*
X110453280Y-11110102D01*
X109408280Y-11584618D02*
X109408280Y-11110102D01*
G04 #@! TO.C,R11*
X108865780Y-11584618D02*
X108865780Y-11110102D01*
X107820780Y-11584618D02*
X107820780Y-11110102D01*
G04 #@! TO.C,R8*
X123365580Y-8104318D02*
X123365580Y-7629802D01*
X124410580Y-8104318D02*
X124410580Y-7629802D01*
G04 #@! TO.C,R5*
X68911058Y-16166500D02*
X68436542Y-16166500D01*
X68911058Y-17211500D02*
X68436542Y-17211500D01*
G04 #@! TO.C,R4*
X105392338Y-10676060D02*
X104917822Y-10676060D01*
X105392338Y-9631060D02*
X104917822Y-9631060D01*
G04 #@! TO.C,R2*
X100607180Y-2816502D02*
X100607180Y-3291018D01*
X101652180Y-2816502D02*
X101652180Y-3291018D01*
G04 #@! TO.C,Q1*
X107823480Y-16833960D02*
X107823480Y-17783960D01*
X110423480Y-16833960D02*
X107823480Y-16833960D01*
X107823480Y-19083960D02*
X107823480Y-19883960D01*
G04 #@! TO.C,D2*
X64489660Y-29775640D02*
X62489660Y-29775640D01*
X62489660Y-29775640D02*
X62489660Y-25875640D01*
X64489660Y-29775640D02*
X64489660Y-25875640D01*
G04 #@! TO.C,D1*
X64991560Y-25275640D02*
X66991560Y-25275640D01*
X66991560Y-25275640D02*
X66991560Y-29175640D01*
X64991560Y-25275640D02*
X64991560Y-29175640D01*
G04 #@! TO.C,C24*
X106325980Y-22039880D02*
X106325980Y-22321040D01*
X105305980Y-22039880D02*
X105305980Y-22321040D01*
G04 #@! TO.C,C23*
X65043732Y-23010120D02*
X64521228Y-23010120D01*
X65043732Y-24480120D02*
X64521228Y-24480120D01*
G04 #@! TO.C,C22*
X86853520Y-2921872D02*
X86853520Y-2399368D01*
X85383520Y-2921872D02*
X85383520Y-2399368D01*
G04 #@! TO.C,C21*
X88961720Y-2921872D02*
X88961720Y-2399368D01*
X87491720Y-2921872D02*
X87491720Y-2399368D01*
G04 #@! TO.C,C20*
X77081780Y-11683200D02*
X76800620Y-11683200D01*
X77081780Y-12703200D02*
X76800620Y-12703200D01*
G04 #@! TO.C,C19*
X77081780Y-13253766D02*
X76800620Y-13253766D01*
X77081780Y-14273766D02*
X76800620Y-14273766D01*
G04 #@! TO.C,C18*
X80724920Y-18697600D02*
X81006080Y-18697600D01*
X80724920Y-17677600D02*
X81006080Y-17677600D01*
G04 #@! TO.C,C17*
X77714580Y-15840040D02*
X77433420Y-15840040D01*
X77714580Y-16860040D02*
X77433420Y-16860040D01*
G04 #@! TO.C,C16*
X111430980Y-15012212D02*
X111430980Y-14489708D01*
X112900980Y-15012212D02*
X112900980Y-14489708D01*
G04 #@! TO.C,C15*
X112167980Y-21608380D02*
X112167980Y-21889540D01*
X111147980Y-21608380D02*
X111147980Y-21889540D01*
G04 #@! TO.C,C14*
X114234480Y-21728708D02*
X114234480Y-22251212D01*
X112764480Y-21728708D02*
X112764480Y-22251212D01*
G04 #@! TO.C,C12*
X101572180Y-19575780D02*
X101572180Y-19856940D01*
X102592180Y-19575780D02*
X102592180Y-19856940D01*
G04 #@! TO.C,C11*
X104048680Y-13215140D02*
X104048680Y-12933980D01*
X105068680Y-13215140D02*
X105068680Y-12933980D01*
G04 #@! TO.C,C10*
X105677880Y-13084312D02*
X105677880Y-12561808D01*
X107147880Y-13084312D02*
X107147880Y-12561808D01*
G04 #@! TO.C,C9*
X68027460Y-24336400D02*
X68308620Y-24336400D01*
X68027460Y-23316400D02*
X68308620Y-23316400D01*
G04 #@! TO.C,C8*
X104582480Y-22109708D02*
X104582480Y-22632212D01*
X103112480Y-22109708D02*
X103112480Y-22632212D01*
G04 #@! TO.C,C6*
X126201480Y-7739980D02*
X126201480Y-8021140D01*
X125181480Y-7739980D02*
X125181480Y-8021140D01*
G04 #@! TO.C,C4*
X101559480Y-16464280D02*
X101559480Y-16745440D01*
X102579480Y-16464280D02*
X102579480Y-16745440D01*
G04 #@! TO.C,C3*
X102566780Y-22892840D02*
X102566780Y-22611680D01*
X101546780Y-22892840D02*
X101546780Y-22611680D01*
D14*
G04 #@! TO.C,J5*
X60687200Y-20458300D02*
X63167200Y-20458300D01*
X60687200Y-12738300D02*
X63167200Y-12738300D01*
X65417200Y-19808300D02*
X65417200Y-18698300D01*
X65417200Y-14498300D02*
X65417200Y-13388300D01*
X57687200Y-20458300D02*
X56217200Y-20458300D01*
X56217200Y-20458300D02*
X56217200Y-12738300D01*
X56217200Y-12738300D02*
X57687200Y-12738300D01*
D15*
X66147200Y-19098300D02*
G75*
G03*
X66147200Y-19098300I-80000J0D01*
G01*
G04 #@! TO.C,J4*
D16*
X123180013Y-24000480D02*
X123180013Y-24714766D01*
X123227632Y-24857623D01*
X123322870Y-24952861D01*
X123465727Y-25000480D01*
X123560965Y-25000480D01*
X122275251Y-24333814D02*
X122275251Y-25000480D01*
X122513346Y-23952861D02*
X122751441Y-24667147D01*
X122132394Y-24667147D01*
G04 #@! TO.C,J3*
X100094380Y-7099886D02*
X100808666Y-7099886D01*
X100951523Y-7052267D01*
X101046761Y-6957029D01*
X101094380Y-6814172D01*
X101094380Y-6718934D01*
X100094380Y-7480839D02*
X100094380Y-8099886D01*
X100475333Y-7766553D01*
X100475333Y-7909410D01*
X100522952Y-8004648D01*
X100570571Y-8052267D01*
X100665809Y-8099886D01*
X100903904Y-8099886D01*
X100999142Y-8052267D01*
X101046761Y-8004648D01*
X101094380Y-7909410D01*
X101094380Y-7623696D01*
X101046761Y-7528458D01*
X100999142Y-7480839D01*
G04 #@! TO.C,J2*
X103934860Y2079673D02*
X104649146Y2079673D01*
X104792003Y2127292D01*
X104887241Y2222530D01*
X104934860Y2365387D01*
X104934860Y2460625D01*
X104030099Y1651101D02*
X103982480Y1603482D01*
X103934860Y1508244D01*
X103934860Y1270149D01*
X103982480Y1174911D01*
X104030099Y1127292D01*
X104125337Y1079673D01*
X104220575Y1079673D01*
X104363432Y1127292D01*
X104934860Y1698720D01*
X104934860Y1079673D01*
G04 #@! TO.C,SW1*
X98536173Y-5643421D02*
X98393316Y-5691040D01*
X98155220Y-5691040D01*
X98059982Y-5643421D01*
X98012363Y-5595802D01*
X97964744Y-5500564D01*
X97964744Y-5405326D01*
X98012363Y-5310088D01*
X98059982Y-5262469D01*
X98155220Y-5214850D01*
X98345697Y-5167231D01*
X98440935Y-5119612D01*
X98488554Y-5071993D01*
X98536173Y-4976755D01*
X98536173Y-4881517D01*
X98488554Y-4786279D01*
X98440935Y-4738660D01*
X98345697Y-4691040D01*
X98107601Y-4691040D01*
X97964744Y-4738660D01*
X97631411Y-4691040D02*
X97393316Y-5691040D01*
X97202840Y-4976755D01*
X97012363Y-5691040D01*
X96774268Y-4691040D01*
X95869506Y-5691040D02*
X96440935Y-5691040D01*
X96155220Y-5691040D02*
X96155220Y-4691040D01*
X96250459Y-4833898D01*
X96345697Y-4929136D01*
X96440935Y-4976755D01*
G04 #@! TO.C,C2*
X74910466Y-5795342D02*
X74958085Y-5842961D01*
X75100942Y-5890580D01*
X75196180Y-5890580D01*
X75339038Y-5842961D01*
X75434276Y-5747723D01*
X75481895Y-5652485D01*
X75529514Y-5462009D01*
X75529514Y-5319152D01*
X75481895Y-5128676D01*
X75434276Y-5033438D01*
X75339038Y-4938200D01*
X75196180Y-4890580D01*
X75100942Y-4890580D01*
X74958085Y-4938200D01*
X74910466Y-4985819D01*
X74529514Y-4985819D02*
X74481895Y-4938200D01*
X74386657Y-4890580D01*
X74148561Y-4890580D01*
X74053323Y-4938200D01*
X74005704Y-4985819D01*
X73958085Y-5081057D01*
X73958085Y-5176295D01*
X74005704Y-5319152D01*
X74577133Y-5890580D01*
X73958085Y-5890580D01*
X81474704Y-25012057D02*
X79950895Y-25012057D01*
X80712800Y-25773961D02*
X80712800Y-24250152D01*
G04 #@! TO.C,J6*
X90768073Y-4431280D02*
X90768073Y-5145566D01*
X90815692Y-5288423D01*
X90910930Y-5383661D01*
X91053787Y-5431280D01*
X91149025Y-5431280D01*
X89863311Y-4431280D02*
X90053787Y-4431280D01*
X90149025Y-4478900D01*
X90196644Y-4526519D01*
X90291882Y-4669376D01*
X90339501Y-4859852D01*
X90339501Y-5240804D01*
X90291882Y-5336042D01*
X90244263Y-5383661D01*
X90149025Y-5431280D01*
X89958549Y-5431280D01*
X89863311Y-5383661D01*
X89815692Y-5336042D01*
X89768073Y-5240804D01*
X89768073Y-5002709D01*
X89815692Y-4907471D01*
X89863311Y-4859852D01*
X89958549Y-4812233D01*
X90149025Y-4812233D01*
X90244263Y-4859852D01*
X90291882Y-4907471D01*
X90339501Y-5002709D01*
G04 #@! TO.C,R29*
X62743897Y-5751320D02*
X63077230Y-5275130D01*
X63315325Y-5751320D02*
X63315325Y-4751320D01*
X62934373Y-4751320D01*
X62839135Y-4798940D01*
X62791516Y-4846559D01*
X62743897Y-4941797D01*
X62743897Y-5084654D01*
X62791516Y-5179892D01*
X62839135Y-5227511D01*
X62934373Y-5275130D01*
X63315325Y-5275130D01*
X62362944Y-4846559D02*
X62315325Y-4798940D01*
X62220087Y-4751320D01*
X61981992Y-4751320D01*
X61886754Y-4798940D01*
X61839135Y-4846559D01*
X61791516Y-4941797D01*
X61791516Y-5037035D01*
X61839135Y-5179892D01*
X62410563Y-5751320D01*
X61791516Y-5751320D01*
X61315325Y-5751320D02*
X61124849Y-5751320D01*
X61029611Y-5703701D01*
X60981992Y-5656082D01*
X60886754Y-5513225D01*
X60839135Y-5322749D01*
X60839135Y-4941797D01*
X60886754Y-4846559D01*
X60934373Y-4798940D01*
X61029611Y-4751320D01*
X61220087Y-4751320D01*
X61315325Y-4798940D01*
X61362944Y-4846559D01*
X61410563Y-4941797D01*
X61410563Y-5179892D01*
X61362944Y-5275130D01*
X61315325Y-5322749D01*
X61220087Y-5370368D01*
X61029611Y-5370368D01*
X60934373Y-5322749D01*
X60886754Y-5275130D01*
X60839135Y-5179892D01*
G04 #@! TO.C,R28*
X62709617Y-10270660D02*
X63042950Y-9794470D01*
X63281045Y-10270660D02*
X63281045Y-9270660D01*
X62900093Y-9270660D01*
X62804855Y-9318280D01*
X62757236Y-9365899D01*
X62709617Y-9461137D01*
X62709617Y-9603994D01*
X62757236Y-9699232D01*
X62804855Y-9746851D01*
X62900093Y-9794470D01*
X63281045Y-9794470D01*
X62328664Y-9365899D02*
X62281045Y-9318280D01*
X62185807Y-9270660D01*
X61947712Y-9270660D01*
X61852474Y-9318280D01*
X61804855Y-9365899D01*
X61757236Y-9461137D01*
X61757236Y-9556375D01*
X61804855Y-9699232D01*
X62376283Y-10270660D01*
X61757236Y-10270660D01*
X61185807Y-9699232D02*
X61281045Y-9651613D01*
X61328664Y-9603994D01*
X61376283Y-9508756D01*
X61376283Y-9461137D01*
X61328664Y-9365899D01*
X61281045Y-9318280D01*
X61185807Y-9270660D01*
X60995331Y-9270660D01*
X60900093Y-9318280D01*
X60852474Y-9365899D01*
X60804855Y-9461137D01*
X60804855Y-9508756D01*
X60852474Y-9603994D01*
X60900093Y-9651613D01*
X60995331Y-9699232D01*
X61185807Y-9699232D01*
X61281045Y-9746851D01*
X61328664Y-9794470D01*
X61376283Y-9889708D01*
X61376283Y-10080184D01*
X61328664Y-10175422D01*
X61281045Y-10223041D01*
X61185807Y-10270660D01*
X60995331Y-10270660D01*
X60900093Y-10223041D01*
X60852474Y-10175422D01*
X60804855Y-10080184D01*
X60804855Y-9889708D01*
X60852474Y-9794470D01*
X60900093Y-9746851D01*
X60995331Y-9699232D01*
G04 #@! TO.C,R10*
X73287437Y-19584160D02*
X73620770Y-19107970D01*
X73858865Y-19584160D02*
X73858865Y-18584160D01*
X73477913Y-18584160D01*
X73382675Y-18631780D01*
X73335056Y-18679399D01*
X73287437Y-18774637D01*
X73287437Y-18917494D01*
X73335056Y-19012732D01*
X73382675Y-19060351D01*
X73477913Y-19107970D01*
X73858865Y-19107970D01*
X72335056Y-19584160D02*
X72906484Y-19584160D01*
X72620770Y-19584160D02*
X72620770Y-18584160D01*
X72716008Y-18727018D01*
X72811246Y-18822256D01*
X72906484Y-18869875D01*
X71716008Y-18584160D02*
X71620770Y-18584160D01*
X71525532Y-18631780D01*
X71477913Y-18679399D01*
X71430294Y-18774637D01*
X71382675Y-18965113D01*
X71382675Y-19203208D01*
X71430294Y-19393684D01*
X71477913Y-19488922D01*
X71525532Y-19536541D01*
X71620770Y-19584160D01*
X71716008Y-19584160D01*
X71811246Y-19536541D01*
X71858865Y-19488922D01*
X71906484Y-19393684D01*
X71954103Y-19203208D01*
X71954103Y-18965113D01*
X71906484Y-18774637D01*
X71858865Y-18679399D01*
X71811246Y-18631780D01*
X71716008Y-18584160D01*
G04 #@! TO.C,R9*
X72796006Y-21092920D02*
X73129340Y-20616730D01*
X73367435Y-21092920D02*
X73367435Y-20092920D01*
X72986482Y-20092920D01*
X72891244Y-20140540D01*
X72843625Y-20188159D01*
X72796006Y-20283397D01*
X72796006Y-20426254D01*
X72843625Y-20521492D01*
X72891244Y-20569111D01*
X72986482Y-20616730D01*
X73367435Y-20616730D01*
X72319816Y-21092920D02*
X72129340Y-21092920D01*
X72034101Y-21045301D01*
X71986482Y-20997682D01*
X71891244Y-20854825D01*
X71843625Y-20664349D01*
X71843625Y-20283397D01*
X71891244Y-20188159D01*
X71938863Y-20140540D01*
X72034101Y-20092920D01*
X72224578Y-20092920D01*
X72319816Y-20140540D01*
X72367435Y-20188159D01*
X72415054Y-20283397D01*
X72415054Y-20521492D01*
X72367435Y-20616730D01*
X72319816Y-20664349D01*
X72224578Y-20711968D01*
X72034101Y-20711968D01*
X71938863Y-20664349D01*
X71891244Y-20616730D01*
X71843625Y-20521492D01*
G04 #@! TO.C,U8*
X64433780Y1241464D02*
X65243304Y1241464D01*
X65338542Y1193845D01*
X65386161Y1146226D01*
X65433780Y1050988D01*
X65433780Y860512D01*
X65386161Y765274D01*
X65338542Y717655D01*
X65243304Y670036D01*
X64433780Y670036D01*
X64862352Y50988D02*
X64814733Y146226D01*
X64767114Y193845D01*
X64671876Y241464D01*
X64624257Y241464D01*
X64529019Y193845D01*
X64481400Y146226D01*
X64433780Y50988D01*
X64433780Y-139487D01*
X64481400Y-234725D01*
X64529019Y-282344D01*
X64624257Y-329963D01*
X64671876Y-329963D01*
X64767114Y-282344D01*
X64814733Y-234725D01*
X64862352Y-139487D01*
X64862352Y50988D01*
X64909971Y146226D01*
X64957590Y193845D01*
X65052828Y241464D01*
X65243304Y241464D01*
X65338542Y193845D01*
X65386161Y146226D01*
X65433780Y50988D01*
X65433780Y-139487D01*
X65386161Y-234725D01*
X65338542Y-282344D01*
X65243304Y-329963D01*
X65052828Y-329963D01*
X64957590Y-282344D01*
X64909971Y-234725D01*
X64862352Y-139487D01*
G04 #@! TO.C,U6*
D11*
X114393502Y-16832848D02*
X114393502Y-17318562D01*
X114364931Y-17375705D01*
X114336360Y-17404277D01*
X114279217Y-17432848D01*
X114164931Y-17432848D01*
X114107788Y-17404277D01*
X114079217Y-17375705D01*
X114050645Y-17318562D01*
X114050645Y-16832848D01*
X113507788Y-16832848D02*
X113622074Y-16832848D01*
X113679217Y-16861420D01*
X113707788Y-16889991D01*
X113764931Y-16975705D01*
X113793502Y-17089991D01*
X113793502Y-17318562D01*
X113764931Y-17375705D01*
X113736360Y-17404277D01*
X113679217Y-17432848D01*
X113564931Y-17432848D01*
X113507788Y-17404277D01*
X113479217Y-17375705D01*
X113450645Y-17318562D01*
X113450645Y-17175705D01*
X113479217Y-17118562D01*
X113507788Y-17089991D01*
X113564931Y-17061420D01*
X113679217Y-17061420D01*
X113736360Y-17089991D01*
X113764931Y-17118562D01*
X113793502Y-17175705D01*
G04 #@! TO.C,U5*
X110244828Y-13117797D02*
X110730542Y-13117797D01*
X110787685Y-13146368D01*
X110816257Y-13174940D01*
X110844828Y-13232082D01*
X110844828Y-13346368D01*
X110816257Y-13403511D01*
X110787685Y-13432082D01*
X110730542Y-13460654D01*
X110244828Y-13460654D01*
X110244828Y-14032082D02*
X110244828Y-13746368D01*
X110530542Y-13717797D01*
X110501971Y-13746368D01*
X110473400Y-13803511D01*
X110473400Y-13946368D01*
X110501971Y-14003511D01*
X110530542Y-14032082D01*
X110587685Y-14060654D01*
X110730542Y-14060654D01*
X110787685Y-14032082D01*
X110816257Y-14003511D01*
X110844828Y-13946368D01*
X110844828Y-13803511D01*
X110816257Y-13746368D01*
X110787685Y-13717797D01*
G04 #@! TO.C,U2*
X104167462Y-16030208D02*
X104167462Y-16515922D01*
X104138891Y-16573065D01*
X104110320Y-16601637D01*
X104053177Y-16630208D01*
X103938891Y-16630208D01*
X103881748Y-16601637D01*
X103853177Y-16573065D01*
X103824605Y-16515922D01*
X103824605Y-16030208D01*
X103567462Y-16087351D02*
X103538891Y-16058780D01*
X103481748Y-16030208D01*
X103338891Y-16030208D01*
X103281748Y-16058780D01*
X103253177Y-16087351D01*
X103224605Y-16144494D01*
X103224605Y-16201637D01*
X103253177Y-16287351D01*
X103596034Y-16630208D01*
X103224605Y-16630208D01*
G04 #@! TO.C,R26*
X106107714Y-16828328D02*
X106307714Y-16542614D01*
X106450571Y-16828328D02*
X106450571Y-16228328D01*
X106222000Y-16228328D01*
X106164857Y-16256900D01*
X106136285Y-16285471D01*
X106107714Y-16342614D01*
X106107714Y-16428328D01*
X106136285Y-16485471D01*
X106164857Y-16514042D01*
X106222000Y-16542614D01*
X106450571Y-16542614D01*
X105879142Y-16285471D02*
X105850571Y-16256900D01*
X105793428Y-16228328D01*
X105650571Y-16228328D01*
X105593428Y-16256900D01*
X105564857Y-16285471D01*
X105536285Y-16342614D01*
X105536285Y-16399757D01*
X105564857Y-16485471D01*
X105907714Y-16828328D01*
X105536285Y-16828328D01*
X105022000Y-16228328D02*
X105136285Y-16228328D01*
X105193428Y-16256900D01*
X105222000Y-16285471D01*
X105279142Y-16371185D01*
X105307714Y-16485471D01*
X105307714Y-16714042D01*
X105279142Y-16771185D01*
X105250571Y-16799757D01*
X105193428Y-16828328D01*
X105079142Y-16828328D01*
X105022000Y-16799757D01*
X104993428Y-16771185D01*
X104964857Y-16714042D01*
X104964857Y-16571185D01*
X104993428Y-16514042D01*
X105022000Y-16485471D01*
X105079142Y-16456900D01*
X105193428Y-16456900D01*
X105250571Y-16485471D01*
X105279142Y-16514042D01*
X105307714Y-16571185D01*
G04 #@! TO.C,R25*
D16*
X65113740Y-5235202D02*
X64637550Y-4901869D01*
X65113740Y-4663774D02*
X64113740Y-4663774D01*
X64113740Y-5044726D01*
X64161360Y-5139964D01*
X64208979Y-5187583D01*
X64304217Y-5235202D01*
X64447074Y-5235202D01*
X64542312Y-5187583D01*
X64589931Y-5139964D01*
X64637550Y-5044726D01*
X64637550Y-4663774D01*
X64208979Y-5616155D02*
X64161360Y-5663774D01*
X64113740Y-5759012D01*
X64113740Y-5997107D01*
X64161360Y-6092345D01*
X64208979Y-6139964D01*
X64304217Y-6187583D01*
X64399455Y-6187583D01*
X64542312Y-6139964D01*
X65113740Y-5568536D01*
X65113740Y-6187583D01*
X64113740Y-7092345D02*
X64113740Y-6616155D01*
X64589931Y-6568536D01*
X64542312Y-6616155D01*
X64494693Y-6711393D01*
X64494693Y-6949488D01*
X64542312Y-7044726D01*
X64589931Y-7092345D01*
X64685169Y-7139964D01*
X64923264Y-7139964D01*
X65018502Y-7092345D01*
X65066121Y-7044726D01*
X65113740Y-6949488D01*
X65113740Y-6711393D01*
X65066121Y-6616155D01*
X65018502Y-6568536D01*
G04 #@! TO.C,R24*
X60157460Y-2310322D02*
X59681270Y-1976989D01*
X60157460Y-1738894D02*
X59157460Y-1738894D01*
X59157460Y-2119846D01*
X59205080Y-2215084D01*
X59252699Y-2262703D01*
X59347937Y-2310322D01*
X59490794Y-2310322D01*
X59586032Y-2262703D01*
X59633651Y-2215084D01*
X59681270Y-2119846D01*
X59681270Y-1738894D01*
X59252699Y-2691275D02*
X59205080Y-2738894D01*
X59157460Y-2834132D01*
X59157460Y-3072227D01*
X59205080Y-3167465D01*
X59252699Y-3215084D01*
X59347937Y-3262703D01*
X59443175Y-3262703D01*
X59586032Y-3215084D01*
X60157460Y-2643656D01*
X60157460Y-3262703D01*
X59490794Y-4119846D02*
X60157460Y-4119846D01*
X59109841Y-3881751D02*
X59824127Y-3643656D01*
X59824127Y-4262703D01*
G04 #@! TO.C,R23*
X69367457Y-11266380D02*
X69700790Y-10790190D01*
X69938885Y-11266380D02*
X69938885Y-10266380D01*
X69557933Y-10266380D01*
X69462695Y-10314000D01*
X69415076Y-10361619D01*
X69367457Y-10456857D01*
X69367457Y-10599714D01*
X69415076Y-10694952D01*
X69462695Y-10742571D01*
X69557933Y-10790190D01*
X69938885Y-10790190D01*
X68986504Y-10361619D02*
X68938885Y-10314000D01*
X68843647Y-10266380D01*
X68605552Y-10266380D01*
X68510314Y-10314000D01*
X68462695Y-10361619D01*
X68415076Y-10456857D01*
X68415076Y-10552095D01*
X68462695Y-10694952D01*
X69034123Y-11266380D01*
X68415076Y-11266380D01*
X68081742Y-10266380D02*
X67462695Y-10266380D01*
X67796028Y-10647333D01*
X67653171Y-10647333D01*
X67557933Y-10694952D01*
X67510314Y-10742571D01*
X67462695Y-10837809D01*
X67462695Y-11075904D01*
X67510314Y-11171142D01*
X67557933Y-11218761D01*
X67653171Y-11266380D01*
X67938885Y-11266380D01*
X68034123Y-11218761D01*
X68081742Y-11171142D01*
G04 #@! TO.C,R22*
D11*
X69318385Y-15856404D02*
X69585052Y-15475452D01*
X69775528Y-15856404D02*
X69775528Y-15056404D01*
X69470766Y-15056404D01*
X69394576Y-15094500D01*
X69356480Y-15132595D01*
X69318385Y-15208785D01*
X69318385Y-15323071D01*
X69356480Y-15399261D01*
X69394576Y-15437357D01*
X69470766Y-15475452D01*
X69775528Y-15475452D01*
X69013623Y-15132595D02*
X68975528Y-15094500D01*
X68899338Y-15056404D01*
X68708861Y-15056404D01*
X68632671Y-15094500D01*
X68594576Y-15132595D01*
X68556480Y-15208785D01*
X68556480Y-15284976D01*
X68594576Y-15399261D01*
X69051719Y-15856404D01*
X68556480Y-15856404D01*
X68251719Y-15132595D02*
X68213623Y-15094500D01*
X68137433Y-15056404D01*
X67946957Y-15056404D01*
X67870766Y-15094500D01*
X67832671Y-15132595D01*
X67794576Y-15208785D01*
X67794576Y-15284976D01*
X67832671Y-15399261D01*
X68289814Y-15856404D01*
X67794576Y-15856404D01*
G04 #@! TO.C,R21*
D16*
X72898557Y-11279080D02*
X73231890Y-10802890D01*
X73469985Y-11279080D02*
X73469985Y-10279080D01*
X73089033Y-10279080D01*
X72993795Y-10326700D01*
X72946176Y-10374319D01*
X72898557Y-10469557D01*
X72898557Y-10612414D01*
X72946176Y-10707652D01*
X72993795Y-10755271D01*
X73089033Y-10802890D01*
X73469985Y-10802890D01*
X72517604Y-10374319D02*
X72469985Y-10326700D01*
X72374747Y-10279080D01*
X72136652Y-10279080D01*
X72041414Y-10326700D01*
X71993795Y-10374319D01*
X71946176Y-10469557D01*
X71946176Y-10564795D01*
X71993795Y-10707652D01*
X72565223Y-11279080D01*
X71946176Y-11279080D01*
X70993795Y-11279080D02*
X71565223Y-11279080D01*
X71279509Y-11279080D02*
X71279509Y-10279080D01*
X71374747Y-10421938D01*
X71469985Y-10517176D01*
X71565223Y-10564795D01*
G04 #@! TO.C,R20*
X73195997Y-22522940D02*
X73529330Y-22046750D01*
X73767425Y-22522940D02*
X73767425Y-21522940D01*
X73386473Y-21522940D01*
X73291235Y-21570560D01*
X73243616Y-21618179D01*
X73195997Y-21713417D01*
X73195997Y-21856274D01*
X73243616Y-21951512D01*
X73291235Y-21999131D01*
X73386473Y-22046750D01*
X73767425Y-22046750D01*
X72815044Y-21618179D02*
X72767425Y-21570560D01*
X72672187Y-21522940D01*
X72434092Y-21522940D01*
X72338854Y-21570560D01*
X72291235Y-21618179D01*
X72243616Y-21713417D01*
X72243616Y-21808655D01*
X72291235Y-21951512D01*
X72862663Y-22522940D01*
X72243616Y-22522940D01*
X71624568Y-21522940D02*
X71529330Y-21522940D01*
X71434092Y-21570560D01*
X71386473Y-21618179D01*
X71338854Y-21713417D01*
X71291235Y-21903893D01*
X71291235Y-22141988D01*
X71338854Y-22332464D01*
X71386473Y-22427702D01*
X71434092Y-22475321D01*
X71529330Y-22522940D01*
X71624568Y-22522940D01*
X71719806Y-22475321D01*
X71767425Y-22427702D01*
X71815044Y-22332464D01*
X71862663Y-22141988D01*
X71862663Y-21903893D01*
X71815044Y-21713417D01*
X71767425Y-21618179D01*
X71719806Y-21570560D01*
X71624568Y-21522940D01*
G04 #@! TO.C,R19*
X109892940Y-25813632D02*
X109416750Y-25480299D01*
X109892940Y-25242204D02*
X108892940Y-25242204D01*
X108892940Y-25623156D01*
X108940560Y-25718394D01*
X108988179Y-25766013D01*
X109083417Y-25813632D01*
X109226274Y-25813632D01*
X109321512Y-25766013D01*
X109369131Y-25718394D01*
X109416750Y-25623156D01*
X109416750Y-25242204D01*
X109892940Y-26766013D02*
X109892940Y-26194585D01*
X109892940Y-26480299D02*
X108892940Y-26480299D01*
X109035798Y-26385061D01*
X109131036Y-26289823D01*
X109178655Y-26194585D01*
X109892940Y-27242204D02*
X109892940Y-27432680D01*
X109845321Y-27527918D01*
X109797702Y-27575537D01*
X109654845Y-27670775D01*
X109464369Y-27718394D01*
X109083417Y-27718394D01*
X108988179Y-27670775D01*
X108940560Y-27623156D01*
X108892940Y-27527918D01*
X108892940Y-27337442D01*
X108940560Y-27242204D01*
X108988179Y-27194585D01*
X109083417Y-27146966D01*
X109321512Y-27146966D01*
X109416750Y-27194585D01*
X109464369Y-27242204D01*
X109511988Y-27337442D01*
X109511988Y-27527918D01*
X109464369Y-27623156D01*
X109416750Y-27670775D01*
X109321512Y-27718394D01*
G04 #@! TO.C,R18*
X75561657Y-25379880D02*
X75894990Y-24903690D01*
X76133085Y-25379880D02*
X76133085Y-24379880D01*
X75752133Y-24379880D01*
X75656895Y-24427500D01*
X75609276Y-24475119D01*
X75561657Y-24570357D01*
X75561657Y-24713214D01*
X75609276Y-24808452D01*
X75656895Y-24856071D01*
X75752133Y-24903690D01*
X76133085Y-24903690D01*
X74609276Y-25379880D02*
X75180704Y-25379880D01*
X74894990Y-25379880D02*
X74894990Y-24379880D01*
X74990228Y-24522738D01*
X75085466Y-24617976D01*
X75180704Y-24665595D01*
X74037847Y-24808452D02*
X74133085Y-24760833D01*
X74180704Y-24713214D01*
X74228323Y-24617976D01*
X74228323Y-24570357D01*
X74180704Y-24475119D01*
X74133085Y-24427500D01*
X74037847Y-24379880D01*
X73847371Y-24379880D01*
X73752133Y-24427500D01*
X73704514Y-24475119D01*
X73656895Y-24570357D01*
X73656895Y-24617976D01*
X73704514Y-24713214D01*
X73752133Y-24760833D01*
X73847371Y-24808452D01*
X74037847Y-24808452D01*
X74133085Y-24856071D01*
X74180704Y-24903690D01*
X74228323Y-24998928D01*
X74228323Y-25189404D01*
X74180704Y-25284642D01*
X74133085Y-25332261D01*
X74037847Y-25379880D01*
X73847371Y-25379880D01*
X73752133Y-25332261D01*
X73704514Y-25284642D01*
X73656895Y-25189404D01*
X73656895Y-24998928D01*
X73704514Y-24903690D01*
X73752133Y-24856071D01*
X73847371Y-24808452D01*
G04 #@! TO.C,R17*
X108257180Y-25813632D02*
X107780990Y-25480299D01*
X108257180Y-25242204D02*
X107257180Y-25242204D01*
X107257180Y-25623156D01*
X107304800Y-25718394D01*
X107352419Y-25766013D01*
X107447657Y-25813632D01*
X107590514Y-25813632D01*
X107685752Y-25766013D01*
X107733371Y-25718394D01*
X107780990Y-25623156D01*
X107780990Y-25242204D01*
X108257180Y-26766013D02*
X108257180Y-26194585D01*
X108257180Y-26480299D02*
X107257180Y-26480299D01*
X107400038Y-26385061D01*
X107495276Y-26289823D01*
X107542895Y-26194585D01*
X107257180Y-27099347D02*
X107257180Y-27766013D01*
X108257180Y-27337442D01*
G04 #@! TO.C,R16*
X63330660Y568697D02*
X62854470Y902030D01*
X63330660Y1140125D02*
X62330660Y1140125D01*
X62330660Y759173D01*
X62378280Y663935D01*
X62425899Y616316D01*
X62521137Y568697D01*
X62663994Y568697D01*
X62759232Y616316D01*
X62806851Y663935D01*
X62854470Y759173D01*
X62854470Y1140125D01*
X63330660Y-383683D02*
X63330660Y187744D01*
X63330660Y-97969D02*
X62330660Y-97969D01*
X62473518Y-2731D01*
X62568756Y92506D01*
X62616375Y187744D01*
X62330660Y-1240826D02*
X62330660Y-1050350D01*
X62378280Y-955112D01*
X62425899Y-907493D01*
X62568756Y-812255D01*
X62759232Y-764636D01*
X63140184Y-764636D01*
X63235422Y-812255D01*
X63283041Y-859874D01*
X63330660Y-955112D01*
X63330660Y-1145588D01*
X63283041Y-1240826D01*
X63235422Y-1288445D01*
X63140184Y-1336064D01*
X62902089Y-1336064D01*
X62806851Y-1288445D01*
X62759232Y-1240826D01*
X62711613Y-1145588D01*
X62711613Y-955112D01*
X62759232Y-859874D01*
X62806851Y-812255D01*
X62902089Y-764636D01*
G04 #@! TO.C,R15*
X125851500Y-10339642D02*
X125375310Y-10006309D01*
X125851500Y-9768214D02*
X124851500Y-9768214D01*
X124851500Y-10149166D01*
X124899120Y-10244404D01*
X124946739Y-10292023D01*
X125041977Y-10339642D01*
X125184834Y-10339642D01*
X125280072Y-10292023D01*
X125327691Y-10244404D01*
X125375310Y-10149166D01*
X125375310Y-9768214D01*
X125851500Y-11292023D02*
X125851500Y-10720595D01*
X125851500Y-11006309D02*
X124851500Y-11006309D01*
X124994358Y-10911071D01*
X125089596Y-10815833D01*
X125137215Y-10720595D01*
X124851500Y-12196785D02*
X124851500Y-11720595D01*
X125327691Y-11672976D01*
X125280072Y-11720595D01*
X125232453Y-11815833D01*
X125232453Y-12053928D01*
X125280072Y-12149166D01*
X125327691Y-12196785D01*
X125422929Y-12244404D01*
X125661024Y-12244404D01*
X125756262Y-12196785D01*
X125803881Y-12149166D01*
X125851500Y-12053928D01*
X125851500Y-11815833D01*
X125803881Y-11720595D01*
X125756262Y-11672976D01*
G04 #@! TO.C,R14*
X124446880Y-10340142D02*
X123970690Y-10006809D01*
X124446880Y-9768714D02*
X123446880Y-9768714D01*
X123446880Y-10149666D01*
X123494500Y-10244904D01*
X123542119Y-10292523D01*
X123637357Y-10340142D01*
X123780214Y-10340142D01*
X123875452Y-10292523D01*
X123923071Y-10244904D01*
X123970690Y-10149666D01*
X123970690Y-9768714D01*
X124446880Y-11292523D02*
X124446880Y-10721095D01*
X124446880Y-11006809D02*
X123446880Y-11006809D01*
X123589738Y-10911571D01*
X123684976Y-10816333D01*
X123732595Y-10721095D01*
X123780214Y-12149666D02*
X124446880Y-12149666D01*
X123399261Y-11911571D02*
X124113547Y-11673476D01*
X124113547Y-12292523D01*
G04 #@! TO.C,R13*
X122001100Y-10551602D02*
X121524910Y-10218269D01*
X122001100Y-9980174D02*
X121001100Y-9980174D01*
X121001100Y-10361126D01*
X121048720Y-10456364D01*
X121096339Y-10503983D01*
X121191577Y-10551602D01*
X121334434Y-10551602D01*
X121429672Y-10503983D01*
X121477291Y-10456364D01*
X121524910Y-10361126D01*
X121524910Y-9980174D01*
X122001100Y-11503983D02*
X122001100Y-10932555D01*
X122001100Y-11218269D02*
X121001100Y-11218269D01*
X121143958Y-11123031D01*
X121239196Y-11027793D01*
X121286815Y-10932555D01*
X121001100Y-11837317D02*
X121001100Y-12456364D01*
X121382053Y-12123031D01*
X121382053Y-12265888D01*
X121429672Y-12361126D01*
X121477291Y-12408745D01*
X121572529Y-12456364D01*
X121810624Y-12456364D01*
X121905862Y-12408745D01*
X121953481Y-12361126D01*
X122001100Y-12265888D01*
X122001100Y-11980174D01*
X121953481Y-11884936D01*
X121905862Y-11837317D01*
G04 #@! TO.C,R12*
X120413600Y-10552102D02*
X119937410Y-10218769D01*
X120413600Y-9980674D02*
X119413600Y-9980674D01*
X119413600Y-10361626D01*
X119461220Y-10456864D01*
X119508839Y-10504483D01*
X119604077Y-10552102D01*
X119746934Y-10552102D01*
X119842172Y-10504483D01*
X119889791Y-10456864D01*
X119937410Y-10361626D01*
X119937410Y-9980674D01*
X120413600Y-11504483D02*
X120413600Y-10933055D01*
X120413600Y-11218769D02*
X119413600Y-11218769D01*
X119556458Y-11123531D01*
X119651696Y-11028293D01*
X119699315Y-10933055D01*
X119508839Y-11885436D02*
X119461220Y-11933055D01*
X119413600Y-12028293D01*
X119413600Y-12266388D01*
X119461220Y-12361626D01*
X119508839Y-12409245D01*
X119604077Y-12456864D01*
X119699315Y-12456864D01*
X119842172Y-12409245D01*
X120413600Y-11837817D01*
X120413600Y-12456864D01*
G04 #@! TO.C,R11*
X118826100Y-10552102D02*
X118349910Y-10218769D01*
X118826100Y-9980674D02*
X117826100Y-9980674D01*
X117826100Y-10361626D01*
X117873720Y-10456864D01*
X117921339Y-10504483D01*
X118016577Y-10552102D01*
X118159434Y-10552102D01*
X118254672Y-10504483D01*
X118302291Y-10456864D01*
X118349910Y-10361626D01*
X118349910Y-9980674D01*
X118826100Y-11504483D02*
X118826100Y-10933055D01*
X118826100Y-11218769D02*
X117826100Y-11218769D01*
X117968958Y-11123531D01*
X118064196Y-11028293D01*
X118111815Y-10933055D01*
X118826100Y-12456864D02*
X118826100Y-11885436D01*
X118826100Y-12171150D02*
X117826100Y-12171150D01*
X117968958Y-12075912D01*
X118064196Y-11980674D01*
X118111815Y-11885436D01*
G04 #@! TO.C,R8*
X121312780Y-7733913D02*
X120836590Y-7400580D01*
X121312780Y-7162484D02*
X120312780Y-7162484D01*
X120312780Y-7543437D01*
X120360400Y-7638675D01*
X120408019Y-7686294D01*
X120503257Y-7733913D01*
X120646114Y-7733913D01*
X120741352Y-7686294D01*
X120788971Y-7638675D01*
X120836590Y-7543437D01*
X120836590Y-7162484D01*
X120741352Y-8305341D02*
X120693733Y-8210103D01*
X120646114Y-8162484D01*
X120550876Y-8114865D01*
X120503257Y-8114865D01*
X120408019Y-8162484D01*
X120360400Y-8210103D01*
X120312780Y-8305341D01*
X120312780Y-8495818D01*
X120360400Y-8591056D01*
X120408019Y-8638675D01*
X120503257Y-8686294D01*
X120550876Y-8686294D01*
X120646114Y-8638675D01*
X120693733Y-8591056D01*
X120741352Y-8495818D01*
X120741352Y-8305341D01*
X120788971Y-8210103D01*
X120836590Y-8162484D01*
X120931828Y-8114865D01*
X121122304Y-8114865D01*
X121217542Y-8162484D01*
X121265161Y-8210103D01*
X121312780Y-8305341D01*
X121312780Y-8495818D01*
X121265161Y-8591056D01*
X121217542Y-8638675D01*
X121122304Y-8686294D01*
X120931828Y-8686294D01*
X120836590Y-8638675D01*
X120788971Y-8591056D01*
X120741352Y-8495818D01*
G04 #@! TO.C,R5*
X69092686Y-18756120D02*
X69426020Y-18279930D01*
X69664115Y-18756120D02*
X69664115Y-17756120D01*
X69283162Y-17756120D01*
X69187924Y-17803740D01*
X69140305Y-17851359D01*
X69092686Y-17946597D01*
X69092686Y-18089454D01*
X69140305Y-18184692D01*
X69187924Y-18232311D01*
X69283162Y-18279930D01*
X69664115Y-18279930D01*
X68187924Y-17756120D02*
X68664115Y-17756120D01*
X68711734Y-18232311D01*
X68664115Y-18184692D01*
X68568877Y-18137073D01*
X68330781Y-18137073D01*
X68235543Y-18184692D01*
X68187924Y-18232311D01*
X68140305Y-18327549D01*
X68140305Y-18565644D01*
X68187924Y-18660882D01*
X68235543Y-18708501D01*
X68330781Y-18756120D01*
X68568877Y-18756120D01*
X68664115Y-18708501D01*
X68711734Y-18660882D01*
G04 #@! TO.C,R4*
X102896546Y-10689760D02*
X103229880Y-10213570D01*
X103467975Y-10689760D02*
X103467975Y-9689760D01*
X103087022Y-9689760D01*
X102991784Y-9737380D01*
X102944165Y-9784999D01*
X102896546Y-9880237D01*
X102896546Y-10023094D01*
X102944165Y-10118332D01*
X102991784Y-10165951D01*
X103087022Y-10213570D01*
X103467975Y-10213570D01*
X102039403Y-10023094D02*
X102039403Y-10689760D01*
X102277499Y-9642141D02*
X102515594Y-10356427D01*
X101896546Y-10356427D01*
G04 #@! TO.C,R2*
X103050180Y-2938393D02*
X102573990Y-2605060D01*
X103050180Y-2366964D02*
X102050180Y-2366964D01*
X102050180Y-2747917D01*
X102097800Y-2843155D01*
X102145419Y-2890774D01*
X102240657Y-2938393D01*
X102383514Y-2938393D01*
X102478752Y-2890774D01*
X102526371Y-2843155D01*
X102573990Y-2747917D01*
X102573990Y-2366964D01*
X102145419Y-3319345D02*
X102097800Y-3366964D01*
X102050180Y-3462202D01*
X102050180Y-3700298D01*
X102097800Y-3795536D01*
X102145419Y-3843155D01*
X102240657Y-3890774D01*
X102335895Y-3890774D01*
X102478752Y-3843155D01*
X103050180Y-3271726D01*
X103050180Y-3890774D01*
G04 #@! TO.C,Q1*
D11*
X107488211Y-19603637D02*
X107459640Y-19546494D01*
X107402497Y-19489351D01*
X107316782Y-19403637D01*
X107288211Y-19346494D01*
X107288211Y-19289351D01*
X107431068Y-19317922D02*
X107402497Y-19260780D01*
X107345354Y-19203637D01*
X107231068Y-19175065D01*
X107031068Y-19175065D01*
X106916782Y-19203637D01*
X106859640Y-19260780D01*
X106831068Y-19317922D01*
X106831068Y-19432208D01*
X106859640Y-19489351D01*
X106916782Y-19546494D01*
X107031068Y-19575065D01*
X107231068Y-19575065D01*
X107345354Y-19546494D01*
X107402497Y-19489351D01*
X107431068Y-19432208D01*
X107431068Y-19317922D01*
X107431068Y-20146494D02*
X107431068Y-19803637D01*
X107431068Y-19975065D02*
X106831068Y-19975065D01*
X106916782Y-19917922D01*
X106973925Y-19860780D01*
X107002497Y-19803637D01*
G04 #@! TO.C,D2*
X60937368Y-25176082D02*
X60337368Y-25176082D01*
X60337368Y-25318940D01*
X60365940Y-25404654D01*
X60423082Y-25461797D01*
X60480225Y-25490368D01*
X60594511Y-25518940D01*
X60680225Y-25518940D01*
X60794511Y-25490368D01*
X60851654Y-25461797D01*
X60908797Y-25404654D01*
X60937368Y-25318940D01*
X60937368Y-25176082D01*
X60394511Y-25747511D02*
X60365940Y-25776082D01*
X60337368Y-25833225D01*
X60337368Y-25976082D01*
X60365940Y-26033225D01*
X60394511Y-26061797D01*
X60451654Y-26090368D01*
X60508797Y-26090368D01*
X60594511Y-26061797D01*
X60937368Y-25718940D01*
X60937368Y-26090368D01*
G04 #@! TO.C,D1*
X61892408Y-25206562D02*
X61292408Y-25206562D01*
X61292408Y-25349420D01*
X61320980Y-25435134D01*
X61378122Y-25492277D01*
X61435265Y-25520848D01*
X61549551Y-25549420D01*
X61635265Y-25549420D01*
X61749551Y-25520848D01*
X61806694Y-25492277D01*
X61863837Y-25435134D01*
X61892408Y-25349420D01*
X61892408Y-25206562D01*
X61892408Y-26120848D02*
X61892408Y-25777991D01*
X61892408Y-25949420D02*
X61292408Y-25949420D01*
X61378122Y-25892277D01*
X61435265Y-25835134D01*
X61463837Y-25777991D01*
G04 #@! TO.C,C24*
D16*
X106068982Y-25813632D02*
X106116601Y-25766013D01*
X106164220Y-25623156D01*
X106164220Y-25527918D01*
X106116601Y-25385061D01*
X106021363Y-25289823D01*
X105926125Y-25242204D01*
X105735649Y-25194585D01*
X105592792Y-25194585D01*
X105402316Y-25242204D01*
X105307078Y-25289823D01*
X105211840Y-25385061D01*
X105164220Y-25527918D01*
X105164220Y-25623156D01*
X105211840Y-25766013D01*
X105259459Y-25813632D01*
X105259459Y-26194585D02*
X105211840Y-26242204D01*
X105164220Y-26337442D01*
X105164220Y-26575537D01*
X105211840Y-26670775D01*
X105259459Y-26718394D01*
X105354697Y-26766013D01*
X105449935Y-26766013D01*
X105592792Y-26718394D01*
X106164220Y-26146966D01*
X106164220Y-26766013D01*
X105497554Y-27623156D02*
X106164220Y-27623156D01*
X105116601Y-27385061D02*
X105830887Y-27146966D01*
X105830887Y-27766013D01*
G04 #@! TO.C,C23*
X62141917Y-23974562D02*
X62189536Y-24022181D01*
X62332393Y-24069800D01*
X62427631Y-24069800D01*
X62570488Y-24022181D01*
X62665726Y-23926943D01*
X62713345Y-23831705D01*
X62760964Y-23641229D01*
X62760964Y-23498372D01*
X62713345Y-23307896D01*
X62665726Y-23212658D01*
X62570488Y-23117420D01*
X62427631Y-23069800D01*
X62332393Y-23069800D01*
X62189536Y-23117420D01*
X62141917Y-23165039D01*
X61760964Y-23165039D02*
X61713345Y-23117420D01*
X61618107Y-23069800D01*
X61380012Y-23069800D01*
X61284774Y-23117420D01*
X61237155Y-23165039D01*
X61189536Y-23260277D01*
X61189536Y-23355515D01*
X61237155Y-23498372D01*
X61808583Y-24069800D01*
X61189536Y-24069800D01*
X60856202Y-23069800D02*
X60237155Y-23069800D01*
X60570488Y-23450753D01*
X60427631Y-23450753D01*
X60332393Y-23498372D01*
X60284774Y-23545991D01*
X60237155Y-23641229D01*
X60237155Y-23879324D01*
X60284774Y-23974562D01*
X60332393Y-24022181D01*
X60427631Y-24069800D01*
X60713345Y-24069800D01*
X60808583Y-24022181D01*
X60856202Y-23974562D01*
G04 #@! TO.C,C22*
X86539922Y1178297D02*
X86587541Y1225916D01*
X86635160Y1368773D01*
X86635160Y1464011D01*
X86587541Y1606868D01*
X86492303Y1702106D01*
X86397065Y1749725D01*
X86206589Y1797344D01*
X86063732Y1797344D01*
X85873256Y1749725D01*
X85778018Y1702106D01*
X85682780Y1606868D01*
X85635160Y1464011D01*
X85635160Y1368773D01*
X85682780Y1225916D01*
X85730399Y1178297D01*
X85730399Y797344D02*
X85682780Y749725D01*
X85635160Y654487D01*
X85635160Y416392D01*
X85682780Y321154D01*
X85730399Y273535D01*
X85825637Y225916D01*
X85920875Y225916D01*
X86063732Y273535D01*
X86635160Y844963D01*
X86635160Y225916D01*
X85730399Y-155036D02*
X85682780Y-202655D01*
X85635160Y-297893D01*
X85635160Y-535988D01*
X85682780Y-631226D01*
X85730399Y-678845D01*
X85825637Y-726464D01*
X85920875Y-726464D01*
X86063732Y-678845D01*
X86635160Y-107417D01*
X86635160Y-726464D01*
G04 #@! TO.C,C21*
X90263862Y-2017762D02*
X90311481Y-1970143D01*
X90359100Y-1827286D01*
X90359100Y-1732048D01*
X90311481Y-1589191D01*
X90216243Y-1493953D01*
X90121005Y-1446334D01*
X89930529Y-1398715D01*
X89787672Y-1398715D01*
X89597196Y-1446334D01*
X89501958Y-1493953D01*
X89406720Y-1589191D01*
X89359100Y-1732048D01*
X89359100Y-1827286D01*
X89406720Y-1970143D01*
X89454339Y-2017762D01*
X89454339Y-2398715D02*
X89406720Y-2446334D01*
X89359100Y-2541572D01*
X89359100Y-2779667D01*
X89406720Y-2874905D01*
X89454339Y-2922524D01*
X89549577Y-2970143D01*
X89644815Y-2970143D01*
X89787672Y-2922524D01*
X90359100Y-2351096D01*
X90359100Y-2970143D01*
X90359100Y-3922524D02*
X90359100Y-3351096D01*
X90359100Y-3636810D02*
X89359100Y-3636810D01*
X89501958Y-3541572D01*
X89597196Y-3446334D01*
X89644815Y-3351096D01*
G04 #@! TO.C,C20*
X77584057Y-11120342D02*
X77631676Y-11167961D01*
X77774533Y-11215580D01*
X77869771Y-11215580D01*
X78012628Y-11167961D01*
X78107866Y-11072723D01*
X78155485Y-10977485D01*
X78203104Y-10787009D01*
X78203104Y-10644152D01*
X78155485Y-10453676D01*
X78107866Y-10358438D01*
X78012628Y-10263200D01*
X77869771Y-10215580D01*
X77774533Y-10215580D01*
X77631676Y-10263200D01*
X77584057Y-10310819D01*
X77203104Y-10310819D02*
X77155485Y-10263200D01*
X77060247Y-10215580D01*
X76822152Y-10215580D01*
X76726914Y-10263200D01*
X76679295Y-10310819D01*
X76631676Y-10406057D01*
X76631676Y-10501295D01*
X76679295Y-10644152D01*
X77250723Y-11215580D01*
X76631676Y-11215580D01*
X76012628Y-10215580D02*
X75917390Y-10215580D01*
X75822152Y-10263200D01*
X75774533Y-10310819D01*
X75726914Y-10406057D01*
X75679295Y-10596533D01*
X75679295Y-10834628D01*
X75726914Y-11025104D01*
X75774533Y-11120342D01*
X75822152Y-11167961D01*
X75917390Y-11215580D01*
X76012628Y-11215580D01*
X76107866Y-11167961D01*
X76155485Y-11120342D01*
X76203104Y-11025104D01*
X76250723Y-10834628D01*
X76250723Y-10596533D01*
X76203104Y-10406057D01*
X76155485Y-10310819D01*
X76107866Y-10263200D01*
X76012628Y-10215580D01*
G04 #@! TO.C,C19*
X77584057Y-12690908D02*
X77631676Y-12738527D01*
X77774533Y-12786146D01*
X77869771Y-12786146D01*
X78012628Y-12738527D01*
X78107866Y-12643289D01*
X78155485Y-12548051D01*
X78203104Y-12357575D01*
X78203104Y-12214718D01*
X78155485Y-12024242D01*
X78107866Y-11929004D01*
X78012628Y-11833766D01*
X77869771Y-11786146D01*
X77774533Y-11786146D01*
X77631676Y-11833766D01*
X77584057Y-11881385D01*
X76631676Y-12786146D02*
X77203104Y-12786146D01*
X76917390Y-12786146D02*
X76917390Y-11786146D01*
X77012628Y-11929004D01*
X77107866Y-12024242D01*
X77203104Y-12071861D01*
X76155485Y-12786146D02*
X75965009Y-12786146D01*
X75869771Y-12738527D01*
X75822152Y-12690908D01*
X75726914Y-12548051D01*
X75679295Y-12357575D01*
X75679295Y-11976623D01*
X75726914Y-11881385D01*
X75774533Y-11833766D01*
X75869771Y-11786146D01*
X76060247Y-11786146D01*
X76155485Y-11833766D01*
X76203104Y-11881385D01*
X76250723Y-11976623D01*
X76250723Y-12214718D01*
X76203104Y-12309956D01*
X76155485Y-12357575D01*
X76060247Y-12405194D01*
X75869771Y-12405194D01*
X75774533Y-12357575D01*
X75726914Y-12309956D01*
X75679295Y-12214718D01*
G04 #@! TO.C,C18*
X81438297Y-20047722D02*
X81485916Y-20095341D01*
X81628773Y-20142960D01*
X81724011Y-20142960D01*
X81866868Y-20095341D01*
X81962106Y-20000103D01*
X82009725Y-19904865D01*
X82057344Y-19714389D01*
X82057344Y-19571532D01*
X82009725Y-19381056D01*
X81962106Y-19285818D01*
X81866868Y-19190580D01*
X81724011Y-19142960D01*
X81628773Y-19142960D01*
X81485916Y-19190580D01*
X81438297Y-19238199D01*
X80485916Y-20142960D02*
X81057344Y-20142960D01*
X80771630Y-20142960D02*
X80771630Y-19142960D01*
X80866868Y-19285818D01*
X80962106Y-19381056D01*
X81057344Y-19428675D01*
X79914487Y-19571532D02*
X80009725Y-19523913D01*
X80057344Y-19476294D01*
X80104963Y-19381056D01*
X80104963Y-19333437D01*
X80057344Y-19238199D01*
X80009725Y-19190580D01*
X79914487Y-19142960D01*
X79724011Y-19142960D01*
X79628773Y-19190580D01*
X79581154Y-19238199D01*
X79533535Y-19333437D01*
X79533535Y-19381056D01*
X79581154Y-19476294D01*
X79628773Y-19523913D01*
X79724011Y-19571532D01*
X79914487Y-19571532D01*
X80009725Y-19619151D01*
X80057344Y-19666770D01*
X80104963Y-19762008D01*
X80104963Y-19952484D01*
X80057344Y-20047722D01*
X80009725Y-20095341D01*
X79914487Y-20142960D01*
X79724011Y-20142960D01*
X79628773Y-20095341D01*
X79581154Y-20047722D01*
X79533535Y-19952484D01*
X79533535Y-19762008D01*
X79581154Y-19666770D01*
X79628773Y-19619151D01*
X79724011Y-19571532D01*
G04 #@! TO.C,C17*
X78225197Y-18302742D02*
X78272816Y-18350361D01*
X78415673Y-18397980D01*
X78510911Y-18397980D01*
X78653768Y-18350361D01*
X78749006Y-18255123D01*
X78796625Y-18159885D01*
X78844244Y-17969409D01*
X78844244Y-17826552D01*
X78796625Y-17636076D01*
X78749006Y-17540838D01*
X78653768Y-17445600D01*
X78510911Y-17397980D01*
X78415673Y-17397980D01*
X78272816Y-17445600D01*
X78225197Y-17493219D01*
X77272816Y-18397980D02*
X77844244Y-18397980D01*
X77558530Y-18397980D02*
X77558530Y-17397980D01*
X77653768Y-17540838D01*
X77749006Y-17636076D01*
X77844244Y-17683695D01*
X76939482Y-17397980D02*
X76272816Y-17397980D01*
X76701387Y-18397980D01*
G04 #@! TO.C,C16*
X114203122Y-14108102D02*
X114250741Y-14060483D01*
X114298360Y-13917626D01*
X114298360Y-13822388D01*
X114250741Y-13679531D01*
X114155503Y-13584293D01*
X114060265Y-13536674D01*
X113869789Y-13489055D01*
X113726932Y-13489055D01*
X113536456Y-13536674D01*
X113441218Y-13584293D01*
X113345980Y-13679531D01*
X113298360Y-13822388D01*
X113298360Y-13917626D01*
X113345980Y-14060483D01*
X113393599Y-14108102D01*
X114298360Y-15060483D02*
X114298360Y-14489055D01*
X114298360Y-14774769D02*
X113298360Y-14774769D01*
X113441218Y-14679531D01*
X113536456Y-14584293D01*
X113584075Y-14489055D01*
X113298360Y-15917626D02*
X113298360Y-15727150D01*
X113345980Y-15631912D01*
X113393599Y-15584293D01*
X113536456Y-15489055D01*
X113726932Y-15441436D01*
X114107884Y-15441436D01*
X114203122Y-15489055D01*
X114250741Y-15536674D01*
X114298360Y-15631912D01*
X114298360Y-15822388D01*
X114250741Y-15917626D01*
X114203122Y-15965245D01*
X114107884Y-16012864D01*
X113869789Y-16012864D01*
X113774551Y-15965245D01*
X113726932Y-15917626D01*
X113679313Y-15822388D01*
X113679313Y-15631912D01*
X113726932Y-15536674D01*
X113774551Y-15489055D01*
X113869789Y-15441436D01*
G04 #@! TO.C,C15*
X112251342Y-25813632D02*
X112298961Y-25766013D01*
X112346580Y-25623156D01*
X112346580Y-25527918D01*
X112298961Y-25385061D01*
X112203723Y-25289823D01*
X112108485Y-25242204D01*
X111918009Y-25194585D01*
X111775152Y-25194585D01*
X111584676Y-25242204D01*
X111489438Y-25289823D01*
X111394200Y-25385061D01*
X111346580Y-25527918D01*
X111346580Y-25623156D01*
X111394200Y-25766013D01*
X111441819Y-25813632D01*
X112346580Y-26766013D02*
X112346580Y-26194585D01*
X112346580Y-26480299D02*
X111346580Y-26480299D01*
X111489438Y-26385061D01*
X111584676Y-26289823D01*
X111632295Y-26194585D01*
X111346580Y-27670775D02*
X111346580Y-27194585D01*
X111822771Y-27146966D01*
X111775152Y-27194585D01*
X111727533Y-27289823D01*
X111727533Y-27527918D01*
X111775152Y-27623156D01*
X111822771Y-27670775D01*
X111918009Y-27718394D01*
X112156104Y-27718394D01*
X112251342Y-27670775D01*
X112298961Y-27623156D01*
X112346580Y-27527918D01*
X112346580Y-27289823D01*
X112298961Y-27194585D01*
X112251342Y-27146966D01*
G04 #@! TO.C,C14*
X113871862Y-25813632D02*
X113919481Y-25766013D01*
X113967100Y-25623156D01*
X113967100Y-25527918D01*
X113919481Y-25385061D01*
X113824243Y-25289823D01*
X113729005Y-25242204D01*
X113538529Y-25194585D01*
X113395672Y-25194585D01*
X113205196Y-25242204D01*
X113109958Y-25289823D01*
X113014720Y-25385061D01*
X112967100Y-25527918D01*
X112967100Y-25623156D01*
X113014720Y-25766013D01*
X113062339Y-25813632D01*
X113967100Y-26766013D02*
X113967100Y-26194585D01*
X113967100Y-26480299D02*
X112967100Y-26480299D01*
X113109958Y-26385061D01*
X113205196Y-26289823D01*
X113252815Y-26194585D01*
X113300434Y-27623156D02*
X113967100Y-27623156D01*
X112919481Y-27385061D02*
X113633767Y-27146966D01*
X113633767Y-27766013D01*
G04 #@! TO.C,C12*
X101019462Y-22076082D02*
X101067081Y-22028463D01*
X101114700Y-21885606D01*
X101114700Y-21790368D01*
X101067081Y-21647511D01*
X100971843Y-21552273D01*
X100876605Y-21504654D01*
X100686129Y-21457035D01*
X100543272Y-21457035D01*
X100352796Y-21504654D01*
X100257558Y-21552273D01*
X100162320Y-21647511D01*
X100114700Y-21790368D01*
X100114700Y-21885606D01*
X100162320Y-22028463D01*
X100209939Y-22076082D01*
X101114700Y-23028463D02*
X101114700Y-22457035D01*
X101114700Y-22742749D02*
X100114700Y-22742749D01*
X100257558Y-22647511D01*
X100352796Y-22552273D01*
X100400415Y-22457035D01*
X100209939Y-23409416D02*
X100162320Y-23457035D01*
X100114700Y-23552273D01*
X100114700Y-23790368D01*
X100162320Y-23885606D01*
X100209939Y-23933225D01*
X100305177Y-23980844D01*
X100400415Y-23980844D01*
X100543272Y-23933225D01*
X101114700Y-23361797D01*
X101114700Y-23980844D01*
G04 #@! TO.C,C11*
X102248822Y-11804322D02*
X102296441Y-11756703D01*
X102344060Y-11613846D01*
X102344060Y-11518608D01*
X102296441Y-11375751D01*
X102201203Y-11280513D01*
X102105965Y-11232894D01*
X101915489Y-11185275D01*
X101772632Y-11185275D01*
X101582156Y-11232894D01*
X101486918Y-11280513D01*
X101391680Y-11375751D01*
X101344060Y-11518608D01*
X101344060Y-11613846D01*
X101391680Y-11756703D01*
X101439299Y-11804322D01*
X102344060Y-12756703D02*
X102344060Y-12185275D01*
X102344060Y-12470989D02*
X101344060Y-12470989D01*
X101486918Y-12375751D01*
X101582156Y-12280513D01*
X101629775Y-12185275D01*
X102344060Y-13709084D02*
X102344060Y-13137656D01*
X102344060Y-13423370D02*
X101344060Y-13423370D01*
X101486918Y-13328132D01*
X101582156Y-13232894D01*
X101629775Y-13137656D01*
G04 #@! TO.C,C10*
X103549302Y-11570642D02*
X103596921Y-11523023D01*
X103644540Y-11380166D01*
X103644540Y-11284928D01*
X103596921Y-11142071D01*
X103501683Y-11046833D01*
X103406445Y-10999214D01*
X103215969Y-10951595D01*
X103073112Y-10951595D01*
X102882636Y-10999214D01*
X102787398Y-11046833D01*
X102692160Y-11142071D01*
X102644540Y-11284928D01*
X102644540Y-11380166D01*
X102692160Y-11523023D01*
X102739779Y-11570642D01*
X103644540Y-12523023D02*
X103644540Y-11951595D01*
X103644540Y-12237309D02*
X102644540Y-12237309D01*
X102787398Y-12142071D01*
X102882636Y-12046833D01*
X102930255Y-11951595D01*
X102644540Y-13142071D02*
X102644540Y-13237309D01*
X102692160Y-13332547D01*
X102739779Y-13380166D01*
X102835017Y-13427785D01*
X103025493Y-13475404D01*
X103263588Y-13475404D01*
X103454064Y-13427785D01*
X103549302Y-13380166D01*
X103596921Y-13332547D01*
X103644540Y-13237309D01*
X103644540Y-13142071D01*
X103596921Y-13046833D01*
X103549302Y-12999214D01*
X103454064Y-12951595D01*
X103263588Y-12903976D01*
X103025493Y-12903976D01*
X102835017Y-12951595D01*
X102739779Y-12999214D01*
X102692160Y-13046833D01*
X102644540Y-13142071D01*
G04 #@! TO.C,C9*
X69146026Y-25658582D02*
X69193645Y-25706201D01*
X69336502Y-25753820D01*
X69431740Y-25753820D01*
X69574598Y-25706201D01*
X69669836Y-25610963D01*
X69717455Y-25515725D01*
X69765074Y-25325249D01*
X69765074Y-25182392D01*
X69717455Y-24991916D01*
X69669836Y-24896678D01*
X69574598Y-24801440D01*
X69431740Y-24753820D01*
X69336502Y-24753820D01*
X69193645Y-24801440D01*
X69146026Y-24849059D01*
X68669836Y-25753820D02*
X68479360Y-25753820D01*
X68384121Y-25706201D01*
X68336502Y-25658582D01*
X68241264Y-25515725D01*
X68193645Y-25325249D01*
X68193645Y-24944297D01*
X68241264Y-24849059D01*
X68288883Y-24801440D01*
X68384121Y-24753820D01*
X68574598Y-24753820D01*
X68669836Y-24801440D01*
X68717455Y-24849059D01*
X68765074Y-24944297D01*
X68765074Y-25182392D01*
X68717455Y-25277630D01*
X68669836Y-25325249D01*
X68574598Y-25372868D01*
X68384121Y-25372868D01*
X68288883Y-25325249D01*
X68241264Y-25277630D01*
X68193645Y-25182392D01*
G04 #@! TO.C,C8*
X104179222Y-25813633D02*
X104226841Y-25766014D01*
X104274460Y-25623157D01*
X104274460Y-25527919D01*
X104226841Y-25385061D01*
X104131603Y-25289823D01*
X104036365Y-25242204D01*
X103845889Y-25194585D01*
X103703032Y-25194585D01*
X103512556Y-25242204D01*
X103417318Y-25289823D01*
X103322080Y-25385061D01*
X103274460Y-25527919D01*
X103274460Y-25623157D01*
X103322080Y-25766014D01*
X103369699Y-25813633D01*
X103703032Y-26385061D02*
X103655413Y-26289823D01*
X103607794Y-26242204D01*
X103512556Y-26194585D01*
X103464937Y-26194585D01*
X103369699Y-26242204D01*
X103322080Y-26289823D01*
X103274460Y-26385061D01*
X103274460Y-26575538D01*
X103322080Y-26670776D01*
X103369699Y-26718395D01*
X103464937Y-26766014D01*
X103512556Y-26766014D01*
X103607794Y-26718395D01*
X103655413Y-26670776D01*
X103703032Y-26575538D01*
X103703032Y-26385061D01*
X103750651Y-26289823D01*
X103798270Y-26242204D01*
X103893508Y-26194585D01*
X104083984Y-26194585D01*
X104179222Y-26242204D01*
X104226841Y-26289823D01*
X104274460Y-26385061D01*
X104274460Y-26575538D01*
X104226841Y-26670776D01*
X104179222Y-26718395D01*
X104083984Y-26766014D01*
X103893508Y-26766014D01*
X103798270Y-26718395D01*
X103750651Y-26670776D01*
X103703032Y-26575538D01*
G04 #@! TO.C,C6*
X122660262Y-7713593D02*
X122707881Y-7665974D01*
X122755500Y-7523117D01*
X122755500Y-7427879D01*
X122707881Y-7285021D01*
X122612643Y-7189783D01*
X122517405Y-7142164D01*
X122326929Y-7094545D01*
X122184072Y-7094545D01*
X121993596Y-7142164D01*
X121898358Y-7189783D01*
X121803120Y-7285021D01*
X121755500Y-7427879D01*
X121755500Y-7523117D01*
X121803120Y-7665974D01*
X121850739Y-7713593D01*
X121755500Y-8570736D02*
X121755500Y-8380260D01*
X121803120Y-8285021D01*
X121850739Y-8237402D01*
X121993596Y-8142164D01*
X122184072Y-8094545D01*
X122565024Y-8094545D01*
X122660262Y-8142164D01*
X122707881Y-8189783D01*
X122755500Y-8285021D01*
X122755500Y-8475498D01*
X122707881Y-8570736D01*
X122660262Y-8618355D01*
X122565024Y-8665974D01*
X122326929Y-8665974D01*
X122231691Y-8618355D01*
X122184072Y-8570736D01*
X122136453Y-8475498D01*
X122136453Y-8285021D01*
X122184072Y-8189783D01*
X122231691Y-8142164D01*
X122326929Y-8094545D01*
G04 #@! TO.C,C4*
X102281866Y-14856642D02*
X102329485Y-14904261D01*
X102472342Y-14951880D01*
X102567580Y-14951880D01*
X102710438Y-14904261D01*
X102805676Y-14809023D01*
X102853295Y-14713785D01*
X102900914Y-14523309D01*
X102900914Y-14380452D01*
X102853295Y-14189976D01*
X102805676Y-14094738D01*
X102710438Y-13999500D01*
X102567580Y-13951880D01*
X102472342Y-13951880D01*
X102329485Y-13999500D01*
X102281866Y-14047119D01*
X101424723Y-14285214D02*
X101424723Y-14951880D01*
X101662819Y-13904261D02*
X101900914Y-14618547D01*
X101281866Y-14618547D01*
G04 #@! TO.C,C3*
X102446942Y-25813633D02*
X102494561Y-25766014D01*
X102542180Y-25623157D01*
X102542180Y-25527919D01*
X102494561Y-25385061D01*
X102399323Y-25289823D01*
X102304085Y-25242204D01*
X102113609Y-25194585D01*
X101970752Y-25194585D01*
X101780276Y-25242204D01*
X101685038Y-25289823D01*
X101589800Y-25385061D01*
X101542180Y-25527919D01*
X101542180Y-25623157D01*
X101589800Y-25766014D01*
X101637419Y-25813633D01*
X101542180Y-26146966D02*
X101542180Y-26766014D01*
X101923133Y-26432680D01*
X101923133Y-26575538D01*
X101970752Y-26670776D01*
X102018371Y-26718395D01*
X102113609Y-26766014D01*
X102351704Y-26766014D01*
X102446942Y-26718395D01*
X102494561Y-26670776D01*
X102542180Y-26575538D01*
X102542180Y-26289823D01*
X102494561Y-26194585D01*
X102446942Y-26146966D01*
G04 #@! TO.C,J5*
X62302293Y-21162260D02*
X62302293Y-21876546D01*
X62349912Y-22019403D01*
X62445150Y-22114641D01*
X62588007Y-22162260D01*
X62683245Y-22162260D01*
X61349912Y-21162260D02*
X61826102Y-21162260D01*
X61873721Y-21638451D01*
X61826102Y-21590832D01*
X61730864Y-21543213D01*
X61492769Y-21543213D01*
X61397531Y-21590832D01*
X61349912Y-21638451D01*
X61302293Y-21733689D01*
X61302293Y-21971784D01*
X61349912Y-22067022D01*
X61397531Y-22114641D01*
X61492769Y-22162260D01*
X61730864Y-22162260D01*
X61826102Y-22114641D01*
X61873721Y-22067022D01*
G04 #@! TO.C,SW2*
X125907213Y-5831381D02*
X125764356Y-5879000D01*
X125526260Y-5879000D01*
X125431022Y-5831381D01*
X125383403Y-5783762D01*
X125335784Y-5688524D01*
X125335784Y-5593286D01*
X125383403Y-5498048D01*
X125431022Y-5450429D01*
X125526260Y-5402810D01*
X125716737Y-5355191D01*
X125811975Y-5307572D01*
X125859594Y-5259953D01*
X125907213Y-5164715D01*
X125907213Y-5069477D01*
X125859594Y-4974239D01*
X125811975Y-4926620D01*
X125716737Y-4879000D01*
X125478641Y-4879000D01*
X125335784Y-4926620D01*
X125002451Y-4879000D02*
X124764356Y-5879000D01*
X124573880Y-5164715D01*
X124383403Y-5879000D01*
X124145308Y-4879000D01*
X123811975Y-4974239D02*
X123764356Y-4926620D01*
X123669118Y-4879000D01*
X123431022Y-4879000D01*
X123335784Y-4926620D01*
X123288165Y-4974239D01*
X123240546Y-5069477D01*
X123240546Y-5164715D01*
X123288165Y-5307572D01*
X123859594Y-5879000D01*
X123240546Y-5879000D01*
G04 #@! TD*
M02*
