G04 #@! TF.GenerationSoftware,KiCad,Pcbnew,(5.1.8)-1*
G04 #@! TF.CreationDate,2021-06-27T17:42:14+01:00*
G04 #@! TF.ProjectId,schem_1,73636865-6d5f-4312-9e6b-696361645f70,rev?*
G04 #@! TF.SameCoordinates,Original*
G04 #@! TF.FileFunction,Copper,L3,Inr*
G04 #@! TF.FilePolarity,Positive*
%FSLAX46Y46*%
G04 Gerber Fmt 4.6, Leading zero omitted, Abs format (unit mm)*
G04 Created by KiCad (PCBNEW (5.1.8)-1) date 2021-06-27 17:42:14*
%MOMM*%
%LPD*%
G01*
G04 APERTURE LIST*
G04 #@! TA.AperFunction,ComponentPad*
%ADD10C,2.500000*%
G04 #@! TD*
G04 #@! TA.AperFunction,ViaPad*
%ADD11C,0.800000*%
G04 #@! TD*
G04 #@! TA.AperFunction,ViaPad*
%ADD12C,0.400000*%
G04 #@! TD*
G04 #@! TA.AperFunction,Conductor*
%ADD13C,0.150000*%
G04 #@! TD*
G04 #@! TA.AperFunction,Conductor*
%ADD14C,0.250000*%
G04 #@! TD*
G04 #@! TA.AperFunction,Conductor*
%ADD15C,0.254000*%
G04 #@! TD*
G04 #@! TA.AperFunction,Conductor*
%ADD16C,0.100000*%
G04 #@! TD*
G04 APERTURE END LIST*
D10*
G04 #@! TO.N,GND*
G04 #@! TO.C,C2*
X68712800Y-27917200D03*
G04 #@! TO.N,Net-(C2-Pad1)*
X80712800Y-27917200D03*
G04 #@! TD*
D11*
G04 #@! TO.N,GND*
X90692800Y-29187200D03*
X90692800Y-26647200D03*
X90692800Y-24107200D03*
X90692800Y-21567200D03*
X90692800Y-19027200D03*
X90692800Y-16487200D03*
X90692800Y-13947200D03*
X90692800Y-11407200D03*
X90692800Y-8867200D03*
X90692800Y-6327200D03*
X90692800Y-3787200D03*
X90692800Y-1247200D03*
X89422800Y2562800D03*
X86882800Y2562800D03*
X84342800Y2562800D03*
X59577800Y-1247200D03*
X59577800Y-3787200D03*
X59577800Y-6962200D03*
X59577800Y-9502200D03*
X59577800Y-14582200D03*
X64657800Y1927800D03*
X62117800Y1927800D03*
X59577800Y1927800D03*
X126732880Y2444840D03*
X96125880Y-24402960D03*
X98665880Y-24402960D03*
X101205880Y-24402960D03*
X103745880Y-24402960D03*
X106285880Y-24402960D03*
X108825880Y-24402960D03*
X111365880Y-24402960D03*
X113905880Y-24402960D03*
X116445880Y-24402960D03*
X118985880Y-24402960D03*
X121525880Y-24402960D03*
X124065880Y-24402960D03*
X94919380Y-25660260D03*
X94932080Y-29089260D03*
X126732880Y-95160D03*
X126732880Y-7715160D03*
X126732880Y-12795160D03*
X126732880Y-15335160D03*
X126732880Y-17875160D03*
X126732880Y-20415160D03*
X126732880Y-22955160D03*
X126732880Y-25495160D03*
X126732880Y-28035160D03*
X107454280Y-2838360D03*
X108165480Y-869860D03*
X110730880Y-869860D03*
X113296280Y-869860D03*
X115861680Y-869860D03*
X117538080Y-2660560D03*
X109501520Y-13702802D03*
X112564760Y-6087020D03*
D12*
X98239669Y-17548519D03*
X100484084Y-13493352D03*
D11*
X126885280Y-10354220D03*
X94830480Y-22180460D03*
X95465480Y2584540D03*
X98005480Y2584540D03*
X100545480Y2584540D03*
X103085480Y2584540D03*
X117690480Y2584540D03*
X120865480Y2584540D03*
X123405480Y2584540D03*
X94830480Y-6940460D03*
X115150480Y2584540D03*
X110070480Y2584540D03*
X108165480Y2584540D03*
X110070480Y679540D03*
X114515480Y679540D03*
X73906200Y-28068200D03*
X75036500Y-26544200D03*
X64724100Y-28360300D03*
X79811700Y-4865300D03*
X80027600Y-19825900D03*
X59577800Y-17122200D03*
X59577800Y-19027200D03*
X59577800Y-23472200D03*
X59577800Y-26012200D03*
X83072800Y-28552200D03*
X85612800Y-28552200D03*
D12*
X98510680Y-14358660D03*
D11*
X71734500Y-4168200D03*
G04 #@! TO.N,+3V3*
X123898240Y-15088780D03*
X112851780Y-11131460D03*
X97980080Y-1619160D03*
X107273506Y-17189794D03*
X107002160Y-20620900D03*
X123273400Y-18172340D03*
X124166980Y-14246000D03*
X111833499Y-6769120D03*
X97609240Y-14743340D03*
X104446920Y-2246540D03*
X123212440Y-11553100D03*
X84404020Y-17778660D03*
X84362867Y-16232851D03*
X63479500Y-1042600D03*
X61561800Y-9831000D03*
X74007800Y-5436800D03*
X73144200Y-5449500D03*
X72267900Y-5424100D03*
X79025400Y-12218600D03*
X74655500Y-17158900D03*
X70655000Y-13133000D03*
X84429420Y-16940460D03*
D12*
G04 #@! TO.N,/CSI_PCLK*
X100977280Y-20846960D03*
X98665880Y-19449960D03*
G04 #@! TO.N,/CAM_RST*
X97306980Y-5628458D03*
X97535580Y-10535660D03*
D11*
G04 #@! TO.N,/ESP32_RST*
X122097380Y-17138560D03*
G04 #@! TO.N,+2V8*
X100941720Y-10323740D03*
D12*
G04 #@! TO.N,+1V2*
X110565780Y-20783457D03*
X110565780Y-20275460D03*
X103534515Y-14371757D03*
X97164760Y-13523460D03*
X103768480Y-14790460D03*
X97532661Y-13812679D03*
D11*
G04 #@! TO.N,Net-(C17-Pad1)*
X80141900Y-16041300D03*
G04 #@! TO.N,Net-(C17-Pad2)*
X79037000Y-14669700D03*
G04 #@! TO.N,Net-(C18-Pad2)*
X83037500Y-13590200D03*
G04 #@! TO.N,Net-(C18-Pad1)*
X82312500Y-14618900D03*
G04 #@! TO.N,Net-(C21-Pad1)*
X84929800Y-4966900D03*
G04 #@! TO.N,Net-(C22-Pad1)*
X84269400Y-3519100D03*
G04 #@! TO.N,Net-(D3-Pad2)*
X68927800Y-1601400D03*
G04 #@! TO.N,Net-(D4-Pad2)*
X66819600Y-3760400D03*
D12*
G04 #@! TO.N,/CSI_D2*
X95922680Y-19523460D03*
X100926480Y-14801760D03*
G04 #@! TO.N,/CSI_D1*
X101023831Y-12512859D03*
X97395880Y-19335660D03*
X97873996Y-13018351D03*
G04 #@! TO.N,/CSI_D3*
X100913780Y-17621160D03*
X97124070Y-18789560D03*
G04 #@! TO.N,Net-(J1-Pad6)*
X96646580Y-18332360D03*
X106463680Y-17011560D03*
X106870080Y-10176420D03*
G04 #@! TO.N,/CSI_D4*
X118782680Y-19221360D03*
X98096410Y-19638920D03*
G04 #@! TO.N,/CSI_D5*
X98665880Y-18474630D03*
X116239880Y-18270260D03*
G04 #@! TO.N,/CSI_D6*
X118655680Y-16478160D03*
X98635400Y-16511180D03*
G04 #@! TO.N,/CSI_MCLK*
X96143980Y-15048460D03*
X100723280Y-6483260D03*
G04 #@! TO.N,/CSI_D7*
X118363580Y-15373260D03*
X98612280Y-15527060D03*
G04 #@! TO.N,Net-(J1-Pad17)*
X99897780Y-5467260D03*
X98088030Y-11595010D03*
G04 #@! TO.N,/CSI_VSYNC*
X118642980Y-11626760D03*
X101155080Y-13112660D03*
G04 #@! TO.N,/TWI_SCK*
X118693780Y-9213760D03*
X100799480Y-11360060D03*
G04 #@! TO.N,/TWI_SDA*
X100888380Y-9378860D03*
X112671440Y-10003700D03*
D11*
G04 #@! TO.N,/HS2_DATA1*
X115901700Y-6838860D03*
G04 #@! TO.N,/HS2_DATA0*
X107809880Y-5162460D03*
G04 #@! TO.N,/HS2_CLK*
X113588380Y-6673760D03*
G04 #@! TO.N,/HS2_CMD*
X110667380Y-6724560D03*
G04 #@! TO.N,/HS2_DATA3*
X110959480Y-5606960D03*
G04 #@! TO.N,/HS2_DATA2*
X113829680Y-5162460D03*
D12*
G04 #@! TO.N,/SCL*
X103872880Y-15766960D03*
D11*
X75569900Y-10199300D03*
X82834300Y-11189900D03*
G04 #@! TO.N,/U0TXD*
X117957180Y-17187460D03*
X104697966Y-20138300D03*
D12*
G04 #@! TO.N,/CSI_D0*
X104190380Y-11144160D03*
G04 #@! TO.N,/CAM_PWR*
X110451480Y-21558160D03*
D11*
G04 #@! TO.N,/I2C OLED/OLED_RESET*
X77030400Y-10389800D03*
G04 #@! TO.N,Net-(R21-Pad1)*
X73080702Y-10046900D03*
G04 #@! TO.N,/GPIO Expander/Vusb_detect*
X69931100Y-10681900D03*
X77868600Y-2858700D03*
G04 #@! TO.N,/GPIO Expander/LED_RECORDING*
X71442400Y-2338000D03*
X66857700Y-2274500D03*
D12*
G04 #@! TO.N,/SDA*
X118782680Y-12833260D03*
X101040780Y-13717160D03*
D11*
X74287200Y-10427900D03*
X82470639Y-9004168D03*
G04 #@! TO.N,/GPIO Expander/BTN_DOWN*
X80192700Y-1322000D03*
X69232600Y-21616600D03*
G04 #@! TO.N,/GPIO Expander/BTN_UP*
X81284900Y-1614100D03*
X84269400Y-22302400D03*
G04 #@! TO.N,/GPIO Expander/BTN_OK*
X78300400Y-21476900D03*
X80281600Y-2947600D03*
G04 #@! TO.N,/5V_USB_SC*
X117883171Y-14054651D03*
X100897478Y-19284860D03*
D12*
X105116221Y-18610114D03*
D11*
X63339800Y-19326618D03*
X84790100Y-19079140D03*
X83977300Y-19079140D03*
X83151800Y-19079140D03*
X66654500Y-14212500D03*
X64711400Y-26950600D03*
X67657800Y-25794900D03*
D12*
X104200280Y-18602560D03*
X104657480Y-18600454D03*
G04 #@! TD*
D13*
G04 #@! TO.N,/CSI_PCLK*
X100977280Y-20846960D02*
X100062880Y-20846960D01*
X100062880Y-20846960D02*
X98665880Y-19449960D01*
G04 #@! TO.N,/CAM_RST*
X97535580Y-5857058D02*
X97306980Y-5628458D01*
X97535580Y-10535660D02*
X97535580Y-5857058D01*
G04 #@! TO.N,+1V2*
X97434352Y-13795612D02*
X97162200Y-13523460D01*
X103768480Y-14605722D02*
X103603640Y-14440882D01*
X103768480Y-14790460D02*
X103768480Y-14605722D01*
X99257679Y-14326759D02*
X103489517Y-14326759D01*
X103489517Y-14326759D02*
X103534515Y-14371757D01*
X97532661Y-13812679D02*
X98759468Y-13828548D01*
X98759468Y-13828548D02*
X99257679Y-14326759D01*
G04 #@! TO.N,/CSI_D2*
X100726481Y-15001759D02*
X100926480Y-14801760D01*
X98400981Y-15001759D02*
X100726481Y-15001759D01*
X95922680Y-19523460D02*
X95922680Y-17480060D01*
X95922680Y-17480060D02*
X98400981Y-15001759D01*
G04 #@! TO.N,/CSI_D1*
X98156838Y-13018351D02*
X97873996Y-13018351D01*
X100518338Y-13018352D02*
X98156838Y-13018351D01*
X101023831Y-12512859D02*
X100518338Y-13018352D01*
G04 #@! TO.N,/CSI_D3*
X97616860Y-18789560D02*
X97124070Y-18789560D01*
X98406800Y-17999620D02*
X97616860Y-18789560D01*
X100535320Y-17999620D02*
X98406800Y-17999620D01*
X100913780Y-17621160D02*
X100535320Y-17999620D01*
G04 #@! TO.N,Net-(J1-Pad6)*
X97967380Y-17011560D02*
X96646580Y-18332360D01*
X106463680Y-17011560D02*
X97967380Y-17011560D01*
G04 #@! TO.N,/CSI_D4*
X110400680Y-19221360D02*
X118782680Y-19221360D01*
X108142620Y-21479420D02*
X110400680Y-19221360D01*
X99676800Y-21479420D02*
X108142620Y-21479420D01*
X98096410Y-19899030D02*
X99676800Y-21479420D01*
X98096410Y-19638920D02*
X98096410Y-19899030D01*
G04 #@! TO.N,/CSI_D5*
X101642760Y-17882780D02*
X112804400Y-17882780D01*
X101050910Y-18474630D02*
X101642760Y-17882780D01*
X98665880Y-18474630D02*
X101050910Y-18474630D01*
X113617200Y-17882780D02*
X114055480Y-18321060D01*
X112804400Y-17882780D02*
X113617200Y-17882780D01*
X116189080Y-18321060D02*
X116239880Y-18270260D01*
X114055480Y-18321060D02*
X116189080Y-18321060D01*
G04 #@! TO.N,/CSI_D6*
X118655680Y-16478160D02*
X98668420Y-16478160D01*
X98668420Y-16478160D02*
X98635400Y-16511180D01*
G04 #@! TO.N,/CSI_MCLK*
X99986680Y-7219860D02*
X100723280Y-6483260D01*
X99970862Y-10415180D02*
X99986680Y-10415180D01*
X98269062Y-12116980D02*
X99970862Y-10415180D01*
X99986680Y-10415180D02*
X99986680Y-7219860D01*
X97101240Y-12116980D02*
X98269062Y-12116980D01*
X96313840Y-12904380D02*
X97101240Y-12116980D01*
X96313840Y-14878600D02*
X96313840Y-12904380D01*
X96143980Y-15048460D02*
X96313840Y-14878600D01*
G04 #@! TO.N,/CSI_D7*
X100889520Y-15527060D02*
X98612280Y-15527060D01*
X101150000Y-15266580D02*
X100889520Y-15527060D01*
X118363580Y-15373260D02*
X118256900Y-15266580D01*
X118256900Y-15266580D02*
X101150000Y-15266580D01*
G04 #@! TO.N,Net-(J1-Pad17)*
X98526180Y-6838860D02*
X99897780Y-5467260D01*
X98526180Y-11156860D02*
X98526180Y-6838860D01*
X98080580Y-11602460D02*
X98088030Y-11595010D01*
X98088030Y-11595010D02*
X98526180Y-11156860D01*
G04 #@! TO.N,/CSI_VSYNC*
X118642980Y-11626760D02*
X117466960Y-12802780D01*
X101355079Y-12912661D02*
X101155080Y-13112660D01*
X110047553Y-12677781D02*
X101589959Y-12677781D01*
X101589959Y-12677781D02*
X101355079Y-12912661D01*
X110172552Y-12802780D02*
X110047553Y-12677781D01*
X117466960Y-12802780D02*
X110172552Y-12802780D01*
G04 #@! TO.N,/TWI_SCK*
X102971180Y-11360060D02*
X100799480Y-11360060D01*
X103425179Y-11814059D02*
X102971180Y-11360060D01*
X116093481Y-11814059D02*
X103425179Y-11814059D01*
X118693780Y-9213760D02*
X116093481Y-11814059D01*
G04 #@! TO.N,/TWI_SDA*
X100888380Y-9378860D02*
X112046600Y-9378860D01*
X112046600Y-9378860D02*
X112671440Y-10003700D01*
D14*
G04 #@! TO.N,/U0TXD*
X106204600Y-20138300D02*
X104697966Y-20138300D01*
X107539319Y-18803581D02*
X106204600Y-20138300D01*
X117272599Y-18803581D02*
X107539319Y-18803581D01*
X117957180Y-18119000D02*
X117272599Y-18803581D01*
X117957180Y-17187460D02*
X117957180Y-18119000D01*
G04 #@! TO.N,/GPIO Expander/Vusb_detect*
X69931100Y-10681900D02*
X77754300Y-2858700D01*
X77754300Y-2858700D02*
X77868600Y-2858700D01*
G04 #@! TO.N,/GPIO Expander/LED_RECORDING*
X66921200Y-2338000D02*
X66857700Y-2274500D01*
X71442400Y-2338000D02*
X66921200Y-2338000D01*
D13*
G04 #@! TO.N,/SDA*
X118447400Y-13168540D02*
X118582681Y-13033259D01*
X118582681Y-13033259D02*
X118782680Y-12833260D01*
X110043322Y-13168540D02*
X118447400Y-13168540D01*
X106448460Y-13717160D02*
X107137828Y-13027792D01*
X109902574Y-13027792D02*
X110043322Y-13168540D01*
X101040780Y-13717160D02*
X106448460Y-13717160D01*
X107137828Y-13027792D02*
X109902574Y-13027792D01*
D14*
G04 #@! TO.N,/GPIO Expander/BTN_DOWN*
X69232600Y-12598190D02*
X69232600Y-21616600D01*
X80192700Y-1638090D02*
X69232600Y-12598190D01*
X80192700Y-1322000D02*
X80192700Y-1638090D01*
G04 #@! TO.N,/GPIO Expander/BTN_UP*
X81284900Y-19317900D02*
X84269400Y-22302400D01*
X81284900Y-1614100D02*
X81284900Y-19317900D01*
G04 #@! TO.N,/GPIO Expander/BTN_OK*
X79862500Y-2947600D02*
X80281600Y-2947600D01*
X78300400Y-4509700D02*
X79862500Y-2947600D01*
X78300400Y-21476900D02*
X78300400Y-4509700D01*
G04 #@! TD*
D15*
G04 #@! TO.N,GND*
X127506481Y-30041051D02*
X94373880Y-30043530D01*
X94373880Y-28437259D01*
X94371845Y-28416598D01*
X94371845Y-28403619D01*
X94371253Y-28397981D01*
X94349498Y-28204032D01*
X94341838Y-28167995D01*
X94334699Y-28131940D01*
X94333023Y-28126524D01*
X94274010Y-27940494D01*
X94259501Y-27906643D01*
X94245491Y-27872653D01*
X94242795Y-27867666D01*
X94242795Y-27867665D01*
X94242792Y-27867661D01*
X94148773Y-27696641D01*
X94137407Y-27680042D01*
X94208010Y-27609439D01*
X94277065Y-27506091D01*
X94324631Y-27391256D01*
X94340506Y-27311443D01*
X95481480Y-27311443D01*
X95481480Y-27583477D01*
X95534551Y-27850283D01*
X95638654Y-28101609D01*
X95789787Y-28327796D01*
X95982144Y-28520153D01*
X96208331Y-28671286D01*
X96459657Y-28775389D01*
X96726463Y-28828460D01*
X96998497Y-28828460D01*
X97265303Y-28775389D01*
X97516629Y-28671286D01*
X97742816Y-28520153D01*
X97935173Y-28327796D01*
X98086306Y-28101609D01*
X98190409Y-27850283D01*
X98243480Y-27583477D01*
X98243480Y-27311443D01*
X123481480Y-27311443D01*
X123481480Y-27583477D01*
X123534551Y-27850283D01*
X123638654Y-28101609D01*
X123789787Y-28327796D01*
X123982144Y-28520153D01*
X124208331Y-28671286D01*
X124459657Y-28775389D01*
X124726463Y-28828460D01*
X124998497Y-28828460D01*
X125265303Y-28775389D01*
X125516629Y-28671286D01*
X125742816Y-28520153D01*
X125935173Y-28327796D01*
X126086306Y-28101609D01*
X126190409Y-27850283D01*
X126243480Y-27583477D01*
X126243480Y-27311443D01*
X126190409Y-27044637D01*
X126086306Y-26793311D01*
X125935173Y-26567124D01*
X125742816Y-26374767D01*
X125516629Y-26223634D01*
X125265303Y-26119531D01*
X124998497Y-26066460D01*
X124726463Y-26066460D01*
X124459657Y-26119531D01*
X124208331Y-26223634D01*
X123982144Y-26374767D01*
X123789787Y-26567124D01*
X123638654Y-26793311D01*
X123534551Y-27044637D01*
X123481480Y-27311443D01*
X98243480Y-27311443D01*
X98190409Y-27044637D01*
X98086306Y-26793311D01*
X97935173Y-26567124D01*
X97742816Y-26374767D01*
X97516629Y-26223634D01*
X97265303Y-26119531D01*
X96998497Y-26066460D01*
X96726463Y-26066460D01*
X96459657Y-26119531D01*
X96208331Y-26223634D01*
X95982144Y-26374767D01*
X95789787Y-26567124D01*
X95638654Y-26793311D01*
X95534551Y-27044637D01*
X95481480Y-27311443D01*
X94340506Y-27311443D01*
X94348880Y-27269348D01*
X94348880Y-27145052D01*
X94324631Y-27023144D01*
X94277065Y-26908309D01*
X94226211Y-26832200D01*
X94277065Y-26756091D01*
X94324631Y-26641256D01*
X94348880Y-26519348D01*
X94348880Y-26395052D01*
X94324631Y-26273144D01*
X94277065Y-26158309D01*
X94226211Y-26082200D01*
X94277065Y-26006091D01*
X94324631Y-25891256D01*
X94348880Y-25769348D01*
X94348880Y-25645052D01*
X94324631Y-25523144D01*
X94277065Y-25408309D01*
X94208010Y-25304961D01*
X94137337Y-25234288D01*
X94156581Y-25206184D01*
X94159275Y-25201202D01*
X94159278Y-25201198D01*
X94159280Y-25201194D01*
X94250903Y-25028875D01*
X94264926Y-24994852D01*
X94279421Y-24961032D01*
X94281098Y-24955617D01*
X94337507Y-24768780D01*
X94344666Y-24732625D01*
X94352304Y-24696691D01*
X94352896Y-24691062D01*
X94352898Y-24691052D01*
X94352898Y-24691043D01*
X94371942Y-24496820D01*
X94371942Y-24496818D01*
X94373880Y-24477141D01*
X94373880Y-20437259D01*
X94371845Y-20416598D01*
X94371845Y-20403619D01*
X94371253Y-20397981D01*
X94349498Y-20204032D01*
X94341838Y-20167995D01*
X94334699Y-20131940D01*
X94333023Y-20126524D01*
X94274010Y-19940494D01*
X94259501Y-19906643D01*
X94245491Y-19872653D01*
X94242795Y-19867666D01*
X94242795Y-19867665D01*
X94242792Y-19867661D01*
X94148773Y-19696641D01*
X94137407Y-19680042D01*
X94208010Y-19609439D01*
X94277065Y-19506091D01*
X94293572Y-19466237D01*
X95341680Y-19466237D01*
X95341680Y-19580683D01*
X95364008Y-19692931D01*
X95407805Y-19798667D01*
X95471388Y-19893826D01*
X95552314Y-19974752D01*
X95647473Y-20038335D01*
X95753209Y-20082132D01*
X95865457Y-20104460D01*
X95979903Y-20104460D01*
X96092151Y-20082132D01*
X96197887Y-20038335D01*
X96293046Y-19974752D01*
X96373972Y-19893826D01*
X96437555Y-19798667D01*
X96481352Y-19692931D01*
X96503680Y-19580683D01*
X96503680Y-19466237D01*
X96481352Y-19353989D01*
X96437555Y-19248253D01*
X96378680Y-19160140D01*
X96378680Y-18850262D01*
X96477109Y-18891032D01*
X96554952Y-18906516D01*
X96565398Y-18959031D01*
X96609195Y-19064767D01*
X96672778Y-19159926D01*
X96753704Y-19240852D01*
X96814880Y-19281728D01*
X96814880Y-19392883D01*
X96837208Y-19505131D01*
X96881005Y-19610867D01*
X96944588Y-19706026D01*
X97025514Y-19786952D01*
X97120673Y-19850535D01*
X97226409Y-19894332D01*
X97338657Y-19916660D01*
X97453103Y-19916660D01*
X97565351Y-19894332D01*
X97572166Y-19891509D01*
X97581535Y-19914127D01*
X97645118Y-20009286D01*
X97656916Y-20021084D01*
X97673083Y-20074378D01*
X97695196Y-20115748D01*
X97715426Y-20153595D01*
X97755526Y-20202457D01*
X97772410Y-20223031D01*
X97789808Y-20237309D01*
X99338521Y-21786023D01*
X99352799Y-21803421D01*
X99422234Y-21860404D01*
X99501452Y-21902747D01*
X99587408Y-21928822D01*
X99654401Y-21935420D01*
X99654404Y-21935420D01*
X99676800Y-21937626D01*
X99699196Y-21935420D01*
X108120224Y-21935420D01*
X108142620Y-21937626D01*
X108165016Y-21935420D01*
X108165019Y-21935420D01*
X108232012Y-21928822D01*
X108317968Y-21902747D01*
X108397186Y-21860404D01*
X108466621Y-21803421D01*
X108480903Y-21786018D01*
X109984780Y-20282142D01*
X109984780Y-20332683D01*
X110007108Y-20444931D01*
X110042120Y-20529459D01*
X110007108Y-20613986D01*
X109984780Y-20726234D01*
X109984780Y-20840680D01*
X110007108Y-20952928D01*
X110050905Y-21058664D01*
X110082497Y-21105944D01*
X110081114Y-21106868D01*
X110000188Y-21187794D01*
X109936605Y-21282953D01*
X109892808Y-21388689D01*
X109870480Y-21500937D01*
X109870480Y-21615383D01*
X109892808Y-21727631D01*
X109936605Y-21833367D01*
X110000188Y-21928526D01*
X110081114Y-22009452D01*
X110176273Y-22073035D01*
X110282009Y-22116832D01*
X110394257Y-22139160D01*
X110508703Y-22139160D01*
X110620951Y-22116832D01*
X110726687Y-22073035D01*
X110821846Y-22009452D01*
X110902772Y-21928526D01*
X110966355Y-21833367D01*
X111010152Y-21727631D01*
X111032480Y-21615383D01*
X111032480Y-21500937D01*
X111010152Y-21388689D01*
X110966355Y-21282953D01*
X110934763Y-21235673D01*
X110936146Y-21234749D01*
X111017072Y-21153823D01*
X111080655Y-21058664D01*
X111124452Y-20952928D01*
X111146780Y-20840680D01*
X111146780Y-20726234D01*
X111124452Y-20613986D01*
X111089440Y-20529459D01*
X111124452Y-20444931D01*
X111146780Y-20332683D01*
X111146780Y-20218237D01*
X111124452Y-20105989D01*
X111080655Y-20000253D01*
X111017072Y-19905094D01*
X110936146Y-19824168D01*
X110840987Y-19760585D01*
X110735251Y-19716788D01*
X110623003Y-19694460D01*
X110572462Y-19694460D01*
X110589562Y-19677360D01*
X118419360Y-19677360D01*
X118507473Y-19736235D01*
X118613209Y-19780032D01*
X118725457Y-19802360D01*
X118839903Y-19802360D01*
X118952151Y-19780032D01*
X119057887Y-19736235D01*
X119153046Y-19672652D01*
X119233972Y-19591726D01*
X119297555Y-19496567D01*
X119341352Y-19390831D01*
X119363680Y-19278583D01*
X119363680Y-19164137D01*
X119341352Y-19051889D01*
X119297555Y-18946153D01*
X119233972Y-18850994D01*
X119153046Y-18770068D01*
X119057887Y-18706485D01*
X118952151Y-18662688D01*
X118839903Y-18640360D01*
X118725457Y-18640360D01*
X118613209Y-18662688D01*
X118507473Y-18706485D01*
X118419360Y-18765360D01*
X118026412Y-18765360D01*
X118297400Y-18494372D01*
X118316707Y-18478527D01*
X118379939Y-18401479D01*
X118426925Y-18313575D01*
X118455858Y-18218193D01*
X118463180Y-18143854D01*
X118465628Y-18119000D01*
X118463306Y-18095418D01*
X122492400Y-18095418D01*
X122492400Y-18249262D01*
X122522413Y-18400149D01*
X122581287Y-18542282D01*
X122666758Y-18670199D01*
X122775541Y-18778982D01*
X122903458Y-18864453D01*
X123045591Y-18923327D01*
X123196478Y-18953340D01*
X123350322Y-18953340D01*
X123501209Y-18923327D01*
X123643342Y-18864453D01*
X123771259Y-18778982D01*
X123880042Y-18670199D01*
X123965513Y-18542282D01*
X124024387Y-18400149D01*
X124054400Y-18249262D01*
X124054400Y-18095418D01*
X124024387Y-17944531D01*
X123965513Y-17802398D01*
X123880042Y-17674481D01*
X123771259Y-17565698D01*
X123643342Y-17480227D01*
X123501209Y-17421353D01*
X123350322Y-17391340D01*
X123196478Y-17391340D01*
X123045591Y-17421353D01*
X122903458Y-17480227D01*
X122775541Y-17565698D01*
X122666758Y-17674481D01*
X122581287Y-17802398D01*
X122522413Y-17944531D01*
X122492400Y-18095418D01*
X118463306Y-18095418D01*
X118463180Y-18094146D01*
X118463180Y-17785961D01*
X118563822Y-17685319D01*
X118649293Y-17557402D01*
X118708167Y-17415269D01*
X118738180Y-17264382D01*
X118738180Y-17110538D01*
X118728453Y-17061638D01*
X121316380Y-17061638D01*
X121316380Y-17215482D01*
X121346393Y-17366369D01*
X121405267Y-17508502D01*
X121490738Y-17636419D01*
X121599521Y-17745202D01*
X121727438Y-17830673D01*
X121869571Y-17889547D01*
X122020458Y-17919560D01*
X122174302Y-17919560D01*
X122325189Y-17889547D01*
X122467322Y-17830673D01*
X122595239Y-17745202D01*
X122704022Y-17636419D01*
X122789493Y-17508502D01*
X122848367Y-17366369D01*
X122878380Y-17215482D01*
X122878380Y-17061638D01*
X122848367Y-16910751D01*
X122789493Y-16768618D01*
X122704022Y-16640701D01*
X122595239Y-16531918D01*
X122467322Y-16446447D01*
X122325189Y-16387573D01*
X122174302Y-16357560D01*
X122020458Y-16357560D01*
X121869571Y-16387573D01*
X121727438Y-16446447D01*
X121599521Y-16531918D01*
X121490738Y-16640701D01*
X121405267Y-16768618D01*
X121346393Y-16910751D01*
X121316380Y-17061638D01*
X118728453Y-17061638D01*
X118727387Y-17056279D01*
X118825151Y-17036832D01*
X118930887Y-16993035D01*
X119026046Y-16929452D01*
X119106972Y-16848526D01*
X119170555Y-16753367D01*
X119214352Y-16647631D01*
X119236680Y-16535383D01*
X119236680Y-16420937D01*
X119214352Y-16308689D01*
X119170555Y-16202953D01*
X119106972Y-16107794D01*
X119026046Y-16026868D01*
X118930887Y-15963285D01*
X118825151Y-15919488D01*
X118712903Y-15897160D01*
X118616999Y-15897160D01*
X118638787Y-15888135D01*
X118733946Y-15824552D01*
X118814872Y-15743626D01*
X118878455Y-15648467D01*
X118922252Y-15542731D01*
X118944580Y-15430483D01*
X118944580Y-15316037D01*
X118922252Y-15203789D01*
X118878455Y-15098053D01*
X118820862Y-15011858D01*
X123117240Y-15011858D01*
X123117240Y-15165702D01*
X123147253Y-15316589D01*
X123206127Y-15458722D01*
X123291598Y-15586639D01*
X123400381Y-15695422D01*
X123528298Y-15780893D01*
X123670431Y-15839767D01*
X123821318Y-15869780D01*
X123975162Y-15869780D01*
X124126049Y-15839767D01*
X124268182Y-15780893D01*
X124396099Y-15695422D01*
X124504882Y-15586639D01*
X124590353Y-15458722D01*
X124649227Y-15316589D01*
X124679240Y-15165702D01*
X124679240Y-15011858D01*
X124649596Y-14862827D01*
X124664839Y-14852642D01*
X124773622Y-14743859D01*
X124859093Y-14615942D01*
X124917967Y-14473809D01*
X124947980Y-14322922D01*
X124947980Y-14169078D01*
X124917967Y-14018191D01*
X124859093Y-13876058D01*
X124773622Y-13748141D01*
X124664839Y-13639358D01*
X124536922Y-13553887D01*
X124394789Y-13495013D01*
X124243902Y-13465000D01*
X124090058Y-13465000D01*
X123939171Y-13495013D01*
X123797038Y-13553887D01*
X123669121Y-13639358D01*
X123560338Y-13748141D01*
X123474867Y-13876058D01*
X123415993Y-14018191D01*
X123385980Y-14169078D01*
X123385980Y-14322922D01*
X123415624Y-14471953D01*
X123400381Y-14482138D01*
X123291598Y-14590921D01*
X123206127Y-14718838D01*
X123147253Y-14860971D01*
X123117240Y-15011858D01*
X118820862Y-15011858D01*
X118814872Y-15002894D01*
X118733946Y-14921968D01*
X118638787Y-14858385D01*
X118533051Y-14814588D01*
X118420803Y-14792260D01*
X118306357Y-14792260D01*
X118214258Y-14810580D01*
X118086135Y-14810580D01*
X118110980Y-14805638D01*
X118253113Y-14746764D01*
X118381030Y-14661293D01*
X118489813Y-14552510D01*
X118575284Y-14424593D01*
X118634158Y-14282460D01*
X118664171Y-14131573D01*
X118664171Y-13977729D01*
X118634158Y-13826842D01*
X118575284Y-13684709D01*
X118531050Y-13618508D01*
X118536792Y-13617942D01*
X118622748Y-13591867D01*
X118701966Y-13549524D01*
X118771401Y-13492541D01*
X118785683Y-13475138D01*
X118848214Y-13412607D01*
X118952151Y-13391932D01*
X119057887Y-13348135D01*
X119153046Y-13284552D01*
X119233972Y-13203626D01*
X119297555Y-13108467D01*
X119341352Y-13002731D01*
X119363680Y-12890483D01*
X119363680Y-12776037D01*
X119341352Y-12663789D01*
X119297555Y-12558053D01*
X119233972Y-12462894D01*
X119153046Y-12381968D01*
X119057887Y-12318385D01*
X118952151Y-12274588D01*
X118839903Y-12252260D01*
X118725457Y-12252260D01*
X118646694Y-12267927D01*
X118708514Y-12206107D01*
X118812451Y-12185432D01*
X118918187Y-12141635D01*
X119013346Y-12078052D01*
X119094272Y-11997126D01*
X119157855Y-11901967D01*
X119201652Y-11796231D01*
X119223980Y-11683983D01*
X119223980Y-11569537D01*
X119205410Y-11476178D01*
X122431440Y-11476178D01*
X122431440Y-11630022D01*
X122461453Y-11780909D01*
X122520327Y-11923042D01*
X122605798Y-12050959D01*
X122714581Y-12159742D01*
X122842498Y-12245213D01*
X122984631Y-12304087D01*
X123135518Y-12334100D01*
X123289362Y-12334100D01*
X123440249Y-12304087D01*
X123582382Y-12245213D01*
X123710299Y-12159742D01*
X123819082Y-12050959D01*
X123904553Y-11923042D01*
X123963427Y-11780909D01*
X123993440Y-11630022D01*
X123993440Y-11476178D01*
X123963427Y-11325291D01*
X123904553Y-11183158D01*
X123819082Y-11055241D01*
X123710299Y-10946458D01*
X123582382Y-10860987D01*
X123440249Y-10802113D01*
X123289362Y-10772100D01*
X123135518Y-10772100D01*
X122984631Y-10802113D01*
X122842498Y-10860987D01*
X122714581Y-10946458D01*
X122605798Y-11055241D01*
X122520327Y-11183158D01*
X122461453Y-11325291D01*
X122431440Y-11476178D01*
X119205410Y-11476178D01*
X119201652Y-11457289D01*
X119157855Y-11351553D01*
X119094272Y-11256394D01*
X119013346Y-11175468D01*
X118918187Y-11111885D01*
X118812451Y-11068088D01*
X118700203Y-11045760D01*
X118585757Y-11045760D01*
X118473509Y-11068088D01*
X118367773Y-11111885D01*
X118272614Y-11175468D01*
X118191688Y-11256394D01*
X118128105Y-11351553D01*
X118084308Y-11457289D01*
X118063633Y-11561226D01*
X117278079Y-12346780D01*
X110363024Y-12346780D01*
X110302119Y-12296797D01*
X110252096Y-12270059D01*
X116071085Y-12270059D01*
X116093481Y-12272265D01*
X116115877Y-12270059D01*
X116115880Y-12270059D01*
X116182873Y-12263461D01*
X116268829Y-12237386D01*
X116348047Y-12195043D01*
X116417482Y-12138060D01*
X116431764Y-12120657D01*
X118759315Y-9793107D01*
X118863251Y-9772432D01*
X118968987Y-9728635D01*
X119064146Y-9665052D01*
X119145072Y-9584126D01*
X119208655Y-9488967D01*
X119252452Y-9383231D01*
X119274780Y-9270983D01*
X119274780Y-9156537D01*
X119252452Y-9044289D01*
X119208655Y-8938553D01*
X119145072Y-8843394D01*
X119064146Y-8762468D01*
X118968987Y-8698885D01*
X118863251Y-8655088D01*
X118751003Y-8632760D01*
X118636557Y-8632760D01*
X118524309Y-8655088D01*
X118418573Y-8698885D01*
X118323414Y-8762468D01*
X118242488Y-8843394D01*
X118178905Y-8938553D01*
X118135108Y-9044289D01*
X118114433Y-9148225D01*
X115904600Y-11358059D01*
X113603008Y-11358059D01*
X113632780Y-11208382D01*
X113632780Y-11054538D01*
X113602767Y-10903651D01*
X113543893Y-10761518D01*
X113458422Y-10633601D01*
X113349639Y-10524818D01*
X113221722Y-10439347D01*
X113105565Y-10391233D01*
X113122732Y-10374066D01*
X113186315Y-10278907D01*
X113230112Y-10173171D01*
X113252440Y-10060923D01*
X113252440Y-9946477D01*
X113230112Y-9834229D01*
X113186315Y-9728493D01*
X113122732Y-9633334D01*
X113041806Y-9552408D01*
X112946647Y-9488825D01*
X112840911Y-9445028D01*
X112736975Y-9424353D01*
X112384883Y-9072262D01*
X112370601Y-9054859D01*
X112301166Y-8997876D01*
X112221948Y-8955533D01*
X112135992Y-8929458D01*
X112068999Y-8922860D01*
X112068996Y-8922860D01*
X112046600Y-8920654D01*
X112024204Y-8922860D01*
X101251700Y-8922860D01*
X101163587Y-8863985D01*
X101057851Y-8820188D01*
X100945603Y-8797860D01*
X100831157Y-8797860D01*
X100718909Y-8820188D01*
X100613173Y-8863985D01*
X100518014Y-8927568D01*
X100442680Y-9002902D01*
X100442680Y-7408741D01*
X100788815Y-7062607D01*
X100892751Y-7041932D01*
X100998487Y-6998135D01*
X101093646Y-6934552D01*
X101174572Y-6853626D01*
X101238155Y-6758467D01*
X101281952Y-6652731D01*
X101282965Y-6647638D01*
X109886380Y-6647638D01*
X109886380Y-6801482D01*
X109916393Y-6952369D01*
X109975267Y-7094502D01*
X110060738Y-7222419D01*
X110169521Y-7331202D01*
X110297438Y-7416673D01*
X110439571Y-7475547D01*
X110590458Y-7505560D01*
X110744302Y-7505560D01*
X110895189Y-7475547D01*
X111037322Y-7416673D01*
X111165239Y-7331202D01*
X111228160Y-7268282D01*
X111335640Y-7375762D01*
X111463557Y-7461233D01*
X111605690Y-7520107D01*
X111756577Y-7550120D01*
X111910421Y-7550120D01*
X112061308Y-7520107D01*
X112203441Y-7461233D01*
X112331358Y-7375762D01*
X112440141Y-7266979D01*
X112525612Y-7139062D01*
X112584486Y-6996929D01*
X112614499Y-6846042D01*
X112614499Y-6692198D01*
X112595531Y-6596838D01*
X112807380Y-6596838D01*
X112807380Y-6750682D01*
X112837393Y-6901569D01*
X112896267Y-7043702D01*
X112981738Y-7171619D01*
X113090521Y-7280402D01*
X113218438Y-7365873D01*
X113360571Y-7424747D01*
X113511458Y-7454760D01*
X113665302Y-7454760D01*
X113816189Y-7424747D01*
X113958322Y-7365873D01*
X114086239Y-7280402D01*
X114195022Y-7171619D01*
X114280493Y-7043702D01*
X114339367Y-6901569D01*
X114367141Y-6761938D01*
X115120700Y-6761938D01*
X115120700Y-6915782D01*
X115150713Y-7066669D01*
X115209587Y-7208802D01*
X115295058Y-7336719D01*
X115403841Y-7445502D01*
X115531758Y-7530973D01*
X115673891Y-7589847D01*
X115824778Y-7619860D01*
X115978622Y-7619860D01*
X116129509Y-7589847D01*
X116271642Y-7530973D01*
X116399559Y-7445502D01*
X116508342Y-7336719D01*
X116593813Y-7208802D01*
X116652687Y-7066669D01*
X116682700Y-6915782D01*
X116682700Y-6761938D01*
X116652687Y-6611051D01*
X116593813Y-6468918D01*
X116508342Y-6341001D01*
X116399559Y-6232218D01*
X116271642Y-6146747D01*
X116129509Y-6087873D01*
X115978622Y-6057860D01*
X115824778Y-6057860D01*
X115673891Y-6087873D01*
X115531758Y-6146747D01*
X115403841Y-6232218D01*
X115295058Y-6341001D01*
X115209587Y-6468918D01*
X115150713Y-6611051D01*
X115120700Y-6761938D01*
X114367141Y-6761938D01*
X114369380Y-6750682D01*
X114369380Y-6596838D01*
X114339367Y-6445951D01*
X114280493Y-6303818D01*
X114195022Y-6175901D01*
X114086239Y-6067118D01*
X113958322Y-5981647D01*
X113866131Y-5943460D01*
X113906602Y-5943460D01*
X114057489Y-5913447D01*
X114199622Y-5854573D01*
X114327539Y-5769102D01*
X114436322Y-5660319D01*
X114521793Y-5532402D01*
X114580667Y-5390269D01*
X114610680Y-5239382D01*
X114610680Y-5085538D01*
X114580667Y-4934651D01*
X114521793Y-4792518D01*
X114436322Y-4664601D01*
X114327539Y-4555818D01*
X114199622Y-4470347D01*
X114057489Y-4411473D01*
X113906602Y-4381460D01*
X113752758Y-4381460D01*
X113601871Y-4411473D01*
X113459738Y-4470347D01*
X113331821Y-4555818D01*
X113223038Y-4664601D01*
X113137567Y-4792518D01*
X113078693Y-4934651D01*
X113048680Y-5085538D01*
X113048680Y-5239382D01*
X113078693Y-5390269D01*
X113137567Y-5532402D01*
X113223038Y-5660319D01*
X113331821Y-5769102D01*
X113459738Y-5854573D01*
X113551929Y-5892760D01*
X113511458Y-5892760D01*
X113360571Y-5922773D01*
X113218438Y-5981647D01*
X113090521Y-6067118D01*
X112981738Y-6175901D01*
X112896267Y-6303818D01*
X112837393Y-6445951D01*
X112807380Y-6596838D01*
X112595531Y-6596838D01*
X112584486Y-6541311D01*
X112525612Y-6399178D01*
X112440141Y-6271261D01*
X112331358Y-6162478D01*
X112203441Y-6077007D01*
X112061308Y-6018133D01*
X111910421Y-5988120D01*
X111756577Y-5988120D01*
X111626857Y-6013923D01*
X111651593Y-5976902D01*
X111710467Y-5834769D01*
X111740480Y-5683882D01*
X111740480Y-5530038D01*
X111710467Y-5379151D01*
X111651593Y-5237018D01*
X111566122Y-5109101D01*
X111457339Y-5000318D01*
X111329422Y-4914847D01*
X111187289Y-4855973D01*
X111036402Y-4825960D01*
X110882558Y-4825960D01*
X110731671Y-4855973D01*
X110589538Y-4914847D01*
X110461621Y-5000318D01*
X110352838Y-5109101D01*
X110267367Y-5237018D01*
X110208493Y-5379151D01*
X110178480Y-5530038D01*
X110178480Y-5683882D01*
X110208493Y-5834769D01*
X110267367Y-5976902D01*
X110302954Y-6030162D01*
X110297438Y-6032447D01*
X110169521Y-6117918D01*
X110060738Y-6226701D01*
X109975267Y-6354618D01*
X109916393Y-6496751D01*
X109886380Y-6647638D01*
X101282965Y-6647638D01*
X101304280Y-6540483D01*
X101304280Y-6426037D01*
X101281952Y-6313789D01*
X101238155Y-6208053D01*
X101174572Y-6112894D01*
X101093646Y-6031968D01*
X100998487Y-5968385D01*
X100892751Y-5924588D01*
X100780503Y-5902260D01*
X100666057Y-5902260D01*
X100553809Y-5924588D01*
X100448073Y-5968385D01*
X100352914Y-6031968D01*
X100271988Y-6112894D01*
X100208405Y-6208053D01*
X100164608Y-6313789D01*
X100143933Y-6417725D01*
X99680078Y-6881581D01*
X99662680Y-6895859D01*
X99648402Y-6913257D01*
X99648401Y-6913258D01*
X99605696Y-6965295D01*
X99563353Y-7044513D01*
X99537279Y-7130469D01*
X99528474Y-7219860D01*
X99530681Y-7242266D01*
X99530680Y-10210481D01*
X98982180Y-10758981D01*
X98982180Y-7027741D01*
X99963314Y-6046607D01*
X100067251Y-6025932D01*
X100172987Y-5982135D01*
X100268146Y-5918552D01*
X100349072Y-5837626D01*
X100412655Y-5742467D01*
X100456452Y-5636731D01*
X100478780Y-5524483D01*
X100478780Y-5410037D01*
X100456452Y-5297789D01*
X100412655Y-5192053D01*
X100349072Y-5096894D01*
X100337716Y-5085538D01*
X107028880Y-5085538D01*
X107028880Y-5239382D01*
X107058893Y-5390269D01*
X107117767Y-5532402D01*
X107203238Y-5660319D01*
X107312021Y-5769102D01*
X107439938Y-5854573D01*
X107582071Y-5913447D01*
X107732958Y-5943460D01*
X107886802Y-5943460D01*
X108037689Y-5913447D01*
X108179822Y-5854573D01*
X108307739Y-5769102D01*
X108416522Y-5660319D01*
X108501993Y-5532402D01*
X108560867Y-5390269D01*
X108590880Y-5239382D01*
X108590880Y-5085538D01*
X108560867Y-4934651D01*
X108501993Y-4792518D01*
X108416522Y-4664601D01*
X108307739Y-4555818D01*
X108179822Y-4470347D01*
X108037689Y-4411473D01*
X107886802Y-4381460D01*
X107732958Y-4381460D01*
X107582071Y-4411473D01*
X107439938Y-4470347D01*
X107312021Y-4555818D01*
X107203238Y-4664601D01*
X107117767Y-4792518D01*
X107058893Y-4934651D01*
X107028880Y-5085538D01*
X100337716Y-5085538D01*
X100268146Y-5015968D01*
X100172987Y-4952385D01*
X100067251Y-4908588D01*
X99955003Y-4886260D01*
X99840557Y-4886260D01*
X99728309Y-4908588D01*
X99622573Y-4952385D01*
X99527414Y-5015968D01*
X99446488Y-5096894D01*
X99382905Y-5192053D01*
X99339108Y-5297789D01*
X99318433Y-5401726D01*
X98219578Y-6500581D01*
X98202180Y-6514859D01*
X98187902Y-6532257D01*
X98187901Y-6532258D01*
X98145196Y-6584295D01*
X98102853Y-6663513D01*
X98094152Y-6692198D01*
X98076779Y-6749468D01*
X98075967Y-6757713D01*
X98067974Y-6838860D01*
X98070181Y-6861266D01*
X98070180Y-10308074D01*
X98050455Y-10260453D01*
X97991580Y-10172340D01*
X97991580Y-5879453D01*
X97993786Y-5857057D01*
X97988541Y-5803805D01*
X97984982Y-5767666D01*
X97958907Y-5681710D01*
X97916564Y-5602492D01*
X97887042Y-5566519D01*
X97865652Y-5458987D01*
X97821855Y-5353251D01*
X97758272Y-5258092D01*
X97677346Y-5177166D01*
X97582187Y-5113583D01*
X97476451Y-5069786D01*
X97364203Y-5047458D01*
X97249757Y-5047458D01*
X97137509Y-5069786D01*
X97031773Y-5113583D01*
X96936614Y-5177166D01*
X96855688Y-5258092D01*
X96792105Y-5353251D01*
X96748308Y-5458987D01*
X96725980Y-5571235D01*
X96725980Y-5685681D01*
X96748308Y-5797929D01*
X96792105Y-5903665D01*
X96855688Y-5998824D01*
X96936614Y-6079750D01*
X97031773Y-6143333D01*
X97079581Y-6163136D01*
X97079580Y-10172340D01*
X97020705Y-10260453D01*
X96976908Y-10366189D01*
X96954580Y-10478437D01*
X96954580Y-10592883D01*
X96976908Y-10705131D01*
X97020705Y-10810867D01*
X97084288Y-10906026D01*
X97165214Y-10986952D01*
X97260373Y-11050535D01*
X97366109Y-11094332D01*
X97478357Y-11116660D01*
X97592803Y-11116660D01*
X97705051Y-11094332D01*
X97810787Y-11050535D01*
X97905946Y-10986952D01*
X97986872Y-10906026D01*
X98050455Y-10810867D01*
X98070180Y-10763246D01*
X98070180Y-10967979D01*
X98022496Y-11015663D01*
X97918559Y-11036338D01*
X97812823Y-11080135D01*
X97717664Y-11143718D01*
X97636738Y-11224644D01*
X97573155Y-11319803D01*
X97529358Y-11425539D01*
X97507030Y-11537787D01*
X97507030Y-11652233D01*
X97508770Y-11660980D01*
X97123636Y-11660980D01*
X97101240Y-11658774D01*
X97078844Y-11660980D01*
X97078841Y-11660980D01*
X97011848Y-11667578D01*
X96925892Y-11693653D01*
X96846674Y-11735995D01*
X96817768Y-11759718D01*
X96777239Y-11792979D01*
X96762961Y-11810377D01*
X96007238Y-12566101D01*
X95989840Y-12580379D01*
X95975562Y-12597777D01*
X95975561Y-12597778D01*
X95932856Y-12649815D01*
X95890513Y-12729033D01*
X95876255Y-12776037D01*
X95864637Y-12814337D01*
X95864439Y-12814989D01*
X95855634Y-12904380D01*
X95857841Y-12926786D01*
X95857840Y-14540890D01*
X95773614Y-14597168D01*
X95692688Y-14678094D01*
X95629105Y-14773253D01*
X95585308Y-14878989D01*
X95562980Y-14991237D01*
X95562980Y-15105683D01*
X95585308Y-15217931D01*
X95629105Y-15323667D01*
X95692688Y-15418826D01*
X95773614Y-15499752D01*
X95868773Y-15563335D01*
X95974509Y-15607132D01*
X96086757Y-15629460D01*
X96201203Y-15629460D01*
X96313451Y-15607132D01*
X96419187Y-15563335D01*
X96514346Y-15499752D01*
X96595272Y-15418826D01*
X96658855Y-15323667D01*
X96702652Y-15217931D01*
X96724980Y-15105683D01*
X96724980Y-15076748D01*
X96737167Y-15053948D01*
X96763242Y-14967992D01*
X96769840Y-14900999D01*
X96769840Y-14900997D01*
X96772046Y-14878601D01*
X96769840Y-14856205D01*
X96769840Y-13950198D01*
X96794394Y-13974752D01*
X96889553Y-14038335D01*
X96995289Y-14082132D01*
X97017209Y-14086492D01*
X97017786Y-14087886D01*
X97074826Y-14173253D01*
X97002598Y-14245481D01*
X96917127Y-14373398D01*
X96858253Y-14515531D01*
X96828240Y-14666418D01*
X96828240Y-14820262D01*
X96858253Y-14971149D01*
X96917127Y-15113282D01*
X97002598Y-15241199D01*
X97111381Y-15349982D01*
X97239298Y-15435453D01*
X97298064Y-15459795D01*
X95616078Y-17141781D01*
X95598680Y-17156059D01*
X95584402Y-17173457D01*
X95584401Y-17173458D01*
X95541696Y-17225495D01*
X95499353Y-17304713D01*
X95473279Y-17390669D01*
X95464474Y-17480060D01*
X95466681Y-17502466D01*
X95466680Y-19160140D01*
X95407805Y-19248253D01*
X95364008Y-19353989D01*
X95341680Y-19466237D01*
X94293572Y-19466237D01*
X94324631Y-19391256D01*
X94348880Y-19269348D01*
X94348880Y-19145052D01*
X94324631Y-19023144D01*
X94277065Y-18908309D01*
X94226211Y-18832200D01*
X94277065Y-18756091D01*
X94324631Y-18641256D01*
X94348880Y-18519348D01*
X94348880Y-18395052D01*
X94324631Y-18273144D01*
X94277065Y-18158309D01*
X94226211Y-18082200D01*
X94277065Y-18006091D01*
X94324631Y-17891256D01*
X94348880Y-17769348D01*
X94348880Y-17645052D01*
X94324631Y-17523144D01*
X94277065Y-17408309D01*
X94208010Y-17304961D01*
X94137337Y-17234288D01*
X94156581Y-17206184D01*
X94159275Y-17201202D01*
X94159278Y-17201198D01*
X94159280Y-17201194D01*
X94250903Y-17028875D01*
X94264926Y-16994852D01*
X94279421Y-16961032D01*
X94281098Y-16955617D01*
X94337507Y-16768780D01*
X94344666Y-16732625D01*
X94352304Y-16696691D01*
X94352896Y-16691062D01*
X94352898Y-16691052D01*
X94352898Y-16691043D01*
X94371942Y-16496820D01*
X94371942Y-16496818D01*
X94373880Y-16477141D01*
X94373880Y-12437259D01*
X94371845Y-12416598D01*
X94371845Y-12403619D01*
X94371253Y-12397981D01*
X94349498Y-12204032D01*
X94341838Y-12167995D01*
X94334699Y-12131940D01*
X94333023Y-12126524D01*
X94274010Y-11940494D01*
X94259501Y-11906643D01*
X94245491Y-11872653D01*
X94242795Y-11867666D01*
X94242795Y-11867665D01*
X94242792Y-11867661D01*
X94148773Y-11696641D01*
X94137407Y-11680042D01*
X94208010Y-11609439D01*
X94277065Y-11506091D01*
X94324631Y-11391256D01*
X94348880Y-11269348D01*
X94348880Y-11145052D01*
X94324631Y-11023144D01*
X94277065Y-10908309D01*
X94226211Y-10832200D01*
X94277065Y-10756091D01*
X94324631Y-10641256D01*
X94348880Y-10519348D01*
X94348880Y-10395052D01*
X94324631Y-10273144D01*
X94277065Y-10158309D01*
X94226211Y-10082200D01*
X94277065Y-10006091D01*
X94324631Y-9891256D01*
X94348880Y-9769348D01*
X94348880Y-9645052D01*
X94324631Y-9523144D01*
X94277065Y-9408309D01*
X94208010Y-9304961D01*
X94137337Y-9234288D01*
X94156581Y-9206184D01*
X94159275Y-9201202D01*
X94159278Y-9201198D01*
X94159280Y-9201194D01*
X94250903Y-9028875D01*
X94264926Y-8994852D01*
X94279421Y-8961032D01*
X94281098Y-8955617D01*
X94337507Y-8768780D01*
X94344666Y-8732625D01*
X94352304Y-8696691D01*
X94352896Y-8691062D01*
X94352898Y-8691052D01*
X94352898Y-8691043D01*
X94371942Y-8496820D01*
X94371942Y-8496818D01*
X94373880Y-8477141D01*
X94373880Y-4437259D01*
X94371845Y-4416598D01*
X94371845Y-4403619D01*
X94371253Y-4397981D01*
X94349498Y-4204032D01*
X94341838Y-4167995D01*
X94334699Y-4131940D01*
X94333023Y-4126524D01*
X94274010Y-3940494D01*
X94259501Y-3906643D01*
X94245491Y-3872653D01*
X94242795Y-3867666D01*
X94242795Y-3867665D01*
X94242792Y-3867661D01*
X94148773Y-3696641D01*
X94137407Y-3680042D01*
X94208010Y-3609439D01*
X94277065Y-3506091D01*
X94324631Y-3391256D01*
X94348880Y-3269348D01*
X94348880Y-3145052D01*
X94324631Y-3023144D01*
X94277065Y-2908309D01*
X94226211Y-2832200D01*
X94277065Y-2756091D01*
X94324631Y-2641256D01*
X94348880Y-2519348D01*
X94348880Y-2395052D01*
X94324631Y-2273144D01*
X94277065Y-2158309D01*
X94226211Y-2082200D01*
X94277065Y-2006091D01*
X94324631Y-1891256D01*
X94348880Y-1769348D01*
X94348880Y-1645052D01*
X94328430Y-1542238D01*
X97199080Y-1542238D01*
X97199080Y-1696082D01*
X97229093Y-1846969D01*
X97287967Y-1989102D01*
X97373438Y-2117019D01*
X97482221Y-2225802D01*
X97610138Y-2311273D01*
X97752271Y-2370147D01*
X97903158Y-2400160D01*
X98057002Y-2400160D01*
X98207889Y-2370147D01*
X98350022Y-2311273D01*
X98477939Y-2225802D01*
X98534123Y-2169618D01*
X103665920Y-2169618D01*
X103665920Y-2323462D01*
X103695933Y-2474349D01*
X103754807Y-2616482D01*
X103840278Y-2744399D01*
X103949061Y-2853182D01*
X104076978Y-2938653D01*
X104219111Y-2997527D01*
X104369998Y-3027540D01*
X104523842Y-3027540D01*
X104674729Y-2997527D01*
X104816862Y-2938653D01*
X104944779Y-2853182D01*
X105053562Y-2744399D01*
X105139033Y-2616482D01*
X105197907Y-2474349D01*
X105227920Y-2323462D01*
X105227920Y-2169618D01*
X105197907Y-2018731D01*
X105139033Y-1876598D01*
X105053562Y-1748681D01*
X104944779Y-1639898D01*
X104923948Y-1625979D01*
X108063880Y-1625979D01*
X108063880Y-3625979D01*
X108066320Y-3650755D01*
X108073547Y-3674580D01*
X108085283Y-3696536D01*
X108101077Y-3715782D01*
X108120323Y-3731576D01*
X108142279Y-3743312D01*
X108166104Y-3750539D01*
X108190880Y-3752979D01*
X116690880Y-3752979D01*
X116715656Y-3750539D01*
X116739481Y-3743312D01*
X116761437Y-3731576D01*
X116780683Y-3715782D01*
X116796477Y-3696536D01*
X116808213Y-3674580D01*
X116815440Y-3650755D01*
X116817880Y-3625979D01*
X116817880Y-1625979D01*
X116815440Y-1601203D01*
X116808213Y-1577378D01*
X116796477Y-1555422D01*
X116780683Y-1536176D01*
X116761437Y-1520382D01*
X116739481Y-1508646D01*
X116715656Y-1501419D01*
X116690880Y-1498979D01*
X108190880Y-1498979D01*
X108166104Y-1501419D01*
X108142279Y-1508646D01*
X108120323Y-1520382D01*
X108101077Y-1536176D01*
X108085283Y-1555422D01*
X108073547Y-1577378D01*
X108066320Y-1601203D01*
X108063880Y-1625979D01*
X104923948Y-1625979D01*
X104816862Y-1554427D01*
X104674729Y-1495553D01*
X104523842Y-1465540D01*
X104369998Y-1465540D01*
X104219111Y-1495553D01*
X104076978Y-1554427D01*
X103949061Y-1639898D01*
X103840278Y-1748681D01*
X103754807Y-1876598D01*
X103695933Y-2018731D01*
X103665920Y-2169618D01*
X98534123Y-2169618D01*
X98586722Y-2117019D01*
X98672193Y-1989102D01*
X98731067Y-1846969D01*
X98761080Y-1696082D01*
X98761080Y-1542238D01*
X98731067Y-1391351D01*
X98672193Y-1249218D01*
X98586722Y-1121301D01*
X98477939Y-1012518D01*
X98350022Y-927047D01*
X98207889Y-868173D01*
X98057002Y-838160D01*
X97903158Y-838160D01*
X97752271Y-868173D01*
X97610138Y-927047D01*
X97482221Y-1012518D01*
X97373438Y-1121301D01*
X97287967Y-1249218D01*
X97229093Y-1391351D01*
X97199080Y-1542238D01*
X94328430Y-1542238D01*
X94324631Y-1523144D01*
X94277065Y-1408309D01*
X94208010Y-1304961D01*
X94137337Y-1234288D01*
X94156581Y-1206184D01*
X94159275Y-1201202D01*
X94159278Y-1201198D01*
X94159280Y-1201194D01*
X94250903Y-1028875D01*
X94264926Y-994852D01*
X94279421Y-961032D01*
X94281098Y-955617D01*
X94337507Y-768780D01*
X94344666Y-732625D01*
X94352304Y-696691D01*
X94352896Y-691062D01*
X94352898Y-691052D01*
X94352898Y-691043D01*
X94368089Y-536120D01*
X94368230Y-535649D01*
X94373935Y-475984D01*
X94370619Y688557D01*
X95481480Y688557D01*
X95481480Y416523D01*
X95534551Y149717D01*
X95638654Y-101609D01*
X95789787Y-327796D01*
X95982144Y-520153D01*
X96208331Y-671286D01*
X96459657Y-775389D01*
X96726463Y-828460D01*
X96998497Y-828460D01*
X97265303Y-775389D01*
X97516629Y-671286D01*
X97742816Y-520153D01*
X97935173Y-327796D01*
X98086306Y-101609D01*
X98190409Y149717D01*
X98243480Y416523D01*
X98243480Y688557D01*
X98190409Y955363D01*
X98086306Y1206689D01*
X97935173Y1432876D01*
X97742816Y1625233D01*
X97516629Y1776366D01*
X97265303Y1880469D01*
X96998497Y1933540D01*
X96726463Y1933540D01*
X96459657Y1880469D01*
X96208331Y1776366D01*
X95982144Y1625233D01*
X95789787Y1432876D01*
X95638654Y1206689D01*
X95534551Y955363D01*
X95481480Y688557D01*
X94370619Y688557D01*
X94365204Y2590074D01*
X111125680Y2590074D01*
X111125680Y740074D01*
X111128120Y715298D01*
X111135347Y691473D01*
X111147083Y669517D01*
X111162877Y650271D01*
X111182123Y634477D01*
X111204079Y622741D01*
X111227904Y615514D01*
X111252680Y613074D01*
X113702680Y613074D01*
X113727456Y615514D01*
X113751281Y622741D01*
X113773237Y634477D01*
X113792483Y650271D01*
X113808277Y669517D01*
X113818454Y688557D01*
X123481480Y688557D01*
X123481480Y416523D01*
X123534551Y149717D01*
X123638654Y-101609D01*
X123789787Y-327796D01*
X123982144Y-520153D01*
X124208331Y-671286D01*
X124459657Y-775389D01*
X124726463Y-828460D01*
X124998497Y-828460D01*
X125265303Y-775389D01*
X125516629Y-671286D01*
X125742816Y-520153D01*
X125935173Y-327796D01*
X126086306Y-101609D01*
X126190409Y149717D01*
X126243480Y416523D01*
X126243480Y688557D01*
X126190409Y955363D01*
X126086306Y1206689D01*
X125935173Y1432876D01*
X125742816Y1625233D01*
X125516629Y1776366D01*
X125265303Y1880469D01*
X124998497Y1933540D01*
X124726463Y1933540D01*
X124459657Y1880469D01*
X124208331Y1776366D01*
X123982144Y1625233D01*
X123789787Y1432876D01*
X123638654Y1206689D01*
X123534551Y955363D01*
X123481480Y688557D01*
X113818454Y688557D01*
X113820013Y691473D01*
X113827240Y715298D01*
X113829680Y740074D01*
X113829680Y2590074D01*
X113827240Y2614850D01*
X113820013Y2638675D01*
X113808277Y2660631D01*
X113792483Y2679877D01*
X113773237Y2695671D01*
X113751281Y2707407D01*
X113727456Y2714634D01*
X113702680Y2717074D01*
X111252680Y2717074D01*
X111227904Y2714634D01*
X111204079Y2707407D01*
X111182123Y2695671D01*
X111162877Y2679877D01*
X111147083Y2660631D01*
X111135347Y2638675D01*
X111128120Y2614850D01*
X111125680Y2590074D01*
X94365204Y2590074D01*
X94363617Y3146980D01*
X127506480Y3146980D01*
X127506481Y-30041051D01*
G04 #@! TA.AperFunction,Conductor*
D16*
G36*
X127506481Y-30041051D02*
G01*
X94373880Y-30043530D01*
X94373880Y-28437259D01*
X94371845Y-28416598D01*
X94371845Y-28403619D01*
X94371253Y-28397981D01*
X94349498Y-28204032D01*
X94341838Y-28167995D01*
X94334699Y-28131940D01*
X94333023Y-28126524D01*
X94274010Y-27940494D01*
X94259501Y-27906643D01*
X94245491Y-27872653D01*
X94242795Y-27867666D01*
X94242795Y-27867665D01*
X94242792Y-27867661D01*
X94148773Y-27696641D01*
X94137407Y-27680042D01*
X94208010Y-27609439D01*
X94277065Y-27506091D01*
X94324631Y-27391256D01*
X94340506Y-27311443D01*
X95481480Y-27311443D01*
X95481480Y-27583477D01*
X95534551Y-27850283D01*
X95638654Y-28101609D01*
X95789787Y-28327796D01*
X95982144Y-28520153D01*
X96208331Y-28671286D01*
X96459657Y-28775389D01*
X96726463Y-28828460D01*
X96998497Y-28828460D01*
X97265303Y-28775389D01*
X97516629Y-28671286D01*
X97742816Y-28520153D01*
X97935173Y-28327796D01*
X98086306Y-28101609D01*
X98190409Y-27850283D01*
X98243480Y-27583477D01*
X98243480Y-27311443D01*
X123481480Y-27311443D01*
X123481480Y-27583477D01*
X123534551Y-27850283D01*
X123638654Y-28101609D01*
X123789787Y-28327796D01*
X123982144Y-28520153D01*
X124208331Y-28671286D01*
X124459657Y-28775389D01*
X124726463Y-28828460D01*
X124998497Y-28828460D01*
X125265303Y-28775389D01*
X125516629Y-28671286D01*
X125742816Y-28520153D01*
X125935173Y-28327796D01*
X126086306Y-28101609D01*
X126190409Y-27850283D01*
X126243480Y-27583477D01*
X126243480Y-27311443D01*
X126190409Y-27044637D01*
X126086306Y-26793311D01*
X125935173Y-26567124D01*
X125742816Y-26374767D01*
X125516629Y-26223634D01*
X125265303Y-26119531D01*
X124998497Y-26066460D01*
X124726463Y-26066460D01*
X124459657Y-26119531D01*
X124208331Y-26223634D01*
X123982144Y-26374767D01*
X123789787Y-26567124D01*
X123638654Y-26793311D01*
X123534551Y-27044637D01*
X123481480Y-27311443D01*
X98243480Y-27311443D01*
X98190409Y-27044637D01*
X98086306Y-26793311D01*
X97935173Y-26567124D01*
X97742816Y-26374767D01*
X97516629Y-26223634D01*
X97265303Y-26119531D01*
X96998497Y-26066460D01*
X96726463Y-26066460D01*
X96459657Y-26119531D01*
X96208331Y-26223634D01*
X95982144Y-26374767D01*
X95789787Y-26567124D01*
X95638654Y-26793311D01*
X95534551Y-27044637D01*
X95481480Y-27311443D01*
X94340506Y-27311443D01*
X94348880Y-27269348D01*
X94348880Y-27145052D01*
X94324631Y-27023144D01*
X94277065Y-26908309D01*
X94226211Y-26832200D01*
X94277065Y-26756091D01*
X94324631Y-26641256D01*
X94348880Y-26519348D01*
X94348880Y-26395052D01*
X94324631Y-26273144D01*
X94277065Y-26158309D01*
X94226211Y-26082200D01*
X94277065Y-26006091D01*
X94324631Y-25891256D01*
X94348880Y-25769348D01*
X94348880Y-25645052D01*
X94324631Y-25523144D01*
X94277065Y-25408309D01*
X94208010Y-25304961D01*
X94137337Y-25234288D01*
X94156581Y-25206184D01*
X94159275Y-25201202D01*
X94159278Y-25201198D01*
X94159280Y-25201194D01*
X94250903Y-25028875D01*
X94264926Y-24994852D01*
X94279421Y-24961032D01*
X94281098Y-24955617D01*
X94337507Y-24768780D01*
X94344666Y-24732625D01*
X94352304Y-24696691D01*
X94352896Y-24691062D01*
X94352898Y-24691052D01*
X94352898Y-24691043D01*
X94371942Y-24496820D01*
X94371942Y-24496818D01*
X94373880Y-24477141D01*
X94373880Y-20437259D01*
X94371845Y-20416598D01*
X94371845Y-20403619D01*
X94371253Y-20397981D01*
X94349498Y-20204032D01*
X94341838Y-20167995D01*
X94334699Y-20131940D01*
X94333023Y-20126524D01*
X94274010Y-19940494D01*
X94259501Y-19906643D01*
X94245491Y-19872653D01*
X94242795Y-19867666D01*
X94242795Y-19867665D01*
X94242792Y-19867661D01*
X94148773Y-19696641D01*
X94137407Y-19680042D01*
X94208010Y-19609439D01*
X94277065Y-19506091D01*
X94293572Y-19466237D01*
X95341680Y-19466237D01*
X95341680Y-19580683D01*
X95364008Y-19692931D01*
X95407805Y-19798667D01*
X95471388Y-19893826D01*
X95552314Y-19974752D01*
X95647473Y-20038335D01*
X95753209Y-20082132D01*
X95865457Y-20104460D01*
X95979903Y-20104460D01*
X96092151Y-20082132D01*
X96197887Y-20038335D01*
X96293046Y-19974752D01*
X96373972Y-19893826D01*
X96437555Y-19798667D01*
X96481352Y-19692931D01*
X96503680Y-19580683D01*
X96503680Y-19466237D01*
X96481352Y-19353989D01*
X96437555Y-19248253D01*
X96378680Y-19160140D01*
X96378680Y-18850262D01*
X96477109Y-18891032D01*
X96554952Y-18906516D01*
X96565398Y-18959031D01*
X96609195Y-19064767D01*
X96672778Y-19159926D01*
X96753704Y-19240852D01*
X96814880Y-19281728D01*
X96814880Y-19392883D01*
X96837208Y-19505131D01*
X96881005Y-19610867D01*
X96944588Y-19706026D01*
X97025514Y-19786952D01*
X97120673Y-19850535D01*
X97226409Y-19894332D01*
X97338657Y-19916660D01*
X97453103Y-19916660D01*
X97565351Y-19894332D01*
X97572166Y-19891509D01*
X97581535Y-19914127D01*
X97645118Y-20009286D01*
X97656916Y-20021084D01*
X97673083Y-20074378D01*
X97695196Y-20115748D01*
X97715426Y-20153595D01*
X97755526Y-20202457D01*
X97772410Y-20223031D01*
X97789808Y-20237309D01*
X99338521Y-21786023D01*
X99352799Y-21803421D01*
X99422234Y-21860404D01*
X99501452Y-21902747D01*
X99587408Y-21928822D01*
X99654401Y-21935420D01*
X99654404Y-21935420D01*
X99676800Y-21937626D01*
X99699196Y-21935420D01*
X108120224Y-21935420D01*
X108142620Y-21937626D01*
X108165016Y-21935420D01*
X108165019Y-21935420D01*
X108232012Y-21928822D01*
X108317968Y-21902747D01*
X108397186Y-21860404D01*
X108466621Y-21803421D01*
X108480903Y-21786018D01*
X109984780Y-20282142D01*
X109984780Y-20332683D01*
X110007108Y-20444931D01*
X110042120Y-20529459D01*
X110007108Y-20613986D01*
X109984780Y-20726234D01*
X109984780Y-20840680D01*
X110007108Y-20952928D01*
X110050905Y-21058664D01*
X110082497Y-21105944D01*
X110081114Y-21106868D01*
X110000188Y-21187794D01*
X109936605Y-21282953D01*
X109892808Y-21388689D01*
X109870480Y-21500937D01*
X109870480Y-21615383D01*
X109892808Y-21727631D01*
X109936605Y-21833367D01*
X110000188Y-21928526D01*
X110081114Y-22009452D01*
X110176273Y-22073035D01*
X110282009Y-22116832D01*
X110394257Y-22139160D01*
X110508703Y-22139160D01*
X110620951Y-22116832D01*
X110726687Y-22073035D01*
X110821846Y-22009452D01*
X110902772Y-21928526D01*
X110966355Y-21833367D01*
X111010152Y-21727631D01*
X111032480Y-21615383D01*
X111032480Y-21500937D01*
X111010152Y-21388689D01*
X110966355Y-21282953D01*
X110934763Y-21235673D01*
X110936146Y-21234749D01*
X111017072Y-21153823D01*
X111080655Y-21058664D01*
X111124452Y-20952928D01*
X111146780Y-20840680D01*
X111146780Y-20726234D01*
X111124452Y-20613986D01*
X111089440Y-20529459D01*
X111124452Y-20444931D01*
X111146780Y-20332683D01*
X111146780Y-20218237D01*
X111124452Y-20105989D01*
X111080655Y-20000253D01*
X111017072Y-19905094D01*
X110936146Y-19824168D01*
X110840987Y-19760585D01*
X110735251Y-19716788D01*
X110623003Y-19694460D01*
X110572462Y-19694460D01*
X110589562Y-19677360D01*
X118419360Y-19677360D01*
X118507473Y-19736235D01*
X118613209Y-19780032D01*
X118725457Y-19802360D01*
X118839903Y-19802360D01*
X118952151Y-19780032D01*
X119057887Y-19736235D01*
X119153046Y-19672652D01*
X119233972Y-19591726D01*
X119297555Y-19496567D01*
X119341352Y-19390831D01*
X119363680Y-19278583D01*
X119363680Y-19164137D01*
X119341352Y-19051889D01*
X119297555Y-18946153D01*
X119233972Y-18850994D01*
X119153046Y-18770068D01*
X119057887Y-18706485D01*
X118952151Y-18662688D01*
X118839903Y-18640360D01*
X118725457Y-18640360D01*
X118613209Y-18662688D01*
X118507473Y-18706485D01*
X118419360Y-18765360D01*
X118026412Y-18765360D01*
X118297400Y-18494372D01*
X118316707Y-18478527D01*
X118379939Y-18401479D01*
X118426925Y-18313575D01*
X118455858Y-18218193D01*
X118463180Y-18143854D01*
X118465628Y-18119000D01*
X118463306Y-18095418D01*
X122492400Y-18095418D01*
X122492400Y-18249262D01*
X122522413Y-18400149D01*
X122581287Y-18542282D01*
X122666758Y-18670199D01*
X122775541Y-18778982D01*
X122903458Y-18864453D01*
X123045591Y-18923327D01*
X123196478Y-18953340D01*
X123350322Y-18953340D01*
X123501209Y-18923327D01*
X123643342Y-18864453D01*
X123771259Y-18778982D01*
X123880042Y-18670199D01*
X123965513Y-18542282D01*
X124024387Y-18400149D01*
X124054400Y-18249262D01*
X124054400Y-18095418D01*
X124024387Y-17944531D01*
X123965513Y-17802398D01*
X123880042Y-17674481D01*
X123771259Y-17565698D01*
X123643342Y-17480227D01*
X123501209Y-17421353D01*
X123350322Y-17391340D01*
X123196478Y-17391340D01*
X123045591Y-17421353D01*
X122903458Y-17480227D01*
X122775541Y-17565698D01*
X122666758Y-17674481D01*
X122581287Y-17802398D01*
X122522413Y-17944531D01*
X122492400Y-18095418D01*
X118463306Y-18095418D01*
X118463180Y-18094146D01*
X118463180Y-17785961D01*
X118563822Y-17685319D01*
X118649293Y-17557402D01*
X118708167Y-17415269D01*
X118738180Y-17264382D01*
X118738180Y-17110538D01*
X118728453Y-17061638D01*
X121316380Y-17061638D01*
X121316380Y-17215482D01*
X121346393Y-17366369D01*
X121405267Y-17508502D01*
X121490738Y-17636419D01*
X121599521Y-17745202D01*
X121727438Y-17830673D01*
X121869571Y-17889547D01*
X122020458Y-17919560D01*
X122174302Y-17919560D01*
X122325189Y-17889547D01*
X122467322Y-17830673D01*
X122595239Y-17745202D01*
X122704022Y-17636419D01*
X122789493Y-17508502D01*
X122848367Y-17366369D01*
X122878380Y-17215482D01*
X122878380Y-17061638D01*
X122848367Y-16910751D01*
X122789493Y-16768618D01*
X122704022Y-16640701D01*
X122595239Y-16531918D01*
X122467322Y-16446447D01*
X122325189Y-16387573D01*
X122174302Y-16357560D01*
X122020458Y-16357560D01*
X121869571Y-16387573D01*
X121727438Y-16446447D01*
X121599521Y-16531918D01*
X121490738Y-16640701D01*
X121405267Y-16768618D01*
X121346393Y-16910751D01*
X121316380Y-17061638D01*
X118728453Y-17061638D01*
X118727387Y-17056279D01*
X118825151Y-17036832D01*
X118930887Y-16993035D01*
X119026046Y-16929452D01*
X119106972Y-16848526D01*
X119170555Y-16753367D01*
X119214352Y-16647631D01*
X119236680Y-16535383D01*
X119236680Y-16420937D01*
X119214352Y-16308689D01*
X119170555Y-16202953D01*
X119106972Y-16107794D01*
X119026046Y-16026868D01*
X118930887Y-15963285D01*
X118825151Y-15919488D01*
X118712903Y-15897160D01*
X118616999Y-15897160D01*
X118638787Y-15888135D01*
X118733946Y-15824552D01*
X118814872Y-15743626D01*
X118878455Y-15648467D01*
X118922252Y-15542731D01*
X118944580Y-15430483D01*
X118944580Y-15316037D01*
X118922252Y-15203789D01*
X118878455Y-15098053D01*
X118820862Y-15011858D01*
X123117240Y-15011858D01*
X123117240Y-15165702D01*
X123147253Y-15316589D01*
X123206127Y-15458722D01*
X123291598Y-15586639D01*
X123400381Y-15695422D01*
X123528298Y-15780893D01*
X123670431Y-15839767D01*
X123821318Y-15869780D01*
X123975162Y-15869780D01*
X124126049Y-15839767D01*
X124268182Y-15780893D01*
X124396099Y-15695422D01*
X124504882Y-15586639D01*
X124590353Y-15458722D01*
X124649227Y-15316589D01*
X124679240Y-15165702D01*
X124679240Y-15011858D01*
X124649596Y-14862827D01*
X124664839Y-14852642D01*
X124773622Y-14743859D01*
X124859093Y-14615942D01*
X124917967Y-14473809D01*
X124947980Y-14322922D01*
X124947980Y-14169078D01*
X124917967Y-14018191D01*
X124859093Y-13876058D01*
X124773622Y-13748141D01*
X124664839Y-13639358D01*
X124536922Y-13553887D01*
X124394789Y-13495013D01*
X124243902Y-13465000D01*
X124090058Y-13465000D01*
X123939171Y-13495013D01*
X123797038Y-13553887D01*
X123669121Y-13639358D01*
X123560338Y-13748141D01*
X123474867Y-13876058D01*
X123415993Y-14018191D01*
X123385980Y-14169078D01*
X123385980Y-14322922D01*
X123415624Y-14471953D01*
X123400381Y-14482138D01*
X123291598Y-14590921D01*
X123206127Y-14718838D01*
X123147253Y-14860971D01*
X123117240Y-15011858D01*
X118820862Y-15011858D01*
X118814872Y-15002894D01*
X118733946Y-14921968D01*
X118638787Y-14858385D01*
X118533051Y-14814588D01*
X118420803Y-14792260D01*
X118306357Y-14792260D01*
X118214258Y-14810580D01*
X118086135Y-14810580D01*
X118110980Y-14805638D01*
X118253113Y-14746764D01*
X118381030Y-14661293D01*
X118489813Y-14552510D01*
X118575284Y-14424593D01*
X118634158Y-14282460D01*
X118664171Y-14131573D01*
X118664171Y-13977729D01*
X118634158Y-13826842D01*
X118575284Y-13684709D01*
X118531050Y-13618508D01*
X118536792Y-13617942D01*
X118622748Y-13591867D01*
X118701966Y-13549524D01*
X118771401Y-13492541D01*
X118785683Y-13475138D01*
X118848214Y-13412607D01*
X118952151Y-13391932D01*
X119057887Y-13348135D01*
X119153046Y-13284552D01*
X119233972Y-13203626D01*
X119297555Y-13108467D01*
X119341352Y-13002731D01*
X119363680Y-12890483D01*
X119363680Y-12776037D01*
X119341352Y-12663789D01*
X119297555Y-12558053D01*
X119233972Y-12462894D01*
X119153046Y-12381968D01*
X119057887Y-12318385D01*
X118952151Y-12274588D01*
X118839903Y-12252260D01*
X118725457Y-12252260D01*
X118646694Y-12267927D01*
X118708514Y-12206107D01*
X118812451Y-12185432D01*
X118918187Y-12141635D01*
X119013346Y-12078052D01*
X119094272Y-11997126D01*
X119157855Y-11901967D01*
X119201652Y-11796231D01*
X119223980Y-11683983D01*
X119223980Y-11569537D01*
X119205410Y-11476178D01*
X122431440Y-11476178D01*
X122431440Y-11630022D01*
X122461453Y-11780909D01*
X122520327Y-11923042D01*
X122605798Y-12050959D01*
X122714581Y-12159742D01*
X122842498Y-12245213D01*
X122984631Y-12304087D01*
X123135518Y-12334100D01*
X123289362Y-12334100D01*
X123440249Y-12304087D01*
X123582382Y-12245213D01*
X123710299Y-12159742D01*
X123819082Y-12050959D01*
X123904553Y-11923042D01*
X123963427Y-11780909D01*
X123993440Y-11630022D01*
X123993440Y-11476178D01*
X123963427Y-11325291D01*
X123904553Y-11183158D01*
X123819082Y-11055241D01*
X123710299Y-10946458D01*
X123582382Y-10860987D01*
X123440249Y-10802113D01*
X123289362Y-10772100D01*
X123135518Y-10772100D01*
X122984631Y-10802113D01*
X122842498Y-10860987D01*
X122714581Y-10946458D01*
X122605798Y-11055241D01*
X122520327Y-11183158D01*
X122461453Y-11325291D01*
X122431440Y-11476178D01*
X119205410Y-11476178D01*
X119201652Y-11457289D01*
X119157855Y-11351553D01*
X119094272Y-11256394D01*
X119013346Y-11175468D01*
X118918187Y-11111885D01*
X118812451Y-11068088D01*
X118700203Y-11045760D01*
X118585757Y-11045760D01*
X118473509Y-11068088D01*
X118367773Y-11111885D01*
X118272614Y-11175468D01*
X118191688Y-11256394D01*
X118128105Y-11351553D01*
X118084308Y-11457289D01*
X118063633Y-11561226D01*
X117278079Y-12346780D01*
X110363024Y-12346780D01*
X110302119Y-12296797D01*
X110252096Y-12270059D01*
X116071085Y-12270059D01*
X116093481Y-12272265D01*
X116115877Y-12270059D01*
X116115880Y-12270059D01*
X116182873Y-12263461D01*
X116268829Y-12237386D01*
X116348047Y-12195043D01*
X116417482Y-12138060D01*
X116431764Y-12120657D01*
X118759315Y-9793107D01*
X118863251Y-9772432D01*
X118968987Y-9728635D01*
X119064146Y-9665052D01*
X119145072Y-9584126D01*
X119208655Y-9488967D01*
X119252452Y-9383231D01*
X119274780Y-9270983D01*
X119274780Y-9156537D01*
X119252452Y-9044289D01*
X119208655Y-8938553D01*
X119145072Y-8843394D01*
X119064146Y-8762468D01*
X118968987Y-8698885D01*
X118863251Y-8655088D01*
X118751003Y-8632760D01*
X118636557Y-8632760D01*
X118524309Y-8655088D01*
X118418573Y-8698885D01*
X118323414Y-8762468D01*
X118242488Y-8843394D01*
X118178905Y-8938553D01*
X118135108Y-9044289D01*
X118114433Y-9148225D01*
X115904600Y-11358059D01*
X113603008Y-11358059D01*
X113632780Y-11208382D01*
X113632780Y-11054538D01*
X113602767Y-10903651D01*
X113543893Y-10761518D01*
X113458422Y-10633601D01*
X113349639Y-10524818D01*
X113221722Y-10439347D01*
X113105565Y-10391233D01*
X113122732Y-10374066D01*
X113186315Y-10278907D01*
X113230112Y-10173171D01*
X113252440Y-10060923D01*
X113252440Y-9946477D01*
X113230112Y-9834229D01*
X113186315Y-9728493D01*
X113122732Y-9633334D01*
X113041806Y-9552408D01*
X112946647Y-9488825D01*
X112840911Y-9445028D01*
X112736975Y-9424353D01*
X112384883Y-9072262D01*
X112370601Y-9054859D01*
X112301166Y-8997876D01*
X112221948Y-8955533D01*
X112135992Y-8929458D01*
X112068999Y-8922860D01*
X112068996Y-8922860D01*
X112046600Y-8920654D01*
X112024204Y-8922860D01*
X101251700Y-8922860D01*
X101163587Y-8863985D01*
X101057851Y-8820188D01*
X100945603Y-8797860D01*
X100831157Y-8797860D01*
X100718909Y-8820188D01*
X100613173Y-8863985D01*
X100518014Y-8927568D01*
X100442680Y-9002902D01*
X100442680Y-7408741D01*
X100788815Y-7062607D01*
X100892751Y-7041932D01*
X100998487Y-6998135D01*
X101093646Y-6934552D01*
X101174572Y-6853626D01*
X101238155Y-6758467D01*
X101281952Y-6652731D01*
X101282965Y-6647638D01*
X109886380Y-6647638D01*
X109886380Y-6801482D01*
X109916393Y-6952369D01*
X109975267Y-7094502D01*
X110060738Y-7222419D01*
X110169521Y-7331202D01*
X110297438Y-7416673D01*
X110439571Y-7475547D01*
X110590458Y-7505560D01*
X110744302Y-7505560D01*
X110895189Y-7475547D01*
X111037322Y-7416673D01*
X111165239Y-7331202D01*
X111228160Y-7268282D01*
X111335640Y-7375762D01*
X111463557Y-7461233D01*
X111605690Y-7520107D01*
X111756577Y-7550120D01*
X111910421Y-7550120D01*
X112061308Y-7520107D01*
X112203441Y-7461233D01*
X112331358Y-7375762D01*
X112440141Y-7266979D01*
X112525612Y-7139062D01*
X112584486Y-6996929D01*
X112614499Y-6846042D01*
X112614499Y-6692198D01*
X112595531Y-6596838D01*
X112807380Y-6596838D01*
X112807380Y-6750682D01*
X112837393Y-6901569D01*
X112896267Y-7043702D01*
X112981738Y-7171619D01*
X113090521Y-7280402D01*
X113218438Y-7365873D01*
X113360571Y-7424747D01*
X113511458Y-7454760D01*
X113665302Y-7454760D01*
X113816189Y-7424747D01*
X113958322Y-7365873D01*
X114086239Y-7280402D01*
X114195022Y-7171619D01*
X114280493Y-7043702D01*
X114339367Y-6901569D01*
X114367141Y-6761938D01*
X115120700Y-6761938D01*
X115120700Y-6915782D01*
X115150713Y-7066669D01*
X115209587Y-7208802D01*
X115295058Y-7336719D01*
X115403841Y-7445502D01*
X115531758Y-7530973D01*
X115673891Y-7589847D01*
X115824778Y-7619860D01*
X115978622Y-7619860D01*
X116129509Y-7589847D01*
X116271642Y-7530973D01*
X116399559Y-7445502D01*
X116508342Y-7336719D01*
X116593813Y-7208802D01*
X116652687Y-7066669D01*
X116682700Y-6915782D01*
X116682700Y-6761938D01*
X116652687Y-6611051D01*
X116593813Y-6468918D01*
X116508342Y-6341001D01*
X116399559Y-6232218D01*
X116271642Y-6146747D01*
X116129509Y-6087873D01*
X115978622Y-6057860D01*
X115824778Y-6057860D01*
X115673891Y-6087873D01*
X115531758Y-6146747D01*
X115403841Y-6232218D01*
X115295058Y-6341001D01*
X115209587Y-6468918D01*
X115150713Y-6611051D01*
X115120700Y-6761938D01*
X114367141Y-6761938D01*
X114369380Y-6750682D01*
X114369380Y-6596838D01*
X114339367Y-6445951D01*
X114280493Y-6303818D01*
X114195022Y-6175901D01*
X114086239Y-6067118D01*
X113958322Y-5981647D01*
X113866131Y-5943460D01*
X113906602Y-5943460D01*
X114057489Y-5913447D01*
X114199622Y-5854573D01*
X114327539Y-5769102D01*
X114436322Y-5660319D01*
X114521793Y-5532402D01*
X114580667Y-5390269D01*
X114610680Y-5239382D01*
X114610680Y-5085538D01*
X114580667Y-4934651D01*
X114521793Y-4792518D01*
X114436322Y-4664601D01*
X114327539Y-4555818D01*
X114199622Y-4470347D01*
X114057489Y-4411473D01*
X113906602Y-4381460D01*
X113752758Y-4381460D01*
X113601871Y-4411473D01*
X113459738Y-4470347D01*
X113331821Y-4555818D01*
X113223038Y-4664601D01*
X113137567Y-4792518D01*
X113078693Y-4934651D01*
X113048680Y-5085538D01*
X113048680Y-5239382D01*
X113078693Y-5390269D01*
X113137567Y-5532402D01*
X113223038Y-5660319D01*
X113331821Y-5769102D01*
X113459738Y-5854573D01*
X113551929Y-5892760D01*
X113511458Y-5892760D01*
X113360571Y-5922773D01*
X113218438Y-5981647D01*
X113090521Y-6067118D01*
X112981738Y-6175901D01*
X112896267Y-6303818D01*
X112837393Y-6445951D01*
X112807380Y-6596838D01*
X112595531Y-6596838D01*
X112584486Y-6541311D01*
X112525612Y-6399178D01*
X112440141Y-6271261D01*
X112331358Y-6162478D01*
X112203441Y-6077007D01*
X112061308Y-6018133D01*
X111910421Y-5988120D01*
X111756577Y-5988120D01*
X111626857Y-6013923D01*
X111651593Y-5976902D01*
X111710467Y-5834769D01*
X111740480Y-5683882D01*
X111740480Y-5530038D01*
X111710467Y-5379151D01*
X111651593Y-5237018D01*
X111566122Y-5109101D01*
X111457339Y-5000318D01*
X111329422Y-4914847D01*
X111187289Y-4855973D01*
X111036402Y-4825960D01*
X110882558Y-4825960D01*
X110731671Y-4855973D01*
X110589538Y-4914847D01*
X110461621Y-5000318D01*
X110352838Y-5109101D01*
X110267367Y-5237018D01*
X110208493Y-5379151D01*
X110178480Y-5530038D01*
X110178480Y-5683882D01*
X110208493Y-5834769D01*
X110267367Y-5976902D01*
X110302954Y-6030162D01*
X110297438Y-6032447D01*
X110169521Y-6117918D01*
X110060738Y-6226701D01*
X109975267Y-6354618D01*
X109916393Y-6496751D01*
X109886380Y-6647638D01*
X101282965Y-6647638D01*
X101304280Y-6540483D01*
X101304280Y-6426037D01*
X101281952Y-6313789D01*
X101238155Y-6208053D01*
X101174572Y-6112894D01*
X101093646Y-6031968D01*
X100998487Y-5968385D01*
X100892751Y-5924588D01*
X100780503Y-5902260D01*
X100666057Y-5902260D01*
X100553809Y-5924588D01*
X100448073Y-5968385D01*
X100352914Y-6031968D01*
X100271988Y-6112894D01*
X100208405Y-6208053D01*
X100164608Y-6313789D01*
X100143933Y-6417725D01*
X99680078Y-6881581D01*
X99662680Y-6895859D01*
X99648402Y-6913257D01*
X99648401Y-6913258D01*
X99605696Y-6965295D01*
X99563353Y-7044513D01*
X99537279Y-7130469D01*
X99528474Y-7219860D01*
X99530681Y-7242266D01*
X99530680Y-10210481D01*
X98982180Y-10758981D01*
X98982180Y-7027741D01*
X99963314Y-6046607D01*
X100067251Y-6025932D01*
X100172987Y-5982135D01*
X100268146Y-5918552D01*
X100349072Y-5837626D01*
X100412655Y-5742467D01*
X100456452Y-5636731D01*
X100478780Y-5524483D01*
X100478780Y-5410037D01*
X100456452Y-5297789D01*
X100412655Y-5192053D01*
X100349072Y-5096894D01*
X100337716Y-5085538D01*
X107028880Y-5085538D01*
X107028880Y-5239382D01*
X107058893Y-5390269D01*
X107117767Y-5532402D01*
X107203238Y-5660319D01*
X107312021Y-5769102D01*
X107439938Y-5854573D01*
X107582071Y-5913447D01*
X107732958Y-5943460D01*
X107886802Y-5943460D01*
X108037689Y-5913447D01*
X108179822Y-5854573D01*
X108307739Y-5769102D01*
X108416522Y-5660319D01*
X108501993Y-5532402D01*
X108560867Y-5390269D01*
X108590880Y-5239382D01*
X108590880Y-5085538D01*
X108560867Y-4934651D01*
X108501993Y-4792518D01*
X108416522Y-4664601D01*
X108307739Y-4555818D01*
X108179822Y-4470347D01*
X108037689Y-4411473D01*
X107886802Y-4381460D01*
X107732958Y-4381460D01*
X107582071Y-4411473D01*
X107439938Y-4470347D01*
X107312021Y-4555818D01*
X107203238Y-4664601D01*
X107117767Y-4792518D01*
X107058893Y-4934651D01*
X107028880Y-5085538D01*
X100337716Y-5085538D01*
X100268146Y-5015968D01*
X100172987Y-4952385D01*
X100067251Y-4908588D01*
X99955003Y-4886260D01*
X99840557Y-4886260D01*
X99728309Y-4908588D01*
X99622573Y-4952385D01*
X99527414Y-5015968D01*
X99446488Y-5096894D01*
X99382905Y-5192053D01*
X99339108Y-5297789D01*
X99318433Y-5401726D01*
X98219578Y-6500581D01*
X98202180Y-6514859D01*
X98187902Y-6532257D01*
X98187901Y-6532258D01*
X98145196Y-6584295D01*
X98102853Y-6663513D01*
X98094152Y-6692198D01*
X98076779Y-6749468D01*
X98075967Y-6757713D01*
X98067974Y-6838860D01*
X98070181Y-6861266D01*
X98070180Y-10308074D01*
X98050455Y-10260453D01*
X97991580Y-10172340D01*
X97991580Y-5879453D01*
X97993786Y-5857057D01*
X97988541Y-5803805D01*
X97984982Y-5767666D01*
X97958907Y-5681710D01*
X97916564Y-5602492D01*
X97887042Y-5566519D01*
X97865652Y-5458987D01*
X97821855Y-5353251D01*
X97758272Y-5258092D01*
X97677346Y-5177166D01*
X97582187Y-5113583D01*
X97476451Y-5069786D01*
X97364203Y-5047458D01*
X97249757Y-5047458D01*
X97137509Y-5069786D01*
X97031773Y-5113583D01*
X96936614Y-5177166D01*
X96855688Y-5258092D01*
X96792105Y-5353251D01*
X96748308Y-5458987D01*
X96725980Y-5571235D01*
X96725980Y-5685681D01*
X96748308Y-5797929D01*
X96792105Y-5903665D01*
X96855688Y-5998824D01*
X96936614Y-6079750D01*
X97031773Y-6143333D01*
X97079581Y-6163136D01*
X97079580Y-10172340D01*
X97020705Y-10260453D01*
X96976908Y-10366189D01*
X96954580Y-10478437D01*
X96954580Y-10592883D01*
X96976908Y-10705131D01*
X97020705Y-10810867D01*
X97084288Y-10906026D01*
X97165214Y-10986952D01*
X97260373Y-11050535D01*
X97366109Y-11094332D01*
X97478357Y-11116660D01*
X97592803Y-11116660D01*
X97705051Y-11094332D01*
X97810787Y-11050535D01*
X97905946Y-10986952D01*
X97986872Y-10906026D01*
X98050455Y-10810867D01*
X98070180Y-10763246D01*
X98070180Y-10967979D01*
X98022496Y-11015663D01*
X97918559Y-11036338D01*
X97812823Y-11080135D01*
X97717664Y-11143718D01*
X97636738Y-11224644D01*
X97573155Y-11319803D01*
X97529358Y-11425539D01*
X97507030Y-11537787D01*
X97507030Y-11652233D01*
X97508770Y-11660980D01*
X97123636Y-11660980D01*
X97101240Y-11658774D01*
X97078844Y-11660980D01*
X97078841Y-11660980D01*
X97011848Y-11667578D01*
X96925892Y-11693653D01*
X96846674Y-11735995D01*
X96817768Y-11759718D01*
X96777239Y-11792979D01*
X96762961Y-11810377D01*
X96007238Y-12566101D01*
X95989840Y-12580379D01*
X95975562Y-12597777D01*
X95975561Y-12597778D01*
X95932856Y-12649815D01*
X95890513Y-12729033D01*
X95876255Y-12776037D01*
X95864637Y-12814337D01*
X95864439Y-12814989D01*
X95855634Y-12904380D01*
X95857841Y-12926786D01*
X95857840Y-14540890D01*
X95773614Y-14597168D01*
X95692688Y-14678094D01*
X95629105Y-14773253D01*
X95585308Y-14878989D01*
X95562980Y-14991237D01*
X95562980Y-15105683D01*
X95585308Y-15217931D01*
X95629105Y-15323667D01*
X95692688Y-15418826D01*
X95773614Y-15499752D01*
X95868773Y-15563335D01*
X95974509Y-15607132D01*
X96086757Y-15629460D01*
X96201203Y-15629460D01*
X96313451Y-15607132D01*
X96419187Y-15563335D01*
X96514346Y-15499752D01*
X96595272Y-15418826D01*
X96658855Y-15323667D01*
X96702652Y-15217931D01*
X96724980Y-15105683D01*
X96724980Y-15076748D01*
X96737167Y-15053948D01*
X96763242Y-14967992D01*
X96769840Y-14900999D01*
X96769840Y-14900997D01*
X96772046Y-14878601D01*
X96769840Y-14856205D01*
X96769840Y-13950198D01*
X96794394Y-13974752D01*
X96889553Y-14038335D01*
X96995289Y-14082132D01*
X97017209Y-14086492D01*
X97017786Y-14087886D01*
X97074826Y-14173253D01*
X97002598Y-14245481D01*
X96917127Y-14373398D01*
X96858253Y-14515531D01*
X96828240Y-14666418D01*
X96828240Y-14820262D01*
X96858253Y-14971149D01*
X96917127Y-15113282D01*
X97002598Y-15241199D01*
X97111381Y-15349982D01*
X97239298Y-15435453D01*
X97298064Y-15459795D01*
X95616078Y-17141781D01*
X95598680Y-17156059D01*
X95584402Y-17173457D01*
X95584401Y-17173458D01*
X95541696Y-17225495D01*
X95499353Y-17304713D01*
X95473279Y-17390669D01*
X95464474Y-17480060D01*
X95466681Y-17502466D01*
X95466680Y-19160140D01*
X95407805Y-19248253D01*
X95364008Y-19353989D01*
X95341680Y-19466237D01*
X94293572Y-19466237D01*
X94324631Y-19391256D01*
X94348880Y-19269348D01*
X94348880Y-19145052D01*
X94324631Y-19023144D01*
X94277065Y-18908309D01*
X94226211Y-18832200D01*
X94277065Y-18756091D01*
X94324631Y-18641256D01*
X94348880Y-18519348D01*
X94348880Y-18395052D01*
X94324631Y-18273144D01*
X94277065Y-18158309D01*
X94226211Y-18082200D01*
X94277065Y-18006091D01*
X94324631Y-17891256D01*
X94348880Y-17769348D01*
X94348880Y-17645052D01*
X94324631Y-17523144D01*
X94277065Y-17408309D01*
X94208010Y-17304961D01*
X94137337Y-17234288D01*
X94156581Y-17206184D01*
X94159275Y-17201202D01*
X94159278Y-17201198D01*
X94159280Y-17201194D01*
X94250903Y-17028875D01*
X94264926Y-16994852D01*
X94279421Y-16961032D01*
X94281098Y-16955617D01*
X94337507Y-16768780D01*
X94344666Y-16732625D01*
X94352304Y-16696691D01*
X94352896Y-16691062D01*
X94352898Y-16691052D01*
X94352898Y-16691043D01*
X94371942Y-16496820D01*
X94371942Y-16496818D01*
X94373880Y-16477141D01*
X94373880Y-12437259D01*
X94371845Y-12416598D01*
X94371845Y-12403619D01*
X94371253Y-12397981D01*
X94349498Y-12204032D01*
X94341838Y-12167995D01*
X94334699Y-12131940D01*
X94333023Y-12126524D01*
X94274010Y-11940494D01*
X94259501Y-11906643D01*
X94245491Y-11872653D01*
X94242795Y-11867666D01*
X94242795Y-11867665D01*
X94242792Y-11867661D01*
X94148773Y-11696641D01*
X94137407Y-11680042D01*
X94208010Y-11609439D01*
X94277065Y-11506091D01*
X94324631Y-11391256D01*
X94348880Y-11269348D01*
X94348880Y-11145052D01*
X94324631Y-11023144D01*
X94277065Y-10908309D01*
X94226211Y-10832200D01*
X94277065Y-10756091D01*
X94324631Y-10641256D01*
X94348880Y-10519348D01*
X94348880Y-10395052D01*
X94324631Y-10273144D01*
X94277065Y-10158309D01*
X94226211Y-10082200D01*
X94277065Y-10006091D01*
X94324631Y-9891256D01*
X94348880Y-9769348D01*
X94348880Y-9645052D01*
X94324631Y-9523144D01*
X94277065Y-9408309D01*
X94208010Y-9304961D01*
X94137337Y-9234288D01*
X94156581Y-9206184D01*
X94159275Y-9201202D01*
X94159278Y-9201198D01*
X94159280Y-9201194D01*
X94250903Y-9028875D01*
X94264926Y-8994852D01*
X94279421Y-8961032D01*
X94281098Y-8955617D01*
X94337507Y-8768780D01*
X94344666Y-8732625D01*
X94352304Y-8696691D01*
X94352896Y-8691062D01*
X94352898Y-8691052D01*
X94352898Y-8691043D01*
X94371942Y-8496820D01*
X94371942Y-8496818D01*
X94373880Y-8477141D01*
X94373880Y-4437259D01*
X94371845Y-4416598D01*
X94371845Y-4403619D01*
X94371253Y-4397981D01*
X94349498Y-4204032D01*
X94341838Y-4167995D01*
X94334699Y-4131940D01*
X94333023Y-4126524D01*
X94274010Y-3940494D01*
X94259501Y-3906643D01*
X94245491Y-3872653D01*
X94242795Y-3867666D01*
X94242795Y-3867665D01*
X94242792Y-3867661D01*
X94148773Y-3696641D01*
X94137407Y-3680042D01*
X94208010Y-3609439D01*
X94277065Y-3506091D01*
X94324631Y-3391256D01*
X94348880Y-3269348D01*
X94348880Y-3145052D01*
X94324631Y-3023144D01*
X94277065Y-2908309D01*
X94226211Y-2832200D01*
X94277065Y-2756091D01*
X94324631Y-2641256D01*
X94348880Y-2519348D01*
X94348880Y-2395052D01*
X94324631Y-2273144D01*
X94277065Y-2158309D01*
X94226211Y-2082200D01*
X94277065Y-2006091D01*
X94324631Y-1891256D01*
X94348880Y-1769348D01*
X94348880Y-1645052D01*
X94328430Y-1542238D01*
X97199080Y-1542238D01*
X97199080Y-1696082D01*
X97229093Y-1846969D01*
X97287967Y-1989102D01*
X97373438Y-2117019D01*
X97482221Y-2225802D01*
X97610138Y-2311273D01*
X97752271Y-2370147D01*
X97903158Y-2400160D01*
X98057002Y-2400160D01*
X98207889Y-2370147D01*
X98350022Y-2311273D01*
X98477939Y-2225802D01*
X98534123Y-2169618D01*
X103665920Y-2169618D01*
X103665920Y-2323462D01*
X103695933Y-2474349D01*
X103754807Y-2616482D01*
X103840278Y-2744399D01*
X103949061Y-2853182D01*
X104076978Y-2938653D01*
X104219111Y-2997527D01*
X104369998Y-3027540D01*
X104523842Y-3027540D01*
X104674729Y-2997527D01*
X104816862Y-2938653D01*
X104944779Y-2853182D01*
X105053562Y-2744399D01*
X105139033Y-2616482D01*
X105197907Y-2474349D01*
X105227920Y-2323462D01*
X105227920Y-2169618D01*
X105197907Y-2018731D01*
X105139033Y-1876598D01*
X105053562Y-1748681D01*
X104944779Y-1639898D01*
X104923948Y-1625979D01*
X108063880Y-1625979D01*
X108063880Y-3625979D01*
X108066320Y-3650755D01*
X108073547Y-3674580D01*
X108085283Y-3696536D01*
X108101077Y-3715782D01*
X108120323Y-3731576D01*
X108142279Y-3743312D01*
X108166104Y-3750539D01*
X108190880Y-3752979D01*
X116690880Y-3752979D01*
X116715656Y-3750539D01*
X116739481Y-3743312D01*
X116761437Y-3731576D01*
X116780683Y-3715782D01*
X116796477Y-3696536D01*
X116808213Y-3674580D01*
X116815440Y-3650755D01*
X116817880Y-3625979D01*
X116817880Y-1625979D01*
X116815440Y-1601203D01*
X116808213Y-1577378D01*
X116796477Y-1555422D01*
X116780683Y-1536176D01*
X116761437Y-1520382D01*
X116739481Y-1508646D01*
X116715656Y-1501419D01*
X116690880Y-1498979D01*
X108190880Y-1498979D01*
X108166104Y-1501419D01*
X108142279Y-1508646D01*
X108120323Y-1520382D01*
X108101077Y-1536176D01*
X108085283Y-1555422D01*
X108073547Y-1577378D01*
X108066320Y-1601203D01*
X108063880Y-1625979D01*
X104923948Y-1625979D01*
X104816862Y-1554427D01*
X104674729Y-1495553D01*
X104523842Y-1465540D01*
X104369998Y-1465540D01*
X104219111Y-1495553D01*
X104076978Y-1554427D01*
X103949061Y-1639898D01*
X103840278Y-1748681D01*
X103754807Y-1876598D01*
X103695933Y-2018731D01*
X103665920Y-2169618D01*
X98534123Y-2169618D01*
X98586722Y-2117019D01*
X98672193Y-1989102D01*
X98731067Y-1846969D01*
X98761080Y-1696082D01*
X98761080Y-1542238D01*
X98731067Y-1391351D01*
X98672193Y-1249218D01*
X98586722Y-1121301D01*
X98477939Y-1012518D01*
X98350022Y-927047D01*
X98207889Y-868173D01*
X98057002Y-838160D01*
X97903158Y-838160D01*
X97752271Y-868173D01*
X97610138Y-927047D01*
X97482221Y-1012518D01*
X97373438Y-1121301D01*
X97287967Y-1249218D01*
X97229093Y-1391351D01*
X97199080Y-1542238D01*
X94328430Y-1542238D01*
X94324631Y-1523144D01*
X94277065Y-1408309D01*
X94208010Y-1304961D01*
X94137337Y-1234288D01*
X94156581Y-1206184D01*
X94159275Y-1201202D01*
X94159278Y-1201198D01*
X94159280Y-1201194D01*
X94250903Y-1028875D01*
X94264926Y-994852D01*
X94279421Y-961032D01*
X94281098Y-955617D01*
X94337507Y-768780D01*
X94344666Y-732625D01*
X94352304Y-696691D01*
X94352896Y-691062D01*
X94352898Y-691052D01*
X94352898Y-691043D01*
X94368089Y-536120D01*
X94368230Y-535649D01*
X94373935Y-475984D01*
X94370619Y688557D01*
X95481480Y688557D01*
X95481480Y416523D01*
X95534551Y149717D01*
X95638654Y-101609D01*
X95789787Y-327796D01*
X95982144Y-520153D01*
X96208331Y-671286D01*
X96459657Y-775389D01*
X96726463Y-828460D01*
X96998497Y-828460D01*
X97265303Y-775389D01*
X97516629Y-671286D01*
X97742816Y-520153D01*
X97935173Y-327796D01*
X98086306Y-101609D01*
X98190409Y149717D01*
X98243480Y416523D01*
X98243480Y688557D01*
X98190409Y955363D01*
X98086306Y1206689D01*
X97935173Y1432876D01*
X97742816Y1625233D01*
X97516629Y1776366D01*
X97265303Y1880469D01*
X96998497Y1933540D01*
X96726463Y1933540D01*
X96459657Y1880469D01*
X96208331Y1776366D01*
X95982144Y1625233D01*
X95789787Y1432876D01*
X95638654Y1206689D01*
X95534551Y955363D01*
X95481480Y688557D01*
X94370619Y688557D01*
X94365204Y2590074D01*
X111125680Y2590074D01*
X111125680Y740074D01*
X111128120Y715298D01*
X111135347Y691473D01*
X111147083Y669517D01*
X111162877Y650271D01*
X111182123Y634477D01*
X111204079Y622741D01*
X111227904Y615514D01*
X111252680Y613074D01*
X113702680Y613074D01*
X113727456Y615514D01*
X113751281Y622741D01*
X113773237Y634477D01*
X113792483Y650271D01*
X113808277Y669517D01*
X113818454Y688557D01*
X123481480Y688557D01*
X123481480Y416523D01*
X123534551Y149717D01*
X123638654Y-101609D01*
X123789787Y-327796D01*
X123982144Y-520153D01*
X124208331Y-671286D01*
X124459657Y-775389D01*
X124726463Y-828460D01*
X124998497Y-828460D01*
X125265303Y-775389D01*
X125516629Y-671286D01*
X125742816Y-520153D01*
X125935173Y-327796D01*
X126086306Y-101609D01*
X126190409Y149717D01*
X126243480Y416523D01*
X126243480Y688557D01*
X126190409Y955363D01*
X126086306Y1206689D01*
X125935173Y1432876D01*
X125742816Y1625233D01*
X125516629Y1776366D01*
X125265303Y1880469D01*
X124998497Y1933540D01*
X124726463Y1933540D01*
X124459657Y1880469D01*
X124208331Y1776366D01*
X123982144Y1625233D01*
X123789787Y1432876D01*
X123638654Y1206689D01*
X123534551Y955363D01*
X123481480Y688557D01*
X113818454Y688557D01*
X113820013Y691473D01*
X113827240Y715298D01*
X113829680Y740074D01*
X113829680Y2590074D01*
X113827240Y2614850D01*
X113820013Y2638675D01*
X113808277Y2660631D01*
X113792483Y2679877D01*
X113773237Y2695671D01*
X113751281Y2707407D01*
X113727456Y2714634D01*
X113702680Y2717074D01*
X111252680Y2717074D01*
X111227904Y2714634D01*
X111204079Y2707407D01*
X111182123Y2695671D01*
X111162877Y2679877D01*
X111147083Y2660631D01*
X111135347Y2638675D01*
X111128120Y2614850D01*
X111125680Y2590074D01*
X94365204Y2590074D01*
X94363617Y3146980D01*
X127506480Y3146980D01*
X127506481Y-30041051D01*
G37*
G04 #@! TD.AperFunction*
D15*
X100336821Y-17543620D02*
X98429196Y-17543620D01*
X98406800Y-17541414D01*
X98384404Y-17543620D01*
X98384401Y-17543620D01*
X98317408Y-17550218D01*
X98234234Y-17575449D01*
X98231452Y-17576293D01*
X98152234Y-17618636D01*
X98118847Y-17646036D01*
X98082799Y-17675619D01*
X98068521Y-17693017D01*
X97451776Y-18309763D01*
X97399277Y-18274685D01*
X97363822Y-18259999D01*
X98156261Y-17467560D01*
X100351951Y-17467560D01*
X100336821Y-17543620D01*
G04 #@! TA.AperFunction,Conductor*
D16*
G36*
X100336821Y-17543620D02*
G01*
X98429196Y-17543620D01*
X98406800Y-17541414D01*
X98384404Y-17543620D01*
X98384401Y-17543620D01*
X98317408Y-17550218D01*
X98234234Y-17575449D01*
X98231452Y-17576293D01*
X98152234Y-17618636D01*
X98118847Y-17646036D01*
X98082799Y-17675619D01*
X98068521Y-17693017D01*
X97451776Y-18309763D01*
X97399277Y-18274685D01*
X97363822Y-18259999D01*
X98156261Y-17467560D01*
X100351951Y-17467560D01*
X100336821Y-17543620D01*
G37*
G04 #@! TD.AperFunction*
D15*
X109719321Y-13492541D02*
X109768897Y-13533226D01*
X109788757Y-13549525D01*
X109802353Y-13556792D01*
X109867974Y-13591867D01*
X109953930Y-13617942D01*
X110020923Y-13624540D01*
X110020926Y-13624540D01*
X110043322Y-13626746D01*
X110065718Y-13624540D01*
X117231261Y-13624540D01*
X117191058Y-13684709D01*
X117132184Y-13826842D01*
X117102171Y-13977729D01*
X117102171Y-14131573D01*
X117132184Y-14282460D01*
X117191058Y-14424593D01*
X117276529Y-14552510D01*
X117385312Y-14661293D01*
X117513229Y-14746764D01*
X117655362Y-14805638D01*
X117680207Y-14810580D01*
X104349480Y-14810580D01*
X104349480Y-14733237D01*
X104327152Y-14620989D01*
X104283355Y-14515253D01*
X104219772Y-14420094D01*
X104143195Y-14343517D01*
X104114269Y-14308270D01*
X104093187Y-14202286D01*
X104081123Y-14173160D01*
X106426064Y-14173160D01*
X106448460Y-14175366D01*
X106470856Y-14173160D01*
X106470859Y-14173160D01*
X106537852Y-14166562D01*
X106623808Y-14140487D01*
X106703026Y-14098144D01*
X106772461Y-14041161D01*
X106786743Y-14023758D01*
X107326709Y-13483792D01*
X109712141Y-13483792D01*
X109719321Y-13492541D01*
G04 #@! TA.AperFunction,Conductor*
D16*
G36*
X109719321Y-13492541D02*
G01*
X109768897Y-13533226D01*
X109788757Y-13549525D01*
X109802353Y-13556792D01*
X109867974Y-13591867D01*
X109953930Y-13617942D01*
X110020923Y-13624540D01*
X110020926Y-13624540D01*
X110043322Y-13626746D01*
X110065718Y-13624540D01*
X117231261Y-13624540D01*
X117191058Y-13684709D01*
X117132184Y-13826842D01*
X117102171Y-13977729D01*
X117102171Y-14131573D01*
X117132184Y-14282460D01*
X117191058Y-14424593D01*
X117276529Y-14552510D01*
X117385312Y-14661293D01*
X117513229Y-14746764D01*
X117655362Y-14805638D01*
X117680207Y-14810580D01*
X104349480Y-14810580D01*
X104349480Y-14733237D01*
X104327152Y-14620989D01*
X104283355Y-14515253D01*
X104219772Y-14420094D01*
X104143195Y-14343517D01*
X104114269Y-14308270D01*
X104093187Y-14202286D01*
X104081123Y-14173160D01*
X106426064Y-14173160D01*
X106448460Y-14175366D01*
X106470856Y-14173160D01*
X106470859Y-14173160D01*
X106537852Y-14166562D01*
X106623808Y-14140487D01*
X106703026Y-14098144D01*
X106772461Y-14041161D01*
X106786743Y-14023758D01*
X107326709Y-13483792D01*
X109712141Y-13483792D01*
X109719321Y-13492541D01*
G37*
G04 #@! TD.AperFunction*
D15*
X98568150Y-14282111D02*
X98831797Y-14545759D01*
X98423377Y-14545759D01*
X98400981Y-14543553D01*
X98378585Y-14545759D01*
X98378582Y-14545759D01*
X98366477Y-14546951D01*
X98360227Y-14515531D01*
X98301353Y-14373398D01*
X98237499Y-14277834D01*
X98568150Y-14282111D01*
G04 #@! TA.AperFunction,Conductor*
D16*
G36*
X98568150Y-14282111D02*
G01*
X98831797Y-14545759D01*
X98423377Y-14545759D01*
X98400981Y-14543553D01*
X98378585Y-14545759D01*
X98378582Y-14545759D01*
X98366477Y-14546951D01*
X98360227Y-14515531D01*
X98301353Y-14373398D01*
X98237499Y-14277834D01*
X98568150Y-14282111D01*
G37*
G04 #@! TD.AperFunction*
D15*
X100495942Y-13474352D02*
X100511836Y-13475918D01*
X100482108Y-13547689D01*
X100459780Y-13659937D01*
X100459780Y-13774383D01*
X100478951Y-13870759D01*
X99446561Y-13870759D01*
X99099839Y-13524038D01*
X99087632Y-13508765D01*
X99068160Y-13492359D01*
X99066070Y-13490269D01*
X99051028Y-13477925D01*
X99046786Y-13474351D01*
X100495942Y-13474352D01*
G04 #@! TA.AperFunction,Conductor*
D16*
G36*
X100495942Y-13474352D02*
G01*
X100511836Y-13475918D01*
X100482108Y-13547689D01*
X100459780Y-13659937D01*
X100459780Y-13774383D01*
X100478951Y-13870759D01*
X99446561Y-13870759D01*
X99099839Y-13524038D01*
X99087632Y-13508765D01*
X99068160Y-13492359D01*
X99066070Y-13490269D01*
X99051028Y-13477925D01*
X99046786Y-13474351D01*
X100495942Y-13474352D01*
G37*
G04 #@! TD.AperFunction*
G04 #@! TD*
D15*
G04 #@! TO.N,GND*
X91561880Y-477140D02*
X91563915Y-497801D01*
X91563915Y-510780D01*
X91564507Y-516418D01*
X91586262Y-710368D01*
X91593922Y-746405D01*
X91601061Y-782460D01*
X91602737Y-787876D01*
X91661750Y-973906D01*
X91676259Y-1007757D01*
X91690269Y-1041747D01*
X91692963Y-1046730D01*
X91692965Y-1046735D01*
X91692968Y-1046739D01*
X91786987Y-1217760D01*
X91798352Y-1234359D01*
X91727750Y-1304961D01*
X91658695Y-1408309D01*
X91611129Y-1523144D01*
X91586880Y-1645052D01*
X91586880Y-1769348D01*
X91611129Y-1891256D01*
X91658695Y-2006091D01*
X91709549Y-2082200D01*
X91658695Y-2158309D01*
X91611129Y-2273144D01*
X91586880Y-2395052D01*
X91586880Y-2519348D01*
X91611129Y-2641256D01*
X91658695Y-2756091D01*
X91709549Y-2832200D01*
X91658695Y-2908309D01*
X91611129Y-3023144D01*
X91586880Y-3145052D01*
X91586880Y-3269348D01*
X91611129Y-3391256D01*
X91658695Y-3506091D01*
X91727750Y-3609439D01*
X91798422Y-3680111D01*
X91779179Y-3708216D01*
X91776485Y-3713198D01*
X91776482Y-3713202D01*
X91776482Y-3713203D01*
X91684857Y-3885525D01*
X91670829Y-3919560D01*
X91656339Y-3953368D01*
X91654662Y-3958783D01*
X91598253Y-4145619D01*
X91591091Y-4181789D01*
X91583456Y-4217709D01*
X91582864Y-4223336D01*
X91582862Y-4223347D01*
X91582862Y-4223357D01*
X91563818Y-4417581D01*
X91561880Y-4437260D01*
X91561881Y-8477141D01*
X91563915Y-8497792D01*
X91563915Y-8510780D01*
X91564507Y-8516418D01*
X91586262Y-8710368D01*
X91593922Y-8746405D01*
X91601061Y-8782460D01*
X91602737Y-8787876D01*
X91661750Y-8973906D01*
X91676259Y-9007757D01*
X91690269Y-9041747D01*
X91692963Y-9046730D01*
X91692965Y-9046735D01*
X91692968Y-9046739D01*
X91786987Y-9217760D01*
X91798352Y-9234359D01*
X91727750Y-9304961D01*
X91658695Y-9408309D01*
X91611129Y-9523144D01*
X91586880Y-9645052D01*
X91586880Y-9769348D01*
X91611129Y-9891256D01*
X91658695Y-10006091D01*
X91709549Y-10082200D01*
X91658695Y-10158309D01*
X91611129Y-10273144D01*
X91586880Y-10395052D01*
X91586880Y-10519348D01*
X91611129Y-10641256D01*
X91658695Y-10756091D01*
X91709549Y-10832200D01*
X91658695Y-10908309D01*
X91611129Y-11023144D01*
X91586880Y-11145052D01*
X91586880Y-11269348D01*
X91611129Y-11391256D01*
X91658695Y-11506091D01*
X91727750Y-11609439D01*
X91798422Y-11680111D01*
X91779179Y-11708216D01*
X91776485Y-11713198D01*
X91776482Y-11713202D01*
X91776482Y-11713203D01*
X91684857Y-11885525D01*
X91670829Y-11919560D01*
X91656339Y-11953368D01*
X91654662Y-11958783D01*
X91598253Y-12145619D01*
X91591091Y-12181789D01*
X91583456Y-12217709D01*
X91582864Y-12223336D01*
X91582862Y-12223347D01*
X91582862Y-12223357D01*
X91563818Y-12417581D01*
X91561880Y-12437260D01*
X91561881Y-16437249D01*
X91559916Y-16457200D01*
X91563915Y-16497802D01*
X91563915Y-16510780D01*
X91564507Y-16516418D01*
X91586262Y-16710368D01*
X91593922Y-16746405D01*
X91601061Y-16782460D01*
X91602737Y-16787876D01*
X91661750Y-16973906D01*
X91676259Y-17007757D01*
X91690269Y-17041747D01*
X91692963Y-17046730D01*
X91692965Y-17046735D01*
X91692968Y-17046739D01*
X91786987Y-17217760D01*
X91798352Y-17234359D01*
X91727750Y-17304961D01*
X91658695Y-17408309D01*
X91611129Y-17523144D01*
X91586880Y-17645052D01*
X91586880Y-17769348D01*
X91611129Y-17891256D01*
X91658695Y-18006091D01*
X91709549Y-18082200D01*
X91658695Y-18158309D01*
X91611129Y-18273144D01*
X91586880Y-18395052D01*
X91586880Y-18519348D01*
X91611129Y-18641256D01*
X91658695Y-18756091D01*
X91709549Y-18832200D01*
X91658695Y-18908309D01*
X91611129Y-19023144D01*
X91586880Y-19145052D01*
X91586880Y-19269348D01*
X91611129Y-19391256D01*
X91658695Y-19506091D01*
X91727750Y-19609439D01*
X91798422Y-19680111D01*
X91779179Y-19708216D01*
X91776485Y-19713198D01*
X91776482Y-19713202D01*
X91776482Y-19713203D01*
X91684857Y-19885525D01*
X91670829Y-19919560D01*
X91656339Y-19953368D01*
X91654662Y-19958783D01*
X91598253Y-20145619D01*
X91591091Y-20181789D01*
X91583456Y-20217709D01*
X91582864Y-20223336D01*
X91582862Y-20223347D01*
X91582862Y-20223357D01*
X91563818Y-20417581D01*
X91561880Y-20437260D01*
X91561881Y-24477141D01*
X91563915Y-24497792D01*
X91563915Y-24510780D01*
X91564507Y-24516418D01*
X91586262Y-24710368D01*
X91593922Y-24746405D01*
X91601061Y-24782460D01*
X91602737Y-24787876D01*
X91661750Y-24973906D01*
X91676259Y-25007757D01*
X91690269Y-25041747D01*
X91692963Y-25046730D01*
X91692965Y-25046735D01*
X91692968Y-25046739D01*
X91786987Y-25217760D01*
X91798352Y-25234359D01*
X91727750Y-25304961D01*
X91658695Y-25408309D01*
X91611129Y-25523144D01*
X91586880Y-25645052D01*
X91586880Y-25769348D01*
X91611129Y-25891256D01*
X91658695Y-26006091D01*
X91709549Y-26082200D01*
X91658695Y-26158309D01*
X91611129Y-26273144D01*
X91586880Y-26395052D01*
X91586880Y-26519348D01*
X91611129Y-26641256D01*
X91658695Y-26756091D01*
X91709549Y-26832200D01*
X91658695Y-26908309D01*
X91611129Y-27023144D01*
X91586880Y-27145052D01*
X91586880Y-27269348D01*
X91611129Y-27391256D01*
X91658695Y-27506091D01*
X91727750Y-27609439D01*
X91798422Y-27680111D01*
X91779179Y-27708216D01*
X91776485Y-27713198D01*
X91776482Y-27713202D01*
X91776482Y-27713203D01*
X91684857Y-27885525D01*
X91670829Y-27919560D01*
X91656339Y-27953368D01*
X91654662Y-27958783D01*
X91598253Y-28145619D01*
X91591091Y-28181789D01*
X91583456Y-28217709D01*
X91582864Y-28223336D01*
X91582862Y-28223347D01*
X91582862Y-28223357D01*
X91563818Y-28417581D01*
X91561906Y-28436744D01*
X91559856Y-30051200D01*
X58368800Y-30051200D01*
X58368800Y-29230805D01*
X67578800Y-29230805D01*
X67704714Y-29520777D01*
X68036926Y-29686633D01*
X68395112Y-29784490D01*
X68765506Y-29810589D01*
X69133875Y-29763925D01*
X69486062Y-29646294D01*
X69720886Y-29520777D01*
X69846800Y-29230805D01*
X68712800Y-28096805D01*
X67578800Y-29230805D01*
X58368800Y-29230805D01*
X58368800Y-27321183D01*
X59581800Y-27321183D01*
X59581800Y-27593217D01*
X59634871Y-27860023D01*
X59738974Y-28111349D01*
X59890107Y-28337536D01*
X60082464Y-28529893D01*
X60308651Y-28681026D01*
X60559977Y-28785129D01*
X60826783Y-28838200D01*
X61098817Y-28838200D01*
X61365623Y-28785129D01*
X61616949Y-28681026D01*
X61843136Y-28529893D01*
X62035493Y-28337536D01*
X62186626Y-28111349D01*
X62245213Y-27969906D01*
X66819411Y-27969906D01*
X66866075Y-28338275D01*
X66983706Y-28690462D01*
X67109223Y-28925286D01*
X67399195Y-29051200D01*
X68533195Y-27917200D01*
X68892405Y-27917200D01*
X70026405Y-29051200D01*
X70316377Y-28925286D01*
X70482233Y-28593074D01*
X70580090Y-28234888D01*
X70606189Y-27864494D01*
X70592517Y-27756560D01*
X79081800Y-27756560D01*
X79081800Y-28077840D01*
X79144478Y-28392945D01*
X79267426Y-28689768D01*
X79445919Y-28956902D01*
X79673098Y-29184081D01*
X79940232Y-29362574D01*
X80237055Y-29485522D01*
X80552160Y-29548200D01*
X80873440Y-29548200D01*
X81188545Y-29485522D01*
X81485368Y-29362574D01*
X81752502Y-29184081D01*
X81979681Y-28956902D01*
X82158174Y-28689768D01*
X82281122Y-28392945D01*
X82343800Y-28077840D01*
X82343800Y-27756560D01*
X82281122Y-27441455D01*
X82231304Y-27321183D01*
X87581800Y-27321183D01*
X87581800Y-27593217D01*
X87634871Y-27860023D01*
X87738974Y-28111349D01*
X87890107Y-28337536D01*
X88082464Y-28529893D01*
X88308651Y-28681026D01*
X88559977Y-28785129D01*
X88826783Y-28838200D01*
X89098817Y-28838200D01*
X89365623Y-28785129D01*
X89616949Y-28681026D01*
X89843136Y-28529893D01*
X90035493Y-28337536D01*
X90186626Y-28111349D01*
X90290729Y-27860023D01*
X90343800Y-27593217D01*
X90343800Y-27321183D01*
X90290729Y-27054377D01*
X90186626Y-26803051D01*
X90035493Y-26576864D01*
X89843136Y-26384507D01*
X89616949Y-26233374D01*
X89365623Y-26129271D01*
X89098817Y-26076200D01*
X88826783Y-26076200D01*
X88559977Y-26129271D01*
X88308651Y-26233374D01*
X88082464Y-26384507D01*
X87890107Y-26576864D01*
X87738974Y-26803051D01*
X87634871Y-27054377D01*
X87581800Y-27321183D01*
X82231304Y-27321183D01*
X82158174Y-27144632D01*
X81979681Y-26877498D01*
X81752502Y-26650319D01*
X81485368Y-26471826D01*
X81188545Y-26348878D01*
X80873440Y-26286200D01*
X80552160Y-26286200D01*
X80237055Y-26348878D01*
X79940232Y-26471826D01*
X79673098Y-26650319D01*
X79445919Y-26877498D01*
X79267426Y-27144632D01*
X79144478Y-27441455D01*
X79081800Y-27756560D01*
X70592517Y-27756560D01*
X70559525Y-27496125D01*
X70441894Y-27143938D01*
X70316377Y-26909114D01*
X70026405Y-26783200D01*
X68892405Y-27917200D01*
X68533195Y-27917200D01*
X67399195Y-26783200D01*
X67109223Y-26909114D01*
X66943367Y-27241326D01*
X66845510Y-27599512D01*
X66819411Y-27969906D01*
X62245213Y-27969906D01*
X62290729Y-27860023D01*
X62343800Y-27593217D01*
X62343800Y-27321183D01*
X62290729Y-27054377D01*
X62215881Y-26873678D01*
X63930400Y-26873678D01*
X63930400Y-27027522D01*
X63960413Y-27178409D01*
X64019287Y-27320542D01*
X64104758Y-27448459D01*
X64213541Y-27557242D01*
X64341458Y-27642713D01*
X64483591Y-27701587D01*
X64634478Y-27731600D01*
X64788322Y-27731600D01*
X64939209Y-27701587D01*
X65081342Y-27642713D01*
X65209259Y-27557242D01*
X65318042Y-27448459D01*
X65403513Y-27320542D01*
X65462387Y-27178409D01*
X65492400Y-27027522D01*
X65492400Y-26873678D01*
X65462387Y-26722791D01*
X65403513Y-26580658D01*
X65318042Y-26452741D01*
X65209259Y-26343958D01*
X65081342Y-26258487D01*
X64939209Y-26199613D01*
X64788322Y-26169600D01*
X64634478Y-26169600D01*
X64483591Y-26199613D01*
X64341458Y-26258487D01*
X64213541Y-26343958D01*
X64104758Y-26452741D01*
X64019287Y-26580658D01*
X63960413Y-26722791D01*
X63930400Y-26873678D01*
X62215881Y-26873678D01*
X62186626Y-26803051D01*
X62035493Y-26576864D01*
X61843136Y-26384507D01*
X61616949Y-26233374D01*
X61365623Y-26129271D01*
X61098817Y-26076200D01*
X60826783Y-26076200D01*
X60559977Y-26129271D01*
X60308651Y-26233374D01*
X60082464Y-26384507D01*
X59890107Y-26576864D01*
X59738974Y-26803051D01*
X59634871Y-27054377D01*
X59581800Y-27321183D01*
X58368800Y-27321183D01*
X58368800Y-25717978D01*
X66876800Y-25717978D01*
X66876800Y-25871822D01*
X66906813Y-26022709D01*
X66965687Y-26164842D01*
X67051158Y-26292759D01*
X67159941Y-26401542D01*
X67287858Y-26487013D01*
X67429991Y-26545887D01*
X67580878Y-26575900D01*
X67590826Y-26575900D01*
X67578800Y-26603595D01*
X68712800Y-27737595D01*
X69846800Y-26603595D01*
X69720886Y-26313623D01*
X69388674Y-26147767D01*
X69030488Y-26049910D01*
X68660094Y-26023811D01*
X68394388Y-26057470D01*
X68408787Y-26022709D01*
X68438800Y-25871822D01*
X68438800Y-25717978D01*
X68408787Y-25567091D01*
X68349913Y-25424958D01*
X68264442Y-25297041D01*
X68155659Y-25188258D01*
X68027742Y-25102787D01*
X67885609Y-25043913D01*
X67734722Y-25013900D01*
X67580878Y-25013900D01*
X67429991Y-25043913D01*
X67287858Y-25102787D01*
X67159941Y-25188258D01*
X67051158Y-25297041D01*
X66965687Y-25424958D01*
X66906813Y-25567091D01*
X66876800Y-25717978D01*
X58368800Y-25717978D01*
X58368800Y-21539678D01*
X68451600Y-21539678D01*
X68451600Y-21693522D01*
X68481613Y-21844409D01*
X68540487Y-21986542D01*
X68625958Y-22114459D01*
X68734741Y-22223242D01*
X68862658Y-22308713D01*
X69004791Y-22367587D01*
X69155678Y-22397600D01*
X69309522Y-22397600D01*
X69460409Y-22367587D01*
X69602542Y-22308713D01*
X69730459Y-22223242D01*
X69839242Y-22114459D01*
X69924713Y-21986542D01*
X69983587Y-21844409D01*
X70013600Y-21693522D01*
X70013600Y-21539678D01*
X69983587Y-21388791D01*
X69924713Y-21246658D01*
X69839242Y-21118741D01*
X69738600Y-21018099D01*
X69738600Y-17081978D01*
X73874500Y-17081978D01*
X73874500Y-17235822D01*
X73904513Y-17386709D01*
X73963387Y-17528842D01*
X74048858Y-17656759D01*
X74157641Y-17765542D01*
X74285558Y-17851013D01*
X74427691Y-17909887D01*
X74578578Y-17939900D01*
X74732422Y-17939900D01*
X74883309Y-17909887D01*
X75025442Y-17851013D01*
X75153359Y-17765542D01*
X75262142Y-17656759D01*
X75347613Y-17528842D01*
X75406487Y-17386709D01*
X75436500Y-17235822D01*
X75436500Y-17081978D01*
X75406487Y-16931091D01*
X75347613Y-16788958D01*
X75262142Y-16661041D01*
X75153359Y-16552258D01*
X75025442Y-16466787D01*
X74883309Y-16407913D01*
X74732422Y-16377900D01*
X74578578Y-16377900D01*
X74427691Y-16407913D01*
X74285558Y-16466787D01*
X74157641Y-16552258D01*
X74048858Y-16661041D01*
X73963387Y-16788958D01*
X73904513Y-16931091D01*
X73874500Y-17081978D01*
X69738600Y-17081978D01*
X69738600Y-13056078D01*
X69874000Y-13056078D01*
X69874000Y-13209922D01*
X69904013Y-13360809D01*
X69962887Y-13502942D01*
X70048358Y-13630859D01*
X70157141Y-13739642D01*
X70285058Y-13825113D01*
X70427191Y-13883987D01*
X70578078Y-13914000D01*
X70731922Y-13914000D01*
X70882809Y-13883987D01*
X71024942Y-13825113D01*
X71152859Y-13739642D01*
X71261642Y-13630859D01*
X71347113Y-13502942D01*
X71405987Y-13360809D01*
X71436000Y-13209922D01*
X71436000Y-13056078D01*
X71405987Y-12905191D01*
X71347113Y-12763058D01*
X71261642Y-12635141D01*
X71152859Y-12526358D01*
X71024942Y-12440887D01*
X70882809Y-12382013D01*
X70731922Y-12352000D01*
X70578078Y-12352000D01*
X70427191Y-12382013D01*
X70285058Y-12440887D01*
X70157141Y-12526358D01*
X70048358Y-12635141D01*
X69962887Y-12763058D01*
X69904013Y-12905191D01*
X69874000Y-13056078D01*
X69738600Y-13056078D01*
X69738600Y-12807781D01*
X72320085Y-10226296D01*
X72329715Y-10274709D01*
X72388589Y-10416842D01*
X72474060Y-10544759D01*
X72582843Y-10653542D01*
X72710760Y-10739013D01*
X72852893Y-10797887D01*
X73003780Y-10827900D01*
X73157624Y-10827900D01*
X73308511Y-10797887D01*
X73450644Y-10739013D01*
X73544690Y-10676174D01*
X73595087Y-10797842D01*
X73680558Y-10925759D01*
X73789341Y-11034542D01*
X73917258Y-11120013D01*
X74059391Y-11178887D01*
X74210278Y-11208900D01*
X74364122Y-11208900D01*
X74515009Y-11178887D01*
X74657142Y-11120013D01*
X74785059Y-11034542D01*
X74893842Y-10925759D01*
X74979313Y-10797842D01*
X75004100Y-10738001D01*
X75072041Y-10805942D01*
X75199958Y-10891413D01*
X75342091Y-10950287D01*
X75492978Y-10980300D01*
X75646822Y-10980300D01*
X75797709Y-10950287D01*
X75939842Y-10891413D01*
X76067759Y-10805942D01*
X76176542Y-10697159D01*
X76262013Y-10569242D01*
X76267269Y-10556554D01*
X76279413Y-10617609D01*
X76338287Y-10759742D01*
X76423758Y-10887659D01*
X76532541Y-10996442D01*
X76660458Y-11081913D01*
X76802591Y-11140787D01*
X76953478Y-11170800D01*
X77107322Y-11170800D01*
X77258209Y-11140787D01*
X77400342Y-11081913D01*
X77528259Y-10996442D01*
X77637042Y-10887659D01*
X77722513Y-10759742D01*
X77781387Y-10617609D01*
X77794401Y-10552184D01*
X77794400Y-20878399D01*
X77693758Y-20979041D01*
X77608287Y-21106958D01*
X77549413Y-21249091D01*
X77519400Y-21399978D01*
X77519400Y-21553822D01*
X77549413Y-21704709D01*
X77608287Y-21846842D01*
X77693758Y-21974759D01*
X77802541Y-22083542D01*
X77930458Y-22169013D01*
X78072591Y-22227887D01*
X78223478Y-22257900D01*
X78377322Y-22257900D01*
X78528209Y-22227887D01*
X78670342Y-22169013D01*
X78798259Y-22083542D01*
X78907042Y-21974759D01*
X78992513Y-21846842D01*
X79051387Y-21704709D01*
X79081400Y-21553822D01*
X79081400Y-21399978D01*
X79051387Y-21249091D01*
X78992513Y-21106958D01*
X78907042Y-20979041D01*
X78806400Y-20878399D01*
X78806400Y-15419531D01*
X78809191Y-15420687D01*
X78960078Y-15450700D01*
X79113922Y-15450700D01*
X79264809Y-15420687D01*
X79406942Y-15361813D01*
X79534859Y-15276342D01*
X79643642Y-15167559D01*
X79729113Y-15039642D01*
X79787987Y-14897509D01*
X79818000Y-14746622D01*
X79818000Y-14592778D01*
X79787987Y-14441891D01*
X79729113Y-14299758D01*
X79643642Y-14171841D01*
X79534859Y-14063058D01*
X79406942Y-13977587D01*
X79264809Y-13918713D01*
X79113922Y-13888700D01*
X78960078Y-13888700D01*
X78809191Y-13918713D01*
X78806400Y-13919869D01*
X78806400Y-12971339D01*
X78948478Y-12999600D01*
X79102322Y-12999600D01*
X79253209Y-12969587D01*
X79395342Y-12910713D01*
X79523259Y-12825242D01*
X79632042Y-12716459D01*
X79717513Y-12588542D01*
X79776387Y-12446409D01*
X79806400Y-12295522D01*
X79806400Y-12141678D01*
X79776387Y-11990791D01*
X79717513Y-11848658D01*
X79632042Y-11720741D01*
X79523259Y-11611958D01*
X79395342Y-11526487D01*
X79253209Y-11467613D01*
X79102322Y-11437600D01*
X78948478Y-11437600D01*
X78806400Y-11465861D01*
X78806400Y-4719291D01*
X79896264Y-3629427D01*
X79911658Y-3639713D01*
X80053791Y-3698587D01*
X80204678Y-3728600D01*
X80358522Y-3728600D01*
X80509409Y-3698587D01*
X80651542Y-3639713D01*
X80778900Y-3554615D01*
X80778901Y-15588876D01*
X80748542Y-15543441D01*
X80639759Y-15434658D01*
X80511842Y-15349187D01*
X80369709Y-15290313D01*
X80218822Y-15260300D01*
X80064978Y-15260300D01*
X79914091Y-15290313D01*
X79771958Y-15349187D01*
X79644041Y-15434658D01*
X79535258Y-15543441D01*
X79449787Y-15671358D01*
X79390913Y-15813491D01*
X79360900Y-15964378D01*
X79360900Y-16118222D01*
X79390913Y-16269109D01*
X79449787Y-16411242D01*
X79535258Y-16539159D01*
X79644041Y-16647942D01*
X79771958Y-16733413D01*
X79914091Y-16792287D01*
X80064978Y-16822300D01*
X80218822Y-16822300D01*
X80369709Y-16792287D01*
X80511842Y-16733413D01*
X80639759Y-16647942D01*
X80748542Y-16539159D01*
X80778901Y-16493724D01*
X80778901Y-19293044D01*
X80776453Y-19317900D01*
X80786222Y-19417092D01*
X80815155Y-19512474D01*
X80825824Y-19532434D01*
X80862142Y-19600379D01*
X80925374Y-19677427D01*
X80944681Y-19693272D01*
X83488400Y-22236992D01*
X83488400Y-22379322D01*
X83518413Y-22530209D01*
X83577287Y-22672342D01*
X83662758Y-22800259D01*
X83771541Y-22909042D01*
X83899458Y-22994513D01*
X84041591Y-23053387D01*
X84192478Y-23083400D01*
X84346322Y-23083400D01*
X84497209Y-23053387D01*
X84639342Y-22994513D01*
X84767259Y-22909042D01*
X84876042Y-22800259D01*
X84961513Y-22672342D01*
X85020387Y-22530209D01*
X85050400Y-22379322D01*
X85050400Y-22225478D01*
X85020387Y-22074591D01*
X84961513Y-21932458D01*
X84876042Y-21804541D01*
X84767259Y-21695758D01*
X84639342Y-21610287D01*
X84497209Y-21551413D01*
X84346322Y-21521400D01*
X84203992Y-21521400D01*
X81790900Y-19108309D01*
X81790900Y-19002218D01*
X82370800Y-19002218D01*
X82370800Y-19156062D01*
X82400813Y-19306949D01*
X82459687Y-19449082D01*
X82545158Y-19576999D01*
X82653941Y-19685782D01*
X82781858Y-19771253D01*
X82923991Y-19830127D01*
X83074878Y-19860140D01*
X83228722Y-19860140D01*
X83379609Y-19830127D01*
X83521742Y-19771253D01*
X83564550Y-19742650D01*
X83607358Y-19771253D01*
X83749491Y-19830127D01*
X83900378Y-19860140D01*
X84054222Y-19860140D01*
X84205109Y-19830127D01*
X84347242Y-19771253D01*
X84383700Y-19746893D01*
X84420158Y-19771253D01*
X84562291Y-19830127D01*
X84713178Y-19860140D01*
X84867022Y-19860140D01*
X85017909Y-19830127D01*
X85160042Y-19771253D01*
X85287959Y-19685782D01*
X85396742Y-19576999D01*
X85482213Y-19449082D01*
X85541087Y-19306949D01*
X85571100Y-19156062D01*
X85571100Y-19002218D01*
X85541087Y-18851331D01*
X85482213Y-18709198D01*
X85396742Y-18581281D01*
X85287959Y-18472498D01*
X85160042Y-18387027D01*
X85017909Y-18328153D01*
X84968797Y-18318384D01*
X85010662Y-18276519D01*
X85096133Y-18148602D01*
X85155007Y-18006469D01*
X85185020Y-17855582D01*
X85185020Y-17701738D01*
X85155007Y-17550851D01*
X85096133Y-17408718D01*
X85075987Y-17378567D01*
X85121533Y-17310402D01*
X85180407Y-17168269D01*
X85210420Y-17017382D01*
X85210420Y-16863538D01*
X85180407Y-16712651D01*
X85121533Y-16570518D01*
X85088702Y-16521382D01*
X85113854Y-16460660D01*
X85143867Y-16309773D01*
X85143867Y-16155929D01*
X85113854Y-16005042D01*
X85054980Y-15862909D01*
X84969509Y-15734992D01*
X84860726Y-15626209D01*
X84732809Y-15540738D01*
X84590676Y-15481864D01*
X84439789Y-15451851D01*
X84285945Y-15451851D01*
X84135058Y-15481864D01*
X83992925Y-15540738D01*
X83865008Y-15626209D01*
X83756225Y-15734992D01*
X83670754Y-15862909D01*
X83611880Y-16005042D01*
X83581867Y-16155929D01*
X83581867Y-16309773D01*
X83611880Y-16460660D01*
X83670754Y-16602793D01*
X83703585Y-16651929D01*
X83678433Y-16712651D01*
X83648420Y-16863538D01*
X83648420Y-17017382D01*
X83678433Y-17168269D01*
X83737307Y-17310402D01*
X83757453Y-17340553D01*
X83711907Y-17408718D01*
X83653033Y-17550851D01*
X83623020Y-17701738D01*
X83623020Y-17855582D01*
X83653033Y-18006469D01*
X83711907Y-18148602D01*
X83797378Y-18276519D01*
X83832501Y-18311642D01*
X83749491Y-18328153D01*
X83607358Y-18387027D01*
X83564550Y-18415630D01*
X83521742Y-18387027D01*
X83379609Y-18328153D01*
X83228722Y-18298140D01*
X83074878Y-18298140D01*
X82923991Y-18328153D01*
X82781858Y-18387027D01*
X82653941Y-18472498D01*
X82545158Y-18581281D01*
X82459687Y-18709198D01*
X82400813Y-18851331D01*
X82370800Y-19002218D01*
X81790900Y-19002218D01*
X81790900Y-15201801D01*
X81814641Y-15225542D01*
X81942558Y-15311013D01*
X82084691Y-15369887D01*
X82235578Y-15399900D01*
X82389422Y-15399900D01*
X82540309Y-15369887D01*
X82682442Y-15311013D01*
X82810359Y-15225542D01*
X82919142Y-15116759D01*
X83004613Y-14988842D01*
X83063487Y-14846709D01*
X83093500Y-14695822D01*
X83093500Y-14541978D01*
X83063487Y-14391091D01*
X83055248Y-14371200D01*
X83114422Y-14371200D01*
X83265309Y-14341187D01*
X83407442Y-14282313D01*
X83535359Y-14196842D01*
X83644142Y-14088059D01*
X83729613Y-13960142D01*
X83788487Y-13818009D01*
X83818500Y-13667122D01*
X83818500Y-13513278D01*
X83788487Y-13362391D01*
X83729613Y-13220258D01*
X83644142Y-13092341D01*
X83535359Y-12983558D01*
X83407442Y-12898087D01*
X83265309Y-12839213D01*
X83114422Y-12809200D01*
X82960578Y-12809200D01*
X82809691Y-12839213D01*
X82667558Y-12898087D01*
X82539641Y-12983558D01*
X82430858Y-13092341D01*
X82345387Y-13220258D01*
X82286513Y-13362391D01*
X82256500Y-13513278D01*
X82256500Y-13667122D01*
X82286513Y-13818009D01*
X82294752Y-13837900D01*
X82235578Y-13837900D01*
X82084691Y-13867913D01*
X81942558Y-13926787D01*
X81814641Y-14012258D01*
X81790900Y-14035999D01*
X81790900Y-11112978D01*
X82053300Y-11112978D01*
X82053300Y-11266822D01*
X82083313Y-11417709D01*
X82142187Y-11559842D01*
X82227658Y-11687759D01*
X82336441Y-11796542D01*
X82464358Y-11882013D01*
X82606491Y-11940887D01*
X82757378Y-11970900D01*
X82911222Y-11970900D01*
X83062109Y-11940887D01*
X83204242Y-11882013D01*
X83332159Y-11796542D01*
X83440942Y-11687759D01*
X83526413Y-11559842D01*
X83585287Y-11417709D01*
X83615300Y-11266822D01*
X83615300Y-11112978D01*
X83585287Y-10962091D01*
X83526413Y-10819958D01*
X83440942Y-10692041D01*
X83332159Y-10583258D01*
X83204242Y-10497787D01*
X83062109Y-10438913D01*
X82911222Y-10408900D01*
X82757378Y-10408900D01*
X82606491Y-10438913D01*
X82464358Y-10497787D01*
X82336441Y-10583258D01*
X82227658Y-10692041D01*
X82142187Y-10819958D01*
X82083313Y-10962091D01*
X82053300Y-11112978D01*
X81790900Y-11112978D01*
X81790900Y-9392629D01*
X81863997Y-9502027D01*
X81972780Y-9610810D01*
X82100697Y-9696281D01*
X82242830Y-9755155D01*
X82393717Y-9785168D01*
X82547561Y-9785168D01*
X82698448Y-9755155D01*
X82840581Y-9696281D01*
X82968498Y-9610810D01*
X83077281Y-9502027D01*
X83162752Y-9374110D01*
X83221626Y-9231977D01*
X83251639Y-9081090D01*
X83251639Y-8927246D01*
X83221626Y-8776359D01*
X83162752Y-8634226D01*
X83077281Y-8506309D01*
X82968498Y-8397526D01*
X82840581Y-8312055D01*
X82698448Y-8253181D01*
X82547561Y-8223168D01*
X82393717Y-8223168D01*
X82242830Y-8253181D01*
X82100697Y-8312055D01*
X81972780Y-8397526D01*
X81863997Y-8506309D01*
X81790900Y-8615707D01*
X81790900Y-4889978D01*
X84148800Y-4889978D01*
X84148800Y-5043822D01*
X84178813Y-5194709D01*
X84237687Y-5336842D01*
X84323158Y-5464759D01*
X84431941Y-5573542D01*
X84559858Y-5659013D01*
X84701991Y-5717887D01*
X84852878Y-5747900D01*
X85006722Y-5747900D01*
X85157609Y-5717887D01*
X85299742Y-5659013D01*
X85427659Y-5573542D01*
X85536442Y-5464759D01*
X85621913Y-5336842D01*
X85680787Y-5194709D01*
X85710800Y-5043822D01*
X85710800Y-4889978D01*
X85680787Y-4739091D01*
X85621913Y-4596958D01*
X85536442Y-4469041D01*
X85427659Y-4360258D01*
X85299742Y-4274787D01*
X85157609Y-4215913D01*
X85006722Y-4185900D01*
X84852878Y-4185900D01*
X84701991Y-4215913D01*
X84559858Y-4274787D01*
X84431941Y-4360258D01*
X84323158Y-4469041D01*
X84237687Y-4596958D01*
X84178813Y-4739091D01*
X84148800Y-4889978D01*
X81790900Y-4889978D01*
X81790900Y-3442178D01*
X83488400Y-3442178D01*
X83488400Y-3596022D01*
X83518413Y-3746909D01*
X83577287Y-3889042D01*
X83662758Y-4016959D01*
X83771541Y-4125742D01*
X83899458Y-4211213D01*
X84041591Y-4270087D01*
X84192478Y-4300100D01*
X84346322Y-4300100D01*
X84497209Y-4270087D01*
X84639342Y-4211213D01*
X84767259Y-4125742D01*
X84876042Y-4016959D01*
X84961513Y-3889042D01*
X85020387Y-3746909D01*
X85050400Y-3596022D01*
X85050400Y-3442178D01*
X85020387Y-3291291D01*
X84961513Y-3149158D01*
X84876042Y-3021241D01*
X84767259Y-2912458D01*
X84639342Y-2826987D01*
X84497209Y-2768113D01*
X84346322Y-2738100D01*
X84192478Y-2738100D01*
X84041591Y-2768113D01*
X83899458Y-2826987D01*
X83771541Y-2912458D01*
X83662758Y-3021241D01*
X83577287Y-3149158D01*
X83518413Y-3291291D01*
X83488400Y-3442178D01*
X81790900Y-3442178D01*
X81790900Y-2212601D01*
X81891542Y-2111959D01*
X81977013Y-1984042D01*
X82035887Y-1841909D01*
X82065900Y-1691022D01*
X82065900Y-1537178D01*
X82035887Y-1386291D01*
X81977013Y-1244158D01*
X81891542Y-1116241D01*
X81782759Y-1007458D01*
X81654842Y-921987D01*
X81512709Y-863113D01*
X81361822Y-833100D01*
X81207978Y-833100D01*
X81057091Y-863113D01*
X80914958Y-921987D01*
X80880226Y-945194D01*
X80799342Y-824141D01*
X80690559Y-715358D01*
X80562642Y-629887D01*
X80420509Y-571013D01*
X80269622Y-541000D01*
X80115778Y-541000D01*
X79964891Y-571013D01*
X79822758Y-629887D01*
X79694841Y-715358D01*
X79586058Y-824141D01*
X79500587Y-952058D01*
X79441713Y-1094191D01*
X79411700Y-1245078D01*
X79411700Y-1398922D01*
X79441713Y-1549809D01*
X79477937Y-1637261D01*
X78579964Y-2535234D01*
X78560713Y-2488758D01*
X78475242Y-2360841D01*
X78366459Y-2252058D01*
X78238542Y-2166587D01*
X78096409Y-2107713D01*
X77945522Y-2077700D01*
X77791678Y-2077700D01*
X77640791Y-2107713D01*
X77498658Y-2166587D01*
X77370741Y-2252058D01*
X77261958Y-2360841D01*
X77176487Y-2488758D01*
X77117613Y-2630891D01*
X77087600Y-2781778D01*
X77087600Y-2809808D01*
X74738176Y-5159232D01*
X74699913Y-5066858D01*
X74614442Y-4938941D01*
X74505659Y-4830158D01*
X74377742Y-4744687D01*
X74235609Y-4685813D01*
X74084722Y-4655800D01*
X73930878Y-4655800D01*
X73779991Y-4685813D01*
X73637858Y-4744687D01*
X73566497Y-4792369D01*
X73514142Y-4757387D01*
X73372009Y-4698513D01*
X73221122Y-4668500D01*
X73067278Y-4668500D01*
X72916391Y-4698513D01*
X72774258Y-4757387D01*
X72725057Y-4790262D01*
X72637842Y-4731987D01*
X72495709Y-4673113D01*
X72344822Y-4643100D01*
X72190978Y-4643100D01*
X72040091Y-4673113D01*
X71897958Y-4731987D01*
X71770041Y-4817458D01*
X71661258Y-4926241D01*
X71575787Y-5054158D01*
X71516913Y-5196291D01*
X71486900Y-5347178D01*
X71486900Y-5501022D01*
X71516913Y-5651909D01*
X71575787Y-5794042D01*
X71661258Y-5921959D01*
X71770041Y-6030742D01*
X71897958Y-6116213D01*
X72040091Y-6175087D01*
X72190978Y-6205100D01*
X72344822Y-6205100D01*
X72495709Y-6175087D01*
X72637842Y-6116213D01*
X72687043Y-6083338D01*
X72774258Y-6141613D01*
X72916391Y-6200487D01*
X73067278Y-6230500D01*
X73221122Y-6230500D01*
X73372009Y-6200487D01*
X73514142Y-6141613D01*
X73585503Y-6093931D01*
X73637858Y-6128913D01*
X73730232Y-6167176D01*
X69996509Y-9900900D01*
X69854178Y-9900900D01*
X69703291Y-9930913D01*
X69561158Y-9989787D01*
X69433241Y-10075258D01*
X69324458Y-10184041D01*
X69238987Y-10311958D01*
X69180113Y-10454091D01*
X69150100Y-10604978D01*
X69150100Y-10758822D01*
X69180113Y-10909709D01*
X69238987Y-11051842D01*
X69324458Y-11179759D01*
X69433241Y-11288542D01*
X69561158Y-11374013D01*
X69688457Y-11426742D01*
X68892385Y-12222814D01*
X68873073Y-12238663D01*
X68809841Y-12315711D01*
X68762855Y-12403616D01*
X68733922Y-12498998D01*
X68726600Y-12573337D01*
X68726600Y-12573344D01*
X68724153Y-12598190D01*
X68726600Y-12623036D01*
X68726601Y-21018098D01*
X68625958Y-21118741D01*
X68540487Y-21246658D01*
X68481613Y-21388791D01*
X68451600Y-21539678D01*
X58368800Y-21539678D01*
X58368800Y-18716454D01*
X61326200Y-18716454D01*
X61326200Y-18880146D01*
X61358135Y-19040694D01*
X61420777Y-19191926D01*
X61511720Y-19328032D01*
X61627468Y-19443780D01*
X61763574Y-19534723D01*
X61914806Y-19597365D01*
X62075354Y-19629300D01*
X62239046Y-19629300D01*
X62399594Y-19597365D01*
X62550826Y-19534723D01*
X62580897Y-19514630D01*
X62588813Y-19554427D01*
X62647687Y-19696560D01*
X62733158Y-19824477D01*
X62841941Y-19933260D01*
X62969858Y-20018731D01*
X63111991Y-20077605D01*
X63262878Y-20107618D01*
X63416722Y-20107618D01*
X63567609Y-20077605D01*
X63709742Y-20018731D01*
X63837659Y-19933260D01*
X63946442Y-19824477D01*
X64031913Y-19696560D01*
X64090787Y-19554427D01*
X64120800Y-19403540D01*
X64120800Y-19249696D01*
X64090787Y-19098809D01*
X64031913Y-18956676D01*
X63946442Y-18828759D01*
X63837659Y-18719976D01*
X63709742Y-18634505D01*
X63567609Y-18575631D01*
X63416722Y-18545618D01*
X63262878Y-18545618D01*
X63111991Y-18575631D01*
X62971744Y-18633724D01*
X62956265Y-18555906D01*
X62893623Y-18404674D01*
X62802680Y-18268568D01*
X62686932Y-18152820D01*
X62550826Y-18061877D01*
X62399594Y-17999235D01*
X62239046Y-17967300D01*
X62075354Y-17967300D01*
X61914806Y-17999235D01*
X61763574Y-18061877D01*
X61627468Y-18152820D01*
X61511720Y-18268568D01*
X61420777Y-18404674D01*
X61358135Y-18555906D01*
X61326200Y-18716454D01*
X58368800Y-18716454D01*
X58368800Y-14316454D01*
X61326200Y-14316454D01*
X61326200Y-14480146D01*
X61358135Y-14640694D01*
X61420777Y-14791926D01*
X61511720Y-14928032D01*
X61627468Y-15043780D01*
X61763574Y-15134723D01*
X61914806Y-15197365D01*
X62075354Y-15229300D01*
X62239046Y-15229300D01*
X62399594Y-15197365D01*
X62550826Y-15134723D01*
X62686932Y-15043780D01*
X62802680Y-14928032D01*
X62893623Y-14791926D01*
X62956265Y-14640694D01*
X62988200Y-14480146D01*
X62988200Y-14316454D01*
X62956265Y-14155906D01*
X62947845Y-14135578D01*
X65873500Y-14135578D01*
X65873500Y-14289422D01*
X65903513Y-14440309D01*
X65962387Y-14582442D01*
X66047858Y-14710359D01*
X66156641Y-14819142D01*
X66284558Y-14904613D01*
X66426691Y-14963487D01*
X66577578Y-14993500D01*
X66731422Y-14993500D01*
X66882309Y-14963487D01*
X67024442Y-14904613D01*
X67152359Y-14819142D01*
X67261142Y-14710359D01*
X67346613Y-14582442D01*
X67405487Y-14440309D01*
X67435500Y-14289422D01*
X67435500Y-14135578D01*
X67405487Y-13984691D01*
X67346613Y-13842558D01*
X67261142Y-13714641D01*
X67152359Y-13605858D01*
X67024442Y-13520387D01*
X66882309Y-13461513D01*
X66731422Y-13431500D01*
X66577578Y-13431500D01*
X66426691Y-13461513D01*
X66284558Y-13520387D01*
X66156641Y-13605858D01*
X66047858Y-13714641D01*
X65962387Y-13842558D01*
X65903513Y-13984691D01*
X65873500Y-14135578D01*
X62947845Y-14135578D01*
X62893623Y-14004674D01*
X62802680Y-13868568D01*
X62686932Y-13752820D01*
X62550826Y-13661877D01*
X62399594Y-13599235D01*
X62239046Y-13567300D01*
X62075354Y-13567300D01*
X61914806Y-13599235D01*
X61763574Y-13661877D01*
X61627468Y-13752820D01*
X61511720Y-13868568D01*
X61420777Y-14004674D01*
X61358135Y-14155906D01*
X61326200Y-14316454D01*
X58368800Y-14316454D01*
X58368800Y-9754078D01*
X60780800Y-9754078D01*
X60780800Y-9907922D01*
X60810813Y-10058809D01*
X60869687Y-10200942D01*
X60955158Y-10328859D01*
X61063941Y-10437642D01*
X61191858Y-10523113D01*
X61333991Y-10581987D01*
X61484878Y-10612000D01*
X61638722Y-10612000D01*
X61789609Y-10581987D01*
X61931742Y-10523113D01*
X62059659Y-10437642D01*
X62168442Y-10328859D01*
X62253913Y-10200942D01*
X62312787Y-10058809D01*
X62342800Y-9907922D01*
X62342800Y-9754078D01*
X62312787Y-9603191D01*
X62253913Y-9461058D01*
X62168442Y-9333141D01*
X62059659Y-9224358D01*
X61931742Y-9138887D01*
X61789609Y-9080013D01*
X61638722Y-9050000D01*
X61484878Y-9050000D01*
X61333991Y-9080013D01*
X61191858Y-9138887D01*
X61063941Y-9224358D01*
X60955158Y-9333141D01*
X60869687Y-9461058D01*
X60810813Y-9603191D01*
X60780800Y-9754078D01*
X58368800Y-9754078D01*
X58368800Y-3683478D01*
X66038600Y-3683478D01*
X66038600Y-3837322D01*
X66068613Y-3988209D01*
X66127487Y-4130342D01*
X66212958Y-4258259D01*
X66321741Y-4367042D01*
X66449658Y-4452513D01*
X66591791Y-4511387D01*
X66742678Y-4541400D01*
X66896522Y-4541400D01*
X67047409Y-4511387D01*
X67189542Y-4452513D01*
X67317459Y-4367042D01*
X67426242Y-4258259D01*
X67511713Y-4130342D01*
X67570587Y-3988209D01*
X67600600Y-3837322D01*
X67600600Y-3683478D01*
X67570587Y-3532591D01*
X67511713Y-3390458D01*
X67426242Y-3262541D01*
X67317459Y-3153758D01*
X67189542Y-3068287D01*
X67085862Y-3025341D01*
X67227642Y-2966613D01*
X67355559Y-2881142D01*
X67392701Y-2844000D01*
X70843899Y-2844000D01*
X70944541Y-2944642D01*
X71072458Y-3030113D01*
X71214591Y-3088987D01*
X71365478Y-3119000D01*
X71519322Y-3119000D01*
X71670209Y-3088987D01*
X71812342Y-3030113D01*
X71940259Y-2944642D01*
X72049042Y-2835859D01*
X72134513Y-2707942D01*
X72193387Y-2565809D01*
X72223400Y-2414922D01*
X72223400Y-2261078D01*
X72193387Y-2110191D01*
X72134513Y-1968058D01*
X72049042Y-1840141D01*
X71940259Y-1731358D01*
X71812342Y-1645887D01*
X71670209Y-1587013D01*
X71519322Y-1557000D01*
X71365478Y-1557000D01*
X71214591Y-1587013D01*
X71072458Y-1645887D01*
X70944541Y-1731358D01*
X70843899Y-1832000D01*
X69677631Y-1832000D01*
X69678787Y-1829209D01*
X69708800Y-1678322D01*
X69708800Y-1524478D01*
X69678787Y-1373591D01*
X69619913Y-1231458D01*
X69534442Y-1103541D01*
X69425659Y-994758D01*
X69297742Y-909287D01*
X69155609Y-850413D01*
X69004722Y-820400D01*
X68850878Y-820400D01*
X68699991Y-850413D01*
X68557858Y-909287D01*
X68429941Y-994758D01*
X68321158Y-1103541D01*
X68235687Y-1231458D01*
X68176813Y-1373591D01*
X68146800Y-1524478D01*
X68146800Y-1678322D01*
X68176813Y-1829209D01*
X68177969Y-1832000D01*
X67501332Y-1832000D01*
X67464342Y-1776641D01*
X67355559Y-1667858D01*
X67227642Y-1582387D01*
X67085509Y-1523513D01*
X66934622Y-1493500D01*
X66780778Y-1493500D01*
X66629891Y-1523513D01*
X66487758Y-1582387D01*
X66359841Y-1667858D01*
X66251058Y-1776641D01*
X66165587Y-1904558D01*
X66106713Y-2046691D01*
X66076700Y-2197578D01*
X66076700Y-2351422D01*
X66106713Y-2502309D01*
X66165587Y-2644442D01*
X66251058Y-2772359D01*
X66359841Y-2881142D01*
X66487758Y-2966613D01*
X66591438Y-3009559D01*
X66449658Y-3068287D01*
X66321741Y-3153758D01*
X66212958Y-3262541D01*
X66127487Y-3390458D01*
X66068613Y-3532591D01*
X66038600Y-3683478D01*
X58368800Y-3683478D01*
X58368800Y-965678D01*
X62698500Y-965678D01*
X62698500Y-1119522D01*
X62728513Y-1270409D01*
X62787387Y-1412542D01*
X62872858Y-1540459D01*
X62981641Y-1649242D01*
X63109558Y-1734713D01*
X63251691Y-1793587D01*
X63402578Y-1823600D01*
X63556422Y-1823600D01*
X63707309Y-1793587D01*
X63849442Y-1734713D01*
X63977359Y-1649242D01*
X64086142Y-1540459D01*
X64171613Y-1412542D01*
X64230487Y-1270409D01*
X64260500Y-1119522D01*
X64260500Y-965678D01*
X64230487Y-814791D01*
X64171613Y-672658D01*
X64086142Y-544741D01*
X63977359Y-435958D01*
X63849442Y-350487D01*
X63707309Y-291613D01*
X63556422Y-261600D01*
X63402578Y-261600D01*
X63251691Y-291613D01*
X63109558Y-350487D01*
X62981641Y-435958D01*
X62872858Y-544741D01*
X62787387Y-672658D01*
X62728513Y-814791D01*
X62698500Y-965678D01*
X58368800Y-965678D01*
X58368800Y678817D01*
X59581800Y678817D01*
X59581800Y406783D01*
X59634871Y139977D01*
X59738974Y-111349D01*
X59890107Y-337536D01*
X60082464Y-529893D01*
X60308651Y-681026D01*
X60559977Y-785129D01*
X60826783Y-838200D01*
X61098817Y-838200D01*
X61365623Y-785129D01*
X61616949Y-681026D01*
X61843136Y-529893D01*
X62035493Y-337536D01*
X62186626Y-111349D01*
X62290729Y139977D01*
X62343800Y406783D01*
X62343800Y678817D01*
X87581800Y678817D01*
X87581800Y406783D01*
X87634871Y139977D01*
X87738974Y-111349D01*
X87890107Y-337536D01*
X88082464Y-529893D01*
X88308651Y-681026D01*
X88559977Y-785129D01*
X88826783Y-838200D01*
X89098817Y-838200D01*
X89365623Y-785129D01*
X89616949Y-681026D01*
X89843136Y-529893D01*
X90035493Y-337536D01*
X90186626Y-111349D01*
X90290729Y139977D01*
X90343800Y406783D01*
X90343800Y678817D01*
X90290729Y945623D01*
X90186626Y1196949D01*
X90035493Y1423136D01*
X89843136Y1615493D01*
X89616949Y1766626D01*
X89365623Y1870729D01*
X89098817Y1923800D01*
X88826783Y1923800D01*
X88559977Y1870729D01*
X88308651Y1766626D01*
X88082464Y1615493D01*
X87890107Y1423136D01*
X87738974Y1196949D01*
X87634871Y945623D01*
X87581800Y678817D01*
X62343800Y678817D01*
X62290729Y945623D01*
X62186626Y1196949D01*
X62035493Y1423136D01*
X61843136Y1615493D01*
X61616949Y1766626D01*
X61365623Y1870729D01*
X61098817Y1923800D01*
X60826783Y1923800D01*
X60559977Y1870729D01*
X60308651Y1766626D01*
X60082464Y1615493D01*
X59890107Y1423136D01*
X59738974Y1196949D01*
X59634871Y945623D01*
X59581800Y678817D01*
X58368800Y678817D01*
X58368800Y3136800D01*
X91561881Y3136800D01*
X91561880Y-477140D01*
G04 #@! TA.AperFunction,Conductor*
D16*
G36*
X91561880Y-477140D02*
G01*
X91563915Y-497801D01*
X91563915Y-510780D01*
X91564507Y-516418D01*
X91586262Y-710368D01*
X91593922Y-746405D01*
X91601061Y-782460D01*
X91602737Y-787876D01*
X91661750Y-973906D01*
X91676259Y-1007757D01*
X91690269Y-1041747D01*
X91692963Y-1046730D01*
X91692965Y-1046735D01*
X91692968Y-1046739D01*
X91786987Y-1217760D01*
X91798352Y-1234359D01*
X91727750Y-1304961D01*
X91658695Y-1408309D01*
X91611129Y-1523144D01*
X91586880Y-1645052D01*
X91586880Y-1769348D01*
X91611129Y-1891256D01*
X91658695Y-2006091D01*
X91709549Y-2082200D01*
X91658695Y-2158309D01*
X91611129Y-2273144D01*
X91586880Y-2395052D01*
X91586880Y-2519348D01*
X91611129Y-2641256D01*
X91658695Y-2756091D01*
X91709549Y-2832200D01*
X91658695Y-2908309D01*
X91611129Y-3023144D01*
X91586880Y-3145052D01*
X91586880Y-3269348D01*
X91611129Y-3391256D01*
X91658695Y-3506091D01*
X91727750Y-3609439D01*
X91798422Y-3680111D01*
X91779179Y-3708216D01*
X91776485Y-3713198D01*
X91776482Y-3713202D01*
X91776482Y-3713203D01*
X91684857Y-3885525D01*
X91670829Y-3919560D01*
X91656339Y-3953368D01*
X91654662Y-3958783D01*
X91598253Y-4145619D01*
X91591091Y-4181789D01*
X91583456Y-4217709D01*
X91582864Y-4223336D01*
X91582862Y-4223347D01*
X91582862Y-4223357D01*
X91563818Y-4417581D01*
X91561880Y-4437260D01*
X91561881Y-8477141D01*
X91563915Y-8497792D01*
X91563915Y-8510780D01*
X91564507Y-8516418D01*
X91586262Y-8710368D01*
X91593922Y-8746405D01*
X91601061Y-8782460D01*
X91602737Y-8787876D01*
X91661750Y-8973906D01*
X91676259Y-9007757D01*
X91690269Y-9041747D01*
X91692963Y-9046730D01*
X91692965Y-9046735D01*
X91692968Y-9046739D01*
X91786987Y-9217760D01*
X91798352Y-9234359D01*
X91727750Y-9304961D01*
X91658695Y-9408309D01*
X91611129Y-9523144D01*
X91586880Y-9645052D01*
X91586880Y-9769348D01*
X91611129Y-9891256D01*
X91658695Y-10006091D01*
X91709549Y-10082200D01*
X91658695Y-10158309D01*
X91611129Y-10273144D01*
X91586880Y-10395052D01*
X91586880Y-10519348D01*
X91611129Y-10641256D01*
X91658695Y-10756091D01*
X91709549Y-10832200D01*
X91658695Y-10908309D01*
X91611129Y-11023144D01*
X91586880Y-11145052D01*
X91586880Y-11269348D01*
X91611129Y-11391256D01*
X91658695Y-11506091D01*
X91727750Y-11609439D01*
X91798422Y-11680111D01*
X91779179Y-11708216D01*
X91776485Y-11713198D01*
X91776482Y-11713202D01*
X91776482Y-11713203D01*
X91684857Y-11885525D01*
X91670829Y-11919560D01*
X91656339Y-11953368D01*
X91654662Y-11958783D01*
X91598253Y-12145619D01*
X91591091Y-12181789D01*
X91583456Y-12217709D01*
X91582864Y-12223336D01*
X91582862Y-12223347D01*
X91582862Y-12223357D01*
X91563818Y-12417581D01*
X91561880Y-12437260D01*
X91561881Y-16437249D01*
X91559916Y-16457200D01*
X91563915Y-16497802D01*
X91563915Y-16510780D01*
X91564507Y-16516418D01*
X91586262Y-16710368D01*
X91593922Y-16746405D01*
X91601061Y-16782460D01*
X91602737Y-16787876D01*
X91661750Y-16973906D01*
X91676259Y-17007757D01*
X91690269Y-17041747D01*
X91692963Y-17046730D01*
X91692965Y-17046735D01*
X91692968Y-17046739D01*
X91786987Y-17217760D01*
X91798352Y-17234359D01*
X91727750Y-17304961D01*
X91658695Y-17408309D01*
X91611129Y-17523144D01*
X91586880Y-17645052D01*
X91586880Y-17769348D01*
X91611129Y-17891256D01*
X91658695Y-18006091D01*
X91709549Y-18082200D01*
X91658695Y-18158309D01*
X91611129Y-18273144D01*
X91586880Y-18395052D01*
X91586880Y-18519348D01*
X91611129Y-18641256D01*
X91658695Y-18756091D01*
X91709549Y-18832200D01*
X91658695Y-18908309D01*
X91611129Y-19023144D01*
X91586880Y-19145052D01*
X91586880Y-19269348D01*
X91611129Y-19391256D01*
X91658695Y-19506091D01*
X91727750Y-19609439D01*
X91798422Y-19680111D01*
X91779179Y-19708216D01*
X91776485Y-19713198D01*
X91776482Y-19713202D01*
X91776482Y-19713203D01*
X91684857Y-19885525D01*
X91670829Y-19919560D01*
X91656339Y-19953368D01*
X91654662Y-19958783D01*
X91598253Y-20145619D01*
X91591091Y-20181789D01*
X91583456Y-20217709D01*
X91582864Y-20223336D01*
X91582862Y-20223347D01*
X91582862Y-20223357D01*
X91563818Y-20417581D01*
X91561880Y-20437260D01*
X91561881Y-24477141D01*
X91563915Y-24497792D01*
X91563915Y-24510780D01*
X91564507Y-24516418D01*
X91586262Y-24710368D01*
X91593922Y-24746405D01*
X91601061Y-24782460D01*
X91602737Y-24787876D01*
X91661750Y-24973906D01*
X91676259Y-25007757D01*
X91690269Y-25041747D01*
X91692963Y-25046730D01*
X91692965Y-25046735D01*
X91692968Y-25046739D01*
X91786987Y-25217760D01*
X91798352Y-25234359D01*
X91727750Y-25304961D01*
X91658695Y-25408309D01*
X91611129Y-25523144D01*
X91586880Y-25645052D01*
X91586880Y-25769348D01*
X91611129Y-25891256D01*
X91658695Y-26006091D01*
X91709549Y-26082200D01*
X91658695Y-26158309D01*
X91611129Y-26273144D01*
X91586880Y-26395052D01*
X91586880Y-26519348D01*
X91611129Y-26641256D01*
X91658695Y-26756091D01*
X91709549Y-26832200D01*
X91658695Y-26908309D01*
X91611129Y-27023144D01*
X91586880Y-27145052D01*
X91586880Y-27269348D01*
X91611129Y-27391256D01*
X91658695Y-27506091D01*
X91727750Y-27609439D01*
X91798422Y-27680111D01*
X91779179Y-27708216D01*
X91776485Y-27713198D01*
X91776482Y-27713202D01*
X91776482Y-27713203D01*
X91684857Y-27885525D01*
X91670829Y-27919560D01*
X91656339Y-27953368D01*
X91654662Y-27958783D01*
X91598253Y-28145619D01*
X91591091Y-28181789D01*
X91583456Y-28217709D01*
X91582864Y-28223336D01*
X91582862Y-28223347D01*
X91582862Y-28223357D01*
X91563818Y-28417581D01*
X91561906Y-28436744D01*
X91559856Y-30051200D01*
X58368800Y-30051200D01*
X58368800Y-29230805D01*
X67578800Y-29230805D01*
X67704714Y-29520777D01*
X68036926Y-29686633D01*
X68395112Y-29784490D01*
X68765506Y-29810589D01*
X69133875Y-29763925D01*
X69486062Y-29646294D01*
X69720886Y-29520777D01*
X69846800Y-29230805D01*
X68712800Y-28096805D01*
X67578800Y-29230805D01*
X58368800Y-29230805D01*
X58368800Y-27321183D01*
X59581800Y-27321183D01*
X59581800Y-27593217D01*
X59634871Y-27860023D01*
X59738974Y-28111349D01*
X59890107Y-28337536D01*
X60082464Y-28529893D01*
X60308651Y-28681026D01*
X60559977Y-28785129D01*
X60826783Y-28838200D01*
X61098817Y-28838200D01*
X61365623Y-28785129D01*
X61616949Y-28681026D01*
X61843136Y-28529893D01*
X62035493Y-28337536D01*
X62186626Y-28111349D01*
X62245213Y-27969906D01*
X66819411Y-27969906D01*
X66866075Y-28338275D01*
X66983706Y-28690462D01*
X67109223Y-28925286D01*
X67399195Y-29051200D01*
X68533195Y-27917200D01*
X68892405Y-27917200D01*
X70026405Y-29051200D01*
X70316377Y-28925286D01*
X70482233Y-28593074D01*
X70580090Y-28234888D01*
X70606189Y-27864494D01*
X70592517Y-27756560D01*
X79081800Y-27756560D01*
X79081800Y-28077840D01*
X79144478Y-28392945D01*
X79267426Y-28689768D01*
X79445919Y-28956902D01*
X79673098Y-29184081D01*
X79940232Y-29362574D01*
X80237055Y-29485522D01*
X80552160Y-29548200D01*
X80873440Y-29548200D01*
X81188545Y-29485522D01*
X81485368Y-29362574D01*
X81752502Y-29184081D01*
X81979681Y-28956902D01*
X82158174Y-28689768D01*
X82281122Y-28392945D01*
X82343800Y-28077840D01*
X82343800Y-27756560D01*
X82281122Y-27441455D01*
X82231304Y-27321183D01*
X87581800Y-27321183D01*
X87581800Y-27593217D01*
X87634871Y-27860023D01*
X87738974Y-28111349D01*
X87890107Y-28337536D01*
X88082464Y-28529893D01*
X88308651Y-28681026D01*
X88559977Y-28785129D01*
X88826783Y-28838200D01*
X89098817Y-28838200D01*
X89365623Y-28785129D01*
X89616949Y-28681026D01*
X89843136Y-28529893D01*
X90035493Y-28337536D01*
X90186626Y-28111349D01*
X90290729Y-27860023D01*
X90343800Y-27593217D01*
X90343800Y-27321183D01*
X90290729Y-27054377D01*
X90186626Y-26803051D01*
X90035493Y-26576864D01*
X89843136Y-26384507D01*
X89616949Y-26233374D01*
X89365623Y-26129271D01*
X89098817Y-26076200D01*
X88826783Y-26076200D01*
X88559977Y-26129271D01*
X88308651Y-26233374D01*
X88082464Y-26384507D01*
X87890107Y-26576864D01*
X87738974Y-26803051D01*
X87634871Y-27054377D01*
X87581800Y-27321183D01*
X82231304Y-27321183D01*
X82158174Y-27144632D01*
X81979681Y-26877498D01*
X81752502Y-26650319D01*
X81485368Y-26471826D01*
X81188545Y-26348878D01*
X80873440Y-26286200D01*
X80552160Y-26286200D01*
X80237055Y-26348878D01*
X79940232Y-26471826D01*
X79673098Y-26650319D01*
X79445919Y-26877498D01*
X79267426Y-27144632D01*
X79144478Y-27441455D01*
X79081800Y-27756560D01*
X70592517Y-27756560D01*
X70559525Y-27496125D01*
X70441894Y-27143938D01*
X70316377Y-26909114D01*
X70026405Y-26783200D01*
X68892405Y-27917200D01*
X68533195Y-27917200D01*
X67399195Y-26783200D01*
X67109223Y-26909114D01*
X66943367Y-27241326D01*
X66845510Y-27599512D01*
X66819411Y-27969906D01*
X62245213Y-27969906D01*
X62290729Y-27860023D01*
X62343800Y-27593217D01*
X62343800Y-27321183D01*
X62290729Y-27054377D01*
X62215881Y-26873678D01*
X63930400Y-26873678D01*
X63930400Y-27027522D01*
X63960413Y-27178409D01*
X64019287Y-27320542D01*
X64104758Y-27448459D01*
X64213541Y-27557242D01*
X64341458Y-27642713D01*
X64483591Y-27701587D01*
X64634478Y-27731600D01*
X64788322Y-27731600D01*
X64939209Y-27701587D01*
X65081342Y-27642713D01*
X65209259Y-27557242D01*
X65318042Y-27448459D01*
X65403513Y-27320542D01*
X65462387Y-27178409D01*
X65492400Y-27027522D01*
X65492400Y-26873678D01*
X65462387Y-26722791D01*
X65403513Y-26580658D01*
X65318042Y-26452741D01*
X65209259Y-26343958D01*
X65081342Y-26258487D01*
X64939209Y-26199613D01*
X64788322Y-26169600D01*
X64634478Y-26169600D01*
X64483591Y-26199613D01*
X64341458Y-26258487D01*
X64213541Y-26343958D01*
X64104758Y-26452741D01*
X64019287Y-26580658D01*
X63960413Y-26722791D01*
X63930400Y-26873678D01*
X62215881Y-26873678D01*
X62186626Y-26803051D01*
X62035493Y-26576864D01*
X61843136Y-26384507D01*
X61616949Y-26233374D01*
X61365623Y-26129271D01*
X61098817Y-26076200D01*
X60826783Y-26076200D01*
X60559977Y-26129271D01*
X60308651Y-26233374D01*
X60082464Y-26384507D01*
X59890107Y-26576864D01*
X59738974Y-26803051D01*
X59634871Y-27054377D01*
X59581800Y-27321183D01*
X58368800Y-27321183D01*
X58368800Y-25717978D01*
X66876800Y-25717978D01*
X66876800Y-25871822D01*
X66906813Y-26022709D01*
X66965687Y-26164842D01*
X67051158Y-26292759D01*
X67159941Y-26401542D01*
X67287858Y-26487013D01*
X67429991Y-26545887D01*
X67580878Y-26575900D01*
X67590826Y-26575900D01*
X67578800Y-26603595D01*
X68712800Y-27737595D01*
X69846800Y-26603595D01*
X69720886Y-26313623D01*
X69388674Y-26147767D01*
X69030488Y-26049910D01*
X68660094Y-26023811D01*
X68394388Y-26057470D01*
X68408787Y-26022709D01*
X68438800Y-25871822D01*
X68438800Y-25717978D01*
X68408787Y-25567091D01*
X68349913Y-25424958D01*
X68264442Y-25297041D01*
X68155659Y-25188258D01*
X68027742Y-25102787D01*
X67885609Y-25043913D01*
X67734722Y-25013900D01*
X67580878Y-25013900D01*
X67429991Y-25043913D01*
X67287858Y-25102787D01*
X67159941Y-25188258D01*
X67051158Y-25297041D01*
X66965687Y-25424958D01*
X66906813Y-25567091D01*
X66876800Y-25717978D01*
X58368800Y-25717978D01*
X58368800Y-21539678D01*
X68451600Y-21539678D01*
X68451600Y-21693522D01*
X68481613Y-21844409D01*
X68540487Y-21986542D01*
X68625958Y-22114459D01*
X68734741Y-22223242D01*
X68862658Y-22308713D01*
X69004791Y-22367587D01*
X69155678Y-22397600D01*
X69309522Y-22397600D01*
X69460409Y-22367587D01*
X69602542Y-22308713D01*
X69730459Y-22223242D01*
X69839242Y-22114459D01*
X69924713Y-21986542D01*
X69983587Y-21844409D01*
X70013600Y-21693522D01*
X70013600Y-21539678D01*
X69983587Y-21388791D01*
X69924713Y-21246658D01*
X69839242Y-21118741D01*
X69738600Y-21018099D01*
X69738600Y-17081978D01*
X73874500Y-17081978D01*
X73874500Y-17235822D01*
X73904513Y-17386709D01*
X73963387Y-17528842D01*
X74048858Y-17656759D01*
X74157641Y-17765542D01*
X74285558Y-17851013D01*
X74427691Y-17909887D01*
X74578578Y-17939900D01*
X74732422Y-17939900D01*
X74883309Y-17909887D01*
X75025442Y-17851013D01*
X75153359Y-17765542D01*
X75262142Y-17656759D01*
X75347613Y-17528842D01*
X75406487Y-17386709D01*
X75436500Y-17235822D01*
X75436500Y-17081978D01*
X75406487Y-16931091D01*
X75347613Y-16788958D01*
X75262142Y-16661041D01*
X75153359Y-16552258D01*
X75025442Y-16466787D01*
X74883309Y-16407913D01*
X74732422Y-16377900D01*
X74578578Y-16377900D01*
X74427691Y-16407913D01*
X74285558Y-16466787D01*
X74157641Y-16552258D01*
X74048858Y-16661041D01*
X73963387Y-16788958D01*
X73904513Y-16931091D01*
X73874500Y-17081978D01*
X69738600Y-17081978D01*
X69738600Y-13056078D01*
X69874000Y-13056078D01*
X69874000Y-13209922D01*
X69904013Y-13360809D01*
X69962887Y-13502942D01*
X70048358Y-13630859D01*
X70157141Y-13739642D01*
X70285058Y-13825113D01*
X70427191Y-13883987D01*
X70578078Y-13914000D01*
X70731922Y-13914000D01*
X70882809Y-13883987D01*
X71024942Y-13825113D01*
X71152859Y-13739642D01*
X71261642Y-13630859D01*
X71347113Y-13502942D01*
X71405987Y-13360809D01*
X71436000Y-13209922D01*
X71436000Y-13056078D01*
X71405987Y-12905191D01*
X71347113Y-12763058D01*
X71261642Y-12635141D01*
X71152859Y-12526358D01*
X71024942Y-12440887D01*
X70882809Y-12382013D01*
X70731922Y-12352000D01*
X70578078Y-12352000D01*
X70427191Y-12382013D01*
X70285058Y-12440887D01*
X70157141Y-12526358D01*
X70048358Y-12635141D01*
X69962887Y-12763058D01*
X69904013Y-12905191D01*
X69874000Y-13056078D01*
X69738600Y-13056078D01*
X69738600Y-12807781D01*
X72320085Y-10226296D01*
X72329715Y-10274709D01*
X72388589Y-10416842D01*
X72474060Y-10544759D01*
X72582843Y-10653542D01*
X72710760Y-10739013D01*
X72852893Y-10797887D01*
X73003780Y-10827900D01*
X73157624Y-10827900D01*
X73308511Y-10797887D01*
X73450644Y-10739013D01*
X73544690Y-10676174D01*
X73595087Y-10797842D01*
X73680558Y-10925759D01*
X73789341Y-11034542D01*
X73917258Y-11120013D01*
X74059391Y-11178887D01*
X74210278Y-11208900D01*
X74364122Y-11208900D01*
X74515009Y-11178887D01*
X74657142Y-11120013D01*
X74785059Y-11034542D01*
X74893842Y-10925759D01*
X74979313Y-10797842D01*
X75004100Y-10738001D01*
X75072041Y-10805942D01*
X75199958Y-10891413D01*
X75342091Y-10950287D01*
X75492978Y-10980300D01*
X75646822Y-10980300D01*
X75797709Y-10950287D01*
X75939842Y-10891413D01*
X76067759Y-10805942D01*
X76176542Y-10697159D01*
X76262013Y-10569242D01*
X76267269Y-10556554D01*
X76279413Y-10617609D01*
X76338287Y-10759742D01*
X76423758Y-10887659D01*
X76532541Y-10996442D01*
X76660458Y-11081913D01*
X76802591Y-11140787D01*
X76953478Y-11170800D01*
X77107322Y-11170800D01*
X77258209Y-11140787D01*
X77400342Y-11081913D01*
X77528259Y-10996442D01*
X77637042Y-10887659D01*
X77722513Y-10759742D01*
X77781387Y-10617609D01*
X77794401Y-10552184D01*
X77794400Y-20878399D01*
X77693758Y-20979041D01*
X77608287Y-21106958D01*
X77549413Y-21249091D01*
X77519400Y-21399978D01*
X77519400Y-21553822D01*
X77549413Y-21704709D01*
X77608287Y-21846842D01*
X77693758Y-21974759D01*
X77802541Y-22083542D01*
X77930458Y-22169013D01*
X78072591Y-22227887D01*
X78223478Y-22257900D01*
X78377322Y-22257900D01*
X78528209Y-22227887D01*
X78670342Y-22169013D01*
X78798259Y-22083542D01*
X78907042Y-21974759D01*
X78992513Y-21846842D01*
X79051387Y-21704709D01*
X79081400Y-21553822D01*
X79081400Y-21399978D01*
X79051387Y-21249091D01*
X78992513Y-21106958D01*
X78907042Y-20979041D01*
X78806400Y-20878399D01*
X78806400Y-15419531D01*
X78809191Y-15420687D01*
X78960078Y-15450700D01*
X79113922Y-15450700D01*
X79264809Y-15420687D01*
X79406942Y-15361813D01*
X79534859Y-15276342D01*
X79643642Y-15167559D01*
X79729113Y-15039642D01*
X79787987Y-14897509D01*
X79818000Y-14746622D01*
X79818000Y-14592778D01*
X79787987Y-14441891D01*
X79729113Y-14299758D01*
X79643642Y-14171841D01*
X79534859Y-14063058D01*
X79406942Y-13977587D01*
X79264809Y-13918713D01*
X79113922Y-13888700D01*
X78960078Y-13888700D01*
X78809191Y-13918713D01*
X78806400Y-13919869D01*
X78806400Y-12971339D01*
X78948478Y-12999600D01*
X79102322Y-12999600D01*
X79253209Y-12969587D01*
X79395342Y-12910713D01*
X79523259Y-12825242D01*
X79632042Y-12716459D01*
X79717513Y-12588542D01*
X79776387Y-12446409D01*
X79806400Y-12295522D01*
X79806400Y-12141678D01*
X79776387Y-11990791D01*
X79717513Y-11848658D01*
X79632042Y-11720741D01*
X79523259Y-11611958D01*
X79395342Y-11526487D01*
X79253209Y-11467613D01*
X79102322Y-11437600D01*
X78948478Y-11437600D01*
X78806400Y-11465861D01*
X78806400Y-4719291D01*
X79896264Y-3629427D01*
X79911658Y-3639713D01*
X80053791Y-3698587D01*
X80204678Y-3728600D01*
X80358522Y-3728600D01*
X80509409Y-3698587D01*
X80651542Y-3639713D01*
X80778900Y-3554615D01*
X80778901Y-15588876D01*
X80748542Y-15543441D01*
X80639759Y-15434658D01*
X80511842Y-15349187D01*
X80369709Y-15290313D01*
X80218822Y-15260300D01*
X80064978Y-15260300D01*
X79914091Y-15290313D01*
X79771958Y-15349187D01*
X79644041Y-15434658D01*
X79535258Y-15543441D01*
X79449787Y-15671358D01*
X79390913Y-15813491D01*
X79360900Y-15964378D01*
X79360900Y-16118222D01*
X79390913Y-16269109D01*
X79449787Y-16411242D01*
X79535258Y-16539159D01*
X79644041Y-16647942D01*
X79771958Y-16733413D01*
X79914091Y-16792287D01*
X80064978Y-16822300D01*
X80218822Y-16822300D01*
X80369709Y-16792287D01*
X80511842Y-16733413D01*
X80639759Y-16647942D01*
X80748542Y-16539159D01*
X80778901Y-16493724D01*
X80778901Y-19293044D01*
X80776453Y-19317900D01*
X80786222Y-19417092D01*
X80815155Y-19512474D01*
X80825824Y-19532434D01*
X80862142Y-19600379D01*
X80925374Y-19677427D01*
X80944681Y-19693272D01*
X83488400Y-22236992D01*
X83488400Y-22379322D01*
X83518413Y-22530209D01*
X83577287Y-22672342D01*
X83662758Y-22800259D01*
X83771541Y-22909042D01*
X83899458Y-22994513D01*
X84041591Y-23053387D01*
X84192478Y-23083400D01*
X84346322Y-23083400D01*
X84497209Y-23053387D01*
X84639342Y-22994513D01*
X84767259Y-22909042D01*
X84876042Y-22800259D01*
X84961513Y-22672342D01*
X85020387Y-22530209D01*
X85050400Y-22379322D01*
X85050400Y-22225478D01*
X85020387Y-22074591D01*
X84961513Y-21932458D01*
X84876042Y-21804541D01*
X84767259Y-21695758D01*
X84639342Y-21610287D01*
X84497209Y-21551413D01*
X84346322Y-21521400D01*
X84203992Y-21521400D01*
X81790900Y-19108309D01*
X81790900Y-19002218D01*
X82370800Y-19002218D01*
X82370800Y-19156062D01*
X82400813Y-19306949D01*
X82459687Y-19449082D01*
X82545158Y-19576999D01*
X82653941Y-19685782D01*
X82781858Y-19771253D01*
X82923991Y-19830127D01*
X83074878Y-19860140D01*
X83228722Y-19860140D01*
X83379609Y-19830127D01*
X83521742Y-19771253D01*
X83564550Y-19742650D01*
X83607358Y-19771253D01*
X83749491Y-19830127D01*
X83900378Y-19860140D01*
X84054222Y-19860140D01*
X84205109Y-19830127D01*
X84347242Y-19771253D01*
X84383700Y-19746893D01*
X84420158Y-19771253D01*
X84562291Y-19830127D01*
X84713178Y-19860140D01*
X84867022Y-19860140D01*
X85017909Y-19830127D01*
X85160042Y-19771253D01*
X85287959Y-19685782D01*
X85396742Y-19576999D01*
X85482213Y-19449082D01*
X85541087Y-19306949D01*
X85571100Y-19156062D01*
X85571100Y-19002218D01*
X85541087Y-18851331D01*
X85482213Y-18709198D01*
X85396742Y-18581281D01*
X85287959Y-18472498D01*
X85160042Y-18387027D01*
X85017909Y-18328153D01*
X84968797Y-18318384D01*
X85010662Y-18276519D01*
X85096133Y-18148602D01*
X85155007Y-18006469D01*
X85185020Y-17855582D01*
X85185020Y-17701738D01*
X85155007Y-17550851D01*
X85096133Y-17408718D01*
X85075987Y-17378567D01*
X85121533Y-17310402D01*
X85180407Y-17168269D01*
X85210420Y-17017382D01*
X85210420Y-16863538D01*
X85180407Y-16712651D01*
X85121533Y-16570518D01*
X85088702Y-16521382D01*
X85113854Y-16460660D01*
X85143867Y-16309773D01*
X85143867Y-16155929D01*
X85113854Y-16005042D01*
X85054980Y-15862909D01*
X84969509Y-15734992D01*
X84860726Y-15626209D01*
X84732809Y-15540738D01*
X84590676Y-15481864D01*
X84439789Y-15451851D01*
X84285945Y-15451851D01*
X84135058Y-15481864D01*
X83992925Y-15540738D01*
X83865008Y-15626209D01*
X83756225Y-15734992D01*
X83670754Y-15862909D01*
X83611880Y-16005042D01*
X83581867Y-16155929D01*
X83581867Y-16309773D01*
X83611880Y-16460660D01*
X83670754Y-16602793D01*
X83703585Y-16651929D01*
X83678433Y-16712651D01*
X83648420Y-16863538D01*
X83648420Y-17017382D01*
X83678433Y-17168269D01*
X83737307Y-17310402D01*
X83757453Y-17340553D01*
X83711907Y-17408718D01*
X83653033Y-17550851D01*
X83623020Y-17701738D01*
X83623020Y-17855582D01*
X83653033Y-18006469D01*
X83711907Y-18148602D01*
X83797378Y-18276519D01*
X83832501Y-18311642D01*
X83749491Y-18328153D01*
X83607358Y-18387027D01*
X83564550Y-18415630D01*
X83521742Y-18387027D01*
X83379609Y-18328153D01*
X83228722Y-18298140D01*
X83074878Y-18298140D01*
X82923991Y-18328153D01*
X82781858Y-18387027D01*
X82653941Y-18472498D01*
X82545158Y-18581281D01*
X82459687Y-18709198D01*
X82400813Y-18851331D01*
X82370800Y-19002218D01*
X81790900Y-19002218D01*
X81790900Y-15201801D01*
X81814641Y-15225542D01*
X81942558Y-15311013D01*
X82084691Y-15369887D01*
X82235578Y-15399900D01*
X82389422Y-15399900D01*
X82540309Y-15369887D01*
X82682442Y-15311013D01*
X82810359Y-15225542D01*
X82919142Y-15116759D01*
X83004613Y-14988842D01*
X83063487Y-14846709D01*
X83093500Y-14695822D01*
X83093500Y-14541978D01*
X83063487Y-14391091D01*
X83055248Y-14371200D01*
X83114422Y-14371200D01*
X83265309Y-14341187D01*
X83407442Y-14282313D01*
X83535359Y-14196842D01*
X83644142Y-14088059D01*
X83729613Y-13960142D01*
X83788487Y-13818009D01*
X83818500Y-13667122D01*
X83818500Y-13513278D01*
X83788487Y-13362391D01*
X83729613Y-13220258D01*
X83644142Y-13092341D01*
X83535359Y-12983558D01*
X83407442Y-12898087D01*
X83265309Y-12839213D01*
X83114422Y-12809200D01*
X82960578Y-12809200D01*
X82809691Y-12839213D01*
X82667558Y-12898087D01*
X82539641Y-12983558D01*
X82430858Y-13092341D01*
X82345387Y-13220258D01*
X82286513Y-13362391D01*
X82256500Y-13513278D01*
X82256500Y-13667122D01*
X82286513Y-13818009D01*
X82294752Y-13837900D01*
X82235578Y-13837900D01*
X82084691Y-13867913D01*
X81942558Y-13926787D01*
X81814641Y-14012258D01*
X81790900Y-14035999D01*
X81790900Y-11112978D01*
X82053300Y-11112978D01*
X82053300Y-11266822D01*
X82083313Y-11417709D01*
X82142187Y-11559842D01*
X82227658Y-11687759D01*
X82336441Y-11796542D01*
X82464358Y-11882013D01*
X82606491Y-11940887D01*
X82757378Y-11970900D01*
X82911222Y-11970900D01*
X83062109Y-11940887D01*
X83204242Y-11882013D01*
X83332159Y-11796542D01*
X83440942Y-11687759D01*
X83526413Y-11559842D01*
X83585287Y-11417709D01*
X83615300Y-11266822D01*
X83615300Y-11112978D01*
X83585287Y-10962091D01*
X83526413Y-10819958D01*
X83440942Y-10692041D01*
X83332159Y-10583258D01*
X83204242Y-10497787D01*
X83062109Y-10438913D01*
X82911222Y-10408900D01*
X82757378Y-10408900D01*
X82606491Y-10438913D01*
X82464358Y-10497787D01*
X82336441Y-10583258D01*
X82227658Y-10692041D01*
X82142187Y-10819958D01*
X82083313Y-10962091D01*
X82053300Y-11112978D01*
X81790900Y-11112978D01*
X81790900Y-9392629D01*
X81863997Y-9502027D01*
X81972780Y-9610810D01*
X82100697Y-9696281D01*
X82242830Y-9755155D01*
X82393717Y-9785168D01*
X82547561Y-9785168D01*
X82698448Y-9755155D01*
X82840581Y-9696281D01*
X82968498Y-9610810D01*
X83077281Y-9502027D01*
X83162752Y-9374110D01*
X83221626Y-9231977D01*
X83251639Y-9081090D01*
X83251639Y-8927246D01*
X83221626Y-8776359D01*
X83162752Y-8634226D01*
X83077281Y-8506309D01*
X82968498Y-8397526D01*
X82840581Y-8312055D01*
X82698448Y-8253181D01*
X82547561Y-8223168D01*
X82393717Y-8223168D01*
X82242830Y-8253181D01*
X82100697Y-8312055D01*
X81972780Y-8397526D01*
X81863997Y-8506309D01*
X81790900Y-8615707D01*
X81790900Y-4889978D01*
X84148800Y-4889978D01*
X84148800Y-5043822D01*
X84178813Y-5194709D01*
X84237687Y-5336842D01*
X84323158Y-5464759D01*
X84431941Y-5573542D01*
X84559858Y-5659013D01*
X84701991Y-5717887D01*
X84852878Y-5747900D01*
X85006722Y-5747900D01*
X85157609Y-5717887D01*
X85299742Y-5659013D01*
X85427659Y-5573542D01*
X85536442Y-5464759D01*
X85621913Y-5336842D01*
X85680787Y-5194709D01*
X85710800Y-5043822D01*
X85710800Y-4889978D01*
X85680787Y-4739091D01*
X85621913Y-4596958D01*
X85536442Y-4469041D01*
X85427659Y-4360258D01*
X85299742Y-4274787D01*
X85157609Y-4215913D01*
X85006722Y-4185900D01*
X84852878Y-4185900D01*
X84701991Y-4215913D01*
X84559858Y-4274787D01*
X84431941Y-4360258D01*
X84323158Y-4469041D01*
X84237687Y-4596958D01*
X84178813Y-4739091D01*
X84148800Y-4889978D01*
X81790900Y-4889978D01*
X81790900Y-3442178D01*
X83488400Y-3442178D01*
X83488400Y-3596022D01*
X83518413Y-3746909D01*
X83577287Y-3889042D01*
X83662758Y-4016959D01*
X83771541Y-4125742D01*
X83899458Y-4211213D01*
X84041591Y-4270087D01*
X84192478Y-4300100D01*
X84346322Y-4300100D01*
X84497209Y-4270087D01*
X84639342Y-4211213D01*
X84767259Y-4125742D01*
X84876042Y-4016959D01*
X84961513Y-3889042D01*
X85020387Y-3746909D01*
X85050400Y-3596022D01*
X85050400Y-3442178D01*
X85020387Y-3291291D01*
X84961513Y-3149158D01*
X84876042Y-3021241D01*
X84767259Y-2912458D01*
X84639342Y-2826987D01*
X84497209Y-2768113D01*
X84346322Y-2738100D01*
X84192478Y-2738100D01*
X84041591Y-2768113D01*
X83899458Y-2826987D01*
X83771541Y-2912458D01*
X83662758Y-3021241D01*
X83577287Y-3149158D01*
X83518413Y-3291291D01*
X83488400Y-3442178D01*
X81790900Y-3442178D01*
X81790900Y-2212601D01*
X81891542Y-2111959D01*
X81977013Y-1984042D01*
X82035887Y-1841909D01*
X82065900Y-1691022D01*
X82065900Y-1537178D01*
X82035887Y-1386291D01*
X81977013Y-1244158D01*
X81891542Y-1116241D01*
X81782759Y-1007458D01*
X81654842Y-921987D01*
X81512709Y-863113D01*
X81361822Y-833100D01*
X81207978Y-833100D01*
X81057091Y-863113D01*
X80914958Y-921987D01*
X80880226Y-945194D01*
X80799342Y-824141D01*
X80690559Y-715358D01*
X80562642Y-629887D01*
X80420509Y-571013D01*
X80269622Y-541000D01*
X80115778Y-541000D01*
X79964891Y-571013D01*
X79822758Y-629887D01*
X79694841Y-715358D01*
X79586058Y-824141D01*
X79500587Y-952058D01*
X79441713Y-1094191D01*
X79411700Y-1245078D01*
X79411700Y-1398922D01*
X79441713Y-1549809D01*
X79477937Y-1637261D01*
X78579964Y-2535234D01*
X78560713Y-2488758D01*
X78475242Y-2360841D01*
X78366459Y-2252058D01*
X78238542Y-2166587D01*
X78096409Y-2107713D01*
X77945522Y-2077700D01*
X77791678Y-2077700D01*
X77640791Y-2107713D01*
X77498658Y-2166587D01*
X77370741Y-2252058D01*
X77261958Y-2360841D01*
X77176487Y-2488758D01*
X77117613Y-2630891D01*
X77087600Y-2781778D01*
X77087600Y-2809808D01*
X74738176Y-5159232D01*
X74699913Y-5066858D01*
X74614442Y-4938941D01*
X74505659Y-4830158D01*
X74377742Y-4744687D01*
X74235609Y-4685813D01*
X74084722Y-4655800D01*
X73930878Y-4655800D01*
X73779991Y-4685813D01*
X73637858Y-4744687D01*
X73566497Y-4792369D01*
X73514142Y-4757387D01*
X73372009Y-4698513D01*
X73221122Y-4668500D01*
X73067278Y-4668500D01*
X72916391Y-4698513D01*
X72774258Y-4757387D01*
X72725057Y-4790262D01*
X72637842Y-4731987D01*
X72495709Y-4673113D01*
X72344822Y-4643100D01*
X72190978Y-4643100D01*
X72040091Y-4673113D01*
X71897958Y-4731987D01*
X71770041Y-4817458D01*
X71661258Y-4926241D01*
X71575787Y-5054158D01*
X71516913Y-5196291D01*
X71486900Y-5347178D01*
X71486900Y-5501022D01*
X71516913Y-5651909D01*
X71575787Y-5794042D01*
X71661258Y-5921959D01*
X71770041Y-6030742D01*
X71897958Y-6116213D01*
X72040091Y-6175087D01*
X72190978Y-6205100D01*
X72344822Y-6205100D01*
X72495709Y-6175087D01*
X72637842Y-6116213D01*
X72687043Y-6083338D01*
X72774258Y-6141613D01*
X72916391Y-6200487D01*
X73067278Y-6230500D01*
X73221122Y-6230500D01*
X73372009Y-6200487D01*
X73514142Y-6141613D01*
X73585503Y-6093931D01*
X73637858Y-6128913D01*
X73730232Y-6167176D01*
X69996509Y-9900900D01*
X69854178Y-9900900D01*
X69703291Y-9930913D01*
X69561158Y-9989787D01*
X69433241Y-10075258D01*
X69324458Y-10184041D01*
X69238987Y-10311958D01*
X69180113Y-10454091D01*
X69150100Y-10604978D01*
X69150100Y-10758822D01*
X69180113Y-10909709D01*
X69238987Y-11051842D01*
X69324458Y-11179759D01*
X69433241Y-11288542D01*
X69561158Y-11374013D01*
X69688457Y-11426742D01*
X68892385Y-12222814D01*
X68873073Y-12238663D01*
X68809841Y-12315711D01*
X68762855Y-12403616D01*
X68733922Y-12498998D01*
X68726600Y-12573337D01*
X68726600Y-12573344D01*
X68724153Y-12598190D01*
X68726600Y-12623036D01*
X68726601Y-21018098D01*
X68625958Y-21118741D01*
X68540487Y-21246658D01*
X68481613Y-21388791D01*
X68451600Y-21539678D01*
X58368800Y-21539678D01*
X58368800Y-18716454D01*
X61326200Y-18716454D01*
X61326200Y-18880146D01*
X61358135Y-19040694D01*
X61420777Y-19191926D01*
X61511720Y-19328032D01*
X61627468Y-19443780D01*
X61763574Y-19534723D01*
X61914806Y-19597365D01*
X62075354Y-19629300D01*
X62239046Y-19629300D01*
X62399594Y-19597365D01*
X62550826Y-19534723D01*
X62580897Y-19514630D01*
X62588813Y-19554427D01*
X62647687Y-19696560D01*
X62733158Y-19824477D01*
X62841941Y-19933260D01*
X62969858Y-20018731D01*
X63111991Y-20077605D01*
X63262878Y-20107618D01*
X63416722Y-20107618D01*
X63567609Y-20077605D01*
X63709742Y-20018731D01*
X63837659Y-19933260D01*
X63946442Y-19824477D01*
X64031913Y-19696560D01*
X64090787Y-19554427D01*
X64120800Y-19403540D01*
X64120800Y-19249696D01*
X64090787Y-19098809D01*
X64031913Y-18956676D01*
X63946442Y-18828759D01*
X63837659Y-18719976D01*
X63709742Y-18634505D01*
X63567609Y-18575631D01*
X63416722Y-18545618D01*
X63262878Y-18545618D01*
X63111991Y-18575631D01*
X62971744Y-18633724D01*
X62956265Y-18555906D01*
X62893623Y-18404674D01*
X62802680Y-18268568D01*
X62686932Y-18152820D01*
X62550826Y-18061877D01*
X62399594Y-17999235D01*
X62239046Y-17967300D01*
X62075354Y-17967300D01*
X61914806Y-17999235D01*
X61763574Y-18061877D01*
X61627468Y-18152820D01*
X61511720Y-18268568D01*
X61420777Y-18404674D01*
X61358135Y-18555906D01*
X61326200Y-18716454D01*
X58368800Y-18716454D01*
X58368800Y-14316454D01*
X61326200Y-14316454D01*
X61326200Y-14480146D01*
X61358135Y-14640694D01*
X61420777Y-14791926D01*
X61511720Y-14928032D01*
X61627468Y-15043780D01*
X61763574Y-15134723D01*
X61914806Y-15197365D01*
X62075354Y-15229300D01*
X62239046Y-15229300D01*
X62399594Y-15197365D01*
X62550826Y-15134723D01*
X62686932Y-15043780D01*
X62802680Y-14928032D01*
X62893623Y-14791926D01*
X62956265Y-14640694D01*
X62988200Y-14480146D01*
X62988200Y-14316454D01*
X62956265Y-14155906D01*
X62947845Y-14135578D01*
X65873500Y-14135578D01*
X65873500Y-14289422D01*
X65903513Y-14440309D01*
X65962387Y-14582442D01*
X66047858Y-14710359D01*
X66156641Y-14819142D01*
X66284558Y-14904613D01*
X66426691Y-14963487D01*
X66577578Y-14993500D01*
X66731422Y-14993500D01*
X66882309Y-14963487D01*
X67024442Y-14904613D01*
X67152359Y-14819142D01*
X67261142Y-14710359D01*
X67346613Y-14582442D01*
X67405487Y-14440309D01*
X67435500Y-14289422D01*
X67435500Y-14135578D01*
X67405487Y-13984691D01*
X67346613Y-13842558D01*
X67261142Y-13714641D01*
X67152359Y-13605858D01*
X67024442Y-13520387D01*
X66882309Y-13461513D01*
X66731422Y-13431500D01*
X66577578Y-13431500D01*
X66426691Y-13461513D01*
X66284558Y-13520387D01*
X66156641Y-13605858D01*
X66047858Y-13714641D01*
X65962387Y-13842558D01*
X65903513Y-13984691D01*
X65873500Y-14135578D01*
X62947845Y-14135578D01*
X62893623Y-14004674D01*
X62802680Y-13868568D01*
X62686932Y-13752820D01*
X62550826Y-13661877D01*
X62399594Y-13599235D01*
X62239046Y-13567300D01*
X62075354Y-13567300D01*
X61914806Y-13599235D01*
X61763574Y-13661877D01*
X61627468Y-13752820D01*
X61511720Y-13868568D01*
X61420777Y-14004674D01*
X61358135Y-14155906D01*
X61326200Y-14316454D01*
X58368800Y-14316454D01*
X58368800Y-9754078D01*
X60780800Y-9754078D01*
X60780800Y-9907922D01*
X60810813Y-10058809D01*
X60869687Y-10200942D01*
X60955158Y-10328859D01*
X61063941Y-10437642D01*
X61191858Y-10523113D01*
X61333991Y-10581987D01*
X61484878Y-10612000D01*
X61638722Y-10612000D01*
X61789609Y-10581987D01*
X61931742Y-10523113D01*
X62059659Y-10437642D01*
X62168442Y-10328859D01*
X62253913Y-10200942D01*
X62312787Y-10058809D01*
X62342800Y-9907922D01*
X62342800Y-9754078D01*
X62312787Y-9603191D01*
X62253913Y-9461058D01*
X62168442Y-9333141D01*
X62059659Y-9224358D01*
X61931742Y-9138887D01*
X61789609Y-9080013D01*
X61638722Y-9050000D01*
X61484878Y-9050000D01*
X61333991Y-9080013D01*
X61191858Y-9138887D01*
X61063941Y-9224358D01*
X60955158Y-9333141D01*
X60869687Y-9461058D01*
X60810813Y-9603191D01*
X60780800Y-9754078D01*
X58368800Y-9754078D01*
X58368800Y-3683478D01*
X66038600Y-3683478D01*
X66038600Y-3837322D01*
X66068613Y-3988209D01*
X66127487Y-4130342D01*
X66212958Y-4258259D01*
X66321741Y-4367042D01*
X66449658Y-4452513D01*
X66591791Y-4511387D01*
X66742678Y-4541400D01*
X66896522Y-4541400D01*
X67047409Y-4511387D01*
X67189542Y-4452513D01*
X67317459Y-4367042D01*
X67426242Y-4258259D01*
X67511713Y-4130342D01*
X67570587Y-3988209D01*
X67600600Y-3837322D01*
X67600600Y-3683478D01*
X67570587Y-3532591D01*
X67511713Y-3390458D01*
X67426242Y-3262541D01*
X67317459Y-3153758D01*
X67189542Y-3068287D01*
X67085862Y-3025341D01*
X67227642Y-2966613D01*
X67355559Y-2881142D01*
X67392701Y-2844000D01*
X70843899Y-2844000D01*
X70944541Y-2944642D01*
X71072458Y-3030113D01*
X71214591Y-3088987D01*
X71365478Y-3119000D01*
X71519322Y-3119000D01*
X71670209Y-3088987D01*
X71812342Y-3030113D01*
X71940259Y-2944642D01*
X72049042Y-2835859D01*
X72134513Y-2707942D01*
X72193387Y-2565809D01*
X72223400Y-2414922D01*
X72223400Y-2261078D01*
X72193387Y-2110191D01*
X72134513Y-1968058D01*
X72049042Y-1840141D01*
X71940259Y-1731358D01*
X71812342Y-1645887D01*
X71670209Y-1587013D01*
X71519322Y-1557000D01*
X71365478Y-1557000D01*
X71214591Y-1587013D01*
X71072458Y-1645887D01*
X70944541Y-1731358D01*
X70843899Y-1832000D01*
X69677631Y-1832000D01*
X69678787Y-1829209D01*
X69708800Y-1678322D01*
X69708800Y-1524478D01*
X69678787Y-1373591D01*
X69619913Y-1231458D01*
X69534442Y-1103541D01*
X69425659Y-994758D01*
X69297742Y-909287D01*
X69155609Y-850413D01*
X69004722Y-820400D01*
X68850878Y-820400D01*
X68699991Y-850413D01*
X68557858Y-909287D01*
X68429941Y-994758D01*
X68321158Y-1103541D01*
X68235687Y-1231458D01*
X68176813Y-1373591D01*
X68146800Y-1524478D01*
X68146800Y-1678322D01*
X68176813Y-1829209D01*
X68177969Y-1832000D01*
X67501332Y-1832000D01*
X67464342Y-1776641D01*
X67355559Y-1667858D01*
X67227642Y-1582387D01*
X67085509Y-1523513D01*
X66934622Y-1493500D01*
X66780778Y-1493500D01*
X66629891Y-1523513D01*
X66487758Y-1582387D01*
X66359841Y-1667858D01*
X66251058Y-1776641D01*
X66165587Y-1904558D01*
X66106713Y-2046691D01*
X66076700Y-2197578D01*
X66076700Y-2351422D01*
X66106713Y-2502309D01*
X66165587Y-2644442D01*
X66251058Y-2772359D01*
X66359841Y-2881142D01*
X66487758Y-2966613D01*
X66591438Y-3009559D01*
X66449658Y-3068287D01*
X66321741Y-3153758D01*
X66212958Y-3262541D01*
X66127487Y-3390458D01*
X66068613Y-3532591D01*
X66038600Y-3683478D01*
X58368800Y-3683478D01*
X58368800Y-965678D01*
X62698500Y-965678D01*
X62698500Y-1119522D01*
X62728513Y-1270409D01*
X62787387Y-1412542D01*
X62872858Y-1540459D01*
X62981641Y-1649242D01*
X63109558Y-1734713D01*
X63251691Y-1793587D01*
X63402578Y-1823600D01*
X63556422Y-1823600D01*
X63707309Y-1793587D01*
X63849442Y-1734713D01*
X63977359Y-1649242D01*
X64086142Y-1540459D01*
X64171613Y-1412542D01*
X64230487Y-1270409D01*
X64260500Y-1119522D01*
X64260500Y-965678D01*
X64230487Y-814791D01*
X64171613Y-672658D01*
X64086142Y-544741D01*
X63977359Y-435958D01*
X63849442Y-350487D01*
X63707309Y-291613D01*
X63556422Y-261600D01*
X63402578Y-261600D01*
X63251691Y-291613D01*
X63109558Y-350487D01*
X62981641Y-435958D01*
X62872858Y-544741D01*
X62787387Y-672658D01*
X62728513Y-814791D01*
X62698500Y-965678D01*
X58368800Y-965678D01*
X58368800Y678817D01*
X59581800Y678817D01*
X59581800Y406783D01*
X59634871Y139977D01*
X59738974Y-111349D01*
X59890107Y-337536D01*
X60082464Y-529893D01*
X60308651Y-681026D01*
X60559977Y-785129D01*
X60826783Y-838200D01*
X61098817Y-838200D01*
X61365623Y-785129D01*
X61616949Y-681026D01*
X61843136Y-529893D01*
X62035493Y-337536D01*
X62186626Y-111349D01*
X62290729Y139977D01*
X62343800Y406783D01*
X62343800Y678817D01*
X87581800Y678817D01*
X87581800Y406783D01*
X87634871Y139977D01*
X87738974Y-111349D01*
X87890107Y-337536D01*
X88082464Y-529893D01*
X88308651Y-681026D01*
X88559977Y-785129D01*
X88826783Y-838200D01*
X89098817Y-838200D01*
X89365623Y-785129D01*
X89616949Y-681026D01*
X89843136Y-529893D01*
X90035493Y-337536D01*
X90186626Y-111349D01*
X90290729Y139977D01*
X90343800Y406783D01*
X90343800Y678817D01*
X90290729Y945623D01*
X90186626Y1196949D01*
X90035493Y1423136D01*
X89843136Y1615493D01*
X89616949Y1766626D01*
X89365623Y1870729D01*
X89098817Y1923800D01*
X88826783Y1923800D01*
X88559977Y1870729D01*
X88308651Y1766626D01*
X88082464Y1615493D01*
X87890107Y1423136D01*
X87738974Y1196949D01*
X87634871Y945623D01*
X87581800Y678817D01*
X62343800Y678817D01*
X62290729Y945623D01*
X62186626Y1196949D01*
X62035493Y1423136D01*
X61843136Y1615493D01*
X61616949Y1766626D01*
X61365623Y1870729D01*
X61098817Y1923800D01*
X60826783Y1923800D01*
X60559977Y1870729D01*
X60308651Y1766626D01*
X60082464Y1615493D01*
X59890107Y1423136D01*
X59738974Y1196949D01*
X59634871Y945623D01*
X59581800Y678817D01*
X58368800Y678817D01*
X58368800Y3136800D01*
X91561881Y3136800D01*
X91561880Y-477140D01*
G37*
G04 #@! TD.AperFunction*
G04 #@! TD*
M02*
