%TF.GenerationSoftware,KiCad,Pcbnew,(5.1.8)-1*%
%TF.CreationDate,2021-06-20T20:47:25+01:00*%
%TF.ProjectId,schem_1,73636865-6d5f-4312-9e6b-696361645f70,rev?*%
%TF.SameCoordinates,Original*%
%TF.FileFunction,Paste,Top*%
%TF.FilePolarity,Positive*%
%FSLAX45Y45*%
G04 Gerber Fmt 4.5, Leading zero omitted, Abs format (unit mm)*
G04 Created by KiCad (PCBNEW (5.1.8)-1) date 2021-06-20 20:47:25*
%MOMM*%
%LPD*%
G01*
G04 APERTURE LIST*
%ADD10R,0.900000X0.900000*%
%ADD11R,1.500000X0.900000*%
%ADD12R,2.000000X0.320000*%
%ADD13R,1.100000X0.300000*%
%ADD14R,3.100000X2.300000*%
%ADD15R,0.900000X1.000000*%
G04 APERTURE END LIST*
D10*
%TO.C,U1*%
X11147688Y-1372526D03*
X11427688Y-1372526D03*
X11287688Y-1372526D03*
X11287688Y-1512526D03*
X11147688Y-1512526D03*
X11427688Y-1512526D03*
X11147688Y-1652526D03*
X11287688Y-1652526D03*
X11427688Y-1652526D03*
D11*
X10234748Y-643246D03*
X10234748Y-770246D03*
X10234748Y-897246D03*
X10234748Y-1024246D03*
X10234748Y-1151246D03*
X10234748Y-1278246D03*
X10234748Y-1405246D03*
X10234748Y-1532246D03*
X10234748Y-1659246D03*
X10234748Y-1786246D03*
X10234748Y-1913246D03*
X10234748Y-2040246D03*
X10234748Y-2167246D03*
X10234748Y-2294246D03*
X10234748Y-516246D03*
X10234748Y-389246D03*
X10234748Y-262246D03*
X10234748Y-135246D03*
X10234748Y-8246D03*
X12035748Y-8246D03*
X12035748Y-135246D03*
X12035748Y-262246D03*
X12035748Y-389246D03*
X12035748Y-516246D03*
X12035748Y-643246D03*
X12035748Y-770246D03*
X12035748Y-897246D03*
X12035748Y-1024246D03*
X12035748Y-1151246D03*
X12035748Y-1278246D03*
X12035748Y-1405246D03*
X12035748Y-1532246D03*
X12035748Y-1659246D03*
X12035748Y-1786246D03*
X12035748Y-1913246D03*
X12035748Y-2040246D03*
X12035748Y-2167246D03*
X12035748Y-2294246D03*
%TD*%
D12*
%TO.C,U7*%
X8069180Y-714300D03*
X8069180Y-900300D03*
X8069180Y-962300D03*
X8069180Y-838300D03*
X8069180Y-776300D03*
X8069180Y-1024300D03*
X8069180Y-1086300D03*
X8069180Y-1148300D03*
X8069180Y-1210300D03*
X8069180Y-1272300D03*
X8069180Y-1334300D03*
X8069180Y-1396300D03*
X8069180Y-1458300D03*
X8069180Y-1520300D03*
%TD*%
D13*
%TO.C,J1*%
X9492548Y-2054846D03*
X9492548Y-2004846D03*
X9492548Y-1954846D03*
X9492548Y-1904846D03*
X9492548Y-1854846D03*
X9492548Y-1804846D03*
X9492548Y-1754846D03*
X9492548Y-1704846D03*
X9492548Y-1654846D03*
X9492548Y-1604846D03*
X9492548Y-1554846D03*
X9492548Y-1504846D03*
X9492548Y-1454846D03*
X9492548Y-1404846D03*
X9492548Y-1354846D03*
X9492548Y-1304846D03*
X9492548Y-1254846D03*
X9492548Y-1204846D03*
X9492548Y-1154846D03*
X9492548Y-1104846D03*
X9492548Y-1054846D03*
X9492548Y-1004846D03*
X9492548Y-954846D03*
X9492548Y-904846D03*
D14*
X9662548Y-2221846D03*
X9662548Y-737846D03*
%TD*%
%TO.C,R27*%
G36*
G01*
X12456698Y-1253286D02*
X12456698Y-1308286D01*
G75*
G02*
X12436698Y-1328286I-20000J0D01*
G01*
X12396698Y-1328286D01*
G75*
G02*
X12376698Y-1308286I0J20000D01*
G01*
X12376698Y-1253286D01*
G75*
G02*
X12396698Y-1233286I20000J0D01*
G01*
X12436698Y-1233286D01*
G75*
G02*
X12456698Y-1253286I0J-20000D01*
G01*
G37*
G36*
G01*
X12291698Y-1253286D02*
X12291698Y-1308286D01*
G75*
G02*
X12271698Y-1328286I-20000J0D01*
G01*
X12231698Y-1328286D01*
G75*
G02*
X12211698Y-1308286I0J20000D01*
G01*
X12211698Y-1253286D01*
G75*
G02*
X12231698Y-1233286I20000J0D01*
G01*
X12271698Y-1233286D01*
G75*
G02*
X12291698Y-1253286I0J-20000D01*
G01*
G37*
%TD*%
%TO.C,R7*%
G36*
G01*
X9784778Y-444686D02*
X9784778Y-389686D01*
G75*
G02*
X9804778Y-369686I20000J0D01*
G01*
X9844778Y-369686D01*
G75*
G02*
X9864778Y-389686I0J-20000D01*
G01*
X9864778Y-444686D01*
G75*
G02*
X9844778Y-464686I-20000J0D01*
G01*
X9804778Y-464686D01*
G75*
G02*
X9784778Y-444686I0J20000D01*
G01*
G37*
G36*
G01*
X9949778Y-444686D02*
X9949778Y-389686D01*
G75*
G02*
X9969778Y-369686I20000J0D01*
G01*
X10009778Y-369686D01*
G75*
G02*
X10029778Y-389686I0J-20000D01*
G01*
X10029778Y-444686D01*
G75*
G02*
X10009778Y-464686I-20000J0D01*
G01*
X9969778Y-464686D01*
G75*
G02*
X9949778Y-444686I0J20000D01*
G01*
G37*
%TD*%
%TO.C,R6*%
G36*
G01*
X9721148Y-223316D02*
X9721148Y-278316D01*
G75*
G02*
X9701148Y-298316I-20000J0D01*
G01*
X9661148Y-298316D01*
G75*
G02*
X9641148Y-278316I0J20000D01*
G01*
X9641148Y-223316D01*
G75*
G02*
X9661148Y-203316I20000J0D01*
G01*
X9701148Y-203316D01*
G75*
G02*
X9721148Y-223316I0J-20000D01*
G01*
G37*
G36*
G01*
X9556148Y-223316D02*
X9556148Y-278316D01*
G75*
G02*
X9536148Y-298316I-20000J0D01*
G01*
X9496148Y-298316D01*
G75*
G02*
X9476148Y-278316I0J20000D01*
G01*
X9476148Y-223316D01*
G75*
G02*
X9496148Y-203316I20000J0D01*
G01*
X9536148Y-203316D01*
G75*
G02*
X9556148Y-223316I0J-20000D01*
G01*
G37*
%TD*%
%TO.C,R3*%
G36*
G01*
X12211698Y-1051746D02*
X12211698Y-996746D01*
G75*
G02*
X12231698Y-976746I20000J0D01*
G01*
X12271698Y-976746D01*
G75*
G02*
X12291698Y-996746I0J-20000D01*
G01*
X12291698Y-1051746D01*
G75*
G02*
X12271698Y-1071746I-20000J0D01*
G01*
X12231698Y-1071746D01*
G75*
G02*
X12211698Y-1051746I0J20000D01*
G01*
G37*
G36*
G01*
X12376698Y-1051746D02*
X12376698Y-996746D01*
G75*
G02*
X12396698Y-976746I20000J0D01*
G01*
X12436698Y-976746D01*
G75*
G02*
X12456698Y-996746I0J-20000D01*
G01*
X12456698Y-1051746D01*
G75*
G02*
X12436698Y-1071746I-20000J0D01*
G01*
X12396698Y-1071746D01*
G75*
G02*
X12376698Y-1051746I0J20000D01*
G01*
G37*
%TD*%
%TO.C,R1*%
G36*
G01*
X12211648Y-899346D02*
X12211648Y-844346D01*
G75*
G02*
X12231648Y-824346I20000J0D01*
G01*
X12271648Y-824346D01*
G75*
G02*
X12291648Y-844346I0J-20000D01*
G01*
X12291648Y-899346D01*
G75*
G02*
X12271648Y-919346I-20000J0D01*
G01*
X12231648Y-919346D01*
G75*
G02*
X12211648Y-899346I0J20000D01*
G01*
G37*
G36*
G01*
X12376648Y-899346D02*
X12376648Y-844346D01*
G75*
G02*
X12396648Y-824346I20000J0D01*
G01*
X12436648Y-824346D01*
G75*
G02*
X12456648Y-844346I0J-20000D01*
G01*
X12456648Y-899346D01*
G75*
G02*
X12436648Y-919346I-20000J0D01*
G01*
X12396648Y-919346D01*
G75*
G02*
X12376648Y-899346I0J20000D01*
G01*
G37*
%TD*%
%TO.C,D4*%
G36*
G01*
X8031980Y-3835D02*
X8031980Y87415D01*
G75*
G02*
X8056355Y111790I24375J0D01*
G01*
X8105105Y111790D01*
G75*
G02*
X8129480Y87415I0J-24375D01*
G01*
X8129480Y-3835D01*
G75*
G02*
X8105105Y-28210I-24375J0D01*
G01*
X8056355Y-28210D01*
G75*
G02*
X8031980Y-3835I0J24375D01*
G01*
G37*
G36*
G01*
X8219480Y-3835D02*
X8219480Y87415D01*
G75*
G02*
X8243855Y111790I24375J0D01*
G01*
X8292605Y111790D01*
G75*
G02*
X8316980Y87415I0J-24375D01*
G01*
X8316980Y-3835D01*
G75*
G02*
X8292605Y-28210I-24375J0D01*
G01*
X8243855Y-28210D01*
G75*
G02*
X8219480Y-3835I0J24375D01*
G01*
G37*
%TD*%
%TO.C,D3*%
G36*
G01*
X6660070Y-3835D02*
X6660070Y87415D01*
G75*
G02*
X6684445Y111790I24375J0D01*
G01*
X6733195Y111790D01*
G75*
G02*
X6757570Y87415I0J-24375D01*
G01*
X6757570Y-3835D01*
G75*
G02*
X6733195Y-28210I-24375J0D01*
G01*
X6684445Y-28210D01*
G75*
G02*
X6660070Y-3835I0J24375D01*
G01*
G37*
G36*
G01*
X6847570Y-3835D02*
X6847570Y87415D01*
G75*
G02*
X6871945Y111790I24375J0D01*
G01*
X6920695Y111790D01*
G75*
G02*
X6945070Y87415I0J-24375D01*
G01*
X6945070Y-3835D01*
G75*
G02*
X6920695Y-28210I-24375J0D01*
G01*
X6871945Y-28210D01*
G75*
G02*
X6847570Y-3835I0J24375D01*
G01*
G37*
%TD*%
%TO.C,C26*%
G36*
G01*
X12438873Y-2101646D02*
X12488873Y-2101646D01*
G75*
G02*
X12511373Y-2124146I0J-22500D01*
G01*
X12511373Y-2169146D01*
G75*
G02*
X12488873Y-2191646I-22500J0D01*
G01*
X12438873Y-2191646D01*
G75*
G02*
X12416373Y-2169146I0J22500D01*
G01*
X12416373Y-2124146D01*
G75*
G02*
X12438873Y-2101646I22500J0D01*
G01*
G37*
G36*
G01*
X12438873Y-2256646D02*
X12488873Y-2256646D01*
G75*
G02*
X12511373Y-2279146I0J-22500D01*
G01*
X12511373Y-2324146D01*
G75*
G02*
X12488873Y-2346646I-22500J0D01*
G01*
X12438873Y-2346646D01*
G75*
G02*
X12416373Y-2324146I0J22500D01*
G01*
X12416373Y-2279146D01*
G75*
G02*
X12438873Y-2256646I22500J0D01*
G01*
G37*
%TD*%
%TO.C,C25*%
G36*
G01*
X12269698Y-2101646D02*
X12319698Y-2101646D01*
G75*
G02*
X12342198Y-2124146I0J-22500D01*
G01*
X12342198Y-2169146D01*
G75*
G02*
X12319698Y-2191646I-22500J0D01*
G01*
X12269698Y-2191646D01*
G75*
G02*
X12247198Y-2169146I0J22500D01*
G01*
X12247198Y-2124146D01*
G75*
G02*
X12269698Y-2101646I22500J0D01*
G01*
G37*
G36*
G01*
X12269698Y-2256646D02*
X12319698Y-2256646D01*
G75*
G02*
X12342198Y-2279146I0J-22500D01*
G01*
X12342198Y-2324146D01*
G75*
G02*
X12319698Y-2346646I-22500J0D01*
G01*
X12269698Y-2346646D01*
G75*
G02*
X12247198Y-2324146I0J22500D01*
G01*
X12247198Y-2279146D01*
G75*
G02*
X12269698Y-2256646I22500J0D01*
G01*
G37*
%TD*%
%TO.C,C5*%
G36*
G01*
X9721088Y-393456D02*
X9721088Y-443456D01*
G75*
G02*
X9698588Y-465956I-22500J0D01*
G01*
X9653588Y-465956D01*
G75*
G02*
X9631088Y-443456I0J22500D01*
G01*
X9631088Y-393456D01*
G75*
G02*
X9653588Y-370956I22500J0D01*
G01*
X9698588Y-370956D01*
G75*
G02*
X9721088Y-393456I0J-22500D01*
G01*
G37*
G36*
G01*
X9566088Y-393456D02*
X9566088Y-443456D01*
G75*
G02*
X9543588Y-465956I-22500J0D01*
G01*
X9498588Y-465956D01*
G75*
G02*
X9476088Y-443456I0J22500D01*
G01*
X9476088Y-393456D01*
G75*
G02*
X9498588Y-370956I22500J0D01*
G01*
X9543588Y-370956D01*
G75*
G02*
X9566088Y-393456I0J-22500D01*
G01*
G37*
%TD*%
%TO.C,C1*%
G36*
G01*
X12240248Y-2011546D02*
X12240248Y-1916546D01*
G75*
G02*
X12265248Y-1891546I25000J0D01*
G01*
X12315248Y-1891546D01*
G75*
G02*
X12340248Y-1916546I0J-25000D01*
G01*
X12340248Y-2011546D01*
G75*
G02*
X12315248Y-2036546I-25000J0D01*
G01*
X12265248Y-2036546D01*
G75*
G02*
X12240248Y-2011546I0J25000D01*
G01*
G37*
G36*
G01*
X12430248Y-2011546D02*
X12430248Y-1916546D01*
G75*
G02*
X12455248Y-1891546I25000J0D01*
G01*
X12505248Y-1891546D01*
G75*
G02*
X12530248Y-1916546I0J-25000D01*
G01*
X12530248Y-2011546D01*
G75*
G02*
X12505248Y-2036546I-25000J0D01*
G01*
X12455248Y-2036546D01*
G75*
G02*
X12430248Y-2011546I0J25000D01*
G01*
G37*
%TD*%
D15*
%TO.C,SW4*%
X6770352Y-2052662D03*
X6360352Y-2052662D03*
X6360352Y-2215762D03*
X6770352Y-2215762D03*
%TD*%
%TO.C,SW5*%
X8628042Y-2052662D03*
X8218042Y-2052662D03*
X8218042Y-2215762D03*
X8628042Y-2215762D03*
%TD*%
%TO.C,SW6*%
X7675517Y-2215762D03*
X7265517Y-2215762D03*
X7265517Y-2052662D03*
X7675517Y-2052662D03*
%TD*%
M02*
