M48
; DRILL file {KiCad (5.1.8)-1} date 06/20/21 20:47:29
; FORMAT={-:-/ absolute / metric / decimal}
; #@! TF.CreationDate,2021-06-20T20:47:29+01:00
; #@! TF.GenerationSoftware,Kicad,Pcbnew,(5.1.8)-1
; #@! TF.FileFunction,NonPlated,1,4,NPTH
FMAT,2
METRIC
T1C0.500
T2C0.900
T3C2.000
%
G90
G05
T1
X92.218Y-9.707
X92.218Y-10.457
X92.218Y-11.207
X93.718Y-9.707
X93.718Y-10.457
X93.718Y-11.207
X92.218Y-25.707
X92.218Y-26.457
X92.218Y-27.207
X93.718Y-25.707
X93.718Y-26.457
X93.718Y-27.207
X92.218Y-1.707
X92.218Y-2.457
X92.218Y-3.207
X93.718Y-1.707
X93.718Y-2.457
X93.718Y-3.207
X92.218Y-17.707
X92.218Y-18.457
X92.218Y-19.207
X93.718Y-17.707
X93.718Y-18.457
X93.718Y-19.207
T2
X62.157Y-14.398
X62.157Y-18.798
T3
X96.862Y0.553
X60.963Y0.543
X60.963Y-27.457
X124.862Y0.553
X88.963Y-27.457
X124.862Y-27.447
X96.862Y-27.447
X88.963Y0.543
T0
M30
