%TF.GenerationSoftware,KiCad,Pcbnew,(5.1.8)-1*%
%TF.CreationDate,2021-06-20T20:47:25+01:00*%
%TF.ProjectId,schem_1,73636865-6d5f-4312-9e6b-696361645f70,rev?*%
%TF.SameCoordinates,Original*%
%TF.FileFunction,Profile,NP*%
%FSLAX45Y45*%
G04 Gerber Fmt 4.5, Leading zero omitted, Abs format (unit mm)*
G04 Created by KiCad (PCBNEW (5.1.8)-1) date 2021-06-20 20:47:25*
%MOMM*%
%LPD*%
G01*
G04 APERTURE LIST*
%TA.AperFunction,Profile*%
%ADD10C,0.050000*%
%TD*%
G04 APERTURE END LIST*
D10*
X9396788Y-2445720D02*
X9396788Y-2045720D01*
X9196788Y-2045720D02*
X9196788Y-2445720D01*
X9396788Y-445720D02*
X9396788Y-845720D01*
X9196788Y-445720D02*
X9196788Y-845720D01*
X9396788Y-45720D02*
G75*
G02*
X9196788Y-45720I-100000J0D01*
G01*
X9196788Y-445720D02*
G75*
G02*
X9396788Y-445720I100000J0D01*
G01*
X9396788Y-845720D02*
G75*
G02*
X9196788Y-845720I-100000J0D01*
G01*
X9196788Y-1245720D02*
G75*
G02*
X9396788Y-1245720I100000J0D01*
G01*
X9396788Y-1645720D02*
G75*
G02*
X9196788Y-1645720I-100000J0D01*
G01*
X9196788Y-2045720D02*
G75*
G02*
X9396788Y-2045720I100000J0D01*
G01*
X9396788Y-2445720D02*
G75*
G02*
X9196788Y-2445720I-100000J0D01*
G01*
X9196788Y-2845720D02*
G75*
G02*
X9396788Y-2845720I100000J0D01*
G01*
X9396788Y-2845720D02*
X9396788Y-3044956D01*
X9196534Y-3045720D02*
X9196788Y-2845720D01*
X9196788Y-1645720D02*
X9196788Y-1645720D01*
X9396788Y-1245720D02*
X9396788Y-1645720D01*
X9196788Y-1245720D02*
X9196788Y-1645720D01*
X9396788Y-45720D02*
X9395646Y355298D01*
X9196788Y-45720D02*
X9196788Y354280D01*
X12791248Y355298D02*
X9395646Y355298D01*
X12791248Y355298D02*
X12791248Y-3044702D01*
X12791248Y-3044702D02*
X9396788Y-3044956D01*
X5796280Y-3045720D02*
X5796280Y354280D01*
X5796280Y354280D02*
X9196788Y354280D01*
X5796280Y-3045720D02*
X9196534Y-3045720D01*
M02*
