%TF.GenerationSoftware,KiCad,Pcbnew,(5.1.8)-1*%
%TF.CreationDate,2021-06-20T20:47:25+01:00*%
%TF.ProjectId,schem_1,73636865-6d5f-4312-9e6b-696361645f70,rev?*%
%TF.SameCoordinates,Original*%
%TF.FileFunction,Soldermask,Bot*%
%TF.FilePolarity,Negative*%
%FSLAX45Y45*%
G04 Gerber Fmt 4.5, Leading zero omitted, Abs format (unit mm)*
G04 Created by KiCad (PCBNEW (5.1.8)-1) date 2021-06-20 20:47:25*
%MOMM*%
%LPD*%
G01*
G04 APERTURE LIST*
%ADD10C,0.505000*%
%ADD11C,2.505000*%
%ADD12C,2.005000*%
%ADD13C,0.905000*%
G04 APERTURE END LIST*
D10*
%TO.C,mouse-bite-2mm-slot*%
X9221788Y-2720720D03*
X9221788Y-2570720D03*
X9371788Y-2570720D03*
X9371788Y-2720720D03*
X9221788Y-2645720D03*
X9371788Y-2645720D03*
%TD*%
%TO.C,mouse-bite-2mm-slot*%
X9371788Y-1845720D03*
X9221788Y-1845720D03*
X9371788Y-1920720D03*
X9371788Y-1770720D03*
X9221788Y-1770720D03*
X9221788Y-1920720D03*
%TD*%
%TO.C,mouse-bite-2mm-slot*%
X9221788Y-320720D03*
X9221788Y-170720D03*
X9371788Y-170720D03*
X9371788Y-320720D03*
X9221788Y-245720D03*
X9371788Y-245720D03*
%TD*%
%TO.C,mouse-bite-2mm-slot*%
X9371788Y-1045720D03*
X9221788Y-1045720D03*
X9371788Y-1120720D03*
X9371788Y-970720D03*
X9221788Y-970720D03*
X9221788Y-1120720D03*
%TD*%
%TO.C,J4*%
G36*
G01*
X11707228Y-1497696D02*
X11507228Y-1497696D01*
G75*
G02*
X11506978Y-1497446I0J250D01*
G01*
X11506978Y-1397446D01*
G75*
G02*
X11507228Y-1397196I250J0D01*
G01*
X11707228Y-1397196D01*
G75*
G02*
X11707478Y-1397446I0J-250D01*
G01*
X11707478Y-1497446D01*
G75*
G02*
X11707228Y-1497696I-250J0D01*
G01*
G37*
G36*
G01*
X11707228Y-1751696D02*
X11507228Y-1751696D01*
G75*
G02*
X11506978Y-1751446I0J250D01*
G01*
X11506978Y-1651446D01*
G75*
G02*
X11507228Y-1651196I250J0D01*
G01*
X11707228Y-1651196D01*
G75*
G02*
X11707478Y-1651446I0J-250D01*
G01*
X11707478Y-1751446D01*
G75*
G02*
X11707228Y-1751696I-250J0D01*
G01*
G37*
G36*
G01*
X11707228Y-2005696D02*
X11507228Y-2005696D01*
G75*
G02*
X11506978Y-2005446I0J250D01*
G01*
X11506978Y-1905446D01*
G75*
G02*
X11507228Y-1905196I250J0D01*
G01*
X11707228Y-1905196D01*
G75*
G02*
X11707478Y-1905446I0J-250D01*
G01*
X11707478Y-2005446D01*
G75*
G02*
X11707228Y-2005696I-250J0D01*
G01*
G37*
G36*
G01*
X11707228Y-2259696D02*
X11507228Y-2259696D01*
G75*
G02*
X11506978Y-2259446I0J250D01*
G01*
X11506978Y-2159446D01*
G75*
G02*
X11507228Y-2159196I250J0D01*
G01*
X11707228Y-2159196D01*
G75*
G02*
X11707478Y-2159446I0J-250D01*
G01*
X11707478Y-2259446D01*
G75*
G02*
X11707228Y-2259696I-250J0D01*
G01*
G37*
%TD*%
%TO.C,J3*%
G36*
G01*
X10025548Y-2070096D02*
X9915548Y-2070096D01*
G75*
G02*
X9915298Y-2069846I0J250D01*
G01*
X9915298Y-2039846D01*
G75*
G02*
X9915548Y-2039596I250J0D01*
G01*
X10025548Y-2039596D01*
G75*
G02*
X10025798Y-2039846I0J-250D01*
G01*
X10025798Y-2069846D01*
G75*
G02*
X10025548Y-2070096I-250J0D01*
G01*
G37*
G36*
G01*
X10025548Y-2020096D02*
X9915548Y-2020096D01*
G75*
G02*
X9915298Y-2019846I0J250D01*
G01*
X9915298Y-1989846D01*
G75*
G02*
X9915548Y-1989596I250J0D01*
G01*
X10025548Y-1989596D01*
G75*
G02*
X10025798Y-1989846I0J-250D01*
G01*
X10025798Y-2019846D01*
G75*
G02*
X10025548Y-2020096I-250J0D01*
G01*
G37*
G36*
G01*
X10025548Y-1970096D02*
X9915548Y-1970096D01*
G75*
G02*
X9915298Y-1969846I0J250D01*
G01*
X9915298Y-1939846D01*
G75*
G02*
X9915548Y-1939596I250J0D01*
G01*
X10025548Y-1939596D01*
G75*
G02*
X10025798Y-1939846I0J-250D01*
G01*
X10025798Y-1969846D01*
G75*
G02*
X10025548Y-1970096I-250J0D01*
G01*
G37*
G36*
G01*
X10025548Y-1920096D02*
X9915548Y-1920096D01*
G75*
G02*
X9915298Y-1919846I0J250D01*
G01*
X9915298Y-1889846D01*
G75*
G02*
X9915548Y-1889596I250J0D01*
G01*
X10025548Y-1889596D01*
G75*
G02*
X10025798Y-1889846I0J-250D01*
G01*
X10025798Y-1919846D01*
G75*
G02*
X10025548Y-1920096I-250J0D01*
G01*
G37*
G36*
G01*
X10025548Y-1870096D02*
X9915548Y-1870096D01*
G75*
G02*
X9915298Y-1869846I0J250D01*
G01*
X9915298Y-1839846D01*
G75*
G02*
X9915548Y-1839596I250J0D01*
G01*
X10025548Y-1839596D01*
G75*
G02*
X10025798Y-1839846I0J-250D01*
G01*
X10025798Y-1869846D01*
G75*
G02*
X10025548Y-1870096I-250J0D01*
G01*
G37*
G36*
G01*
X10025548Y-1820096D02*
X9915548Y-1820096D01*
G75*
G02*
X9915298Y-1819846I0J250D01*
G01*
X9915298Y-1789846D01*
G75*
G02*
X9915548Y-1789596I250J0D01*
G01*
X10025548Y-1789596D01*
G75*
G02*
X10025798Y-1789846I0J-250D01*
G01*
X10025798Y-1819846D01*
G75*
G02*
X10025548Y-1820096I-250J0D01*
G01*
G37*
G36*
G01*
X10025548Y-1770096D02*
X9915548Y-1770096D01*
G75*
G02*
X9915298Y-1769846I0J250D01*
G01*
X9915298Y-1739846D01*
G75*
G02*
X9915548Y-1739596I250J0D01*
G01*
X10025548Y-1739596D01*
G75*
G02*
X10025798Y-1739846I0J-250D01*
G01*
X10025798Y-1769846D01*
G75*
G02*
X10025548Y-1770096I-250J0D01*
G01*
G37*
G36*
G01*
X10025548Y-1720096D02*
X9915548Y-1720096D01*
G75*
G02*
X9915298Y-1719846I0J250D01*
G01*
X9915298Y-1689846D01*
G75*
G02*
X9915548Y-1689596I250J0D01*
G01*
X10025548Y-1689596D01*
G75*
G02*
X10025798Y-1689846I0J-250D01*
G01*
X10025798Y-1719846D01*
G75*
G02*
X10025548Y-1720096I-250J0D01*
G01*
G37*
G36*
G01*
X10025548Y-1670096D02*
X9915548Y-1670096D01*
G75*
G02*
X9915298Y-1669846I0J250D01*
G01*
X9915298Y-1639846D01*
G75*
G02*
X9915548Y-1639596I250J0D01*
G01*
X10025548Y-1639596D01*
G75*
G02*
X10025798Y-1639846I0J-250D01*
G01*
X10025798Y-1669846D01*
G75*
G02*
X10025548Y-1670096I-250J0D01*
G01*
G37*
G36*
G01*
X10025548Y-1620096D02*
X9915548Y-1620096D01*
G75*
G02*
X9915298Y-1619846I0J250D01*
G01*
X9915298Y-1589846D01*
G75*
G02*
X9915548Y-1589596I250J0D01*
G01*
X10025548Y-1589596D01*
G75*
G02*
X10025798Y-1589846I0J-250D01*
G01*
X10025798Y-1619846D01*
G75*
G02*
X10025548Y-1620096I-250J0D01*
G01*
G37*
G36*
G01*
X10025548Y-1570096D02*
X9915548Y-1570096D01*
G75*
G02*
X9915298Y-1569846I0J250D01*
G01*
X9915298Y-1539846D01*
G75*
G02*
X9915548Y-1539596I250J0D01*
G01*
X10025548Y-1539596D01*
G75*
G02*
X10025798Y-1539846I0J-250D01*
G01*
X10025798Y-1569846D01*
G75*
G02*
X10025548Y-1570096I-250J0D01*
G01*
G37*
G36*
G01*
X10025548Y-1520096D02*
X9915548Y-1520096D01*
G75*
G02*
X9915298Y-1519846I0J250D01*
G01*
X9915298Y-1489846D01*
G75*
G02*
X9915548Y-1489596I250J0D01*
G01*
X10025548Y-1489596D01*
G75*
G02*
X10025798Y-1489846I0J-250D01*
G01*
X10025798Y-1519846D01*
G75*
G02*
X10025548Y-1520096I-250J0D01*
G01*
G37*
G36*
G01*
X10025548Y-1470096D02*
X9915548Y-1470096D01*
G75*
G02*
X9915298Y-1469846I0J250D01*
G01*
X9915298Y-1439846D01*
G75*
G02*
X9915548Y-1439596I250J0D01*
G01*
X10025548Y-1439596D01*
G75*
G02*
X10025798Y-1439846I0J-250D01*
G01*
X10025798Y-1469846D01*
G75*
G02*
X10025548Y-1470096I-250J0D01*
G01*
G37*
G36*
G01*
X10025548Y-1420096D02*
X9915548Y-1420096D01*
G75*
G02*
X9915298Y-1419846I0J250D01*
G01*
X9915298Y-1389846D01*
G75*
G02*
X9915548Y-1389596I250J0D01*
G01*
X10025548Y-1389596D01*
G75*
G02*
X10025798Y-1389846I0J-250D01*
G01*
X10025798Y-1419846D01*
G75*
G02*
X10025548Y-1420096I-250J0D01*
G01*
G37*
G36*
G01*
X10025548Y-1370096D02*
X9915548Y-1370096D01*
G75*
G02*
X9915298Y-1369846I0J250D01*
G01*
X9915298Y-1339846D01*
G75*
G02*
X9915548Y-1339596I250J0D01*
G01*
X10025548Y-1339596D01*
G75*
G02*
X10025798Y-1339846I0J-250D01*
G01*
X10025798Y-1369846D01*
G75*
G02*
X10025548Y-1370096I-250J0D01*
G01*
G37*
G36*
G01*
X10025548Y-1320096D02*
X9915548Y-1320096D01*
G75*
G02*
X9915298Y-1319846I0J250D01*
G01*
X9915298Y-1289846D01*
G75*
G02*
X9915548Y-1289596I250J0D01*
G01*
X10025548Y-1289596D01*
G75*
G02*
X10025798Y-1289846I0J-250D01*
G01*
X10025798Y-1319846D01*
G75*
G02*
X10025548Y-1320096I-250J0D01*
G01*
G37*
G36*
G01*
X10025548Y-1270096D02*
X9915548Y-1270096D01*
G75*
G02*
X9915298Y-1269846I0J250D01*
G01*
X9915298Y-1239846D01*
G75*
G02*
X9915548Y-1239596I250J0D01*
G01*
X10025548Y-1239596D01*
G75*
G02*
X10025798Y-1239846I0J-250D01*
G01*
X10025798Y-1269846D01*
G75*
G02*
X10025548Y-1270096I-250J0D01*
G01*
G37*
G36*
G01*
X10025548Y-1220096D02*
X9915548Y-1220096D01*
G75*
G02*
X9915298Y-1219846I0J250D01*
G01*
X9915298Y-1189846D01*
G75*
G02*
X9915548Y-1189596I250J0D01*
G01*
X10025548Y-1189596D01*
G75*
G02*
X10025798Y-1189846I0J-250D01*
G01*
X10025798Y-1219846D01*
G75*
G02*
X10025548Y-1220096I-250J0D01*
G01*
G37*
G36*
G01*
X10025548Y-1170096D02*
X9915548Y-1170096D01*
G75*
G02*
X9915298Y-1169846I0J250D01*
G01*
X9915298Y-1139846D01*
G75*
G02*
X9915548Y-1139596I250J0D01*
G01*
X10025548Y-1139596D01*
G75*
G02*
X10025798Y-1139846I0J-250D01*
G01*
X10025798Y-1169846D01*
G75*
G02*
X10025548Y-1170096I-250J0D01*
G01*
G37*
G36*
G01*
X10025548Y-1120096D02*
X9915548Y-1120096D01*
G75*
G02*
X9915298Y-1119846I0J250D01*
G01*
X9915298Y-1089846D01*
G75*
G02*
X9915548Y-1089596I250J0D01*
G01*
X10025548Y-1089596D01*
G75*
G02*
X10025798Y-1089846I0J-250D01*
G01*
X10025798Y-1119846D01*
G75*
G02*
X10025548Y-1120096I-250J0D01*
G01*
G37*
G36*
G01*
X10025548Y-1070096D02*
X9915548Y-1070096D01*
G75*
G02*
X9915298Y-1069846I0J250D01*
G01*
X9915298Y-1039846D01*
G75*
G02*
X9915548Y-1039596I250J0D01*
G01*
X10025548Y-1039596D01*
G75*
G02*
X10025798Y-1039846I0J-250D01*
G01*
X10025798Y-1069846D01*
G75*
G02*
X10025548Y-1070096I-250J0D01*
G01*
G37*
G36*
G01*
X10025548Y-1020096D02*
X9915548Y-1020096D01*
G75*
G02*
X9915298Y-1019846I0J250D01*
G01*
X9915298Y-989846D01*
G75*
G02*
X9915548Y-989596I250J0D01*
G01*
X10025548Y-989596D01*
G75*
G02*
X10025798Y-989846I0J-250D01*
G01*
X10025798Y-1019846D01*
G75*
G02*
X10025548Y-1020096I-250J0D01*
G01*
G37*
G36*
G01*
X10025548Y-970096D02*
X9915548Y-970096D01*
G75*
G02*
X9915298Y-969846I0J250D01*
G01*
X9915298Y-939846D01*
G75*
G02*
X9915548Y-939596I250J0D01*
G01*
X10025548Y-939596D01*
G75*
G02*
X10025798Y-939846I0J-250D01*
G01*
X10025798Y-969846D01*
G75*
G02*
X10025548Y-970096I-250J0D01*
G01*
G37*
G36*
G01*
X10025548Y-920096D02*
X9915548Y-920096D01*
G75*
G02*
X9915298Y-919846I0J250D01*
G01*
X9915298Y-889846D01*
G75*
G02*
X9915548Y-889596I250J0D01*
G01*
X10025548Y-889596D01*
G75*
G02*
X10025798Y-889846I0J-250D01*
G01*
X10025798Y-919846D01*
G75*
G02*
X10025548Y-920096I-250J0D01*
G01*
G37*
G36*
G01*
X9955548Y-2337096D02*
X9645548Y-2337096D01*
G75*
G02*
X9645298Y-2336846I0J250D01*
G01*
X9645298Y-2106846D01*
G75*
G02*
X9645548Y-2106596I250J0D01*
G01*
X9955548Y-2106596D01*
G75*
G02*
X9955798Y-2106846I0J-250D01*
G01*
X9955798Y-2336846D01*
G75*
G02*
X9955548Y-2337096I-250J0D01*
G01*
G37*
G36*
G01*
X9955548Y-853096D02*
X9645548Y-853096D01*
G75*
G02*
X9645298Y-852846I0J250D01*
G01*
X9645298Y-622846D01*
G75*
G02*
X9645548Y-622596I250J0D01*
G01*
X9955548Y-622596D01*
G75*
G02*
X9955798Y-622846I0J-250D01*
G01*
X9955798Y-852846D01*
G75*
G02*
X9955548Y-853096I-250J0D01*
G01*
G37*
%TD*%
%TO.C,J2*%
G36*
G01*
X11662920Y-760946D02*
X11662920Y-935946D01*
G75*
G02*
X11662670Y-936196I-250J0D01*
G01*
X11592670Y-936196D01*
G75*
G02*
X11592420Y-935946I0J250D01*
G01*
X11592420Y-760946D01*
G75*
G02*
X11592670Y-760696I250J0D01*
G01*
X11662670Y-760696D01*
G75*
G02*
X11662920Y-760946I0J-250D01*
G01*
G37*
G36*
G01*
X11812920Y-760946D02*
X11812920Y-910946D01*
G75*
G02*
X11812670Y-911196I-250J0D01*
G01*
X11682670Y-911196D01*
G75*
G02*
X11682420Y-910946I0J250D01*
G01*
X11682420Y-760946D01*
G75*
G02*
X11682670Y-760696I250J0D01*
G01*
X11812670Y-760696D01*
G75*
G02*
X11812920Y-760946I0J-250D01*
G01*
G37*
G36*
G01*
X11812920Y-946D02*
X11812920Y-150946D01*
G75*
G02*
X11812670Y-151196I-250J0D01*
G01*
X11732670Y-151196D01*
G75*
G02*
X11732420Y-150946I0J250D01*
G01*
X11732420Y-946D01*
G75*
G02*
X11732670Y-696I250J0D01*
G01*
X11812670Y-696D01*
G75*
G02*
X11812920Y-946I0J-250D01*
G01*
G37*
G36*
G01*
X11812920Y124054D02*
X11812920Y24054D01*
G75*
G02*
X11812670Y23804I-250J0D01*
G01*
X11667670Y23804D01*
G75*
G02*
X11667420Y24054I0J250D01*
G01*
X11667420Y124054D01*
G75*
G02*
X11667670Y124304I250J0D01*
G01*
X11812670Y124304D01*
G75*
G02*
X11812920Y124054I0J-250D01*
G01*
G37*
G36*
G01*
X10617920Y59054D02*
X10617920Y-80946D01*
G75*
G02*
X10617670Y-81196I-250J0D01*
G01*
X10537670Y-81196D01*
G75*
G02*
X10537420Y-80946I0J250D01*
G01*
X10537420Y59054D01*
G75*
G02*
X10537670Y59304I250J0D01*
G01*
X10617670Y59304D01*
G75*
G02*
X10617920Y59054I0J-250D01*
G01*
G37*
G36*
G01*
X11552920Y-760946D02*
X11552920Y-935946D01*
G75*
G02*
X11552670Y-936196I-250J0D01*
G01*
X11482670Y-936196D01*
G75*
G02*
X11482420Y-935946I0J250D01*
G01*
X11482420Y-760946D01*
G75*
G02*
X11482670Y-760696I250J0D01*
G01*
X11552670Y-760696D01*
G75*
G02*
X11552920Y-760946I0J-250D01*
G01*
G37*
G36*
G01*
X11442920Y-760946D02*
X11442920Y-935946D01*
G75*
G02*
X11442670Y-936196I-250J0D01*
G01*
X11372670Y-936196D01*
G75*
G02*
X11372420Y-935946I0J250D01*
G01*
X11372420Y-760946D01*
G75*
G02*
X11372670Y-760696I250J0D01*
G01*
X11442670Y-760696D01*
G75*
G02*
X11442920Y-760946I0J-250D01*
G01*
G37*
G36*
G01*
X11332920Y-760946D02*
X11332920Y-935946D01*
G75*
G02*
X11332670Y-936196I-250J0D01*
G01*
X11262670Y-936196D01*
G75*
G02*
X11262420Y-935946I0J250D01*
G01*
X11262420Y-760946D01*
G75*
G02*
X11262670Y-760696I250J0D01*
G01*
X11332670Y-760696D01*
G75*
G02*
X11332920Y-760946I0J-250D01*
G01*
G37*
G36*
G01*
X11222920Y-760946D02*
X11222920Y-935946D01*
G75*
G02*
X11222670Y-936196I-250J0D01*
G01*
X11152670Y-936196D01*
G75*
G02*
X11152420Y-935946I0J250D01*
G01*
X11152420Y-760946D01*
G75*
G02*
X11152670Y-760696I250J0D01*
G01*
X11222670Y-760696D01*
G75*
G02*
X11222920Y-760946I0J-250D01*
G01*
G37*
G36*
G01*
X11112920Y-760946D02*
X11112920Y-935946D01*
G75*
G02*
X11112670Y-936196I-250J0D01*
G01*
X11042670Y-936196D01*
G75*
G02*
X11042420Y-935946I0J250D01*
G01*
X11042420Y-760946D01*
G75*
G02*
X11042670Y-760696I250J0D01*
G01*
X11112670Y-760696D01*
G75*
G02*
X11112920Y-760946I0J-250D01*
G01*
G37*
G36*
G01*
X11002920Y-760946D02*
X11002920Y-935946D01*
G75*
G02*
X11002670Y-936196I-250J0D01*
G01*
X10932670Y-936196D01*
G75*
G02*
X10932420Y-935946I0J250D01*
G01*
X10932420Y-760946D01*
G75*
G02*
X10932670Y-760696I250J0D01*
G01*
X11002670Y-760696D01*
G75*
G02*
X11002920Y-760946I0J-250D01*
G01*
G37*
G36*
G01*
X10892920Y-760946D02*
X10892920Y-935946D01*
G75*
G02*
X10892670Y-936196I-250J0D01*
G01*
X10822670Y-936196D01*
G75*
G02*
X10822420Y-935946I0J250D01*
G01*
X10822420Y-760946D01*
G75*
G02*
X10822670Y-760696I250J0D01*
G01*
X10892670Y-760696D01*
G75*
G02*
X10892920Y-760946I0J-250D01*
G01*
G37*
G36*
G01*
X10687920Y-760946D02*
X10687920Y-910946D01*
G75*
G02*
X10687670Y-911196I-250J0D01*
G01*
X10537670Y-911196D01*
G75*
G02*
X10537420Y-910946I0J250D01*
G01*
X10537420Y-760946D01*
G75*
G02*
X10537670Y-760696I250J0D01*
G01*
X10687670Y-760696D01*
G75*
G02*
X10687920Y-760946I0J-250D01*
G01*
G37*
G36*
G01*
X10667920Y309054D02*
X10667920Y154054D01*
G75*
G02*
X10667670Y153804I-250J0D01*
G01*
X10567670Y153804D01*
G75*
G02*
X10567420Y154054I0J250D01*
G01*
X10567420Y309054D01*
G75*
G02*
X10567670Y309304I250J0D01*
G01*
X10667670Y309304D01*
G75*
G02*
X10667920Y309054I0J-250D01*
G01*
G37*
%TD*%
%TO.C,SW1*%
G36*
G01*
X9881790Y-441564D02*
X9881790Y-341564D01*
G75*
G02*
X9882040Y-341314I250J0D01*
G01*
X9972040Y-341314D01*
G75*
G02*
X9972290Y-341564I0J-250D01*
G01*
X9972290Y-441564D01*
G75*
G02*
X9972040Y-441814I-250J0D01*
G01*
X9882040Y-441814D01*
G75*
G02*
X9881790Y-441564I0J250D01*
G01*
G37*
G36*
G01*
X9562290Y-341564D02*
X9562290Y-441564D01*
G75*
G02*
X9562040Y-441814I-250J0D01*
G01*
X9472040Y-441814D01*
G75*
G02*
X9471790Y-441564I0J250D01*
G01*
X9471790Y-341564D01*
G75*
G02*
X9472040Y-341314I250J0D01*
G01*
X9562040Y-341314D01*
G75*
G02*
X9562290Y-341564I0J-250D01*
G01*
G37*
G36*
G01*
X9562290Y-178464D02*
X9562290Y-278464D01*
G75*
G02*
X9562040Y-278714I-250J0D01*
G01*
X9472040Y-278714D01*
G75*
G02*
X9471790Y-278464I0J250D01*
G01*
X9471790Y-178464D01*
G75*
G02*
X9472040Y-178214I250J0D01*
G01*
X9562040Y-178214D01*
G75*
G02*
X9562290Y-178464I0J-250D01*
G01*
G37*
G36*
G01*
X9972290Y-178464D02*
X9972290Y-278464D01*
G75*
G02*
X9972040Y-278714I-250J0D01*
G01*
X9882040Y-278714D01*
G75*
G02*
X9881790Y-278464I0J250D01*
G01*
X9881790Y-178464D01*
G75*
G02*
X9882040Y-178214I250J0D01*
G01*
X9972040Y-178214D01*
G75*
G02*
X9972290Y-178464I0J-250D01*
G01*
G37*
%TD*%
D11*
%TO.C,C2*%
X6871280Y-2791720D03*
X8071280Y-2791720D03*
%TD*%
D12*
%TO.C,H8*%
X8896280Y54280D03*
%TD*%
%TO.C,H7*%
X8896280Y-2745720D03*
%TD*%
%TO.C,H6*%
X6096280Y54280D03*
%TD*%
%TO.C,H5*%
X6096280Y-2745720D03*
%TD*%
%TO.C,J6*%
G36*
G01*
X8561780Y-890614D02*
X8671780Y-890614D01*
G75*
G02*
X8672030Y-890864I0J-250D01*
G01*
X8672030Y-920864D01*
G75*
G02*
X8671780Y-921114I-250J0D01*
G01*
X8561780Y-921114D01*
G75*
G02*
X8561530Y-920864I0J250D01*
G01*
X8561530Y-890864D01*
G75*
G02*
X8561780Y-890614I250J0D01*
G01*
G37*
G36*
G01*
X8561780Y-940614D02*
X8671780Y-940614D01*
G75*
G02*
X8672030Y-940864I0J-250D01*
G01*
X8672030Y-970864D01*
G75*
G02*
X8671780Y-971114I-250J0D01*
G01*
X8561780Y-971114D01*
G75*
G02*
X8561530Y-970864I0J250D01*
G01*
X8561530Y-940864D01*
G75*
G02*
X8561780Y-940614I250J0D01*
G01*
G37*
G36*
G01*
X8561780Y-990614D02*
X8671780Y-990614D01*
G75*
G02*
X8672030Y-990864I0J-250D01*
G01*
X8672030Y-1020864D01*
G75*
G02*
X8671780Y-1021114I-250J0D01*
G01*
X8561780Y-1021114D01*
G75*
G02*
X8561530Y-1020864I0J250D01*
G01*
X8561530Y-990864D01*
G75*
G02*
X8561780Y-990614I250J0D01*
G01*
G37*
G36*
G01*
X8561780Y-1040614D02*
X8671780Y-1040614D01*
G75*
G02*
X8672030Y-1040864I0J-250D01*
G01*
X8672030Y-1070864D01*
G75*
G02*
X8671780Y-1071114I-250J0D01*
G01*
X8561780Y-1071114D01*
G75*
G02*
X8561530Y-1070864I0J250D01*
G01*
X8561530Y-1040864D01*
G75*
G02*
X8561780Y-1040614I250J0D01*
G01*
G37*
G36*
G01*
X8561780Y-1090614D02*
X8671780Y-1090614D01*
G75*
G02*
X8672030Y-1090864I0J-250D01*
G01*
X8672030Y-1120864D01*
G75*
G02*
X8671780Y-1121114I-250J0D01*
G01*
X8561780Y-1121114D01*
G75*
G02*
X8561530Y-1120864I0J250D01*
G01*
X8561530Y-1090864D01*
G75*
G02*
X8561780Y-1090614I250J0D01*
G01*
G37*
G36*
G01*
X8561780Y-1140614D02*
X8671780Y-1140614D01*
G75*
G02*
X8672030Y-1140864I0J-250D01*
G01*
X8672030Y-1170864D01*
G75*
G02*
X8671780Y-1171114I-250J0D01*
G01*
X8561780Y-1171114D01*
G75*
G02*
X8561530Y-1170864I0J250D01*
G01*
X8561530Y-1140864D01*
G75*
G02*
X8561780Y-1140614I250J0D01*
G01*
G37*
G36*
G01*
X8561780Y-1190614D02*
X8671780Y-1190614D01*
G75*
G02*
X8672030Y-1190864I0J-250D01*
G01*
X8672030Y-1220864D01*
G75*
G02*
X8671780Y-1221114I-250J0D01*
G01*
X8561780Y-1221114D01*
G75*
G02*
X8561530Y-1220864I0J250D01*
G01*
X8561530Y-1190864D01*
G75*
G02*
X8561780Y-1190614I250J0D01*
G01*
G37*
G36*
G01*
X8561780Y-1240614D02*
X8671780Y-1240614D01*
G75*
G02*
X8672030Y-1240864I0J-250D01*
G01*
X8672030Y-1270864D01*
G75*
G02*
X8671780Y-1271114I-250J0D01*
G01*
X8561780Y-1271114D01*
G75*
G02*
X8561530Y-1270864I0J250D01*
G01*
X8561530Y-1240864D01*
G75*
G02*
X8561780Y-1240614I250J0D01*
G01*
G37*
G36*
G01*
X8561780Y-1290614D02*
X8671780Y-1290614D01*
G75*
G02*
X8672030Y-1290864I0J-250D01*
G01*
X8672030Y-1320864D01*
G75*
G02*
X8671780Y-1321114I-250J0D01*
G01*
X8561780Y-1321114D01*
G75*
G02*
X8561530Y-1320864I0J250D01*
G01*
X8561530Y-1290864D01*
G75*
G02*
X8561780Y-1290614I250J0D01*
G01*
G37*
G36*
G01*
X8561780Y-1340614D02*
X8671780Y-1340614D01*
G75*
G02*
X8672030Y-1340864I0J-250D01*
G01*
X8672030Y-1370864D01*
G75*
G02*
X8671780Y-1371114I-250J0D01*
G01*
X8561780Y-1371114D01*
G75*
G02*
X8561530Y-1370864I0J250D01*
G01*
X8561530Y-1340864D01*
G75*
G02*
X8561780Y-1340614I250J0D01*
G01*
G37*
G36*
G01*
X8561780Y-1390614D02*
X8671780Y-1390614D01*
G75*
G02*
X8672030Y-1390864I0J-250D01*
G01*
X8672030Y-1420864D01*
G75*
G02*
X8671780Y-1421114I-250J0D01*
G01*
X8561780Y-1421114D01*
G75*
G02*
X8561530Y-1420864I0J250D01*
G01*
X8561530Y-1390864D01*
G75*
G02*
X8561780Y-1390614I250J0D01*
G01*
G37*
G36*
G01*
X8561780Y-1440614D02*
X8671780Y-1440614D01*
G75*
G02*
X8672030Y-1440864I0J-250D01*
G01*
X8672030Y-1470864D01*
G75*
G02*
X8671780Y-1471114I-250J0D01*
G01*
X8561780Y-1471114D01*
G75*
G02*
X8561530Y-1470864I0J250D01*
G01*
X8561530Y-1440864D01*
G75*
G02*
X8561780Y-1440614I250J0D01*
G01*
G37*
G36*
G01*
X8561780Y-1490614D02*
X8671780Y-1490614D01*
G75*
G02*
X8672030Y-1490864I0J-250D01*
G01*
X8672030Y-1520864D01*
G75*
G02*
X8671780Y-1521114I-250J0D01*
G01*
X8561780Y-1521114D01*
G75*
G02*
X8561530Y-1520864I0J250D01*
G01*
X8561530Y-1490864D01*
G75*
G02*
X8561780Y-1490614I250J0D01*
G01*
G37*
G36*
G01*
X8561780Y-1540614D02*
X8671780Y-1540614D01*
G75*
G02*
X8672030Y-1540864I0J-250D01*
G01*
X8672030Y-1570864D01*
G75*
G02*
X8671780Y-1571114I-250J0D01*
G01*
X8561780Y-1571114D01*
G75*
G02*
X8561530Y-1570864I0J250D01*
G01*
X8561530Y-1540864D01*
G75*
G02*
X8561780Y-1540614I250J0D01*
G01*
G37*
G36*
G01*
X8561780Y-1590614D02*
X8671780Y-1590614D01*
G75*
G02*
X8672030Y-1590864I0J-250D01*
G01*
X8672030Y-1620864D01*
G75*
G02*
X8671780Y-1621114I-250J0D01*
G01*
X8561780Y-1621114D01*
G75*
G02*
X8561530Y-1620864I0J250D01*
G01*
X8561530Y-1590864D01*
G75*
G02*
X8561780Y-1590614I250J0D01*
G01*
G37*
G36*
G01*
X8561780Y-1640614D02*
X8671780Y-1640614D01*
G75*
G02*
X8672030Y-1640864I0J-250D01*
G01*
X8672030Y-1670864D01*
G75*
G02*
X8671780Y-1671114I-250J0D01*
G01*
X8561780Y-1671114D01*
G75*
G02*
X8561530Y-1670864I0J250D01*
G01*
X8561530Y-1640864D01*
G75*
G02*
X8561780Y-1640614I250J0D01*
G01*
G37*
G36*
G01*
X8561780Y-1690614D02*
X8671780Y-1690614D01*
G75*
G02*
X8672030Y-1690864I0J-250D01*
G01*
X8672030Y-1720864D01*
G75*
G02*
X8671780Y-1721114I-250J0D01*
G01*
X8561780Y-1721114D01*
G75*
G02*
X8561530Y-1720864I0J250D01*
G01*
X8561530Y-1690864D01*
G75*
G02*
X8561780Y-1690614I250J0D01*
G01*
G37*
G36*
G01*
X8561780Y-1740614D02*
X8671780Y-1740614D01*
G75*
G02*
X8672030Y-1740864I0J-250D01*
G01*
X8672030Y-1770864D01*
G75*
G02*
X8671780Y-1771114I-250J0D01*
G01*
X8561780Y-1771114D01*
G75*
G02*
X8561530Y-1770864I0J250D01*
G01*
X8561530Y-1740864D01*
G75*
G02*
X8561780Y-1740614I250J0D01*
G01*
G37*
G36*
G01*
X8561780Y-1790614D02*
X8671780Y-1790614D01*
G75*
G02*
X8672030Y-1790864I0J-250D01*
G01*
X8672030Y-1820864D01*
G75*
G02*
X8671780Y-1821114I-250J0D01*
G01*
X8561780Y-1821114D01*
G75*
G02*
X8561530Y-1820864I0J250D01*
G01*
X8561530Y-1790864D01*
G75*
G02*
X8561780Y-1790614I250J0D01*
G01*
G37*
G36*
G01*
X8561780Y-1840614D02*
X8671780Y-1840614D01*
G75*
G02*
X8672030Y-1840864I0J-250D01*
G01*
X8672030Y-1870864D01*
G75*
G02*
X8671780Y-1871114I-250J0D01*
G01*
X8561780Y-1871114D01*
G75*
G02*
X8561530Y-1870864I0J250D01*
G01*
X8561530Y-1840864D01*
G75*
G02*
X8561780Y-1840614I250J0D01*
G01*
G37*
G36*
G01*
X8561780Y-1890614D02*
X8671780Y-1890614D01*
G75*
G02*
X8672030Y-1890864I0J-250D01*
G01*
X8672030Y-1920864D01*
G75*
G02*
X8671780Y-1921114I-250J0D01*
G01*
X8561780Y-1921114D01*
G75*
G02*
X8561530Y-1920864I0J250D01*
G01*
X8561530Y-1890864D01*
G75*
G02*
X8561780Y-1890614I250J0D01*
G01*
G37*
G36*
G01*
X8561780Y-1940614D02*
X8671780Y-1940614D01*
G75*
G02*
X8672030Y-1940864I0J-250D01*
G01*
X8672030Y-1970864D01*
G75*
G02*
X8671780Y-1971114I-250J0D01*
G01*
X8561780Y-1971114D01*
G75*
G02*
X8561530Y-1970864I0J250D01*
G01*
X8561530Y-1940864D01*
G75*
G02*
X8561780Y-1940614I250J0D01*
G01*
G37*
G36*
G01*
X8561780Y-1990614D02*
X8671780Y-1990614D01*
G75*
G02*
X8672030Y-1990864I0J-250D01*
G01*
X8672030Y-2020864D01*
G75*
G02*
X8671780Y-2021114I-250J0D01*
G01*
X8561780Y-2021114D01*
G75*
G02*
X8561530Y-2020864I0J250D01*
G01*
X8561530Y-1990864D01*
G75*
G02*
X8561780Y-1990614I250J0D01*
G01*
G37*
G36*
G01*
X8561780Y-2040614D02*
X8671780Y-2040614D01*
G75*
G02*
X8672030Y-2040864I0J-250D01*
G01*
X8672030Y-2070864D01*
G75*
G02*
X8671780Y-2071114I-250J0D01*
G01*
X8561780Y-2071114D01*
G75*
G02*
X8561530Y-2070864I0J250D01*
G01*
X8561530Y-2040864D01*
G75*
G02*
X8561780Y-2040614I250J0D01*
G01*
G37*
G36*
G01*
X8631780Y-623614D02*
X8941780Y-623614D01*
G75*
G02*
X8942030Y-623864I0J-250D01*
G01*
X8942030Y-853864D01*
G75*
G02*
X8941780Y-854114I-250J0D01*
G01*
X8631780Y-854114D01*
G75*
G02*
X8631530Y-853864I0J250D01*
G01*
X8631530Y-623864D01*
G75*
G02*
X8631780Y-623614I250J0D01*
G01*
G37*
G36*
G01*
X8631780Y-2107614D02*
X8941780Y-2107614D01*
G75*
G02*
X8942030Y-2107864I0J-250D01*
G01*
X8942030Y-2337864D01*
G75*
G02*
X8941780Y-2338114I-250J0D01*
G01*
X8631780Y-2338114D01*
G75*
G02*
X8631530Y-2337864I0J250D01*
G01*
X8631530Y-2107864D01*
G75*
G02*
X8631780Y-2107614I250J0D01*
G01*
G37*
%TD*%
%TO.C,R29*%
G36*
G01*
X6083926Y-703893D02*
X6083926Y-648643D01*
G75*
G02*
X6104051Y-628518I20125J0D01*
G01*
X6144301Y-628518D01*
G75*
G02*
X6164426Y-648643I0J-20125D01*
G01*
X6164426Y-703893D01*
G75*
G02*
X6144301Y-724018I-20125J0D01*
G01*
X6104051Y-724018D01*
G75*
G02*
X6083926Y-703893I0J20125D01*
G01*
G37*
G36*
G01*
X6248926Y-703893D02*
X6248926Y-648643D01*
G75*
G02*
X6269051Y-628518I20125J0D01*
G01*
X6309301Y-628518D01*
G75*
G02*
X6329426Y-648643I0J-20125D01*
G01*
X6329426Y-703893D01*
G75*
G02*
X6309301Y-724018I-20125J0D01*
G01*
X6269051Y-724018D01*
G75*
G02*
X6248926Y-703893I0J20125D01*
G01*
G37*
%TD*%
%TO.C,R28*%
G36*
G01*
X6083926Y-866453D02*
X6083926Y-811203D01*
G75*
G02*
X6104051Y-791078I20125J0D01*
G01*
X6144301Y-791078D01*
G75*
G02*
X6164426Y-811203I0J-20125D01*
G01*
X6164426Y-866453D01*
G75*
G02*
X6144301Y-886578I-20125J0D01*
G01*
X6104051Y-886578D01*
G75*
G02*
X6083926Y-866453I0J20125D01*
G01*
G37*
G36*
G01*
X6248926Y-866453D02*
X6248926Y-811203D01*
G75*
G02*
X6269051Y-791078I20125J0D01*
G01*
X6309301Y-791078D01*
G75*
G02*
X6329426Y-811203I0J-20125D01*
G01*
X6329426Y-866453D01*
G75*
G02*
X6309301Y-886578I-20125J0D01*
G01*
X6269051Y-886578D01*
G75*
G02*
X6248926Y-866453I0J20125D01*
G01*
G37*
%TD*%
%TO.C,R10*%
G36*
G01*
X7267820Y-1409928D02*
X7267820Y-1354678D01*
G75*
G02*
X7287945Y-1334553I20125J0D01*
G01*
X7328195Y-1334553D01*
G75*
G02*
X7348320Y-1354678I0J-20125D01*
G01*
X7348320Y-1409928D01*
G75*
G02*
X7328195Y-1430053I-20125J0D01*
G01*
X7287945Y-1430053D01*
G75*
G02*
X7267820Y-1409928I0J20125D01*
G01*
G37*
G36*
G01*
X7102820Y-1409928D02*
X7102820Y-1354678D01*
G75*
G02*
X7122945Y-1334553I20125J0D01*
G01*
X7163195Y-1334553D01*
G75*
G02*
X7183320Y-1354678I0J-20125D01*
G01*
X7183320Y-1409928D01*
G75*
G02*
X7163195Y-1430053I-20125J0D01*
G01*
X7122945Y-1430053D01*
G75*
G02*
X7102820Y-1409928I0J20125D01*
G01*
G37*
%TD*%
%TO.C,R9*%
G36*
G01*
X7267820Y-1566562D02*
X7267820Y-1511312D01*
G75*
G02*
X7287945Y-1491187I20125J0D01*
G01*
X7328195Y-1491187D01*
G75*
G02*
X7348320Y-1511312I0J-20125D01*
G01*
X7348320Y-1566562D01*
G75*
G02*
X7328195Y-1586687I-20125J0D01*
G01*
X7287945Y-1586687D01*
G75*
G02*
X7267820Y-1566562I0J20125D01*
G01*
G37*
G36*
G01*
X7102820Y-1566562D02*
X7102820Y-1511312D01*
G75*
G02*
X7122945Y-1491187I20125J0D01*
G01*
X7163195Y-1491187D01*
G75*
G02*
X7183320Y-1511312I0J-20125D01*
G01*
X7183320Y-1566562D01*
G75*
G02*
X7163195Y-1586687I-20125J0D01*
G01*
X7122945Y-1586687D01*
G75*
G02*
X7102820Y-1566562I0J20125D01*
G01*
G37*
%TD*%
%TO.C,H4*%
X9686248Y55254D03*
%TD*%
%TO.C,H3*%
X12486248Y55254D03*
%TD*%
%TO.C,H2*%
X12486248Y-2744746D03*
%TD*%
%TO.C,H1*%
X9686248Y-2744746D03*
%TD*%
%TO.C,U8*%
G36*
G01*
X8335235Y-837290D02*
X8304985Y-837290D01*
G75*
G02*
X8289860Y-822165I0J15125D01*
G01*
X8289860Y-646915D01*
G75*
G02*
X8304985Y-631790I15125J0D01*
G01*
X8335235Y-631790D01*
G75*
G02*
X8350360Y-646915I0J-15125D01*
G01*
X8350360Y-822165D01*
G75*
G02*
X8335235Y-837290I-15125J0D01*
G01*
G37*
G36*
G01*
X8208235Y-837290D02*
X8177985Y-837290D01*
G75*
G02*
X8162860Y-822165I0J15125D01*
G01*
X8162860Y-646915D01*
G75*
G02*
X8177985Y-631790I15125J0D01*
G01*
X8208235Y-631790D01*
G75*
G02*
X8223360Y-646915I0J-15125D01*
G01*
X8223360Y-822165D01*
G75*
G02*
X8208235Y-837290I-15125J0D01*
G01*
G37*
G36*
G01*
X8081235Y-837290D02*
X8050985Y-837290D01*
G75*
G02*
X8035860Y-822165I0J15125D01*
G01*
X8035860Y-646915D01*
G75*
G02*
X8050985Y-631790I15125J0D01*
G01*
X8081235Y-631790D01*
G75*
G02*
X8096360Y-646915I0J-15125D01*
G01*
X8096360Y-822165D01*
G75*
G02*
X8081235Y-837290I-15125J0D01*
G01*
G37*
G36*
G01*
X7954235Y-837290D02*
X7923985Y-837290D01*
G75*
G02*
X7908860Y-822165I0J15125D01*
G01*
X7908860Y-646915D01*
G75*
G02*
X7923985Y-631790I15125J0D01*
G01*
X7954235Y-631790D01*
G75*
G02*
X7969360Y-646915I0J-15125D01*
G01*
X7969360Y-822165D01*
G75*
G02*
X7954235Y-837290I-15125J0D01*
G01*
G37*
G36*
G01*
X7827235Y-837290D02*
X7796985Y-837290D01*
G75*
G02*
X7781860Y-822165I0J15125D01*
G01*
X7781860Y-646915D01*
G75*
G02*
X7796985Y-631790I15125J0D01*
G01*
X7827235Y-631790D01*
G75*
G02*
X7842360Y-646915I0J-15125D01*
G01*
X7842360Y-822165D01*
G75*
G02*
X7827235Y-837290I-15125J0D01*
G01*
G37*
G36*
G01*
X7700235Y-837290D02*
X7669985Y-837290D01*
G75*
G02*
X7654860Y-822165I0J15125D01*
G01*
X7654860Y-646915D01*
G75*
G02*
X7669985Y-631790I15125J0D01*
G01*
X7700235Y-631790D01*
G75*
G02*
X7715360Y-646915I0J-15125D01*
G01*
X7715360Y-822165D01*
G75*
G02*
X7700235Y-837290I-15125J0D01*
G01*
G37*
G36*
G01*
X7573235Y-837290D02*
X7542985Y-837290D01*
G75*
G02*
X7527860Y-822165I0J15125D01*
G01*
X7527860Y-646915D01*
G75*
G02*
X7542985Y-631790I15125J0D01*
G01*
X7573235Y-631790D01*
G75*
G02*
X7588360Y-646915I0J-15125D01*
G01*
X7588360Y-822165D01*
G75*
G02*
X7573235Y-837290I-15125J0D01*
G01*
G37*
G36*
G01*
X7446235Y-837290D02*
X7415985Y-837290D01*
G75*
G02*
X7400860Y-822165I0J15125D01*
G01*
X7400860Y-646915D01*
G75*
G02*
X7415985Y-631790I15125J0D01*
G01*
X7446235Y-631790D01*
G75*
G02*
X7461360Y-646915I0J-15125D01*
G01*
X7461360Y-822165D01*
G75*
G02*
X7446235Y-837290I-15125J0D01*
G01*
G37*
G36*
G01*
X7319235Y-837290D02*
X7288985Y-837290D01*
G75*
G02*
X7273860Y-822165I0J15125D01*
G01*
X7273860Y-646915D01*
G75*
G02*
X7288985Y-631790I15125J0D01*
G01*
X7319235Y-631790D01*
G75*
G02*
X7334360Y-646915I0J-15125D01*
G01*
X7334360Y-822165D01*
G75*
G02*
X7319235Y-837290I-15125J0D01*
G01*
G37*
G36*
G01*
X7192235Y-837290D02*
X7161985Y-837290D01*
G75*
G02*
X7146860Y-822165I0J15125D01*
G01*
X7146860Y-646915D01*
G75*
G02*
X7161985Y-631790I15125J0D01*
G01*
X7192235Y-631790D01*
G75*
G02*
X7207360Y-646915I0J-15125D01*
G01*
X7207360Y-822165D01*
G75*
G02*
X7192235Y-837290I-15125J0D01*
G01*
G37*
G36*
G01*
X7065235Y-837290D02*
X7034985Y-837290D01*
G75*
G02*
X7019860Y-822165I0J15125D01*
G01*
X7019860Y-646915D01*
G75*
G02*
X7034985Y-631790I15125J0D01*
G01*
X7065235Y-631790D01*
G75*
G02*
X7080360Y-646915I0J-15125D01*
G01*
X7080360Y-822165D01*
G75*
G02*
X7065235Y-837290I-15125J0D01*
G01*
G37*
G36*
G01*
X6938235Y-837290D02*
X6907985Y-837290D01*
G75*
G02*
X6892860Y-822165I0J15125D01*
G01*
X6892860Y-646915D01*
G75*
G02*
X6907985Y-631790I15125J0D01*
G01*
X6938235Y-631790D01*
G75*
G02*
X6953360Y-646915I0J-15125D01*
G01*
X6953360Y-822165D01*
G75*
G02*
X6938235Y-837290I-15125J0D01*
G01*
G37*
G36*
G01*
X6811235Y-837290D02*
X6780985Y-837290D01*
G75*
G02*
X6765860Y-822165I0J15125D01*
G01*
X6765860Y-646915D01*
G75*
G02*
X6780985Y-631790I15125J0D01*
G01*
X6811235Y-631790D01*
G75*
G02*
X6826360Y-646915I0J-15125D01*
G01*
X6826360Y-822165D01*
G75*
G02*
X6811235Y-837290I-15125J0D01*
G01*
G37*
G36*
G01*
X6684235Y-837290D02*
X6653985Y-837290D01*
G75*
G02*
X6638860Y-822165I0J15125D01*
G01*
X6638860Y-646915D01*
G75*
G02*
X6653985Y-631790I15125J0D01*
G01*
X6684235Y-631790D01*
G75*
G02*
X6699360Y-646915I0J-15125D01*
G01*
X6699360Y-822165D01*
G75*
G02*
X6684235Y-837290I-15125J0D01*
G01*
G37*
G36*
G01*
X6684235Y92710D02*
X6653985Y92710D01*
G75*
G02*
X6638860Y107835I0J15125D01*
G01*
X6638860Y283085D01*
G75*
G02*
X6653985Y298210I15125J0D01*
G01*
X6684235Y298210D01*
G75*
G02*
X6699360Y283085I0J-15125D01*
G01*
X6699360Y107835D01*
G75*
G02*
X6684235Y92710I-15125J0D01*
G01*
G37*
G36*
G01*
X6811235Y92710D02*
X6780985Y92710D01*
G75*
G02*
X6765860Y107835I0J15125D01*
G01*
X6765860Y283085D01*
G75*
G02*
X6780985Y298210I15125J0D01*
G01*
X6811235Y298210D01*
G75*
G02*
X6826360Y283085I0J-15125D01*
G01*
X6826360Y107835D01*
G75*
G02*
X6811235Y92710I-15125J0D01*
G01*
G37*
G36*
G01*
X6938235Y92710D02*
X6907985Y92710D01*
G75*
G02*
X6892860Y107835I0J15125D01*
G01*
X6892860Y283085D01*
G75*
G02*
X6907985Y298210I15125J0D01*
G01*
X6938235Y298210D01*
G75*
G02*
X6953360Y283085I0J-15125D01*
G01*
X6953360Y107835D01*
G75*
G02*
X6938235Y92710I-15125J0D01*
G01*
G37*
G36*
G01*
X7065235Y92710D02*
X7034985Y92710D01*
G75*
G02*
X7019860Y107835I0J15125D01*
G01*
X7019860Y283085D01*
G75*
G02*
X7034985Y298210I15125J0D01*
G01*
X7065235Y298210D01*
G75*
G02*
X7080360Y283085I0J-15125D01*
G01*
X7080360Y107835D01*
G75*
G02*
X7065235Y92710I-15125J0D01*
G01*
G37*
G36*
G01*
X7192235Y92710D02*
X7161985Y92710D01*
G75*
G02*
X7146860Y107835I0J15125D01*
G01*
X7146860Y283085D01*
G75*
G02*
X7161985Y298210I15125J0D01*
G01*
X7192235Y298210D01*
G75*
G02*
X7207360Y283085I0J-15125D01*
G01*
X7207360Y107835D01*
G75*
G02*
X7192235Y92710I-15125J0D01*
G01*
G37*
G36*
G01*
X7319235Y92710D02*
X7288985Y92710D01*
G75*
G02*
X7273860Y107835I0J15125D01*
G01*
X7273860Y283085D01*
G75*
G02*
X7288985Y298210I15125J0D01*
G01*
X7319235Y298210D01*
G75*
G02*
X7334360Y283085I0J-15125D01*
G01*
X7334360Y107835D01*
G75*
G02*
X7319235Y92710I-15125J0D01*
G01*
G37*
G36*
G01*
X7446235Y92710D02*
X7415985Y92710D01*
G75*
G02*
X7400860Y107835I0J15125D01*
G01*
X7400860Y283085D01*
G75*
G02*
X7415985Y298210I15125J0D01*
G01*
X7446235Y298210D01*
G75*
G02*
X7461360Y283085I0J-15125D01*
G01*
X7461360Y107835D01*
G75*
G02*
X7446235Y92710I-15125J0D01*
G01*
G37*
G36*
G01*
X7573235Y92710D02*
X7542985Y92710D01*
G75*
G02*
X7527860Y107835I0J15125D01*
G01*
X7527860Y283085D01*
G75*
G02*
X7542985Y298210I15125J0D01*
G01*
X7573235Y298210D01*
G75*
G02*
X7588360Y283085I0J-15125D01*
G01*
X7588360Y107835D01*
G75*
G02*
X7573235Y92710I-15125J0D01*
G01*
G37*
G36*
G01*
X7700235Y92710D02*
X7669985Y92710D01*
G75*
G02*
X7654860Y107835I0J15125D01*
G01*
X7654860Y283085D01*
G75*
G02*
X7669985Y298210I15125J0D01*
G01*
X7700235Y298210D01*
G75*
G02*
X7715360Y283085I0J-15125D01*
G01*
X7715360Y107835D01*
G75*
G02*
X7700235Y92710I-15125J0D01*
G01*
G37*
G36*
G01*
X7827235Y92710D02*
X7796985Y92710D01*
G75*
G02*
X7781860Y107835I0J15125D01*
G01*
X7781860Y283085D01*
G75*
G02*
X7796985Y298210I15125J0D01*
G01*
X7827235Y298210D01*
G75*
G02*
X7842360Y283085I0J-15125D01*
G01*
X7842360Y107835D01*
G75*
G02*
X7827235Y92710I-15125J0D01*
G01*
G37*
G36*
G01*
X7954235Y92710D02*
X7923985Y92710D01*
G75*
G02*
X7908860Y107835I0J15125D01*
G01*
X7908860Y283085D01*
G75*
G02*
X7923985Y298210I15125J0D01*
G01*
X7954235Y298210D01*
G75*
G02*
X7969360Y283085I0J-15125D01*
G01*
X7969360Y107835D01*
G75*
G02*
X7954235Y92710I-15125J0D01*
G01*
G37*
G36*
G01*
X8081235Y92710D02*
X8050985Y92710D01*
G75*
G02*
X8035860Y107835I0J15125D01*
G01*
X8035860Y283085D01*
G75*
G02*
X8050985Y298210I15125J0D01*
G01*
X8081235Y298210D01*
G75*
G02*
X8096360Y283085I0J-15125D01*
G01*
X8096360Y107835D01*
G75*
G02*
X8081235Y92710I-15125J0D01*
G01*
G37*
G36*
G01*
X8208235Y92710D02*
X8177985Y92710D01*
G75*
G02*
X8162860Y107835I0J15125D01*
G01*
X8162860Y283085D01*
G75*
G02*
X8177985Y298210I15125J0D01*
G01*
X8208235Y298210D01*
G75*
G02*
X8223360Y283085I0J-15125D01*
G01*
X8223360Y107835D01*
G75*
G02*
X8208235Y92710I-15125J0D01*
G01*
G37*
G36*
G01*
X8335235Y92710D02*
X8304985Y92710D01*
G75*
G02*
X8289860Y107835I0J15125D01*
G01*
X8289860Y283085D01*
G75*
G02*
X8304985Y298210I15125J0D01*
G01*
X8335235Y298210D01*
G75*
G02*
X8350360Y283085I0J-15125D01*
G01*
X8350360Y107835D01*
G75*
G02*
X8335235Y92710I-15125J0D01*
G01*
G37*
%TD*%
%TO.C,U6*%
G36*
G01*
X11408748Y-1988646D02*
X11328748Y-1988646D01*
G75*
G02*
X11328498Y-1988396I0J250D01*
G01*
X11328498Y-1898396D01*
G75*
G02*
X11328748Y-1898146I250J0D01*
G01*
X11408748Y-1898146D01*
G75*
G02*
X11408998Y-1898396I0J-250D01*
G01*
X11408998Y-1988396D01*
G75*
G02*
X11408748Y-1988646I-250J0D01*
G01*
G37*
G36*
G01*
X11218748Y-1988646D02*
X11138748Y-1988646D01*
G75*
G02*
X11138498Y-1988396I0J250D01*
G01*
X11138498Y-1898396D01*
G75*
G02*
X11138748Y-1898146I250J0D01*
G01*
X11218748Y-1898146D01*
G75*
G02*
X11218998Y-1898396I0J-250D01*
G01*
X11218998Y-1988396D01*
G75*
G02*
X11218748Y-1988646I-250J0D01*
G01*
G37*
G36*
G01*
X11313748Y-1788646D02*
X11233748Y-1788646D01*
G75*
G02*
X11233498Y-1788396I0J250D01*
G01*
X11233498Y-1698396D01*
G75*
G02*
X11233748Y-1698146I250J0D01*
G01*
X11313748Y-1698146D01*
G75*
G02*
X11313998Y-1698396I0J-250D01*
G01*
X11313998Y-1788396D01*
G75*
G02*
X11313748Y-1788646I-250J0D01*
G01*
G37*
%TD*%
%TO.C,U5*%
G36*
G01*
X10785598Y-1616446D02*
X10785598Y-1536446D01*
G75*
G02*
X10785848Y-1536196I250J0D01*
G01*
X10875848Y-1536196D01*
G75*
G02*
X10876098Y-1536446I0J-250D01*
G01*
X10876098Y-1616446D01*
G75*
G02*
X10875848Y-1616696I-250J0D01*
G01*
X10785848Y-1616696D01*
G75*
G02*
X10785598Y-1616446I0J250D01*
G01*
G37*
G36*
G01*
X10785598Y-1426446D02*
X10785598Y-1346446D01*
G75*
G02*
X10785848Y-1346196I250J0D01*
G01*
X10875848Y-1346196D01*
G75*
G02*
X10876098Y-1346446I0J-250D01*
G01*
X10876098Y-1426446D01*
G75*
G02*
X10875848Y-1426696I-250J0D01*
G01*
X10785848Y-1426696D01*
G75*
G02*
X10785598Y-1426446I0J250D01*
G01*
G37*
G36*
G01*
X10985598Y-1521446D02*
X10985598Y-1441446D01*
G75*
G02*
X10985848Y-1441196I250J0D01*
G01*
X11075848Y-1441196D01*
G75*
G02*
X11076098Y-1441446I0J-250D01*
G01*
X11076098Y-1521446D01*
G75*
G02*
X11075848Y-1521696I-250J0D01*
G01*
X10985848Y-1521696D01*
G75*
G02*
X10985598Y-1521446I0J250D01*
G01*
G37*
%TD*%
%TO.C,U2*%
G36*
G01*
X10339798Y-1699196D02*
X10404798Y-1699196D01*
G75*
G02*
X10405048Y-1699446I0J-250D01*
G01*
X10405048Y-1805446D01*
G75*
G02*
X10404798Y-1805696I-250J0D01*
G01*
X10339798Y-1805696D01*
G75*
G02*
X10339548Y-1805446I0J250D01*
G01*
X10339548Y-1699446D01*
G75*
G02*
X10339798Y-1699196I250J0D01*
G01*
G37*
G36*
G01*
X10434798Y-1699196D02*
X10499798Y-1699196D01*
G75*
G02*
X10500048Y-1699446I0J-250D01*
G01*
X10500048Y-1805446D01*
G75*
G02*
X10499798Y-1805696I-250J0D01*
G01*
X10434798Y-1805696D01*
G75*
G02*
X10434548Y-1805446I0J250D01*
G01*
X10434548Y-1699446D01*
G75*
G02*
X10434798Y-1699196I250J0D01*
G01*
G37*
G36*
G01*
X10529798Y-1699196D02*
X10594798Y-1699196D01*
G75*
G02*
X10595048Y-1699446I0J-250D01*
G01*
X10595048Y-1805446D01*
G75*
G02*
X10594798Y-1805696I-250J0D01*
G01*
X10529798Y-1805696D01*
G75*
G02*
X10529548Y-1805446I0J250D01*
G01*
X10529548Y-1699446D01*
G75*
G02*
X10529798Y-1699196I250J0D01*
G01*
G37*
G36*
G01*
X10529798Y-1919196D02*
X10594798Y-1919196D01*
G75*
G02*
X10595048Y-1919446I0J-250D01*
G01*
X10595048Y-2025446D01*
G75*
G02*
X10594798Y-2025696I-250J0D01*
G01*
X10529798Y-2025696D01*
G75*
G02*
X10529548Y-2025446I0J250D01*
G01*
X10529548Y-1919446D01*
G75*
G02*
X10529798Y-1919196I250J0D01*
G01*
G37*
G36*
G01*
X10339798Y-1919196D02*
X10404798Y-1919196D01*
G75*
G02*
X10405048Y-1919446I0J-250D01*
G01*
X10405048Y-2025446D01*
G75*
G02*
X10404798Y-2025696I-250J0D01*
G01*
X10339798Y-2025696D01*
G75*
G02*
X10339548Y-2025446I0J250D01*
G01*
X10339548Y-1919446D01*
G75*
G02*
X10339798Y-1919196I250J0D01*
G01*
G37*
%TD*%
%TO.C,R26*%
G36*
G01*
X10610082Y-1578667D02*
X10610082Y-1523417D01*
G75*
G02*
X10630207Y-1503292I20125J0D01*
G01*
X10670457Y-1503292D01*
G75*
G02*
X10690582Y-1523417I0J-20125D01*
G01*
X10690582Y-1578667D01*
G75*
G02*
X10670457Y-1598792I-20125J0D01*
G01*
X10630207Y-1598792D01*
G75*
G02*
X10610082Y-1578667I0J20125D01*
G01*
G37*
G36*
G01*
X10445082Y-1578667D02*
X10445082Y-1523417D01*
G75*
G02*
X10465207Y-1503292I20125J0D01*
G01*
X10505457Y-1503292D01*
G75*
G02*
X10525582Y-1523417I0J-20125D01*
G01*
X10525582Y-1578667D01*
G75*
G02*
X10505457Y-1598792I-20125J0D01*
G01*
X10465207Y-1598792D01*
G75*
G02*
X10445082Y-1578667I0J20125D01*
G01*
G37*
%TD*%
%TO.C,R25*%
G36*
G01*
X6420909Y-337568D02*
X6476159Y-337568D01*
G75*
G02*
X6496284Y-357693I0J-20125D01*
G01*
X6496284Y-397943D01*
G75*
G02*
X6476159Y-418068I-20125J0D01*
G01*
X6420909Y-418068D01*
G75*
G02*
X6400784Y-397943I0J20125D01*
G01*
X6400784Y-357693D01*
G75*
G02*
X6420909Y-337568I20125J0D01*
G01*
G37*
G36*
G01*
X6420909Y-172568D02*
X6476159Y-172568D01*
G75*
G02*
X6496284Y-192693I0J-20125D01*
G01*
X6496284Y-232943D01*
G75*
G02*
X6476159Y-253068I-20125J0D01*
G01*
X6420909Y-253068D01*
G75*
G02*
X6400784Y-232943I0J20125D01*
G01*
X6400784Y-192693D01*
G75*
G02*
X6420909Y-172568I20125J0D01*
G01*
G37*
%TD*%
%TO.C,R24*%
G36*
G01*
X6085883Y-337568D02*
X6141133Y-337568D01*
G75*
G02*
X6161258Y-357693I0J-20125D01*
G01*
X6161258Y-397943D01*
G75*
G02*
X6141133Y-418068I-20125J0D01*
G01*
X6085883Y-418068D01*
G75*
G02*
X6065758Y-397943I0J20125D01*
G01*
X6065758Y-357693D01*
G75*
G02*
X6085883Y-337568I20125J0D01*
G01*
G37*
G36*
G01*
X6085883Y-172568D02*
X6141133Y-172568D01*
G75*
G02*
X6161258Y-192693I0J-20125D01*
G01*
X6161258Y-232943D01*
G75*
G02*
X6141133Y-253068I-20125J0D01*
G01*
X6085883Y-253068D01*
G75*
G02*
X6065758Y-232943I0J20125D01*
G01*
X6065758Y-192693D01*
G75*
G02*
X6085883Y-172568I20125J0D01*
G01*
G37*
%TD*%
%TO.C,R23*%
G36*
G01*
X6830210Y-1196775D02*
X6830210Y-1252025D01*
G75*
G02*
X6810085Y-1272150I-20125J0D01*
G01*
X6769835Y-1272150D01*
G75*
G02*
X6749710Y-1252025I0J20125D01*
G01*
X6749710Y-1196775D01*
G75*
G02*
X6769835Y-1176650I20125J0D01*
G01*
X6810085Y-1176650D01*
G75*
G02*
X6830210Y-1196775I0J-20125D01*
G01*
G37*
G36*
G01*
X6995210Y-1196775D02*
X6995210Y-1252025D01*
G75*
G02*
X6975085Y-1272150I-20125J0D01*
G01*
X6934835Y-1272150D01*
G75*
G02*
X6914710Y-1252025I0J20125D01*
G01*
X6914710Y-1196775D01*
G75*
G02*
X6934835Y-1176650I20125J0D01*
G01*
X6975085Y-1176650D01*
G75*
G02*
X6995210Y-1196775I0J-20125D01*
G01*
G37*
%TD*%
%TO.C,R22*%
G36*
G01*
X6913236Y-1449383D02*
X6913236Y-1394133D01*
G75*
G02*
X6933361Y-1374008I20125J0D01*
G01*
X6973611Y-1374008D01*
G75*
G02*
X6993736Y-1394133I0J-20125D01*
G01*
X6993736Y-1449383D01*
G75*
G02*
X6973611Y-1469508I-20125J0D01*
G01*
X6933361Y-1469508D01*
G75*
G02*
X6913236Y-1449383I0J20125D01*
G01*
G37*
G36*
G01*
X6748236Y-1449383D02*
X6748236Y-1394133D01*
G75*
G02*
X6768361Y-1374008I20125J0D01*
G01*
X6808611Y-1374008D01*
G75*
G02*
X6828736Y-1394133I0J-20125D01*
G01*
X6828736Y-1449383D01*
G75*
G02*
X6808611Y-1469508I-20125J0D01*
G01*
X6768361Y-1469508D01*
G75*
G02*
X6748236Y-1449383I0J20125D01*
G01*
G37*
%TD*%
%TO.C,R21*%
G36*
G01*
X7183320Y-1198045D02*
X7183320Y-1253295D01*
G75*
G02*
X7163195Y-1273420I-20125J0D01*
G01*
X7122945Y-1273420D01*
G75*
G02*
X7102820Y-1253295I0J20125D01*
G01*
X7102820Y-1198045D01*
G75*
G02*
X7122945Y-1177920I20125J0D01*
G01*
X7163195Y-1177920D01*
G75*
G02*
X7183320Y-1198045I0J-20125D01*
G01*
G37*
G36*
G01*
X7348320Y-1198045D02*
X7348320Y-1253295D01*
G75*
G02*
X7328195Y-1273420I-20125J0D01*
G01*
X7287945Y-1273420D01*
G75*
G02*
X7267820Y-1253295I0J20125D01*
G01*
X7267820Y-1198045D01*
G75*
G02*
X7287945Y-1177920I20125J0D01*
G01*
X7328195Y-1177920D01*
G75*
G02*
X7348320Y-1198045I0J-20125D01*
G01*
G37*
%TD*%
%TO.C,R20*%
G36*
G01*
X7267820Y-1723195D02*
X7267820Y-1667945D01*
G75*
G02*
X7287945Y-1647820I20125J0D01*
G01*
X7328195Y-1647820D01*
G75*
G02*
X7348320Y-1667945I0J-20125D01*
G01*
X7348320Y-1723195D01*
G75*
G02*
X7328195Y-1743320I-20125J0D01*
G01*
X7287945Y-1743320D01*
G75*
G02*
X7267820Y-1723195I0J20125D01*
G01*
G37*
G36*
G01*
X7102820Y-1723195D02*
X7102820Y-1667945D01*
G75*
G02*
X7122945Y-1647820I20125J0D01*
G01*
X7163195Y-1647820D01*
G75*
G02*
X7183320Y-1667945I0J-20125D01*
G01*
X7183320Y-1723195D01*
G75*
G02*
X7163195Y-1743320I-20125J0D01*
G01*
X7122945Y-1743320D01*
G75*
G02*
X7102820Y-1723195I0J20125D01*
G01*
G37*
%TD*%
%TO.C,R19*%
G36*
G01*
X10971173Y-2347146D02*
X10915923Y-2347146D01*
G75*
G02*
X10895798Y-2327021I0J20125D01*
G01*
X10895798Y-2286771D01*
G75*
G02*
X10915923Y-2266646I20125J0D01*
G01*
X10971173Y-2266646D01*
G75*
G02*
X10991298Y-2286771I0J-20125D01*
G01*
X10991298Y-2327021D01*
G75*
G02*
X10971173Y-2347146I-20125J0D01*
G01*
G37*
G36*
G01*
X10971173Y-2182146D02*
X10915923Y-2182146D01*
G75*
G02*
X10895798Y-2162021I0J20125D01*
G01*
X10895798Y-2121771D01*
G75*
G02*
X10915923Y-2101646I20125J0D01*
G01*
X10971173Y-2101646D01*
G75*
G02*
X10991298Y-2121771I0J-20125D01*
G01*
X10991298Y-2162021D01*
G75*
G02*
X10971173Y-2182146I-20125J0D01*
G01*
G37*
%TD*%
%TO.C,R18*%
G36*
G01*
X7849630Y-2612102D02*
X7849630Y-2897398D01*
G75*
G02*
X7824528Y-2922500I-25102J0D01*
G01*
X7751732Y-2922500D01*
G75*
G02*
X7726630Y-2897398I0J25102D01*
G01*
X7726630Y-2612102D01*
G75*
G02*
X7751732Y-2587000I25102J0D01*
G01*
X7824528Y-2587000D01*
G75*
G02*
X7849630Y-2612102I0J-25102D01*
G01*
G37*
G36*
G01*
X7257130Y-2612102D02*
X7257130Y-2897398D01*
G75*
G02*
X7232028Y-2922500I-25102J0D01*
G01*
X7159232Y-2922500D01*
G75*
G02*
X7134130Y-2897398I0J25102D01*
G01*
X7134130Y-2612102D01*
G75*
G02*
X7159232Y-2587000I25102J0D01*
G01*
X7232028Y-2587000D01*
G75*
G02*
X7257130Y-2612102I0J-25102D01*
G01*
G37*
%TD*%
%TO.C,R17*%
G36*
G01*
X10744473Y-2101646D02*
X10799723Y-2101646D01*
G75*
G02*
X10819848Y-2121771I0J-20125D01*
G01*
X10819848Y-2162021D01*
G75*
G02*
X10799723Y-2182146I-20125J0D01*
G01*
X10744473Y-2182146D01*
G75*
G02*
X10724348Y-2162021I0J20125D01*
G01*
X10724348Y-2121771D01*
G75*
G02*
X10744473Y-2101646I20125J0D01*
G01*
G37*
G36*
G01*
X10744473Y-2266646D02*
X10799723Y-2266646D01*
G75*
G02*
X10819848Y-2286771I0J-20125D01*
G01*
X10819848Y-2327021D01*
G75*
G02*
X10799723Y-2347146I-20125J0D01*
G01*
X10744473Y-2347146D01*
G75*
G02*
X10724348Y-2327021I0J20125D01*
G01*
X10724348Y-2286771D01*
G75*
G02*
X10744473Y-2266646I20125J0D01*
G01*
G37*
%TD*%
%TO.C,R16*%
G36*
G01*
X6253396Y-337568D02*
X6308646Y-337568D01*
G75*
G02*
X6328771Y-357693I0J-20125D01*
G01*
X6328771Y-397943D01*
G75*
G02*
X6308646Y-418068I-20125J0D01*
G01*
X6253396Y-418068D01*
G75*
G02*
X6233271Y-397943I0J20125D01*
G01*
X6233271Y-357693D01*
G75*
G02*
X6253396Y-337568I20125J0D01*
G01*
G37*
G36*
G01*
X6253396Y-172568D02*
X6308646Y-172568D01*
G75*
G02*
X6328771Y-192693I0J-20125D01*
G01*
X6328771Y-232943D01*
G75*
G02*
X6308646Y-253068I-20125J0D01*
G01*
X6253396Y-253068D01*
G75*
G02*
X6233271Y-232943I0J20125D01*
G01*
X6233271Y-192693D01*
G75*
G02*
X6253396Y-172568I20125J0D01*
G01*
G37*
%TD*%
%TO.C,R15*%
G36*
G01*
X11694793Y-1222016D02*
X11639543Y-1222016D01*
G75*
G02*
X11619418Y-1201891I0J20125D01*
G01*
X11619418Y-1161641D01*
G75*
G02*
X11639543Y-1141516I20125J0D01*
G01*
X11694793Y-1141516D01*
G75*
G02*
X11714918Y-1161641I0J-20125D01*
G01*
X11714918Y-1201891D01*
G75*
G02*
X11694793Y-1222016I-20125J0D01*
G01*
G37*
G36*
G01*
X11694793Y-1057016D02*
X11639543Y-1057016D01*
G75*
G02*
X11619418Y-1036891I0J20125D01*
G01*
X11619418Y-996641D01*
G75*
G02*
X11639543Y-976516I20125J0D01*
G01*
X11694793Y-976516D01*
G75*
G02*
X11714918Y-996641I0J-20125D01*
G01*
X11714918Y-1036891D01*
G75*
G02*
X11694793Y-1057016I-20125J0D01*
G01*
G37*
%TD*%
%TO.C,R14*%
G36*
G01*
X11539853Y-1222016D02*
X11484603Y-1222016D01*
G75*
G02*
X11464478Y-1201891I0J20125D01*
G01*
X11464478Y-1161641D01*
G75*
G02*
X11484603Y-1141516I20125J0D01*
G01*
X11539853Y-1141516D01*
G75*
G02*
X11559978Y-1161641I0J-20125D01*
G01*
X11559978Y-1201891D01*
G75*
G02*
X11539853Y-1222016I-20125J0D01*
G01*
G37*
G36*
G01*
X11539853Y-1057016D02*
X11484603Y-1057016D01*
G75*
G02*
X11464478Y-1036891I0J20125D01*
G01*
X11464478Y-996641D01*
G75*
G02*
X11484603Y-976516I20125J0D01*
G01*
X11539853Y-976516D01*
G75*
G02*
X11559978Y-996641I0J-20125D01*
G01*
X11559978Y-1036891D01*
G75*
G02*
X11539853Y-1057016I-20125J0D01*
G01*
G37*
%TD*%
%TO.C,R13*%
G36*
G01*
X11179453Y-1092436D02*
X11124203Y-1092436D01*
G75*
G02*
X11104078Y-1072311I0J20125D01*
G01*
X11104078Y-1032061D01*
G75*
G02*
X11124203Y-1011936I20125J0D01*
G01*
X11179453Y-1011936D01*
G75*
G02*
X11199578Y-1032061I0J-20125D01*
G01*
X11199578Y-1072311D01*
G75*
G02*
X11179453Y-1092436I-20125J0D01*
G01*
G37*
G36*
G01*
X11179453Y-1257436D02*
X11124203Y-1257436D01*
G75*
G02*
X11104078Y-1237311I0J20125D01*
G01*
X11104078Y-1197061D01*
G75*
G02*
X11124203Y-1176936I20125J0D01*
G01*
X11179453Y-1176936D01*
G75*
G02*
X11199578Y-1197061I0J-20125D01*
G01*
X11199578Y-1237311D01*
G75*
G02*
X11179453Y-1257436I-20125J0D01*
G01*
G37*
%TD*%
%TO.C,R12*%
G36*
G01*
X11020703Y-1092486D02*
X10965453Y-1092486D01*
G75*
G02*
X10945328Y-1072361I0J20125D01*
G01*
X10945328Y-1032111D01*
G75*
G02*
X10965453Y-1011986I20125J0D01*
G01*
X11020703Y-1011986D01*
G75*
G02*
X11040828Y-1032111I0J-20125D01*
G01*
X11040828Y-1072361D01*
G75*
G02*
X11020703Y-1092486I-20125J0D01*
G01*
G37*
G36*
G01*
X11020703Y-1257486D02*
X10965453Y-1257486D01*
G75*
G02*
X10945328Y-1237361I0J20125D01*
G01*
X10945328Y-1197111D01*
G75*
G02*
X10965453Y-1176986I20125J0D01*
G01*
X11020703Y-1176986D01*
G75*
G02*
X11040828Y-1197111I0J-20125D01*
G01*
X11040828Y-1237361D01*
G75*
G02*
X11020703Y-1257486I-20125J0D01*
G01*
G37*
%TD*%
%TO.C,R11*%
G36*
G01*
X10861953Y-1092486D02*
X10806703Y-1092486D01*
G75*
G02*
X10786578Y-1072361I0J20125D01*
G01*
X10786578Y-1032111D01*
G75*
G02*
X10806703Y-1011986I20125J0D01*
G01*
X10861953Y-1011986D01*
G75*
G02*
X10882078Y-1032111I0J-20125D01*
G01*
X10882078Y-1072361D01*
G75*
G02*
X10861953Y-1092486I-20125J0D01*
G01*
G37*
G36*
G01*
X10861953Y-1257486D02*
X10806703Y-1257486D01*
G75*
G02*
X10786578Y-1237361I0J20125D01*
G01*
X10786578Y-1197111D01*
G75*
G02*
X10806703Y-1176986I20125J0D01*
G01*
X10861953Y-1176986D01*
G75*
G02*
X10882078Y-1197111I0J-20125D01*
G01*
X10882078Y-1237361D01*
G75*
G02*
X10861953Y-1257486I-20125J0D01*
G01*
G37*
%TD*%
%TO.C,R8*%
G36*
G01*
X12416433Y-909456D02*
X12361183Y-909456D01*
G75*
G02*
X12341058Y-889331I0J20125D01*
G01*
X12341058Y-849081D01*
G75*
G02*
X12361183Y-828956I20125J0D01*
G01*
X12416433Y-828956D01*
G75*
G02*
X12436558Y-849081I0J-20125D01*
G01*
X12436558Y-889331D01*
G75*
G02*
X12416433Y-909456I-20125J0D01*
G01*
G37*
G36*
G01*
X12416433Y-744456D02*
X12361183Y-744456D01*
G75*
G02*
X12341058Y-724331I0J20125D01*
G01*
X12341058Y-684081D01*
G75*
G02*
X12361183Y-663956I20125J0D01*
G01*
X12416433Y-663956D01*
G75*
G02*
X12436558Y-684081I0J-20125D01*
G01*
X12436558Y-724331D01*
G75*
G02*
X12416433Y-744456I-20125J0D01*
G01*
G37*
%TD*%
%TO.C,R5*%
G36*
G01*
X6825130Y-1641275D02*
X6825130Y-1696525D01*
G75*
G02*
X6805005Y-1716650I-20125J0D01*
G01*
X6764755Y-1716650D01*
G75*
G02*
X6744630Y-1696525I0J20125D01*
G01*
X6744630Y-1641275D01*
G75*
G02*
X6764755Y-1621150I20125J0D01*
G01*
X6805005Y-1621150D01*
G75*
G02*
X6825130Y-1641275I0J-20125D01*
G01*
G37*
G36*
G01*
X6990130Y-1641275D02*
X6990130Y-1696525D01*
G75*
G02*
X6970005Y-1716650I-20125J0D01*
G01*
X6929755Y-1716650D01*
G75*
G02*
X6909630Y-1696525I0J20125D01*
G01*
X6909630Y-1641275D01*
G75*
G02*
X6929755Y-1621150I20125J0D01*
G01*
X6970005Y-1621150D01*
G75*
G02*
X6990130Y-1641275I0J-20125D01*
G01*
G37*
%TD*%
%TO.C,R4*%
G36*
G01*
X10638258Y-987731D02*
X10638258Y-1042981D01*
G75*
G02*
X10618133Y-1063106I-20125J0D01*
G01*
X10577883Y-1063106D01*
G75*
G02*
X10557758Y-1042981I0J20125D01*
G01*
X10557758Y-987731D01*
G75*
G02*
X10577883Y-967606I20125J0D01*
G01*
X10618133Y-967606D01*
G75*
G02*
X10638258Y-987731I0J-20125D01*
G01*
G37*
G36*
G01*
X10473258Y-987731D02*
X10473258Y-1042981D01*
G75*
G02*
X10453133Y-1063106I-20125J0D01*
G01*
X10412883Y-1063106D01*
G75*
G02*
X10392758Y-1042981I0J20125D01*
G01*
X10392758Y-987731D01*
G75*
G02*
X10412883Y-967606I20125J0D01*
G01*
X10453133Y-967606D01*
G75*
G02*
X10473258Y-987731I0J-20125D01*
G01*
G37*
%TD*%
%TO.C,R2*%
G36*
G01*
X10085343Y-347626D02*
X10140593Y-347626D01*
G75*
G02*
X10160718Y-367751I0J-20125D01*
G01*
X10160718Y-408001D01*
G75*
G02*
X10140593Y-428126I-20125J0D01*
G01*
X10085343Y-428126D01*
G75*
G02*
X10065218Y-408001I0J20125D01*
G01*
X10065218Y-367751D01*
G75*
G02*
X10085343Y-347626I20125J0D01*
G01*
G37*
G36*
G01*
X10085343Y-182626D02*
X10140593Y-182626D01*
G75*
G02*
X10160718Y-202751I0J-20125D01*
G01*
X10160718Y-243001D01*
G75*
G02*
X10140593Y-263126I-20125J0D01*
G01*
X10085343Y-263126D01*
G75*
G02*
X10065218Y-243001I0J20125D01*
G01*
X10065218Y-202751D01*
G75*
G02*
X10085343Y-182626I20125J0D01*
G01*
G37*
%TD*%
%TO.C,Q1*%
G36*
G01*
X11047598Y-1698396D02*
X11047598Y-1798396D01*
G75*
G02*
X11047348Y-1798646I-250J0D01*
G01*
X10907348Y-1798646D01*
G75*
G02*
X10907098Y-1798396I0J250D01*
G01*
X10907098Y-1698396D01*
G75*
G02*
X10907348Y-1698146I250J0D01*
G01*
X11047348Y-1698146D01*
G75*
G02*
X11047598Y-1698396I0J-250D01*
G01*
G37*
G36*
G01*
X11047598Y-1888396D02*
X11047598Y-1988396D01*
G75*
G02*
X11047348Y-1988646I-250J0D01*
G01*
X10907348Y-1988646D01*
G75*
G02*
X10907098Y-1988396I0J250D01*
G01*
X10907098Y-1888396D01*
G75*
G02*
X10907348Y-1888146I250J0D01*
G01*
X11047348Y-1888146D01*
G75*
G02*
X11047598Y-1888396I0J-250D01*
G01*
G37*
G36*
G01*
X10827598Y-1793396D02*
X10827598Y-1893396D01*
G75*
G02*
X10827348Y-1893646I-250J0D01*
G01*
X10687348Y-1893646D01*
G75*
G02*
X10687098Y-1893396I0J250D01*
G01*
X10687098Y-1793396D01*
G75*
G02*
X10687348Y-1793146I250J0D01*
G01*
X10827348Y-1793146D01*
G75*
G02*
X10827598Y-1793396I0J-250D01*
G01*
G37*
%TD*%
%TO.C,D2*%
G36*
G01*
X6408966Y-2632814D02*
X6288966Y-2632814D01*
G75*
G02*
X6288716Y-2632564I0J250D01*
G01*
X6288716Y-2542564D01*
G75*
G02*
X6288966Y-2542314I250J0D01*
G01*
X6408966Y-2542314D01*
G75*
G02*
X6409216Y-2542564I0J-250D01*
G01*
X6409216Y-2632564D01*
G75*
G02*
X6408966Y-2632814I-250J0D01*
G01*
G37*
G36*
G01*
X6408966Y-2962814D02*
X6288966Y-2962814D01*
G75*
G02*
X6288716Y-2962564I0J250D01*
G01*
X6288716Y-2872564D01*
G75*
G02*
X6288966Y-2872314I250J0D01*
G01*
X6408966Y-2872314D01*
G75*
G02*
X6409216Y-2872564I0J-250D01*
G01*
X6409216Y-2962564D01*
G75*
G02*
X6408966Y-2962814I-250J0D01*
G01*
G37*
%TD*%
%TO.C,D1*%
G36*
G01*
X6539156Y-2872314D02*
X6659156Y-2872314D01*
G75*
G02*
X6659406Y-2872564I0J-250D01*
G01*
X6659406Y-2962564D01*
G75*
G02*
X6659156Y-2962814I-250J0D01*
G01*
X6539156Y-2962814D01*
G75*
G02*
X6538906Y-2962564I0J250D01*
G01*
X6538906Y-2872564D01*
G75*
G02*
X6539156Y-2872314I250J0D01*
G01*
G37*
G36*
G01*
X6539156Y-2542314D02*
X6659156Y-2542314D01*
G75*
G02*
X6659406Y-2542564I0J-250D01*
G01*
X6659406Y-2632564D01*
G75*
G02*
X6659156Y-2632814I-250J0D01*
G01*
X6539156Y-2632814D01*
G75*
G02*
X6538906Y-2632564I0J250D01*
G01*
X6538906Y-2542564D01*
G75*
G02*
X6539156Y-2542314I250J0D01*
G01*
G37*
%TD*%
%TO.C,C24*%
G36*
G01*
X10556473Y-2095296D02*
X10606723Y-2095296D01*
G75*
G02*
X10629348Y-2117921I0J-22625D01*
G01*
X10629348Y-2163171D01*
G75*
G02*
X10606723Y-2185796I-22625J0D01*
G01*
X10556473Y-2185796D01*
G75*
G02*
X10533848Y-2163171I0J22625D01*
G01*
X10533848Y-2117921D01*
G75*
G02*
X10556473Y-2095296I22625J0D01*
G01*
G37*
G36*
G01*
X10556473Y-2250296D02*
X10606723Y-2250296D01*
G75*
G02*
X10629348Y-2272921I0J-22625D01*
G01*
X10629348Y-2318171D01*
G75*
G02*
X10606723Y-2340796I-22625J0D01*
G01*
X10556473Y-2340796D01*
G75*
G02*
X10533848Y-2318171I0J22625D01*
G01*
X10533848Y-2272921D01*
G75*
G02*
X10556473Y-2250296I22625J0D01*
G01*
G37*
%TD*%
%TO.C,C23*%
G36*
G01*
X6433498Y-2326887D02*
X6433498Y-2422137D01*
G75*
G02*
X6408373Y-2447262I-25125J0D01*
G01*
X6358123Y-2447262D01*
G75*
G02*
X6332998Y-2422137I0J25125D01*
G01*
X6332998Y-2326887D01*
G75*
G02*
X6358123Y-2301762I25125J0D01*
G01*
X6408373Y-2301762D01*
G75*
G02*
X6433498Y-2326887I0J-25125D01*
G01*
G37*
G36*
G01*
X6623498Y-2326887D02*
X6623498Y-2422137D01*
G75*
G02*
X6598373Y-2447262I-25125J0D01*
G01*
X6548123Y-2447262D01*
G75*
G02*
X6522998Y-2422137I0J25125D01*
G01*
X6522998Y-2326887D01*
G75*
G02*
X6548123Y-2301762I25125J0D01*
G01*
X6598373Y-2301762D01*
G75*
G02*
X6623498Y-2326887I0J-25125D01*
G01*
G37*
%TD*%
%TO.C,C22*%
G36*
G01*
X8659477Y-221312D02*
X8564227Y-221312D01*
G75*
G02*
X8539102Y-196187I0J25125D01*
G01*
X8539102Y-145937D01*
G75*
G02*
X8564227Y-120812I25125J0D01*
G01*
X8659477Y-120812D01*
G75*
G02*
X8684602Y-145937I0J-25125D01*
G01*
X8684602Y-196187D01*
G75*
G02*
X8659477Y-221312I-25125J0D01*
G01*
G37*
G36*
G01*
X8659477Y-411312D02*
X8564227Y-411312D01*
G75*
G02*
X8539102Y-386187I0J25125D01*
G01*
X8539102Y-335937D01*
G75*
G02*
X8564227Y-310812I25125J0D01*
G01*
X8659477Y-310812D01*
G75*
G02*
X8684602Y-335937I0J-25125D01*
G01*
X8684602Y-386187D01*
G75*
G02*
X8659477Y-411312I-25125J0D01*
G01*
G37*
%TD*%
%TO.C,C21*%
G36*
G01*
X8870297Y-221312D02*
X8775047Y-221312D01*
G75*
G02*
X8749922Y-196187I0J25125D01*
G01*
X8749922Y-145937D01*
G75*
G02*
X8775047Y-120812I25125J0D01*
G01*
X8870297Y-120812D01*
G75*
G02*
X8895422Y-145937I0J-25125D01*
G01*
X8895422Y-196187D01*
G75*
G02*
X8870297Y-221312I-25125J0D01*
G01*
G37*
G36*
G01*
X8870297Y-411312D02*
X8775047Y-411312D01*
G75*
G02*
X8749922Y-386187I0J25125D01*
G01*
X8749922Y-335937D01*
G75*
G02*
X8775047Y-310812I25125J0D01*
G01*
X8870297Y-310812D01*
G75*
G02*
X8895422Y-335937I0J-25125D01*
G01*
X8895422Y-386187D01*
G75*
G02*
X8870297Y-411312I-25125J0D01*
G01*
G37*
%TD*%
%TO.C,C20*%
G36*
G01*
X7661870Y-1194195D02*
X7661870Y-1244445D01*
G75*
G02*
X7639245Y-1267070I-22625J0D01*
G01*
X7593995Y-1267070D01*
G75*
G02*
X7571370Y-1244445I0J22625D01*
G01*
X7571370Y-1194195D01*
G75*
G02*
X7593995Y-1171570I22625J0D01*
G01*
X7639245Y-1171570D01*
G75*
G02*
X7661870Y-1194195I0J-22625D01*
G01*
G37*
G36*
G01*
X7816870Y-1194195D02*
X7816870Y-1244445D01*
G75*
G02*
X7794245Y-1267070I-22625J0D01*
G01*
X7748995Y-1267070D01*
G75*
G02*
X7726370Y-1244445I0J22625D01*
G01*
X7726370Y-1194195D01*
G75*
G02*
X7748995Y-1171570I22625J0D01*
G01*
X7794245Y-1171570D01*
G75*
G02*
X7816870Y-1194195I0J-22625D01*
G01*
G37*
%TD*%
%TO.C,C19*%
G36*
G01*
X7661870Y-1351252D02*
X7661870Y-1401502D01*
G75*
G02*
X7639245Y-1424127I-22625J0D01*
G01*
X7593995Y-1424127D01*
G75*
G02*
X7571370Y-1401502I0J22625D01*
G01*
X7571370Y-1351252D01*
G75*
G02*
X7593995Y-1328627I22625J0D01*
G01*
X7639245Y-1328627D01*
G75*
G02*
X7661870Y-1351252I0J-22625D01*
G01*
G37*
G36*
G01*
X7816870Y-1351252D02*
X7816870Y-1401502D01*
G75*
G02*
X7794245Y-1424127I-22625J0D01*
G01*
X7748995Y-1424127D01*
G75*
G02*
X7726370Y-1401502I0J22625D01*
G01*
X7726370Y-1351252D01*
G75*
G02*
X7748995Y-1328627I22625J0D01*
G01*
X7794245Y-1328627D01*
G75*
G02*
X7816870Y-1351252I0J-22625D01*
G01*
G37*
%TD*%
%TO.C,C18*%
G36*
G01*
X8118800Y-1843885D02*
X8118800Y-1793635D01*
G75*
G02*
X8141425Y-1771010I22625J0D01*
G01*
X8186675Y-1771010D01*
G75*
G02*
X8209300Y-1793635I0J-22625D01*
G01*
X8209300Y-1843885D01*
G75*
G02*
X8186675Y-1866510I-22625J0D01*
G01*
X8141425Y-1866510D01*
G75*
G02*
X8118800Y-1843885I0J22625D01*
G01*
G37*
G36*
G01*
X7963800Y-1843885D02*
X7963800Y-1793635D01*
G75*
G02*
X7986425Y-1771010I22625J0D01*
G01*
X8031675Y-1771010D01*
G75*
G02*
X8054300Y-1793635I0J-22625D01*
G01*
X8054300Y-1843885D01*
G75*
G02*
X8031675Y-1866510I-22625J0D01*
G01*
X7986425Y-1866510D01*
G75*
G02*
X7963800Y-1843885I0J22625D01*
G01*
G37*
%TD*%
%TO.C,C17*%
G36*
G01*
X7725150Y-1609879D02*
X7725150Y-1660129D01*
G75*
G02*
X7702525Y-1682754I-22625J0D01*
G01*
X7657275Y-1682754D01*
G75*
G02*
X7634650Y-1660129I0J22625D01*
G01*
X7634650Y-1609879D01*
G75*
G02*
X7657275Y-1587254I22625J0D01*
G01*
X7702525Y-1587254D01*
G75*
G02*
X7725150Y-1609879I0J-22625D01*
G01*
G37*
G36*
G01*
X7880150Y-1609879D02*
X7880150Y-1660129D01*
G75*
G02*
X7857525Y-1682754I-22625J0D01*
G01*
X7812275Y-1682754D01*
G75*
G02*
X7789650Y-1660129I0J22625D01*
G01*
X7789650Y-1609879D01*
G75*
G02*
X7812275Y-1587254I22625J0D01*
G01*
X7857525Y-1587254D01*
G75*
G02*
X7880150Y-1609879I0J-22625D01*
G01*
G37*
%TD*%
%TO.C,C16*%
G36*
G01*
X11264223Y-1620346D02*
X11168973Y-1620346D01*
G75*
G02*
X11143848Y-1595221I0J25125D01*
G01*
X11143848Y-1544971D01*
G75*
G02*
X11168973Y-1519846I25125J0D01*
G01*
X11264223Y-1519846D01*
G75*
G02*
X11289348Y-1544971I0J-25125D01*
G01*
X11289348Y-1595221D01*
G75*
G02*
X11264223Y-1620346I-25125J0D01*
G01*
G37*
G36*
G01*
X11264223Y-1430346D02*
X11168973Y-1430346D01*
G75*
G02*
X11143848Y-1405221I0J25125D01*
G01*
X11143848Y-1354971D01*
G75*
G02*
X11168973Y-1329846I25125J0D01*
G01*
X11264223Y-1329846D01*
G75*
G02*
X11289348Y-1354971I0J-25125D01*
G01*
X11289348Y-1405221D01*
G75*
G02*
X11264223Y-1430346I-25125J0D01*
G01*
G37*
%TD*%
%TO.C,C15*%
G36*
G01*
X11140673Y-2052146D02*
X11190923Y-2052146D01*
G75*
G02*
X11213548Y-2074771I0J-22625D01*
G01*
X11213548Y-2120021D01*
G75*
G02*
X11190923Y-2142646I-22625J0D01*
G01*
X11140673Y-2142646D01*
G75*
G02*
X11118048Y-2120021I0J22625D01*
G01*
X11118048Y-2074771D01*
G75*
G02*
X11140673Y-2052146I22625J0D01*
G01*
G37*
G36*
G01*
X11140673Y-2207146D02*
X11190923Y-2207146D01*
G75*
G02*
X11213548Y-2229771I0J-22625D01*
G01*
X11213548Y-2275021D01*
G75*
G02*
X11190923Y-2297646I-22625J0D01*
G01*
X11140673Y-2297646D01*
G75*
G02*
X11118048Y-2275021I0J22625D01*
G01*
X11118048Y-2229771D01*
G75*
G02*
X11140673Y-2207146I22625J0D01*
G01*
G37*
%TD*%
%TO.C,C14*%
G36*
G01*
X11302323Y-2053746D02*
X11397573Y-2053746D01*
G75*
G02*
X11422698Y-2078871I0J-25125D01*
G01*
X11422698Y-2129121D01*
G75*
G02*
X11397573Y-2154246I-25125J0D01*
G01*
X11302323Y-2154246D01*
G75*
G02*
X11277198Y-2129121I0J25125D01*
G01*
X11277198Y-2078871D01*
G75*
G02*
X11302323Y-2053746I25125J0D01*
G01*
G37*
G36*
G01*
X11302323Y-2243746D02*
X11397573Y-2243746D01*
G75*
G02*
X11422698Y-2268871I0J-25125D01*
G01*
X11422698Y-2319121D01*
G75*
G02*
X11397573Y-2344246I-25125J0D01*
G01*
X11302323Y-2344246D01*
G75*
G02*
X11277198Y-2319121I0J25125D01*
G01*
X11277198Y-2268871D01*
G75*
G02*
X11302323Y-2243746I25125J0D01*
G01*
G37*
%TD*%
%TO.C,C12*%
G36*
G01*
X10183093Y-2003886D02*
X10233343Y-2003886D01*
G75*
G02*
X10255968Y-2026511I0J-22625D01*
G01*
X10255968Y-2071761D01*
G75*
G02*
X10233343Y-2094386I-22625J0D01*
G01*
X10183093Y-2094386D01*
G75*
G02*
X10160468Y-2071761I0J22625D01*
G01*
X10160468Y-2026511D01*
G75*
G02*
X10183093Y-2003886I22625J0D01*
G01*
G37*
G36*
G01*
X10183093Y-1848886D02*
X10233343Y-1848886D01*
G75*
G02*
X10255968Y-1871511I0J-22625D01*
G01*
X10255968Y-1916761D01*
G75*
G02*
X10233343Y-1939386I-22625J0D01*
G01*
X10183093Y-1939386D01*
G75*
G02*
X10160468Y-1916761I0J22625D01*
G01*
X10160468Y-1871511D01*
G75*
G02*
X10183093Y-1848886I22625J0D01*
G01*
G37*
%TD*%
%TO.C,C11*%
G36*
G01*
X10480993Y-1430206D02*
X10430743Y-1430206D01*
G75*
G02*
X10408118Y-1407581I0J22625D01*
G01*
X10408118Y-1362331D01*
G75*
G02*
X10430743Y-1339706I22625J0D01*
G01*
X10480993Y-1339706D01*
G75*
G02*
X10503618Y-1362331I0J-22625D01*
G01*
X10503618Y-1407581D01*
G75*
G02*
X10480993Y-1430206I-22625J0D01*
G01*
G37*
G36*
G01*
X10480993Y-1275206D02*
X10430743Y-1275206D01*
G75*
G02*
X10408118Y-1252581I0J22625D01*
G01*
X10408118Y-1207331D01*
G75*
G02*
X10430743Y-1184706I22625J0D01*
G01*
X10480993Y-1184706D01*
G75*
G02*
X10503618Y-1207331I0J-22625D01*
G01*
X10503618Y-1252581D01*
G75*
G02*
X10480993Y-1275206I-22625J0D01*
G01*
G37*
%TD*%
%TO.C,C10*%
G36*
G01*
X10688913Y-1427556D02*
X10593663Y-1427556D01*
G75*
G02*
X10568538Y-1402431I0J25125D01*
G01*
X10568538Y-1352181D01*
G75*
G02*
X10593663Y-1327056I25125J0D01*
G01*
X10688913Y-1327056D01*
G75*
G02*
X10714038Y-1352181I0J-25125D01*
G01*
X10714038Y-1402431D01*
G75*
G02*
X10688913Y-1427556I-25125J0D01*
G01*
G37*
G36*
G01*
X10688913Y-1237556D02*
X10593663Y-1237556D01*
G75*
G02*
X10568538Y-1212431I0J25125D01*
G01*
X10568538Y-1162181D01*
G75*
G02*
X10593663Y-1137056I25125J0D01*
G01*
X10688913Y-1137056D01*
G75*
G02*
X10714038Y-1162181I0J-25125D01*
G01*
X10714038Y-1212431D01*
G75*
G02*
X10688913Y-1237556I-25125J0D01*
G01*
G37*
%TD*%
%TO.C,C9*%
G36*
G01*
X6849054Y-2407765D02*
X6849054Y-2357515D01*
G75*
G02*
X6871679Y-2334890I22625J0D01*
G01*
X6916929Y-2334890D01*
G75*
G02*
X6939554Y-2357515I0J-22625D01*
G01*
X6939554Y-2407765D01*
G75*
G02*
X6916929Y-2430390I-22625J0D01*
G01*
X6871679Y-2430390D01*
G75*
G02*
X6849054Y-2407765I0J22625D01*
G01*
G37*
G36*
G01*
X6694054Y-2407765D02*
X6694054Y-2357515D01*
G75*
G02*
X6716679Y-2334890I22625J0D01*
G01*
X6761929Y-2334890D01*
G75*
G02*
X6784554Y-2357515I0J-22625D01*
G01*
X6784554Y-2407765D01*
G75*
G02*
X6761929Y-2430390I-22625J0D01*
G01*
X6716679Y-2430390D01*
G75*
G02*
X6694054Y-2407765I0J22625D01*
G01*
G37*
%TD*%
%TO.C,C8*%
G36*
G01*
X10337123Y-2091846D02*
X10432373Y-2091846D01*
G75*
G02*
X10457498Y-2116971I0J-25125D01*
G01*
X10457498Y-2167221D01*
G75*
G02*
X10432373Y-2192346I-25125J0D01*
G01*
X10337123Y-2192346D01*
G75*
G02*
X10311998Y-2167221I0J25125D01*
G01*
X10311998Y-2116971D01*
G75*
G02*
X10337123Y-2091846I25125J0D01*
G01*
G37*
G36*
G01*
X10337123Y-2281846D02*
X10432373Y-2281846D01*
G75*
G02*
X10457498Y-2306971I0J-25125D01*
G01*
X10457498Y-2357221D01*
G75*
G02*
X10432373Y-2382346I-25125J0D01*
G01*
X10337123Y-2382346D01*
G75*
G02*
X10311998Y-2357221I0J25125D01*
G01*
X10311998Y-2306971D01*
G75*
G02*
X10337123Y-2281846I25125J0D01*
G01*
G37*
%TD*%
%TO.C,C6*%
G36*
G01*
X12544023Y-665306D02*
X12594273Y-665306D01*
G75*
G02*
X12616898Y-687931I0J-22625D01*
G01*
X12616898Y-733181D01*
G75*
G02*
X12594273Y-755806I-22625J0D01*
G01*
X12544023Y-755806D01*
G75*
G02*
X12521398Y-733181I0J22625D01*
G01*
X12521398Y-687931D01*
G75*
G02*
X12544023Y-665306I22625J0D01*
G01*
G37*
G36*
G01*
X12544023Y-820306D02*
X12594273Y-820306D01*
G75*
G02*
X12616898Y-842931I0J-22625D01*
G01*
X12616898Y-888181D01*
G75*
G02*
X12594273Y-910806I-22625J0D01*
G01*
X12544023Y-910806D01*
G75*
G02*
X12521398Y-888181I0J22625D01*
G01*
X12521398Y-842931D01*
G75*
G02*
X12544023Y-820306I22625J0D01*
G01*
G37*
%TD*%
%TO.C,C4*%
G36*
G01*
X10181823Y-1692736D02*
X10232073Y-1692736D01*
G75*
G02*
X10254698Y-1715361I0J-22625D01*
G01*
X10254698Y-1760611D01*
G75*
G02*
X10232073Y-1783236I-22625J0D01*
G01*
X10181823Y-1783236D01*
G75*
G02*
X10159198Y-1760611I0J22625D01*
G01*
X10159198Y-1715361D01*
G75*
G02*
X10181823Y-1692736I22625J0D01*
G01*
G37*
G36*
G01*
X10181823Y-1537736D02*
X10232073Y-1537736D01*
G75*
G02*
X10254698Y-1560361I0J-22625D01*
G01*
X10254698Y-1605611D01*
G75*
G02*
X10232073Y-1628236I-22625J0D01*
G01*
X10181823Y-1628236D01*
G75*
G02*
X10159198Y-1605611I0J22625D01*
G01*
X10159198Y-1560361D01*
G75*
G02*
X10181823Y-1537736I22625J0D01*
G01*
G37*
%TD*%
%TO.C,C3*%
G36*
G01*
X10230803Y-2242976D02*
X10180553Y-2242976D01*
G75*
G02*
X10157928Y-2220351I0J22625D01*
G01*
X10157928Y-2175101D01*
G75*
G02*
X10180553Y-2152476I22625J0D01*
G01*
X10230803Y-2152476D01*
G75*
G02*
X10253428Y-2175101I0J-22625D01*
G01*
X10253428Y-2220351D01*
G75*
G02*
X10230803Y-2242976I-22625J0D01*
G01*
G37*
G36*
G01*
X10230803Y-2397976D02*
X10180553Y-2397976D01*
G75*
G02*
X10157928Y-2375351I0J22625D01*
G01*
X10157928Y-2330101D01*
G75*
G02*
X10180553Y-2307476I22625J0D01*
G01*
X10230803Y-2307476D01*
G75*
G02*
X10253428Y-2330101I0J-22625D01*
G01*
X10253428Y-2375351D01*
G75*
G02*
X10230803Y-2397976I-22625J0D01*
G01*
G37*
%TD*%
%TO.C,J5*%
G36*
G01*
X6591720Y-1845080D02*
X6341720Y-1845080D01*
G75*
G02*
X6341470Y-1844830I0J250D01*
G01*
X6341470Y-1794830D01*
G75*
G02*
X6341720Y-1794580I250J0D01*
G01*
X6591720Y-1794580D01*
G75*
G02*
X6591970Y-1794830I0J-250D01*
G01*
X6591970Y-1844830D01*
G75*
G02*
X6591720Y-1845080I-250J0D01*
G01*
G37*
G36*
G01*
X6591720Y-1765080D02*
X6341720Y-1765080D01*
G75*
G02*
X6341470Y-1764830I0J250D01*
G01*
X6341470Y-1714830D01*
G75*
G02*
X6341720Y-1714580I250J0D01*
G01*
X6591720Y-1714580D01*
G75*
G02*
X6591970Y-1714830I0J-250D01*
G01*
X6591970Y-1764830D01*
G75*
G02*
X6591720Y-1765080I-250J0D01*
G01*
G37*
G36*
G01*
X6591720Y-1685080D02*
X6341720Y-1685080D01*
G75*
G02*
X6341470Y-1684830I0J250D01*
G01*
X6341470Y-1634830D01*
G75*
G02*
X6341720Y-1634580I250J0D01*
G01*
X6591720Y-1634580D01*
G75*
G02*
X6591970Y-1634830I0J-250D01*
G01*
X6591970Y-1684830D01*
G75*
G02*
X6591720Y-1685080I-250J0D01*
G01*
G37*
G36*
G01*
X6591720Y-1605080D02*
X6341720Y-1605080D01*
G75*
G02*
X6341470Y-1604830I0J250D01*
G01*
X6341470Y-1554830D01*
G75*
G02*
X6341720Y-1554580I250J0D01*
G01*
X6591720Y-1554580D01*
G75*
G02*
X6591970Y-1554830I0J-250D01*
G01*
X6591970Y-1604830D01*
G75*
G02*
X6591720Y-1605080I-250J0D01*
G01*
G37*
G36*
G01*
X6591720Y-1525080D02*
X6341720Y-1525080D01*
G75*
G02*
X6341470Y-1524830I0J250D01*
G01*
X6341470Y-1474830D01*
G75*
G02*
X6341720Y-1474580I250J0D01*
G01*
X6591720Y-1474580D01*
G75*
G02*
X6591970Y-1474830I0J-250D01*
G01*
X6591970Y-1524830D01*
G75*
G02*
X6591720Y-1525080I-250J0D01*
G01*
G37*
G36*
G01*
X6591720Y-2206080D02*
X6341720Y-2206080D01*
G75*
G02*
X6341470Y-2205830I0J250D01*
G01*
X6341470Y-2005830D01*
G75*
G02*
X6341720Y-2005580I250J0D01*
G01*
X6591720Y-2005580D01*
G75*
G02*
X6591970Y-2005830I0J-250D01*
G01*
X6591970Y-2205830D01*
G75*
G02*
X6591720Y-2206080I-250J0D01*
G01*
G37*
G36*
G01*
X6591720Y-1314080D02*
X6341720Y-1314080D01*
G75*
G02*
X6341470Y-1313830I0J250D01*
G01*
X6341470Y-1113830D01*
G75*
G02*
X6341720Y-1113580I250J0D01*
G01*
X6591720Y-1113580D01*
G75*
G02*
X6591970Y-1113830I0J-250D01*
G01*
X6591970Y-1313830D01*
G75*
G02*
X6591720Y-1314080I-250J0D01*
G01*
G37*
D13*
X6215720Y-1879830D03*
X6215720Y-1439830D03*
G36*
G01*
X6043720Y-2206080D02*
X5793720Y-2206080D01*
G75*
G02*
X5793470Y-2205830I0J250D01*
G01*
X5793470Y-2005830D01*
G75*
G02*
X5793720Y-2005580I250J0D01*
G01*
X6043720Y-2005580D01*
G75*
G02*
X6043970Y-2005830I0J-250D01*
G01*
X6043970Y-2205830D01*
G75*
G02*
X6043720Y-2206080I-250J0D01*
G01*
G37*
G36*
G01*
X6043720Y-1314080D02*
X5793720Y-1314080D01*
G75*
G02*
X5793470Y-1313830I0J250D01*
G01*
X5793470Y-1113830D01*
G75*
G02*
X5793720Y-1113580I250J0D01*
G01*
X6043720Y-1113580D01*
G75*
G02*
X6043970Y-1113830I0J-250D01*
G01*
X6043970Y-1313830D01*
G75*
G02*
X6043720Y-1314080I-250J0D01*
G01*
G37*
%TD*%
%TO.C,SW2*%
G36*
G01*
X12637690Y-441564D02*
X12637690Y-341564D01*
G75*
G02*
X12637940Y-341314I250J0D01*
G01*
X12727940Y-341314D01*
G75*
G02*
X12728190Y-341564I0J-250D01*
G01*
X12728190Y-441564D01*
G75*
G02*
X12727940Y-441814I-250J0D01*
G01*
X12637940Y-441814D01*
G75*
G02*
X12637690Y-441564I0J250D01*
G01*
G37*
G36*
G01*
X12318190Y-341564D02*
X12318190Y-441564D01*
G75*
G02*
X12317940Y-441814I-250J0D01*
G01*
X12227940Y-441814D01*
G75*
G02*
X12227690Y-441564I0J250D01*
G01*
X12227690Y-341564D01*
G75*
G02*
X12227940Y-341314I250J0D01*
G01*
X12317940Y-341314D01*
G75*
G02*
X12318190Y-341564I0J-250D01*
G01*
G37*
G36*
G01*
X12318190Y-178464D02*
X12318190Y-278464D01*
G75*
G02*
X12317940Y-278714I-250J0D01*
G01*
X12227940Y-278714D01*
G75*
G02*
X12227690Y-278464I0J250D01*
G01*
X12227690Y-178464D01*
G75*
G02*
X12227940Y-178214I250J0D01*
G01*
X12317940Y-178214D01*
G75*
G02*
X12318190Y-178464I0J-250D01*
G01*
G37*
G36*
G01*
X12728190Y-178464D02*
X12728190Y-278464D01*
G75*
G02*
X12727940Y-278714I-250J0D01*
G01*
X12637940Y-278714D01*
G75*
G02*
X12637690Y-278464I0J250D01*
G01*
X12637690Y-178464D01*
G75*
G02*
X12637940Y-178214I250J0D01*
G01*
X12727940Y-178214D01*
G75*
G02*
X12728190Y-178464I0J-250D01*
G01*
G37*
%TD*%
M02*
