%TF.GenerationSoftware,KiCad,Pcbnew,(5.1.8)-1*%
%TF.CreationDate,2021-06-20T20:47:25+01:00*%
%TF.ProjectId,schem_1,73636865-6d5f-4312-9e6b-696361645f70,rev?*%
%TF.SameCoordinates,Original*%
%TF.FileFunction,Legend,Top*%
%TF.FilePolarity,Positive*%
%FSLAX45Y45*%
G04 Gerber Fmt 4.5, Leading zero omitted, Abs format (unit mm)*
G04 Created by KiCad (PCBNEW (5.1.8)-1) date 2021-06-20 20:47:25*
%MOMM*%
%LPD*%
G01*
G04 APERTURE LIST*
%ADD10C,0.100000*%
%ADD11C,0.120000*%
%ADD12C,0.150000*%
G04 APERTURE END LIST*
D10*
X7416478Y-1822926D02*
X7435526Y-1822926D01*
X7445049Y-1827688D01*
X7454573Y-1837212D01*
X7459335Y-1856259D01*
X7459335Y-1889593D01*
X7454573Y-1908640D01*
X7445049Y-1918164D01*
X7435526Y-1922926D01*
X7416478Y-1922926D01*
X7406954Y-1918164D01*
X7397430Y-1908640D01*
X7392668Y-1889593D01*
X7392668Y-1856259D01*
X7397430Y-1837212D01*
X7406954Y-1827688D01*
X7416478Y-1822926D01*
X7502192Y-1922926D02*
X7502192Y-1822926D01*
X7559335Y-1922926D02*
X7516478Y-1865783D01*
X7559335Y-1822926D02*
X7502192Y-1880069D01*
X8326536Y-1884831D02*
X8402726Y-1884831D01*
X8450346Y-1856259D02*
X8526536Y-1884831D01*
X8450346Y-1913402D01*
X6531658Y-1856259D02*
X6455468Y-1884831D01*
X6531658Y-1913402D01*
X6579277Y-1884831D02*
X6655468Y-1884831D01*
X7946621Y186798D02*
X7913288Y234417D01*
X7889478Y186798D02*
X7889478Y286798D01*
X7927574Y286798D01*
X7937097Y282036D01*
X7941859Y277274D01*
X7946621Y267750D01*
X7946621Y253464D01*
X7941859Y243941D01*
X7937097Y239179D01*
X7927574Y234417D01*
X7889478Y234417D01*
X7989478Y239179D02*
X8022812Y239179D01*
X8037097Y186798D02*
X7989478Y186798D01*
X7989478Y286798D01*
X8037097Y286798D01*
X8137097Y196322D02*
X8132336Y191560D01*
X8118050Y186798D01*
X8108526Y186798D01*
X8094240Y191560D01*
X8084716Y201084D01*
X8079955Y210607D01*
X8075193Y229655D01*
X8075193Y243941D01*
X8079955Y262988D01*
X8084716Y272512D01*
X8094240Y282036D01*
X8108526Y286798D01*
X8118050Y286798D01*
X8132336Y282036D01*
X8137097Y277274D01*
X8199002Y286798D02*
X8218050Y286798D01*
X8227574Y282036D01*
X8237097Y272512D01*
X8241859Y253464D01*
X8241859Y220131D01*
X8237097Y201084D01*
X8227574Y191560D01*
X8218050Y186798D01*
X8199002Y186798D01*
X8189478Y191560D01*
X8179955Y201084D01*
X8175193Y220131D01*
X8175193Y253464D01*
X8179955Y272512D01*
X8189478Y282036D01*
X8199002Y286798D01*
X8341859Y186798D02*
X8308526Y234417D01*
X8284716Y186798D02*
X8284716Y286798D01*
X8322812Y286798D01*
X8332336Y282036D01*
X8337097Y277274D01*
X8341859Y267750D01*
X8341859Y253464D01*
X8337097Y243941D01*
X8332336Y239179D01*
X8322812Y234417D01*
X8284716Y234417D01*
X8384716Y186798D02*
X8384716Y286798D01*
X8408526Y286798D01*
X8422812Y282036D01*
X8432336Y272512D01*
X8437098Y262988D01*
X8441859Y243941D01*
X8441859Y229655D01*
X8437098Y210607D01*
X8432336Y201084D01*
X8422812Y191560D01*
X8408526Y186798D01*
X8384716Y186798D01*
X6655815Y183750D02*
X6655815Y283750D01*
X6693910Y283750D01*
X6703434Y278988D01*
X6708196Y274226D01*
X6712957Y264702D01*
X6712957Y250416D01*
X6708196Y240893D01*
X6703434Y236131D01*
X6693910Y231369D01*
X6655815Y231369D01*
X6746291Y283750D02*
X6770100Y183750D01*
X6789148Y255178D01*
X6808196Y183750D01*
X6832005Y283750D01*
X6927243Y183750D02*
X6893910Y231369D01*
X6870100Y183750D02*
X6870100Y283750D01*
X6908196Y283750D01*
X6917719Y278988D01*
X6922481Y274226D01*
X6927243Y264702D01*
X6927243Y250416D01*
X6922481Y240893D01*
X6917719Y236131D01*
X6908196Y231369D01*
X6870100Y231369D01*
%TO.C,mouse-bite-2mm-slot*%
X9396788Y-2845720D02*
G75*
G03*
X9196788Y-2845720I-100000J0D01*
G01*
X9196788Y-2445720D02*
G75*
G03*
X9396788Y-2445720I100000J0D01*
G01*
X9196788Y-1645720D02*
G75*
G03*
X9396788Y-1645720I100000J0D01*
G01*
X9396788Y-2045720D02*
G75*
G03*
X9196788Y-2045720I-100000J0D01*
G01*
X9396788Y-445720D02*
G75*
G03*
X9196788Y-445720I-100000J0D01*
G01*
X9196788Y-45720D02*
G75*
G03*
X9396788Y-45720I100000J0D01*
G01*
X9196788Y-845720D02*
G75*
G03*
X9396788Y-845720I100000J0D01*
G01*
X9396788Y-1245720D02*
G75*
G03*
X9196788Y-1245720I-100000J0D01*
G01*
D11*
%TO.C,U1*%
X12038148Y102712D02*
X10234748Y102712D01*
X12038148Y-3039096D02*
X12038148Y102712D01*
X10234748Y-2500788D02*
X10234748Y102712D01*
X12038148Y-3039096D02*
X10233748Y-3039096D01*
X10234748Y-2408546D02*
X10233748Y-3039096D01*
%TO.C,U7*%
X9014180Y-1568300D02*
X8768180Y-1568300D01*
X5964180Y-1568300D02*
X5964180Y-1444300D01*
X9014180Y-1568300D02*
X9014180Y-1452300D01*
X9014180Y-398300D02*
X8766180Y-398300D01*
X5964180Y-398300D02*
X5964180Y-522300D01*
X5964180Y-1568300D02*
X6210180Y-1568300D01*
X5964180Y-398300D02*
X6212180Y-398300D01*
X9014180Y-398300D02*
X9014180Y-514300D01*
%TO.C,J1*%
X9572548Y-2034846D02*
X9572548Y-2074846D01*
X9612548Y-2054846D02*
X9572548Y-2034846D01*
X9572548Y-2074846D02*
X9612548Y-2054846D01*
X9831548Y-597346D02*
X9891548Y-597346D01*
X9831548Y-608346D02*
X9831548Y-597346D01*
X9831548Y-2362346D02*
X9891548Y-2362346D01*
X9831548Y-2351346D02*
X9831548Y-2362346D01*
%TO.C,R27*%
X12357924Y-1333036D02*
X12310472Y-1333036D01*
X12357924Y-1228536D02*
X12310472Y-1228536D01*
%TO.C,R7*%
X9883552Y-364936D02*
X9931004Y-364936D01*
X9883552Y-469436D02*
X9931004Y-469436D01*
%TO.C,R6*%
X9622374Y-303066D02*
X9574922Y-303066D01*
X9622374Y-198566D02*
X9574922Y-198566D01*
%TO.C,R3*%
X12310472Y-971996D02*
X12357924Y-971996D01*
X12310472Y-1076496D02*
X12357924Y-1076496D01*
%TO.C,R1*%
X12310422Y-819596D02*
X12357874Y-819596D01*
X12310422Y-924096D02*
X12357874Y-924096D01*
%TO.C,D4*%
X8274480Y137790D02*
X8005980Y137790D01*
X8005980Y137790D02*
X8005980Y-54210D01*
X8005980Y-54210D02*
X8274480Y-54210D01*
%TO.C,D3*%
X6902570Y137790D02*
X6634070Y137790D01*
X6634070Y137790D02*
X6634070Y-54210D01*
X6634070Y-54210D02*
X6902570Y-54210D01*
%TO.C,C26*%
X12514873Y-2210088D02*
X12514873Y-2238204D01*
X12412873Y-2210088D02*
X12412873Y-2238204D01*
%TO.C,C25*%
X12345698Y-2210088D02*
X12345698Y-2238204D01*
X12243698Y-2210088D02*
X12243698Y-2238204D01*
%TO.C,C5*%
X9612646Y-469456D02*
X9584530Y-469456D01*
X9612646Y-367456D02*
X9584530Y-367456D01*
%TO.C,C1*%
X12359123Y-1890546D02*
X12411373Y-1890546D01*
X12359123Y-2037546D02*
X12411373Y-2037546D01*
%TO.C,U1*%
D12*
X12158386Y-231586D02*
X12239338Y-231586D01*
X12248862Y-226824D01*
X12253624Y-222063D01*
X12258386Y-212539D01*
X12258386Y-193491D01*
X12253624Y-183967D01*
X12248862Y-179205D01*
X12239338Y-174444D01*
X12158386Y-174444D01*
X12258386Y-74444D02*
X12258386Y-131586D01*
X12258386Y-103015D02*
X12158386Y-103015D01*
X12172672Y-112539D01*
X12182196Y-122063D01*
X12186957Y-131586D01*
%TO.C,U7*%
X8824440Y-256138D02*
X8824440Y-337090D01*
X8829201Y-346614D01*
X8833963Y-351376D01*
X8843487Y-356138D01*
X8862535Y-356138D01*
X8872059Y-351376D01*
X8876820Y-346614D01*
X8881582Y-337090D01*
X8881582Y-256138D01*
X8919678Y-256138D02*
X8986344Y-256138D01*
X8943487Y-356138D01*
%TO.C,J1*%
X9705747Y-2383756D02*
X9705747Y-2455185D01*
X9700985Y-2469470D01*
X9691461Y-2478994D01*
X9677175Y-2483756D01*
X9667651Y-2483756D01*
X9805747Y-2483756D02*
X9748604Y-2483756D01*
X9777175Y-2483756D02*
X9777175Y-2383756D01*
X9767651Y-2398042D01*
X9758128Y-2407566D01*
X9748604Y-2412328D01*
%TO.C,R27*%
X12605242Y-1340500D02*
X12557623Y-1373833D01*
X12605242Y-1397643D02*
X12505242Y-1397643D01*
X12505242Y-1359547D01*
X12510004Y-1350024D01*
X12514766Y-1345262D01*
X12524290Y-1340500D01*
X12538575Y-1340500D01*
X12548099Y-1345262D01*
X12552861Y-1350024D01*
X12557623Y-1359547D01*
X12557623Y-1397643D01*
X12514766Y-1302404D02*
X12510004Y-1297643D01*
X12505242Y-1288119D01*
X12505242Y-1264309D01*
X12510004Y-1254785D01*
X12514766Y-1250024D01*
X12524290Y-1245262D01*
X12533813Y-1245262D01*
X12548099Y-1250024D01*
X12605242Y-1307166D01*
X12605242Y-1245262D01*
X12505242Y-1211928D02*
X12505242Y-1145262D01*
X12605242Y-1188119D01*
%TO.C,R7*%
X9900721Y-331868D02*
X9867388Y-284249D01*
X9843578Y-331868D02*
X9843578Y-231868D01*
X9881674Y-231868D01*
X9891198Y-236630D01*
X9895959Y-241392D01*
X9900721Y-250916D01*
X9900721Y-265201D01*
X9895959Y-274725D01*
X9891198Y-279487D01*
X9881674Y-284249D01*
X9843578Y-284249D01*
X9934055Y-231868D02*
X10000721Y-231868D01*
X9957864Y-331868D01*
%TO.C,R6*%
X9546645Y-166768D02*
X9513312Y-119149D01*
X9489502Y-166768D02*
X9489502Y-66768D01*
X9527598Y-66768D01*
X9537122Y-71530D01*
X9541883Y-76292D01*
X9546645Y-85816D01*
X9546645Y-100101D01*
X9541883Y-109625D01*
X9537122Y-114387D01*
X9527598Y-119149D01*
X9489502Y-119149D01*
X9632360Y-66768D02*
X9613312Y-66768D01*
X9603788Y-71530D01*
X9599026Y-76292D01*
X9589502Y-90578D01*
X9584741Y-109625D01*
X9584741Y-147720D01*
X9589502Y-157244D01*
X9594264Y-162006D01*
X9603788Y-166768D01*
X9622836Y-166768D01*
X9632360Y-162006D01*
X9637122Y-157244D01*
X9641883Y-147720D01*
X9641883Y-123911D01*
X9637122Y-114387D01*
X9632360Y-109625D01*
X9622836Y-104863D01*
X9603788Y-104863D01*
X9594264Y-109625D01*
X9589502Y-114387D01*
X9584741Y-123911D01*
%TO.C,R3*%
X12544353Y-1077104D02*
X12511020Y-1029485D01*
X12487210Y-1077104D02*
X12487210Y-977104D01*
X12525306Y-977104D01*
X12534829Y-981866D01*
X12539591Y-986628D01*
X12544353Y-996152D01*
X12544353Y-1010437D01*
X12539591Y-1019961D01*
X12534829Y-1024723D01*
X12525306Y-1029485D01*
X12487210Y-1029485D01*
X12577687Y-977104D02*
X12639591Y-977104D01*
X12606258Y-1015199D01*
X12620544Y-1015199D01*
X12630068Y-1019961D01*
X12634829Y-1024723D01*
X12639591Y-1034247D01*
X12639591Y-1058056D01*
X12634829Y-1067580D01*
X12630068Y-1072342D01*
X12620544Y-1077104D01*
X12591972Y-1077104D01*
X12582448Y-1072342D01*
X12577687Y-1067580D01*
%TO.C,R1*%
X12544353Y-925212D02*
X12511020Y-877593D01*
X12487210Y-925212D02*
X12487210Y-825212D01*
X12525306Y-825212D01*
X12534829Y-829974D01*
X12539591Y-834736D01*
X12544353Y-844260D01*
X12544353Y-858545D01*
X12539591Y-868069D01*
X12534829Y-872831D01*
X12525306Y-877593D01*
X12487210Y-877593D01*
X12639591Y-925212D02*
X12582448Y-925212D01*
X12611020Y-925212D02*
X12611020Y-825212D01*
X12601496Y-839498D01*
X12591972Y-849022D01*
X12582448Y-853783D01*
%TO.C,D4*%
X8098622Y-169310D02*
X8098622Y-69310D01*
X8122432Y-69310D01*
X8136718Y-74072D01*
X8146241Y-83596D01*
X8151003Y-93120D01*
X8155765Y-112167D01*
X8155765Y-126453D01*
X8151003Y-145501D01*
X8146241Y-155024D01*
X8136718Y-164548D01*
X8122432Y-169310D01*
X8098622Y-169310D01*
X8241480Y-102643D02*
X8241480Y-169310D01*
X8217670Y-64548D02*
X8193860Y-135977D01*
X8255765Y-135977D01*
%TO.C,D3*%
X6715338Y-199282D02*
X6715338Y-99282D01*
X6739148Y-99282D01*
X6753434Y-104044D01*
X6762957Y-113568D01*
X6767719Y-123092D01*
X6772481Y-142139D01*
X6772481Y-156425D01*
X6767719Y-175472D01*
X6762957Y-184996D01*
X6753434Y-194520D01*
X6739148Y-199282D01*
X6715338Y-199282D01*
X6805815Y-99282D02*
X6867719Y-99282D01*
X6834386Y-137377D01*
X6848672Y-137377D01*
X6858196Y-142139D01*
X6862957Y-146901D01*
X6867719Y-156425D01*
X6867719Y-180234D01*
X6862957Y-189758D01*
X6858196Y-194520D01*
X6848672Y-199282D01*
X6820100Y-199282D01*
X6810576Y-194520D01*
X6805815Y-189758D01*
%TO.C,C26*%
X12498653Y-2573237D02*
X12498653Y-2579971D01*
X12491918Y-2593440D01*
X12485184Y-2600174D01*
X12471715Y-2606908D01*
X12458247Y-2606908D01*
X12448145Y-2603541D01*
X12431309Y-2593440D01*
X12421208Y-2583338D01*
X12411106Y-2566502D01*
X12407739Y-2556401D01*
X12407739Y-2542932D01*
X12414473Y-2529463D01*
X12421208Y-2522729D01*
X12434677Y-2515995D01*
X12441411Y-2515995D01*
X12468348Y-2489057D02*
X12468348Y-2482323D01*
X12471715Y-2472221D01*
X12488551Y-2455386D01*
X12498653Y-2452018D01*
X12505387Y-2452018D01*
X12515489Y-2455386D01*
X12522223Y-2462120D01*
X12528957Y-2475589D01*
X12528957Y-2556401D01*
X12572731Y-2512628D01*
X12562629Y-2381308D02*
X12549160Y-2394776D01*
X12545793Y-2404878D01*
X12545793Y-2411612D01*
X12549160Y-2428448D01*
X12559262Y-2445284D01*
X12586199Y-2472221D01*
X12596301Y-2475589D01*
X12603035Y-2475589D01*
X12613137Y-2472221D01*
X12626606Y-2458753D01*
X12629973Y-2448651D01*
X12629973Y-2441917D01*
X12626606Y-2431815D01*
X12609770Y-2414979D01*
X12599668Y-2411612D01*
X12592934Y-2411612D01*
X12582832Y-2414979D01*
X12569364Y-2428448D01*
X12565996Y-2438550D01*
X12565996Y-2445284D01*
X12569364Y-2455386D01*
%TO.C,C25*%
X12225349Y-2584921D02*
X12225349Y-2591655D01*
X12218614Y-2605124D01*
X12211880Y-2611858D01*
X12198411Y-2618592D01*
X12184943Y-2618592D01*
X12174841Y-2615225D01*
X12158005Y-2605124D01*
X12147904Y-2595022D01*
X12137802Y-2578186D01*
X12134435Y-2568085D01*
X12134435Y-2554616D01*
X12141169Y-2541147D01*
X12147904Y-2534413D01*
X12161373Y-2527679D01*
X12168107Y-2527679D01*
X12195044Y-2500741D02*
X12195044Y-2494007D01*
X12198411Y-2483905D01*
X12215247Y-2467070D01*
X12225349Y-2463702D01*
X12232083Y-2463702D01*
X12242185Y-2467070D01*
X12248919Y-2473804D01*
X12255653Y-2487273D01*
X12255653Y-2568085D01*
X12299427Y-2524312D01*
X12292692Y-2389625D02*
X12259021Y-2423296D01*
X12289325Y-2460335D01*
X12289325Y-2453601D01*
X12292692Y-2443499D01*
X12309528Y-2426663D01*
X12319630Y-2423296D01*
X12326364Y-2423296D01*
X12336466Y-2426663D01*
X12353302Y-2443499D01*
X12356669Y-2453601D01*
X12356669Y-2460335D01*
X12353302Y-2470437D01*
X12336466Y-2487273D01*
X12326364Y-2490640D01*
X12319630Y-2490640D01*
%TO.C,C5*%
D10*
X9572839Y-574281D02*
X9569029Y-578091D01*
X9557601Y-581900D01*
X9549982Y-581900D01*
X9538553Y-578091D01*
X9530934Y-570472D01*
X9527124Y-562853D01*
X9523315Y-547615D01*
X9523315Y-536186D01*
X9527124Y-520948D01*
X9530934Y-513329D01*
X9538553Y-505710D01*
X9549982Y-501900D01*
X9557601Y-501900D01*
X9569029Y-505710D01*
X9572839Y-509519D01*
X9645220Y-501900D02*
X9607124Y-501900D01*
X9603315Y-539996D01*
X9607124Y-536186D01*
X9614743Y-532377D01*
X9633791Y-532377D01*
X9641410Y-536186D01*
X9645220Y-539996D01*
X9649029Y-547615D01*
X9649029Y-566662D01*
X9645220Y-574281D01*
X9641410Y-578091D01*
X9633791Y-581900D01*
X9614743Y-581900D01*
X9607124Y-578091D01*
X9603315Y-574281D01*
%TO.C,C1*%
D12*
X12446817Y-1836692D02*
X12442055Y-1841454D01*
X12427770Y-1846216D01*
X12418246Y-1846216D01*
X12403960Y-1841454D01*
X12394436Y-1831930D01*
X12389674Y-1822406D01*
X12384912Y-1803359D01*
X12384912Y-1789073D01*
X12389674Y-1770026D01*
X12394436Y-1760502D01*
X12403960Y-1750978D01*
X12418246Y-1746216D01*
X12427770Y-1746216D01*
X12442055Y-1750978D01*
X12446817Y-1755740D01*
X12542055Y-1846216D02*
X12484912Y-1846216D01*
X12513484Y-1846216D02*
X12513484Y-1746216D01*
X12503960Y-1760502D01*
X12494436Y-1770026D01*
X12484912Y-1774787D01*
%TO.C,SW4*%
X6443471Y-2440388D02*
X6457756Y-2445150D01*
X6481566Y-2445150D01*
X6491090Y-2440388D01*
X6495852Y-2435626D01*
X6500613Y-2426102D01*
X6500613Y-2416579D01*
X6495852Y-2407055D01*
X6491090Y-2402293D01*
X6481566Y-2397531D01*
X6462518Y-2392769D01*
X6452994Y-2388007D01*
X6448232Y-2383245D01*
X6443471Y-2373722D01*
X6443471Y-2364198D01*
X6448232Y-2354674D01*
X6452994Y-2349912D01*
X6462518Y-2345150D01*
X6486328Y-2345150D01*
X6500613Y-2349912D01*
X6533947Y-2345150D02*
X6557756Y-2445150D01*
X6576804Y-2373722D01*
X6595852Y-2445150D01*
X6619661Y-2345150D01*
X6700613Y-2378483D02*
X6700613Y-2445150D01*
X6676804Y-2340388D02*
X6652994Y-2411817D01*
X6714899Y-2411817D01*
%TO.C,SW5*%
X8237661Y-2440388D02*
X8251946Y-2445150D01*
X8275756Y-2445150D01*
X8285280Y-2440388D01*
X8290042Y-2435626D01*
X8294803Y-2426102D01*
X8294803Y-2416579D01*
X8290042Y-2407055D01*
X8285280Y-2402293D01*
X8275756Y-2397531D01*
X8256708Y-2392769D01*
X8247184Y-2388007D01*
X8242422Y-2383245D01*
X8237661Y-2373722D01*
X8237661Y-2364198D01*
X8242422Y-2354674D01*
X8247184Y-2349912D01*
X8256708Y-2345150D01*
X8280518Y-2345150D01*
X8294803Y-2349912D01*
X8328137Y-2345150D02*
X8351946Y-2445150D01*
X8370994Y-2373722D01*
X8390042Y-2445150D01*
X8413851Y-2345150D01*
X8499565Y-2345150D02*
X8451946Y-2345150D01*
X8447184Y-2392769D01*
X8451946Y-2388007D01*
X8461470Y-2383245D01*
X8485280Y-2383245D01*
X8494804Y-2388007D01*
X8499565Y-2392769D01*
X8504327Y-2402293D01*
X8504327Y-2426102D01*
X8499565Y-2435626D01*
X8494804Y-2440388D01*
X8485280Y-2445150D01*
X8461470Y-2445150D01*
X8451946Y-2440388D01*
X8447184Y-2435626D01*
%TO.C,SW6*%
X7316886Y-2440388D02*
X7331171Y-2445150D01*
X7354981Y-2445150D01*
X7364505Y-2440388D01*
X7369267Y-2435626D01*
X7374028Y-2426102D01*
X7374028Y-2416579D01*
X7369267Y-2407055D01*
X7364505Y-2402293D01*
X7354981Y-2397531D01*
X7335933Y-2392769D01*
X7326409Y-2388007D01*
X7321647Y-2383245D01*
X7316886Y-2373722D01*
X7316886Y-2364198D01*
X7321647Y-2354674D01*
X7326409Y-2349912D01*
X7335933Y-2345150D01*
X7359743Y-2345150D01*
X7374028Y-2349912D01*
X7407362Y-2345150D02*
X7431171Y-2445150D01*
X7450219Y-2373722D01*
X7469267Y-2445150D01*
X7493076Y-2345150D01*
X7574028Y-2345150D02*
X7554981Y-2345150D01*
X7545457Y-2349912D01*
X7540695Y-2354674D01*
X7531171Y-2368960D01*
X7526409Y-2388007D01*
X7526409Y-2426102D01*
X7531171Y-2435626D01*
X7535933Y-2440388D01*
X7545457Y-2445150D01*
X7564505Y-2445150D01*
X7574028Y-2440388D01*
X7578790Y-2435626D01*
X7583552Y-2426102D01*
X7583552Y-2402293D01*
X7578790Y-2392769D01*
X7574028Y-2388007D01*
X7564505Y-2383245D01*
X7545457Y-2383245D01*
X7535933Y-2388007D01*
X7531171Y-2392769D01*
X7526409Y-2402293D01*
%TD*%
M02*
