G04 #@! TF.GenerationSoftware,KiCad,Pcbnew,(5.1.8)-1*
G04 #@! TF.CreationDate,2021-06-27T17:42:15+01:00*
G04 #@! TF.ProjectId,schem_1,73636865-6d5f-4312-9e6b-696361645f70,rev?*
G04 #@! TF.SameCoordinates,Original*
G04 #@! TF.FileFunction,Soldermask,Top*
G04 #@! TF.FilePolarity,Negative*
%FSLAX46Y46*%
G04 Gerber Fmt 4.6, Leading zero omitted, Abs format (unit mm)*
G04 Created by KiCad (PCBNEW (5.1.8)-1) date 2021-06-27 17:42:15*
%MOMM*%
%LPD*%
G01*
G04 APERTURE LIST*
%ADD10C,0.505000*%
%ADD11C,2.505000*%
%ADD12C,2.005000*%
%ADD13C,0.905000*%
G04 APERTURE END LIST*
D10*
G04 #@! TO.C,mouse-bite-2mm-slot*
X92217880Y-27207200D03*
X92217880Y-25707200D03*
X93717880Y-25707200D03*
X93717880Y-27207200D03*
X92217880Y-26457200D03*
X93717880Y-26457200D03*
G04 #@! TD*
G04 #@! TO.C,mouse-bite-2mm-slot*
X93717880Y-18457200D03*
X92217880Y-18457200D03*
X93717880Y-19207200D03*
X93717880Y-17707200D03*
X92217880Y-17707200D03*
X92217880Y-19207200D03*
G04 #@! TD*
G04 #@! TO.C,mouse-bite-2mm-slot*
X92217880Y-3207200D03*
X92217880Y-1707200D03*
X93717880Y-1707200D03*
X93717880Y-3207200D03*
X92217880Y-2457200D03*
X93717880Y-2457200D03*
G04 #@! TD*
G04 #@! TO.C,mouse-bite-2mm-slot*
X93717880Y-10457200D03*
X92217880Y-10457200D03*
X93717880Y-11207200D03*
X93717880Y-9707200D03*
X92217880Y-9707200D03*
X92217880Y-11207200D03*
G04 #@! TD*
G04 #@! TO.C,U1*
G36*
G01*
X111026880Y-13272760D02*
X111926880Y-13272760D01*
G75*
G02*
X111929380Y-13275260I0J-2500D01*
G01*
X111929380Y-14175260D01*
G75*
G02*
X111926880Y-14177760I-2500J0D01*
G01*
X111026880Y-14177760D01*
G75*
G02*
X111024380Y-14175260I0J2500D01*
G01*
X111024380Y-13275260D01*
G75*
G02*
X111026880Y-13272760I2500J0D01*
G01*
G37*
G36*
G01*
X113826880Y-13272760D02*
X114726880Y-13272760D01*
G75*
G02*
X114729380Y-13275260I0J-2500D01*
G01*
X114729380Y-14175260D01*
G75*
G02*
X114726880Y-14177760I-2500J0D01*
G01*
X113826880Y-14177760D01*
G75*
G02*
X113824380Y-14175260I0J2500D01*
G01*
X113824380Y-13275260D01*
G75*
G02*
X113826880Y-13272760I2500J0D01*
G01*
G37*
G36*
G01*
X112426880Y-13272760D02*
X113326880Y-13272760D01*
G75*
G02*
X113329380Y-13275260I0J-2500D01*
G01*
X113329380Y-14175260D01*
G75*
G02*
X113326880Y-14177760I-2500J0D01*
G01*
X112426880Y-14177760D01*
G75*
G02*
X112424380Y-14175260I0J2500D01*
G01*
X112424380Y-13275260D01*
G75*
G02*
X112426880Y-13272760I2500J0D01*
G01*
G37*
G36*
G01*
X112426880Y-14672760D02*
X113326880Y-14672760D01*
G75*
G02*
X113329380Y-14675260I0J-2500D01*
G01*
X113329380Y-15575260D01*
G75*
G02*
X113326880Y-15577760I-2500J0D01*
G01*
X112426880Y-15577760D01*
G75*
G02*
X112424380Y-15575260I0J2500D01*
G01*
X112424380Y-14675260D01*
G75*
G02*
X112426880Y-14672760I2500J0D01*
G01*
G37*
G36*
G01*
X111026880Y-14672760D02*
X111926880Y-14672760D01*
G75*
G02*
X111929380Y-14675260I0J-2500D01*
G01*
X111929380Y-15575260D01*
G75*
G02*
X111926880Y-15577760I-2500J0D01*
G01*
X111026880Y-15577760D01*
G75*
G02*
X111024380Y-15575260I0J2500D01*
G01*
X111024380Y-14675260D01*
G75*
G02*
X111026880Y-14672760I2500J0D01*
G01*
G37*
G36*
G01*
X113826880Y-14672760D02*
X114726880Y-14672760D01*
G75*
G02*
X114729380Y-14675260I0J-2500D01*
G01*
X114729380Y-15575260D01*
G75*
G02*
X114726880Y-15577760I-2500J0D01*
G01*
X113826880Y-15577760D01*
G75*
G02*
X113824380Y-15575260I0J2500D01*
G01*
X113824380Y-14675260D01*
G75*
G02*
X113826880Y-14672760I2500J0D01*
G01*
G37*
G36*
G01*
X111026880Y-16072760D02*
X111926880Y-16072760D01*
G75*
G02*
X111929380Y-16075260I0J-2500D01*
G01*
X111929380Y-16975260D01*
G75*
G02*
X111926880Y-16977760I-2500J0D01*
G01*
X111026880Y-16977760D01*
G75*
G02*
X111024380Y-16975260I0J2500D01*
G01*
X111024380Y-16075260D01*
G75*
G02*
X111026880Y-16072760I2500J0D01*
G01*
G37*
G36*
G01*
X112426880Y-16072760D02*
X113326880Y-16072760D01*
G75*
G02*
X113329380Y-16075260I0J-2500D01*
G01*
X113329380Y-16975260D01*
G75*
G02*
X113326880Y-16977760I-2500J0D01*
G01*
X112426880Y-16977760D01*
G75*
G02*
X112424380Y-16975260I0J2500D01*
G01*
X112424380Y-16075260D01*
G75*
G02*
X112426880Y-16072760I2500J0D01*
G01*
G37*
G36*
G01*
X113826880Y-16072760D02*
X114726880Y-16072760D01*
G75*
G02*
X114729380Y-16075260I0J-2500D01*
G01*
X114729380Y-16975260D01*
G75*
G02*
X114726880Y-16977760I-2500J0D01*
G01*
X113826880Y-16977760D01*
G75*
G02*
X113824380Y-16975260I0J2500D01*
G01*
X113824380Y-16075260D01*
G75*
G02*
X113826880Y-16072760I2500J0D01*
G01*
G37*
G36*
G01*
X101597480Y-5979960D02*
X103097480Y-5979960D01*
G75*
G02*
X103099980Y-5982460I0J-2500D01*
G01*
X103099980Y-6882460D01*
G75*
G02*
X103097480Y-6884960I-2500J0D01*
G01*
X101597480Y-6884960D01*
G75*
G02*
X101594980Y-6882460I0J2500D01*
G01*
X101594980Y-5982460D01*
G75*
G02*
X101597480Y-5979960I2500J0D01*
G01*
G37*
G36*
G01*
X101597480Y-7249960D02*
X103097480Y-7249960D01*
G75*
G02*
X103099980Y-7252460I0J-2500D01*
G01*
X103099980Y-8152460D01*
G75*
G02*
X103097480Y-8154960I-2500J0D01*
G01*
X101597480Y-8154960D01*
G75*
G02*
X101594980Y-8152460I0J2500D01*
G01*
X101594980Y-7252460D01*
G75*
G02*
X101597480Y-7249960I2500J0D01*
G01*
G37*
G36*
G01*
X103099980Y-8522460D02*
X103099980Y-9422460D01*
G75*
G02*
X103097480Y-9424960I-2500J0D01*
G01*
X101597480Y-9424960D01*
G75*
G02*
X101594980Y-9422460I0J2500D01*
G01*
X101594980Y-8522460D01*
G75*
G02*
X101597480Y-8519960I2500J0D01*
G01*
X103097480Y-8519960D01*
G75*
G02*
X103099980Y-8522460I0J-2500D01*
G01*
G37*
G36*
G01*
X103099980Y-9792460D02*
X103099980Y-10692460D01*
G75*
G02*
X103097480Y-10694960I-2500J0D01*
G01*
X101597480Y-10694960D01*
G75*
G02*
X101594980Y-10692460I0J2500D01*
G01*
X101594980Y-9792460D01*
G75*
G02*
X101597480Y-9789960I2500J0D01*
G01*
X103097480Y-9789960D01*
G75*
G02*
X103099980Y-9792460I0J-2500D01*
G01*
G37*
G36*
G01*
X103099980Y-11062460D02*
X103099980Y-11962460D01*
G75*
G02*
X103097480Y-11964960I-2500J0D01*
G01*
X101597480Y-11964960D01*
G75*
G02*
X101594980Y-11962460I0J2500D01*
G01*
X101594980Y-11062460D01*
G75*
G02*
X101597480Y-11059960I2500J0D01*
G01*
X103097480Y-11059960D01*
G75*
G02*
X103099980Y-11062460I0J-2500D01*
G01*
G37*
G36*
G01*
X103099980Y-12332460D02*
X103099980Y-13232460D01*
G75*
G02*
X103097480Y-13234960I-2500J0D01*
G01*
X101597480Y-13234960D01*
G75*
G02*
X101594980Y-13232460I0J2500D01*
G01*
X101594980Y-12332460D01*
G75*
G02*
X101597480Y-12329960I2500J0D01*
G01*
X103097480Y-12329960D01*
G75*
G02*
X103099980Y-12332460I0J-2500D01*
G01*
G37*
G36*
G01*
X103099980Y-13602460D02*
X103099980Y-14502460D01*
G75*
G02*
X103097480Y-14504960I-2500J0D01*
G01*
X101597480Y-14504960D01*
G75*
G02*
X101594980Y-14502460I0J2500D01*
G01*
X101594980Y-13602460D01*
G75*
G02*
X101597480Y-13599960I2500J0D01*
G01*
X103097480Y-13599960D01*
G75*
G02*
X103099980Y-13602460I0J-2500D01*
G01*
G37*
G36*
G01*
X103099980Y-14872460D02*
X103099980Y-15772460D01*
G75*
G02*
X103097480Y-15774960I-2500J0D01*
G01*
X101597480Y-15774960D01*
G75*
G02*
X101594980Y-15772460I0J2500D01*
G01*
X101594980Y-14872460D01*
G75*
G02*
X101597480Y-14869960I2500J0D01*
G01*
X103097480Y-14869960D01*
G75*
G02*
X103099980Y-14872460I0J-2500D01*
G01*
G37*
G36*
G01*
X103099980Y-16142460D02*
X103099980Y-17042460D01*
G75*
G02*
X103097480Y-17044960I-2500J0D01*
G01*
X101597480Y-17044960D01*
G75*
G02*
X101594980Y-17042460I0J2500D01*
G01*
X101594980Y-16142460D01*
G75*
G02*
X101597480Y-16139960I2500J0D01*
G01*
X103097480Y-16139960D01*
G75*
G02*
X103099980Y-16142460I0J-2500D01*
G01*
G37*
G36*
G01*
X103099980Y-17412460D02*
X103099980Y-18312460D01*
G75*
G02*
X103097480Y-18314960I-2500J0D01*
G01*
X101597480Y-18314960D01*
G75*
G02*
X101594980Y-18312460I0J2500D01*
G01*
X101594980Y-17412460D01*
G75*
G02*
X101597480Y-17409960I2500J0D01*
G01*
X103097480Y-17409960D01*
G75*
G02*
X103099980Y-17412460I0J-2500D01*
G01*
G37*
G36*
G01*
X103099980Y-18682460D02*
X103099980Y-19582460D01*
G75*
G02*
X103097480Y-19584960I-2500J0D01*
G01*
X101597480Y-19584960D01*
G75*
G02*
X101594980Y-19582460I0J2500D01*
G01*
X101594980Y-18682460D01*
G75*
G02*
X101597480Y-18679960I2500J0D01*
G01*
X103097480Y-18679960D01*
G75*
G02*
X103099980Y-18682460I0J-2500D01*
G01*
G37*
G36*
G01*
X103099980Y-19952460D02*
X103099980Y-20852460D01*
G75*
G02*
X103097480Y-20854960I-2500J0D01*
G01*
X101597480Y-20854960D01*
G75*
G02*
X101594980Y-20852460I0J2500D01*
G01*
X101594980Y-19952460D01*
G75*
G02*
X101597480Y-19949960I2500J0D01*
G01*
X103097480Y-19949960D01*
G75*
G02*
X103099980Y-19952460I0J-2500D01*
G01*
G37*
G36*
G01*
X103099980Y-21222460D02*
X103099980Y-22122460D01*
G75*
G02*
X103097480Y-22124960I-2500J0D01*
G01*
X101597480Y-22124960D01*
G75*
G02*
X101594980Y-22122460I0J2500D01*
G01*
X101594980Y-21222460D01*
G75*
G02*
X101597480Y-21219960I2500J0D01*
G01*
X103097480Y-21219960D01*
G75*
G02*
X103099980Y-21222460I0J-2500D01*
G01*
G37*
G36*
G01*
X103099980Y-22492460D02*
X103099980Y-23392460D01*
G75*
G02*
X103097480Y-23394960I-2500J0D01*
G01*
X101597480Y-23394960D01*
G75*
G02*
X101594980Y-23392460I0J2500D01*
G01*
X101594980Y-22492460D01*
G75*
G02*
X101597480Y-22489960I2500J0D01*
G01*
X103097480Y-22489960D01*
G75*
G02*
X103099980Y-22492460I0J-2500D01*
G01*
G37*
G36*
G01*
X101597480Y-4709960D02*
X103097480Y-4709960D01*
G75*
G02*
X103099980Y-4712460I0J-2500D01*
G01*
X103099980Y-5612460D01*
G75*
G02*
X103097480Y-5614960I-2500J0D01*
G01*
X101597480Y-5614960D01*
G75*
G02*
X101594980Y-5612460I0J2500D01*
G01*
X101594980Y-4712460D01*
G75*
G02*
X101597480Y-4709960I2500J0D01*
G01*
G37*
G36*
G01*
X101597480Y-3439960D02*
X103097480Y-3439960D01*
G75*
G02*
X103099980Y-3442460I0J-2500D01*
G01*
X103099980Y-4342460D01*
G75*
G02*
X103097480Y-4344960I-2500J0D01*
G01*
X101597480Y-4344960D01*
G75*
G02*
X101594980Y-4342460I0J2500D01*
G01*
X101594980Y-3442460D01*
G75*
G02*
X101597480Y-3439960I2500J0D01*
G01*
G37*
G36*
G01*
X101597480Y-2169960D02*
X103097480Y-2169960D01*
G75*
G02*
X103099980Y-2172460I0J-2500D01*
G01*
X103099980Y-3072460D01*
G75*
G02*
X103097480Y-3074960I-2500J0D01*
G01*
X101597480Y-3074960D01*
G75*
G02*
X101594980Y-3072460I0J2500D01*
G01*
X101594980Y-2172460D01*
G75*
G02*
X101597480Y-2169960I2500J0D01*
G01*
G37*
G36*
G01*
X101597480Y-899960D02*
X103097480Y-899960D01*
G75*
G02*
X103099980Y-902460I0J-2500D01*
G01*
X103099980Y-1802460D01*
G75*
G02*
X103097480Y-1804960I-2500J0D01*
G01*
X101597480Y-1804960D01*
G75*
G02*
X101594980Y-1802460I0J2500D01*
G01*
X101594980Y-902460D01*
G75*
G02*
X101597480Y-899960I2500J0D01*
G01*
G37*
G36*
G01*
X101597480Y370040D02*
X103097480Y370040D01*
G75*
G02*
X103099980Y367540I0J-2500D01*
G01*
X103099980Y-532460D01*
G75*
G02*
X103097480Y-534960I-2500J0D01*
G01*
X101597480Y-534960D01*
G75*
G02*
X101594980Y-532460I0J2500D01*
G01*
X101594980Y367540D01*
G75*
G02*
X101597480Y370040I2500J0D01*
G01*
G37*
G36*
G01*
X119607480Y370040D02*
X121107480Y370040D01*
G75*
G02*
X121109980Y367540I0J-2500D01*
G01*
X121109980Y-532460D01*
G75*
G02*
X121107480Y-534960I-2500J0D01*
G01*
X119607480Y-534960D01*
G75*
G02*
X119604980Y-532460I0J2500D01*
G01*
X119604980Y367540D01*
G75*
G02*
X119607480Y370040I2500J0D01*
G01*
G37*
G36*
G01*
X119607480Y-899960D02*
X121107480Y-899960D01*
G75*
G02*
X121109980Y-902460I0J-2500D01*
G01*
X121109980Y-1802460D01*
G75*
G02*
X121107480Y-1804960I-2500J0D01*
G01*
X119607480Y-1804960D01*
G75*
G02*
X119604980Y-1802460I0J2500D01*
G01*
X119604980Y-902460D01*
G75*
G02*
X119607480Y-899960I2500J0D01*
G01*
G37*
G36*
G01*
X119604980Y-3072460D02*
X119604980Y-2172460D01*
G75*
G02*
X119607480Y-2169960I2500J0D01*
G01*
X121107480Y-2169960D01*
G75*
G02*
X121109980Y-2172460I0J-2500D01*
G01*
X121109980Y-3072460D01*
G75*
G02*
X121107480Y-3074960I-2500J0D01*
G01*
X119607480Y-3074960D01*
G75*
G02*
X119604980Y-3072460I0J2500D01*
G01*
G37*
G36*
G01*
X119604980Y-4342460D02*
X119604980Y-3442460D01*
G75*
G02*
X119607480Y-3439960I2500J0D01*
G01*
X121107480Y-3439960D01*
G75*
G02*
X121109980Y-3442460I0J-2500D01*
G01*
X121109980Y-4342460D01*
G75*
G02*
X121107480Y-4344960I-2500J0D01*
G01*
X119607480Y-4344960D01*
G75*
G02*
X119604980Y-4342460I0J2500D01*
G01*
G37*
G36*
G01*
X119604980Y-5612460D02*
X119604980Y-4712460D01*
G75*
G02*
X119607480Y-4709960I2500J0D01*
G01*
X121107480Y-4709960D01*
G75*
G02*
X121109980Y-4712460I0J-2500D01*
G01*
X121109980Y-5612460D01*
G75*
G02*
X121107480Y-5614960I-2500J0D01*
G01*
X119607480Y-5614960D01*
G75*
G02*
X119604980Y-5612460I0J2500D01*
G01*
G37*
G36*
G01*
X119604980Y-6882460D02*
X119604980Y-5982460D01*
G75*
G02*
X119607480Y-5979960I2500J0D01*
G01*
X121107480Y-5979960D01*
G75*
G02*
X121109980Y-5982460I0J-2500D01*
G01*
X121109980Y-6882460D01*
G75*
G02*
X121107480Y-6884960I-2500J0D01*
G01*
X119607480Y-6884960D01*
G75*
G02*
X119604980Y-6882460I0J2500D01*
G01*
G37*
G36*
G01*
X119604980Y-8152460D02*
X119604980Y-7252460D01*
G75*
G02*
X119607480Y-7249960I2500J0D01*
G01*
X121107480Y-7249960D01*
G75*
G02*
X121109980Y-7252460I0J-2500D01*
G01*
X121109980Y-8152460D01*
G75*
G02*
X121107480Y-8154960I-2500J0D01*
G01*
X119607480Y-8154960D01*
G75*
G02*
X119604980Y-8152460I0J2500D01*
G01*
G37*
G36*
G01*
X119604980Y-9422460D02*
X119604980Y-8522460D01*
G75*
G02*
X119607480Y-8519960I2500J0D01*
G01*
X121107480Y-8519960D01*
G75*
G02*
X121109980Y-8522460I0J-2500D01*
G01*
X121109980Y-9422460D01*
G75*
G02*
X121107480Y-9424960I-2500J0D01*
G01*
X119607480Y-9424960D01*
G75*
G02*
X119604980Y-9422460I0J2500D01*
G01*
G37*
G36*
G01*
X119604980Y-10692460D02*
X119604980Y-9792460D01*
G75*
G02*
X119607480Y-9789960I2500J0D01*
G01*
X121107480Y-9789960D01*
G75*
G02*
X121109980Y-9792460I0J-2500D01*
G01*
X121109980Y-10692460D01*
G75*
G02*
X121107480Y-10694960I-2500J0D01*
G01*
X119607480Y-10694960D01*
G75*
G02*
X119604980Y-10692460I0J2500D01*
G01*
G37*
G36*
G01*
X119604980Y-11962460D02*
X119604980Y-11062460D01*
G75*
G02*
X119607480Y-11059960I2500J0D01*
G01*
X121107480Y-11059960D01*
G75*
G02*
X121109980Y-11062460I0J-2500D01*
G01*
X121109980Y-11962460D01*
G75*
G02*
X121107480Y-11964960I-2500J0D01*
G01*
X119607480Y-11964960D01*
G75*
G02*
X119604980Y-11962460I0J2500D01*
G01*
G37*
G36*
G01*
X119604980Y-13232460D02*
X119604980Y-12332460D01*
G75*
G02*
X119607480Y-12329960I2500J0D01*
G01*
X121107480Y-12329960D01*
G75*
G02*
X121109980Y-12332460I0J-2500D01*
G01*
X121109980Y-13232460D01*
G75*
G02*
X121107480Y-13234960I-2500J0D01*
G01*
X119607480Y-13234960D01*
G75*
G02*
X119604980Y-13232460I0J2500D01*
G01*
G37*
G36*
G01*
X119604980Y-14502460D02*
X119604980Y-13602460D01*
G75*
G02*
X119607480Y-13599960I2500J0D01*
G01*
X121107480Y-13599960D01*
G75*
G02*
X121109980Y-13602460I0J-2500D01*
G01*
X121109980Y-14502460D01*
G75*
G02*
X121107480Y-14504960I-2500J0D01*
G01*
X119607480Y-14504960D01*
G75*
G02*
X119604980Y-14502460I0J2500D01*
G01*
G37*
G36*
G01*
X119604980Y-15772460D02*
X119604980Y-14872460D01*
G75*
G02*
X119607480Y-14869960I2500J0D01*
G01*
X121107480Y-14869960D01*
G75*
G02*
X121109980Y-14872460I0J-2500D01*
G01*
X121109980Y-15772460D01*
G75*
G02*
X121107480Y-15774960I-2500J0D01*
G01*
X119607480Y-15774960D01*
G75*
G02*
X119604980Y-15772460I0J2500D01*
G01*
G37*
G36*
G01*
X119604980Y-17042460D02*
X119604980Y-16142460D01*
G75*
G02*
X119607480Y-16139960I2500J0D01*
G01*
X121107480Y-16139960D01*
G75*
G02*
X121109980Y-16142460I0J-2500D01*
G01*
X121109980Y-17042460D01*
G75*
G02*
X121107480Y-17044960I-2500J0D01*
G01*
X119607480Y-17044960D01*
G75*
G02*
X119604980Y-17042460I0J2500D01*
G01*
G37*
G36*
G01*
X119604980Y-18312460D02*
X119604980Y-17412460D01*
G75*
G02*
X119607480Y-17409960I2500J0D01*
G01*
X121107480Y-17409960D01*
G75*
G02*
X121109980Y-17412460I0J-2500D01*
G01*
X121109980Y-18312460D01*
G75*
G02*
X121107480Y-18314960I-2500J0D01*
G01*
X119607480Y-18314960D01*
G75*
G02*
X119604980Y-18312460I0J2500D01*
G01*
G37*
G36*
G01*
X119604980Y-19582460D02*
X119604980Y-18682460D01*
G75*
G02*
X119607480Y-18679960I2500J0D01*
G01*
X121107480Y-18679960D01*
G75*
G02*
X121109980Y-18682460I0J-2500D01*
G01*
X121109980Y-19582460D01*
G75*
G02*
X121107480Y-19584960I-2500J0D01*
G01*
X119607480Y-19584960D01*
G75*
G02*
X119604980Y-19582460I0J2500D01*
G01*
G37*
G36*
G01*
X119604980Y-20852460D02*
X119604980Y-19952460D01*
G75*
G02*
X119607480Y-19949960I2500J0D01*
G01*
X121107480Y-19949960D01*
G75*
G02*
X121109980Y-19952460I0J-2500D01*
G01*
X121109980Y-20852460D01*
G75*
G02*
X121107480Y-20854960I-2500J0D01*
G01*
X119607480Y-20854960D01*
G75*
G02*
X119604980Y-20852460I0J2500D01*
G01*
G37*
G36*
G01*
X119604980Y-22122460D02*
X119604980Y-21222460D01*
G75*
G02*
X119607480Y-21219960I2500J0D01*
G01*
X121107480Y-21219960D01*
G75*
G02*
X121109980Y-21222460I0J-2500D01*
G01*
X121109980Y-22122460D01*
G75*
G02*
X121107480Y-22124960I-2500J0D01*
G01*
X119607480Y-22124960D01*
G75*
G02*
X119604980Y-22122460I0J2500D01*
G01*
G37*
G36*
G01*
X119604980Y-23392460D02*
X119604980Y-22492460D01*
G75*
G02*
X119607480Y-22489960I2500J0D01*
G01*
X121107480Y-22489960D01*
G75*
G02*
X121109980Y-22492460I0J-2500D01*
G01*
X121109980Y-23392460D01*
G75*
G02*
X121107480Y-23394960I-2500J0D01*
G01*
X119607480Y-23394960D01*
G75*
G02*
X119604980Y-23392460I0J2500D01*
G01*
G37*
G04 #@! TD*
G04 #@! TO.C,U7*
G36*
G01*
X81694300Y-6983000D02*
X81694300Y-7303000D01*
G75*
G02*
X81691800Y-7305500I-2500J0D01*
G01*
X79691800Y-7305500D01*
G75*
G02*
X79689300Y-7303000I0J2500D01*
G01*
X79689300Y-6983000D01*
G75*
G02*
X79691800Y-6980500I2500J0D01*
G01*
X81691800Y-6980500D01*
G75*
G02*
X81694300Y-6983000I0J-2500D01*
G01*
G37*
G36*
G01*
X81694300Y-8843000D02*
X81694300Y-9163000D01*
G75*
G02*
X81691800Y-9165500I-2500J0D01*
G01*
X79691800Y-9165500D01*
G75*
G02*
X79689300Y-9163000I0J2500D01*
G01*
X79689300Y-8843000D01*
G75*
G02*
X79691800Y-8840500I2500J0D01*
G01*
X81691800Y-8840500D01*
G75*
G02*
X81694300Y-8843000I0J-2500D01*
G01*
G37*
G36*
G01*
X81694300Y-9463000D02*
X81694300Y-9783000D01*
G75*
G02*
X81691800Y-9785500I-2500J0D01*
G01*
X79691800Y-9785500D01*
G75*
G02*
X79689300Y-9783000I0J2500D01*
G01*
X79689300Y-9463000D01*
G75*
G02*
X79691800Y-9460500I2500J0D01*
G01*
X81691800Y-9460500D01*
G75*
G02*
X81694300Y-9463000I0J-2500D01*
G01*
G37*
G36*
G01*
X81694300Y-8223000D02*
X81694300Y-8543000D01*
G75*
G02*
X81691800Y-8545500I-2500J0D01*
G01*
X79691800Y-8545500D01*
G75*
G02*
X79689300Y-8543000I0J2500D01*
G01*
X79689300Y-8223000D01*
G75*
G02*
X79691800Y-8220500I2500J0D01*
G01*
X81691800Y-8220500D01*
G75*
G02*
X81694300Y-8223000I0J-2500D01*
G01*
G37*
G36*
G01*
X81694300Y-7603000D02*
X81694300Y-7923000D01*
G75*
G02*
X81691800Y-7925500I-2500J0D01*
G01*
X79691800Y-7925500D01*
G75*
G02*
X79689300Y-7923000I0J2500D01*
G01*
X79689300Y-7603000D01*
G75*
G02*
X79691800Y-7600500I2500J0D01*
G01*
X81691800Y-7600500D01*
G75*
G02*
X81694300Y-7603000I0J-2500D01*
G01*
G37*
G36*
G01*
X81694300Y-10083000D02*
X81694300Y-10403000D01*
G75*
G02*
X81691800Y-10405500I-2500J0D01*
G01*
X79691800Y-10405500D01*
G75*
G02*
X79689300Y-10403000I0J2500D01*
G01*
X79689300Y-10083000D01*
G75*
G02*
X79691800Y-10080500I2500J0D01*
G01*
X81691800Y-10080500D01*
G75*
G02*
X81694300Y-10083000I0J-2500D01*
G01*
G37*
G36*
G01*
X81694300Y-10703000D02*
X81694300Y-11023000D01*
G75*
G02*
X81691800Y-11025500I-2500J0D01*
G01*
X79691800Y-11025500D01*
G75*
G02*
X79689300Y-11023000I0J2500D01*
G01*
X79689300Y-10703000D01*
G75*
G02*
X79691800Y-10700500I2500J0D01*
G01*
X81691800Y-10700500D01*
G75*
G02*
X81694300Y-10703000I0J-2500D01*
G01*
G37*
G36*
G01*
X81694300Y-11323000D02*
X81694300Y-11643000D01*
G75*
G02*
X81691800Y-11645500I-2500J0D01*
G01*
X79691800Y-11645500D01*
G75*
G02*
X79689300Y-11643000I0J2500D01*
G01*
X79689300Y-11323000D01*
G75*
G02*
X79691800Y-11320500I2500J0D01*
G01*
X81691800Y-11320500D01*
G75*
G02*
X81694300Y-11323000I0J-2500D01*
G01*
G37*
G36*
G01*
X81694300Y-11943000D02*
X81694300Y-12263000D01*
G75*
G02*
X81691800Y-12265500I-2500J0D01*
G01*
X79691800Y-12265500D01*
G75*
G02*
X79689300Y-12263000I0J2500D01*
G01*
X79689300Y-11943000D01*
G75*
G02*
X79691800Y-11940500I2500J0D01*
G01*
X81691800Y-11940500D01*
G75*
G02*
X81694300Y-11943000I0J-2500D01*
G01*
G37*
G36*
G01*
X81694300Y-12563000D02*
X81694300Y-12883000D01*
G75*
G02*
X81691800Y-12885500I-2500J0D01*
G01*
X79691800Y-12885500D01*
G75*
G02*
X79689300Y-12883000I0J2500D01*
G01*
X79689300Y-12563000D01*
G75*
G02*
X79691800Y-12560500I2500J0D01*
G01*
X81691800Y-12560500D01*
G75*
G02*
X81694300Y-12563000I0J-2500D01*
G01*
G37*
G36*
G01*
X81694300Y-13183000D02*
X81694300Y-13503000D01*
G75*
G02*
X81691800Y-13505500I-2500J0D01*
G01*
X79691800Y-13505500D01*
G75*
G02*
X79689300Y-13503000I0J2500D01*
G01*
X79689300Y-13183000D01*
G75*
G02*
X79691800Y-13180500I2500J0D01*
G01*
X81691800Y-13180500D01*
G75*
G02*
X81694300Y-13183000I0J-2500D01*
G01*
G37*
G36*
G01*
X81694300Y-13803000D02*
X81694300Y-14123000D01*
G75*
G02*
X81691800Y-14125500I-2500J0D01*
G01*
X79691800Y-14125500D01*
G75*
G02*
X79689300Y-14123000I0J2500D01*
G01*
X79689300Y-13803000D01*
G75*
G02*
X79691800Y-13800500I2500J0D01*
G01*
X81691800Y-13800500D01*
G75*
G02*
X81694300Y-13803000I0J-2500D01*
G01*
G37*
G36*
G01*
X81694300Y-14423000D02*
X81694300Y-14743000D01*
G75*
G02*
X81691800Y-14745500I-2500J0D01*
G01*
X79691800Y-14745500D01*
G75*
G02*
X79689300Y-14743000I0J2500D01*
G01*
X79689300Y-14423000D01*
G75*
G02*
X79691800Y-14420500I2500J0D01*
G01*
X81691800Y-14420500D01*
G75*
G02*
X81694300Y-14423000I0J-2500D01*
G01*
G37*
G36*
G01*
X79689300Y-15363000D02*
X79689300Y-15043000D01*
G75*
G02*
X79691800Y-15040500I2500J0D01*
G01*
X81691800Y-15040500D01*
G75*
G02*
X81694300Y-15043000I0J-2500D01*
G01*
X81694300Y-15363000D01*
G75*
G02*
X81691800Y-15365500I-2500J0D01*
G01*
X79691800Y-15365500D01*
G75*
G02*
X79689300Y-15363000I0J2500D01*
G01*
G37*
G04 #@! TD*
D11*
G04 #@! TO.C,C2*
X68712800Y-27917200D03*
X80712800Y-27917200D03*
G04 #@! TD*
D12*
G04 #@! TO.C,H8*
X88962800Y542800D03*
G04 #@! TD*
G04 #@! TO.C,H7*
X88962800Y-27457200D03*
G04 #@! TD*
G04 #@! TO.C,H6*
X60962800Y542800D03*
G04 #@! TD*
G04 #@! TO.C,H5*
X60962800Y-27457200D03*
G04 #@! TD*
G04 #@! TO.C,J1*
G36*
G01*
X95475480Y-20700960D02*
X94375480Y-20700960D01*
G75*
G02*
X94372980Y-20698460I0J2500D01*
G01*
X94372980Y-20398460D01*
G75*
G02*
X94375480Y-20395960I2500J0D01*
G01*
X95475480Y-20395960D01*
G75*
G02*
X95477980Y-20398460I0J-2500D01*
G01*
X95477980Y-20698460D01*
G75*
G02*
X95475480Y-20700960I-2500J0D01*
G01*
G37*
G36*
G01*
X95475480Y-20200960D02*
X94375480Y-20200960D01*
G75*
G02*
X94372980Y-20198460I0J2500D01*
G01*
X94372980Y-19898460D01*
G75*
G02*
X94375480Y-19895960I2500J0D01*
G01*
X95475480Y-19895960D01*
G75*
G02*
X95477980Y-19898460I0J-2500D01*
G01*
X95477980Y-20198460D01*
G75*
G02*
X95475480Y-20200960I-2500J0D01*
G01*
G37*
G36*
G01*
X95475480Y-19700960D02*
X94375480Y-19700960D01*
G75*
G02*
X94372980Y-19698460I0J2500D01*
G01*
X94372980Y-19398460D01*
G75*
G02*
X94375480Y-19395960I2500J0D01*
G01*
X95475480Y-19395960D01*
G75*
G02*
X95477980Y-19398460I0J-2500D01*
G01*
X95477980Y-19698460D01*
G75*
G02*
X95475480Y-19700960I-2500J0D01*
G01*
G37*
G36*
G01*
X95475480Y-19200960D02*
X94375480Y-19200960D01*
G75*
G02*
X94372980Y-19198460I0J2500D01*
G01*
X94372980Y-18898460D01*
G75*
G02*
X94375480Y-18895960I2500J0D01*
G01*
X95475480Y-18895960D01*
G75*
G02*
X95477980Y-18898460I0J-2500D01*
G01*
X95477980Y-19198460D01*
G75*
G02*
X95475480Y-19200960I-2500J0D01*
G01*
G37*
G36*
G01*
X95475480Y-18700960D02*
X94375480Y-18700960D01*
G75*
G02*
X94372980Y-18698460I0J2500D01*
G01*
X94372980Y-18398460D01*
G75*
G02*
X94375480Y-18395960I2500J0D01*
G01*
X95475480Y-18395960D01*
G75*
G02*
X95477980Y-18398460I0J-2500D01*
G01*
X95477980Y-18698460D01*
G75*
G02*
X95475480Y-18700960I-2500J0D01*
G01*
G37*
G36*
G01*
X95475480Y-18200960D02*
X94375480Y-18200960D01*
G75*
G02*
X94372980Y-18198460I0J2500D01*
G01*
X94372980Y-17898460D01*
G75*
G02*
X94375480Y-17895960I2500J0D01*
G01*
X95475480Y-17895960D01*
G75*
G02*
X95477980Y-17898460I0J-2500D01*
G01*
X95477980Y-18198460D01*
G75*
G02*
X95475480Y-18200960I-2500J0D01*
G01*
G37*
G36*
G01*
X95475480Y-17700960D02*
X94375480Y-17700960D01*
G75*
G02*
X94372980Y-17698460I0J2500D01*
G01*
X94372980Y-17398460D01*
G75*
G02*
X94375480Y-17395960I2500J0D01*
G01*
X95475480Y-17395960D01*
G75*
G02*
X95477980Y-17398460I0J-2500D01*
G01*
X95477980Y-17698460D01*
G75*
G02*
X95475480Y-17700960I-2500J0D01*
G01*
G37*
G36*
G01*
X95475480Y-17200960D02*
X94375480Y-17200960D01*
G75*
G02*
X94372980Y-17198460I0J2500D01*
G01*
X94372980Y-16898460D01*
G75*
G02*
X94375480Y-16895960I2500J0D01*
G01*
X95475480Y-16895960D01*
G75*
G02*
X95477980Y-16898460I0J-2500D01*
G01*
X95477980Y-17198460D01*
G75*
G02*
X95475480Y-17200960I-2500J0D01*
G01*
G37*
G36*
G01*
X95475480Y-16700960D02*
X94375480Y-16700960D01*
G75*
G02*
X94372980Y-16698460I0J2500D01*
G01*
X94372980Y-16398460D01*
G75*
G02*
X94375480Y-16395960I2500J0D01*
G01*
X95475480Y-16395960D01*
G75*
G02*
X95477980Y-16398460I0J-2500D01*
G01*
X95477980Y-16698460D01*
G75*
G02*
X95475480Y-16700960I-2500J0D01*
G01*
G37*
G36*
G01*
X95475480Y-16200960D02*
X94375480Y-16200960D01*
G75*
G02*
X94372980Y-16198460I0J2500D01*
G01*
X94372980Y-15898460D01*
G75*
G02*
X94375480Y-15895960I2500J0D01*
G01*
X95475480Y-15895960D01*
G75*
G02*
X95477980Y-15898460I0J-2500D01*
G01*
X95477980Y-16198460D01*
G75*
G02*
X95475480Y-16200960I-2500J0D01*
G01*
G37*
G36*
G01*
X95475480Y-15700960D02*
X94375480Y-15700960D01*
G75*
G02*
X94372980Y-15698460I0J2500D01*
G01*
X94372980Y-15398460D01*
G75*
G02*
X94375480Y-15395960I2500J0D01*
G01*
X95475480Y-15395960D01*
G75*
G02*
X95477980Y-15398460I0J-2500D01*
G01*
X95477980Y-15698460D01*
G75*
G02*
X95475480Y-15700960I-2500J0D01*
G01*
G37*
G36*
G01*
X95475480Y-15200960D02*
X94375480Y-15200960D01*
G75*
G02*
X94372980Y-15198460I0J2500D01*
G01*
X94372980Y-14898460D01*
G75*
G02*
X94375480Y-14895960I2500J0D01*
G01*
X95475480Y-14895960D01*
G75*
G02*
X95477980Y-14898460I0J-2500D01*
G01*
X95477980Y-15198460D01*
G75*
G02*
X95475480Y-15200960I-2500J0D01*
G01*
G37*
G36*
G01*
X95475480Y-14700960D02*
X94375480Y-14700960D01*
G75*
G02*
X94372980Y-14698460I0J2500D01*
G01*
X94372980Y-14398460D01*
G75*
G02*
X94375480Y-14395960I2500J0D01*
G01*
X95475480Y-14395960D01*
G75*
G02*
X95477980Y-14398460I0J-2500D01*
G01*
X95477980Y-14698460D01*
G75*
G02*
X95475480Y-14700960I-2500J0D01*
G01*
G37*
G36*
G01*
X95475480Y-14200960D02*
X94375480Y-14200960D01*
G75*
G02*
X94372980Y-14198460I0J2500D01*
G01*
X94372980Y-13898460D01*
G75*
G02*
X94375480Y-13895960I2500J0D01*
G01*
X95475480Y-13895960D01*
G75*
G02*
X95477980Y-13898460I0J-2500D01*
G01*
X95477980Y-14198460D01*
G75*
G02*
X95475480Y-14200960I-2500J0D01*
G01*
G37*
G36*
G01*
X95475480Y-13700960D02*
X94375480Y-13700960D01*
G75*
G02*
X94372980Y-13698460I0J2500D01*
G01*
X94372980Y-13398460D01*
G75*
G02*
X94375480Y-13395960I2500J0D01*
G01*
X95475480Y-13395960D01*
G75*
G02*
X95477980Y-13398460I0J-2500D01*
G01*
X95477980Y-13698460D01*
G75*
G02*
X95475480Y-13700960I-2500J0D01*
G01*
G37*
G36*
G01*
X95475480Y-13200960D02*
X94375480Y-13200960D01*
G75*
G02*
X94372980Y-13198460I0J2500D01*
G01*
X94372980Y-12898460D01*
G75*
G02*
X94375480Y-12895960I2500J0D01*
G01*
X95475480Y-12895960D01*
G75*
G02*
X95477980Y-12898460I0J-2500D01*
G01*
X95477980Y-13198460D01*
G75*
G02*
X95475480Y-13200960I-2500J0D01*
G01*
G37*
G36*
G01*
X95475480Y-12700960D02*
X94375480Y-12700960D01*
G75*
G02*
X94372980Y-12698460I0J2500D01*
G01*
X94372980Y-12398460D01*
G75*
G02*
X94375480Y-12395960I2500J0D01*
G01*
X95475480Y-12395960D01*
G75*
G02*
X95477980Y-12398460I0J-2500D01*
G01*
X95477980Y-12698460D01*
G75*
G02*
X95475480Y-12700960I-2500J0D01*
G01*
G37*
G36*
G01*
X95475480Y-12200960D02*
X94375480Y-12200960D01*
G75*
G02*
X94372980Y-12198460I0J2500D01*
G01*
X94372980Y-11898460D01*
G75*
G02*
X94375480Y-11895960I2500J0D01*
G01*
X95475480Y-11895960D01*
G75*
G02*
X95477980Y-11898460I0J-2500D01*
G01*
X95477980Y-12198460D01*
G75*
G02*
X95475480Y-12200960I-2500J0D01*
G01*
G37*
G36*
G01*
X95475480Y-11700960D02*
X94375480Y-11700960D01*
G75*
G02*
X94372980Y-11698460I0J2500D01*
G01*
X94372980Y-11398460D01*
G75*
G02*
X94375480Y-11395960I2500J0D01*
G01*
X95475480Y-11395960D01*
G75*
G02*
X95477980Y-11398460I0J-2500D01*
G01*
X95477980Y-11698460D01*
G75*
G02*
X95475480Y-11700960I-2500J0D01*
G01*
G37*
G36*
G01*
X95475480Y-11200960D02*
X94375480Y-11200960D01*
G75*
G02*
X94372980Y-11198460I0J2500D01*
G01*
X94372980Y-10898460D01*
G75*
G02*
X94375480Y-10895960I2500J0D01*
G01*
X95475480Y-10895960D01*
G75*
G02*
X95477980Y-10898460I0J-2500D01*
G01*
X95477980Y-11198460D01*
G75*
G02*
X95475480Y-11200960I-2500J0D01*
G01*
G37*
G36*
G01*
X95475480Y-10700960D02*
X94375480Y-10700960D01*
G75*
G02*
X94372980Y-10698460I0J2500D01*
G01*
X94372980Y-10398460D01*
G75*
G02*
X94375480Y-10395960I2500J0D01*
G01*
X95475480Y-10395960D01*
G75*
G02*
X95477980Y-10398460I0J-2500D01*
G01*
X95477980Y-10698460D01*
G75*
G02*
X95475480Y-10700960I-2500J0D01*
G01*
G37*
G36*
G01*
X95475480Y-10200960D02*
X94375480Y-10200960D01*
G75*
G02*
X94372980Y-10198460I0J2500D01*
G01*
X94372980Y-9898460D01*
G75*
G02*
X94375480Y-9895960I2500J0D01*
G01*
X95475480Y-9895960D01*
G75*
G02*
X95477980Y-9898460I0J-2500D01*
G01*
X95477980Y-10198460D01*
G75*
G02*
X95475480Y-10200960I-2500J0D01*
G01*
G37*
G36*
G01*
X95475480Y-9700960D02*
X94375480Y-9700960D01*
G75*
G02*
X94372980Y-9698460I0J2500D01*
G01*
X94372980Y-9398460D01*
G75*
G02*
X94375480Y-9395960I2500J0D01*
G01*
X95475480Y-9395960D01*
G75*
G02*
X95477980Y-9398460I0J-2500D01*
G01*
X95477980Y-9698460D01*
G75*
G02*
X95475480Y-9700960I-2500J0D01*
G01*
G37*
G36*
G01*
X95475480Y-9200960D02*
X94375480Y-9200960D01*
G75*
G02*
X94372980Y-9198460I0J2500D01*
G01*
X94372980Y-8898460D01*
G75*
G02*
X94375480Y-8895960I2500J0D01*
G01*
X95475480Y-8895960D01*
G75*
G02*
X95477980Y-8898460I0J-2500D01*
G01*
X95477980Y-9198460D01*
G75*
G02*
X95475480Y-9200960I-2500J0D01*
G01*
G37*
G36*
G01*
X98175480Y-23370960D02*
X95075480Y-23370960D01*
G75*
G02*
X95072980Y-23368460I0J2500D01*
G01*
X95072980Y-21068460D01*
G75*
G02*
X95075480Y-21065960I2500J0D01*
G01*
X98175480Y-21065960D01*
G75*
G02*
X98177980Y-21068460I0J-2500D01*
G01*
X98177980Y-23368460D01*
G75*
G02*
X98175480Y-23370960I-2500J0D01*
G01*
G37*
G36*
G01*
X98175480Y-8530960D02*
X95075480Y-8530960D01*
G75*
G02*
X95072980Y-8528460I0J2500D01*
G01*
X95072980Y-6228460D01*
G75*
G02*
X95075480Y-6225960I2500J0D01*
G01*
X98175480Y-6225960D01*
G75*
G02*
X98177980Y-6228460I0J-2500D01*
G01*
X98177980Y-8528460D01*
G75*
G02*
X98175480Y-8530960I-2500J0D01*
G01*
G37*
G04 #@! TD*
G04 #@! TO.C,H4*
X96862480Y552540D03*
G04 #@! TD*
G04 #@! TO.C,H3*
X124862480Y552540D03*
G04 #@! TD*
G04 #@! TO.C,H2*
X124862480Y-27447460D03*
G04 #@! TD*
G04 #@! TO.C,H1*
X96862480Y-27447460D03*
G04 #@! TD*
G04 #@! TO.C,R27*
G36*
G01*
X124569480Y-12531610D02*
X124569480Y-13084110D01*
G75*
G02*
X124368230Y-13285360I-201250J0D01*
G01*
X123965730Y-13285360D01*
G75*
G02*
X123764480Y-13084110I0J201250D01*
G01*
X123764480Y-12531610D01*
G75*
G02*
X123965730Y-12330360I201250J0D01*
G01*
X124368230Y-12330360D01*
G75*
G02*
X124569480Y-12531610I0J-201250D01*
G01*
G37*
G36*
G01*
X122919480Y-12531610D02*
X122919480Y-13084110D01*
G75*
G02*
X122718230Y-13285360I-201250J0D01*
G01*
X122315730Y-13285360D01*
G75*
G02*
X122114480Y-13084110I0J201250D01*
G01*
X122114480Y-12531610D01*
G75*
G02*
X122315730Y-12330360I201250J0D01*
G01*
X122718230Y-12330360D01*
G75*
G02*
X122919480Y-12531610I0J-201250D01*
G01*
G37*
G04 #@! TD*
G04 #@! TO.C,R7*
G36*
G01*
X97845280Y-4448110D02*
X97845280Y-3895610D01*
G75*
G02*
X98046530Y-3694360I201250J0D01*
G01*
X98449030Y-3694360D01*
G75*
G02*
X98650280Y-3895610I0J-201250D01*
G01*
X98650280Y-4448110D01*
G75*
G02*
X98449030Y-4649360I-201250J0D01*
G01*
X98046530Y-4649360D01*
G75*
G02*
X97845280Y-4448110I0J201250D01*
G01*
G37*
G36*
G01*
X99495280Y-4448110D02*
X99495280Y-3895610D01*
G75*
G02*
X99696530Y-3694360I201250J0D01*
G01*
X100099030Y-3694360D01*
G75*
G02*
X100300280Y-3895610I0J-201250D01*
G01*
X100300280Y-4448110D01*
G75*
G02*
X100099030Y-4649360I-201250J0D01*
G01*
X99696530Y-4649360D01*
G75*
G02*
X99495280Y-4448110I0J201250D01*
G01*
G37*
G04 #@! TD*
G04 #@! TO.C,R6*
G36*
G01*
X97213980Y-2231910D02*
X97213980Y-2784410D01*
G75*
G02*
X97012730Y-2985660I-201250J0D01*
G01*
X96610230Y-2985660D01*
G75*
G02*
X96408980Y-2784410I0J201250D01*
G01*
X96408980Y-2231910D01*
G75*
G02*
X96610230Y-2030660I201250J0D01*
G01*
X97012730Y-2030660D01*
G75*
G02*
X97213980Y-2231910I0J-201250D01*
G01*
G37*
G36*
G01*
X95563980Y-2231910D02*
X95563980Y-2784410D01*
G75*
G02*
X95362730Y-2985660I-201250J0D01*
G01*
X94960230Y-2985660D01*
G75*
G02*
X94758980Y-2784410I0J201250D01*
G01*
X94758980Y-2231910D01*
G75*
G02*
X94960230Y-2030660I201250J0D01*
G01*
X95362730Y-2030660D01*
G75*
G02*
X95563980Y-2231910I0J-201250D01*
G01*
G37*
G04 #@! TD*
G04 #@! TO.C,R3*
G36*
G01*
X122114480Y-10518710D02*
X122114480Y-9966210D01*
G75*
G02*
X122315730Y-9764960I201250J0D01*
G01*
X122718230Y-9764960D01*
G75*
G02*
X122919480Y-9966210I0J-201250D01*
G01*
X122919480Y-10518710D01*
G75*
G02*
X122718230Y-10719960I-201250J0D01*
G01*
X122315730Y-10719960D01*
G75*
G02*
X122114480Y-10518710I0J201250D01*
G01*
G37*
G36*
G01*
X123764480Y-10518710D02*
X123764480Y-9966210D01*
G75*
G02*
X123965730Y-9764960I201250J0D01*
G01*
X124368230Y-9764960D01*
G75*
G02*
X124569480Y-9966210I0J-201250D01*
G01*
X124569480Y-10518710D01*
G75*
G02*
X124368230Y-10719960I-201250J0D01*
G01*
X123965730Y-10719960D01*
G75*
G02*
X123764480Y-10518710I0J201250D01*
G01*
G37*
G04 #@! TD*
G04 #@! TO.C,R1*
G36*
G01*
X122113980Y-8994710D02*
X122113980Y-8442210D01*
G75*
G02*
X122315230Y-8240960I201250J0D01*
G01*
X122717730Y-8240960D01*
G75*
G02*
X122918980Y-8442210I0J-201250D01*
G01*
X122918980Y-8994710D01*
G75*
G02*
X122717730Y-9195960I-201250J0D01*
G01*
X122315230Y-9195960D01*
G75*
G02*
X122113980Y-8994710I0J201250D01*
G01*
G37*
G36*
G01*
X123763980Y-8994710D02*
X123763980Y-8442210D01*
G75*
G02*
X123965230Y-8240960I201250J0D01*
G01*
X124367730Y-8240960D01*
G75*
G02*
X124568980Y-8442210I0J-201250D01*
G01*
X124568980Y-8994710D01*
G75*
G02*
X124367730Y-9195960I-201250J0D01*
G01*
X123965230Y-9195960D01*
G75*
G02*
X123763980Y-8994710I0J201250D01*
G01*
G37*
G04 #@! TD*
G04 #@! TO.C,D4*
G36*
G01*
X80317300Y-39600D02*
X80317300Y875400D01*
G75*
G02*
X80562300Y1120400I245000J0D01*
G01*
X81052300Y1120400D01*
G75*
G02*
X81297300Y875400I0J-245000D01*
G01*
X81297300Y-39600D01*
G75*
G02*
X81052300Y-284600I-245000J0D01*
G01*
X80562300Y-284600D01*
G75*
G02*
X80317300Y-39600I0J245000D01*
G01*
G37*
G36*
G01*
X82192300Y-39600D02*
X82192300Y875400D01*
G75*
G02*
X82437300Y1120400I245000J0D01*
G01*
X82927300Y1120400D01*
G75*
G02*
X83172300Y875400I0J-245000D01*
G01*
X83172300Y-39600D01*
G75*
G02*
X82927300Y-284600I-245000J0D01*
G01*
X82437300Y-284600D01*
G75*
G02*
X82192300Y-39600I0J245000D01*
G01*
G37*
G04 #@! TD*
G04 #@! TO.C,D3*
G36*
G01*
X66598200Y-39600D02*
X66598200Y875400D01*
G75*
G02*
X66843200Y1120400I245000J0D01*
G01*
X67333200Y1120400D01*
G75*
G02*
X67578200Y875400I0J-245000D01*
G01*
X67578200Y-39600D01*
G75*
G02*
X67333200Y-284600I-245000J0D01*
G01*
X66843200Y-284600D01*
G75*
G02*
X66598200Y-39600I0J245000D01*
G01*
G37*
G36*
G01*
X68473200Y-39600D02*
X68473200Y875400D01*
G75*
G02*
X68718200Y1120400I245000J0D01*
G01*
X69208200Y1120400D01*
G75*
G02*
X69453200Y875400I0J-245000D01*
G01*
X69453200Y-39600D01*
G75*
G02*
X69208200Y-284600I-245000J0D01*
G01*
X68718200Y-284600D01*
G75*
G02*
X68473200Y-39600I0J245000D01*
G01*
G37*
G04 #@! TD*
G04 #@! TO.C,C26*
G36*
G01*
X124387480Y-21013960D02*
X124889980Y-21013960D01*
G75*
G02*
X125116230Y-21240210I0J-226250D01*
G01*
X125116230Y-21692710D01*
G75*
G02*
X124889980Y-21918960I-226250J0D01*
G01*
X124387480Y-21918960D01*
G75*
G02*
X124161230Y-21692710I0J226250D01*
G01*
X124161230Y-21240210D01*
G75*
G02*
X124387480Y-21013960I226250J0D01*
G01*
G37*
G36*
G01*
X124387480Y-22563960D02*
X124889980Y-22563960D01*
G75*
G02*
X125116230Y-22790210I0J-226250D01*
G01*
X125116230Y-23242710D01*
G75*
G02*
X124889980Y-23468960I-226250J0D01*
G01*
X124387480Y-23468960D01*
G75*
G02*
X124161230Y-23242710I0J226250D01*
G01*
X124161230Y-22790210D01*
G75*
G02*
X124387480Y-22563960I226250J0D01*
G01*
G37*
G04 #@! TD*
G04 #@! TO.C,C25*
G36*
G01*
X122695730Y-21013960D02*
X123198230Y-21013960D01*
G75*
G02*
X123424480Y-21240210I0J-226250D01*
G01*
X123424480Y-21692710D01*
G75*
G02*
X123198230Y-21918960I-226250J0D01*
G01*
X122695730Y-21918960D01*
G75*
G02*
X122469480Y-21692710I0J226250D01*
G01*
X122469480Y-21240210D01*
G75*
G02*
X122695730Y-21013960I226250J0D01*
G01*
G37*
G36*
G01*
X122695730Y-22563960D02*
X123198230Y-22563960D01*
G75*
G02*
X123424480Y-22790210I0J-226250D01*
G01*
X123424480Y-23242710D01*
G75*
G02*
X123198230Y-23468960I-226250J0D01*
G01*
X122695730Y-23468960D01*
G75*
G02*
X122469480Y-23242710I0J226250D01*
G01*
X122469480Y-22790210D01*
G75*
G02*
X122695730Y-22563960I226250J0D01*
G01*
G37*
G04 #@! TD*
G04 #@! TO.C,C5*
G36*
G01*
X97213380Y-3933310D02*
X97213380Y-4435810D01*
G75*
G02*
X96987130Y-4662060I-226250J0D01*
G01*
X96534630Y-4662060D01*
G75*
G02*
X96308380Y-4435810I0J226250D01*
G01*
X96308380Y-3933310D01*
G75*
G02*
X96534630Y-3707060I226250J0D01*
G01*
X96987130Y-3707060D01*
G75*
G02*
X97213380Y-3933310I0J-226250D01*
G01*
G37*
G36*
G01*
X95663380Y-3933310D02*
X95663380Y-4435810D01*
G75*
G02*
X95437130Y-4662060I-226250J0D01*
G01*
X94984630Y-4662060D01*
G75*
G02*
X94758380Y-4435810I0J226250D01*
G01*
X94758380Y-3933310D01*
G75*
G02*
X94984630Y-3707060I226250J0D01*
G01*
X95437130Y-3707060D01*
G75*
G02*
X95663380Y-3933310I0J-226250D01*
G01*
G37*
G04 #@! TD*
G04 #@! TO.C,C1*
G36*
G01*
X122399980Y-20116710D02*
X122399980Y-19164210D01*
G75*
G02*
X122651230Y-18912960I251250J0D01*
G01*
X123153730Y-18912960D01*
G75*
G02*
X123404980Y-19164210I0J-251250D01*
G01*
X123404980Y-20116710D01*
G75*
G02*
X123153730Y-20367960I-251250J0D01*
G01*
X122651230Y-20367960D01*
G75*
G02*
X122399980Y-20116710I0J251250D01*
G01*
G37*
G36*
G01*
X124299980Y-20116710D02*
X124299980Y-19164210D01*
G75*
G02*
X124551230Y-18912960I251250J0D01*
G01*
X125053730Y-18912960D01*
G75*
G02*
X125304980Y-19164210I0J-251250D01*
G01*
X125304980Y-20116710D01*
G75*
G02*
X125053730Y-20367960I-251250J0D01*
G01*
X124551230Y-20367960D01*
G75*
G02*
X124299980Y-20116710I0J251250D01*
G01*
G37*
G04 #@! TD*
D13*
G04 #@! TO.C,J5*
X62157200Y-18798300D03*
X62157200Y-14398300D03*
G04 #@! TD*
G04 #@! TO.C,SW4*
G36*
G01*
X67251020Y-21026620D02*
X67251020Y-20026620D01*
G75*
G02*
X67253520Y-20024120I2500J0D01*
G01*
X68153520Y-20024120D01*
G75*
G02*
X68156020Y-20026620I0J-2500D01*
G01*
X68156020Y-21026620D01*
G75*
G02*
X68153520Y-21029120I-2500J0D01*
G01*
X67253520Y-21029120D01*
G75*
G02*
X67251020Y-21026620I0J2500D01*
G01*
G37*
G36*
G01*
X64056020Y-20026620D02*
X64056020Y-21026620D01*
G75*
G02*
X64053520Y-21029120I-2500J0D01*
G01*
X63153520Y-21029120D01*
G75*
G02*
X63151020Y-21026620I0J2500D01*
G01*
X63151020Y-20026620D01*
G75*
G02*
X63153520Y-20024120I2500J0D01*
G01*
X64053520Y-20024120D01*
G75*
G02*
X64056020Y-20026620I0J-2500D01*
G01*
G37*
G36*
G01*
X64056020Y-21657620D02*
X64056020Y-22657620D01*
G75*
G02*
X64053520Y-22660120I-2500J0D01*
G01*
X63153520Y-22660120D01*
G75*
G02*
X63151020Y-22657620I0J2500D01*
G01*
X63151020Y-21657620D01*
G75*
G02*
X63153520Y-21655120I2500J0D01*
G01*
X64053520Y-21655120D01*
G75*
G02*
X64056020Y-21657620I0J-2500D01*
G01*
G37*
G36*
G01*
X68156020Y-21657620D02*
X68156020Y-22657620D01*
G75*
G02*
X68153520Y-22660120I-2500J0D01*
G01*
X67253520Y-22660120D01*
G75*
G02*
X67251020Y-22657620I0J2500D01*
G01*
X67251020Y-21657620D01*
G75*
G02*
X67253520Y-21655120I2500J0D01*
G01*
X68153520Y-21655120D01*
G75*
G02*
X68156020Y-21657620I0J-2500D01*
G01*
G37*
G04 #@! TD*
G04 #@! TO.C,SW5*
G36*
G01*
X85827920Y-21026620D02*
X85827920Y-20026620D01*
G75*
G02*
X85830420Y-20024120I2500J0D01*
G01*
X86730420Y-20024120D01*
G75*
G02*
X86732920Y-20026620I0J-2500D01*
G01*
X86732920Y-21026620D01*
G75*
G02*
X86730420Y-21029120I-2500J0D01*
G01*
X85830420Y-21029120D01*
G75*
G02*
X85827920Y-21026620I0J2500D01*
G01*
G37*
G36*
G01*
X82632920Y-20026620D02*
X82632920Y-21026620D01*
G75*
G02*
X82630420Y-21029120I-2500J0D01*
G01*
X81730420Y-21029120D01*
G75*
G02*
X81727920Y-21026620I0J2500D01*
G01*
X81727920Y-20026620D01*
G75*
G02*
X81730420Y-20024120I2500J0D01*
G01*
X82630420Y-20024120D01*
G75*
G02*
X82632920Y-20026620I0J-2500D01*
G01*
G37*
G36*
G01*
X82632920Y-21657620D02*
X82632920Y-22657620D01*
G75*
G02*
X82630420Y-22660120I-2500J0D01*
G01*
X81730420Y-22660120D01*
G75*
G02*
X81727920Y-22657620I0J2500D01*
G01*
X81727920Y-21657620D01*
G75*
G02*
X81730420Y-21655120I2500J0D01*
G01*
X82630420Y-21655120D01*
G75*
G02*
X82632920Y-21657620I0J-2500D01*
G01*
G37*
G36*
G01*
X86732920Y-21657620D02*
X86732920Y-22657620D01*
G75*
G02*
X86730420Y-22660120I-2500J0D01*
G01*
X85830420Y-22660120D01*
G75*
G02*
X85827920Y-22657620I0J2500D01*
G01*
X85827920Y-21657620D01*
G75*
G02*
X85830420Y-21655120I2500J0D01*
G01*
X86730420Y-21655120D01*
G75*
G02*
X86732920Y-21657620I0J-2500D01*
G01*
G37*
G04 #@! TD*
G04 #@! TO.C,SW6*
G36*
G01*
X77207670Y-21657620D02*
X77207670Y-22657620D01*
G75*
G02*
X77205170Y-22660120I-2500J0D01*
G01*
X76305170Y-22660120D01*
G75*
G02*
X76302670Y-22657620I0J2500D01*
G01*
X76302670Y-21657620D01*
G75*
G02*
X76305170Y-21655120I2500J0D01*
G01*
X77205170Y-21655120D01*
G75*
G02*
X77207670Y-21657620I0J-2500D01*
G01*
G37*
G36*
G01*
X73107670Y-21657620D02*
X73107670Y-22657620D01*
G75*
G02*
X73105170Y-22660120I-2500J0D01*
G01*
X72205170Y-22660120D01*
G75*
G02*
X72202670Y-22657620I0J2500D01*
G01*
X72202670Y-21657620D01*
G75*
G02*
X72205170Y-21655120I2500J0D01*
G01*
X73105170Y-21655120D01*
G75*
G02*
X73107670Y-21657620I0J-2500D01*
G01*
G37*
G36*
G01*
X73107670Y-20026620D02*
X73107670Y-21026620D01*
G75*
G02*
X73105170Y-21029120I-2500J0D01*
G01*
X72205170Y-21029120D01*
G75*
G02*
X72202670Y-21026620I0J2500D01*
G01*
X72202670Y-20026620D01*
G75*
G02*
X72205170Y-20024120I2500J0D01*
G01*
X73105170Y-20024120D01*
G75*
G02*
X73107670Y-20026620I0J-2500D01*
G01*
G37*
G36*
G01*
X76302670Y-21026620D02*
X76302670Y-20026620D01*
G75*
G02*
X76305170Y-20024120I2500J0D01*
G01*
X77205170Y-20024120D01*
G75*
G02*
X77207670Y-20026620I0J-2500D01*
G01*
X77207670Y-21026620D01*
G75*
G02*
X77205170Y-21029120I-2500J0D01*
G01*
X76305170Y-21029120D01*
G75*
G02*
X76302670Y-21026620I0J2500D01*
G01*
G37*
G04 #@! TD*
M02*
