%TF.GenerationSoftware,KiCad,Pcbnew,(5.1.8)-1*%
%TF.CreationDate,2021-06-20T20:47:25+01:00*%
%TF.ProjectId,schem_1,73636865-6d5f-4312-9e6b-696361645f70,rev?*%
%TF.SameCoordinates,Original*%
%TF.FileFunction,Copper,L3,Inr*%
%TF.FilePolarity,Positive*%
%FSLAX45Y45*%
G04 Gerber Fmt 4.5, Leading zero omitted, Abs format (unit mm)*
G04 Created by KiCad (PCBNEW (5.1.8)-1) date 2021-06-20 20:47:25*
%MOMM*%
%LPD*%
G01*
G04 APERTURE LIST*
%TA.AperFunction,ComponentPad*%
%ADD10C,2.500000*%
%TD*%
%TA.AperFunction,ViaPad*%
%ADD11C,0.800000*%
%TD*%
%TA.AperFunction,ViaPad*%
%ADD12C,0.400000*%
%TD*%
%TA.AperFunction,Conductor*%
%ADD13C,0.150000*%
%TD*%
%TA.AperFunction,Conductor*%
%ADD14C,0.250000*%
%TD*%
%TA.AperFunction,Conductor*%
%ADD15C,0.254000*%
%TD*%
%TA.AperFunction,Conductor*%
%ADD16C,0.100000*%
%TD*%
G04 APERTURE END LIST*
D10*
%TO.N,GND*%
%TO.C,C2*%
X6871280Y-2791720D03*
%TO.N,Net-(C2-Pad1)*%
X8071280Y-2791720D03*
%TD*%
D11*
%TO.N,GND*%
X9069280Y-2918720D03*
X9069280Y-2664720D03*
X9069280Y-2410720D03*
X9069280Y-2156720D03*
X9069280Y-1902720D03*
X9069280Y-1648720D03*
X9069280Y-1394720D03*
X9069280Y-1140720D03*
X9069280Y-886720D03*
X9069280Y-632720D03*
X9069280Y-378720D03*
X9069280Y-124720D03*
X8942280Y256280D03*
X8688280Y256280D03*
X8434280Y256280D03*
X5957780Y-124720D03*
X5957780Y-378720D03*
X5957780Y-696220D03*
X5957780Y-950220D03*
X5957780Y-1458220D03*
X6465780Y192780D03*
X6211780Y192780D03*
X5957780Y192780D03*
X12673288Y244484D03*
X9612588Y-2440296D03*
X9866588Y-2440296D03*
X10120588Y-2440296D03*
X10374588Y-2440296D03*
X10628588Y-2440296D03*
X10882588Y-2440296D03*
X11136588Y-2440296D03*
X11390588Y-2440296D03*
X11644588Y-2440296D03*
X11898588Y-2440296D03*
X12152588Y-2440296D03*
X12406588Y-2440296D03*
X9491938Y-2566026D03*
X9493208Y-2908926D03*
X12673288Y-9516D03*
X12673288Y-771516D03*
X12673288Y-1279516D03*
X12673288Y-1533516D03*
X12673288Y-1787516D03*
X12673288Y-2041516D03*
X12673288Y-2295516D03*
X12673288Y-2549516D03*
X12673288Y-2803516D03*
X10745428Y-283836D03*
X10816548Y-86986D03*
X11073088Y-86986D03*
X11329628Y-86986D03*
X11586168Y-86986D03*
X11753808Y-266056D03*
X10950152Y-1370280D03*
X11256476Y-608702D03*
D12*
X9823967Y-1754852D03*
X10048408Y-1349335D03*
D11*
X12688528Y-1035422D03*
X9483048Y-2218046D03*
X9546548Y258454D03*
X9800548Y258454D03*
X10054548Y258454D03*
X10308548Y258454D03*
X11769048Y258454D03*
X12086548Y258454D03*
X12340548Y258454D03*
X9483048Y-694046D03*
X11515048Y258454D03*
X11007048Y258454D03*
X10816548Y258454D03*
X11007048Y67954D03*
X11451548Y67954D03*
X7390620Y-2806820D03*
X7503650Y-2654420D03*
X6472410Y-2836030D03*
X7981170Y-486530D03*
X8002760Y-1982590D03*
X5957780Y-1712220D03*
X5957780Y-1902720D03*
X5957780Y-2347220D03*
X5957780Y-2601220D03*
X8307280Y-2855220D03*
X8561280Y-2855220D03*
D12*
X9851068Y-1435866D03*
D11*
X7173450Y-416820D03*
%TO.N,+3V3*%
X12389824Y-1508878D03*
X11285178Y-1113146D03*
X9798008Y-161916D03*
X10727351Y-1718979D03*
X10700216Y-2062090D03*
X12327340Y-1817234D03*
X12416698Y-1424600D03*
X11183350Y-676912D03*
X9760924Y-1474334D03*
X10444692Y-224654D03*
X12321244Y-1155310D03*
X8440402Y-1777866D03*
X8436287Y-1623285D03*
X6347950Y-104260D03*
X6156180Y-983100D03*
X7400780Y-543680D03*
X7314420Y-544950D03*
X7226790Y-542410D03*
X7902540Y-1221860D03*
X7465550Y-1715890D03*
X7065500Y-1313300D03*
X8442942Y-1694046D03*
D12*
%TO.N,/CSI_PCLK*%
X10097728Y-2084696D03*
X9866588Y-1944996D03*
%TO.N,/CAM_RST*%
X9730698Y-562846D03*
X9753558Y-1053566D03*
D11*
%TO.N,/ESP32_RST*%
X12209738Y-1713856D03*
%TO.N,+2V8*%
X10094172Y-1032374D03*
D12*
%TO.N,+1V2*%
X11056578Y-2078346D03*
X11056578Y-2027546D03*
X10353452Y-1437176D03*
X9716476Y-1352346D03*
X10376848Y-1479046D03*
X9753266Y-1381268D03*
D11*
%TO.N,Net-(C17-Pad1)*%
X8014190Y-1604130D03*
%TO.N,Net-(C17-Pad2)*%
X7903700Y-1466970D03*
%TO.N,Net-(C18-Pad2)*%
X8303750Y-1359020D03*
%TO.N,Net-(C18-Pad1)*%
X8231250Y-1461890D03*
%TO.N,Net-(C21-Pad1)*%
X8492980Y-496690D03*
%TO.N,Net-(C22-Pad1)*%
X8426940Y-351910D03*
%TO.N,Net-(D3-Pad2)*%
X6892780Y-160140D03*
%TO.N,Net-(D4-Pad2)*%
X6681960Y-376040D03*
D12*
%TO.N,/CSI_D2*%
X9592268Y-1952346D03*
X10092648Y-1480176D03*
%TO.N,/CSI_D1*%
X10102383Y-1251286D03*
X9739588Y-1933566D03*
X9787400Y-1301835D03*
%TO.N,/CSI_D3*%
X10091378Y-1762116D03*
X9712407Y-1878956D03*
%TO.N,Net-(J1-Pad6)*%
X9664658Y-1833236D03*
X10646368Y-1701156D03*
X10687008Y-1017642D03*
%TO.N,/CSI_D4*%
X11878268Y-1922136D03*
X9809641Y-1963892D03*
%TO.N,/CSI_D5*%
X9866588Y-1847463D03*
X11623988Y-1827026D03*
%TO.N,/CSI_D6*%
X11865568Y-1647816D03*
X9863540Y-1651118D03*
%TO.N,/CSI_MCLK*%
X9614398Y-1504846D03*
X10072328Y-648326D03*
%TO.N,/CSI_D7*%
X11836358Y-1537326D03*
X9861228Y-1552706D03*
%TO.N,Net-(J1-Pad17)*%
X9989778Y-546726D03*
X9808803Y-1159501D03*
%TO.N,/CSI_VSYNC*%
X11864298Y-1162676D03*
X10115508Y-1311266D03*
%TO.N,/TWI_SCK*%
X11869378Y-921376D03*
X10079948Y-1136006D03*
%TO.N,/TWI_SDA*%
X10088838Y-937886D03*
X11267144Y-1000370D03*
D11*
%TO.N,/HS2_DATA1*%
X11590170Y-683886D03*
%TO.N,/HS2_DATA0*%
X10780988Y-516246D03*
%TO.N,/HS2_CLK*%
X11358838Y-667376D03*
%TO.N,/HS2_CMD*%
X11066738Y-672456D03*
%TO.N,/HS2_DATA3*%
X11095948Y-560696D03*
%TO.N,/HS2_DATA2*%
X11382968Y-516246D03*
D12*
%TO.N,/SCL*%
X10387288Y-1576696D03*
D11*
X7556990Y-1019930D03*
X8283430Y-1118990D03*
%TO.N,/U0TXD*%
X11795718Y-1718746D03*
X10469797Y-2013830D03*
D12*
%TO.N,/CSI_D0*%
X10419038Y-1114416D03*
%TO.N,/CAM_PWR*%
X11045148Y-2155816D03*
D11*
%TO.N,/I2C OLED/OLED_RESET*%
X7703040Y-1038980D03*
%TO.N,Net-(R21-Pad1)*%
X7308070Y-1004690D03*
%TO.N,/GPIO Expander/Vusb_detect*%
X6993110Y-1068190D03*
X7786860Y-285870D03*
%TO.N,/GPIO Expander/LED_RECORDING*%
X7144240Y-233800D03*
X6685770Y-227450D03*
D12*
%TO.N,/SDA*%
X11878268Y-1283326D03*
X10104078Y-1371716D03*
D11*
X7428720Y-1042790D03*
X8247064Y-900417D03*
%TO.N,/GPIO Expander/BTN_DOWN*%
X8019270Y-132200D03*
X6923260Y-2161660D03*
%TO.N,/GPIO Expander/BTN_UP*%
X8128490Y-161410D03*
X8426940Y-2230240D03*
%TO.N,/GPIO Expander/BTN_OK*%
X7830040Y-2147690D03*
X8028160Y-294760D03*
%TO.N,/5V_USB_SC*%
X11788317Y-1405465D03*
X10089748Y-1928486D03*
D12*
X10511622Y-1861011D03*
D11*
X6333980Y-1932662D03*
X8479010Y-1907914D03*
X8397730Y-1907914D03*
X8315180Y-1907914D03*
X6665450Y-1421250D03*
X6471140Y-2695060D03*
X6765780Y-2579490D03*
D12*
X10420028Y-1860256D03*
X10465748Y-1860045D03*
%TD*%
D13*
%TO.N,/CSI_PCLK*%
X10097728Y-2084696D02*
X10006288Y-2084696D01*
X10006288Y-2084696D02*
X9866588Y-1944996D01*
%TO.N,/CAM_RST*%
X9753558Y-585706D02*
X9730698Y-562846D01*
X9753558Y-1053566D02*
X9753558Y-585706D01*
%TO.N,+1V2*%
X9743435Y-1379561D02*
X9716220Y-1352346D01*
X10376848Y-1460572D02*
X10360364Y-1444088D01*
X10376848Y-1479046D02*
X10376848Y-1460572D01*
X9925768Y-1432676D02*
X10348952Y-1432676D01*
X10348952Y-1432676D02*
X10353452Y-1437176D01*
X9753266Y-1381268D02*
X9875947Y-1382855D01*
X9875947Y-1382855D02*
X9925768Y-1432676D01*
%TO.N,/CSI_D2*%
X10072648Y-1500176D02*
X10092648Y-1480176D01*
X9840098Y-1500176D02*
X10072648Y-1500176D01*
X9592268Y-1952346D02*
X9592268Y-1748006D01*
X9592268Y-1748006D02*
X9840098Y-1500176D01*
%TO.N,/CSI_D1*%
X9815684Y-1301835D02*
X9787400Y-1301835D01*
X10051834Y-1301835D02*
X9815684Y-1301835D01*
X10102383Y-1251286D02*
X10051834Y-1301835D01*
%TO.N,/CSI_D3*%
X9761686Y-1878956D02*
X9712407Y-1878956D01*
X9840680Y-1799962D02*
X9761686Y-1878956D01*
X10053532Y-1799962D02*
X9840680Y-1799962D01*
X10091378Y-1762116D02*
X10053532Y-1799962D01*
%TO.N,Net-(J1-Pad6)*%
X9796738Y-1701156D02*
X9664658Y-1833236D01*
X10646368Y-1701156D02*
X9796738Y-1701156D01*
%TO.N,/CSI_D4*%
X11040068Y-1922136D02*
X11878268Y-1922136D01*
X10814262Y-2147942D02*
X11040068Y-1922136D01*
X9967680Y-2147942D02*
X10814262Y-2147942D01*
X9809641Y-1989903D02*
X9967680Y-2147942D01*
X9809641Y-1963892D02*
X9809641Y-1989903D01*
%TO.N,/CSI_D5*%
X10164276Y-1788278D02*
X11280440Y-1788278D01*
X10105091Y-1847463D02*
X10164276Y-1788278D01*
X9866588Y-1847463D02*
X10105091Y-1847463D01*
X11361720Y-1788278D02*
X11405548Y-1832106D01*
X11280440Y-1788278D02*
X11361720Y-1788278D01*
X11618908Y-1832106D02*
X11623988Y-1827026D01*
X11405548Y-1832106D02*
X11618908Y-1832106D01*
%TO.N,/CSI_D6*%
X11865568Y-1647816D02*
X9866842Y-1647816D01*
X9866842Y-1647816D02*
X9863540Y-1651118D01*
%TO.N,/CSI_MCLK*%
X9998668Y-721986D02*
X10072328Y-648326D01*
X9997086Y-1041518D02*
X9998668Y-1041518D01*
X9826906Y-1211698D02*
X9997086Y-1041518D01*
X9998668Y-1041518D02*
X9998668Y-721986D01*
X9710124Y-1211698D02*
X9826906Y-1211698D01*
X9631384Y-1290438D02*
X9710124Y-1211698D01*
X9631384Y-1487860D02*
X9631384Y-1290438D01*
X9614398Y-1504846D02*
X9631384Y-1487860D01*
%TO.N,/CSI_D7*%
X10088952Y-1552706D02*
X9861228Y-1552706D01*
X10115000Y-1526658D02*
X10088952Y-1552706D01*
X11836358Y-1537326D02*
X11825690Y-1526658D01*
X11825690Y-1526658D02*
X10115000Y-1526658D01*
%TO.N,Net-(J1-Pad17)*%
X9852618Y-683886D02*
X9989778Y-546726D01*
X9852618Y-1115686D02*
X9852618Y-683886D01*
X9808058Y-1160246D02*
X9808803Y-1159501D01*
X9808803Y-1159501D02*
X9852618Y-1115686D01*
%TO.N,/CSI_VSYNC*%
X11864298Y-1162676D02*
X11746696Y-1280278D01*
X10135508Y-1291266D02*
X10115508Y-1311266D01*
X11004755Y-1267778D02*
X10158996Y-1267778D01*
X10158996Y-1267778D02*
X10135508Y-1291266D01*
X11017255Y-1280278D02*
X11004755Y-1267778D01*
X11746696Y-1280278D02*
X11017255Y-1280278D01*
%TO.N,/TWI_SCK*%
X10297118Y-1136006D02*
X10079948Y-1136006D01*
X10342518Y-1181406D02*
X10297118Y-1136006D01*
X11609348Y-1181406D02*
X10342518Y-1181406D01*
X11869378Y-921376D02*
X11609348Y-1181406D01*
%TO.N,/TWI_SDA*%
X10088838Y-937886D02*
X11204660Y-937886D01*
X11204660Y-937886D02*
X11267144Y-1000370D01*
D14*
%TO.N,/U0TXD*%
X10620460Y-2013830D02*
X10469797Y-2013830D01*
X10753932Y-1880358D02*
X10620460Y-2013830D01*
X11727260Y-1880358D02*
X10753932Y-1880358D01*
X11795718Y-1811900D02*
X11727260Y-1880358D01*
X11795718Y-1718746D02*
X11795718Y-1811900D01*
%TO.N,/GPIO Expander/Vusb_detect*%
X6993110Y-1068190D02*
X7775430Y-285870D01*
X7775430Y-285870D02*
X7786860Y-285870D01*
%TO.N,/GPIO Expander/LED_RECORDING*%
X6692120Y-233800D02*
X6685770Y-227450D01*
X7144240Y-233800D02*
X6692120Y-233800D01*
D13*
%TO.N,/SDA*%
X11844740Y-1316854D02*
X11858268Y-1303326D01*
X11858268Y-1303326D02*
X11878268Y-1283326D01*
X11004332Y-1316854D02*
X11844740Y-1316854D01*
X10644846Y-1371716D02*
X10713783Y-1302779D01*
X10990257Y-1302779D02*
X11004332Y-1316854D01*
X10104078Y-1371716D02*
X10644846Y-1371716D01*
X10713783Y-1302779D02*
X10990257Y-1302779D01*
D14*
%TO.N,/GPIO Expander/BTN_DOWN*%
X6923260Y-1259819D02*
X6923260Y-2161660D01*
X8019270Y-163809D02*
X6923260Y-1259819D01*
X8019270Y-132200D02*
X8019270Y-163809D01*
%TO.N,/GPIO Expander/BTN_UP*%
X8128490Y-1931790D02*
X8426940Y-2230240D01*
X8128490Y-161410D02*
X8128490Y-1931790D01*
%TO.N,/GPIO Expander/BTN_OK*%
X7986250Y-294760D02*
X8028160Y-294760D01*
X7830040Y-450970D02*
X7986250Y-294760D01*
X7830040Y-2147690D02*
X7830040Y-450970D01*
%TD*%
D15*
%TO.N,GND*%
X12750648Y-3004105D02*
X9437388Y-3004353D01*
X9437388Y-2843726D01*
X9437185Y-2841660D01*
X9437185Y-2840362D01*
X9437125Y-2839798D01*
X9434950Y-2820403D01*
X9434184Y-2816799D01*
X9433470Y-2813194D01*
X9433302Y-2812652D01*
X9427401Y-2794049D01*
X9425950Y-2790664D01*
X9424549Y-2787265D01*
X9424280Y-2786767D01*
X9424280Y-2786767D01*
X9424279Y-2786766D01*
X9414877Y-2769664D01*
X9413741Y-2768004D01*
X9420801Y-2760944D01*
X9427707Y-2750609D01*
X9432463Y-2739126D01*
X9434051Y-2731144D01*
X9548148Y-2731144D01*
X9548148Y-2758348D01*
X9553455Y-2785028D01*
X9563865Y-2810161D01*
X9578979Y-2832780D01*
X9598214Y-2852015D01*
X9620833Y-2867129D01*
X9645966Y-2877539D01*
X9672646Y-2882846D01*
X9699850Y-2882846D01*
X9726530Y-2877539D01*
X9751663Y-2867129D01*
X9774282Y-2852015D01*
X9793517Y-2832780D01*
X9808631Y-2810161D01*
X9819041Y-2785028D01*
X9824348Y-2758348D01*
X9824348Y-2731144D01*
X12348148Y-2731144D01*
X12348148Y-2758348D01*
X12353455Y-2785028D01*
X12363865Y-2810161D01*
X12378979Y-2832780D01*
X12398214Y-2852015D01*
X12420833Y-2867129D01*
X12445966Y-2877539D01*
X12472646Y-2882846D01*
X12499850Y-2882846D01*
X12526530Y-2877539D01*
X12551663Y-2867129D01*
X12574282Y-2852015D01*
X12593517Y-2832780D01*
X12608631Y-2810161D01*
X12619041Y-2785028D01*
X12624348Y-2758348D01*
X12624348Y-2731144D01*
X12619041Y-2704464D01*
X12608631Y-2679331D01*
X12593517Y-2656712D01*
X12574282Y-2637477D01*
X12551663Y-2622363D01*
X12526530Y-2611953D01*
X12499850Y-2606646D01*
X12472646Y-2606646D01*
X12445966Y-2611953D01*
X12420833Y-2622363D01*
X12398214Y-2637477D01*
X12378979Y-2656712D01*
X12363865Y-2679331D01*
X12353455Y-2704464D01*
X12348148Y-2731144D01*
X9824348Y-2731144D01*
X9819041Y-2704464D01*
X9808631Y-2679331D01*
X9793517Y-2656712D01*
X9774282Y-2637477D01*
X9751663Y-2622363D01*
X9726530Y-2611953D01*
X9699850Y-2606646D01*
X9672646Y-2606646D01*
X9645966Y-2611953D01*
X9620833Y-2622363D01*
X9598214Y-2637477D01*
X9578979Y-2656712D01*
X9563865Y-2679331D01*
X9553455Y-2704464D01*
X9548148Y-2731144D01*
X9434051Y-2731144D01*
X9434888Y-2726935D01*
X9434888Y-2714505D01*
X9432463Y-2702314D01*
X9427707Y-2690831D01*
X9422621Y-2683220D01*
X9427707Y-2675609D01*
X9432463Y-2664126D01*
X9434888Y-2651935D01*
X9434888Y-2639505D01*
X9432463Y-2627314D01*
X9427707Y-2615831D01*
X9422621Y-2608220D01*
X9427707Y-2600609D01*
X9432463Y-2589126D01*
X9434888Y-2576935D01*
X9434888Y-2564505D01*
X9432463Y-2552314D01*
X9427707Y-2540831D01*
X9420801Y-2530496D01*
X9413734Y-2523429D01*
X9415658Y-2520618D01*
X9415928Y-2520120D01*
X9415928Y-2520120D01*
X9415928Y-2520119D01*
X9425090Y-2502888D01*
X9426493Y-2499485D01*
X9427942Y-2496103D01*
X9428110Y-2495562D01*
X9433751Y-2476878D01*
X9434467Y-2473263D01*
X9435230Y-2469669D01*
X9435290Y-2469106D01*
X9435290Y-2469105D01*
X9435290Y-2469104D01*
X9437194Y-2449682D01*
X9437194Y-2449682D01*
X9437388Y-2447714D01*
X9437388Y-2043726D01*
X9437185Y-2041660D01*
X9437185Y-2040362D01*
X9437125Y-2039798D01*
X9434950Y-2020403D01*
X9434184Y-2016799D01*
X9433470Y-2013194D01*
X9433302Y-2012652D01*
X9427401Y-1994049D01*
X9425950Y-1990664D01*
X9424549Y-1987265D01*
X9424280Y-1986767D01*
X9424280Y-1986766D01*
X9424279Y-1986766D01*
X9414877Y-1969664D01*
X9413741Y-1968004D01*
X9420801Y-1960944D01*
X9427707Y-1950609D01*
X9429357Y-1946624D01*
X9534168Y-1946624D01*
X9534168Y-1958068D01*
X9536401Y-1969293D01*
X9540781Y-1979867D01*
X9547139Y-1989383D01*
X9555231Y-1997475D01*
X9564747Y-2003833D01*
X9575321Y-2008213D01*
X9586546Y-2010446D01*
X9597990Y-2010446D01*
X9609215Y-2008213D01*
X9619789Y-2003833D01*
X9629305Y-1997475D01*
X9637397Y-1989383D01*
X9643756Y-1979867D01*
X9648135Y-1969293D01*
X9650368Y-1958068D01*
X9650368Y-1946624D01*
X9648135Y-1935399D01*
X9643756Y-1924825D01*
X9637868Y-1916014D01*
X9637868Y-1885026D01*
X9647711Y-1889103D01*
X9655495Y-1890652D01*
X9656540Y-1895903D01*
X9660920Y-1906477D01*
X9667278Y-1915993D01*
X9675370Y-1924085D01*
X9681488Y-1928173D01*
X9681488Y-1939288D01*
X9683721Y-1950513D01*
X9688101Y-1961087D01*
X9694459Y-1970603D01*
X9702551Y-1978695D01*
X9712067Y-1985053D01*
X9722641Y-1989433D01*
X9733866Y-1991666D01*
X9745310Y-1991666D01*
X9756535Y-1989433D01*
X9757217Y-1989151D01*
X9758154Y-1991413D01*
X9764512Y-2000929D01*
X9765692Y-2002108D01*
X9767308Y-2007438D01*
X9769520Y-2011575D01*
X9771543Y-2015359D01*
X9775553Y-2020246D01*
X9777241Y-2022303D01*
X9778981Y-2023731D01*
X9933852Y-2178602D01*
X9935280Y-2180342D01*
X9942223Y-2186040D01*
X9950145Y-2190275D01*
X9958741Y-2192882D01*
X9965440Y-2193542D01*
X9965440Y-2193542D01*
X9967680Y-2193763D01*
X9969920Y-2193542D01*
X10812022Y-2193542D01*
X10814262Y-2193763D01*
X10816502Y-2193542D01*
X10816502Y-2193542D01*
X10823201Y-2192882D01*
X10831797Y-2190275D01*
X10839719Y-2186040D01*
X10846662Y-2180342D01*
X10848090Y-2178602D01*
X10998478Y-2028214D01*
X10998478Y-2033268D01*
X11000711Y-2044493D01*
X11004212Y-2052946D01*
X11000711Y-2061399D01*
X10998478Y-2072623D01*
X10998478Y-2084068D01*
X11000711Y-2095293D01*
X11005091Y-2105866D01*
X11008250Y-2110594D01*
X11008111Y-2110687D01*
X11000019Y-2118779D01*
X10993661Y-2128295D01*
X10989281Y-2138869D01*
X10987048Y-2150094D01*
X10987048Y-2161538D01*
X10989281Y-2172763D01*
X10993661Y-2183337D01*
X11000019Y-2192853D01*
X11008111Y-2200945D01*
X11017627Y-2207304D01*
X11028201Y-2211683D01*
X11039426Y-2213916D01*
X11050870Y-2213916D01*
X11062095Y-2211683D01*
X11072669Y-2207304D01*
X11082185Y-2200945D01*
X11090277Y-2192853D01*
X11096636Y-2183337D01*
X11101015Y-2172763D01*
X11103248Y-2161538D01*
X11103248Y-2150094D01*
X11101015Y-2138869D01*
X11096636Y-2128295D01*
X11093476Y-2123567D01*
X11093615Y-2123475D01*
X11101707Y-2115382D01*
X11108066Y-2105866D01*
X11112445Y-2095293D01*
X11114678Y-2084068D01*
X11114678Y-2072623D01*
X11112445Y-2061399D01*
X11108944Y-2052946D01*
X11112445Y-2044493D01*
X11114678Y-2033268D01*
X11114678Y-2021824D01*
X11112445Y-2010599D01*
X11108066Y-2000025D01*
X11101707Y-1990509D01*
X11093615Y-1982417D01*
X11084099Y-1976058D01*
X11073525Y-1971679D01*
X11062300Y-1969446D01*
X11057246Y-1969446D01*
X11058956Y-1967736D01*
X11841936Y-1967736D01*
X11850747Y-1973623D01*
X11861321Y-1978003D01*
X11872546Y-1980236D01*
X11883990Y-1980236D01*
X11895215Y-1978003D01*
X11905789Y-1973623D01*
X11915305Y-1967265D01*
X11923397Y-1959173D01*
X11929755Y-1949657D01*
X11934135Y-1939083D01*
X11936368Y-1927858D01*
X11936368Y-1916414D01*
X11934135Y-1905189D01*
X11929755Y-1894615D01*
X11923397Y-1885099D01*
X11915305Y-1877007D01*
X11905789Y-1870648D01*
X11895215Y-1866269D01*
X11883990Y-1864036D01*
X11872546Y-1864036D01*
X11861321Y-1866269D01*
X11850747Y-1870648D01*
X11841936Y-1876536D01*
X11802641Y-1876536D01*
X11829740Y-1849437D01*
X11831671Y-1847853D01*
X11837994Y-1840148D01*
X11842692Y-1831357D01*
X11845586Y-1821819D01*
X11846318Y-1814385D01*
X11846563Y-1811900D01*
X11846331Y-1809542D01*
X12249240Y-1809542D01*
X12249240Y-1824926D01*
X12252241Y-1840015D01*
X12258129Y-1854228D01*
X12266676Y-1867020D01*
X12277554Y-1877898D01*
X12290346Y-1886445D01*
X12304559Y-1892333D01*
X12319648Y-1895334D01*
X12335032Y-1895334D01*
X12350121Y-1892333D01*
X12364334Y-1886445D01*
X12377126Y-1877898D01*
X12388004Y-1867020D01*
X12396551Y-1854228D01*
X12402439Y-1840015D01*
X12405440Y-1824926D01*
X12405440Y-1809542D01*
X12402439Y-1794453D01*
X12396551Y-1780240D01*
X12388004Y-1767448D01*
X12377126Y-1756570D01*
X12364334Y-1748023D01*
X12350121Y-1742135D01*
X12335032Y-1739134D01*
X12319648Y-1739134D01*
X12304559Y-1742135D01*
X12290346Y-1748023D01*
X12277554Y-1756570D01*
X12266676Y-1767448D01*
X12258129Y-1780240D01*
X12252241Y-1794453D01*
X12249240Y-1809542D01*
X11846331Y-1809542D01*
X11846318Y-1809415D01*
X11846318Y-1778596D01*
X11856382Y-1768532D01*
X11864929Y-1755740D01*
X11870817Y-1741527D01*
X11873818Y-1726438D01*
X11873818Y-1711054D01*
X11872845Y-1706164D01*
X12131638Y-1706164D01*
X12131638Y-1721548D01*
X12134639Y-1736637D01*
X12140527Y-1750850D01*
X12149074Y-1763642D01*
X12159952Y-1774520D01*
X12172744Y-1783067D01*
X12186957Y-1788955D01*
X12202046Y-1791956D01*
X12217430Y-1791956D01*
X12232519Y-1788955D01*
X12246732Y-1783067D01*
X12259524Y-1774520D01*
X12270402Y-1763642D01*
X12278949Y-1750850D01*
X12284837Y-1736637D01*
X12287838Y-1721548D01*
X12287838Y-1706164D01*
X12284837Y-1691075D01*
X12278949Y-1676862D01*
X12270402Y-1664070D01*
X12259524Y-1653192D01*
X12246732Y-1644645D01*
X12232519Y-1638757D01*
X12217430Y-1635756D01*
X12202046Y-1635756D01*
X12186957Y-1638757D01*
X12172744Y-1644645D01*
X12159952Y-1653192D01*
X12149074Y-1664070D01*
X12140527Y-1676862D01*
X12134639Y-1691075D01*
X12131638Y-1706164D01*
X11872845Y-1706164D01*
X11872739Y-1705628D01*
X11882515Y-1703683D01*
X11893089Y-1699303D01*
X11902605Y-1692945D01*
X11910697Y-1684853D01*
X11917055Y-1675337D01*
X11921435Y-1664763D01*
X11923668Y-1653538D01*
X11923668Y-1642094D01*
X11921435Y-1630869D01*
X11917055Y-1620295D01*
X11910697Y-1610779D01*
X11902605Y-1602687D01*
X11893089Y-1596328D01*
X11882515Y-1591949D01*
X11871290Y-1589716D01*
X11861700Y-1589716D01*
X11863879Y-1588813D01*
X11873395Y-1582455D01*
X11881487Y-1574363D01*
X11887845Y-1564847D01*
X11892225Y-1554273D01*
X11894458Y-1543048D01*
X11894458Y-1531604D01*
X11892225Y-1520379D01*
X11887845Y-1509805D01*
X11882086Y-1501186D01*
X12311724Y-1501186D01*
X12311724Y-1516570D01*
X12314725Y-1531659D01*
X12320613Y-1545872D01*
X12329160Y-1558664D01*
X12340038Y-1569542D01*
X12352830Y-1578089D01*
X12367043Y-1583977D01*
X12382132Y-1586978D01*
X12397516Y-1586978D01*
X12412605Y-1583977D01*
X12426818Y-1578089D01*
X12439610Y-1569542D01*
X12450488Y-1558664D01*
X12459035Y-1545872D01*
X12464923Y-1531659D01*
X12467924Y-1516570D01*
X12467924Y-1501186D01*
X12464960Y-1486283D01*
X12466484Y-1485264D01*
X12477362Y-1474386D01*
X12485909Y-1461594D01*
X12491797Y-1447381D01*
X12494798Y-1432292D01*
X12494798Y-1416908D01*
X12491797Y-1401819D01*
X12485909Y-1387606D01*
X12477362Y-1374814D01*
X12466484Y-1363936D01*
X12453692Y-1355389D01*
X12439479Y-1349501D01*
X12424390Y-1346500D01*
X12409006Y-1346500D01*
X12393917Y-1349501D01*
X12379704Y-1355389D01*
X12366912Y-1363936D01*
X12356034Y-1374814D01*
X12347487Y-1387606D01*
X12341599Y-1401819D01*
X12338598Y-1416908D01*
X12338598Y-1432292D01*
X12341562Y-1447195D01*
X12340038Y-1448214D01*
X12329160Y-1459092D01*
X12320613Y-1471884D01*
X12314725Y-1486097D01*
X12311724Y-1501186D01*
X11882086Y-1501186D01*
X11881487Y-1500289D01*
X11873395Y-1492197D01*
X11863879Y-1485838D01*
X11853305Y-1481459D01*
X11842080Y-1479226D01*
X11830636Y-1479226D01*
X11821426Y-1481058D01*
X11808613Y-1481058D01*
X11811098Y-1480564D01*
X11825311Y-1474676D01*
X11838103Y-1466129D01*
X11848981Y-1455251D01*
X11857528Y-1442459D01*
X11863416Y-1428246D01*
X11866417Y-1413157D01*
X11866417Y-1397773D01*
X11863416Y-1382684D01*
X11857528Y-1368471D01*
X11853105Y-1361851D01*
X11853679Y-1361794D01*
X11862275Y-1359187D01*
X11870197Y-1354952D01*
X11877140Y-1349254D01*
X11878568Y-1347514D01*
X11884821Y-1341261D01*
X11895215Y-1339193D01*
X11905789Y-1334814D01*
X11915305Y-1328455D01*
X11923397Y-1320363D01*
X11929755Y-1310847D01*
X11934135Y-1300273D01*
X11936368Y-1289048D01*
X11936368Y-1277604D01*
X11934135Y-1266379D01*
X11929755Y-1255805D01*
X11923397Y-1246289D01*
X11915305Y-1238197D01*
X11905789Y-1231839D01*
X11895215Y-1227459D01*
X11883990Y-1225226D01*
X11872546Y-1225226D01*
X11864669Y-1226793D01*
X11870851Y-1220611D01*
X11881245Y-1218543D01*
X11891819Y-1214164D01*
X11901335Y-1207805D01*
X11909427Y-1199713D01*
X11915785Y-1190197D01*
X11920165Y-1179623D01*
X11922398Y-1168398D01*
X11922398Y-1156954D01*
X11920541Y-1147618D01*
X12243144Y-1147618D01*
X12243144Y-1163002D01*
X12246145Y-1178091D01*
X12252033Y-1192304D01*
X12260580Y-1205096D01*
X12271458Y-1215974D01*
X12284250Y-1224521D01*
X12298463Y-1230409D01*
X12313552Y-1233410D01*
X12328936Y-1233410D01*
X12344025Y-1230409D01*
X12358238Y-1224521D01*
X12371030Y-1215974D01*
X12381908Y-1205096D01*
X12390455Y-1192304D01*
X12396343Y-1178091D01*
X12399344Y-1163002D01*
X12399344Y-1147618D01*
X12396343Y-1132529D01*
X12390455Y-1118316D01*
X12381908Y-1105524D01*
X12371030Y-1094646D01*
X12358238Y-1086099D01*
X12344025Y-1080211D01*
X12328936Y-1077210D01*
X12313552Y-1077210D01*
X12298463Y-1080211D01*
X12284250Y-1086099D01*
X12271458Y-1094646D01*
X12260580Y-1105524D01*
X12252033Y-1118316D01*
X12246145Y-1132529D01*
X12243144Y-1147618D01*
X11920541Y-1147618D01*
X11920165Y-1145729D01*
X11915785Y-1135155D01*
X11909427Y-1125639D01*
X11901335Y-1117547D01*
X11891819Y-1111189D01*
X11881245Y-1106809D01*
X11870020Y-1104576D01*
X11858576Y-1104576D01*
X11847351Y-1106809D01*
X11836777Y-1111189D01*
X11827261Y-1117547D01*
X11819169Y-1125639D01*
X11812810Y-1135155D01*
X11808431Y-1145729D01*
X11806363Y-1156123D01*
X11727808Y-1234678D01*
X11036302Y-1234678D01*
X11030212Y-1229680D01*
X11025210Y-1227006D01*
X11607108Y-1227006D01*
X11609348Y-1227227D01*
X11611588Y-1227006D01*
X11611588Y-1227006D01*
X11618287Y-1226346D01*
X11626883Y-1223739D01*
X11634805Y-1219504D01*
X11641748Y-1213806D01*
X11643176Y-1212066D01*
X11875931Y-979311D01*
X11886325Y-977243D01*
X11896899Y-972863D01*
X11906415Y-966505D01*
X11914507Y-958413D01*
X11920865Y-948897D01*
X11925245Y-938323D01*
X11927478Y-927098D01*
X11927478Y-915654D01*
X11925245Y-904429D01*
X11920865Y-893855D01*
X11914507Y-884339D01*
X11906415Y-876247D01*
X11896899Y-869888D01*
X11886325Y-865509D01*
X11875100Y-863276D01*
X11863656Y-863276D01*
X11852431Y-865509D01*
X11841857Y-869888D01*
X11832341Y-876247D01*
X11824249Y-884339D01*
X11817890Y-893855D01*
X11813511Y-904429D01*
X11811443Y-914822D01*
X11590460Y-1135806D01*
X11360301Y-1135806D01*
X11363278Y-1120838D01*
X11363278Y-1105454D01*
X11360277Y-1090365D01*
X11354389Y-1076152D01*
X11345842Y-1063360D01*
X11334964Y-1052482D01*
X11322172Y-1043935D01*
X11310556Y-1039123D01*
X11312273Y-1037407D01*
X11318631Y-1027891D01*
X11323011Y-1017317D01*
X11325244Y-1006092D01*
X11325244Y-994648D01*
X11323011Y-983423D01*
X11318631Y-972849D01*
X11312273Y-963333D01*
X11304181Y-955241D01*
X11294665Y-948882D01*
X11284091Y-944503D01*
X11273697Y-942435D01*
X11238488Y-907226D01*
X11237060Y-905486D01*
X11230117Y-899788D01*
X11222195Y-895553D01*
X11213599Y-892946D01*
X11206900Y-892286D01*
X11206900Y-892286D01*
X11204660Y-892065D01*
X11202420Y-892286D01*
X10125170Y-892286D01*
X10116359Y-886398D01*
X10105785Y-882019D01*
X10094560Y-879786D01*
X10083116Y-879786D01*
X10071891Y-882019D01*
X10061317Y-886398D01*
X10051801Y-892757D01*
X10044268Y-900290D01*
X10044268Y-740874D01*
X10078882Y-706261D01*
X10089275Y-704193D01*
X10099849Y-699813D01*
X10109365Y-693455D01*
X10117457Y-685363D01*
X10123816Y-675847D01*
X10128195Y-665273D01*
X10128297Y-664764D01*
X10988638Y-664764D01*
X10988638Y-680148D01*
X10991639Y-695237D01*
X10997527Y-709450D01*
X11006074Y-722242D01*
X11016952Y-733120D01*
X11029744Y-741667D01*
X11043957Y-747555D01*
X11059046Y-750556D01*
X11074430Y-750556D01*
X11089519Y-747555D01*
X11103732Y-741667D01*
X11116524Y-733120D01*
X11122816Y-726828D01*
X11133564Y-737576D01*
X11146356Y-746123D01*
X11160569Y-752011D01*
X11175658Y-755012D01*
X11191042Y-755012D01*
X11206131Y-752011D01*
X11220344Y-746123D01*
X11233136Y-737576D01*
X11244014Y-726698D01*
X11252561Y-713906D01*
X11258449Y-699693D01*
X11261450Y-684604D01*
X11261450Y-669220D01*
X11259553Y-659684D01*
X11280738Y-659684D01*
X11280738Y-675068D01*
X11283739Y-690157D01*
X11289627Y-704370D01*
X11298174Y-717162D01*
X11309052Y-728040D01*
X11321844Y-736587D01*
X11336057Y-742475D01*
X11351146Y-745476D01*
X11366530Y-745476D01*
X11381619Y-742475D01*
X11395832Y-736587D01*
X11408624Y-728040D01*
X11419502Y-717162D01*
X11428049Y-704370D01*
X11433937Y-690157D01*
X11436714Y-676194D01*
X11512070Y-676194D01*
X11512070Y-691578D01*
X11515071Y-706667D01*
X11520959Y-720880D01*
X11529506Y-733672D01*
X11540384Y-744550D01*
X11553176Y-753097D01*
X11567389Y-758985D01*
X11582478Y-761986D01*
X11597862Y-761986D01*
X11612951Y-758985D01*
X11627164Y-753097D01*
X11639956Y-744550D01*
X11650834Y-733672D01*
X11659381Y-720880D01*
X11665269Y-706667D01*
X11668270Y-691578D01*
X11668270Y-676194D01*
X11665269Y-661105D01*
X11659381Y-646892D01*
X11650834Y-634100D01*
X11639956Y-623222D01*
X11627164Y-614675D01*
X11612951Y-608787D01*
X11597862Y-605786D01*
X11582478Y-605786D01*
X11567389Y-608787D01*
X11553176Y-614675D01*
X11540384Y-623222D01*
X11529506Y-634100D01*
X11520959Y-646892D01*
X11515071Y-661105D01*
X11512070Y-676194D01*
X11436714Y-676194D01*
X11436938Y-675068D01*
X11436938Y-659684D01*
X11433937Y-644595D01*
X11428049Y-630382D01*
X11419502Y-617590D01*
X11408624Y-606712D01*
X11395832Y-598165D01*
X11386613Y-594346D01*
X11390660Y-594346D01*
X11405749Y-591345D01*
X11419962Y-585457D01*
X11432754Y-576910D01*
X11443632Y-566032D01*
X11452179Y-553240D01*
X11458067Y-539027D01*
X11461068Y-523938D01*
X11461068Y-508554D01*
X11458067Y-493465D01*
X11452179Y-479252D01*
X11443632Y-466460D01*
X11432754Y-455582D01*
X11419962Y-447035D01*
X11405749Y-441147D01*
X11390660Y-438146D01*
X11375276Y-438146D01*
X11360187Y-441147D01*
X11345974Y-447035D01*
X11333182Y-455582D01*
X11322304Y-466460D01*
X11313757Y-479252D01*
X11307869Y-493465D01*
X11304868Y-508554D01*
X11304868Y-523938D01*
X11307869Y-539027D01*
X11313757Y-553240D01*
X11322304Y-566032D01*
X11333182Y-576910D01*
X11345974Y-585457D01*
X11355193Y-589276D01*
X11351146Y-589276D01*
X11336057Y-592277D01*
X11321844Y-598165D01*
X11309052Y-606712D01*
X11298174Y-617590D01*
X11289627Y-630382D01*
X11283739Y-644595D01*
X11280738Y-659684D01*
X11259553Y-659684D01*
X11258449Y-654131D01*
X11252561Y-639918D01*
X11244014Y-627126D01*
X11233136Y-616248D01*
X11220344Y-607701D01*
X11206131Y-601813D01*
X11191042Y-598812D01*
X11175658Y-598812D01*
X11162686Y-601392D01*
X11165159Y-597690D01*
X11171047Y-583477D01*
X11174048Y-568388D01*
X11174048Y-553004D01*
X11171047Y-537915D01*
X11165159Y-523702D01*
X11156612Y-510910D01*
X11145734Y-500032D01*
X11132942Y-491485D01*
X11118729Y-485597D01*
X11103640Y-482596D01*
X11088256Y-482596D01*
X11073167Y-485597D01*
X11058954Y-491485D01*
X11046162Y-500032D01*
X11035284Y-510910D01*
X11026737Y-523702D01*
X11020849Y-537915D01*
X11017848Y-553004D01*
X11017848Y-568388D01*
X11020849Y-583477D01*
X11026737Y-597690D01*
X11030295Y-603016D01*
X11029744Y-603245D01*
X11016952Y-611792D01*
X11006074Y-622670D01*
X10997527Y-635462D01*
X10991639Y-649675D01*
X10988638Y-664764D01*
X10128297Y-664764D01*
X10130428Y-654048D01*
X10130428Y-642604D01*
X10128195Y-631379D01*
X10123816Y-620805D01*
X10117457Y-611289D01*
X10109365Y-603197D01*
X10099849Y-596839D01*
X10089275Y-592459D01*
X10078050Y-590226D01*
X10066606Y-590226D01*
X10055381Y-592459D01*
X10044807Y-596839D01*
X10035291Y-603197D01*
X10027199Y-611289D01*
X10020841Y-620805D01*
X10016461Y-631379D01*
X10014393Y-641773D01*
X9968008Y-688158D01*
X9966268Y-689586D01*
X9964840Y-691326D01*
X9964840Y-691326D01*
X9960570Y-696530D01*
X9956335Y-704451D01*
X9953728Y-713047D01*
X9952847Y-721986D01*
X9953068Y-724227D01*
X9953068Y-1021048D01*
X9898218Y-1075898D01*
X9898218Y-702774D01*
X9996331Y-604661D01*
X10006725Y-602593D01*
X10017299Y-598214D01*
X10026815Y-591855D01*
X10034907Y-583763D01*
X10041266Y-574247D01*
X10045645Y-563673D01*
X10047878Y-552448D01*
X10047878Y-541004D01*
X10045645Y-529779D01*
X10041266Y-519205D01*
X10034907Y-509689D01*
X10033772Y-508554D01*
X10702888Y-508554D01*
X10702888Y-523938D01*
X10705889Y-539027D01*
X10711777Y-553240D01*
X10720324Y-566032D01*
X10731202Y-576910D01*
X10743994Y-585457D01*
X10758207Y-591345D01*
X10773296Y-594346D01*
X10788680Y-594346D01*
X10803769Y-591345D01*
X10817982Y-585457D01*
X10830774Y-576910D01*
X10841652Y-566032D01*
X10850199Y-553240D01*
X10856087Y-539027D01*
X10859088Y-523938D01*
X10859088Y-508554D01*
X10856087Y-493465D01*
X10850199Y-479252D01*
X10841652Y-466460D01*
X10830774Y-455582D01*
X10817982Y-447035D01*
X10803769Y-441147D01*
X10788680Y-438146D01*
X10773296Y-438146D01*
X10758207Y-441147D01*
X10743994Y-447035D01*
X10731202Y-455582D01*
X10720324Y-466460D01*
X10711777Y-479252D01*
X10705889Y-493465D01*
X10702888Y-508554D01*
X10033772Y-508554D01*
X10026815Y-501597D01*
X10017299Y-495238D01*
X10006725Y-490859D01*
X9995500Y-488626D01*
X9984056Y-488626D01*
X9972831Y-490859D01*
X9962257Y-495238D01*
X9952741Y-501597D01*
X9944649Y-509689D01*
X9938291Y-519205D01*
X9933911Y-529779D01*
X9931843Y-540173D01*
X9821958Y-650058D01*
X9820218Y-651486D01*
X9818790Y-653226D01*
X9818790Y-653226D01*
X9814520Y-658430D01*
X9810285Y-666351D01*
X9809415Y-669220D01*
X9807678Y-674947D01*
X9807597Y-675771D01*
X9806797Y-683886D01*
X9807018Y-686127D01*
X9807018Y-1030807D01*
X9805046Y-1026045D01*
X9799158Y-1017234D01*
X9799158Y-587945D01*
X9799379Y-585706D01*
X9798854Y-580381D01*
X9798498Y-576767D01*
X9795891Y-568171D01*
X9791656Y-560249D01*
X9788704Y-556652D01*
X9786565Y-545899D01*
X9782186Y-535325D01*
X9775827Y-525809D01*
X9767735Y-517717D01*
X9758219Y-511358D01*
X9747645Y-506979D01*
X9736420Y-504746D01*
X9724976Y-504746D01*
X9713751Y-506979D01*
X9703177Y-511358D01*
X9693661Y-517717D01*
X9685569Y-525809D01*
X9679211Y-535325D01*
X9674831Y-545899D01*
X9672598Y-557124D01*
X9672598Y-568568D01*
X9674831Y-579793D01*
X9679211Y-590367D01*
X9685569Y-599882D01*
X9693661Y-607975D01*
X9703177Y-614333D01*
X9707958Y-616314D01*
X9707958Y-1017234D01*
X9702071Y-1026045D01*
X9697691Y-1036619D01*
X9695458Y-1047844D01*
X9695458Y-1059288D01*
X9697691Y-1070513D01*
X9702071Y-1081087D01*
X9708429Y-1090603D01*
X9716521Y-1098695D01*
X9726037Y-1105054D01*
X9736611Y-1109433D01*
X9747836Y-1111666D01*
X9759280Y-1111666D01*
X9770505Y-1109433D01*
X9781079Y-1105054D01*
X9790595Y-1098695D01*
X9798687Y-1090603D01*
X9805046Y-1081087D01*
X9807018Y-1076325D01*
X9807018Y-1096798D01*
X9802250Y-1101566D01*
X9791856Y-1103634D01*
X9781282Y-1108014D01*
X9771766Y-1114372D01*
X9763674Y-1122464D01*
X9757316Y-1131980D01*
X9752936Y-1142554D01*
X9750703Y-1153779D01*
X9750703Y-1165223D01*
X9750877Y-1166098D01*
X9712364Y-1166098D01*
X9710124Y-1165877D01*
X9707884Y-1166098D01*
X9707884Y-1166098D01*
X9701185Y-1166758D01*
X9692589Y-1169365D01*
X9684667Y-1173600D01*
X9681777Y-1175972D01*
X9677724Y-1179298D01*
X9676296Y-1181038D01*
X9600724Y-1256610D01*
X9598984Y-1258038D01*
X9597556Y-1259778D01*
X9597556Y-1259778D01*
X9593286Y-1264982D01*
X9589051Y-1272903D01*
X9587626Y-1277604D01*
X9586464Y-1281434D01*
X9586444Y-1281499D01*
X9585563Y-1290438D01*
X9585784Y-1292679D01*
X9585784Y-1454089D01*
X9577361Y-1459717D01*
X9569269Y-1467809D01*
X9562911Y-1477325D01*
X9558531Y-1487899D01*
X9556298Y-1499124D01*
X9556298Y-1510568D01*
X9558531Y-1521793D01*
X9562911Y-1532367D01*
X9569269Y-1541883D01*
X9577361Y-1549975D01*
X9586877Y-1556333D01*
X9597451Y-1560713D01*
X9608676Y-1562946D01*
X9620120Y-1562946D01*
X9631345Y-1560713D01*
X9641919Y-1556333D01*
X9651435Y-1549975D01*
X9659527Y-1541883D01*
X9665886Y-1532367D01*
X9670265Y-1521793D01*
X9672498Y-1510568D01*
X9672498Y-1507675D01*
X9673717Y-1505395D01*
X9676324Y-1496799D01*
X9676984Y-1490100D01*
X9676984Y-1490100D01*
X9677205Y-1487860D01*
X9676984Y-1485620D01*
X9676984Y-1395020D01*
X9679439Y-1397475D01*
X9688955Y-1403833D01*
X9699529Y-1408213D01*
X9701721Y-1408649D01*
X9701779Y-1408789D01*
X9707483Y-1417325D01*
X9700260Y-1424548D01*
X9691713Y-1437340D01*
X9685825Y-1451553D01*
X9682824Y-1466642D01*
X9682824Y-1482026D01*
X9685825Y-1497115D01*
X9691713Y-1511328D01*
X9700260Y-1524120D01*
X9711138Y-1534998D01*
X9723930Y-1543545D01*
X9729806Y-1545979D01*
X9561608Y-1714178D01*
X9559868Y-1715606D01*
X9558440Y-1717346D01*
X9558440Y-1717346D01*
X9554170Y-1722549D01*
X9549935Y-1730471D01*
X9547328Y-1739067D01*
X9546447Y-1748006D01*
X9546668Y-1750247D01*
X9546668Y-1916014D01*
X9540781Y-1924825D01*
X9536401Y-1935399D01*
X9534168Y-1946624D01*
X9429357Y-1946624D01*
X9432463Y-1939126D01*
X9434888Y-1926935D01*
X9434888Y-1914505D01*
X9432463Y-1902314D01*
X9427707Y-1890831D01*
X9422621Y-1883220D01*
X9427707Y-1875609D01*
X9432463Y-1864126D01*
X9434888Y-1851935D01*
X9434888Y-1839505D01*
X9432463Y-1827314D01*
X9427707Y-1815831D01*
X9422621Y-1808220D01*
X9427707Y-1800609D01*
X9432463Y-1789126D01*
X9434888Y-1776935D01*
X9434888Y-1764505D01*
X9432463Y-1752314D01*
X9427707Y-1740831D01*
X9420801Y-1730496D01*
X9413734Y-1723429D01*
X9415658Y-1720618D01*
X9415928Y-1720120D01*
X9415928Y-1720120D01*
X9415928Y-1720119D01*
X9425090Y-1702887D01*
X9426493Y-1699485D01*
X9427942Y-1696103D01*
X9428110Y-1695562D01*
X9433751Y-1676878D01*
X9434467Y-1673262D01*
X9435230Y-1669669D01*
X9435290Y-1669106D01*
X9435290Y-1669105D01*
X9435290Y-1669104D01*
X9437194Y-1649682D01*
X9437194Y-1649682D01*
X9437388Y-1647714D01*
X9437388Y-1243726D01*
X9437185Y-1241660D01*
X9437185Y-1240362D01*
X9437125Y-1239798D01*
X9434950Y-1220403D01*
X9434184Y-1216800D01*
X9433470Y-1213194D01*
X9433302Y-1212652D01*
X9427401Y-1194049D01*
X9425950Y-1190664D01*
X9424549Y-1187265D01*
X9424280Y-1186767D01*
X9424280Y-1186767D01*
X9424279Y-1186766D01*
X9414877Y-1169664D01*
X9413741Y-1168004D01*
X9420801Y-1160944D01*
X9427707Y-1150609D01*
X9432463Y-1139126D01*
X9434888Y-1126935D01*
X9434888Y-1114505D01*
X9432463Y-1102314D01*
X9427707Y-1090831D01*
X9422621Y-1083220D01*
X9427707Y-1075609D01*
X9432463Y-1064126D01*
X9434888Y-1051935D01*
X9434888Y-1039505D01*
X9432463Y-1027314D01*
X9427707Y-1015831D01*
X9422621Y-1008220D01*
X9427707Y-1000609D01*
X9432463Y-989126D01*
X9434888Y-976935D01*
X9434888Y-964505D01*
X9432463Y-952314D01*
X9427707Y-940831D01*
X9420801Y-930496D01*
X9413734Y-923429D01*
X9415658Y-920618D01*
X9415928Y-920120D01*
X9415928Y-920120D01*
X9415928Y-920119D01*
X9425090Y-902887D01*
X9426493Y-899485D01*
X9427942Y-896103D01*
X9428110Y-895562D01*
X9433751Y-876878D01*
X9434467Y-873262D01*
X9435230Y-869669D01*
X9435290Y-869106D01*
X9435290Y-869105D01*
X9435290Y-869104D01*
X9437194Y-849682D01*
X9437194Y-849682D01*
X9437388Y-847714D01*
X9437388Y-443726D01*
X9437185Y-441660D01*
X9437185Y-440362D01*
X9437125Y-439798D01*
X9434950Y-420403D01*
X9434184Y-416799D01*
X9433470Y-413194D01*
X9433302Y-412652D01*
X9427401Y-394049D01*
X9425950Y-390664D01*
X9424549Y-387265D01*
X9424280Y-386767D01*
X9424280Y-386766D01*
X9424279Y-386766D01*
X9414877Y-369664D01*
X9413741Y-368004D01*
X9420801Y-360944D01*
X9427707Y-350609D01*
X9432463Y-339126D01*
X9434888Y-326935D01*
X9434888Y-314505D01*
X9432463Y-302314D01*
X9427707Y-290831D01*
X9422621Y-283220D01*
X9427707Y-275609D01*
X9432463Y-264126D01*
X9434888Y-251935D01*
X9434888Y-239505D01*
X9432463Y-227314D01*
X9427707Y-215831D01*
X9422621Y-208220D01*
X9427707Y-200609D01*
X9432463Y-189126D01*
X9434888Y-176935D01*
X9434888Y-164505D01*
X9432843Y-154224D01*
X9719908Y-154224D01*
X9719908Y-169608D01*
X9722909Y-184697D01*
X9728797Y-198910D01*
X9737344Y-211702D01*
X9748222Y-222580D01*
X9761014Y-231127D01*
X9775227Y-237015D01*
X9790316Y-240016D01*
X9805700Y-240016D01*
X9820789Y-237015D01*
X9835002Y-231127D01*
X9847794Y-222580D01*
X9853412Y-216962D01*
X10366592Y-216962D01*
X10366592Y-232346D01*
X10369593Y-247435D01*
X10375481Y-261648D01*
X10384028Y-274440D01*
X10394906Y-285318D01*
X10407698Y-293865D01*
X10421911Y-299753D01*
X10437000Y-302754D01*
X10452384Y-302754D01*
X10467473Y-299753D01*
X10481686Y-293865D01*
X10494478Y-285318D01*
X10505356Y-274440D01*
X10513903Y-261648D01*
X10519791Y-247435D01*
X10522792Y-232346D01*
X10522792Y-216962D01*
X10519791Y-201873D01*
X10513903Y-187660D01*
X10505356Y-174868D01*
X10494478Y-163990D01*
X10492395Y-162598D01*
X10806388Y-162598D01*
X10806388Y-362598D01*
X10806632Y-365075D01*
X10807355Y-367458D01*
X10808528Y-369654D01*
X10810108Y-371578D01*
X10812032Y-373158D01*
X10814228Y-374331D01*
X10816610Y-375054D01*
X10819088Y-375298D01*
X11669088Y-375298D01*
X11671566Y-375054D01*
X11673948Y-374331D01*
X11676144Y-373158D01*
X11678068Y-371578D01*
X11679648Y-369654D01*
X11680821Y-367458D01*
X11681544Y-365075D01*
X11681788Y-362598D01*
X11681788Y-162598D01*
X11681544Y-160120D01*
X11680821Y-157738D01*
X11679648Y-155542D01*
X11678068Y-153618D01*
X11676144Y-152038D01*
X11673948Y-150865D01*
X11671566Y-150142D01*
X11669088Y-149898D01*
X10819088Y-149898D01*
X10816610Y-150142D01*
X10814228Y-150865D01*
X10812032Y-152038D01*
X10810108Y-153618D01*
X10808528Y-155542D01*
X10807355Y-157738D01*
X10806632Y-160120D01*
X10806388Y-162598D01*
X10492395Y-162598D01*
X10481686Y-155443D01*
X10467473Y-149555D01*
X10452384Y-146554D01*
X10437000Y-146554D01*
X10421911Y-149555D01*
X10407698Y-155443D01*
X10394906Y-163990D01*
X10384028Y-174868D01*
X10375481Y-187660D01*
X10369593Y-201873D01*
X10366592Y-216962D01*
X9853412Y-216962D01*
X9858672Y-211702D01*
X9867219Y-198910D01*
X9873107Y-184697D01*
X9876108Y-169608D01*
X9876108Y-154224D01*
X9873107Y-139135D01*
X9867219Y-124922D01*
X9858672Y-112130D01*
X9847794Y-101252D01*
X9835002Y-92705D01*
X9820789Y-86817D01*
X9805700Y-83816D01*
X9790316Y-83816D01*
X9775227Y-86817D01*
X9761014Y-92705D01*
X9748222Y-101252D01*
X9737344Y-112130D01*
X9728797Y-124922D01*
X9722909Y-139135D01*
X9719908Y-154224D01*
X9432843Y-154224D01*
X9432463Y-152314D01*
X9427707Y-140831D01*
X9420801Y-130496D01*
X9413734Y-123429D01*
X9415658Y-120618D01*
X9415928Y-120120D01*
X9415928Y-120120D01*
X9415928Y-120119D01*
X9425090Y-102887D01*
X9426493Y-99485D01*
X9427942Y-96103D01*
X9428110Y-95562D01*
X9433751Y-76878D01*
X9434467Y-73263D01*
X9435230Y-69669D01*
X9435290Y-69106D01*
X9435290Y-69105D01*
X9435290Y-69104D01*
X9436809Y-53612D01*
X9436823Y-53565D01*
X9437394Y-47598D01*
X9437062Y68856D01*
X9548148Y68856D01*
X9548148Y41652D01*
X9553455Y14972D01*
X9563865Y-10161D01*
X9578979Y-32780D01*
X9598214Y-52015D01*
X9620833Y-67129D01*
X9645966Y-77539D01*
X9672646Y-82846D01*
X9699850Y-82846D01*
X9726530Y-77539D01*
X9751663Y-67129D01*
X9774282Y-52015D01*
X9793517Y-32780D01*
X9808631Y-10161D01*
X9819041Y14972D01*
X9824348Y41652D01*
X9824348Y68856D01*
X9819041Y95536D01*
X9808631Y120669D01*
X9793517Y143288D01*
X9774282Y162523D01*
X9751663Y177637D01*
X9726530Y188047D01*
X9699850Y193354D01*
X9672646Y193354D01*
X9645966Y188047D01*
X9620833Y177637D01*
X9598214Y162523D01*
X9578979Y143288D01*
X9563865Y120669D01*
X9553455Y95536D01*
X9548148Y68856D01*
X9437062Y68856D01*
X9436520Y259007D01*
X11112568Y259007D01*
X11112568Y74007D01*
X11112812Y71530D01*
X11113535Y69147D01*
X11114708Y66952D01*
X11116288Y65027D01*
X11118212Y63448D01*
X11120408Y62274D01*
X11122790Y61551D01*
X11125268Y61307D01*
X11370268Y61307D01*
X11372746Y61551D01*
X11375128Y62274D01*
X11377324Y63448D01*
X11379248Y65027D01*
X11380828Y66952D01*
X11381845Y68856D01*
X12348148Y68856D01*
X12348148Y41652D01*
X12353455Y14972D01*
X12363865Y-10161D01*
X12378979Y-32780D01*
X12398214Y-52015D01*
X12420833Y-67129D01*
X12445966Y-77539D01*
X12472646Y-82846D01*
X12499850Y-82846D01*
X12526530Y-77539D01*
X12551663Y-67129D01*
X12574282Y-52015D01*
X12593517Y-32780D01*
X12608631Y-10161D01*
X12619041Y14972D01*
X12624348Y41652D01*
X12624348Y68856D01*
X12619041Y95536D01*
X12608631Y120669D01*
X12593517Y143288D01*
X12574282Y162523D01*
X12551663Y177637D01*
X12526530Y188047D01*
X12499850Y193354D01*
X12472646Y193354D01*
X12445966Y188047D01*
X12420833Y177637D01*
X12398214Y162523D01*
X12378979Y143288D01*
X12363865Y120669D01*
X12353455Y95536D01*
X12348148Y68856D01*
X11381845Y68856D01*
X11382001Y69147D01*
X11382724Y71530D01*
X11382968Y74007D01*
X11382968Y259007D01*
X11382724Y261485D01*
X11382001Y263868D01*
X11380828Y266063D01*
X11379248Y267988D01*
X11377324Y269567D01*
X11375128Y270741D01*
X11372746Y271463D01*
X11370268Y271707D01*
X11125268Y271707D01*
X11122790Y271463D01*
X11120408Y270741D01*
X11118212Y269567D01*
X11116288Y267988D01*
X11114708Y266063D01*
X11113535Y263868D01*
X11112812Y261485D01*
X11112568Y259007D01*
X9436520Y259007D01*
X9436362Y314698D01*
X12750648Y314698D01*
X12750648Y-3004105D01*
%TA.AperFunction,Conductor*%
D16*
G36*
X12750648Y-3004105D02*
G01*
X9437388Y-3004353D01*
X9437388Y-2843726D01*
X9437185Y-2841660D01*
X9437185Y-2840362D01*
X9437125Y-2839798D01*
X9434950Y-2820403D01*
X9434184Y-2816799D01*
X9433470Y-2813194D01*
X9433302Y-2812652D01*
X9427401Y-2794049D01*
X9425950Y-2790664D01*
X9424549Y-2787265D01*
X9424280Y-2786767D01*
X9424280Y-2786767D01*
X9424279Y-2786766D01*
X9414877Y-2769664D01*
X9413741Y-2768004D01*
X9420801Y-2760944D01*
X9427707Y-2750609D01*
X9432463Y-2739126D01*
X9434051Y-2731144D01*
X9548148Y-2731144D01*
X9548148Y-2758348D01*
X9553455Y-2785028D01*
X9563865Y-2810161D01*
X9578979Y-2832780D01*
X9598214Y-2852015D01*
X9620833Y-2867129D01*
X9645966Y-2877539D01*
X9672646Y-2882846D01*
X9699850Y-2882846D01*
X9726530Y-2877539D01*
X9751663Y-2867129D01*
X9774282Y-2852015D01*
X9793517Y-2832780D01*
X9808631Y-2810161D01*
X9819041Y-2785028D01*
X9824348Y-2758348D01*
X9824348Y-2731144D01*
X12348148Y-2731144D01*
X12348148Y-2758348D01*
X12353455Y-2785028D01*
X12363865Y-2810161D01*
X12378979Y-2832780D01*
X12398214Y-2852015D01*
X12420833Y-2867129D01*
X12445966Y-2877539D01*
X12472646Y-2882846D01*
X12499850Y-2882846D01*
X12526530Y-2877539D01*
X12551663Y-2867129D01*
X12574282Y-2852015D01*
X12593517Y-2832780D01*
X12608631Y-2810161D01*
X12619041Y-2785028D01*
X12624348Y-2758348D01*
X12624348Y-2731144D01*
X12619041Y-2704464D01*
X12608631Y-2679331D01*
X12593517Y-2656712D01*
X12574282Y-2637477D01*
X12551663Y-2622363D01*
X12526530Y-2611953D01*
X12499850Y-2606646D01*
X12472646Y-2606646D01*
X12445966Y-2611953D01*
X12420833Y-2622363D01*
X12398214Y-2637477D01*
X12378979Y-2656712D01*
X12363865Y-2679331D01*
X12353455Y-2704464D01*
X12348148Y-2731144D01*
X9824348Y-2731144D01*
X9819041Y-2704464D01*
X9808631Y-2679331D01*
X9793517Y-2656712D01*
X9774282Y-2637477D01*
X9751663Y-2622363D01*
X9726530Y-2611953D01*
X9699850Y-2606646D01*
X9672646Y-2606646D01*
X9645966Y-2611953D01*
X9620833Y-2622363D01*
X9598214Y-2637477D01*
X9578979Y-2656712D01*
X9563865Y-2679331D01*
X9553455Y-2704464D01*
X9548148Y-2731144D01*
X9434051Y-2731144D01*
X9434888Y-2726935D01*
X9434888Y-2714505D01*
X9432463Y-2702314D01*
X9427707Y-2690831D01*
X9422621Y-2683220D01*
X9427707Y-2675609D01*
X9432463Y-2664126D01*
X9434888Y-2651935D01*
X9434888Y-2639505D01*
X9432463Y-2627314D01*
X9427707Y-2615831D01*
X9422621Y-2608220D01*
X9427707Y-2600609D01*
X9432463Y-2589126D01*
X9434888Y-2576935D01*
X9434888Y-2564505D01*
X9432463Y-2552314D01*
X9427707Y-2540831D01*
X9420801Y-2530496D01*
X9413734Y-2523429D01*
X9415658Y-2520618D01*
X9415928Y-2520120D01*
X9415928Y-2520120D01*
X9415928Y-2520119D01*
X9425090Y-2502888D01*
X9426493Y-2499485D01*
X9427942Y-2496103D01*
X9428110Y-2495562D01*
X9433751Y-2476878D01*
X9434467Y-2473263D01*
X9435230Y-2469669D01*
X9435290Y-2469106D01*
X9435290Y-2469105D01*
X9435290Y-2469104D01*
X9437194Y-2449682D01*
X9437194Y-2449682D01*
X9437388Y-2447714D01*
X9437388Y-2043726D01*
X9437185Y-2041660D01*
X9437185Y-2040362D01*
X9437125Y-2039798D01*
X9434950Y-2020403D01*
X9434184Y-2016799D01*
X9433470Y-2013194D01*
X9433302Y-2012652D01*
X9427401Y-1994049D01*
X9425950Y-1990664D01*
X9424549Y-1987265D01*
X9424280Y-1986767D01*
X9424280Y-1986766D01*
X9424279Y-1986766D01*
X9414877Y-1969664D01*
X9413741Y-1968004D01*
X9420801Y-1960944D01*
X9427707Y-1950609D01*
X9429357Y-1946624D01*
X9534168Y-1946624D01*
X9534168Y-1958068D01*
X9536401Y-1969293D01*
X9540781Y-1979867D01*
X9547139Y-1989383D01*
X9555231Y-1997475D01*
X9564747Y-2003833D01*
X9575321Y-2008213D01*
X9586546Y-2010446D01*
X9597990Y-2010446D01*
X9609215Y-2008213D01*
X9619789Y-2003833D01*
X9629305Y-1997475D01*
X9637397Y-1989383D01*
X9643756Y-1979867D01*
X9648135Y-1969293D01*
X9650368Y-1958068D01*
X9650368Y-1946624D01*
X9648135Y-1935399D01*
X9643756Y-1924825D01*
X9637868Y-1916014D01*
X9637868Y-1885026D01*
X9647711Y-1889103D01*
X9655495Y-1890652D01*
X9656540Y-1895903D01*
X9660920Y-1906477D01*
X9667278Y-1915993D01*
X9675370Y-1924085D01*
X9681488Y-1928173D01*
X9681488Y-1939288D01*
X9683721Y-1950513D01*
X9688101Y-1961087D01*
X9694459Y-1970603D01*
X9702551Y-1978695D01*
X9712067Y-1985053D01*
X9722641Y-1989433D01*
X9733866Y-1991666D01*
X9745310Y-1991666D01*
X9756535Y-1989433D01*
X9757217Y-1989151D01*
X9758154Y-1991413D01*
X9764512Y-2000929D01*
X9765692Y-2002108D01*
X9767308Y-2007438D01*
X9769520Y-2011575D01*
X9771543Y-2015359D01*
X9775553Y-2020246D01*
X9777241Y-2022303D01*
X9778981Y-2023731D01*
X9933852Y-2178602D01*
X9935280Y-2180342D01*
X9942223Y-2186040D01*
X9950145Y-2190275D01*
X9958741Y-2192882D01*
X9965440Y-2193542D01*
X9965440Y-2193542D01*
X9967680Y-2193763D01*
X9969920Y-2193542D01*
X10812022Y-2193542D01*
X10814262Y-2193763D01*
X10816502Y-2193542D01*
X10816502Y-2193542D01*
X10823201Y-2192882D01*
X10831797Y-2190275D01*
X10839719Y-2186040D01*
X10846662Y-2180342D01*
X10848090Y-2178602D01*
X10998478Y-2028214D01*
X10998478Y-2033268D01*
X11000711Y-2044493D01*
X11004212Y-2052946D01*
X11000711Y-2061399D01*
X10998478Y-2072623D01*
X10998478Y-2084068D01*
X11000711Y-2095293D01*
X11005091Y-2105866D01*
X11008250Y-2110594D01*
X11008111Y-2110687D01*
X11000019Y-2118779D01*
X10993661Y-2128295D01*
X10989281Y-2138869D01*
X10987048Y-2150094D01*
X10987048Y-2161538D01*
X10989281Y-2172763D01*
X10993661Y-2183337D01*
X11000019Y-2192853D01*
X11008111Y-2200945D01*
X11017627Y-2207304D01*
X11028201Y-2211683D01*
X11039426Y-2213916D01*
X11050870Y-2213916D01*
X11062095Y-2211683D01*
X11072669Y-2207304D01*
X11082185Y-2200945D01*
X11090277Y-2192853D01*
X11096636Y-2183337D01*
X11101015Y-2172763D01*
X11103248Y-2161538D01*
X11103248Y-2150094D01*
X11101015Y-2138869D01*
X11096636Y-2128295D01*
X11093476Y-2123567D01*
X11093615Y-2123475D01*
X11101707Y-2115382D01*
X11108066Y-2105866D01*
X11112445Y-2095293D01*
X11114678Y-2084068D01*
X11114678Y-2072623D01*
X11112445Y-2061399D01*
X11108944Y-2052946D01*
X11112445Y-2044493D01*
X11114678Y-2033268D01*
X11114678Y-2021824D01*
X11112445Y-2010599D01*
X11108066Y-2000025D01*
X11101707Y-1990509D01*
X11093615Y-1982417D01*
X11084099Y-1976058D01*
X11073525Y-1971679D01*
X11062300Y-1969446D01*
X11057246Y-1969446D01*
X11058956Y-1967736D01*
X11841936Y-1967736D01*
X11850747Y-1973623D01*
X11861321Y-1978003D01*
X11872546Y-1980236D01*
X11883990Y-1980236D01*
X11895215Y-1978003D01*
X11905789Y-1973623D01*
X11915305Y-1967265D01*
X11923397Y-1959173D01*
X11929755Y-1949657D01*
X11934135Y-1939083D01*
X11936368Y-1927858D01*
X11936368Y-1916414D01*
X11934135Y-1905189D01*
X11929755Y-1894615D01*
X11923397Y-1885099D01*
X11915305Y-1877007D01*
X11905789Y-1870648D01*
X11895215Y-1866269D01*
X11883990Y-1864036D01*
X11872546Y-1864036D01*
X11861321Y-1866269D01*
X11850747Y-1870648D01*
X11841936Y-1876536D01*
X11802641Y-1876536D01*
X11829740Y-1849437D01*
X11831671Y-1847853D01*
X11837994Y-1840148D01*
X11842692Y-1831357D01*
X11845586Y-1821819D01*
X11846318Y-1814385D01*
X11846563Y-1811900D01*
X11846331Y-1809542D01*
X12249240Y-1809542D01*
X12249240Y-1824926D01*
X12252241Y-1840015D01*
X12258129Y-1854228D01*
X12266676Y-1867020D01*
X12277554Y-1877898D01*
X12290346Y-1886445D01*
X12304559Y-1892333D01*
X12319648Y-1895334D01*
X12335032Y-1895334D01*
X12350121Y-1892333D01*
X12364334Y-1886445D01*
X12377126Y-1877898D01*
X12388004Y-1867020D01*
X12396551Y-1854228D01*
X12402439Y-1840015D01*
X12405440Y-1824926D01*
X12405440Y-1809542D01*
X12402439Y-1794453D01*
X12396551Y-1780240D01*
X12388004Y-1767448D01*
X12377126Y-1756570D01*
X12364334Y-1748023D01*
X12350121Y-1742135D01*
X12335032Y-1739134D01*
X12319648Y-1739134D01*
X12304559Y-1742135D01*
X12290346Y-1748023D01*
X12277554Y-1756570D01*
X12266676Y-1767448D01*
X12258129Y-1780240D01*
X12252241Y-1794453D01*
X12249240Y-1809542D01*
X11846331Y-1809542D01*
X11846318Y-1809415D01*
X11846318Y-1778596D01*
X11856382Y-1768532D01*
X11864929Y-1755740D01*
X11870817Y-1741527D01*
X11873818Y-1726438D01*
X11873818Y-1711054D01*
X11872845Y-1706164D01*
X12131638Y-1706164D01*
X12131638Y-1721548D01*
X12134639Y-1736637D01*
X12140527Y-1750850D01*
X12149074Y-1763642D01*
X12159952Y-1774520D01*
X12172744Y-1783067D01*
X12186957Y-1788955D01*
X12202046Y-1791956D01*
X12217430Y-1791956D01*
X12232519Y-1788955D01*
X12246732Y-1783067D01*
X12259524Y-1774520D01*
X12270402Y-1763642D01*
X12278949Y-1750850D01*
X12284837Y-1736637D01*
X12287838Y-1721548D01*
X12287838Y-1706164D01*
X12284837Y-1691075D01*
X12278949Y-1676862D01*
X12270402Y-1664070D01*
X12259524Y-1653192D01*
X12246732Y-1644645D01*
X12232519Y-1638757D01*
X12217430Y-1635756D01*
X12202046Y-1635756D01*
X12186957Y-1638757D01*
X12172744Y-1644645D01*
X12159952Y-1653192D01*
X12149074Y-1664070D01*
X12140527Y-1676862D01*
X12134639Y-1691075D01*
X12131638Y-1706164D01*
X11872845Y-1706164D01*
X11872739Y-1705628D01*
X11882515Y-1703683D01*
X11893089Y-1699303D01*
X11902605Y-1692945D01*
X11910697Y-1684853D01*
X11917055Y-1675337D01*
X11921435Y-1664763D01*
X11923668Y-1653538D01*
X11923668Y-1642094D01*
X11921435Y-1630869D01*
X11917055Y-1620295D01*
X11910697Y-1610779D01*
X11902605Y-1602687D01*
X11893089Y-1596328D01*
X11882515Y-1591949D01*
X11871290Y-1589716D01*
X11861700Y-1589716D01*
X11863879Y-1588813D01*
X11873395Y-1582455D01*
X11881487Y-1574363D01*
X11887845Y-1564847D01*
X11892225Y-1554273D01*
X11894458Y-1543048D01*
X11894458Y-1531604D01*
X11892225Y-1520379D01*
X11887845Y-1509805D01*
X11882086Y-1501186D01*
X12311724Y-1501186D01*
X12311724Y-1516570D01*
X12314725Y-1531659D01*
X12320613Y-1545872D01*
X12329160Y-1558664D01*
X12340038Y-1569542D01*
X12352830Y-1578089D01*
X12367043Y-1583977D01*
X12382132Y-1586978D01*
X12397516Y-1586978D01*
X12412605Y-1583977D01*
X12426818Y-1578089D01*
X12439610Y-1569542D01*
X12450488Y-1558664D01*
X12459035Y-1545872D01*
X12464923Y-1531659D01*
X12467924Y-1516570D01*
X12467924Y-1501186D01*
X12464960Y-1486283D01*
X12466484Y-1485264D01*
X12477362Y-1474386D01*
X12485909Y-1461594D01*
X12491797Y-1447381D01*
X12494798Y-1432292D01*
X12494798Y-1416908D01*
X12491797Y-1401819D01*
X12485909Y-1387606D01*
X12477362Y-1374814D01*
X12466484Y-1363936D01*
X12453692Y-1355389D01*
X12439479Y-1349501D01*
X12424390Y-1346500D01*
X12409006Y-1346500D01*
X12393917Y-1349501D01*
X12379704Y-1355389D01*
X12366912Y-1363936D01*
X12356034Y-1374814D01*
X12347487Y-1387606D01*
X12341599Y-1401819D01*
X12338598Y-1416908D01*
X12338598Y-1432292D01*
X12341562Y-1447195D01*
X12340038Y-1448214D01*
X12329160Y-1459092D01*
X12320613Y-1471884D01*
X12314725Y-1486097D01*
X12311724Y-1501186D01*
X11882086Y-1501186D01*
X11881487Y-1500289D01*
X11873395Y-1492197D01*
X11863879Y-1485838D01*
X11853305Y-1481459D01*
X11842080Y-1479226D01*
X11830636Y-1479226D01*
X11821426Y-1481058D01*
X11808613Y-1481058D01*
X11811098Y-1480564D01*
X11825311Y-1474676D01*
X11838103Y-1466129D01*
X11848981Y-1455251D01*
X11857528Y-1442459D01*
X11863416Y-1428246D01*
X11866417Y-1413157D01*
X11866417Y-1397773D01*
X11863416Y-1382684D01*
X11857528Y-1368471D01*
X11853105Y-1361851D01*
X11853679Y-1361794D01*
X11862275Y-1359187D01*
X11870197Y-1354952D01*
X11877140Y-1349254D01*
X11878568Y-1347514D01*
X11884821Y-1341261D01*
X11895215Y-1339193D01*
X11905789Y-1334814D01*
X11915305Y-1328455D01*
X11923397Y-1320363D01*
X11929755Y-1310847D01*
X11934135Y-1300273D01*
X11936368Y-1289048D01*
X11936368Y-1277604D01*
X11934135Y-1266379D01*
X11929755Y-1255805D01*
X11923397Y-1246289D01*
X11915305Y-1238197D01*
X11905789Y-1231839D01*
X11895215Y-1227459D01*
X11883990Y-1225226D01*
X11872546Y-1225226D01*
X11864669Y-1226793D01*
X11870851Y-1220611D01*
X11881245Y-1218543D01*
X11891819Y-1214164D01*
X11901335Y-1207805D01*
X11909427Y-1199713D01*
X11915785Y-1190197D01*
X11920165Y-1179623D01*
X11922398Y-1168398D01*
X11922398Y-1156954D01*
X11920541Y-1147618D01*
X12243144Y-1147618D01*
X12243144Y-1163002D01*
X12246145Y-1178091D01*
X12252033Y-1192304D01*
X12260580Y-1205096D01*
X12271458Y-1215974D01*
X12284250Y-1224521D01*
X12298463Y-1230409D01*
X12313552Y-1233410D01*
X12328936Y-1233410D01*
X12344025Y-1230409D01*
X12358238Y-1224521D01*
X12371030Y-1215974D01*
X12381908Y-1205096D01*
X12390455Y-1192304D01*
X12396343Y-1178091D01*
X12399344Y-1163002D01*
X12399344Y-1147618D01*
X12396343Y-1132529D01*
X12390455Y-1118316D01*
X12381908Y-1105524D01*
X12371030Y-1094646D01*
X12358238Y-1086099D01*
X12344025Y-1080211D01*
X12328936Y-1077210D01*
X12313552Y-1077210D01*
X12298463Y-1080211D01*
X12284250Y-1086099D01*
X12271458Y-1094646D01*
X12260580Y-1105524D01*
X12252033Y-1118316D01*
X12246145Y-1132529D01*
X12243144Y-1147618D01*
X11920541Y-1147618D01*
X11920165Y-1145729D01*
X11915785Y-1135155D01*
X11909427Y-1125639D01*
X11901335Y-1117547D01*
X11891819Y-1111189D01*
X11881245Y-1106809D01*
X11870020Y-1104576D01*
X11858576Y-1104576D01*
X11847351Y-1106809D01*
X11836777Y-1111189D01*
X11827261Y-1117547D01*
X11819169Y-1125639D01*
X11812810Y-1135155D01*
X11808431Y-1145729D01*
X11806363Y-1156123D01*
X11727808Y-1234678D01*
X11036302Y-1234678D01*
X11030212Y-1229680D01*
X11025210Y-1227006D01*
X11607108Y-1227006D01*
X11609348Y-1227227D01*
X11611588Y-1227006D01*
X11611588Y-1227006D01*
X11618287Y-1226346D01*
X11626883Y-1223739D01*
X11634805Y-1219504D01*
X11641748Y-1213806D01*
X11643176Y-1212066D01*
X11875931Y-979311D01*
X11886325Y-977243D01*
X11896899Y-972863D01*
X11906415Y-966505D01*
X11914507Y-958413D01*
X11920865Y-948897D01*
X11925245Y-938323D01*
X11927478Y-927098D01*
X11927478Y-915654D01*
X11925245Y-904429D01*
X11920865Y-893855D01*
X11914507Y-884339D01*
X11906415Y-876247D01*
X11896899Y-869888D01*
X11886325Y-865509D01*
X11875100Y-863276D01*
X11863656Y-863276D01*
X11852431Y-865509D01*
X11841857Y-869888D01*
X11832341Y-876247D01*
X11824249Y-884339D01*
X11817890Y-893855D01*
X11813511Y-904429D01*
X11811443Y-914822D01*
X11590460Y-1135806D01*
X11360301Y-1135806D01*
X11363278Y-1120838D01*
X11363278Y-1105454D01*
X11360277Y-1090365D01*
X11354389Y-1076152D01*
X11345842Y-1063360D01*
X11334964Y-1052482D01*
X11322172Y-1043935D01*
X11310556Y-1039123D01*
X11312273Y-1037407D01*
X11318631Y-1027891D01*
X11323011Y-1017317D01*
X11325244Y-1006092D01*
X11325244Y-994648D01*
X11323011Y-983423D01*
X11318631Y-972849D01*
X11312273Y-963333D01*
X11304181Y-955241D01*
X11294665Y-948882D01*
X11284091Y-944503D01*
X11273697Y-942435D01*
X11238488Y-907226D01*
X11237060Y-905486D01*
X11230117Y-899788D01*
X11222195Y-895553D01*
X11213599Y-892946D01*
X11206900Y-892286D01*
X11206900Y-892286D01*
X11204660Y-892065D01*
X11202420Y-892286D01*
X10125170Y-892286D01*
X10116359Y-886398D01*
X10105785Y-882019D01*
X10094560Y-879786D01*
X10083116Y-879786D01*
X10071891Y-882019D01*
X10061317Y-886398D01*
X10051801Y-892757D01*
X10044268Y-900290D01*
X10044268Y-740874D01*
X10078882Y-706261D01*
X10089275Y-704193D01*
X10099849Y-699813D01*
X10109365Y-693455D01*
X10117457Y-685363D01*
X10123816Y-675847D01*
X10128195Y-665273D01*
X10128297Y-664764D01*
X10988638Y-664764D01*
X10988638Y-680148D01*
X10991639Y-695237D01*
X10997527Y-709450D01*
X11006074Y-722242D01*
X11016952Y-733120D01*
X11029744Y-741667D01*
X11043957Y-747555D01*
X11059046Y-750556D01*
X11074430Y-750556D01*
X11089519Y-747555D01*
X11103732Y-741667D01*
X11116524Y-733120D01*
X11122816Y-726828D01*
X11133564Y-737576D01*
X11146356Y-746123D01*
X11160569Y-752011D01*
X11175658Y-755012D01*
X11191042Y-755012D01*
X11206131Y-752011D01*
X11220344Y-746123D01*
X11233136Y-737576D01*
X11244014Y-726698D01*
X11252561Y-713906D01*
X11258449Y-699693D01*
X11261450Y-684604D01*
X11261450Y-669220D01*
X11259553Y-659684D01*
X11280738Y-659684D01*
X11280738Y-675068D01*
X11283739Y-690157D01*
X11289627Y-704370D01*
X11298174Y-717162D01*
X11309052Y-728040D01*
X11321844Y-736587D01*
X11336057Y-742475D01*
X11351146Y-745476D01*
X11366530Y-745476D01*
X11381619Y-742475D01*
X11395832Y-736587D01*
X11408624Y-728040D01*
X11419502Y-717162D01*
X11428049Y-704370D01*
X11433937Y-690157D01*
X11436714Y-676194D01*
X11512070Y-676194D01*
X11512070Y-691578D01*
X11515071Y-706667D01*
X11520959Y-720880D01*
X11529506Y-733672D01*
X11540384Y-744550D01*
X11553176Y-753097D01*
X11567389Y-758985D01*
X11582478Y-761986D01*
X11597862Y-761986D01*
X11612951Y-758985D01*
X11627164Y-753097D01*
X11639956Y-744550D01*
X11650834Y-733672D01*
X11659381Y-720880D01*
X11665269Y-706667D01*
X11668270Y-691578D01*
X11668270Y-676194D01*
X11665269Y-661105D01*
X11659381Y-646892D01*
X11650834Y-634100D01*
X11639956Y-623222D01*
X11627164Y-614675D01*
X11612951Y-608787D01*
X11597862Y-605786D01*
X11582478Y-605786D01*
X11567389Y-608787D01*
X11553176Y-614675D01*
X11540384Y-623222D01*
X11529506Y-634100D01*
X11520959Y-646892D01*
X11515071Y-661105D01*
X11512070Y-676194D01*
X11436714Y-676194D01*
X11436938Y-675068D01*
X11436938Y-659684D01*
X11433937Y-644595D01*
X11428049Y-630382D01*
X11419502Y-617590D01*
X11408624Y-606712D01*
X11395832Y-598165D01*
X11386613Y-594346D01*
X11390660Y-594346D01*
X11405749Y-591345D01*
X11419962Y-585457D01*
X11432754Y-576910D01*
X11443632Y-566032D01*
X11452179Y-553240D01*
X11458067Y-539027D01*
X11461068Y-523938D01*
X11461068Y-508554D01*
X11458067Y-493465D01*
X11452179Y-479252D01*
X11443632Y-466460D01*
X11432754Y-455582D01*
X11419962Y-447035D01*
X11405749Y-441147D01*
X11390660Y-438146D01*
X11375276Y-438146D01*
X11360187Y-441147D01*
X11345974Y-447035D01*
X11333182Y-455582D01*
X11322304Y-466460D01*
X11313757Y-479252D01*
X11307869Y-493465D01*
X11304868Y-508554D01*
X11304868Y-523938D01*
X11307869Y-539027D01*
X11313757Y-553240D01*
X11322304Y-566032D01*
X11333182Y-576910D01*
X11345974Y-585457D01*
X11355193Y-589276D01*
X11351146Y-589276D01*
X11336057Y-592277D01*
X11321844Y-598165D01*
X11309052Y-606712D01*
X11298174Y-617590D01*
X11289627Y-630382D01*
X11283739Y-644595D01*
X11280738Y-659684D01*
X11259553Y-659684D01*
X11258449Y-654131D01*
X11252561Y-639918D01*
X11244014Y-627126D01*
X11233136Y-616248D01*
X11220344Y-607701D01*
X11206131Y-601813D01*
X11191042Y-598812D01*
X11175658Y-598812D01*
X11162686Y-601392D01*
X11165159Y-597690D01*
X11171047Y-583477D01*
X11174048Y-568388D01*
X11174048Y-553004D01*
X11171047Y-537915D01*
X11165159Y-523702D01*
X11156612Y-510910D01*
X11145734Y-500032D01*
X11132942Y-491485D01*
X11118729Y-485597D01*
X11103640Y-482596D01*
X11088256Y-482596D01*
X11073167Y-485597D01*
X11058954Y-491485D01*
X11046162Y-500032D01*
X11035284Y-510910D01*
X11026737Y-523702D01*
X11020849Y-537915D01*
X11017848Y-553004D01*
X11017848Y-568388D01*
X11020849Y-583477D01*
X11026737Y-597690D01*
X11030295Y-603016D01*
X11029744Y-603245D01*
X11016952Y-611792D01*
X11006074Y-622670D01*
X10997527Y-635462D01*
X10991639Y-649675D01*
X10988638Y-664764D01*
X10128297Y-664764D01*
X10130428Y-654048D01*
X10130428Y-642604D01*
X10128195Y-631379D01*
X10123816Y-620805D01*
X10117457Y-611289D01*
X10109365Y-603197D01*
X10099849Y-596839D01*
X10089275Y-592459D01*
X10078050Y-590226D01*
X10066606Y-590226D01*
X10055381Y-592459D01*
X10044807Y-596839D01*
X10035291Y-603197D01*
X10027199Y-611289D01*
X10020841Y-620805D01*
X10016461Y-631379D01*
X10014393Y-641773D01*
X9968008Y-688158D01*
X9966268Y-689586D01*
X9964840Y-691326D01*
X9964840Y-691326D01*
X9960570Y-696530D01*
X9956335Y-704451D01*
X9953728Y-713047D01*
X9952847Y-721986D01*
X9953068Y-724227D01*
X9953068Y-1021048D01*
X9898218Y-1075898D01*
X9898218Y-702774D01*
X9996331Y-604661D01*
X10006725Y-602593D01*
X10017299Y-598214D01*
X10026815Y-591855D01*
X10034907Y-583763D01*
X10041266Y-574247D01*
X10045645Y-563673D01*
X10047878Y-552448D01*
X10047878Y-541004D01*
X10045645Y-529779D01*
X10041266Y-519205D01*
X10034907Y-509689D01*
X10033772Y-508554D01*
X10702888Y-508554D01*
X10702888Y-523938D01*
X10705889Y-539027D01*
X10711777Y-553240D01*
X10720324Y-566032D01*
X10731202Y-576910D01*
X10743994Y-585457D01*
X10758207Y-591345D01*
X10773296Y-594346D01*
X10788680Y-594346D01*
X10803769Y-591345D01*
X10817982Y-585457D01*
X10830774Y-576910D01*
X10841652Y-566032D01*
X10850199Y-553240D01*
X10856087Y-539027D01*
X10859088Y-523938D01*
X10859088Y-508554D01*
X10856087Y-493465D01*
X10850199Y-479252D01*
X10841652Y-466460D01*
X10830774Y-455582D01*
X10817982Y-447035D01*
X10803769Y-441147D01*
X10788680Y-438146D01*
X10773296Y-438146D01*
X10758207Y-441147D01*
X10743994Y-447035D01*
X10731202Y-455582D01*
X10720324Y-466460D01*
X10711777Y-479252D01*
X10705889Y-493465D01*
X10702888Y-508554D01*
X10033772Y-508554D01*
X10026815Y-501597D01*
X10017299Y-495238D01*
X10006725Y-490859D01*
X9995500Y-488626D01*
X9984056Y-488626D01*
X9972831Y-490859D01*
X9962257Y-495238D01*
X9952741Y-501597D01*
X9944649Y-509689D01*
X9938291Y-519205D01*
X9933911Y-529779D01*
X9931843Y-540173D01*
X9821958Y-650058D01*
X9820218Y-651486D01*
X9818790Y-653226D01*
X9818790Y-653226D01*
X9814520Y-658430D01*
X9810285Y-666351D01*
X9809415Y-669220D01*
X9807678Y-674947D01*
X9807597Y-675771D01*
X9806797Y-683886D01*
X9807018Y-686127D01*
X9807018Y-1030807D01*
X9805046Y-1026045D01*
X9799158Y-1017234D01*
X9799158Y-587945D01*
X9799379Y-585706D01*
X9798854Y-580381D01*
X9798498Y-576767D01*
X9795891Y-568171D01*
X9791656Y-560249D01*
X9788704Y-556652D01*
X9786565Y-545899D01*
X9782186Y-535325D01*
X9775827Y-525809D01*
X9767735Y-517717D01*
X9758219Y-511358D01*
X9747645Y-506979D01*
X9736420Y-504746D01*
X9724976Y-504746D01*
X9713751Y-506979D01*
X9703177Y-511358D01*
X9693661Y-517717D01*
X9685569Y-525809D01*
X9679211Y-535325D01*
X9674831Y-545899D01*
X9672598Y-557124D01*
X9672598Y-568568D01*
X9674831Y-579793D01*
X9679211Y-590367D01*
X9685569Y-599882D01*
X9693661Y-607975D01*
X9703177Y-614333D01*
X9707958Y-616314D01*
X9707958Y-1017234D01*
X9702071Y-1026045D01*
X9697691Y-1036619D01*
X9695458Y-1047844D01*
X9695458Y-1059288D01*
X9697691Y-1070513D01*
X9702071Y-1081087D01*
X9708429Y-1090603D01*
X9716521Y-1098695D01*
X9726037Y-1105054D01*
X9736611Y-1109433D01*
X9747836Y-1111666D01*
X9759280Y-1111666D01*
X9770505Y-1109433D01*
X9781079Y-1105054D01*
X9790595Y-1098695D01*
X9798687Y-1090603D01*
X9805046Y-1081087D01*
X9807018Y-1076325D01*
X9807018Y-1096798D01*
X9802250Y-1101566D01*
X9791856Y-1103634D01*
X9781282Y-1108014D01*
X9771766Y-1114372D01*
X9763674Y-1122464D01*
X9757316Y-1131980D01*
X9752936Y-1142554D01*
X9750703Y-1153779D01*
X9750703Y-1165223D01*
X9750877Y-1166098D01*
X9712364Y-1166098D01*
X9710124Y-1165877D01*
X9707884Y-1166098D01*
X9707884Y-1166098D01*
X9701185Y-1166758D01*
X9692589Y-1169365D01*
X9684667Y-1173600D01*
X9681777Y-1175972D01*
X9677724Y-1179298D01*
X9676296Y-1181038D01*
X9600724Y-1256610D01*
X9598984Y-1258038D01*
X9597556Y-1259778D01*
X9597556Y-1259778D01*
X9593286Y-1264982D01*
X9589051Y-1272903D01*
X9587626Y-1277604D01*
X9586464Y-1281434D01*
X9586444Y-1281499D01*
X9585563Y-1290438D01*
X9585784Y-1292679D01*
X9585784Y-1454089D01*
X9577361Y-1459717D01*
X9569269Y-1467809D01*
X9562911Y-1477325D01*
X9558531Y-1487899D01*
X9556298Y-1499124D01*
X9556298Y-1510568D01*
X9558531Y-1521793D01*
X9562911Y-1532367D01*
X9569269Y-1541883D01*
X9577361Y-1549975D01*
X9586877Y-1556333D01*
X9597451Y-1560713D01*
X9608676Y-1562946D01*
X9620120Y-1562946D01*
X9631345Y-1560713D01*
X9641919Y-1556333D01*
X9651435Y-1549975D01*
X9659527Y-1541883D01*
X9665886Y-1532367D01*
X9670265Y-1521793D01*
X9672498Y-1510568D01*
X9672498Y-1507675D01*
X9673717Y-1505395D01*
X9676324Y-1496799D01*
X9676984Y-1490100D01*
X9676984Y-1490100D01*
X9677205Y-1487860D01*
X9676984Y-1485620D01*
X9676984Y-1395020D01*
X9679439Y-1397475D01*
X9688955Y-1403833D01*
X9699529Y-1408213D01*
X9701721Y-1408649D01*
X9701779Y-1408789D01*
X9707483Y-1417325D01*
X9700260Y-1424548D01*
X9691713Y-1437340D01*
X9685825Y-1451553D01*
X9682824Y-1466642D01*
X9682824Y-1482026D01*
X9685825Y-1497115D01*
X9691713Y-1511328D01*
X9700260Y-1524120D01*
X9711138Y-1534998D01*
X9723930Y-1543545D01*
X9729806Y-1545979D01*
X9561608Y-1714178D01*
X9559868Y-1715606D01*
X9558440Y-1717346D01*
X9558440Y-1717346D01*
X9554170Y-1722549D01*
X9549935Y-1730471D01*
X9547328Y-1739067D01*
X9546447Y-1748006D01*
X9546668Y-1750247D01*
X9546668Y-1916014D01*
X9540781Y-1924825D01*
X9536401Y-1935399D01*
X9534168Y-1946624D01*
X9429357Y-1946624D01*
X9432463Y-1939126D01*
X9434888Y-1926935D01*
X9434888Y-1914505D01*
X9432463Y-1902314D01*
X9427707Y-1890831D01*
X9422621Y-1883220D01*
X9427707Y-1875609D01*
X9432463Y-1864126D01*
X9434888Y-1851935D01*
X9434888Y-1839505D01*
X9432463Y-1827314D01*
X9427707Y-1815831D01*
X9422621Y-1808220D01*
X9427707Y-1800609D01*
X9432463Y-1789126D01*
X9434888Y-1776935D01*
X9434888Y-1764505D01*
X9432463Y-1752314D01*
X9427707Y-1740831D01*
X9420801Y-1730496D01*
X9413734Y-1723429D01*
X9415658Y-1720618D01*
X9415928Y-1720120D01*
X9415928Y-1720120D01*
X9415928Y-1720119D01*
X9425090Y-1702887D01*
X9426493Y-1699485D01*
X9427942Y-1696103D01*
X9428110Y-1695562D01*
X9433751Y-1676878D01*
X9434467Y-1673262D01*
X9435230Y-1669669D01*
X9435290Y-1669106D01*
X9435290Y-1669105D01*
X9435290Y-1669104D01*
X9437194Y-1649682D01*
X9437194Y-1649682D01*
X9437388Y-1647714D01*
X9437388Y-1243726D01*
X9437185Y-1241660D01*
X9437185Y-1240362D01*
X9437125Y-1239798D01*
X9434950Y-1220403D01*
X9434184Y-1216800D01*
X9433470Y-1213194D01*
X9433302Y-1212652D01*
X9427401Y-1194049D01*
X9425950Y-1190664D01*
X9424549Y-1187265D01*
X9424280Y-1186767D01*
X9424280Y-1186767D01*
X9424279Y-1186766D01*
X9414877Y-1169664D01*
X9413741Y-1168004D01*
X9420801Y-1160944D01*
X9427707Y-1150609D01*
X9432463Y-1139126D01*
X9434888Y-1126935D01*
X9434888Y-1114505D01*
X9432463Y-1102314D01*
X9427707Y-1090831D01*
X9422621Y-1083220D01*
X9427707Y-1075609D01*
X9432463Y-1064126D01*
X9434888Y-1051935D01*
X9434888Y-1039505D01*
X9432463Y-1027314D01*
X9427707Y-1015831D01*
X9422621Y-1008220D01*
X9427707Y-1000609D01*
X9432463Y-989126D01*
X9434888Y-976935D01*
X9434888Y-964505D01*
X9432463Y-952314D01*
X9427707Y-940831D01*
X9420801Y-930496D01*
X9413734Y-923429D01*
X9415658Y-920618D01*
X9415928Y-920120D01*
X9415928Y-920120D01*
X9415928Y-920119D01*
X9425090Y-902887D01*
X9426493Y-899485D01*
X9427942Y-896103D01*
X9428110Y-895562D01*
X9433751Y-876878D01*
X9434467Y-873262D01*
X9435230Y-869669D01*
X9435290Y-869106D01*
X9435290Y-869105D01*
X9435290Y-869104D01*
X9437194Y-849682D01*
X9437194Y-849682D01*
X9437388Y-847714D01*
X9437388Y-443726D01*
X9437185Y-441660D01*
X9437185Y-440362D01*
X9437125Y-439798D01*
X9434950Y-420403D01*
X9434184Y-416799D01*
X9433470Y-413194D01*
X9433302Y-412652D01*
X9427401Y-394049D01*
X9425950Y-390664D01*
X9424549Y-387265D01*
X9424280Y-386767D01*
X9424280Y-386766D01*
X9424279Y-386766D01*
X9414877Y-369664D01*
X9413741Y-368004D01*
X9420801Y-360944D01*
X9427707Y-350609D01*
X9432463Y-339126D01*
X9434888Y-326935D01*
X9434888Y-314505D01*
X9432463Y-302314D01*
X9427707Y-290831D01*
X9422621Y-283220D01*
X9427707Y-275609D01*
X9432463Y-264126D01*
X9434888Y-251935D01*
X9434888Y-239505D01*
X9432463Y-227314D01*
X9427707Y-215831D01*
X9422621Y-208220D01*
X9427707Y-200609D01*
X9432463Y-189126D01*
X9434888Y-176935D01*
X9434888Y-164505D01*
X9432843Y-154224D01*
X9719908Y-154224D01*
X9719908Y-169608D01*
X9722909Y-184697D01*
X9728797Y-198910D01*
X9737344Y-211702D01*
X9748222Y-222580D01*
X9761014Y-231127D01*
X9775227Y-237015D01*
X9790316Y-240016D01*
X9805700Y-240016D01*
X9820789Y-237015D01*
X9835002Y-231127D01*
X9847794Y-222580D01*
X9853412Y-216962D01*
X10366592Y-216962D01*
X10366592Y-232346D01*
X10369593Y-247435D01*
X10375481Y-261648D01*
X10384028Y-274440D01*
X10394906Y-285318D01*
X10407698Y-293865D01*
X10421911Y-299753D01*
X10437000Y-302754D01*
X10452384Y-302754D01*
X10467473Y-299753D01*
X10481686Y-293865D01*
X10494478Y-285318D01*
X10505356Y-274440D01*
X10513903Y-261648D01*
X10519791Y-247435D01*
X10522792Y-232346D01*
X10522792Y-216962D01*
X10519791Y-201873D01*
X10513903Y-187660D01*
X10505356Y-174868D01*
X10494478Y-163990D01*
X10492395Y-162598D01*
X10806388Y-162598D01*
X10806388Y-362598D01*
X10806632Y-365075D01*
X10807355Y-367458D01*
X10808528Y-369654D01*
X10810108Y-371578D01*
X10812032Y-373158D01*
X10814228Y-374331D01*
X10816610Y-375054D01*
X10819088Y-375298D01*
X11669088Y-375298D01*
X11671566Y-375054D01*
X11673948Y-374331D01*
X11676144Y-373158D01*
X11678068Y-371578D01*
X11679648Y-369654D01*
X11680821Y-367458D01*
X11681544Y-365075D01*
X11681788Y-362598D01*
X11681788Y-162598D01*
X11681544Y-160120D01*
X11680821Y-157738D01*
X11679648Y-155542D01*
X11678068Y-153618D01*
X11676144Y-152038D01*
X11673948Y-150865D01*
X11671566Y-150142D01*
X11669088Y-149898D01*
X10819088Y-149898D01*
X10816610Y-150142D01*
X10814228Y-150865D01*
X10812032Y-152038D01*
X10810108Y-153618D01*
X10808528Y-155542D01*
X10807355Y-157738D01*
X10806632Y-160120D01*
X10806388Y-162598D01*
X10492395Y-162598D01*
X10481686Y-155443D01*
X10467473Y-149555D01*
X10452384Y-146554D01*
X10437000Y-146554D01*
X10421911Y-149555D01*
X10407698Y-155443D01*
X10394906Y-163990D01*
X10384028Y-174868D01*
X10375481Y-187660D01*
X10369593Y-201873D01*
X10366592Y-216962D01*
X9853412Y-216962D01*
X9858672Y-211702D01*
X9867219Y-198910D01*
X9873107Y-184697D01*
X9876108Y-169608D01*
X9876108Y-154224D01*
X9873107Y-139135D01*
X9867219Y-124922D01*
X9858672Y-112130D01*
X9847794Y-101252D01*
X9835002Y-92705D01*
X9820789Y-86817D01*
X9805700Y-83816D01*
X9790316Y-83816D01*
X9775227Y-86817D01*
X9761014Y-92705D01*
X9748222Y-101252D01*
X9737344Y-112130D01*
X9728797Y-124922D01*
X9722909Y-139135D01*
X9719908Y-154224D01*
X9432843Y-154224D01*
X9432463Y-152314D01*
X9427707Y-140831D01*
X9420801Y-130496D01*
X9413734Y-123429D01*
X9415658Y-120618D01*
X9415928Y-120120D01*
X9415928Y-120120D01*
X9415928Y-120119D01*
X9425090Y-102887D01*
X9426493Y-99485D01*
X9427942Y-96103D01*
X9428110Y-95562D01*
X9433751Y-76878D01*
X9434467Y-73263D01*
X9435230Y-69669D01*
X9435290Y-69106D01*
X9435290Y-69105D01*
X9435290Y-69104D01*
X9436809Y-53612D01*
X9436823Y-53565D01*
X9437394Y-47598D01*
X9437062Y68856D01*
X9548148Y68856D01*
X9548148Y41652D01*
X9553455Y14972D01*
X9563865Y-10161D01*
X9578979Y-32780D01*
X9598214Y-52015D01*
X9620833Y-67129D01*
X9645966Y-77539D01*
X9672646Y-82846D01*
X9699850Y-82846D01*
X9726530Y-77539D01*
X9751663Y-67129D01*
X9774282Y-52015D01*
X9793517Y-32780D01*
X9808631Y-10161D01*
X9819041Y14972D01*
X9824348Y41652D01*
X9824348Y68856D01*
X9819041Y95536D01*
X9808631Y120669D01*
X9793517Y143288D01*
X9774282Y162523D01*
X9751663Y177637D01*
X9726530Y188047D01*
X9699850Y193354D01*
X9672646Y193354D01*
X9645966Y188047D01*
X9620833Y177637D01*
X9598214Y162523D01*
X9578979Y143288D01*
X9563865Y120669D01*
X9553455Y95536D01*
X9548148Y68856D01*
X9437062Y68856D01*
X9436520Y259007D01*
X11112568Y259007D01*
X11112568Y74007D01*
X11112812Y71530D01*
X11113535Y69147D01*
X11114708Y66952D01*
X11116288Y65027D01*
X11118212Y63448D01*
X11120408Y62274D01*
X11122790Y61551D01*
X11125268Y61307D01*
X11370268Y61307D01*
X11372746Y61551D01*
X11375128Y62274D01*
X11377324Y63448D01*
X11379248Y65027D01*
X11380828Y66952D01*
X11381845Y68856D01*
X12348148Y68856D01*
X12348148Y41652D01*
X12353455Y14972D01*
X12363865Y-10161D01*
X12378979Y-32780D01*
X12398214Y-52015D01*
X12420833Y-67129D01*
X12445966Y-77539D01*
X12472646Y-82846D01*
X12499850Y-82846D01*
X12526530Y-77539D01*
X12551663Y-67129D01*
X12574282Y-52015D01*
X12593517Y-32780D01*
X12608631Y-10161D01*
X12619041Y14972D01*
X12624348Y41652D01*
X12624348Y68856D01*
X12619041Y95536D01*
X12608631Y120669D01*
X12593517Y143288D01*
X12574282Y162523D01*
X12551663Y177637D01*
X12526530Y188047D01*
X12499850Y193354D01*
X12472646Y193354D01*
X12445966Y188047D01*
X12420833Y177637D01*
X12398214Y162523D01*
X12378979Y143288D01*
X12363865Y120669D01*
X12353455Y95536D01*
X12348148Y68856D01*
X11381845Y68856D01*
X11382001Y69147D01*
X11382724Y71530D01*
X11382968Y74007D01*
X11382968Y259007D01*
X11382724Y261485D01*
X11382001Y263868D01*
X11380828Y266063D01*
X11379248Y267988D01*
X11377324Y269567D01*
X11375128Y270741D01*
X11372746Y271463D01*
X11370268Y271707D01*
X11125268Y271707D01*
X11122790Y271463D01*
X11120408Y270741D01*
X11118212Y269567D01*
X11116288Y267988D01*
X11114708Y266063D01*
X11113535Y263868D01*
X11112812Y261485D01*
X11112568Y259007D01*
X9436520Y259007D01*
X9436362Y314698D01*
X12750648Y314698D01*
X12750648Y-3004105D01*
G37*
%TD.AperFunction*%
D15*
X10033682Y-1754362D02*
X9842920Y-1754362D01*
X9840680Y-1754141D01*
X9838440Y-1754362D01*
X9838440Y-1754362D01*
X9831741Y-1755022D01*
X9823423Y-1757545D01*
X9823145Y-1757629D01*
X9815223Y-1761864D01*
X9811885Y-1764604D01*
X9808280Y-1767562D01*
X9806852Y-1769302D01*
X9745178Y-1830976D01*
X9739928Y-1827468D01*
X9736382Y-1826000D01*
X9815626Y-1746756D01*
X10035195Y-1746756D01*
X10033682Y-1754362D01*
%TA.AperFunction,Conductor*%
D16*
G36*
X10033682Y-1754362D02*
G01*
X9842920Y-1754362D01*
X9840680Y-1754141D01*
X9838440Y-1754362D01*
X9838440Y-1754362D01*
X9831741Y-1755022D01*
X9823423Y-1757545D01*
X9823145Y-1757629D01*
X9815223Y-1761864D01*
X9811885Y-1764604D01*
X9808280Y-1767562D01*
X9806852Y-1769302D01*
X9745178Y-1830976D01*
X9739928Y-1827468D01*
X9736382Y-1826000D01*
X9815626Y-1746756D01*
X10035195Y-1746756D01*
X10033682Y-1754362D01*
G37*
%TD.AperFunction*%
D15*
X10971932Y-1349254D02*
X10976890Y-1353323D01*
X10978876Y-1354953D01*
X10980235Y-1355679D01*
X10986797Y-1359187D01*
X10995393Y-1361794D01*
X11002092Y-1362454D01*
X11002093Y-1362454D01*
X11004332Y-1362675D01*
X11006572Y-1362454D01*
X11723126Y-1362454D01*
X11719106Y-1368471D01*
X11713218Y-1382684D01*
X11710217Y-1397773D01*
X11710217Y-1413157D01*
X11713218Y-1428246D01*
X11719106Y-1442459D01*
X11727653Y-1455251D01*
X11738531Y-1466129D01*
X11751323Y-1474676D01*
X11765536Y-1480564D01*
X11768021Y-1481058D01*
X10434948Y-1481058D01*
X10434948Y-1473324D01*
X10432715Y-1462099D01*
X10428336Y-1451525D01*
X10421977Y-1442009D01*
X10414320Y-1434352D01*
X10411427Y-1430827D01*
X10409319Y-1420229D01*
X10408112Y-1417316D01*
X10642606Y-1417316D01*
X10644846Y-1417537D01*
X10647086Y-1417316D01*
X10647086Y-1417316D01*
X10653785Y-1416656D01*
X10662381Y-1414049D01*
X10670303Y-1409814D01*
X10677246Y-1404116D01*
X10678674Y-1402376D01*
X10732671Y-1348379D01*
X10971214Y-1348379D01*
X10971932Y-1349254D01*
%TA.AperFunction,Conductor*%
D16*
G36*
X10971932Y-1349254D02*
G01*
X10976890Y-1353323D01*
X10978876Y-1354953D01*
X10980235Y-1355679D01*
X10986797Y-1359187D01*
X10995393Y-1361794D01*
X11002092Y-1362454D01*
X11002093Y-1362454D01*
X11004332Y-1362675D01*
X11006572Y-1362454D01*
X11723126Y-1362454D01*
X11719106Y-1368471D01*
X11713218Y-1382684D01*
X11710217Y-1397773D01*
X11710217Y-1413157D01*
X11713218Y-1428246D01*
X11719106Y-1442459D01*
X11727653Y-1455251D01*
X11738531Y-1466129D01*
X11751323Y-1474676D01*
X11765536Y-1480564D01*
X11768021Y-1481058D01*
X10434948Y-1481058D01*
X10434948Y-1473324D01*
X10432715Y-1462099D01*
X10428336Y-1451525D01*
X10421977Y-1442009D01*
X10414320Y-1434352D01*
X10411427Y-1430827D01*
X10409319Y-1420229D01*
X10408112Y-1417316D01*
X10642606Y-1417316D01*
X10644846Y-1417537D01*
X10647086Y-1417316D01*
X10647086Y-1417316D01*
X10653785Y-1416656D01*
X10662381Y-1414049D01*
X10670303Y-1409814D01*
X10677246Y-1404116D01*
X10678674Y-1402376D01*
X10732671Y-1348379D01*
X10971214Y-1348379D01*
X10971932Y-1349254D01*
G37*
%TD.AperFunction*%
D15*
X9856815Y-1428211D02*
X9883180Y-1454576D01*
X9842338Y-1454576D01*
X9840098Y-1454355D01*
X9837859Y-1454576D01*
X9837858Y-1454576D01*
X9836648Y-1454695D01*
X9836023Y-1451553D01*
X9830135Y-1437340D01*
X9823750Y-1427783D01*
X9856815Y-1428211D01*
%TA.AperFunction,Conductor*%
D16*
G36*
X9856815Y-1428211D02*
G01*
X9883180Y-1454576D01*
X9842338Y-1454576D01*
X9840098Y-1454355D01*
X9837859Y-1454576D01*
X9837858Y-1454576D01*
X9836648Y-1454695D01*
X9836023Y-1451553D01*
X9830135Y-1437340D01*
X9823750Y-1427783D01*
X9856815Y-1428211D01*
G37*
%TD.AperFunction*%
D15*
X10049594Y-1347435D02*
X10051184Y-1347592D01*
X10048211Y-1354769D01*
X10045978Y-1365994D01*
X10045978Y-1377438D01*
X10047895Y-1387076D01*
X9944656Y-1387076D01*
X9909984Y-1352404D01*
X9908763Y-1350877D01*
X9906816Y-1349236D01*
X9906607Y-1349027D01*
X9905103Y-1347793D01*
X9904679Y-1347435D01*
X10049594Y-1347435D01*
%TA.AperFunction,Conductor*%
D16*
G36*
X10049594Y-1347435D02*
G01*
X10051184Y-1347592D01*
X10048211Y-1354769D01*
X10045978Y-1365994D01*
X10045978Y-1377438D01*
X10047895Y-1387076D01*
X9944656Y-1387076D01*
X9909984Y-1352404D01*
X9908763Y-1350877D01*
X9906816Y-1349236D01*
X9906607Y-1349027D01*
X9905103Y-1347793D01*
X9904679Y-1347435D01*
X10049594Y-1347435D01*
G37*
%TD.AperFunction*%
%TD*%
D15*
%TO.N,GND*%
X9156188Y-47714D02*
X9156392Y-49780D01*
X9156392Y-51078D01*
X9156451Y-51642D01*
X9158626Y-71037D01*
X9159392Y-74641D01*
X9160106Y-78246D01*
X9160274Y-78788D01*
X9166175Y-97391D01*
X9167626Y-100776D01*
X9169027Y-104175D01*
X9169296Y-104673D01*
X9169297Y-104673D01*
X9169297Y-104674D01*
X9178699Y-121776D01*
X9179835Y-123436D01*
X9172775Y-130496D01*
X9165870Y-140831D01*
X9161113Y-152314D01*
X9158688Y-164505D01*
X9158688Y-176935D01*
X9161113Y-189126D01*
X9165870Y-200609D01*
X9170955Y-208220D01*
X9165870Y-215831D01*
X9161113Y-227314D01*
X9158688Y-239505D01*
X9158688Y-251935D01*
X9161113Y-264126D01*
X9165870Y-275609D01*
X9170955Y-283220D01*
X9165870Y-290831D01*
X9161113Y-302314D01*
X9158688Y-314505D01*
X9158688Y-326935D01*
X9161113Y-339126D01*
X9165870Y-350609D01*
X9172775Y-360944D01*
X9179842Y-368011D01*
X9177918Y-370822D01*
X9177649Y-371320D01*
X9177648Y-371320D01*
X9177648Y-371320D01*
X9168486Y-388552D01*
X9167083Y-391956D01*
X9165634Y-395337D01*
X9165466Y-395878D01*
X9159825Y-414562D01*
X9159109Y-418179D01*
X9158346Y-421771D01*
X9158286Y-422334D01*
X9158286Y-422335D01*
X9158286Y-422336D01*
X9156382Y-441758D01*
X9156188Y-443726D01*
X9156188Y-847714D01*
X9156392Y-849779D01*
X9156392Y-851078D01*
X9156451Y-851642D01*
X9158626Y-871037D01*
X9159392Y-874640D01*
X9160106Y-878246D01*
X9160274Y-878788D01*
X9166175Y-897391D01*
X9167626Y-900776D01*
X9169027Y-904175D01*
X9169296Y-904673D01*
X9169297Y-904673D01*
X9169297Y-904674D01*
X9178699Y-921776D01*
X9179835Y-923436D01*
X9172775Y-930496D01*
X9165870Y-940831D01*
X9161113Y-952314D01*
X9158688Y-964505D01*
X9158688Y-976935D01*
X9161113Y-989126D01*
X9165870Y-1000609D01*
X9170955Y-1008220D01*
X9165870Y-1015831D01*
X9161113Y-1027314D01*
X9158688Y-1039505D01*
X9158688Y-1051935D01*
X9161113Y-1064126D01*
X9165870Y-1075609D01*
X9170955Y-1083220D01*
X9165870Y-1090831D01*
X9161113Y-1102314D01*
X9158688Y-1114505D01*
X9158688Y-1126935D01*
X9161113Y-1139126D01*
X9165870Y-1150609D01*
X9172775Y-1160944D01*
X9179842Y-1168011D01*
X9177918Y-1170822D01*
X9177649Y-1171320D01*
X9177648Y-1171320D01*
X9177648Y-1171320D01*
X9168486Y-1188553D01*
X9167083Y-1191956D01*
X9165634Y-1195337D01*
X9165466Y-1195878D01*
X9159825Y-1214562D01*
X9159109Y-1218179D01*
X9158346Y-1221771D01*
X9158286Y-1222334D01*
X9158286Y-1222335D01*
X9158286Y-1222336D01*
X9156382Y-1241758D01*
X9156188Y-1243726D01*
X9156188Y-1643725D01*
X9155992Y-1645720D01*
X9156392Y-1649780D01*
X9156392Y-1651078D01*
X9156451Y-1651642D01*
X9158626Y-1671037D01*
X9159392Y-1674640D01*
X9160106Y-1678246D01*
X9160274Y-1678788D01*
X9166175Y-1697391D01*
X9167626Y-1700776D01*
X9169027Y-1704175D01*
X9169296Y-1704673D01*
X9169297Y-1704673D01*
X9169297Y-1704674D01*
X9178699Y-1721776D01*
X9179835Y-1723436D01*
X9172775Y-1730496D01*
X9165870Y-1740831D01*
X9161113Y-1752314D01*
X9158688Y-1764505D01*
X9158688Y-1776935D01*
X9161113Y-1789126D01*
X9165870Y-1800609D01*
X9170955Y-1808220D01*
X9165870Y-1815831D01*
X9161113Y-1827314D01*
X9158688Y-1839505D01*
X9158688Y-1851935D01*
X9161113Y-1864126D01*
X9165870Y-1875609D01*
X9170955Y-1883220D01*
X9165870Y-1890831D01*
X9161113Y-1902314D01*
X9158688Y-1914505D01*
X9158688Y-1926935D01*
X9161113Y-1939126D01*
X9165870Y-1950609D01*
X9172775Y-1960944D01*
X9179842Y-1968011D01*
X9177918Y-1970822D01*
X9177649Y-1971320D01*
X9177648Y-1971320D01*
X9177648Y-1971320D01*
X9168486Y-1988552D01*
X9167083Y-1991956D01*
X9165634Y-1995337D01*
X9165466Y-1995878D01*
X9159825Y-2014562D01*
X9159109Y-2018179D01*
X9158346Y-2021771D01*
X9158286Y-2022334D01*
X9158286Y-2022335D01*
X9158286Y-2022336D01*
X9156382Y-2041758D01*
X9156188Y-2043726D01*
X9156188Y-2447714D01*
X9156392Y-2449779D01*
X9156392Y-2451078D01*
X9156451Y-2451642D01*
X9158626Y-2471037D01*
X9159392Y-2474641D01*
X9160106Y-2478246D01*
X9160274Y-2478788D01*
X9166175Y-2497391D01*
X9167626Y-2500776D01*
X9169027Y-2504175D01*
X9169296Y-2504673D01*
X9169297Y-2504674D01*
X9169297Y-2504674D01*
X9178699Y-2521776D01*
X9179835Y-2523436D01*
X9172775Y-2530496D01*
X9165870Y-2540831D01*
X9161113Y-2552314D01*
X9158688Y-2564505D01*
X9158688Y-2576935D01*
X9161113Y-2589126D01*
X9165870Y-2600609D01*
X9170955Y-2608220D01*
X9165870Y-2615831D01*
X9161113Y-2627314D01*
X9158688Y-2639505D01*
X9158688Y-2651935D01*
X9161113Y-2664126D01*
X9165870Y-2675609D01*
X9170955Y-2683220D01*
X9165870Y-2690831D01*
X9161113Y-2702314D01*
X9158688Y-2714505D01*
X9158688Y-2726935D01*
X9161113Y-2739126D01*
X9165870Y-2750609D01*
X9172775Y-2760944D01*
X9179842Y-2768011D01*
X9177918Y-2770822D01*
X9177649Y-2771320D01*
X9177648Y-2771320D01*
X9177648Y-2771320D01*
X9168486Y-2788553D01*
X9167083Y-2791956D01*
X9165634Y-2795337D01*
X9165466Y-2795878D01*
X9159825Y-2814562D01*
X9159109Y-2818179D01*
X9158346Y-2821771D01*
X9158286Y-2822334D01*
X9158286Y-2822335D01*
X9158286Y-2822336D01*
X9156382Y-2841758D01*
X9156191Y-2843674D01*
X9155986Y-3005120D01*
X5836880Y-3005120D01*
X5836880Y-2923080D01*
X6757880Y-2923080D01*
X6770471Y-2952078D01*
X6803693Y-2968663D01*
X6839511Y-2978449D01*
X6876551Y-2981059D01*
X6913387Y-2976392D01*
X6948606Y-2964629D01*
X6972089Y-2952078D01*
X6984680Y-2923080D01*
X6871280Y-2809680D01*
X6757880Y-2923080D01*
X5836880Y-2923080D01*
X5836880Y-2732118D01*
X5958180Y-2732118D01*
X5958180Y-2759322D01*
X5963487Y-2786002D01*
X5973897Y-2811135D01*
X5989011Y-2833754D01*
X6008246Y-2852989D01*
X6030865Y-2868103D01*
X6055998Y-2878513D01*
X6082678Y-2883820D01*
X6109882Y-2883820D01*
X6136562Y-2878513D01*
X6161695Y-2868103D01*
X6184314Y-2852989D01*
X6203549Y-2833754D01*
X6218663Y-2811135D01*
X6224521Y-2796991D01*
X6681941Y-2796991D01*
X6686607Y-2833827D01*
X6698371Y-2869046D01*
X6710922Y-2892529D01*
X6739919Y-2905120D01*
X6853319Y-2791720D01*
X6889240Y-2791720D01*
X7002640Y-2905120D01*
X7031638Y-2892529D01*
X7048223Y-2859307D01*
X7058009Y-2823489D01*
X7060619Y-2786449D01*
X7059252Y-2775656D01*
X7908180Y-2775656D01*
X7908180Y-2807784D01*
X7914448Y-2839294D01*
X7926743Y-2868977D01*
X7944592Y-2895690D01*
X7967310Y-2918408D01*
X7994023Y-2936257D01*
X8023705Y-2948552D01*
X8055216Y-2954820D01*
X8087344Y-2954820D01*
X8118854Y-2948552D01*
X8148537Y-2936257D01*
X8175250Y-2918408D01*
X8197968Y-2895690D01*
X8215817Y-2868977D01*
X8228112Y-2839294D01*
X8234380Y-2807784D01*
X8234380Y-2775656D01*
X8228112Y-2744146D01*
X8223130Y-2732118D01*
X8758180Y-2732118D01*
X8758180Y-2759322D01*
X8763487Y-2786002D01*
X8773897Y-2811135D01*
X8789011Y-2833754D01*
X8808246Y-2852989D01*
X8830865Y-2868103D01*
X8855998Y-2878513D01*
X8882678Y-2883820D01*
X8909882Y-2883820D01*
X8936562Y-2878513D01*
X8961695Y-2868103D01*
X8984314Y-2852989D01*
X9003549Y-2833754D01*
X9018663Y-2811135D01*
X9029073Y-2786002D01*
X9034380Y-2759322D01*
X9034380Y-2732118D01*
X9029073Y-2705438D01*
X9018663Y-2680305D01*
X9003549Y-2657686D01*
X8984314Y-2638451D01*
X8961695Y-2623337D01*
X8936562Y-2612927D01*
X8909882Y-2607620D01*
X8882678Y-2607620D01*
X8855998Y-2612927D01*
X8830865Y-2623337D01*
X8808246Y-2638451D01*
X8789011Y-2657686D01*
X8773897Y-2680305D01*
X8763487Y-2705438D01*
X8758180Y-2732118D01*
X8223130Y-2732118D01*
X8215817Y-2714463D01*
X8197968Y-2687750D01*
X8175250Y-2665032D01*
X8148537Y-2647183D01*
X8118854Y-2634888D01*
X8087344Y-2628620D01*
X8055216Y-2628620D01*
X8023705Y-2634888D01*
X7994023Y-2647183D01*
X7967310Y-2665032D01*
X7944592Y-2687750D01*
X7926743Y-2714463D01*
X7914448Y-2744146D01*
X7908180Y-2775656D01*
X7059252Y-2775656D01*
X7055952Y-2749613D01*
X7044189Y-2714394D01*
X7031638Y-2690911D01*
X7002640Y-2678320D01*
X6889240Y-2791720D01*
X6853319Y-2791720D01*
X6739919Y-2678320D01*
X6710922Y-2690911D01*
X6694337Y-2724133D01*
X6684551Y-2759951D01*
X6681941Y-2796991D01*
X6224521Y-2796991D01*
X6229073Y-2786002D01*
X6234380Y-2759322D01*
X6234380Y-2732118D01*
X6229073Y-2705438D01*
X6221588Y-2687368D01*
X6393040Y-2687368D01*
X6393040Y-2702752D01*
X6396041Y-2717841D01*
X6401929Y-2732054D01*
X6410476Y-2744846D01*
X6421354Y-2755724D01*
X6434146Y-2764271D01*
X6448359Y-2770159D01*
X6463448Y-2773160D01*
X6478832Y-2773160D01*
X6493921Y-2770159D01*
X6508134Y-2764271D01*
X6520926Y-2755724D01*
X6531804Y-2744846D01*
X6540351Y-2732054D01*
X6546239Y-2717841D01*
X6549240Y-2702752D01*
X6549240Y-2687368D01*
X6546239Y-2672279D01*
X6540351Y-2658066D01*
X6531804Y-2645274D01*
X6520926Y-2634396D01*
X6508134Y-2625849D01*
X6493921Y-2619961D01*
X6478832Y-2616960D01*
X6463448Y-2616960D01*
X6448359Y-2619961D01*
X6434146Y-2625849D01*
X6421354Y-2634396D01*
X6410476Y-2645274D01*
X6401929Y-2658066D01*
X6396041Y-2672279D01*
X6393040Y-2687368D01*
X6221588Y-2687368D01*
X6218663Y-2680305D01*
X6203549Y-2657686D01*
X6184314Y-2638451D01*
X6161695Y-2623337D01*
X6136562Y-2612927D01*
X6109882Y-2607620D01*
X6082678Y-2607620D01*
X6055998Y-2612927D01*
X6030865Y-2623337D01*
X6008246Y-2638451D01*
X5989011Y-2657686D01*
X5973897Y-2680305D01*
X5963487Y-2705438D01*
X5958180Y-2732118D01*
X5836880Y-2732118D01*
X5836880Y-2571798D01*
X6687680Y-2571798D01*
X6687680Y-2587182D01*
X6690681Y-2602271D01*
X6696569Y-2616484D01*
X6705116Y-2629276D01*
X6715994Y-2640154D01*
X6728786Y-2648701D01*
X6742999Y-2654589D01*
X6758088Y-2657590D01*
X6759083Y-2657590D01*
X6757880Y-2660360D01*
X6871280Y-2773760D01*
X6984680Y-2660360D01*
X6972089Y-2631362D01*
X6938867Y-2614777D01*
X6903049Y-2604991D01*
X6866009Y-2602381D01*
X6839439Y-2605747D01*
X6840879Y-2602271D01*
X6843880Y-2587182D01*
X6843880Y-2571798D01*
X6840879Y-2556709D01*
X6834991Y-2542496D01*
X6826444Y-2529704D01*
X6815566Y-2518826D01*
X6802774Y-2510279D01*
X6788561Y-2504391D01*
X6773472Y-2501390D01*
X6758088Y-2501390D01*
X6742999Y-2504391D01*
X6728786Y-2510279D01*
X6715994Y-2518826D01*
X6705116Y-2529704D01*
X6696569Y-2542496D01*
X6690681Y-2556709D01*
X6687680Y-2571798D01*
X5836880Y-2571798D01*
X5836880Y-2153968D01*
X6845160Y-2153968D01*
X6845160Y-2169352D01*
X6848161Y-2184441D01*
X6854049Y-2198654D01*
X6862596Y-2211446D01*
X6873474Y-2222324D01*
X6886266Y-2230871D01*
X6900479Y-2236759D01*
X6915568Y-2239760D01*
X6930952Y-2239760D01*
X6946041Y-2236759D01*
X6960254Y-2230871D01*
X6973046Y-2222324D01*
X6983924Y-2211446D01*
X6992471Y-2198654D01*
X6998359Y-2184441D01*
X7001360Y-2169352D01*
X7001360Y-2153968D01*
X6998359Y-2138879D01*
X6992471Y-2124666D01*
X6983924Y-2111874D01*
X6973860Y-2101810D01*
X6973860Y-1708198D01*
X7387450Y-1708198D01*
X7387450Y-1723582D01*
X7390451Y-1738671D01*
X7396339Y-1752884D01*
X7404886Y-1765676D01*
X7415764Y-1776554D01*
X7428556Y-1785101D01*
X7442769Y-1790989D01*
X7457858Y-1793990D01*
X7473242Y-1793990D01*
X7488331Y-1790989D01*
X7502544Y-1785101D01*
X7515336Y-1776554D01*
X7526214Y-1765676D01*
X7534761Y-1752884D01*
X7540649Y-1738671D01*
X7543650Y-1723582D01*
X7543650Y-1708198D01*
X7540649Y-1693109D01*
X7534761Y-1678896D01*
X7526214Y-1666104D01*
X7515336Y-1655226D01*
X7502544Y-1646679D01*
X7488331Y-1640791D01*
X7473242Y-1637790D01*
X7457858Y-1637790D01*
X7442769Y-1640791D01*
X7428556Y-1646679D01*
X7415764Y-1655226D01*
X7404886Y-1666104D01*
X7396339Y-1678896D01*
X7390451Y-1693109D01*
X7387450Y-1708198D01*
X6973860Y-1708198D01*
X6973860Y-1305608D01*
X6987400Y-1305608D01*
X6987400Y-1320992D01*
X6990401Y-1336081D01*
X6996289Y-1350294D01*
X7004836Y-1363086D01*
X7015714Y-1373964D01*
X7028506Y-1382511D01*
X7042719Y-1388399D01*
X7057808Y-1391400D01*
X7073192Y-1391400D01*
X7088281Y-1388399D01*
X7102494Y-1382511D01*
X7115286Y-1373964D01*
X7126164Y-1363086D01*
X7134711Y-1350294D01*
X7140599Y-1336081D01*
X7143600Y-1320992D01*
X7143600Y-1305608D01*
X7140599Y-1290519D01*
X7134711Y-1276306D01*
X7126164Y-1263514D01*
X7115286Y-1252636D01*
X7102494Y-1244089D01*
X7088281Y-1238201D01*
X7073192Y-1235200D01*
X7057808Y-1235200D01*
X7042719Y-1238201D01*
X7028506Y-1244089D01*
X7015714Y-1252636D01*
X7004836Y-1263514D01*
X6996289Y-1276306D01*
X6990401Y-1290519D01*
X6987400Y-1305608D01*
X6973860Y-1305608D01*
X6973860Y-1280778D01*
X7232008Y-1022630D01*
X7232971Y-1027471D01*
X7238859Y-1041684D01*
X7247406Y-1054476D01*
X7258284Y-1065354D01*
X7271076Y-1073901D01*
X7285289Y-1079789D01*
X7300378Y-1082790D01*
X7315762Y-1082790D01*
X7330851Y-1079789D01*
X7345064Y-1073901D01*
X7354469Y-1067617D01*
X7359509Y-1079784D01*
X7368056Y-1092576D01*
X7378934Y-1103454D01*
X7391726Y-1112001D01*
X7405939Y-1117889D01*
X7421028Y-1120890D01*
X7436412Y-1120890D01*
X7451501Y-1117889D01*
X7465714Y-1112001D01*
X7478506Y-1103454D01*
X7489384Y-1092576D01*
X7497931Y-1079784D01*
X7500410Y-1073800D01*
X7507204Y-1080594D01*
X7519996Y-1089141D01*
X7534209Y-1095029D01*
X7549298Y-1098030D01*
X7564682Y-1098030D01*
X7579771Y-1095029D01*
X7593984Y-1089141D01*
X7606776Y-1080594D01*
X7617654Y-1069716D01*
X7626201Y-1056924D01*
X7626727Y-1055655D01*
X7627941Y-1061761D01*
X7633829Y-1075974D01*
X7642376Y-1088766D01*
X7653254Y-1099644D01*
X7666046Y-1108191D01*
X7680259Y-1114079D01*
X7695348Y-1117080D01*
X7710732Y-1117080D01*
X7725821Y-1114079D01*
X7740034Y-1108191D01*
X7752826Y-1099644D01*
X7763704Y-1088766D01*
X7772251Y-1075974D01*
X7778139Y-1061761D01*
X7779440Y-1055218D01*
X7779440Y-2087840D01*
X7769376Y-2097904D01*
X7760829Y-2110696D01*
X7754941Y-2124909D01*
X7751940Y-2139998D01*
X7751940Y-2155382D01*
X7754941Y-2170471D01*
X7760829Y-2184684D01*
X7769376Y-2197476D01*
X7780254Y-2208354D01*
X7793046Y-2216901D01*
X7807259Y-2222789D01*
X7822348Y-2225790D01*
X7837732Y-2225790D01*
X7852821Y-2222789D01*
X7867034Y-2216901D01*
X7879826Y-2208354D01*
X7890704Y-2197476D01*
X7899251Y-2184684D01*
X7905139Y-2170471D01*
X7908140Y-2155382D01*
X7908140Y-2139998D01*
X7905139Y-2124909D01*
X7899251Y-2110696D01*
X7890704Y-2097904D01*
X7880640Y-2087840D01*
X7880640Y-1541953D01*
X7880919Y-1542069D01*
X7896008Y-1545070D01*
X7911392Y-1545070D01*
X7926481Y-1542069D01*
X7940694Y-1536181D01*
X7953486Y-1527634D01*
X7964364Y-1516756D01*
X7972911Y-1503964D01*
X7978799Y-1489751D01*
X7981800Y-1474662D01*
X7981800Y-1459278D01*
X7978799Y-1444189D01*
X7972911Y-1429976D01*
X7964364Y-1417184D01*
X7953486Y-1406306D01*
X7940694Y-1397759D01*
X7926481Y-1391871D01*
X7911392Y-1388870D01*
X7896008Y-1388870D01*
X7880919Y-1391871D01*
X7880640Y-1391987D01*
X7880640Y-1297134D01*
X7894848Y-1299960D01*
X7910232Y-1299960D01*
X7925321Y-1296959D01*
X7939534Y-1291071D01*
X7952326Y-1282524D01*
X7963204Y-1271646D01*
X7971751Y-1258854D01*
X7977639Y-1244641D01*
X7980640Y-1229552D01*
X7980640Y-1214168D01*
X7977639Y-1199079D01*
X7971751Y-1184866D01*
X7963204Y-1172074D01*
X7952326Y-1161196D01*
X7939534Y-1152649D01*
X7925321Y-1146761D01*
X7910232Y-1143760D01*
X7894848Y-1143760D01*
X7880640Y-1146586D01*
X7880640Y-471929D01*
X7989626Y-362943D01*
X7991166Y-363971D01*
X8005379Y-369859D01*
X8020468Y-372860D01*
X8035852Y-372860D01*
X8050941Y-369859D01*
X8065154Y-363971D01*
X8077890Y-355461D01*
X8077890Y-1558888D01*
X8074854Y-1554344D01*
X8063976Y-1543466D01*
X8051184Y-1534919D01*
X8036971Y-1529031D01*
X8021882Y-1526030D01*
X8006498Y-1526030D01*
X7991409Y-1529031D01*
X7977196Y-1534919D01*
X7964404Y-1543466D01*
X7953526Y-1554344D01*
X7944979Y-1567136D01*
X7939091Y-1581349D01*
X7936090Y-1596438D01*
X7936090Y-1611822D01*
X7939091Y-1626911D01*
X7944979Y-1641124D01*
X7953526Y-1653916D01*
X7964404Y-1664794D01*
X7977196Y-1673341D01*
X7991409Y-1679229D01*
X8006498Y-1682230D01*
X8021882Y-1682230D01*
X8036971Y-1679229D01*
X8051184Y-1673341D01*
X8063976Y-1664794D01*
X8074854Y-1653916D01*
X8077890Y-1649372D01*
X8077890Y-1929304D01*
X8077645Y-1931790D01*
X8078622Y-1941709D01*
X8081515Y-1951247D01*
X8082582Y-1953243D01*
X8086214Y-1960038D01*
X8092537Y-1967743D01*
X8094468Y-1969327D01*
X8348840Y-2223699D01*
X8348840Y-2237932D01*
X8351841Y-2253021D01*
X8357729Y-2267234D01*
X8366276Y-2280026D01*
X8377154Y-2290904D01*
X8389946Y-2299451D01*
X8404159Y-2305339D01*
X8419248Y-2308340D01*
X8434632Y-2308340D01*
X8449721Y-2305339D01*
X8463934Y-2299451D01*
X8476726Y-2290904D01*
X8487604Y-2280026D01*
X8496151Y-2267234D01*
X8502039Y-2253021D01*
X8505040Y-2237932D01*
X8505040Y-2222548D01*
X8502039Y-2207459D01*
X8496151Y-2193246D01*
X8487604Y-2180454D01*
X8476726Y-2169576D01*
X8463934Y-2161029D01*
X8449721Y-2155141D01*
X8434632Y-2152140D01*
X8420399Y-2152140D01*
X8179090Y-1910831D01*
X8179090Y-1900222D01*
X8237080Y-1900222D01*
X8237080Y-1915606D01*
X8240081Y-1930695D01*
X8245969Y-1944908D01*
X8254516Y-1957700D01*
X8265394Y-1968578D01*
X8278186Y-1977125D01*
X8292399Y-1983013D01*
X8307488Y-1986014D01*
X8322872Y-1986014D01*
X8337961Y-1983013D01*
X8352174Y-1977125D01*
X8356455Y-1974265D01*
X8360736Y-1977125D01*
X8374949Y-1983013D01*
X8390038Y-1986014D01*
X8405422Y-1986014D01*
X8420511Y-1983013D01*
X8434724Y-1977125D01*
X8438370Y-1974689D01*
X8442016Y-1977125D01*
X8456229Y-1983013D01*
X8471318Y-1986014D01*
X8486702Y-1986014D01*
X8501791Y-1983013D01*
X8516004Y-1977125D01*
X8528796Y-1968578D01*
X8539674Y-1957700D01*
X8548221Y-1944908D01*
X8554109Y-1930695D01*
X8557110Y-1915606D01*
X8557110Y-1900222D01*
X8554109Y-1885133D01*
X8548221Y-1870920D01*
X8539674Y-1858128D01*
X8528796Y-1847250D01*
X8516004Y-1838703D01*
X8501791Y-1832815D01*
X8496880Y-1831838D01*
X8501066Y-1827652D01*
X8509613Y-1814860D01*
X8515501Y-1800647D01*
X8518502Y-1785558D01*
X8518502Y-1770174D01*
X8515501Y-1755085D01*
X8509613Y-1740872D01*
X8507599Y-1737857D01*
X8512153Y-1731040D01*
X8518041Y-1716827D01*
X8521042Y-1701738D01*
X8521042Y-1686354D01*
X8518041Y-1671265D01*
X8512153Y-1657052D01*
X8508870Y-1652138D01*
X8511385Y-1646066D01*
X8514387Y-1630977D01*
X8514387Y-1615593D01*
X8511385Y-1600504D01*
X8505498Y-1586291D01*
X8496951Y-1573499D01*
X8486073Y-1562621D01*
X8473281Y-1554074D01*
X8459068Y-1548186D01*
X8443979Y-1545185D01*
X8428595Y-1545185D01*
X8413506Y-1548186D01*
X8399293Y-1554074D01*
X8386501Y-1562621D01*
X8375622Y-1573499D01*
X8367075Y-1586291D01*
X8361188Y-1600504D01*
X8358187Y-1615593D01*
X8358187Y-1630977D01*
X8361188Y-1646066D01*
X8367075Y-1660279D01*
X8370358Y-1665193D01*
X8367843Y-1671265D01*
X8364842Y-1686354D01*
X8364842Y-1701738D01*
X8367843Y-1716827D01*
X8373731Y-1731040D01*
X8375745Y-1734055D01*
X8371191Y-1740872D01*
X8365303Y-1755085D01*
X8362302Y-1770174D01*
X8362302Y-1785558D01*
X8365303Y-1800647D01*
X8371191Y-1814860D01*
X8379738Y-1827652D01*
X8383250Y-1831164D01*
X8374949Y-1832815D01*
X8360736Y-1838703D01*
X8356455Y-1841563D01*
X8352174Y-1838703D01*
X8337961Y-1832815D01*
X8322872Y-1829814D01*
X8307488Y-1829814D01*
X8292399Y-1832815D01*
X8278186Y-1838703D01*
X8265394Y-1847250D01*
X8254516Y-1858128D01*
X8245969Y-1870920D01*
X8240081Y-1885133D01*
X8237080Y-1900222D01*
X8179090Y-1900222D01*
X8179090Y-1520180D01*
X8181464Y-1522554D01*
X8194256Y-1531101D01*
X8208469Y-1536989D01*
X8223558Y-1539990D01*
X8238942Y-1539990D01*
X8254031Y-1536989D01*
X8268244Y-1531101D01*
X8281036Y-1522554D01*
X8291914Y-1511676D01*
X8300461Y-1498884D01*
X8306349Y-1484671D01*
X8309350Y-1469582D01*
X8309350Y-1454198D01*
X8306349Y-1439109D01*
X8305525Y-1437120D01*
X8311442Y-1437120D01*
X8326531Y-1434119D01*
X8340744Y-1428231D01*
X8353536Y-1419684D01*
X8364414Y-1408806D01*
X8372961Y-1396014D01*
X8378849Y-1381801D01*
X8381850Y-1366712D01*
X8381850Y-1351328D01*
X8378849Y-1336239D01*
X8372961Y-1322026D01*
X8364414Y-1309234D01*
X8353536Y-1298356D01*
X8340744Y-1289809D01*
X8326531Y-1283921D01*
X8311442Y-1280920D01*
X8296058Y-1280920D01*
X8280969Y-1283921D01*
X8266756Y-1289809D01*
X8253964Y-1298356D01*
X8243086Y-1309234D01*
X8234539Y-1322026D01*
X8228651Y-1336239D01*
X8225650Y-1351328D01*
X8225650Y-1366712D01*
X8228651Y-1381801D01*
X8229475Y-1383790D01*
X8223558Y-1383790D01*
X8208469Y-1386791D01*
X8194256Y-1392679D01*
X8181464Y-1401226D01*
X8179090Y-1403600D01*
X8179090Y-1111298D01*
X8205330Y-1111298D01*
X8205330Y-1126682D01*
X8208331Y-1141771D01*
X8214219Y-1155984D01*
X8222766Y-1168776D01*
X8233644Y-1179654D01*
X8246436Y-1188201D01*
X8260649Y-1194089D01*
X8275738Y-1197090D01*
X8291122Y-1197090D01*
X8306211Y-1194089D01*
X8320424Y-1188201D01*
X8333216Y-1179654D01*
X8344094Y-1168776D01*
X8352641Y-1155984D01*
X8358529Y-1141771D01*
X8361530Y-1126682D01*
X8361530Y-1111298D01*
X8358529Y-1096209D01*
X8352641Y-1081996D01*
X8344094Y-1069204D01*
X8333216Y-1058326D01*
X8320424Y-1049779D01*
X8306211Y-1043891D01*
X8291122Y-1040890D01*
X8275738Y-1040890D01*
X8260649Y-1043891D01*
X8246436Y-1049779D01*
X8233644Y-1058326D01*
X8222766Y-1069204D01*
X8214219Y-1081996D01*
X8208331Y-1096209D01*
X8205330Y-1111298D01*
X8179090Y-1111298D01*
X8179090Y-939263D01*
X8186400Y-950203D01*
X8197278Y-961081D01*
X8210070Y-969628D01*
X8224283Y-975515D01*
X8239372Y-978517D01*
X8254756Y-978517D01*
X8269845Y-975515D01*
X8284058Y-969628D01*
X8296850Y-961081D01*
X8307728Y-950203D01*
X8316275Y-937411D01*
X8322163Y-923198D01*
X8325164Y-908109D01*
X8325164Y-892725D01*
X8322163Y-877636D01*
X8316275Y-863423D01*
X8307728Y-850631D01*
X8296850Y-839753D01*
X8284058Y-831205D01*
X8269845Y-825318D01*
X8254756Y-822317D01*
X8239372Y-822317D01*
X8224283Y-825318D01*
X8210070Y-831205D01*
X8197278Y-839753D01*
X8186400Y-850631D01*
X8179090Y-861571D01*
X8179090Y-488998D01*
X8414880Y-488998D01*
X8414880Y-504382D01*
X8417881Y-519471D01*
X8423769Y-533684D01*
X8432316Y-546476D01*
X8443194Y-557354D01*
X8455986Y-565901D01*
X8470199Y-571789D01*
X8485288Y-574790D01*
X8500672Y-574790D01*
X8515761Y-571789D01*
X8529974Y-565901D01*
X8542766Y-557354D01*
X8553644Y-546476D01*
X8562191Y-533684D01*
X8568079Y-519471D01*
X8571080Y-504382D01*
X8571080Y-488998D01*
X8568079Y-473909D01*
X8562191Y-459696D01*
X8553644Y-446904D01*
X8542766Y-436026D01*
X8529974Y-427479D01*
X8515761Y-421591D01*
X8500672Y-418590D01*
X8485288Y-418590D01*
X8470199Y-421591D01*
X8455986Y-427479D01*
X8443194Y-436026D01*
X8432316Y-446904D01*
X8423769Y-459696D01*
X8417881Y-473909D01*
X8414880Y-488998D01*
X8179090Y-488998D01*
X8179090Y-344218D01*
X8348840Y-344218D01*
X8348840Y-359602D01*
X8351841Y-374691D01*
X8357729Y-388904D01*
X8366276Y-401696D01*
X8377154Y-412574D01*
X8389946Y-421121D01*
X8404159Y-427009D01*
X8419248Y-430010D01*
X8434632Y-430010D01*
X8449721Y-427009D01*
X8463934Y-421121D01*
X8476726Y-412574D01*
X8487604Y-401696D01*
X8496151Y-388904D01*
X8502039Y-374691D01*
X8505040Y-359602D01*
X8505040Y-344218D01*
X8502039Y-329129D01*
X8496151Y-314916D01*
X8487604Y-302124D01*
X8476726Y-291246D01*
X8463934Y-282699D01*
X8449721Y-276811D01*
X8434632Y-273810D01*
X8419248Y-273810D01*
X8404159Y-276811D01*
X8389946Y-282699D01*
X8377154Y-291246D01*
X8366276Y-302124D01*
X8357729Y-314916D01*
X8351841Y-329129D01*
X8348840Y-344218D01*
X8179090Y-344218D01*
X8179090Y-221260D01*
X8189154Y-211196D01*
X8197701Y-198404D01*
X8203589Y-184191D01*
X8206590Y-169102D01*
X8206590Y-153718D01*
X8203589Y-138629D01*
X8197701Y-124416D01*
X8189154Y-111624D01*
X8178276Y-100746D01*
X8165484Y-92199D01*
X8151271Y-86311D01*
X8136182Y-83310D01*
X8120798Y-83310D01*
X8105709Y-86311D01*
X8091496Y-92199D01*
X8088023Y-94519D01*
X8079934Y-82414D01*
X8069056Y-71536D01*
X8056264Y-62989D01*
X8042051Y-57101D01*
X8026962Y-54100D01*
X8011578Y-54100D01*
X7996489Y-57101D01*
X7982276Y-62989D01*
X7969484Y-71536D01*
X7958606Y-82414D01*
X7950059Y-95206D01*
X7944171Y-109419D01*
X7941170Y-124508D01*
X7941170Y-139892D01*
X7944171Y-154981D01*
X7947794Y-163726D01*
X7857996Y-253523D01*
X7856071Y-248876D01*
X7847524Y-236084D01*
X7836646Y-225206D01*
X7823854Y-216659D01*
X7809641Y-210771D01*
X7794552Y-207770D01*
X7779168Y-207770D01*
X7764079Y-210771D01*
X7749866Y-216659D01*
X7737074Y-225206D01*
X7726196Y-236084D01*
X7717649Y-248876D01*
X7711761Y-263089D01*
X7708760Y-278178D01*
X7708760Y-280981D01*
X7473818Y-515923D01*
X7469991Y-506686D01*
X7461444Y-493894D01*
X7450566Y-483016D01*
X7437774Y-474469D01*
X7423561Y-468581D01*
X7408472Y-465580D01*
X7393088Y-465580D01*
X7377999Y-468581D01*
X7363786Y-474469D01*
X7356650Y-479237D01*
X7351414Y-475739D01*
X7337201Y-469851D01*
X7322112Y-466850D01*
X7306728Y-466850D01*
X7291639Y-469851D01*
X7277426Y-475739D01*
X7272506Y-479026D01*
X7263784Y-473199D01*
X7249571Y-467311D01*
X7234482Y-464310D01*
X7219098Y-464310D01*
X7204009Y-467311D01*
X7189796Y-473199D01*
X7177004Y-481746D01*
X7166126Y-492624D01*
X7157579Y-505416D01*
X7151691Y-519629D01*
X7148690Y-534718D01*
X7148690Y-550102D01*
X7151691Y-565191D01*
X7157579Y-579404D01*
X7166126Y-592196D01*
X7177004Y-603074D01*
X7189796Y-611621D01*
X7204009Y-617509D01*
X7219098Y-620510D01*
X7234482Y-620510D01*
X7249571Y-617509D01*
X7263784Y-611621D01*
X7268704Y-608334D01*
X7277426Y-614161D01*
X7291639Y-620049D01*
X7306728Y-623050D01*
X7322112Y-623050D01*
X7337201Y-620049D01*
X7351414Y-614161D01*
X7358550Y-609393D01*
X7363786Y-612891D01*
X7373023Y-616718D01*
X6999651Y-990090D01*
X6985418Y-990090D01*
X6970329Y-993091D01*
X6956116Y-998979D01*
X6943324Y-1007526D01*
X6932446Y-1018404D01*
X6923899Y-1031196D01*
X6918011Y-1045409D01*
X6915010Y-1060498D01*
X6915010Y-1075882D01*
X6918011Y-1090971D01*
X6923899Y-1105184D01*
X6932446Y-1117976D01*
X6943324Y-1128854D01*
X6956116Y-1137401D01*
X6968846Y-1142674D01*
X6889238Y-1222281D01*
X6887307Y-1223866D01*
X6880984Y-1231571D01*
X6876285Y-1240362D01*
X6873392Y-1249900D01*
X6872660Y-1257334D01*
X6872660Y-1257334D01*
X6872415Y-1259819D01*
X6872660Y-1262304D01*
X6872660Y-2101810D01*
X6862596Y-2111874D01*
X6854049Y-2124666D01*
X6848161Y-2138879D01*
X6845160Y-2153968D01*
X5836880Y-2153968D01*
X5836880Y-1871645D01*
X6132620Y-1871645D01*
X6132620Y-1888015D01*
X6135813Y-1904069D01*
X6142078Y-1919193D01*
X6151172Y-1932803D01*
X6162747Y-1944378D01*
X6176357Y-1953472D01*
X6191481Y-1959736D01*
X6207535Y-1962930D01*
X6223905Y-1962930D01*
X6239959Y-1959736D01*
X6255083Y-1953472D01*
X6258090Y-1951463D01*
X6258881Y-1955443D01*
X6264769Y-1969656D01*
X6273316Y-1982448D01*
X6284194Y-1993326D01*
X6296986Y-2001873D01*
X6311199Y-2007760D01*
X6326288Y-2010762D01*
X6341672Y-2010762D01*
X6356761Y-2007760D01*
X6370974Y-2001873D01*
X6383766Y-1993326D01*
X6394644Y-1982448D01*
X6403191Y-1969656D01*
X6409079Y-1955443D01*
X6412080Y-1940354D01*
X6412080Y-1924970D01*
X6409079Y-1909881D01*
X6403191Y-1895668D01*
X6394644Y-1882876D01*
X6383766Y-1871998D01*
X6370974Y-1863450D01*
X6356761Y-1857563D01*
X6341672Y-1854562D01*
X6326288Y-1854562D01*
X6311199Y-1857563D01*
X6297174Y-1863372D01*
X6295626Y-1855591D01*
X6289362Y-1840467D01*
X6280268Y-1826857D01*
X6268693Y-1815282D01*
X6255083Y-1806188D01*
X6239959Y-1799923D01*
X6223905Y-1796730D01*
X6207535Y-1796730D01*
X6191481Y-1799923D01*
X6176357Y-1806188D01*
X6162747Y-1815282D01*
X6151172Y-1826857D01*
X6142078Y-1840467D01*
X6135813Y-1855591D01*
X6132620Y-1871645D01*
X5836880Y-1871645D01*
X5836880Y-1431645D01*
X6132620Y-1431645D01*
X6132620Y-1448015D01*
X6135813Y-1464069D01*
X6142078Y-1479193D01*
X6151172Y-1492803D01*
X6162747Y-1504378D01*
X6176357Y-1513472D01*
X6191481Y-1519736D01*
X6207535Y-1522930D01*
X6223905Y-1522930D01*
X6239959Y-1519736D01*
X6255083Y-1513472D01*
X6268693Y-1504378D01*
X6280268Y-1492803D01*
X6289362Y-1479193D01*
X6295626Y-1464069D01*
X6298820Y-1448015D01*
X6298820Y-1431645D01*
X6295626Y-1415591D01*
X6294784Y-1413558D01*
X6587350Y-1413558D01*
X6587350Y-1428942D01*
X6590351Y-1444031D01*
X6596239Y-1458244D01*
X6604786Y-1471036D01*
X6615664Y-1481914D01*
X6628456Y-1490461D01*
X6642669Y-1496349D01*
X6657758Y-1499350D01*
X6673142Y-1499350D01*
X6688231Y-1496349D01*
X6702444Y-1490461D01*
X6715236Y-1481914D01*
X6726114Y-1471036D01*
X6734661Y-1458244D01*
X6740549Y-1444031D01*
X6743550Y-1428942D01*
X6743550Y-1413558D01*
X6740549Y-1398469D01*
X6734661Y-1384256D01*
X6726114Y-1371464D01*
X6715236Y-1360586D01*
X6702444Y-1352039D01*
X6688231Y-1346151D01*
X6673142Y-1343150D01*
X6657758Y-1343150D01*
X6642669Y-1346151D01*
X6628456Y-1352039D01*
X6615664Y-1360586D01*
X6604786Y-1371464D01*
X6596239Y-1384256D01*
X6590351Y-1398469D01*
X6587350Y-1413558D01*
X6294784Y-1413558D01*
X6289362Y-1400467D01*
X6280268Y-1386857D01*
X6268693Y-1375282D01*
X6255083Y-1366188D01*
X6239959Y-1359924D01*
X6223905Y-1356730D01*
X6207535Y-1356730D01*
X6191481Y-1359924D01*
X6176357Y-1366188D01*
X6162747Y-1375282D01*
X6151172Y-1386857D01*
X6142078Y-1400467D01*
X6135813Y-1415591D01*
X6132620Y-1431645D01*
X5836880Y-1431645D01*
X5836880Y-975408D01*
X6078080Y-975408D01*
X6078080Y-990792D01*
X6081081Y-1005881D01*
X6086969Y-1020094D01*
X6095516Y-1032886D01*
X6106394Y-1043764D01*
X6119186Y-1052311D01*
X6133399Y-1058199D01*
X6148488Y-1061200D01*
X6163872Y-1061200D01*
X6178961Y-1058199D01*
X6193174Y-1052311D01*
X6205966Y-1043764D01*
X6216844Y-1032886D01*
X6225391Y-1020094D01*
X6231279Y-1005881D01*
X6234280Y-990792D01*
X6234280Y-975408D01*
X6231279Y-960319D01*
X6225391Y-946106D01*
X6216844Y-933314D01*
X6205966Y-922436D01*
X6193174Y-913889D01*
X6178961Y-908001D01*
X6163872Y-905000D01*
X6148488Y-905000D01*
X6133399Y-908001D01*
X6119186Y-913889D01*
X6106394Y-922436D01*
X6095516Y-933314D01*
X6086969Y-946106D01*
X6081081Y-960319D01*
X6078080Y-975408D01*
X5836880Y-975408D01*
X5836880Y-368348D01*
X6603860Y-368348D01*
X6603860Y-383732D01*
X6606861Y-398821D01*
X6612749Y-413034D01*
X6621296Y-425826D01*
X6632174Y-436704D01*
X6644966Y-445251D01*
X6659179Y-451139D01*
X6674268Y-454140D01*
X6689652Y-454140D01*
X6704741Y-451139D01*
X6718954Y-445251D01*
X6731746Y-436704D01*
X6742624Y-425826D01*
X6751171Y-413034D01*
X6757059Y-398821D01*
X6760060Y-383732D01*
X6760060Y-368348D01*
X6757059Y-353259D01*
X6751171Y-339046D01*
X6742624Y-326254D01*
X6731746Y-315376D01*
X6718954Y-306829D01*
X6708586Y-302534D01*
X6722764Y-296661D01*
X6735556Y-288114D01*
X6739270Y-284400D01*
X7084390Y-284400D01*
X7094454Y-294464D01*
X7107246Y-303011D01*
X7121459Y-308899D01*
X7136548Y-311900D01*
X7151932Y-311900D01*
X7167021Y-308899D01*
X7181234Y-303011D01*
X7194026Y-294464D01*
X7204904Y-283586D01*
X7213451Y-270794D01*
X7219339Y-256581D01*
X7222340Y-241492D01*
X7222340Y-226108D01*
X7219339Y-211019D01*
X7213451Y-196806D01*
X7204904Y-184014D01*
X7194026Y-173136D01*
X7181234Y-164589D01*
X7167021Y-158701D01*
X7151932Y-155700D01*
X7136548Y-155700D01*
X7121459Y-158701D01*
X7107246Y-164589D01*
X7094454Y-173136D01*
X7084390Y-183200D01*
X6967763Y-183200D01*
X6967879Y-182921D01*
X6970880Y-167832D01*
X6970880Y-152448D01*
X6967879Y-137359D01*
X6961991Y-123146D01*
X6953444Y-110354D01*
X6942566Y-99476D01*
X6929774Y-90929D01*
X6915561Y-85041D01*
X6900472Y-82040D01*
X6885088Y-82040D01*
X6869999Y-85041D01*
X6855786Y-90929D01*
X6842994Y-99476D01*
X6832116Y-110354D01*
X6823569Y-123146D01*
X6817681Y-137359D01*
X6814680Y-152448D01*
X6814680Y-167832D01*
X6817681Y-182921D01*
X6817797Y-183200D01*
X6750133Y-183200D01*
X6746434Y-177664D01*
X6735556Y-166786D01*
X6722764Y-158239D01*
X6708551Y-152351D01*
X6693462Y-149350D01*
X6678078Y-149350D01*
X6662989Y-152351D01*
X6648776Y-158239D01*
X6635984Y-166786D01*
X6625106Y-177664D01*
X6616559Y-190456D01*
X6610671Y-204669D01*
X6607670Y-219758D01*
X6607670Y-235142D01*
X6610671Y-250231D01*
X6616559Y-264444D01*
X6625106Y-277236D01*
X6635984Y-288114D01*
X6648776Y-296661D01*
X6659144Y-300956D01*
X6644966Y-306829D01*
X6632174Y-315376D01*
X6621296Y-326254D01*
X6612749Y-339046D01*
X6606861Y-353259D01*
X6603860Y-368348D01*
X5836880Y-368348D01*
X5836880Y-96568D01*
X6269850Y-96568D01*
X6269850Y-111952D01*
X6272851Y-127041D01*
X6278739Y-141254D01*
X6287286Y-154046D01*
X6298164Y-164924D01*
X6310956Y-173471D01*
X6325169Y-179359D01*
X6340258Y-182360D01*
X6355642Y-182360D01*
X6370731Y-179359D01*
X6384944Y-173471D01*
X6397736Y-164924D01*
X6408614Y-154046D01*
X6417161Y-141254D01*
X6423049Y-127041D01*
X6426050Y-111952D01*
X6426050Y-96568D01*
X6423049Y-81479D01*
X6417161Y-67266D01*
X6408614Y-54474D01*
X6397736Y-43596D01*
X6384944Y-35049D01*
X6370731Y-29161D01*
X6355642Y-26160D01*
X6340258Y-26160D01*
X6325169Y-29161D01*
X6310956Y-35049D01*
X6298164Y-43596D01*
X6287286Y-54474D01*
X6278739Y-67266D01*
X6272851Y-81479D01*
X6269850Y-96568D01*
X5836880Y-96568D01*
X5836880Y67882D01*
X5958180Y67882D01*
X5958180Y40678D01*
X5963487Y13998D01*
X5973897Y-11135D01*
X5989011Y-33754D01*
X6008246Y-52989D01*
X6030865Y-68103D01*
X6055998Y-78513D01*
X6082678Y-83820D01*
X6109882Y-83820D01*
X6136562Y-78513D01*
X6161695Y-68103D01*
X6184314Y-52989D01*
X6203549Y-33754D01*
X6218663Y-11135D01*
X6229073Y13998D01*
X6234380Y40678D01*
X6234380Y67882D01*
X8758180Y67882D01*
X8758180Y40678D01*
X8763487Y13998D01*
X8773897Y-11135D01*
X8789011Y-33754D01*
X8808246Y-52989D01*
X8830865Y-68103D01*
X8855998Y-78513D01*
X8882678Y-83820D01*
X8909882Y-83820D01*
X8936562Y-78513D01*
X8961695Y-68103D01*
X8984314Y-52989D01*
X9003549Y-33754D01*
X9018663Y-11135D01*
X9029073Y13998D01*
X9034380Y40678D01*
X9034380Y67882D01*
X9029073Y94562D01*
X9018663Y119695D01*
X9003549Y142314D01*
X8984314Y161549D01*
X8961695Y176663D01*
X8936562Y187073D01*
X8909882Y192380D01*
X8882678Y192380D01*
X8855998Y187073D01*
X8830865Y176663D01*
X8808246Y161549D01*
X8789011Y142314D01*
X8773897Y119695D01*
X8763487Y94562D01*
X8758180Y67882D01*
X6234380Y67882D01*
X6229073Y94562D01*
X6218663Y119695D01*
X6203549Y142314D01*
X6184314Y161549D01*
X6161695Y176663D01*
X6136562Y187073D01*
X6109882Y192380D01*
X6082678Y192380D01*
X6055998Y187073D01*
X6030865Y176663D01*
X6008246Y161549D01*
X5989011Y142314D01*
X5973897Y119695D01*
X5963487Y94562D01*
X5958180Y67882D01*
X5836880Y67882D01*
X5836880Y313680D01*
X9156188Y313680D01*
X9156188Y-47714D01*
%TA.AperFunction,Conductor*%
D16*
G36*
X9156188Y-47714D02*
G01*
X9156392Y-49780D01*
X9156392Y-51078D01*
X9156451Y-51642D01*
X9158626Y-71037D01*
X9159392Y-74641D01*
X9160106Y-78246D01*
X9160274Y-78788D01*
X9166175Y-97391D01*
X9167626Y-100776D01*
X9169027Y-104175D01*
X9169296Y-104673D01*
X9169297Y-104673D01*
X9169297Y-104674D01*
X9178699Y-121776D01*
X9179835Y-123436D01*
X9172775Y-130496D01*
X9165870Y-140831D01*
X9161113Y-152314D01*
X9158688Y-164505D01*
X9158688Y-176935D01*
X9161113Y-189126D01*
X9165870Y-200609D01*
X9170955Y-208220D01*
X9165870Y-215831D01*
X9161113Y-227314D01*
X9158688Y-239505D01*
X9158688Y-251935D01*
X9161113Y-264126D01*
X9165870Y-275609D01*
X9170955Y-283220D01*
X9165870Y-290831D01*
X9161113Y-302314D01*
X9158688Y-314505D01*
X9158688Y-326935D01*
X9161113Y-339126D01*
X9165870Y-350609D01*
X9172775Y-360944D01*
X9179842Y-368011D01*
X9177918Y-370822D01*
X9177649Y-371320D01*
X9177648Y-371320D01*
X9177648Y-371320D01*
X9168486Y-388552D01*
X9167083Y-391956D01*
X9165634Y-395337D01*
X9165466Y-395878D01*
X9159825Y-414562D01*
X9159109Y-418179D01*
X9158346Y-421771D01*
X9158286Y-422334D01*
X9158286Y-422335D01*
X9158286Y-422336D01*
X9156382Y-441758D01*
X9156188Y-443726D01*
X9156188Y-847714D01*
X9156392Y-849779D01*
X9156392Y-851078D01*
X9156451Y-851642D01*
X9158626Y-871037D01*
X9159392Y-874640D01*
X9160106Y-878246D01*
X9160274Y-878788D01*
X9166175Y-897391D01*
X9167626Y-900776D01*
X9169027Y-904175D01*
X9169296Y-904673D01*
X9169297Y-904673D01*
X9169297Y-904674D01*
X9178699Y-921776D01*
X9179835Y-923436D01*
X9172775Y-930496D01*
X9165870Y-940831D01*
X9161113Y-952314D01*
X9158688Y-964505D01*
X9158688Y-976935D01*
X9161113Y-989126D01*
X9165870Y-1000609D01*
X9170955Y-1008220D01*
X9165870Y-1015831D01*
X9161113Y-1027314D01*
X9158688Y-1039505D01*
X9158688Y-1051935D01*
X9161113Y-1064126D01*
X9165870Y-1075609D01*
X9170955Y-1083220D01*
X9165870Y-1090831D01*
X9161113Y-1102314D01*
X9158688Y-1114505D01*
X9158688Y-1126935D01*
X9161113Y-1139126D01*
X9165870Y-1150609D01*
X9172775Y-1160944D01*
X9179842Y-1168011D01*
X9177918Y-1170822D01*
X9177649Y-1171320D01*
X9177648Y-1171320D01*
X9177648Y-1171320D01*
X9168486Y-1188553D01*
X9167083Y-1191956D01*
X9165634Y-1195337D01*
X9165466Y-1195878D01*
X9159825Y-1214562D01*
X9159109Y-1218179D01*
X9158346Y-1221771D01*
X9158286Y-1222334D01*
X9158286Y-1222335D01*
X9158286Y-1222336D01*
X9156382Y-1241758D01*
X9156188Y-1243726D01*
X9156188Y-1643725D01*
X9155992Y-1645720D01*
X9156392Y-1649780D01*
X9156392Y-1651078D01*
X9156451Y-1651642D01*
X9158626Y-1671037D01*
X9159392Y-1674640D01*
X9160106Y-1678246D01*
X9160274Y-1678788D01*
X9166175Y-1697391D01*
X9167626Y-1700776D01*
X9169027Y-1704175D01*
X9169296Y-1704673D01*
X9169297Y-1704673D01*
X9169297Y-1704674D01*
X9178699Y-1721776D01*
X9179835Y-1723436D01*
X9172775Y-1730496D01*
X9165870Y-1740831D01*
X9161113Y-1752314D01*
X9158688Y-1764505D01*
X9158688Y-1776935D01*
X9161113Y-1789126D01*
X9165870Y-1800609D01*
X9170955Y-1808220D01*
X9165870Y-1815831D01*
X9161113Y-1827314D01*
X9158688Y-1839505D01*
X9158688Y-1851935D01*
X9161113Y-1864126D01*
X9165870Y-1875609D01*
X9170955Y-1883220D01*
X9165870Y-1890831D01*
X9161113Y-1902314D01*
X9158688Y-1914505D01*
X9158688Y-1926935D01*
X9161113Y-1939126D01*
X9165870Y-1950609D01*
X9172775Y-1960944D01*
X9179842Y-1968011D01*
X9177918Y-1970822D01*
X9177649Y-1971320D01*
X9177648Y-1971320D01*
X9177648Y-1971320D01*
X9168486Y-1988552D01*
X9167083Y-1991956D01*
X9165634Y-1995337D01*
X9165466Y-1995878D01*
X9159825Y-2014562D01*
X9159109Y-2018179D01*
X9158346Y-2021771D01*
X9158286Y-2022334D01*
X9158286Y-2022335D01*
X9158286Y-2022336D01*
X9156382Y-2041758D01*
X9156188Y-2043726D01*
X9156188Y-2447714D01*
X9156392Y-2449779D01*
X9156392Y-2451078D01*
X9156451Y-2451642D01*
X9158626Y-2471037D01*
X9159392Y-2474641D01*
X9160106Y-2478246D01*
X9160274Y-2478788D01*
X9166175Y-2497391D01*
X9167626Y-2500776D01*
X9169027Y-2504175D01*
X9169296Y-2504673D01*
X9169297Y-2504674D01*
X9169297Y-2504674D01*
X9178699Y-2521776D01*
X9179835Y-2523436D01*
X9172775Y-2530496D01*
X9165870Y-2540831D01*
X9161113Y-2552314D01*
X9158688Y-2564505D01*
X9158688Y-2576935D01*
X9161113Y-2589126D01*
X9165870Y-2600609D01*
X9170955Y-2608220D01*
X9165870Y-2615831D01*
X9161113Y-2627314D01*
X9158688Y-2639505D01*
X9158688Y-2651935D01*
X9161113Y-2664126D01*
X9165870Y-2675609D01*
X9170955Y-2683220D01*
X9165870Y-2690831D01*
X9161113Y-2702314D01*
X9158688Y-2714505D01*
X9158688Y-2726935D01*
X9161113Y-2739126D01*
X9165870Y-2750609D01*
X9172775Y-2760944D01*
X9179842Y-2768011D01*
X9177918Y-2770822D01*
X9177649Y-2771320D01*
X9177648Y-2771320D01*
X9177648Y-2771320D01*
X9168486Y-2788553D01*
X9167083Y-2791956D01*
X9165634Y-2795337D01*
X9165466Y-2795878D01*
X9159825Y-2814562D01*
X9159109Y-2818179D01*
X9158346Y-2821771D01*
X9158286Y-2822334D01*
X9158286Y-2822335D01*
X9158286Y-2822336D01*
X9156382Y-2841758D01*
X9156191Y-2843674D01*
X9155986Y-3005120D01*
X5836880Y-3005120D01*
X5836880Y-2923080D01*
X6757880Y-2923080D01*
X6770471Y-2952078D01*
X6803693Y-2968663D01*
X6839511Y-2978449D01*
X6876551Y-2981059D01*
X6913387Y-2976392D01*
X6948606Y-2964629D01*
X6972089Y-2952078D01*
X6984680Y-2923080D01*
X6871280Y-2809680D01*
X6757880Y-2923080D01*
X5836880Y-2923080D01*
X5836880Y-2732118D01*
X5958180Y-2732118D01*
X5958180Y-2759322D01*
X5963487Y-2786002D01*
X5973897Y-2811135D01*
X5989011Y-2833754D01*
X6008246Y-2852989D01*
X6030865Y-2868103D01*
X6055998Y-2878513D01*
X6082678Y-2883820D01*
X6109882Y-2883820D01*
X6136562Y-2878513D01*
X6161695Y-2868103D01*
X6184314Y-2852989D01*
X6203549Y-2833754D01*
X6218663Y-2811135D01*
X6224521Y-2796991D01*
X6681941Y-2796991D01*
X6686607Y-2833827D01*
X6698371Y-2869046D01*
X6710922Y-2892529D01*
X6739919Y-2905120D01*
X6853319Y-2791720D01*
X6889240Y-2791720D01*
X7002640Y-2905120D01*
X7031638Y-2892529D01*
X7048223Y-2859307D01*
X7058009Y-2823489D01*
X7060619Y-2786449D01*
X7059252Y-2775656D01*
X7908180Y-2775656D01*
X7908180Y-2807784D01*
X7914448Y-2839294D01*
X7926743Y-2868977D01*
X7944592Y-2895690D01*
X7967310Y-2918408D01*
X7994023Y-2936257D01*
X8023705Y-2948552D01*
X8055216Y-2954820D01*
X8087344Y-2954820D01*
X8118854Y-2948552D01*
X8148537Y-2936257D01*
X8175250Y-2918408D01*
X8197968Y-2895690D01*
X8215817Y-2868977D01*
X8228112Y-2839294D01*
X8234380Y-2807784D01*
X8234380Y-2775656D01*
X8228112Y-2744146D01*
X8223130Y-2732118D01*
X8758180Y-2732118D01*
X8758180Y-2759322D01*
X8763487Y-2786002D01*
X8773897Y-2811135D01*
X8789011Y-2833754D01*
X8808246Y-2852989D01*
X8830865Y-2868103D01*
X8855998Y-2878513D01*
X8882678Y-2883820D01*
X8909882Y-2883820D01*
X8936562Y-2878513D01*
X8961695Y-2868103D01*
X8984314Y-2852989D01*
X9003549Y-2833754D01*
X9018663Y-2811135D01*
X9029073Y-2786002D01*
X9034380Y-2759322D01*
X9034380Y-2732118D01*
X9029073Y-2705438D01*
X9018663Y-2680305D01*
X9003549Y-2657686D01*
X8984314Y-2638451D01*
X8961695Y-2623337D01*
X8936562Y-2612927D01*
X8909882Y-2607620D01*
X8882678Y-2607620D01*
X8855998Y-2612927D01*
X8830865Y-2623337D01*
X8808246Y-2638451D01*
X8789011Y-2657686D01*
X8773897Y-2680305D01*
X8763487Y-2705438D01*
X8758180Y-2732118D01*
X8223130Y-2732118D01*
X8215817Y-2714463D01*
X8197968Y-2687750D01*
X8175250Y-2665032D01*
X8148537Y-2647183D01*
X8118854Y-2634888D01*
X8087344Y-2628620D01*
X8055216Y-2628620D01*
X8023705Y-2634888D01*
X7994023Y-2647183D01*
X7967310Y-2665032D01*
X7944592Y-2687750D01*
X7926743Y-2714463D01*
X7914448Y-2744146D01*
X7908180Y-2775656D01*
X7059252Y-2775656D01*
X7055952Y-2749613D01*
X7044189Y-2714394D01*
X7031638Y-2690911D01*
X7002640Y-2678320D01*
X6889240Y-2791720D01*
X6853319Y-2791720D01*
X6739919Y-2678320D01*
X6710922Y-2690911D01*
X6694337Y-2724133D01*
X6684551Y-2759951D01*
X6681941Y-2796991D01*
X6224521Y-2796991D01*
X6229073Y-2786002D01*
X6234380Y-2759322D01*
X6234380Y-2732118D01*
X6229073Y-2705438D01*
X6221588Y-2687368D01*
X6393040Y-2687368D01*
X6393040Y-2702752D01*
X6396041Y-2717841D01*
X6401929Y-2732054D01*
X6410476Y-2744846D01*
X6421354Y-2755724D01*
X6434146Y-2764271D01*
X6448359Y-2770159D01*
X6463448Y-2773160D01*
X6478832Y-2773160D01*
X6493921Y-2770159D01*
X6508134Y-2764271D01*
X6520926Y-2755724D01*
X6531804Y-2744846D01*
X6540351Y-2732054D01*
X6546239Y-2717841D01*
X6549240Y-2702752D01*
X6549240Y-2687368D01*
X6546239Y-2672279D01*
X6540351Y-2658066D01*
X6531804Y-2645274D01*
X6520926Y-2634396D01*
X6508134Y-2625849D01*
X6493921Y-2619961D01*
X6478832Y-2616960D01*
X6463448Y-2616960D01*
X6448359Y-2619961D01*
X6434146Y-2625849D01*
X6421354Y-2634396D01*
X6410476Y-2645274D01*
X6401929Y-2658066D01*
X6396041Y-2672279D01*
X6393040Y-2687368D01*
X6221588Y-2687368D01*
X6218663Y-2680305D01*
X6203549Y-2657686D01*
X6184314Y-2638451D01*
X6161695Y-2623337D01*
X6136562Y-2612927D01*
X6109882Y-2607620D01*
X6082678Y-2607620D01*
X6055998Y-2612927D01*
X6030865Y-2623337D01*
X6008246Y-2638451D01*
X5989011Y-2657686D01*
X5973897Y-2680305D01*
X5963487Y-2705438D01*
X5958180Y-2732118D01*
X5836880Y-2732118D01*
X5836880Y-2571798D01*
X6687680Y-2571798D01*
X6687680Y-2587182D01*
X6690681Y-2602271D01*
X6696569Y-2616484D01*
X6705116Y-2629276D01*
X6715994Y-2640154D01*
X6728786Y-2648701D01*
X6742999Y-2654589D01*
X6758088Y-2657590D01*
X6759083Y-2657590D01*
X6757880Y-2660360D01*
X6871280Y-2773760D01*
X6984680Y-2660360D01*
X6972089Y-2631362D01*
X6938867Y-2614777D01*
X6903049Y-2604991D01*
X6866009Y-2602381D01*
X6839439Y-2605747D01*
X6840879Y-2602271D01*
X6843880Y-2587182D01*
X6843880Y-2571798D01*
X6840879Y-2556709D01*
X6834991Y-2542496D01*
X6826444Y-2529704D01*
X6815566Y-2518826D01*
X6802774Y-2510279D01*
X6788561Y-2504391D01*
X6773472Y-2501390D01*
X6758088Y-2501390D01*
X6742999Y-2504391D01*
X6728786Y-2510279D01*
X6715994Y-2518826D01*
X6705116Y-2529704D01*
X6696569Y-2542496D01*
X6690681Y-2556709D01*
X6687680Y-2571798D01*
X5836880Y-2571798D01*
X5836880Y-2153968D01*
X6845160Y-2153968D01*
X6845160Y-2169352D01*
X6848161Y-2184441D01*
X6854049Y-2198654D01*
X6862596Y-2211446D01*
X6873474Y-2222324D01*
X6886266Y-2230871D01*
X6900479Y-2236759D01*
X6915568Y-2239760D01*
X6930952Y-2239760D01*
X6946041Y-2236759D01*
X6960254Y-2230871D01*
X6973046Y-2222324D01*
X6983924Y-2211446D01*
X6992471Y-2198654D01*
X6998359Y-2184441D01*
X7001360Y-2169352D01*
X7001360Y-2153968D01*
X6998359Y-2138879D01*
X6992471Y-2124666D01*
X6983924Y-2111874D01*
X6973860Y-2101810D01*
X6973860Y-1708198D01*
X7387450Y-1708198D01*
X7387450Y-1723582D01*
X7390451Y-1738671D01*
X7396339Y-1752884D01*
X7404886Y-1765676D01*
X7415764Y-1776554D01*
X7428556Y-1785101D01*
X7442769Y-1790989D01*
X7457858Y-1793990D01*
X7473242Y-1793990D01*
X7488331Y-1790989D01*
X7502544Y-1785101D01*
X7515336Y-1776554D01*
X7526214Y-1765676D01*
X7534761Y-1752884D01*
X7540649Y-1738671D01*
X7543650Y-1723582D01*
X7543650Y-1708198D01*
X7540649Y-1693109D01*
X7534761Y-1678896D01*
X7526214Y-1666104D01*
X7515336Y-1655226D01*
X7502544Y-1646679D01*
X7488331Y-1640791D01*
X7473242Y-1637790D01*
X7457858Y-1637790D01*
X7442769Y-1640791D01*
X7428556Y-1646679D01*
X7415764Y-1655226D01*
X7404886Y-1666104D01*
X7396339Y-1678896D01*
X7390451Y-1693109D01*
X7387450Y-1708198D01*
X6973860Y-1708198D01*
X6973860Y-1305608D01*
X6987400Y-1305608D01*
X6987400Y-1320992D01*
X6990401Y-1336081D01*
X6996289Y-1350294D01*
X7004836Y-1363086D01*
X7015714Y-1373964D01*
X7028506Y-1382511D01*
X7042719Y-1388399D01*
X7057808Y-1391400D01*
X7073192Y-1391400D01*
X7088281Y-1388399D01*
X7102494Y-1382511D01*
X7115286Y-1373964D01*
X7126164Y-1363086D01*
X7134711Y-1350294D01*
X7140599Y-1336081D01*
X7143600Y-1320992D01*
X7143600Y-1305608D01*
X7140599Y-1290519D01*
X7134711Y-1276306D01*
X7126164Y-1263514D01*
X7115286Y-1252636D01*
X7102494Y-1244089D01*
X7088281Y-1238201D01*
X7073192Y-1235200D01*
X7057808Y-1235200D01*
X7042719Y-1238201D01*
X7028506Y-1244089D01*
X7015714Y-1252636D01*
X7004836Y-1263514D01*
X6996289Y-1276306D01*
X6990401Y-1290519D01*
X6987400Y-1305608D01*
X6973860Y-1305608D01*
X6973860Y-1280778D01*
X7232008Y-1022630D01*
X7232971Y-1027471D01*
X7238859Y-1041684D01*
X7247406Y-1054476D01*
X7258284Y-1065354D01*
X7271076Y-1073901D01*
X7285289Y-1079789D01*
X7300378Y-1082790D01*
X7315762Y-1082790D01*
X7330851Y-1079789D01*
X7345064Y-1073901D01*
X7354469Y-1067617D01*
X7359509Y-1079784D01*
X7368056Y-1092576D01*
X7378934Y-1103454D01*
X7391726Y-1112001D01*
X7405939Y-1117889D01*
X7421028Y-1120890D01*
X7436412Y-1120890D01*
X7451501Y-1117889D01*
X7465714Y-1112001D01*
X7478506Y-1103454D01*
X7489384Y-1092576D01*
X7497931Y-1079784D01*
X7500410Y-1073800D01*
X7507204Y-1080594D01*
X7519996Y-1089141D01*
X7534209Y-1095029D01*
X7549298Y-1098030D01*
X7564682Y-1098030D01*
X7579771Y-1095029D01*
X7593984Y-1089141D01*
X7606776Y-1080594D01*
X7617654Y-1069716D01*
X7626201Y-1056924D01*
X7626727Y-1055655D01*
X7627941Y-1061761D01*
X7633829Y-1075974D01*
X7642376Y-1088766D01*
X7653254Y-1099644D01*
X7666046Y-1108191D01*
X7680259Y-1114079D01*
X7695348Y-1117080D01*
X7710732Y-1117080D01*
X7725821Y-1114079D01*
X7740034Y-1108191D01*
X7752826Y-1099644D01*
X7763704Y-1088766D01*
X7772251Y-1075974D01*
X7778139Y-1061761D01*
X7779440Y-1055218D01*
X7779440Y-2087840D01*
X7769376Y-2097904D01*
X7760829Y-2110696D01*
X7754941Y-2124909D01*
X7751940Y-2139998D01*
X7751940Y-2155382D01*
X7754941Y-2170471D01*
X7760829Y-2184684D01*
X7769376Y-2197476D01*
X7780254Y-2208354D01*
X7793046Y-2216901D01*
X7807259Y-2222789D01*
X7822348Y-2225790D01*
X7837732Y-2225790D01*
X7852821Y-2222789D01*
X7867034Y-2216901D01*
X7879826Y-2208354D01*
X7890704Y-2197476D01*
X7899251Y-2184684D01*
X7905139Y-2170471D01*
X7908140Y-2155382D01*
X7908140Y-2139998D01*
X7905139Y-2124909D01*
X7899251Y-2110696D01*
X7890704Y-2097904D01*
X7880640Y-2087840D01*
X7880640Y-1541953D01*
X7880919Y-1542069D01*
X7896008Y-1545070D01*
X7911392Y-1545070D01*
X7926481Y-1542069D01*
X7940694Y-1536181D01*
X7953486Y-1527634D01*
X7964364Y-1516756D01*
X7972911Y-1503964D01*
X7978799Y-1489751D01*
X7981800Y-1474662D01*
X7981800Y-1459278D01*
X7978799Y-1444189D01*
X7972911Y-1429976D01*
X7964364Y-1417184D01*
X7953486Y-1406306D01*
X7940694Y-1397759D01*
X7926481Y-1391871D01*
X7911392Y-1388870D01*
X7896008Y-1388870D01*
X7880919Y-1391871D01*
X7880640Y-1391987D01*
X7880640Y-1297134D01*
X7894848Y-1299960D01*
X7910232Y-1299960D01*
X7925321Y-1296959D01*
X7939534Y-1291071D01*
X7952326Y-1282524D01*
X7963204Y-1271646D01*
X7971751Y-1258854D01*
X7977639Y-1244641D01*
X7980640Y-1229552D01*
X7980640Y-1214168D01*
X7977639Y-1199079D01*
X7971751Y-1184866D01*
X7963204Y-1172074D01*
X7952326Y-1161196D01*
X7939534Y-1152649D01*
X7925321Y-1146761D01*
X7910232Y-1143760D01*
X7894848Y-1143760D01*
X7880640Y-1146586D01*
X7880640Y-471929D01*
X7989626Y-362943D01*
X7991166Y-363971D01*
X8005379Y-369859D01*
X8020468Y-372860D01*
X8035852Y-372860D01*
X8050941Y-369859D01*
X8065154Y-363971D01*
X8077890Y-355461D01*
X8077890Y-1558888D01*
X8074854Y-1554344D01*
X8063976Y-1543466D01*
X8051184Y-1534919D01*
X8036971Y-1529031D01*
X8021882Y-1526030D01*
X8006498Y-1526030D01*
X7991409Y-1529031D01*
X7977196Y-1534919D01*
X7964404Y-1543466D01*
X7953526Y-1554344D01*
X7944979Y-1567136D01*
X7939091Y-1581349D01*
X7936090Y-1596438D01*
X7936090Y-1611822D01*
X7939091Y-1626911D01*
X7944979Y-1641124D01*
X7953526Y-1653916D01*
X7964404Y-1664794D01*
X7977196Y-1673341D01*
X7991409Y-1679229D01*
X8006498Y-1682230D01*
X8021882Y-1682230D01*
X8036971Y-1679229D01*
X8051184Y-1673341D01*
X8063976Y-1664794D01*
X8074854Y-1653916D01*
X8077890Y-1649372D01*
X8077890Y-1929304D01*
X8077645Y-1931790D01*
X8078622Y-1941709D01*
X8081515Y-1951247D01*
X8082582Y-1953243D01*
X8086214Y-1960038D01*
X8092537Y-1967743D01*
X8094468Y-1969327D01*
X8348840Y-2223699D01*
X8348840Y-2237932D01*
X8351841Y-2253021D01*
X8357729Y-2267234D01*
X8366276Y-2280026D01*
X8377154Y-2290904D01*
X8389946Y-2299451D01*
X8404159Y-2305339D01*
X8419248Y-2308340D01*
X8434632Y-2308340D01*
X8449721Y-2305339D01*
X8463934Y-2299451D01*
X8476726Y-2290904D01*
X8487604Y-2280026D01*
X8496151Y-2267234D01*
X8502039Y-2253021D01*
X8505040Y-2237932D01*
X8505040Y-2222548D01*
X8502039Y-2207459D01*
X8496151Y-2193246D01*
X8487604Y-2180454D01*
X8476726Y-2169576D01*
X8463934Y-2161029D01*
X8449721Y-2155141D01*
X8434632Y-2152140D01*
X8420399Y-2152140D01*
X8179090Y-1910831D01*
X8179090Y-1900222D01*
X8237080Y-1900222D01*
X8237080Y-1915606D01*
X8240081Y-1930695D01*
X8245969Y-1944908D01*
X8254516Y-1957700D01*
X8265394Y-1968578D01*
X8278186Y-1977125D01*
X8292399Y-1983013D01*
X8307488Y-1986014D01*
X8322872Y-1986014D01*
X8337961Y-1983013D01*
X8352174Y-1977125D01*
X8356455Y-1974265D01*
X8360736Y-1977125D01*
X8374949Y-1983013D01*
X8390038Y-1986014D01*
X8405422Y-1986014D01*
X8420511Y-1983013D01*
X8434724Y-1977125D01*
X8438370Y-1974689D01*
X8442016Y-1977125D01*
X8456229Y-1983013D01*
X8471318Y-1986014D01*
X8486702Y-1986014D01*
X8501791Y-1983013D01*
X8516004Y-1977125D01*
X8528796Y-1968578D01*
X8539674Y-1957700D01*
X8548221Y-1944908D01*
X8554109Y-1930695D01*
X8557110Y-1915606D01*
X8557110Y-1900222D01*
X8554109Y-1885133D01*
X8548221Y-1870920D01*
X8539674Y-1858128D01*
X8528796Y-1847250D01*
X8516004Y-1838703D01*
X8501791Y-1832815D01*
X8496880Y-1831838D01*
X8501066Y-1827652D01*
X8509613Y-1814860D01*
X8515501Y-1800647D01*
X8518502Y-1785558D01*
X8518502Y-1770174D01*
X8515501Y-1755085D01*
X8509613Y-1740872D01*
X8507599Y-1737857D01*
X8512153Y-1731040D01*
X8518041Y-1716827D01*
X8521042Y-1701738D01*
X8521042Y-1686354D01*
X8518041Y-1671265D01*
X8512153Y-1657052D01*
X8508870Y-1652138D01*
X8511385Y-1646066D01*
X8514387Y-1630977D01*
X8514387Y-1615593D01*
X8511385Y-1600504D01*
X8505498Y-1586291D01*
X8496951Y-1573499D01*
X8486073Y-1562621D01*
X8473281Y-1554074D01*
X8459068Y-1548186D01*
X8443979Y-1545185D01*
X8428595Y-1545185D01*
X8413506Y-1548186D01*
X8399293Y-1554074D01*
X8386501Y-1562621D01*
X8375622Y-1573499D01*
X8367075Y-1586291D01*
X8361188Y-1600504D01*
X8358187Y-1615593D01*
X8358187Y-1630977D01*
X8361188Y-1646066D01*
X8367075Y-1660279D01*
X8370358Y-1665193D01*
X8367843Y-1671265D01*
X8364842Y-1686354D01*
X8364842Y-1701738D01*
X8367843Y-1716827D01*
X8373731Y-1731040D01*
X8375745Y-1734055D01*
X8371191Y-1740872D01*
X8365303Y-1755085D01*
X8362302Y-1770174D01*
X8362302Y-1785558D01*
X8365303Y-1800647D01*
X8371191Y-1814860D01*
X8379738Y-1827652D01*
X8383250Y-1831164D01*
X8374949Y-1832815D01*
X8360736Y-1838703D01*
X8356455Y-1841563D01*
X8352174Y-1838703D01*
X8337961Y-1832815D01*
X8322872Y-1829814D01*
X8307488Y-1829814D01*
X8292399Y-1832815D01*
X8278186Y-1838703D01*
X8265394Y-1847250D01*
X8254516Y-1858128D01*
X8245969Y-1870920D01*
X8240081Y-1885133D01*
X8237080Y-1900222D01*
X8179090Y-1900222D01*
X8179090Y-1520180D01*
X8181464Y-1522554D01*
X8194256Y-1531101D01*
X8208469Y-1536989D01*
X8223558Y-1539990D01*
X8238942Y-1539990D01*
X8254031Y-1536989D01*
X8268244Y-1531101D01*
X8281036Y-1522554D01*
X8291914Y-1511676D01*
X8300461Y-1498884D01*
X8306349Y-1484671D01*
X8309350Y-1469582D01*
X8309350Y-1454198D01*
X8306349Y-1439109D01*
X8305525Y-1437120D01*
X8311442Y-1437120D01*
X8326531Y-1434119D01*
X8340744Y-1428231D01*
X8353536Y-1419684D01*
X8364414Y-1408806D01*
X8372961Y-1396014D01*
X8378849Y-1381801D01*
X8381850Y-1366712D01*
X8381850Y-1351328D01*
X8378849Y-1336239D01*
X8372961Y-1322026D01*
X8364414Y-1309234D01*
X8353536Y-1298356D01*
X8340744Y-1289809D01*
X8326531Y-1283921D01*
X8311442Y-1280920D01*
X8296058Y-1280920D01*
X8280969Y-1283921D01*
X8266756Y-1289809D01*
X8253964Y-1298356D01*
X8243086Y-1309234D01*
X8234539Y-1322026D01*
X8228651Y-1336239D01*
X8225650Y-1351328D01*
X8225650Y-1366712D01*
X8228651Y-1381801D01*
X8229475Y-1383790D01*
X8223558Y-1383790D01*
X8208469Y-1386791D01*
X8194256Y-1392679D01*
X8181464Y-1401226D01*
X8179090Y-1403600D01*
X8179090Y-1111298D01*
X8205330Y-1111298D01*
X8205330Y-1126682D01*
X8208331Y-1141771D01*
X8214219Y-1155984D01*
X8222766Y-1168776D01*
X8233644Y-1179654D01*
X8246436Y-1188201D01*
X8260649Y-1194089D01*
X8275738Y-1197090D01*
X8291122Y-1197090D01*
X8306211Y-1194089D01*
X8320424Y-1188201D01*
X8333216Y-1179654D01*
X8344094Y-1168776D01*
X8352641Y-1155984D01*
X8358529Y-1141771D01*
X8361530Y-1126682D01*
X8361530Y-1111298D01*
X8358529Y-1096209D01*
X8352641Y-1081996D01*
X8344094Y-1069204D01*
X8333216Y-1058326D01*
X8320424Y-1049779D01*
X8306211Y-1043891D01*
X8291122Y-1040890D01*
X8275738Y-1040890D01*
X8260649Y-1043891D01*
X8246436Y-1049779D01*
X8233644Y-1058326D01*
X8222766Y-1069204D01*
X8214219Y-1081996D01*
X8208331Y-1096209D01*
X8205330Y-1111298D01*
X8179090Y-1111298D01*
X8179090Y-939263D01*
X8186400Y-950203D01*
X8197278Y-961081D01*
X8210070Y-969628D01*
X8224283Y-975515D01*
X8239372Y-978517D01*
X8254756Y-978517D01*
X8269845Y-975515D01*
X8284058Y-969628D01*
X8296850Y-961081D01*
X8307728Y-950203D01*
X8316275Y-937411D01*
X8322163Y-923198D01*
X8325164Y-908109D01*
X8325164Y-892725D01*
X8322163Y-877636D01*
X8316275Y-863423D01*
X8307728Y-850631D01*
X8296850Y-839753D01*
X8284058Y-831205D01*
X8269845Y-825318D01*
X8254756Y-822317D01*
X8239372Y-822317D01*
X8224283Y-825318D01*
X8210070Y-831205D01*
X8197278Y-839753D01*
X8186400Y-850631D01*
X8179090Y-861571D01*
X8179090Y-488998D01*
X8414880Y-488998D01*
X8414880Y-504382D01*
X8417881Y-519471D01*
X8423769Y-533684D01*
X8432316Y-546476D01*
X8443194Y-557354D01*
X8455986Y-565901D01*
X8470199Y-571789D01*
X8485288Y-574790D01*
X8500672Y-574790D01*
X8515761Y-571789D01*
X8529974Y-565901D01*
X8542766Y-557354D01*
X8553644Y-546476D01*
X8562191Y-533684D01*
X8568079Y-519471D01*
X8571080Y-504382D01*
X8571080Y-488998D01*
X8568079Y-473909D01*
X8562191Y-459696D01*
X8553644Y-446904D01*
X8542766Y-436026D01*
X8529974Y-427479D01*
X8515761Y-421591D01*
X8500672Y-418590D01*
X8485288Y-418590D01*
X8470199Y-421591D01*
X8455986Y-427479D01*
X8443194Y-436026D01*
X8432316Y-446904D01*
X8423769Y-459696D01*
X8417881Y-473909D01*
X8414880Y-488998D01*
X8179090Y-488998D01*
X8179090Y-344218D01*
X8348840Y-344218D01*
X8348840Y-359602D01*
X8351841Y-374691D01*
X8357729Y-388904D01*
X8366276Y-401696D01*
X8377154Y-412574D01*
X8389946Y-421121D01*
X8404159Y-427009D01*
X8419248Y-430010D01*
X8434632Y-430010D01*
X8449721Y-427009D01*
X8463934Y-421121D01*
X8476726Y-412574D01*
X8487604Y-401696D01*
X8496151Y-388904D01*
X8502039Y-374691D01*
X8505040Y-359602D01*
X8505040Y-344218D01*
X8502039Y-329129D01*
X8496151Y-314916D01*
X8487604Y-302124D01*
X8476726Y-291246D01*
X8463934Y-282699D01*
X8449721Y-276811D01*
X8434632Y-273810D01*
X8419248Y-273810D01*
X8404159Y-276811D01*
X8389946Y-282699D01*
X8377154Y-291246D01*
X8366276Y-302124D01*
X8357729Y-314916D01*
X8351841Y-329129D01*
X8348840Y-344218D01*
X8179090Y-344218D01*
X8179090Y-221260D01*
X8189154Y-211196D01*
X8197701Y-198404D01*
X8203589Y-184191D01*
X8206590Y-169102D01*
X8206590Y-153718D01*
X8203589Y-138629D01*
X8197701Y-124416D01*
X8189154Y-111624D01*
X8178276Y-100746D01*
X8165484Y-92199D01*
X8151271Y-86311D01*
X8136182Y-83310D01*
X8120798Y-83310D01*
X8105709Y-86311D01*
X8091496Y-92199D01*
X8088023Y-94519D01*
X8079934Y-82414D01*
X8069056Y-71536D01*
X8056264Y-62989D01*
X8042051Y-57101D01*
X8026962Y-54100D01*
X8011578Y-54100D01*
X7996489Y-57101D01*
X7982276Y-62989D01*
X7969484Y-71536D01*
X7958606Y-82414D01*
X7950059Y-95206D01*
X7944171Y-109419D01*
X7941170Y-124508D01*
X7941170Y-139892D01*
X7944171Y-154981D01*
X7947794Y-163726D01*
X7857996Y-253523D01*
X7856071Y-248876D01*
X7847524Y-236084D01*
X7836646Y-225206D01*
X7823854Y-216659D01*
X7809641Y-210771D01*
X7794552Y-207770D01*
X7779168Y-207770D01*
X7764079Y-210771D01*
X7749866Y-216659D01*
X7737074Y-225206D01*
X7726196Y-236084D01*
X7717649Y-248876D01*
X7711761Y-263089D01*
X7708760Y-278178D01*
X7708760Y-280981D01*
X7473818Y-515923D01*
X7469991Y-506686D01*
X7461444Y-493894D01*
X7450566Y-483016D01*
X7437774Y-474469D01*
X7423561Y-468581D01*
X7408472Y-465580D01*
X7393088Y-465580D01*
X7377999Y-468581D01*
X7363786Y-474469D01*
X7356650Y-479237D01*
X7351414Y-475739D01*
X7337201Y-469851D01*
X7322112Y-466850D01*
X7306728Y-466850D01*
X7291639Y-469851D01*
X7277426Y-475739D01*
X7272506Y-479026D01*
X7263784Y-473199D01*
X7249571Y-467311D01*
X7234482Y-464310D01*
X7219098Y-464310D01*
X7204009Y-467311D01*
X7189796Y-473199D01*
X7177004Y-481746D01*
X7166126Y-492624D01*
X7157579Y-505416D01*
X7151691Y-519629D01*
X7148690Y-534718D01*
X7148690Y-550102D01*
X7151691Y-565191D01*
X7157579Y-579404D01*
X7166126Y-592196D01*
X7177004Y-603074D01*
X7189796Y-611621D01*
X7204009Y-617509D01*
X7219098Y-620510D01*
X7234482Y-620510D01*
X7249571Y-617509D01*
X7263784Y-611621D01*
X7268704Y-608334D01*
X7277426Y-614161D01*
X7291639Y-620049D01*
X7306728Y-623050D01*
X7322112Y-623050D01*
X7337201Y-620049D01*
X7351414Y-614161D01*
X7358550Y-609393D01*
X7363786Y-612891D01*
X7373023Y-616718D01*
X6999651Y-990090D01*
X6985418Y-990090D01*
X6970329Y-993091D01*
X6956116Y-998979D01*
X6943324Y-1007526D01*
X6932446Y-1018404D01*
X6923899Y-1031196D01*
X6918011Y-1045409D01*
X6915010Y-1060498D01*
X6915010Y-1075882D01*
X6918011Y-1090971D01*
X6923899Y-1105184D01*
X6932446Y-1117976D01*
X6943324Y-1128854D01*
X6956116Y-1137401D01*
X6968846Y-1142674D01*
X6889238Y-1222281D01*
X6887307Y-1223866D01*
X6880984Y-1231571D01*
X6876285Y-1240362D01*
X6873392Y-1249900D01*
X6872660Y-1257334D01*
X6872660Y-1257334D01*
X6872415Y-1259819D01*
X6872660Y-1262304D01*
X6872660Y-2101810D01*
X6862596Y-2111874D01*
X6854049Y-2124666D01*
X6848161Y-2138879D01*
X6845160Y-2153968D01*
X5836880Y-2153968D01*
X5836880Y-1871645D01*
X6132620Y-1871645D01*
X6132620Y-1888015D01*
X6135813Y-1904069D01*
X6142078Y-1919193D01*
X6151172Y-1932803D01*
X6162747Y-1944378D01*
X6176357Y-1953472D01*
X6191481Y-1959736D01*
X6207535Y-1962930D01*
X6223905Y-1962930D01*
X6239959Y-1959736D01*
X6255083Y-1953472D01*
X6258090Y-1951463D01*
X6258881Y-1955443D01*
X6264769Y-1969656D01*
X6273316Y-1982448D01*
X6284194Y-1993326D01*
X6296986Y-2001873D01*
X6311199Y-2007760D01*
X6326288Y-2010762D01*
X6341672Y-2010762D01*
X6356761Y-2007760D01*
X6370974Y-2001873D01*
X6383766Y-1993326D01*
X6394644Y-1982448D01*
X6403191Y-1969656D01*
X6409079Y-1955443D01*
X6412080Y-1940354D01*
X6412080Y-1924970D01*
X6409079Y-1909881D01*
X6403191Y-1895668D01*
X6394644Y-1882876D01*
X6383766Y-1871998D01*
X6370974Y-1863450D01*
X6356761Y-1857563D01*
X6341672Y-1854562D01*
X6326288Y-1854562D01*
X6311199Y-1857563D01*
X6297174Y-1863372D01*
X6295626Y-1855591D01*
X6289362Y-1840467D01*
X6280268Y-1826857D01*
X6268693Y-1815282D01*
X6255083Y-1806188D01*
X6239959Y-1799923D01*
X6223905Y-1796730D01*
X6207535Y-1796730D01*
X6191481Y-1799923D01*
X6176357Y-1806188D01*
X6162747Y-1815282D01*
X6151172Y-1826857D01*
X6142078Y-1840467D01*
X6135813Y-1855591D01*
X6132620Y-1871645D01*
X5836880Y-1871645D01*
X5836880Y-1431645D01*
X6132620Y-1431645D01*
X6132620Y-1448015D01*
X6135813Y-1464069D01*
X6142078Y-1479193D01*
X6151172Y-1492803D01*
X6162747Y-1504378D01*
X6176357Y-1513472D01*
X6191481Y-1519736D01*
X6207535Y-1522930D01*
X6223905Y-1522930D01*
X6239959Y-1519736D01*
X6255083Y-1513472D01*
X6268693Y-1504378D01*
X6280268Y-1492803D01*
X6289362Y-1479193D01*
X6295626Y-1464069D01*
X6298820Y-1448015D01*
X6298820Y-1431645D01*
X6295626Y-1415591D01*
X6294784Y-1413558D01*
X6587350Y-1413558D01*
X6587350Y-1428942D01*
X6590351Y-1444031D01*
X6596239Y-1458244D01*
X6604786Y-1471036D01*
X6615664Y-1481914D01*
X6628456Y-1490461D01*
X6642669Y-1496349D01*
X6657758Y-1499350D01*
X6673142Y-1499350D01*
X6688231Y-1496349D01*
X6702444Y-1490461D01*
X6715236Y-1481914D01*
X6726114Y-1471036D01*
X6734661Y-1458244D01*
X6740549Y-1444031D01*
X6743550Y-1428942D01*
X6743550Y-1413558D01*
X6740549Y-1398469D01*
X6734661Y-1384256D01*
X6726114Y-1371464D01*
X6715236Y-1360586D01*
X6702444Y-1352039D01*
X6688231Y-1346151D01*
X6673142Y-1343150D01*
X6657758Y-1343150D01*
X6642669Y-1346151D01*
X6628456Y-1352039D01*
X6615664Y-1360586D01*
X6604786Y-1371464D01*
X6596239Y-1384256D01*
X6590351Y-1398469D01*
X6587350Y-1413558D01*
X6294784Y-1413558D01*
X6289362Y-1400467D01*
X6280268Y-1386857D01*
X6268693Y-1375282D01*
X6255083Y-1366188D01*
X6239959Y-1359924D01*
X6223905Y-1356730D01*
X6207535Y-1356730D01*
X6191481Y-1359924D01*
X6176357Y-1366188D01*
X6162747Y-1375282D01*
X6151172Y-1386857D01*
X6142078Y-1400467D01*
X6135813Y-1415591D01*
X6132620Y-1431645D01*
X5836880Y-1431645D01*
X5836880Y-975408D01*
X6078080Y-975408D01*
X6078080Y-990792D01*
X6081081Y-1005881D01*
X6086969Y-1020094D01*
X6095516Y-1032886D01*
X6106394Y-1043764D01*
X6119186Y-1052311D01*
X6133399Y-1058199D01*
X6148488Y-1061200D01*
X6163872Y-1061200D01*
X6178961Y-1058199D01*
X6193174Y-1052311D01*
X6205966Y-1043764D01*
X6216844Y-1032886D01*
X6225391Y-1020094D01*
X6231279Y-1005881D01*
X6234280Y-990792D01*
X6234280Y-975408D01*
X6231279Y-960319D01*
X6225391Y-946106D01*
X6216844Y-933314D01*
X6205966Y-922436D01*
X6193174Y-913889D01*
X6178961Y-908001D01*
X6163872Y-905000D01*
X6148488Y-905000D01*
X6133399Y-908001D01*
X6119186Y-913889D01*
X6106394Y-922436D01*
X6095516Y-933314D01*
X6086969Y-946106D01*
X6081081Y-960319D01*
X6078080Y-975408D01*
X5836880Y-975408D01*
X5836880Y-368348D01*
X6603860Y-368348D01*
X6603860Y-383732D01*
X6606861Y-398821D01*
X6612749Y-413034D01*
X6621296Y-425826D01*
X6632174Y-436704D01*
X6644966Y-445251D01*
X6659179Y-451139D01*
X6674268Y-454140D01*
X6689652Y-454140D01*
X6704741Y-451139D01*
X6718954Y-445251D01*
X6731746Y-436704D01*
X6742624Y-425826D01*
X6751171Y-413034D01*
X6757059Y-398821D01*
X6760060Y-383732D01*
X6760060Y-368348D01*
X6757059Y-353259D01*
X6751171Y-339046D01*
X6742624Y-326254D01*
X6731746Y-315376D01*
X6718954Y-306829D01*
X6708586Y-302534D01*
X6722764Y-296661D01*
X6735556Y-288114D01*
X6739270Y-284400D01*
X7084390Y-284400D01*
X7094454Y-294464D01*
X7107246Y-303011D01*
X7121459Y-308899D01*
X7136548Y-311900D01*
X7151932Y-311900D01*
X7167021Y-308899D01*
X7181234Y-303011D01*
X7194026Y-294464D01*
X7204904Y-283586D01*
X7213451Y-270794D01*
X7219339Y-256581D01*
X7222340Y-241492D01*
X7222340Y-226108D01*
X7219339Y-211019D01*
X7213451Y-196806D01*
X7204904Y-184014D01*
X7194026Y-173136D01*
X7181234Y-164589D01*
X7167021Y-158701D01*
X7151932Y-155700D01*
X7136548Y-155700D01*
X7121459Y-158701D01*
X7107246Y-164589D01*
X7094454Y-173136D01*
X7084390Y-183200D01*
X6967763Y-183200D01*
X6967879Y-182921D01*
X6970880Y-167832D01*
X6970880Y-152448D01*
X6967879Y-137359D01*
X6961991Y-123146D01*
X6953444Y-110354D01*
X6942566Y-99476D01*
X6929774Y-90929D01*
X6915561Y-85041D01*
X6900472Y-82040D01*
X6885088Y-82040D01*
X6869999Y-85041D01*
X6855786Y-90929D01*
X6842994Y-99476D01*
X6832116Y-110354D01*
X6823569Y-123146D01*
X6817681Y-137359D01*
X6814680Y-152448D01*
X6814680Y-167832D01*
X6817681Y-182921D01*
X6817797Y-183200D01*
X6750133Y-183200D01*
X6746434Y-177664D01*
X6735556Y-166786D01*
X6722764Y-158239D01*
X6708551Y-152351D01*
X6693462Y-149350D01*
X6678078Y-149350D01*
X6662989Y-152351D01*
X6648776Y-158239D01*
X6635984Y-166786D01*
X6625106Y-177664D01*
X6616559Y-190456D01*
X6610671Y-204669D01*
X6607670Y-219758D01*
X6607670Y-235142D01*
X6610671Y-250231D01*
X6616559Y-264444D01*
X6625106Y-277236D01*
X6635984Y-288114D01*
X6648776Y-296661D01*
X6659144Y-300956D01*
X6644966Y-306829D01*
X6632174Y-315376D01*
X6621296Y-326254D01*
X6612749Y-339046D01*
X6606861Y-353259D01*
X6603860Y-368348D01*
X5836880Y-368348D01*
X5836880Y-96568D01*
X6269850Y-96568D01*
X6269850Y-111952D01*
X6272851Y-127041D01*
X6278739Y-141254D01*
X6287286Y-154046D01*
X6298164Y-164924D01*
X6310956Y-173471D01*
X6325169Y-179359D01*
X6340258Y-182360D01*
X6355642Y-182360D01*
X6370731Y-179359D01*
X6384944Y-173471D01*
X6397736Y-164924D01*
X6408614Y-154046D01*
X6417161Y-141254D01*
X6423049Y-127041D01*
X6426050Y-111952D01*
X6426050Y-96568D01*
X6423049Y-81479D01*
X6417161Y-67266D01*
X6408614Y-54474D01*
X6397736Y-43596D01*
X6384944Y-35049D01*
X6370731Y-29161D01*
X6355642Y-26160D01*
X6340258Y-26160D01*
X6325169Y-29161D01*
X6310956Y-35049D01*
X6298164Y-43596D01*
X6287286Y-54474D01*
X6278739Y-67266D01*
X6272851Y-81479D01*
X6269850Y-96568D01*
X5836880Y-96568D01*
X5836880Y67882D01*
X5958180Y67882D01*
X5958180Y40678D01*
X5963487Y13998D01*
X5973897Y-11135D01*
X5989011Y-33754D01*
X6008246Y-52989D01*
X6030865Y-68103D01*
X6055998Y-78513D01*
X6082678Y-83820D01*
X6109882Y-83820D01*
X6136562Y-78513D01*
X6161695Y-68103D01*
X6184314Y-52989D01*
X6203549Y-33754D01*
X6218663Y-11135D01*
X6229073Y13998D01*
X6234380Y40678D01*
X6234380Y67882D01*
X8758180Y67882D01*
X8758180Y40678D01*
X8763487Y13998D01*
X8773897Y-11135D01*
X8789011Y-33754D01*
X8808246Y-52989D01*
X8830865Y-68103D01*
X8855998Y-78513D01*
X8882678Y-83820D01*
X8909882Y-83820D01*
X8936562Y-78513D01*
X8961695Y-68103D01*
X8984314Y-52989D01*
X9003549Y-33754D01*
X9018663Y-11135D01*
X9029073Y13998D01*
X9034380Y40678D01*
X9034380Y67882D01*
X9029073Y94562D01*
X9018663Y119695D01*
X9003549Y142314D01*
X8984314Y161549D01*
X8961695Y176663D01*
X8936562Y187073D01*
X8909882Y192380D01*
X8882678Y192380D01*
X8855998Y187073D01*
X8830865Y176663D01*
X8808246Y161549D01*
X8789011Y142314D01*
X8773897Y119695D01*
X8763487Y94562D01*
X8758180Y67882D01*
X6234380Y67882D01*
X6229073Y94562D01*
X6218663Y119695D01*
X6203549Y142314D01*
X6184314Y161549D01*
X6161695Y176663D01*
X6136562Y187073D01*
X6109882Y192380D01*
X6082678Y192380D01*
X6055998Y187073D01*
X6030865Y176663D01*
X6008246Y161549D01*
X5989011Y142314D01*
X5973897Y119695D01*
X5963487Y94562D01*
X5958180Y67882D01*
X5836880Y67882D01*
X5836880Y313680D01*
X9156188Y313680D01*
X9156188Y-47714D01*
G37*
%TD.AperFunction*%
%TD*%
M02*
