%TF.GenerationSoftware,KiCad,Pcbnew,(5.1.8)-1*%
%TF.CreationDate,2021-06-20T20:47:25+01:00*%
%TF.ProjectId,schem_1,73636865-6d5f-4312-9e6b-696361645f70,rev?*%
%TF.SameCoordinates,Original*%
%TF.FileFunction,Legend,Bot*%
%TF.FilePolarity,Positive*%
%FSLAX45Y45*%
G04 Gerber Fmt 4.5, Leading zero omitted, Abs format (unit mm)*
G04 Created by KiCad (PCBNEW (5.1.8)-1) date 2021-06-20 20:47:25*
%MOMM*%
%LPD*%
G01*
G04 APERTURE LIST*
%ADD10C,0.100000*%
%ADD11C,0.254000*%
%ADD12C,0.200000*%
%ADD13C,0.120000*%
%ADD14C,0.160000*%
%ADD15C,0.127000*%
%ADD16C,0.150000*%
G04 APERTURE END LIST*
D10*
X9935317Y-97940D02*
X9926745Y-100797D01*
X9923888Y-103654D01*
X9921031Y-109369D01*
X9921031Y-117940D01*
X9923888Y-123654D01*
X9926745Y-126512D01*
X9932459Y-129369D01*
X9955317Y-129369D01*
X9955317Y-69369D01*
X9935317Y-69369D01*
X9929602Y-72226D01*
X9926745Y-75083D01*
X9923888Y-80797D01*
X9923888Y-86512D01*
X9926745Y-92226D01*
X9929602Y-95083D01*
X9935317Y-97940D01*
X9955317Y-97940D01*
X9883888Y-69369D02*
X9872459Y-69369D01*
X9866745Y-72226D01*
X9861031Y-77940D01*
X9858174Y-89369D01*
X9858174Y-109369D01*
X9861031Y-120797D01*
X9866745Y-126512D01*
X9872459Y-129369D01*
X9883888Y-129369D01*
X9889602Y-126512D01*
X9895317Y-120797D01*
X9898174Y-109369D01*
X9898174Y-89369D01*
X9895317Y-77940D01*
X9889602Y-72226D01*
X9883888Y-69369D01*
X9821031Y-69369D02*
X9809602Y-69369D01*
X9803888Y-72226D01*
X9798174Y-77940D01*
X9795317Y-89369D01*
X9795317Y-109369D01*
X9798174Y-120797D01*
X9803888Y-126512D01*
X9809602Y-129369D01*
X9821031Y-129369D01*
X9826745Y-126512D01*
X9832459Y-120797D01*
X9835317Y-109369D01*
X9835317Y-89369D01*
X9832459Y-77940D01*
X9826745Y-72226D01*
X9821031Y-69369D01*
X9778174Y-69369D02*
X9743888Y-69369D01*
X9761031Y-129369D02*
X9761031Y-69369D01*
X12678643Y-130893D02*
X12698643Y-102321D01*
X12712928Y-130893D02*
X12712928Y-70893D01*
X12690071Y-70893D01*
X12684357Y-73750D01*
X12681500Y-76607D01*
X12678643Y-82321D01*
X12678643Y-90893D01*
X12681500Y-96607D01*
X12684357Y-99464D01*
X12690071Y-102321D01*
X12712928Y-102321D01*
X12652928Y-99464D02*
X12632928Y-99464D01*
X12624357Y-130893D02*
X12652928Y-130893D01*
X12652928Y-70893D01*
X12624357Y-70893D01*
X12601500Y-128036D02*
X12592928Y-130893D01*
X12578643Y-130893D01*
X12572928Y-128036D01*
X12570071Y-125178D01*
X12567214Y-119464D01*
X12567214Y-113750D01*
X12570071Y-108036D01*
X12572928Y-105178D01*
X12578643Y-102321D01*
X12590071Y-99464D01*
X12595786Y-96607D01*
X12598643Y-93750D01*
X12601500Y-88036D01*
X12601500Y-82321D01*
X12598643Y-76607D01*
X12595786Y-73750D01*
X12590071Y-70893D01*
X12575786Y-70893D01*
X12567214Y-73750D01*
X12541500Y-99464D02*
X12521500Y-99464D01*
X12512928Y-130893D02*
X12541500Y-130893D01*
X12541500Y-70893D01*
X12512928Y-70893D01*
X12495786Y-70893D02*
X12461500Y-70893D01*
X12478643Y-130893D02*
X12478643Y-70893D01*
D11*
%TO.C,J4*%
X11639689Y-2336446D02*
G75*
G03*
X11639689Y-2336446I-17961J0D01*
G01*
D12*
X11902228Y-2363946D02*
X11902228Y-1292946D01*
X11902228Y-2363946D02*
X12752228Y-2363946D01*
X11902228Y-1292946D02*
X12752228Y-1292946D01*
X12752228Y-2363946D02*
X12752228Y-1292946D01*
D13*
%TO.C,J3*%
X9890548Y-2034846D02*
X9890548Y-2074846D01*
X9850548Y-2054846D02*
X9890548Y-2034846D01*
X9890548Y-2074846D02*
X9850548Y-2054846D01*
X9631548Y-597346D02*
X9571548Y-597346D01*
X9631548Y-608346D02*
X9631548Y-597346D01*
X9631548Y-2362346D02*
X9571548Y-2362346D01*
X9631548Y-2351346D02*
X9631548Y-2362346D01*
%TO.C,J2*%
X10531670Y-105946D02*
X10531670Y-735946D01*
X11818670Y-175946D02*
X11818670Y-735946D01*
X10531670Y265054D02*
X10531670Y84054D01*
X11818670Y265054D02*
X10692670Y265054D01*
X11818670Y149054D02*
X11818670Y265054D01*
X10542670Y265054D02*
X10531670Y265054D01*
%TO.C,C2*%
X8363380Y-658120D02*
X6663380Y-658120D01*
X6663380Y-658120D02*
X6663380Y-2358120D01*
X8363380Y-658120D02*
X8363380Y-2358120D01*
X8363380Y-2358120D02*
X6663380Y-2358120D01*
X8134780Y-3274320D02*
X6940980Y-3274320D01*
%TO.C,J6*%
X8696780Y-925864D02*
X8696780Y-885864D01*
X8736780Y-905864D02*
X8696780Y-925864D01*
X8696780Y-885864D02*
X8736780Y-905864D01*
X8955780Y-2363364D02*
X9015780Y-2363364D01*
X8955780Y-2352364D02*
X8955780Y-2363364D01*
X8955780Y-598364D02*
X9015780Y-598364D01*
X8955780Y-609364D02*
X8955780Y-598364D01*
%TO.C,R29*%
X6182950Y-624018D02*
X6230402Y-624018D01*
X6182950Y-728518D02*
X6230402Y-728518D01*
%TO.C,R28*%
X6182950Y-786578D02*
X6230402Y-786578D01*
X6182950Y-891078D02*
X6230402Y-891078D01*
%TO.C,R10*%
X7201844Y-1434553D02*
X7249296Y-1434553D01*
X7201844Y-1330053D02*
X7249296Y-1330053D01*
%TO.C,R9*%
X7201844Y-1591187D02*
X7249296Y-1591187D01*
X7201844Y-1486687D02*
X7249296Y-1486687D01*
%TO.C,U8*%
X6588610Y-269540D02*
X6588610Y116460D01*
X6588610Y116460D02*
X6613110Y116460D01*
X6588610Y-269540D02*
X6588610Y-655540D01*
X6588610Y-655540D02*
X6613110Y-655540D01*
X8400610Y-269540D02*
X8400610Y116460D01*
X8400610Y116460D02*
X8376110Y116460D01*
X8400610Y-269540D02*
X8400610Y-655540D01*
X8400610Y-655540D02*
X8376110Y-655540D01*
X8376110Y-655540D02*
X8376110Y-837040D01*
%TO.C,U6*%
X11115748Y-1767396D02*
X11208748Y-1767396D01*
X11431748Y-1767396D02*
X11338748Y-1767396D01*
X11431748Y-1767396D02*
X11431748Y-1983396D01*
X11115748Y-1767396D02*
X11115748Y-1913396D01*
%TO.C,U5*%
X11006848Y-1323446D02*
X11006848Y-1416446D01*
X11006848Y-1639446D02*
X11006848Y-1546446D01*
X11006848Y-1639446D02*
X10790848Y-1639446D01*
X11006848Y-1323446D02*
X10860848Y-1323446D01*
%TO.C,U2*%
X10628298Y-1772446D02*
X10628298Y-1952446D01*
X10306298Y-1952446D02*
X10306298Y-1707446D01*
%TO.C,R26*%
X10544106Y-1498792D02*
X10591558Y-1498792D01*
X10544106Y-1603292D02*
X10591558Y-1603292D01*
%TO.C,R25*%
X6500784Y-271592D02*
X6500784Y-319044D01*
X6396284Y-271592D02*
X6396284Y-319044D01*
%TO.C,R24*%
X6165758Y-271592D02*
X6165758Y-319044D01*
X6061258Y-271592D02*
X6061258Y-319044D01*
%TO.C,R23*%
X6896186Y-1276650D02*
X6848734Y-1276650D01*
X6896186Y-1172150D02*
X6848734Y-1172150D01*
%TO.C,R22*%
X6847260Y-1369508D02*
X6894712Y-1369508D01*
X6847260Y-1474008D02*
X6894712Y-1474008D01*
%TO.C,R21*%
X7249296Y-1277920D02*
X7201844Y-1277920D01*
X7249296Y-1173420D02*
X7201844Y-1173420D01*
%TO.C,R20*%
X7201844Y-1643320D02*
X7249296Y-1643320D01*
X7201844Y-1747820D02*
X7249296Y-1747820D01*
%TO.C,R19*%
X10995798Y-2248122D02*
X10995798Y-2200670D01*
X10891298Y-2248122D02*
X10891298Y-2200670D01*
%TO.C,R18*%
X7709586Y-2583750D02*
X7274174Y-2583750D01*
X7709586Y-2925750D02*
X7274174Y-2925750D01*
%TO.C,R17*%
X10719848Y-2200670D02*
X10719848Y-2248122D01*
X10824348Y-2200670D02*
X10824348Y-2248122D01*
%TO.C,R16*%
X6333271Y-271592D02*
X6333271Y-319044D01*
X6228771Y-271592D02*
X6228771Y-319044D01*
%TO.C,R15*%
X11719418Y-1122992D02*
X11719418Y-1075540D01*
X11614918Y-1122992D02*
X11614918Y-1075540D01*
%TO.C,R14*%
X11564478Y-1122992D02*
X11564478Y-1075540D01*
X11459978Y-1122992D02*
X11459978Y-1075540D01*
%TO.C,R13*%
X11099578Y-1158412D02*
X11099578Y-1110960D01*
X11204078Y-1158412D02*
X11204078Y-1110960D01*
%TO.C,R12*%
X10940828Y-1158462D02*
X10940828Y-1111010D01*
X11045328Y-1158462D02*
X11045328Y-1111010D01*
%TO.C,R11*%
X10782078Y-1158462D02*
X10782078Y-1111010D01*
X10886578Y-1158462D02*
X10886578Y-1111010D01*
%TO.C,R8*%
X12441058Y-810432D02*
X12441058Y-762980D01*
X12336558Y-810432D02*
X12336558Y-762980D01*
%TO.C,R5*%
X6891106Y-1721150D02*
X6843654Y-1721150D01*
X6891106Y-1616650D02*
X6843654Y-1616650D01*
%TO.C,R4*%
X10539234Y-963106D02*
X10491782Y-963106D01*
X10539234Y-1067606D02*
X10491782Y-1067606D01*
%TO.C,R2*%
X10165218Y-281650D02*
X10165218Y-329102D01*
X10060718Y-281650D02*
X10060718Y-329102D01*
%TO.C,Q1*%
X10782348Y-1908396D02*
X10782348Y-1988396D01*
X11042348Y-1683396D02*
X10782348Y-1683396D01*
X10782348Y-1683396D02*
X10782348Y-1778396D01*
%TO.C,D2*%
X6448966Y-2977564D02*
X6448966Y-2587564D01*
X6248966Y-2977564D02*
X6248966Y-2587564D01*
X6448966Y-2977564D02*
X6248966Y-2977564D01*
%TO.C,D1*%
X6499156Y-2527564D02*
X6499156Y-2917564D01*
X6699156Y-2527564D02*
X6699156Y-2917564D01*
X6499156Y-2527564D02*
X6699156Y-2527564D01*
%TO.C,C24*%
X10530598Y-2203988D02*
X10530598Y-2232104D01*
X10632598Y-2203988D02*
X10632598Y-2232104D01*
%TO.C,C23*%
X6504373Y-2448012D02*
X6452123Y-2448012D01*
X6504373Y-2301012D02*
X6452123Y-2301012D01*
%TO.C,C22*%
X8538352Y-292187D02*
X8538352Y-239937D01*
X8685352Y-292187D02*
X8685352Y-239937D01*
%TO.C,C21*%
X8749172Y-292187D02*
X8749172Y-239937D01*
X8896172Y-292187D02*
X8896172Y-239937D01*
%TO.C,C20*%
X7708178Y-1270320D02*
X7680062Y-1270320D01*
X7708178Y-1168320D02*
X7680062Y-1168320D01*
%TO.C,C19*%
X7708178Y-1427377D02*
X7680062Y-1427377D01*
X7708178Y-1325377D02*
X7680062Y-1325377D01*
%TO.C,C18*%
X8072492Y-1767760D02*
X8100608Y-1767760D01*
X8072492Y-1869760D02*
X8100608Y-1869760D01*
%TO.C,C17*%
X7771458Y-1686004D02*
X7743342Y-1686004D01*
X7771458Y-1584004D02*
X7743342Y-1584004D01*
%TO.C,C16*%
X11290098Y-1501221D02*
X11290098Y-1448971D01*
X11143098Y-1501221D02*
X11143098Y-1448971D01*
%TO.C,C15*%
X11114798Y-2160838D02*
X11114798Y-2188954D01*
X11216798Y-2160838D02*
X11216798Y-2188954D01*
%TO.C,C14*%
X11276448Y-2172871D02*
X11276448Y-2225121D01*
X11423448Y-2172871D02*
X11423448Y-2225121D01*
%TO.C,C12*%
X10259218Y-1957578D02*
X10259218Y-1985694D01*
X10157218Y-1957578D02*
X10157218Y-1985694D01*
%TO.C,C11*%
X10506868Y-1321514D02*
X10506868Y-1293398D01*
X10404868Y-1321514D02*
X10404868Y-1293398D01*
%TO.C,C10*%
X10714788Y-1308431D02*
X10714788Y-1256181D01*
X10567788Y-1308431D02*
X10567788Y-1256181D01*
%TO.C,C9*%
X6802746Y-2331640D02*
X6830862Y-2331640D01*
X6802746Y-2433640D02*
X6830862Y-2433640D01*
%TO.C,C8*%
X10311248Y-2210971D02*
X10311248Y-2263221D01*
X10458248Y-2210971D02*
X10458248Y-2263221D01*
%TO.C,C6*%
X12518148Y-773998D02*
X12518148Y-802114D01*
X12620148Y-773998D02*
X12620148Y-802114D01*
%TO.C,C4*%
X10257948Y-1646428D02*
X10257948Y-1674544D01*
X10155948Y-1646428D02*
X10155948Y-1674544D01*
%TO.C,C3*%
X10154678Y-2289284D02*
X10154678Y-2261168D01*
X10256678Y-2289284D02*
X10256678Y-2261168D01*
D14*
%TO.C,J5*%
X6614720Y-1909830D02*
G75*
G03*
X6614720Y-1909830I-8000J0D01*
G01*
D15*
X5621720Y-1273830D02*
X5768720Y-1273830D01*
X5621720Y-2045830D02*
X5621720Y-1273830D01*
X5768720Y-2045830D02*
X5621720Y-2045830D01*
X6541720Y-1449830D02*
X6541720Y-1338830D01*
X6541720Y-1980830D02*
X6541720Y-1869830D01*
X6068720Y-1273830D02*
X6316720Y-1273830D01*
X6068720Y-2045830D02*
X6316720Y-2045830D01*
%TO.C,J4*%
D16*
X12318001Y-2400048D02*
X12318001Y-2471477D01*
X12322763Y-2485762D01*
X12332287Y-2495286D01*
X12346573Y-2500048D01*
X12356096Y-2500048D01*
X12227525Y-2433381D02*
X12227525Y-2500048D01*
X12251335Y-2395286D02*
X12275144Y-2466715D01*
X12213239Y-2466715D01*
%TO.C,J3*%
X10009438Y-709989D02*
X10080867Y-709989D01*
X10095152Y-705227D01*
X10104676Y-695703D01*
X10109438Y-681417D01*
X10109438Y-671893D01*
X10009438Y-748084D02*
X10009438Y-809989D01*
X10047533Y-776655D01*
X10047533Y-790941D01*
X10052295Y-800465D01*
X10057057Y-805227D01*
X10066581Y-809989D01*
X10090390Y-809989D01*
X10099914Y-805227D01*
X10104676Y-800465D01*
X10109438Y-790941D01*
X10109438Y-762370D01*
X10104676Y-752846D01*
X10099914Y-748084D01*
%TO.C,J2*%
X10393486Y207967D02*
X10464915Y207967D01*
X10479200Y212729D01*
X10488724Y222253D01*
X10493486Y236539D01*
X10493486Y246062D01*
X10403010Y165110D02*
X10398248Y160348D01*
X10393486Y150824D01*
X10393486Y127015D01*
X10398248Y117491D01*
X10403010Y112729D01*
X10412534Y107967D01*
X10422058Y107967D01*
X10436343Y112729D01*
X10493486Y169872D01*
X10493486Y107967D01*
%TO.C,SW1*%
X9853617Y-564342D02*
X9839332Y-569104D01*
X9815522Y-569104D01*
X9805998Y-564342D01*
X9801236Y-559580D01*
X9796474Y-550056D01*
X9796474Y-540533D01*
X9801236Y-531009D01*
X9805998Y-526247D01*
X9815522Y-521485D01*
X9834570Y-516723D01*
X9844094Y-511961D01*
X9848855Y-507199D01*
X9853617Y-497675D01*
X9853617Y-488152D01*
X9848855Y-478628D01*
X9844094Y-473866D01*
X9834570Y-469104D01*
X9810760Y-469104D01*
X9796474Y-473866D01*
X9763141Y-469104D02*
X9739332Y-569104D01*
X9720284Y-497675D01*
X9701236Y-569104D01*
X9677427Y-469104D01*
X9586951Y-569104D02*
X9644094Y-569104D01*
X9615522Y-569104D02*
X9615522Y-469104D01*
X9625046Y-483390D01*
X9634570Y-492914D01*
X9644094Y-497675D01*
%TO.C,C2*%
X7491047Y-579534D02*
X7495808Y-584296D01*
X7510094Y-589058D01*
X7519618Y-589058D01*
X7533904Y-584296D01*
X7543428Y-574772D01*
X7548189Y-565249D01*
X7552951Y-546201D01*
X7552951Y-531915D01*
X7548189Y-512868D01*
X7543428Y-503344D01*
X7533904Y-493820D01*
X7519618Y-489058D01*
X7510094Y-489058D01*
X7495808Y-493820D01*
X7491047Y-498582D01*
X7452951Y-498582D02*
X7448189Y-493820D01*
X7438666Y-489058D01*
X7414856Y-489058D01*
X7405332Y-493820D01*
X7400570Y-498582D01*
X7395808Y-508106D01*
X7395808Y-517629D01*
X7400570Y-531915D01*
X7457713Y-589058D01*
X7395808Y-589058D01*
X8147470Y-2501206D02*
X7995089Y-2501206D01*
X8071280Y-2577396D02*
X8071280Y-2425015D01*
%TO.C,J6*%
X9076807Y-443128D02*
X9076807Y-514557D01*
X9081569Y-528842D01*
X9091093Y-538366D01*
X9105379Y-543128D01*
X9114903Y-543128D01*
X8986331Y-443128D02*
X9005379Y-443128D01*
X9014903Y-447890D01*
X9019664Y-452652D01*
X9029188Y-466938D01*
X9033950Y-485985D01*
X9033950Y-524080D01*
X9029188Y-533604D01*
X9024426Y-538366D01*
X9014903Y-543128D01*
X8995855Y-543128D01*
X8986331Y-538366D01*
X8981569Y-533604D01*
X8976807Y-524080D01*
X8976807Y-500271D01*
X8981569Y-490747D01*
X8986331Y-485985D01*
X8995855Y-481223D01*
X9014903Y-481223D01*
X9024426Y-485985D01*
X9029188Y-490747D01*
X9033950Y-500271D01*
%TO.C,R29*%
X6274390Y-575132D02*
X6307723Y-527513D01*
X6331532Y-575132D02*
X6331532Y-475132D01*
X6293437Y-475132D01*
X6283913Y-479894D01*
X6279152Y-484656D01*
X6274390Y-494180D01*
X6274390Y-508465D01*
X6279152Y-517989D01*
X6283913Y-522751D01*
X6293437Y-527513D01*
X6331532Y-527513D01*
X6236294Y-484656D02*
X6231532Y-479894D01*
X6222009Y-475132D01*
X6198199Y-475132D01*
X6188675Y-479894D01*
X6183913Y-484656D01*
X6179152Y-494180D01*
X6179152Y-503703D01*
X6183913Y-517989D01*
X6241056Y-575132D01*
X6179152Y-575132D01*
X6131532Y-575132D02*
X6112485Y-575132D01*
X6102961Y-570370D01*
X6098199Y-565608D01*
X6088675Y-551323D01*
X6083913Y-532275D01*
X6083913Y-494180D01*
X6088675Y-484656D01*
X6093437Y-479894D01*
X6102961Y-475132D01*
X6122009Y-475132D01*
X6131532Y-479894D01*
X6136294Y-484656D01*
X6141056Y-494180D01*
X6141056Y-517989D01*
X6136294Y-527513D01*
X6131532Y-532275D01*
X6122009Y-537037D01*
X6102961Y-537037D01*
X6093437Y-532275D01*
X6088675Y-527513D01*
X6083913Y-517989D01*
%TO.C,R28*%
X6270962Y-1027066D02*
X6304295Y-979447D01*
X6328104Y-1027066D02*
X6328104Y-927066D01*
X6290009Y-927066D01*
X6280485Y-931828D01*
X6275724Y-936590D01*
X6270962Y-946114D01*
X6270962Y-960399D01*
X6275724Y-969923D01*
X6280485Y-974685D01*
X6290009Y-979447D01*
X6328104Y-979447D01*
X6232866Y-936590D02*
X6228104Y-931828D01*
X6218581Y-927066D01*
X6194771Y-927066D01*
X6185247Y-931828D01*
X6180485Y-936590D01*
X6175724Y-946114D01*
X6175724Y-955637D01*
X6180485Y-969923D01*
X6237628Y-1027066D01*
X6175724Y-1027066D01*
X6118581Y-969923D02*
X6128104Y-965161D01*
X6132866Y-960399D01*
X6137628Y-950876D01*
X6137628Y-946114D01*
X6132866Y-936590D01*
X6128104Y-931828D01*
X6118581Y-927066D01*
X6099533Y-927066D01*
X6090009Y-931828D01*
X6085247Y-936590D01*
X6080485Y-946114D01*
X6080485Y-950876D01*
X6085247Y-960399D01*
X6090009Y-965161D01*
X6099533Y-969923D01*
X6118581Y-969923D01*
X6128104Y-974685D01*
X6132866Y-979447D01*
X6137628Y-988971D01*
X6137628Y-1008018D01*
X6132866Y-1017542D01*
X6128104Y-1022304D01*
X6118581Y-1027066D01*
X6099533Y-1027066D01*
X6090009Y-1022304D01*
X6085247Y-1017542D01*
X6080485Y-1008018D01*
X6080485Y-988971D01*
X6085247Y-979447D01*
X6090009Y-974685D01*
X6099533Y-969923D01*
%TO.C,R10*%
X7328744Y-1958416D02*
X7362077Y-1910797D01*
X7385886Y-1958416D02*
X7385886Y-1858416D01*
X7347791Y-1858416D01*
X7338267Y-1863178D01*
X7333506Y-1867940D01*
X7328744Y-1877464D01*
X7328744Y-1891749D01*
X7333506Y-1901273D01*
X7338267Y-1906035D01*
X7347791Y-1910797D01*
X7385886Y-1910797D01*
X7233506Y-1958416D02*
X7290648Y-1958416D01*
X7262077Y-1958416D02*
X7262077Y-1858416D01*
X7271601Y-1872702D01*
X7281125Y-1882226D01*
X7290648Y-1886987D01*
X7171601Y-1858416D02*
X7162077Y-1858416D01*
X7152553Y-1863178D01*
X7147791Y-1867940D01*
X7143029Y-1877464D01*
X7138267Y-1896511D01*
X7138267Y-1920321D01*
X7143029Y-1939368D01*
X7147791Y-1948892D01*
X7152553Y-1953654D01*
X7162077Y-1958416D01*
X7171601Y-1958416D01*
X7181125Y-1953654D01*
X7185886Y-1948892D01*
X7190648Y-1939368D01*
X7195410Y-1920321D01*
X7195410Y-1896511D01*
X7190648Y-1877464D01*
X7185886Y-1867940D01*
X7181125Y-1863178D01*
X7171601Y-1858416D01*
%TO.C,R9*%
X7279601Y-2109292D02*
X7312934Y-2061673D01*
X7336743Y-2109292D02*
X7336743Y-2009292D01*
X7298648Y-2009292D01*
X7289124Y-2014054D01*
X7284362Y-2018816D01*
X7279601Y-2028340D01*
X7279601Y-2042625D01*
X7284362Y-2052149D01*
X7289124Y-2056911D01*
X7298648Y-2061673D01*
X7336743Y-2061673D01*
X7231982Y-2109292D02*
X7212934Y-2109292D01*
X7203410Y-2104530D01*
X7198648Y-2099768D01*
X7189124Y-2085482D01*
X7184362Y-2066435D01*
X7184362Y-2028340D01*
X7189124Y-2018816D01*
X7193886Y-2014054D01*
X7203410Y-2009292D01*
X7222458Y-2009292D01*
X7231982Y-2014054D01*
X7236743Y-2018816D01*
X7241505Y-2028340D01*
X7241505Y-2052149D01*
X7236743Y-2061673D01*
X7231982Y-2066435D01*
X7222458Y-2071197D01*
X7203410Y-2071197D01*
X7193886Y-2066435D01*
X7189124Y-2061673D01*
X7184362Y-2052149D01*
%TO.C,U8*%
X6443378Y124146D02*
X6524330Y124146D01*
X6533854Y119384D01*
X6538616Y114623D01*
X6543378Y105099D01*
X6543378Y86051D01*
X6538616Y76527D01*
X6533854Y71766D01*
X6524330Y67004D01*
X6443378Y67004D01*
X6486235Y5099D02*
X6481473Y14623D01*
X6476711Y19385D01*
X6467188Y24146D01*
X6462426Y24146D01*
X6452902Y19385D01*
X6448140Y14623D01*
X6443378Y5099D01*
X6443378Y-13949D01*
X6448140Y-23472D01*
X6452902Y-28234D01*
X6462426Y-32996D01*
X6467188Y-32996D01*
X6476711Y-28234D01*
X6481473Y-23472D01*
X6486235Y-13949D01*
X6486235Y5099D01*
X6490997Y14623D01*
X6495759Y19385D01*
X6505283Y24146D01*
X6524330Y24146D01*
X6533854Y19385D01*
X6538616Y14623D01*
X6543378Y5099D01*
X6543378Y-13949D01*
X6538616Y-23472D01*
X6533854Y-28234D01*
X6524330Y-32996D01*
X6505283Y-32996D01*
X6495759Y-28234D01*
X6490997Y-23472D01*
X6486235Y-13949D01*
%TO.C,U6*%
D10*
X11439350Y-1683285D02*
X11439350Y-1731856D01*
X11436493Y-1737570D01*
X11433636Y-1740428D01*
X11427922Y-1743285D01*
X11416493Y-1743285D01*
X11410779Y-1740428D01*
X11407922Y-1737570D01*
X11405064Y-1731856D01*
X11405064Y-1683285D01*
X11350779Y-1683285D02*
X11362207Y-1683285D01*
X11367922Y-1686142D01*
X11370779Y-1688999D01*
X11376493Y-1697570D01*
X11379350Y-1708999D01*
X11379350Y-1731856D01*
X11376493Y-1737570D01*
X11373636Y-1740428D01*
X11367922Y-1743285D01*
X11356493Y-1743285D01*
X11350779Y-1740428D01*
X11347922Y-1737570D01*
X11345064Y-1731856D01*
X11345064Y-1717570D01*
X11347922Y-1711856D01*
X11350779Y-1708999D01*
X11356493Y-1706142D01*
X11367922Y-1706142D01*
X11373636Y-1708999D01*
X11376493Y-1711856D01*
X11379350Y-1717570D01*
%TO.C,U5*%
X11024483Y-1311780D02*
X11073054Y-1311780D01*
X11078769Y-1314637D01*
X11081626Y-1317494D01*
X11084483Y-1323208D01*
X11084483Y-1334637D01*
X11081626Y-1340351D01*
X11078769Y-1343208D01*
X11073054Y-1346065D01*
X11024483Y-1346065D01*
X11024483Y-1403208D02*
X11024483Y-1374637D01*
X11053054Y-1371780D01*
X11050197Y-1374637D01*
X11047340Y-1380351D01*
X11047340Y-1394637D01*
X11050197Y-1400351D01*
X11053054Y-1403208D01*
X11058769Y-1406065D01*
X11073054Y-1406065D01*
X11078769Y-1403208D01*
X11081626Y-1400351D01*
X11084483Y-1394637D01*
X11084483Y-1380351D01*
X11081626Y-1374637D01*
X11078769Y-1371780D01*
%TO.C,U2*%
X10416746Y-1603021D02*
X10416746Y-1651592D01*
X10413889Y-1657306D01*
X10411032Y-1660164D01*
X10405318Y-1663021D01*
X10393889Y-1663021D01*
X10388175Y-1660164D01*
X10385318Y-1657306D01*
X10382461Y-1651592D01*
X10382461Y-1603021D01*
X10356746Y-1608735D02*
X10353889Y-1605878D01*
X10348175Y-1603021D01*
X10333889Y-1603021D01*
X10328175Y-1605878D01*
X10325318Y-1608735D01*
X10322461Y-1614449D01*
X10322461Y-1620164D01*
X10325318Y-1628735D01*
X10359603Y-1663021D01*
X10322461Y-1663021D01*
%TO.C,R26*%
X10610771Y-1682833D02*
X10630771Y-1654261D01*
X10645057Y-1682833D02*
X10645057Y-1622833D01*
X10622200Y-1622833D01*
X10616486Y-1625690D01*
X10613629Y-1628547D01*
X10610771Y-1634261D01*
X10610771Y-1642833D01*
X10613629Y-1648547D01*
X10616486Y-1651404D01*
X10622200Y-1654261D01*
X10645057Y-1654261D01*
X10587914Y-1628547D02*
X10585057Y-1625690D01*
X10579343Y-1622833D01*
X10565057Y-1622833D01*
X10559343Y-1625690D01*
X10556486Y-1628547D01*
X10553629Y-1634261D01*
X10553629Y-1639976D01*
X10556486Y-1648547D01*
X10590771Y-1682833D01*
X10553629Y-1682833D01*
X10502200Y-1622833D02*
X10513629Y-1622833D01*
X10519343Y-1625690D01*
X10522200Y-1628547D01*
X10527914Y-1637118D01*
X10530771Y-1648547D01*
X10530771Y-1671404D01*
X10527914Y-1677118D01*
X10525057Y-1679976D01*
X10519343Y-1682833D01*
X10507914Y-1682833D01*
X10502200Y-1679976D01*
X10499343Y-1677118D01*
X10496486Y-1671404D01*
X10496486Y-1657118D01*
X10499343Y-1651404D01*
X10502200Y-1648547D01*
X10507914Y-1645690D01*
X10519343Y-1645690D01*
X10525057Y-1648547D01*
X10527914Y-1651404D01*
X10530771Y-1657118D01*
%TO.C,R25*%
D16*
X6511374Y-523520D02*
X6463755Y-490187D01*
X6511374Y-466377D02*
X6411374Y-466377D01*
X6411374Y-504473D01*
X6416136Y-513996D01*
X6420898Y-518758D01*
X6430422Y-523520D01*
X6444707Y-523520D01*
X6454231Y-518758D01*
X6458993Y-513996D01*
X6463755Y-504473D01*
X6463755Y-466377D01*
X6420898Y-561616D02*
X6416136Y-566377D01*
X6411374Y-575901D01*
X6411374Y-599711D01*
X6416136Y-609235D01*
X6420898Y-613996D01*
X6430422Y-618758D01*
X6439945Y-618758D01*
X6454231Y-613996D01*
X6511374Y-556854D01*
X6511374Y-618758D01*
X6411374Y-709234D02*
X6411374Y-661616D01*
X6458993Y-656854D01*
X6454231Y-661616D01*
X6449469Y-671139D01*
X6449469Y-694949D01*
X6454231Y-704473D01*
X6458993Y-709234D01*
X6468517Y-713996D01*
X6492326Y-713996D01*
X6501850Y-709234D01*
X6506612Y-704473D01*
X6511374Y-694949D01*
X6511374Y-671139D01*
X6506612Y-661616D01*
X6501850Y-656854D01*
%TO.C,R24*%
X6015746Y-231032D02*
X5968127Y-197699D01*
X6015746Y-173889D02*
X5915746Y-173889D01*
X5915746Y-211985D01*
X5920508Y-221508D01*
X5925270Y-226270D01*
X5934794Y-231032D01*
X5949079Y-231032D01*
X5958603Y-226270D01*
X5963365Y-221508D01*
X5968127Y-211985D01*
X5968127Y-173889D01*
X5925270Y-269128D02*
X5920508Y-273889D01*
X5915746Y-283413D01*
X5915746Y-307223D01*
X5920508Y-316747D01*
X5925270Y-321508D01*
X5934794Y-326270D01*
X5944317Y-326270D01*
X5958603Y-321508D01*
X6015746Y-264366D01*
X6015746Y-326270D01*
X5949079Y-411985D02*
X6015746Y-411985D01*
X5910984Y-388175D02*
X5982413Y-364366D01*
X5982413Y-426270D01*
%TO.C,R23*%
X6936746Y-1126638D02*
X6970079Y-1079019D01*
X6993888Y-1126638D02*
X6993888Y-1026638D01*
X6955793Y-1026638D01*
X6946269Y-1031400D01*
X6941508Y-1036162D01*
X6936746Y-1045686D01*
X6936746Y-1059971D01*
X6941508Y-1069495D01*
X6946269Y-1074257D01*
X6955793Y-1079019D01*
X6993888Y-1079019D01*
X6898650Y-1036162D02*
X6893888Y-1031400D01*
X6884365Y-1026638D01*
X6860555Y-1026638D01*
X6851031Y-1031400D01*
X6846269Y-1036162D01*
X6841508Y-1045686D01*
X6841508Y-1055210D01*
X6846269Y-1069495D01*
X6903412Y-1126638D01*
X6841508Y-1126638D01*
X6808174Y-1026638D02*
X6746269Y-1026638D01*
X6779603Y-1064733D01*
X6765317Y-1064733D01*
X6755793Y-1069495D01*
X6751031Y-1074257D01*
X6746269Y-1083781D01*
X6746269Y-1107590D01*
X6751031Y-1117114D01*
X6755793Y-1121876D01*
X6765317Y-1126638D01*
X6793888Y-1126638D01*
X6803412Y-1121876D01*
X6808174Y-1117114D01*
%TO.C,R22*%
D10*
X6931838Y-1585640D02*
X6958505Y-1547545D01*
X6977553Y-1585640D02*
X6977553Y-1505640D01*
X6947077Y-1505640D01*
X6939458Y-1509450D01*
X6935648Y-1513259D01*
X6931838Y-1520878D01*
X6931838Y-1532307D01*
X6935648Y-1539926D01*
X6939458Y-1543736D01*
X6947077Y-1547545D01*
X6977553Y-1547545D01*
X6901362Y-1513259D02*
X6897553Y-1509450D01*
X6889934Y-1505640D01*
X6870886Y-1505640D01*
X6863267Y-1509450D01*
X6859458Y-1513259D01*
X6855648Y-1520878D01*
X6855648Y-1528498D01*
X6859458Y-1539926D01*
X6905172Y-1585640D01*
X6855648Y-1585640D01*
X6825172Y-1513259D02*
X6821362Y-1509450D01*
X6813743Y-1505640D01*
X6794696Y-1505640D01*
X6787077Y-1509450D01*
X6783267Y-1513259D01*
X6779458Y-1520878D01*
X6779458Y-1528498D01*
X6783267Y-1539926D01*
X6828981Y-1585640D01*
X6779458Y-1585640D01*
%TO.C,R21*%
D16*
X7289856Y-1127908D02*
X7323189Y-1080289D01*
X7346998Y-1127908D02*
X7346998Y-1027908D01*
X7308903Y-1027908D01*
X7299379Y-1032670D01*
X7294618Y-1037432D01*
X7289856Y-1046956D01*
X7289856Y-1061241D01*
X7294618Y-1070765D01*
X7299379Y-1075527D01*
X7308903Y-1080289D01*
X7346998Y-1080289D01*
X7251760Y-1037432D02*
X7246998Y-1032670D01*
X7237475Y-1027908D01*
X7213665Y-1027908D01*
X7204141Y-1032670D01*
X7199379Y-1037432D01*
X7194618Y-1046956D01*
X7194618Y-1056480D01*
X7199379Y-1070765D01*
X7256522Y-1127908D01*
X7194618Y-1127908D01*
X7099379Y-1127908D02*
X7156522Y-1127908D01*
X7127951Y-1127908D02*
X7127951Y-1027908D01*
X7137475Y-1042194D01*
X7146998Y-1051718D01*
X7156522Y-1056480D01*
%TO.C,R20*%
X7319600Y-2252294D02*
X7352933Y-2204675D01*
X7376742Y-2252294D02*
X7376742Y-2152294D01*
X7338647Y-2152294D01*
X7329123Y-2157056D01*
X7324362Y-2161818D01*
X7319600Y-2171342D01*
X7319600Y-2185627D01*
X7324362Y-2195151D01*
X7329123Y-2199913D01*
X7338647Y-2204675D01*
X7376742Y-2204675D01*
X7281504Y-2161818D02*
X7276742Y-2157056D01*
X7267219Y-2152294D01*
X7243409Y-2152294D01*
X7233885Y-2157056D01*
X7229123Y-2161818D01*
X7224362Y-2171342D01*
X7224362Y-2180866D01*
X7229123Y-2195151D01*
X7286266Y-2252294D01*
X7224362Y-2252294D01*
X7162457Y-2152294D02*
X7152933Y-2152294D01*
X7143409Y-2157056D01*
X7138647Y-2161818D01*
X7133885Y-2171342D01*
X7129123Y-2190389D01*
X7129123Y-2214199D01*
X7133885Y-2233246D01*
X7138647Y-2242770D01*
X7143409Y-2247532D01*
X7152933Y-2252294D01*
X7162457Y-2252294D01*
X7171981Y-2247532D01*
X7176742Y-2242770D01*
X7181504Y-2233246D01*
X7186266Y-2214199D01*
X7186266Y-2190389D01*
X7181504Y-2171342D01*
X7176742Y-2161818D01*
X7171981Y-2157056D01*
X7162457Y-2152294D01*
%TO.C,R19*%
X10989294Y-2581363D02*
X10941675Y-2548030D01*
X10989294Y-2524220D02*
X10889294Y-2524220D01*
X10889294Y-2562316D01*
X10894056Y-2571839D01*
X10898818Y-2576601D01*
X10908342Y-2581363D01*
X10922627Y-2581363D01*
X10932151Y-2576601D01*
X10936913Y-2571839D01*
X10941675Y-2562316D01*
X10941675Y-2524220D01*
X10989294Y-2676601D02*
X10989294Y-2619459D01*
X10989294Y-2648030D02*
X10889294Y-2648030D01*
X10903580Y-2638506D01*
X10913104Y-2628982D01*
X10917866Y-2619459D01*
X10989294Y-2724220D02*
X10989294Y-2743268D01*
X10984532Y-2752792D01*
X10979770Y-2757554D01*
X10965485Y-2767078D01*
X10946437Y-2771839D01*
X10908342Y-2771839D01*
X10898818Y-2767078D01*
X10894056Y-2762316D01*
X10889294Y-2752792D01*
X10889294Y-2733744D01*
X10894056Y-2724220D01*
X10898818Y-2719459D01*
X10908342Y-2714697D01*
X10932151Y-2714697D01*
X10941675Y-2719459D01*
X10946437Y-2724220D01*
X10951199Y-2733744D01*
X10951199Y-2752792D01*
X10946437Y-2762316D01*
X10941675Y-2767078D01*
X10932151Y-2771839D01*
%TO.C,R18*%
X7556166Y-2537988D02*
X7589499Y-2490369D01*
X7613308Y-2537988D02*
X7613308Y-2437988D01*
X7575213Y-2437988D01*
X7565689Y-2442750D01*
X7560928Y-2447512D01*
X7556166Y-2457036D01*
X7556166Y-2471321D01*
X7560928Y-2480845D01*
X7565689Y-2485607D01*
X7575213Y-2490369D01*
X7613308Y-2490369D01*
X7460928Y-2537988D02*
X7518070Y-2537988D01*
X7489499Y-2537988D02*
X7489499Y-2437988D01*
X7499023Y-2452274D01*
X7508547Y-2461798D01*
X7518070Y-2466560D01*
X7403785Y-2480845D02*
X7413308Y-2476083D01*
X7418070Y-2471321D01*
X7422832Y-2461798D01*
X7422832Y-2457036D01*
X7418070Y-2447512D01*
X7413308Y-2442750D01*
X7403785Y-2437988D01*
X7384737Y-2437988D01*
X7375213Y-2442750D01*
X7370451Y-2447512D01*
X7365689Y-2457036D01*
X7365689Y-2461798D01*
X7370451Y-2471321D01*
X7375213Y-2476083D01*
X7384737Y-2480845D01*
X7403785Y-2480845D01*
X7413308Y-2485607D01*
X7418070Y-2490369D01*
X7422832Y-2499893D01*
X7422832Y-2518940D01*
X7418070Y-2528464D01*
X7413308Y-2533226D01*
X7403785Y-2537988D01*
X7384737Y-2537988D01*
X7375213Y-2533226D01*
X7370451Y-2528464D01*
X7365689Y-2518940D01*
X7365689Y-2499893D01*
X7370451Y-2490369D01*
X7375213Y-2485607D01*
X7384737Y-2480845D01*
%TO.C,R17*%
X10825718Y-2581363D02*
X10778099Y-2548030D01*
X10825718Y-2524220D02*
X10725718Y-2524220D01*
X10725718Y-2562316D01*
X10730480Y-2571839D01*
X10735242Y-2576601D01*
X10744766Y-2581363D01*
X10759051Y-2581363D01*
X10768575Y-2576601D01*
X10773337Y-2571839D01*
X10778099Y-2562316D01*
X10778099Y-2524220D01*
X10825718Y-2676601D02*
X10825718Y-2619459D01*
X10825718Y-2648030D02*
X10725718Y-2648030D01*
X10740004Y-2638506D01*
X10749528Y-2628982D01*
X10754290Y-2619459D01*
X10725718Y-2709935D02*
X10725718Y-2776601D01*
X10825718Y-2733744D01*
%TO.C,R16*%
X6333066Y56870D02*
X6285447Y90203D01*
X6333066Y114012D02*
X6233066Y114012D01*
X6233066Y75917D01*
X6237828Y66394D01*
X6242590Y61632D01*
X6252114Y56870D01*
X6266399Y56870D01*
X6275923Y61632D01*
X6280685Y66394D01*
X6285447Y75917D01*
X6285447Y114012D01*
X6333066Y-38368D02*
X6333066Y18774D01*
X6333066Y-9797D02*
X6233066Y-9797D01*
X6247352Y-273D01*
X6256876Y9251D01*
X6261637Y18774D01*
X6233066Y-124083D02*
X6233066Y-105035D01*
X6237828Y-95511D01*
X6242590Y-90749D01*
X6256876Y-81226D01*
X6275923Y-76464D01*
X6314018Y-76464D01*
X6323542Y-81226D01*
X6328304Y-85987D01*
X6333066Y-95511D01*
X6333066Y-114559D01*
X6328304Y-124083D01*
X6323542Y-128844D01*
X6314018Y-133606D01*
X6290209Y-133606D01*
X6280685Y-128844D01*
X6275923Y-124083D01*
X6271161Y-114559D01*
X6271161Y-95511D01*
X6275923Y-85987D01*
X6280685Y-81226D01*
X6290209Y-76464D01*
%TO.C,R15*%
X12585150Y-1033964D02*
X12537531Y-1000631D01*
X12585150Y-976821D02*
X12485150Y-976821D01*
X12485150Y-1014917D01*
X12489912Y-1024440D01*
X12494674Y-1029202D01*
X12504198Y-1033964D01*
X12518483Y-1033964D01*
X12528007Y-1029202D01*
X12532769Y-1024440D01*
X12537531Y-1014917D01*
X12537531Y-976821D01*
X12585150Y-1129202D02*
X12585150Y-1072060D01*
X12585150Y-1100631D02*
X12485150Y-1100631D01*
X12499436Y-1091107D01*
X12508960Y-1081583D01*
X12513721Y-1072060D01*
X12485150Y-1219679D02*
X12485150Y-1172060D01*
X12532769Y-1167298D01*
X12528007Y-1172060D01*
X12523245Y-1181583D01*
X12523245Y-1205393D01*
X12528007Y-1214917D01*
X12532769Y-1219679D01*
X12542293Y-1224440D01*
X12566102Y-1224440D01*
X12575626Y-1219679D01*
X12580388Y-1214917D01*
X12585150Y-1205393D01*
X12585150Y-1181583D01*
X12580388Y-1172060D01*
X12575626Y-1167298D01*
%TO.C,R14*%
X12444688Y-1034014D02*
X12397069Y-1000681D01*
X12444688Y-976871D02*
X12344688Y-976871D01*
X12344688Y-1014967D01*
X12349450Y-1024490D01*
X12354212Y-1029252D01*
X12363736Y-1034014D01*
X12378021Y-1034014D01*
X12387545Y-1029252D01*
X12392307Y-1024490D01*
X12397069Y-1014967D01*
X12397069Y-976871D01*
X12444688Y-1129252D02*
X12444688Y-1072110D01*
X12444688Y-1100681D02*
X12344688Y-1100681D01*
X12358974Y-1091157D01*
X12368498Y-1081633D01*
X12373259Y-1072110D01*
X12378021Y-1214967D02*
X12444688Y-1214967D01*
X12339926Y-1191157D02*
X12411355Y-1167348D01*
X12411355Y-1229252D01*
%TO.C,R13*%
X12200110Y-1055160D02*
X12152491Y-1021827D01*
X12200110Y-998017D02*
X12100110Y-998017D01*
X12100110Y-1036113D01*
X12104872Y-1045636D01*
X12109634Y-1050398D01*
X12119158Y-1055160D01*
X12133443Y-1055160D01*
X12142967Y-1050398D01*
X12147729Y-1045636D01*
X12152491Y-1036113D01*
X12152491Y-998017D01*
X12200110Y-1150398D02*
X12200110Y-1093256D01*
X12200110Y-1121827D02*
X12100110Y-1121827D01*
X12114396Y-1112303D01*
X12123920Y-1102779D01*
X12128681Y-1093256D01*
X12100110Y-1183732D02*
X12100110Y-1245636D01*
X12138205Y-1212303D01*
X12138205Y-1226589D01*
X12142967Y-1236113D01*
X12147729Y-1240875D01*
X12157253Y-1245636D01*
X12181062Y-1245636D01*
X12190586Y-1240875D01*
X12195348Y-1236113D01*
X12200110Y-1226589D01*
X12200110Y-1198017D01*
X12195348Y-1188494D01*
X12190586Y-1183732D01*
%TO.C,R12*%
X12041360Y-1055210D02*
X11993741Y-1021877D01*
X12041360Y-998067D02*
X11941360Y-998067D01*
X11941360Y-1036163D01*
X11946122Y-1045686D01*
X11950884Y-1050448D01*
X11960408Y-1055210D01*
X11974693Y-1055210D01*
X11984217Y-1050448D01*
X11988979Y-1045686D01*
X11993741Y-1036163D01*
X11993741Y-998067D01*
X12041360Y-1150448D02*
X12041360Y-1093306D01*
X12041360Y-1121877D02*
X11941360Y-1121877D01*
X11955646Y-1112353D01*
X11965170Y-1102829D01*
X11969931Y-1093306D01*
X11950884Y-1188544D02*
X11946122Y-1193306D01*
X11941360Y-1202829D01*
X11941360Y-1226639D01*
X11946122Y-1236163D01*
X11950884Y-1240925D01*
X11960408Y-1245686D01*
X11969931Y-1245686D01*
X11984217Y-1240925D01*
X12041360Y-1183782D01*
X12041360Y-1245686D01*
%TO.C,R11*%
X11882610Y-1055210D02*
X11834991Y-1021877D01*
X11882610Y-998067D02*
X11782610Y-998067D01*
X11782610Y-1036163D01*
X11787372Y-1045686D01*
X11792134Y-1050448D01*
X11801658Y-1055210D01*
X11815943Y-1055210D01*
X11825467Y-1050448D01*
X11830229Y-1045686D01*
X11834991Y-1036163D01*
X11834991Y-998067D01*
X11882610Y-1150448D02*
X11882610Y-1093306D01*
X11882610Y-1121877D02*
X11782610Y-1121877D01*
X11796896Y-1112353D01*
X11806420Y-1102829D01*
X11811181Y-1093306D01*
X11882610Y-1245686D02*
X11882610Y-1188544D01*
X11882610Y-1217115D02*
X11782610Y-1217115D01*
X11796896Y-1207591D01*
X11806420Y-1198067D01*
X11811181Y-1188544D01*
%TO.C,R8*%
X12131278Y-773391D02*
X12083659Y-740058D01*
X12131278Y-716248D02*
X12031278Y-716248D01*
X12031278Y-754344D01*
X12036040Y-763867D01*
X12040802Y-768629D01*
X12050326Y-773391D01*
X12064611Y-773391D01*
X12074135Y-768629D01*
X12078897Y-763867D01*
X12083659Y-754344D01*
X12083659Y-716248D01*
X12074135Y-830534D02*
X12069373Y-821010D01*
X12064611Y-816248D01*
X12055088Y-811486D01*
X12050326Y-811486D01*
X12040802Y-816248D01*
X12036040Y-821010D01*
X12031278Y-830534D01*
X12031278Y-849582D01*
X12036040Y-859106D01*
X12040802Y-863867D01*
X12050326Y-868629D01*
X12055088Y-868629D01*
X12064611Y-863867D01*
X12069373Y-859106D01*
X12074135Y-849582D01*
X12074135Y-830534D01*
X12078897Y-821010D01*
X12083659Y-816248D01*
X12093183Y-811486D01*
X12112230Y-811486D01*
X12121754Y-816248D01*
X12126516Y-821010D01*
X12131278Y-830534D01*
X12131278Y-849582D01*
X12126516Y-859106D01*
X12121754Y-863867D01*
X12112230Y-868629D01*
X12093183Y-868629D01*
X12083659Y-863867D01*
X12078897Y-859106D01*
X12074135Y-849582D01*
%TO.C,R5*%
X6909269Y-1875612D02*
X6942602Y-1827993D01*
X6966411Y-1875612D02*
X6966411Y-1775612D01*
X6928316Y-1775612D01*
X6918792Y-1780374D01*
X6914030Y-1785136D01*
X6909269Y-1794660D01*
X6909269Y-1808945D01*
X6914030Y-1818469D01*
X6918792Y-1823231D01*
X6928316Y-1827993D01*
X6966411Y-1827993D01*
X6818792Y-1775612D02*
X6866411Y-1775612D01*
X6871173Y-1823231D01*
X6866411Y-1818469D01*
X6856888Y-1813707D01*
X6833078Y-1813707D01*
X6823554Y-1818469D01*
X6818792Y-1823231D01*
X6814030Y-1832755D01*
X6814030Y-1856564D01*
X6818792Y-1866088D01*
X6823554Y-1870850D01*
X6833078Y-1875612D01*
X6856888Y-1875612D01*
X6866411Y-1870850D01*
X6871173Y-1866088D01*
%TO.C,R4*%
X10289655Y-1068976D02*
X10322988Y-1021357D01*
X10346798Y-1068976D02*
X10346798Y-968976D01*
X10308702Y-968976D01*
X10299178Y-973738D01*
X10294417Y-978500D01*
X10289655Y-988024D01*
X10289655Y-1002309D01*
X10294417Y-1011833D01*
X10299178Y-1016595D01*
X10308702Y-1021357D01*
X10346798Y-1021357D01*
X10203940Y-1002309D02*
X10203940Y-1068976D01*
X10227750Y-964214D02*
X10251559Y-1035643D01*
X10189655Y-1035643D01*
%TO.C,R2*%
X10305018Y-293839D02*
X10257399Y-260506D01*
X10305018Y-236696D02*
X10205018Y-236696D01*
X10205018Y-274792D01*
X10209780Y-284316D01*
X10214542Y-289077D01*
X10224066Y-293839D01*
X10238351Y-293839D01*
X10247875Y-289077D01*
X10252637Y-284316D01*
X10257399Y-274792D01*
X10257399Y-236696D01*
X10214542Y-331935D02*
X10209780Y-336696D01*
X10205018Y-346220D01*
X10205018Y-370030D01*
X10209780Y-379554D01*
X10214542Y-384315D01*
X10224066Y-389077D01*
X10233590Y-389077D01*
X10247875Y-384315D01*
X10305018Y-327173D01*
X10305018Y-389077D01*
%TO.C,Q1*%
D10*
X10748821Y-1960364D02*
X10745964Y-1954649D01*
X10740250Y-1948935D01*
X10731678Y-1940364D01*
X10728821Y-1934649D01*
X10728821Y-1928935D01*
X10743107Y-1931792D02*
X10740250Y-1926078D01*
X10734535Y-1920364D01*
X10723107Y-1917506D01*
X10703107Y-1917506D01*
X10691678Y-1920364D01*
X10685964Y-1926078D01*
X10683107Y-1931792D01*
X10683107Y-1943221D01*
X10685964Y-1948935D01*
X10691678Y-1954649D01*
X10703107Y-1957506D01*
X10723107Y-1957506D01*
X10734535Y-1954649D01*
X10740250Y-1948935D01*
X10743107Y-1943221D01*
X10743107Y-1931792D01*
X10743107Y-2014649D02*
X10743107Y-1980364D01*
X10743107Y-1997506D02*
X10683107Y-1997506D01*
X10691678Y-1991792D01*
X10697393Y-1986078D01*
X10700250Y-1980364D01*
%TO.C,D2*%
X6093737Y-2517608D02*
X6033737Y-2517608D01*
X6033737Y-2531894D01*
X6036594Y-2540465D01*
X6042308Y-2546180D01*
X6048022Y-2549037D01*
X6059451Y-2551894D01*
X6068022Y-2551894D01*
X6079451Y-2549037D01*
X6085165Y-2546180D01*
X6090880Y-2540465D01*
X6093737Y-2531894D01*
X6093737Y-2517608D01*
X6039451Y-2574751D02*
X6036594Y-2577608D01*
X6033737Y-2583323D01*
X6033737Y-2597608D01*
X6036594Y-2603323D01*
X6039451Y-2606180D01*
X6045165Y-2609037D01*
X6050880Y-2609037D01*
X6059451Y-2606180D01*
X6093737Y-2571894D01*
X6093737Y-2609037D01*
%TO.C,D1*%
X6189241Y-2520656D02*
X6129241Y-2520656D01*
X6129241Y-2534942D01*
X6132098Y-2543513D01*
X6137812Y-2549228D01*
X6143526Y-2552085D01*
X6154955Y-2554942D01*
X6163526Y-2554942D01*
X6174955Y-2552085D01*
X6180669Y-2549228D01*
X6186384Y-2543513D01*
X6189241Y-2534942D01*
X6189241Y-2520656D01*
X6189241Y-2612085D02*
X6189241Y-2577799D01*
X6189241Y-2594942D02*
X6129241Y-2594942D01*
X6137812Y-2589228D01*
X6143526Y-2583513D01*
X6146384Y-2577799D01*
%TO.C,C24*%
D16*
X10606898Y-2581363D02*
X10611660Y-2576601D01*
X10616422Y-2562316D01*
X10616422Y-2552792D01*
X10611660Y-2538506D01*
X10602136Y-2528982D01*
X10592613Y-2524220D01*
X10573565Y-2519459D01*
X10559279Y-2519459D01*
X10540232Y-2524220D01*
X10530708Y-2528982D01*
X10521184Y-2538506D01*
X10516422Y-2552792D01*
X10516422Y-2562316D01*
X10521184Y-2576601D01*
X10525946Y-2581363D01*
X10525946Y-2619459D02*
X10521184Y-2624220D01*
X10516422Y-2633744D01*
X10516422Y-2657554D01*
X10521184Y-2667078D01*
X10525946Y-2671839D01*
X10535470Y-2676601D01*
X10544994Y-2676601D01*
X10559279Y-2671839D01*
X10616422Y-2614697D01*
X10616422Y-2676601D01*
X10549755Y-2762316D02*
X10616422Y-2762316D01*
X10511660Y-2738506D02*
X10583089Y-2714697D01*
X10583089Y-2776601D01*
%TO.C,C23*%
X6214192Y-2397456D02*
X6218954Y-2402218D01*
X6233239Y-2406980D01*
X6242763Y-2406980D01*
X6257049Y-2402218D01*
X6266573Y-2392694D01*
X6271334Y-2383171D01*
X6276096Y-2364123D01*
X6276096Y-2349837D01*
X6271334Y-2330790D01*
X6266573Y-2321266D01*
X6257049Y-2311742D01*
X6242763Y-2306980D01*
X6233239Y-2306980D01*
X6218954Y-2311742D01*
X6214192Y-2316504D01*
X6176096Y-2316504D02*
X6171334Y-2311742D01*
X6161811Y-2306980D01*
X6138001Y-2306980D01*
X6128477Y-2311742D01*
X6123715Y-2316504D01*
X6118954Y-2326028D01*
X6118954Y-2335552D01*
X6123715Y-2349837D01*
X6180858Y-2406980D01*
X6118954Y-2406980D01*
X6085620Y-2306980D02*
X6023715Y-2306980D01*
X6057049Y-2345075D01*
X6042763Y-2345075D01*
X6033239Y-2349837D01*
X6028477Y-2354599D01*
X6023715Y-2364123D01*
X6023715Y-2387932D01*
X6028477Y-2397456D01*
X6033239Y-2402218D01*
X6042763Y-2406980D01*
X6071334Y-2406980D01*
X6080858Y-2402218D01*
X6085620Y-2397456D01*
%TO.C,C22*%
X8653992Y117830D02*
X8658754Y122592D01*
X8663516Y136877D01*
X8663516Y146401D01*
X8658754Y160687D01*
X8649230Y170211D01*
X8639707Y174972D01*
X8620659Y179734D01*
X8606373Y179734D01*
X8587326Y174972D01*
X8577802Y170211D01*
X8568278Y160687D01*
X8563516Y146401D01*
X8563516Y136877D01*
X8568278Y122592D01*
X8573040Y117830D01*
X8573040Y79734D02*
X8568278Y74973D01*
X8563516Y65449D01*
X8563516Y41639D01*
X8568278Y32115D01*
X8573040Y27353D01*
X8582564Y22592D01*
X8592088Y22592D01*
X8606373Y27353D01*
X8663516Y84496D01*
X8663516Y22592D01*
X8573040Y-15504D02*
X8568278Y-20266D01*
X8563516Y-29789D01*
X8563516Y-53599D01*
X8568278Y-63123D01*
X8573040Y-67885D01*
X8582564Y-72646D01*
X8592088Y-72646D01*
X8606373Y-67885D01*
X8663516Y-10742D01*
X8663516Y-72646D01*
%TO.C,C21*%
X9026386Y-201776D02*
X9031148Y-197014D01*
X9035910Y-182729D01*
X9035910Y-173205D01*
X9031148Y-158919D01*
X9021624Y-149395D01*
X9012101Y-144633D01*
X8993053Y-139872D01*
X8978767Y-139872D01*
X8959720Y-144633D01*
X8950196Y-149395D01*
X8940672Y-158919D01*
X8935910Y-173205D01*
X8935910Y-182729D01*
X8940672Y-197014D01*
X8945434Y-201776D01*
X8945434Y-239871D02*
X8940672Y-244633D01*
X8935910Y-254157D01*
X8935910Y-277967D01*
X8940672Y-287491D01*
X8945434Y-292252D01*
X8954958Y-297014D01*
X8964482Y-297014D01*
X8978767Y-292252D01*
X9035910Y-235110D01*
X9035910Y-297014D01*
X9035910Y-392252D02*
X9035910Y-335110D01*
X9035910Y-363681D02*
X8935910Y-363681D01*
X8950196Y-354157D01*
X8959720Y-344633D01*
X8964482Y-335110D01*
%TO.C,C20*%
X7758406Y-1112034D02*
X7763168Y-1116796D01*
X7777453Y-1121558D01*
X7786977Y-1121558D01*
X7801263Y-1116796D01*
X7810787Y-1107272D01*
X7815548Y-1097749D01*
X7820310Y-1078701D01*
X7820310Y-1064415D01*
X7815548Y-1045368D01*
X7810787Y-1035844D01*
X7801263Y-1026320D01*
X7786977Y-1021558D01*
X7777453Y-1021558D01*
X7763168Y-1026320D01*
X7758406Y-1031082D01*
X7720310Y-1031082D02*
X7715548Y-1026320D01*
X7706025Y-1021558D01*
X7682215Y-1021558D01*
X7672691Y-1026320D01*
X7667929Y-1031082D01*
X7663168Y-1040606D01*
X7663168Y-1050130D01*
X7667929Y-1064415D01*
X7725072Y-1121558D01*
X7663168Y-1121558D01*
X7601263Y-1021558D02*
X7591739Y-1021558D01*
X7582215Y-1026320D01*
X7577453Y-1031082D01*
X7572691Y-1040606D01*
X7567929Y-1059653D01*
X7567929Y-1083463D01*
X7572691Y-1102510D01*
X7577453Y-1112034D01*
X7582215Y-1116796D01*
X7591739Y-1121558D01*
X7601263Y-1121558D01*
X7610787Y-1116796D01*
X7615548Y-1112034D01*
X7620310Y-1102510D01*
X7625072Y-1083463D01*
X7625072Y-1059653D01*
X7620310Y-1040606D01*
X7615548Y-1031082D01*
X7610787Y-1026320D01*
X7601263Y-1021558D01*
%TO.C,C19*%
X7758406Y-1269091D02*
X7763168Y-1273853D01*
X7777453Y-1278615D01*
X7786977Y-1278615D01*
X7801263Y-1273853D01*
X7810787Y-1264329D01*
X7815548Y-1254805D01*
X7820310Y-1235758D01*
X7820310Y-1221472D01*
X7815548Y-1202424D01*
X7810787Y-1192900D01*
X7801263Y-1183377D01*
X7786977Y-1178615D01*
X7777453Y-1178615D01*
X7763168Y-1183377D01*
X7758406Y-1188139D01*
X7663168Y-1278615D02*
X7720310Y-1278615D01*
X7691739Y-1278615D02*
X7691739Y-1178615D01*
X7701263Y-1192900D01*
X7710787Y-1202424D01*
X7720310Y-1207186D01*
X7615548Y-1278615D02*
X7596501Y-1278615D01*
X7586977Y-1273853D01*
X7582215Y-1269091D01*
X7572691Y-1254805D01*
X7567929Y-1235758D01*
X7567929Y-1197662D01*
X7572691Y-1188139D01*
X7577453Y-1183377D01*
X7586977Y-1178615D01*
X7606025Y-1178615D01*
X7615548Y-1183377D01*
X7620310Y-1188139D01*
X7625072Y-1197662D01*
X7625072Y-1221472D01*
X7620310Y-1230996D01*
X7615548Y-1235758D01*
X7606025Y-1240519D01*
X7586977Y-1240519D01*
X7577453Y-1235758D01*
X7572691Y-1230996D01*
X7567929Y-1221472D01*
%TO.C,C18*%
X8143830Y-2004772D02*
X8148592Y-2009534D01*
X8162877Y-2014296D01*
X8172401Y-2014296D01*
X8186687Y-2009534D01*
X8196211Y-2000010D01*
X8200972Y-1990486D01*
X8205734Y-1971439D01*
X8205734Y-1957153D01*
X8200972Y-1938106D01*
X8196211Y-1928582D01*
X8186687Y-1919058D01*
X8172401Y-1914296D01*
X8162877Y-1914296D01*
X8148592Y-1919058D01*
X8143830Y-1923820D01*
X8048592Y-2014296D02*
X8105734Y-2014296D01*
X8077163Y-2014296D02*
X8077163Y-1914296D01*
X8086687Y-1928582D01*
X8096211Y-1938106D01*
X8105734Y-1942867D01*
X7991449Y-1957153D02*
X8000972Y-1952391D01*
X8005734Y-1947629D01*
X8010496Y-1938106D01*
X8010496Y-1933344D01*
X8005734Y-1923820D01*
X8000972Y-1919058D01*
X7991449Y-1914296D01*
X7972401Y-1914296D01*
X7962877Y-1919058D01*
X7958115Y-1923820D01*
X7953353Y-1933344D01*
X7953353Y-1938106D01*
X7958115Y-1947629D01*
X7962877Y-1952391D01*
X7972401Y-1957153D01*
X7991449Y-1957153D01*
X8000972Y-1961915D01*
X8005734Y-1966677D01*
X8010496Y-1976201D01*
X8010496Y-1995248D01*
X8005734Y-2004772D01*
X8000972Y-2009534D01*
X7991449Y-2014296D01*
X7972401Y-2014296D01*
X7962877Y-2009534D01*
X7958115Y-2004772D01*
X7953353Y-1995248D01*
X7953353Y-1976201D01*
X7958115Y-1966677D01*
X7962877Y-1961915D01*
X7972401Y-1957153D01*
%TO.C,C17*%
X7822520Y-1830274D02*
X7827282Y-1835036D01*
X7841567Y-1839798D01*
X7851091Y-1839798D01*
X7865377Y-1835036D01*
X7874901Y-1825512D01*
X7879662Y-1815988D01*
X7884424Y-1796941D01*
X7884424Y-1782655D01*
X7879662Y-1763608D01*
X7874901Y-1754084D01*
X7865377Y-1744560D01*
X7851091Y-1739798D01*
X7841567Y-1739798D01*
X7827282Y-1744560D01*
X7822520Y-1749322D01*
X7727282Y-1839798D02*
X7784424Y-1839798D01*
X7755853Y-1839798D02*
X7755853Y-1739798D01*
X7765377Y-1754084D01*
X7774901Y-1763608D01*
X7784424Y-1768369D01*
X7693948Y-1739798D02*
X7627282Y-1739798D01*
X7670139Y-1839798D01*
%TO.C,C16*%
X11420312Y-1410810D02*
X11425074Y-1406048D01*
X11429836Y-1391763D01*
X11429836Y-1382239D01*
X11425074Y-1367953D01*
X11415550Y-1358429D01*
X11406026Y-1353667D01*
X11386979Y-1348906D01*
X11372693Y-1348906D01*
X11353646Y-1353667D01*
X11344122Y-1358429D01*
X11334598Y-1367953D01*
X11329836Y-1382239D01*
X11329836Y-1391763D01*
X11334598Y-1406048D01*
X11339360Y-1410810D01*
X11429836Y-1506048D02*
X11429836Y-1448905D01*
X11429836Y-1477477D02*
X11329836Y-1477477D01*
X11344122Y-1467953D01*
X11353646Y-1458429D01*
X11358407Y-1448905D01*
X11329836Y-1591763D02*
X11329836Y-1572715D01*
X11334598Y-1563191D01*
X11339360Y-1558429D01*
X11353646Y-1548905D01*
X11372693Y-1544144D01*
X11410788Y-1544144D01*
X11420312Y-1548905D01*
X11425074Y-1553667D01*
X11429836Y-1563191D01*
X11429836Y-1582239D01*
X11425074Y-1591763D01*
X11420312Y-1596524D01*
X11410788Y-1601286D01*
X11386979Y-1601286D01*
X11377455Y-1596524D01*
X11372693Y-1591763D01*
X11367931Y-1582239D01*
X11367931Y-1563191D01*
X11372693Y-1553667D01*
X11377455Y-1548905D01*
X11386979Y-1544144D01*
%TO.C,C15*%
X11225134Y-2581363D02*
X11229896Y-2576601D01*
X11234658Y-2562316D01*
X11234658Y-2552792D01*
X11229896Y-2538506D01*
X11220372Y-2528982D01*
X11210848Y-2524220D01*
X11191801Y-2519459D01*
X11177515Y-2519459D01*
X11158468Y-2524220D01*
X11148944Y-2528982D01*
X11139420Y-2538506D01*
X11134658Y-2552792D01*
X11134658Y-2562316D01*
X11139420Y-2576601D01*
X11144182Y-2581363D01*
X11234658Y-2676601D02*
X11234658Y-2619459D01*
X11234658Y-2648030D02*
X11134658Y-2648030D01*
X11148944Y-2638506D01*
X11158468Y-2628982D01*
X11163230Y-2619459D01*
X11134658Y-2767078D02*
X11134658Y-2719459D01*
X11182277Y-2714697D01*
X11177515Y-2719459D01*
X11172753Y-2728982D01*
X11172753Y-2752792D01*
X11177515Y-2762316D01*
X11182277Y-2767078D01*
X11191801Y-2771839D01*
X11215610Y-2771839D01*
X11225134Y-2767078D01*
X11229896Y-2762316D01*
X11234658Y-2752792D01*
X11234658Y-2728982D01*
X11229896Y-2719459D01*
X11225134Y-2714697D01*
%TO.C,C14*%
X11387186Y-2581363D02*
X11391948Y-2576601D01*
X11396710Y-2562316D01*
X11396710Y-2552792D01*
X11391948Y-2538506D01*
X11382424Y-2528982D01*
X11372900Y-2524220D01*
X11353853Y-2519459D01*
X11339567Y-2519459D01*
X11320520Y-2524220D01*
X11310996Y-2528982D01*
X11301472Y-2538506D01*
X11296710Y-2552792D01*
X11296710Y-2562316D01*
X11301472Y-2576601D01*
X11306234Y-2581363D01*
X11396710Y-2676601D02*
X11396710Y-2619459D01*
X11396710Y-2648030D02*
X11296710Y-2648030D01*
X11310996Y-2638506D01*
X11320520Y-2628982D01*
X11325281Y-2619459D01*
X11330043Y-2762316D02*
X11396710Y-2762316D01*
X11291948Y-2738506D02*
X11363377Y-2714697D01*
X11363377Y-2776601D01*
%TO.C,C12*%
X10101946Y-2207608D02*
X10106708Y-2202846D01*
X10111470Y-2188561D01*
X10111470Y-2179037D01*
X10106708Y-2164751D01*
X10097184Y-2155227D01*
X10087661Y-2150465D01*
X10068613Y-2145704D01*
X10054327Y-2145704D01*
X10035280Y-2150465D01*
X10025756Y-2155227D01*
X10016232Y-2164751D01*
X10011470Y-2179037D01*
X10011470Y-2188561D01*
X10016232Y-2202846D01*
X10020994Y-2207608D01*
X10111470Y-2302846D02*
X10111470Y-2245704D01*
X10111470Y-2274275D02*
X10011470Y-2274275D01*
X10025756Y-2264751D01*
X10035280Y-2255227D01*
X10040042Y-2245704D01*
X10020994Y-2340942D02*
X10016232Y-2345704D01*
X10011470Y-2355227D01*
X10011470Y-2379037D01*
X10016232Y-2388561D01*
X10020994Y-2393323D01*
X10030518Y-2398084D01*
X10040042Y-2398084D01*
X10054327Y-2393323D01*
X10111470Y-2336180D01*
X10111470Y-2398084D01*
%TO.C,C11*%
X10224882Y-1180432D02*
X10229644Y-1175670D01*
X10234406Y-1161385D01*
X10234406Y-1151861D01*
X10229644Y-1137575D01*
X10220120Y-1128051D01*
X10210597Y-1123289D01*
X10191549Y-1118528D01*
X10177263Y-1118528D01*
X10158216Y-1123289D01*
X10148692Y-1128051D01*
X10139168Y-1137575D01*
X10134406Y-1151861D01*
X10134406Y-1161385D01*
X10139168Y-1175670D01*
X10143930Y-1180432D01*
X10234406Y-1275670D02*
X10234406Y-1218528D01*
X10234406Y-1247099D02*
X10134406Y-1247099D01*
X10148692Y-1237575D01*
X10158216Y-1228051D01*
X10162978Y-1218528D01*
X10234406Y-1370908D02*
X10234406Y-1313766D01*
X10234406Y-1342337D02*
X10134406Y-1342337D01*
X10148692Y-1332813D01*
X10158216Y-1323289D01*
X10162978Y-1313766D01*
%TO.C,C10*%
X10354930Y-1157064D02*
X10359692Y-1152302D01*
X10364454Y-1138017D01*
X10364454Y-1128493D01*
X10359692Y-1114207D01*
X10350168Y-1104683D01*
X10340645Y-1099921D01*
X10321597Y-1095160D01*
X10307311Y-1095160D01*
X10288264Y-1099921D01*
X10278740Y-1104683D01*
X10269216Y-1114207D01*
X10264454Y-1128493D01*
X10264454Y-1138017D01*
X10269216Y-1152302D01*
X10273978Y-1157064D01*
X10364454Y-1252302D02*
X10364454Y-1195160D01*
X10364454Y-1223731D02*
X10264454Y-1223731D01*
X10278740Y-1214207D01*
X10288264Y-1204683D01*
X10293026Y-1195160D01*
X10264454Y-1314207D02*
X10264454Y-1323731D01*
X10269216Y-1333255D01*
X10273978Y-1338017D01*
X10283502Y-1342779D01*
X10302549Y-1347540D01*
X10326359Y-1347540D01*
X10345406Y-1342779D01*
X10354930Y-1338017D01*
X10359692Y-1333255D01*
X10364454Y-1323731D01*
X10364454Y-1314207D01*
X10359692Y-1304683D01*
X10354930Y-1299921D01*
X10345406Y-1295160D01*
X10326359Y-1290398D01*
X10302549Y-1290398D01*
X10283502Y-1295160D01*
X10273978Y-1299921D01*
X10269216Y-1304683D01*
X10264454Y-1314207D01*
%TO.C,C9*%
X6914603Y-2565858D02*
X6919364Y-2570620D01*
X6933650Y-2575382D01*
X6943174Y-2575382D01*
X6957460Y-2570620D01*
X6966984Y-2561096D01*
X6971745Y-2551573D01*
X6976507Y-2532525D01*
X6976507Y-2518239D01*
X6971745Y-2499192D01*
X6966984Y-2489668D01*
X6957460Y-2480144D01*
X6943174Y-2475382D01*
X6933650Y-2475382D01*
X6919364Y-2480144D01*
X6914603Y-2484906D01*
X6866984Y-2575382D02*
X6847936Y-2575382D01*
X6838412Y-2570620D01*
X6833650Y-2565858D01*
X6824126Y-2551573D01*
X6819364Y-2532525D01*
X6819364Y-2494430D01*
X6824126Y-2484906D01*
X6828888Y-2480144D01*
X6838412Y-2475382D01*
X6857460Y-2475382D01*
X6866984Y-2480144D01*
X6871745Y-2484906D01*
X6876507Y-2494430D01*
X6876507Y-2518239D01*
X6871745Y-2527763D01*
X6866984Y-2532525D01*
X6857460Y-2537287D01*
X6838412Y-2537287D01*
X6828888Y-2532525D01*
X6824126Y-2527763D01*
X6819364Y-2518239D01*
%TO.C,C8*%
X10417922Y-2581363D02*
X10422684Y-2576601D01*
X10427446Y-2562316D01*
X10427446Y-2552792D01*
X10422684Y-2538506D01*
X10413160Y-2528982D01*
X10403637Y-2524220D01*
X10384589Y-2519459D01*
X10370303Y-2519459D01*
X10351256Y-2524220D01*
X10341732Y-2528982D01*
X10332208Y-2538506D01*
X10327446Y-2552792D01*
X10327446Y-2562316D01*
X10332208Y-2576601D01*
X10336970Y-2581363D01*
X10370303Y-2638506D02*
X10365541Y-2628982D01*
X10360779Y-2624220D01*
X10351256Y-2619459D01*
X10346494Y-2619459D01*
X10336970Y-2624220D01*
X10332208Y-2628982D01*
X10327446Y-2638506D01*
X10327446Y-2657554D01*
X10332208Y-2667078D01*
X10336970Y-2671840D01*
X10346494Y-2676601D01*
X10351256Y-2676601D01*
X10360779Y-2671840D01*
X10365541Y-2667078D01*
X10370303Y-2657554D01*
X10370303Y-2638506D01*
X10375065Y-2628982D01*
X10379827Y-2624220D01*
X10389351Y-2619459D01*
X10408398Y-2619459D01*
X10417922Y-2624220D01*
X10422684Y-2628982D01*
X10427446Y-2638506D01*
X10427446Y-2657554D01*
X10422684Y-2667078D01*
X10417922Y-2671840D01*
X10408398Y-2676601D01*
X10389351Y-2676601D01*
X10379827Y-2671840D01*
X10375065Y-2667078D01*
X10370303Y-2657554D01*
%TO.C,C6*%
X12266026Y-771359D02*
X12270788Y-766597D01*
X12275550Y-752312D01*
X12275550Y-742788D01*
X12270788Y-728502D01*
X12261264Y-718978D01*
X12251740Y-714216D01*
X12232693Y-709454D01*
X12218407Y-709454D01*
X12199360Y-714216D01*
X12189836Y-718978D01*
X12180312Y-728502D01*
X12175550Y-742788D01*
X12175550Y-752312D01*
X12180312Y-766597D01*
X12185074Y-771359D01*
X12175550Y-857074D02*
X12175550Y-838026D01*
X12180312Y-828502D01*
X12185074Y-823740D01*
X12199360Y-814216D01*
X12218407Y-809454D01*
X12256502Y-809454D01*
X12266026Y-814216D01*
X12270788Y-818978D01*
X12275550Y-828502D01*
X12275550Y-847550D01*
X12270788Y-857074D01*
X12266026Y-861835D01*
X12256502Y-866597D01*
X12232693Y-866597D01*
X12223169Y-861835D01*
X12218407Y-857074D01*
X12213645Y-847550D01*
X12213645Y-828502D01*
X12218407Y-818978D01*
X12223169Y-814216D01*
X12232693Y-809454D01*
%TO.C,C4*%
X10228187Y-1485664D02*
X10232949Y-1490426D01*
X10247234Y-1495188D01*
X10256758Y-1495188D01*
X10271044Y-1490426D01*
X10280568Y-1480902D01*
X10285330Y-1471378D01*
X10290091Y-1452331D01*
X10290091Y-1438045D01*
X10285330Y-1418998D01*
X10280568Y-1409474D01*
X10271044Y-1399950D01*
X10256758Y-1395188D01*
X10247234Y-1395188D01*
X10232949Y-1399950D01*
X10228187Y-1404712D01*
X10142472Y-1428521D02*
X10142472Y-1495188D01*
X10166282Y-1390426D02*
X10190091Y-1461855D01*
X10128187Y-1461855D01*
%TO.C,C3*%
X10244694Y-2581363D02*
X10249456Y-2576601D01*
X10254218Y-2562316D01*
X10254218Y-2552792D01*
X10249456Y-2538506D01*
X10239932Y-2528982D01*
X10230409Y-2524220D01*
X10211361Y-2519459D01*
X10197075Y-2519459D01*
X10178028Y-2524220D01*
X10168504Y-2528982D01*
X10158980Y-2538506D01*
X10154218Y-2552792D01*
X10154218Y-2562316D01*
X10158980Y-2576601D01*
X10163742Y-2581363D01*
X10154218Y-2614697D02*
X10154218Y-2676601D01*
X10192313Y-2643268D01*
X10192313Y-2657554D01*
X10197075Y-2667078D01*
X10201837Y-2671840D01*
X10211361Y-2676601D01*
X10235170Y-2676601D01*
X10244694Y-2671840D01*
X10249456Y-2667078D01*
X10254218Y-2657554D01*
X10254218Y-2628982D01*
X10249456Y-2619459D01*
X10244694Y-2614697D01*
%TO.C,J5*%
X6230229Y-2116226D02*
X6230229Y-2187655D01*
X6234991Y-2201940D01*
X6244515Y-2211464D01*
X6258801Y-2216226D01*
X6268324Y-2216226D01*
X6134991Y-2116226D02*
X6182610Y-2116226D01*
X6187372Y-2163845D01*
X6182610Y-2159083D01*
X6173086Y-2154321D01*
X6149277Y-2154321D01*
X6139753Y-2159083D01*
X6134991Y-2163845D01*
X6130229Y-2173369D01*
X6130229Y-2197178D01*
X6134991Y-2206702D01*
X6139753Y-2211464D01*
X6149277Y-2216226D01*
X6173086Y-2216226D01*
X6182610Y-2211464D01*
X6187372Y-2206702D01*
%TO.C,SW2*%
X12590721Y-583138D02*
X12576436Y-587900D01*
X12552626Y-587900D01*
X12543102Y-583138D01*
X12538340Y-578376D01*
X12533578Y-568852D01*
X12533578Y-559329D01*
X12538340Y-549805D01*
X12543102Y-545043D01*
X12552626Y-540281D01*
X12571674Y-535519D01*
X12581197Y-530757D01*
X12585959Y-525995D01*
X12590721Y-516471D01*
X12590721Y-506948D01*
X12585959Y-497424D01*
X12581197Y-492662D01*
X12571674Y-487900D01*
X12547864Y-487900D01*
X12533578Y-492662D01*
X12500245Y-487900D02*
X12476436Y-587900D01*
X12457388Y-516471D01*
X12438340Y-587900D01*
X12414531Y-487900D01*
X12381197Y-497424D02*
X12376436Y-492662D01*
X12366912Y-487900D01*
X12343102Y-487900D01*
X12333578Y-492662D01*
X12328816Y-497424D01*
X12324055Y-506948D01*
X12324055Y-516471D01*
X12328816Y-530757D01*
X12385959Y-587900D01*
X12324055Y-587900D01*
%TD*%
M02*
